<svg xmlns="http://www.w3.org/2000/svg" viewBox="0 0 298.649 222.24">
  <defs>
    <style>
      .a {
        isolation: isolate;
      }

      .b {
        fill: #2a2e30;
      }

      .c {
        fill: #e01b22;
      }

      .d {
        fill: #8da4b7;
      }

      .e {
        opacity: 0.5;
        mix-blend-mode: overlay;
      }

      .f, .g {
        fill: #fff;
      }

      .g {
        opacity: 0.2;
      }
    </style>
  </defs>
  <title>batteries</title>
  <g class="a">
    <g>
      <g>
        <path class="b" d="M106.129,166.974v-1.69l.645-.758V11.758a4.8,4.8,0,0,0-4.8-4.8H61.357a4.8,4.8,0,0,0-4.8,4.8V164.527l.645.758v2.558l-.645.758v2.3a4.8,4.8,0,0,0,4.8,4.8h40.621a4.8,4.8,0,0,0,4.8-4.8v-2.3l-.645-.758Z"/>
        <g>
          <path class="c" d="M60.416,40.139v5.354c0,1.619.622,2.435,1.688,2.435,1.107,0,1.716-.774,1.716-2.435V40.139h2.1v5.23c0,2.877-1.453,4.246-3.887,4.246-2.352,0-3.721-1.314-3.721-4.274v-5.2Z"/>
          <path class="c" d="M67.763,40.139h2.1v7.554h3.707v1.771h-5.81Z"/>
          <path class="c" d="M75.192,41.91H72.675V40.139h7.166V41.91H77.295v7.554h-2.1Z"/>
          <path class="c" d="M80.962,40.264a18.425,18.425,0,0,1,2.808-.194,4.756,4.756,0,0,1,3.016.733,2.365,2.365,0,0,1,.872,1.965,2.47,2.47,0,0,1-1.646,2.282v.041a2.325,2.325,0,0,1,1.245,1.729c.291,1.065.567,2.283.747,2.643H85.845a12.5,12.5,0,0,1-.636-2.172c-.263-1.176-.664-1.48-1.536-1.494h-.622v3.666H80.962Zm2.089,4.012h.83c1.051,0,1.674-.526,1.674-1.342,0-.844-.581-1.287-1.549-1.287a4.183,4.183,0,0,0-.955.07Z"/>
          <path class="c" d="M91.462,47.07,90.8,49.464H88.626l2.836-9.324h2.766l2.905,9.324H94.852l-.72-2.393Zm2.365-1.577-.581-1.978c-.165-.554-.332-1.245-.47-1.8h-.028c-.138.554-.277,1.259-.429,1.8l-.553,1.978Z"/>
        </g>
        <path class="d" d="M93.216,8.472,92.569,3.88A4.619,4.619,0,0,0,88.142,0H75.193a4.619,4.619,0,0,0-4.427,3.88l-.648,4.592a3.292,3.292,0,0,0,3.333,3.88H89.884A3.292,3.292,0,0,0,93.216,8.472Z"/>
        <path class="e" d="M70.119,8.472a3.292,3.292,0,0,0,3.332,3.88H89.884a3.292,3.292,0,0,0,3.332-3.88L92.66,4.526H70.675Z"/>
        <path class="c" d="M106.129,165.285l.645-.758v-8.56H56.562v8.56l.645.758v2.558l-.645.758v2.3a4.8,4.8,0,0,0,4.8,4.8h40.621a4.8,4.8,0,0,0,4.8-4.8v-2.3l-.645-.758Z"/>
        <path class="c" d="M106.773,40.311V11.758a4.8,4.8,0,0,0-4.8-4.8H61.357a4.8,4.8,0,0,0-4.8,4.8V40.311Z"/>
        <rect class="e" x="57.207" y="165.285" width="48.922" height="2.558"/>
        <path class="f" d="M81.667,35.855A11.189,11.189,0,1,1,92.856,24.667,11.2,11.2,0,0,1,81.667,35.855Zm0-19.719a8.53,8.53,0,1,0,8.53,8.53A8.54,8.54,0,0,0,81.667,16.137Z"/>
        <path class="f" d="M86.4,23.282H83.052V19.931a1.108,1.108,0,0,0-1.108-1.108h-.554a1.108,1.108,0,0,0-1.108,1.108v3.351H76.932a1.108,1.108,0,0,0-1.108,1.108v.554a1.108,1.108,0,0,0,1.108,1.108h3.351V29.4a1.108,1.108,0,0,0,1.108,1.108h.554A1.108,1.108,0,0,0,83.052,29.4V26.052H86.4a1.108,1.108,0,0,0,1.108-1.108V24.39A1.108,1.108,0,0,0,86.4,23.282Z"/>
        <g>
          <path class="c" d="M81.27,149.876a14.69,14.69,0,0,1-.155-2.176,4.181,4.181,0,0,1,.42-2.209A1.616,1.616,0,0,1,83,144.606a1.69,1.69,0,0,1,1.58,1.226h.022a1.851,1.851,0,0,1,1.823-1.48,1.99,1.99,0,0,1,1.591.773,4.7,4.7,0,0,1,.674,2.928,13.037,13.037,0,0,1-.11,1.823Zm2.85-1.668v-.552c0-.895-.364-1.359-.917-1.359s-.862.431-.862,1.193a4.406,4.406,0,0,0,.044.718Zm3.3,0a5.287,5.287,0,0,0,.022-.652c0-.762-.3-1.436-1.083-1.436-.74,0-1.038.674-1.038,1.513v.575Z"/>
          <path class="c" d="M87.312,138.729a7.009,7.009,0,0,0,1.3-.088v1.513l-.541.1v.033a1.946,1.946,0,0,1,.663,1.547,1.656,1.656,0,0,1-1.657,1.745c-1.4,0-2.066-1.259-2.066-3.17h-.066c-.3,0-.707.155-.707.983a3.039,3.039,0,0,0,.409,1.491l-1.083.309a4.437,4.437,0,0,1-.486-2.1,2.1,2.1,0,0,1,2.342-2.364Zm-1.248,1.624c0,.884.21,1.569.851,1.569a.6.6,0,0,0,.641-.663.928.928,0,0,0-.618-.873,1.2,1.2,0,0,0-.287-.033Z"/>
          <path class="c" d="M81.756,135.6h1.458v-1.2h1.237v1.2h1.955c.652,0,.95-.166.95-.663a2.066,2.066,0,0,0-.044-.5l1.27-.011a3.539,3.539,0,0,1,.144,1.083,1.794,1.794,0,0,1-.464,1.27,2.239,2.239,0,0,1-1.6.464H84.451v.718H83.214v-.718H82.209Z"/>
          <path class="c" d="M81.756,131.547h1.458v-1.2h1.237v1.2h1.955c.652,0,.95-.166.95-.663a2.066,2.066,0,0,0-.044-.5l1.27-.011a3.539,3.539,0,0,1,.144,1.083,1.794,1.794,0,0,1-.464,1.27,2.238,2.238,0,0,1-1.6.464H84.451v.718H83.214v-.718H82.209Z"/>
          <path class="c" d="M86.451,128.133c.7-.044,1.027-.74,1.027-1.524a4.448,4.448,0,0,0-.232-1.491l1.138-.221a5.108,5.108,0,0,1,.343,1.955,2.592,2.592,0,0,1-2.751,2.883,2.706,2.706,0,0,1-2.883-2.729,2.4,2.4,0,0,1,2.7-2.408,3.989,3.989,0,0,1,.663.055ZM85.3,126.156a.975.975,0,0,0-1.093.95,1.11,1.11,0,0,0,1.093,1.038Z"/>
          <path class="c" d="M84.993,123.592c-.8,0-1.315.011-1.778.044V122.2l.994-.066v-.044a1.574,1.574,0,0,1-1.127-1.458,1.664,1.664,0,0,1,.033-.354h1.58a2.518,2.518,0,0,0-.044.453,1.08,1.08,0,0,0,.851,1.149,2,2,0,0,0,.376.033h2.74v1.679Z"/>
          <path class="c" d="M83.214,117.936l2.662-.806c.309-.088.718-.2,1.005-.265v-.044c-.3-.066-.7-.155-1.016-.232l-2.651-.674v-1.79l3.557,1.259c2.154.773,3,1.293,3.546,1.9a2.951,2.951,0,0,1,.74,1.613l-1.414.364a2.68,2.68,0,0,0-.287-.729,1.933,1.933,0,0,0-.674-.7.505.505,0,0,0-.243-.088.682.682,0,0,0-.276.066L83.214,119.8Z"/>
        </g>
        <path class="f" d="M62.614,150.2v-3.789H76.225v-6.681h3.191V150.2Zm1.221-16.5a1.889,1.889,0,0,1,1.895,2.044,1.9,1.9,0,1,1-1.895-2.044Zm15.581,3.914H67.226v-3.789h12.19Zm-7.8-12.59h2.518v6.531H71.613Zm-7.778-6.183a1.889,1.889,0,0,1,1.895,2.044,1.9,1.9,0,1,1-1.895-2.044Zm15.581,3.914H67.226v-3.789h12.19Zm-6.232-18.872a6.116,6.116,0,0,1,6.506,6.432,5.971,5.971,0,0,1-6.282,6.307c-3.963,0-6.481-2.593-6.481-6.531A5.928,5.928,0,0,1,73.184,103.879Zm.124,8.825c2.094,0,3.665-.873,3.665-2.493,0-1.5-1.471-2.418-3.689-2.418-1.795,0-3.64.7-3.64,2.418C69.644,112.006,71.514,112.7,73.308,112.7Zm-2.194-11.17c-1.521,0-2.792.05-3.889.1V98.343l1.7-.174v-.075a4.378,4.378,0,0,1-1.97-3.764c0-2.493,1.67-4.363,5.26-4.363h7.2v3.789H72.661c-1.571,0-2.643.548-2.643,1.92a2.081,2.081,0,0,0,1.421,1.944,2.731,2.731,0,0,0,.947.125h7.03v3.789Z"/>
        <rect class="c" x="56.562" y="52.165" width="50.211" height="2.88"/>
        <path class="e" d="M103.543,166.153v-.868l.469-.758V11.758c0-2.648-1.56-4.8-3.485-4.8H93.112c1.492,0,2.7,2.147,2.7,4.8V164.527l-.363.758v2.558l.363.758v2.3c0,2.648-1.21,4.8-2.7,4.8h7.415c1.925,0,3.485-2.147,3.485-4.8v-2.3l-.469-.758v-1.69Z"/>
        <path class="g" d="M67.521,170.9v-2.3l.363-.758v-2.558l-.363-.758V11.758c0-2.648,1.21-4.8,2.7-4.8H61.357a4.8,4.8,0,0,0-4.8,4.8V164.527l.645.758v2.558l-.645.758v2.3a4.8,4.8,0,0,0,4.8,4.8h8.866C68.731,175.691,67.521,173.544,67.521,170.9Z"/>
      </g>
      <g>
        <path class="b" d="M49.567,167.036v-1.69l.645-.758V11.82a4.8,4.8,0,0,0-4.8-4.8H4.8A4.8,4.8,0,0,0,0,11.82V164.588l.645.758V167.9L0,168.662v2.3a4.8,4.8,0,0,0,4.8,4.8H45.416a4.8,4.8,0,0,0,4.8-4.8v-2.3l-.645-.758Z"/>
        <g>
          <path class="c" d="M3.854,40.2v5.354c0,1.619.622,2.435,1.688,2.435,1.107,0,1.716-.774,1.716-2.435V40.2h2.1v5.23c0,2.877-1.453,4.246-3.887,4.246-2.352,0-3.721-1.314-3.721-4.274V40.2Z"/>
          <path class="c" d="M11.2,40.2h2.1v7.554h3.707v1.771H11.2Z"/>
          <path class="c" d="M18.631,41.971H16.113V40.2h7.166v1.771H20.733v7.554h-2.1Z"/>
          <path class="c" d="M24.4,40.325a18.425,18.425,0,0,1,2.808-.194,4.756,4.756,0,0,1,3.016.733,2.365,2.365,0,0,1,.872,1.965,2.47,2.47,0,0,1-1.646,2.282v.041a2.325,2.325,0,0,1,1.245,1.729c.291,1.065.567,2.283.747,2.642H29.283a12.5,12.5,0,0,1-.636-2.172c-.263-1.176-.664-1.48-1.536-1.494h-.622v3.666H24.4Zm2.089,4.012h.83c1.051,0,1.674-.526,1.674-1.342,0-.844-.581-1.287-1.549-1.287a4.183,4.183,0,0,0-.955.069Z"/>
          <path class="c" d="M34.9,47.132l-.664,2.393H32.064L34.9,40.2h2.766l2.905,9.324H38.29l-.72-2.393Zm2.365-1.577-.581-1.978c-.165-.554-.332-1.245-.47-1.8h-.028c-.138.554-.277,1.259-.429,1.8L35.2,45.554Z"/>
        </g>
        <path class="d" d="M36.654,8.534l-.648-4.592A4.619,4.619,0,0,0,31.58.061H18.631A4.619,4.619,0,0,0,14.2,3.941l-.648,4.592a3.292,3.292,0,0,0,3.333,3.88H33.322A3.292,3.292,0,0,0,36.654,8.534Z"/>
        <path class="e" d="M13.557,8.534a3.292,3.292,0,0,0,3.332,3.88H33.322a3.292,3.292,0,0,0,3.332-3.88L36.1,4.587H14.113Z"/>
        <path class="c" d="M49.567,165.346l.645-.758v-8.56H0v8.56l.645.758V167.9L0,168.662v2.3a4.8,4.8,0,0,0,4.8,4.8H45.416a4.8,4.8,0,0,0,4.8-4.8v-2.3l-.645-.758Z"/>
        <path class="c" d="M50.211,40.373V11.82a4.8,4.8,0,0,0-4.8-4.8H4.8A4.8,4.8,0,0,0,0,11.82V40.373Z"/>
        <rect class="e" x="0.645" y="165.346" width="48.922" height="2.558"/>
        <path class="f" d="M25.106,35.917A11.189,11.189,0,1,1,36.295,24.728,11.2,11.2,0,0,1,25.106,35.917Zm0-19.718a8.53,8.53,0,1,0,8.53,8.53A8.54,8.54,0,0,0,25.106,16.2Z"/>
        <path class="f" d="M29.842,23.343H26.49V19.992a1.108,1.108,0,0,0-1.108-1.108h-.554a1.108,1.108,0,0,0-1.108,1.108v3.351H20.37a1.108,1.108,0,0,0-1.108,1.108v.554a1.108,1.108,0,0,0,1.108,1.108h3.351v3.351a1.108,1.108,0,0,0,1.108,1.108h.554a1.108,1.108,0,0,0,1.108-1.108V26.113h3.351a1.108,1.108,0,0,0,1.108-1.108v-.554A1.108,1.108,0,0,0,29.842,23.343Z"/>
        <g>
          <path class="c" d="M24.708,149.937a14.69,14.69,0,0,1-.155-2.176,4.181,4.181,0,0,1,.42-2.209,1.616,1.616,0,0,1,1.469-.884,1.69,1.69,0,0,1,1.58,1.226h.022a1.851,1.851,0,0,1,1.823-1.48,1.99,1.99,0,0,1,1.591.773,4.7,4.7,0,0,1,.674,2.928,13.037,13.037,0,0,1-.11,1.823Zm2.85-1.668v-.552c0-.895-.364-1.359-.917-1.359s-.862.431-.862,1.193a4.406,4.406,0,0,0,.044.718Zm3.3,0a5.287,5.287,0,0,0,.022-.652c0-.762-.3-1.436-1.083-1.436-.74,0-1.038.674-1.038,1.513v.575Z"/>
          <path class="c" d="M30.751,138.79a7.009,7.009,0,0,0,1.3-.088v1.513l-.541.1v.033a1.946,1.946,0,0,1,.663,1.547,1.656,1.656,0,0,1-1.657,1.745c-1.4,0-2.066-1.259-2.066-3.171h-.066c-.3,0-.707.155-.707.983a3.039,3.039,0,0,0,.409,1.491l-1.083.309a4.437,4.437,0,0,1-.486-2.1,2.1,2.1,0,0,1,2.342-2.364ZM29.5,140.414c0,.884.21,1.569.851,1.569a.6.6,0,0,0,.641-.663.928.928,0,0,0-.618-.873,1.2,1.2,0,0,0-.287-.033Z"/>
          <path class="c" d="M25.194,135.663h1.458v-1.2h1.237v1.2h1.955c.652,0,.95-.166.95-.663a2.066,2.066,0,0,0-.044-.5l1.27-.011a3.539,3.539,0,0,1,.144,1.083,1.794,1.794,0,0,1-.464,1.27,2.239,2.239,0,0,1-1.6.464H27.889v.718H26.652v-.718H25.647Z"/>
          <path class="c" d="M25.194,131.609h1.458v-1.2h1.237v1.2h1.955c.652,0,.95-.166.95-.663a2.066,2.066,0,0,0-.044-.5l1.27-.011a3.539,3.539,0,0,1,.144,1.083,1.794,1.794,0,0,1-.464,1.27,2.238,2.238,0,0,1-1.6.464H27.889v.718H26.652v-.718H25.647Z"/>
          <path class="c" d="M29.889,128.195c.7-.044,1.027-.74,1.027-1.524a4.448,4.448,0,0,0-.232-1.491l1.138-.221a5.108,5.108,0,0,1,.343,1.955,2.592,2.592,0,0,1-2.751,2.883,2.706,2.706,0,0,1-2.883-2.729,2.4,2.4,0,0,1,2.7-2.408,3.989,3.989,0,0,1,.663.055Zm-1.149-1.977a.975.975,0,0,0-1.093.95,1.11,1.11,0,0,0,1.093,1.038Z"/>
          <path class="c" d="M28.431,123.654c-.8,0-1.315.011-1.778.044v-1.436l.994-.066v-.044a1.574,1.574,0,0,1-1.127-1.458,1.664,1.664,0,0,1,.033-.353h1.58a2.518,2.518,0,0,0-.044.453,1.08,1.08,0,0,0,.851,1.149,2,2,0,0,0,.376.033h2.74v1.679Z"/>
          <path class="c" d="M26.652,118l2.662-.806c.309-.088.718-.2,1.005-.265v-.044c-.3-.066-.7-.155-1.016-.232l-2.651-.674v-1.79l3.557,1.259c2.154.773,3,1.293,3.546,1.9a2.951,2.951,0,0,1,.74,1.613l-1.414.365a2.68,2.68,0,0,0-.287-.729,1.933,1.933,0,0,0-.674-.7.505.505,0,0,0-.243-.088.682.682,0,0,0-.276.066l-4.949,1.988Z"/>
        </g>
        <path class="f" d="M6.052,150.262v-3.789H19.664v-6.681h3.191v10.47Zm1.221-16.5A1.889,1.889,0,0,1,9.168,135.8a1.9,1.9,0,1,1-1.895-2.044Zm15.581,3.914H10.664v-3.789h12.19Zm-7.8-12.59h2.518v6.531H15.051ZM7.273,118.9a1.889,1.889,0,0,1,1.895,2.044A1.9,1.9,0,1,1,7.273,118.9Zm15.581,3.914H10.664v-3.789h12.19Zm-6.232-18.872a6.116,6.116,0,0,1,6.506,6.432,5.971,5.971,0,0,1-6.282,6.307c-3.963,0-6.481-2.593-6.481-6.532A5.928,5.928,0,0,1,16.622,103.941Zm.124,8.825c2.094,0,3.665-.873,3.665-2.493,0-1.5-1.471-2.418-3.689-2.418-1.795,0-3.64.7-3.64,2.418C13.082,112.068,14.952,112.766,16.747,112.766ZM14.553,101.6c-1.521,0-2.792.05-3.889.1V98.4l1.7-.175v-.075a4.378,4.378,0,0,1-1.97-3.764c0-2.493,1.67-4.363,5.26-4.363h7.2v3.789H16.1c-1.571,0-2.643.548-2.643,1.92a2.081,2.081,0,0,0,1.421,1.944,2.731,2.731,0,0,0,.947.125h7.03V101.6Z"/>
        <rect class="c" y="52.226" width="50.211" height="2.88"/>
        <path class="e" d="M46.981,166.215v-.868l.468-.758V11.82c0-2.648-1.56-4.8-3.485-4.8H36.55c1.492,0,2.7,2.147,2.7,4.8V164.588l-.363.758V167.9l.363.758v2.3c0,2.648-1.21,4.8-2.7,4.8h7.415c1.925,0,3.485-2.147,3.485-4.8v-2.3l-.468-.758v-1.69Z"/>
        <path class="g" d="M10.96,170.957v-2.3l.363-.758v-2.558l-.363-.758V11.82c0-2.648,1.21-4.8,2.7-4.8H4.8A4.8,4.8,0,0,0,0,11.82V164.588l.645.758V167.9L0,168.662v2.3a4.8,4.8,0,0,0,4.8,4.8h8.866C12.169,175.752,10.96,173.605,10.96,170.957Z"/>
      </g>
      <g>
        <path class="b" d="M162.691,167.036v-1.69l.645-.758V11.82a4.8,4.8,0,0,0-4.8-4.8H117.919a4.8,4.8,0,0,0-4.8,4.8V164.588l.645.758V167.9l-.645.758v2.3a4.8,4.8,0,0,0,4.8,4.8H158.54a4.8,4.8,0,0,0,4.8-4.8v-2.3l-.645-.758Z"/>
        <g>
          <path class="c" d="M116.978,40.2v5.354c0,1.619.623,2.435,1.688,2.435,1.107,0,1.716-.774,1.716-2.435V40.2h2.1v5.23c0,2.877-1.453,4.246-3.887,4.246-2.352,0-3.721-1.314-3.721-4.274V40.2Z"/>
          <path class="c" d="M124.325,40.2h2.1v7.554h3.707v1.771h-5.81Z"/>
          <path class="c" d="M131.754,41.971h-2.518V40.2H136.4v1.771h-2.546v7.554h-2.1Z"/>
          <path class="c" d="M137.524,40.325a18.425,18.425,0,0,1,2.808-.194,4.756,4.756,0,0,1,3.016.733,2.365,2.365,0,0,1,.872,1.965,2.47,2.47,0,0,1-1.646,2.282v.041a2.325,2.325,0,0,1,1.245,1.729c.291,1.065.567,2.283.747,2.642h-2.158a12.5,12.5,0,0,1-.636-2.172c-.263-1.176-.664-1.48-1.536-1.494h-.623v3.666h-2.089Zm2.089,4.012h.83c1.052,0,1.674-.526,1.674-1.342,0-.844-.581-1.287-1.549-1.287a4.183,4.183,0,0,0-.955.069Z"/>
          <path class="c" d="M148.024,47.132l-.664,2.393h-2.172l2.836-9.324h2.766l2.905,9.324h-2.282l-.72-2.393Zm2.365-1.577-.581-1.978c-.165-.554-.332-1.245-.47-1.8h-.028c-.138.554-.277,1.259-.429,1.8l-.553,1.978Z"/>
        </g>
        <path class="d" d="M149.778,8.534l-.648-4.592A4.619,4.619,0,0,0,144.7.061H131.755a4.619,4.619,0,0,0-4.427,3.88l-.648,4.592a3.292,3.292,0,0,0,3.333,3.88h16.432A3.292,3.292,0,0,0,149.778,8.534Z"/>
        <path class="e" d="M126.681,8.534a3.292,3.292,0,0,0,3.332,3.88h16.432a3.292,3.292,0,0,0,3.333-3.88l-.556-3.946H127.237Z"/>
        <path class="c" d="M162.691,165.346l.645-.758v-8.56H113.124v8.56l.645.758V167.9l-.645.758v2.3a4.8,4.8,0,0,0,4.8,4.8H158.54a4.8,4.8,0,0,0,4.8-4.8v-2.3l-.645-.758Z"/>
        <path class="c" d="M163.335,40.373V11.82a4.8,4.8,0,0,0-4.8-4.8H117.919a4.8,4.8,0,0,0-4.8,4.8V40.373Z"/>
        <rect class="e" x="113.769" y="165.346" width="48.922" height="2.558"/>
        <path class="f" d="M138.229,35.917a11.189,11.189,0,1,1,11.189-11.189A11.2,11.2,0,0,1,138.229,35.917Zm0-19.718a8.53,8.53,0,1,0,8.53,8.53A8.54,8.54,0,0,0,138.229,16.2Z"/>
        <path class="f" d="M142.966,23.343h-3.351V19.992a1.108,1.108,0,0,0-1.108-1.108h-.554a1.108,1.108,0,0,0-1.108,1.108v3.351h-3.351a1.108,1.108,0,0,0-1.108,1.108v.554a1.108,1.108,0,0,0,1.108,1.108h3.351v3.351a1.108,1.108,0,0,0,1.108,1.108h.554a1.108,1.108,0,0,0,1.108-1.108V26.113h3.351a1.108,1.108,0,0,0,1.108-1.108v-.554A1.108,1.108,0,0,0,142.966,23.343Z"/>
        <g>
          <path class="c" d="M137.832,149.937a14.69,14.69,0,0,1-.155-2.176,4.181,4.181,0,0,1,.42-2.209,1.616,1.616,0,0,1,1.469-.884,1.69,1.69,0,0,1,1.58,1.226h.022a1.851,1.851,0,0,1,1.823-1.48,1.99,1.99,0,0,1,1.591.773,4.7,4.7,0,0,1,.674,2.928,13.037,13.037,0,0,1-.11,1.823Zm2.85-1.668v-.552c0-.895-.364-1.359-.917-1.359s-.862.431-.862,1.193a4.406,4.406,0,0,0,.044.718Zm3.3,0a5.287,5.287,0,0,0,.022-.652c0-.762-.3-1.436-1.083-1.436-.74,0-1.038.674-1.038,1.513v.575Z"/>
          <path class="c" d="M143.874,138.79a7.009,7.009,0,0,0,1.3-.088v1.513l-.541.1v.033a1.946,1.946,0,0,1,.663,1.547,1.656,1.656,0,0,1-1.657,1.745c-1.4,0-2.066-1.259-2.066-3.171h-.066c-.3,0-.707.155-.707.983a3.039,3.039,0,0,0,.409,1.491l-1.083.309a4.437,4.437,0,0,1-.486-2.1,2.1,2.1,0,0,1,2.342-2.364Zm-1.248,1.624c0,.884.21,1.569.851,1.569a.6.6,0,0,0,.641-.663.928.928,0,0,0-.619-.873,1.2,1.2,0,0,0-.287-.033Z"/>
          <path class="c" d="M138.318,135.663h1.458v-1.2h1.237v1.2h1.955c.652,0,.95-.166.95-.663a2.066,2.066,0,0,0-.044-.5l1.27-.011a3.539,3.539,0,0,1,.144,1.083,1.794,1.794,0,0,1-.464,1.27,2.239,2.239,0,0,1-1.6.464h-2.209v.718h-1.237v-.718h-1.005Z"/>
          <path class="c" d="M138.318,131.609h1.458v-1.2h1.237v1.2h1.955c.652,0,.95-.166.95-.663a2.066,2.066,0,0,0-.044-.5l1.27-.011a3.539,3.539,0,0,1,.144,1.083,1.794,1.794,0,0,1-.464,1.27,2.238,2.238,0,0,1-1.6.464h-2.209v.718h-1.237v-.718h-1.005Z"/>
          <path class="c" d="M143.013,128.195c.7-.044,1.027-.74,1.027-1.524a4.448,4.448,0,0,0-.232-1.491l1.138-.221a5.108,5.108,0,0,1,.343,1.955,2.592,2.592,0,0,1-2.751,2.883,2.706,2.706,0,0,1-2.883-2.729,2.4,2.4,0,0,1,2.7-2.408,3.989,3.989,0,0,1,.663.055Zm-1.149-1.977a.975.975,0,0,0-1.093.95,1.11,1.11,0,0,0,1.093,1.038Z"/>
          <path class="c" d="M141.555,123.654c-.8,0-1.315.011-1.779.044v-1.436l.994-.066v-.044a1.574,1.574,0,0,1-1.127-1.458,1.664,1.664,0,0,1,.033-.353h1.58a2.518,2.518,0,0,0-.044.453,1.08,1.08,0,0,0,.851,1.149,2,2,0,0,0,.376.033h2.74v1.679Z"/>
          <path class="c" d="M139.776,118l2.662-.806c.309-.088.718-.2,1.005-.265v-.044c-.3-.066-.7-.155-1.016-.232l-2.651-.674v-1.79l3.557,1.259c2.154.773,3,1.293,3.546,1.9a2.951,2.951,0,0,1,.74,1.613l-1.414.365a2.68,2.68,0,0,0-.287-.729,1.933,1.933,0,0,0-.674-.7.505.505,0,0,0-.243-.088.682.682,0,0,0-.276.066l-4.949,1.988Z"/>
        </g>
        <path class="f" d="M119.176,150.262v-3.789h13.612v-6.681h3.191v10.47Zm1.221-16.5a1.889,1.889,0,0,1,1.895,2.044,1.9,1.9,0,1,1-1.895-2.044Zm15.581,3.914h-12.19v-3.789h12.19Zm-7.8-12.59h2.518v6.531h-2.518ZM120.4,118.9a1.889,1.889,0,0,1,1.895,2.044A1.9,1.9,0,1,1,120.4,118.9Zm15.581,3.914h-12.19v-3.789h12.19Zm-6.232-18.872a6.116,6.116,0,0,1,6.506,6.432,5.971,5.971,0,0,1-6.282,6.307c-3.963,0-6.481-2.593-6.481-6.532A5.928,5.928,0,0,1,129.746,103.941Zm.124,8.825c2.094,0,3.665-.873,3.665-2.493,0-1.5-1.471-2.418-3.689-2.418-1.795,0-3.64.7-3.64,2.418C126.206,112.068,128.076,112.766,129.87,112.766Zm-2.194-11.17c-1.521,0-2.792.05-3.889.1V98.4l1.7-.175v-.075a4.378,4.378,0,0,1-1.97-3.764c0-2.493,1.67-4.363,5.26-4.363h7.2v3.789h-6.756c-1.571,0-2.643.548-2.643,1.92A2.081,2.081,0,0,0,128,97.682a2.731,2.731,0,0,0,.947.125h7.03V101.6Z"/>
        <rect class="c" x="113.124" y="52.226" width="50.211" height="2.88"/>
        <path class="e" d="M160.105,166.215v-.868l.468-.758V11.82c0-2.648-1.56-4.8-3.485-4.8h-7.415c1.492,0,2.7,2.147,2.7,4.8V164.588l-.363.758V167.9l.363.758v2.3c0,2.648-1.21,4.8-2.7,4.8h7.415c1.925,0,3.485-2.147,3.485-4.8v-2.3l-.468-.758v-1.69Z"/>
        <path class="g" d="M124.083,170.957v-2.3l.363-.758v-2.558l-.363-.758V11.82c0-2.648,1.21-4.8,2.7-4.8h-8.866a4.8,4.8,0,0,0-4.8,4.8V164.588l.645.758V167.9l-.645.758v2.3a4.8,4.8,0,0,0,4.8,4.8h8.866C125.293,175.752,124.083,173.605,124.083,170.957Z"/>
      </g>
      <g>
        <path class="b" d="M219.252,167.036v-1.69l.645-.758V11.82a4.8,4.8,0,0,0-4.8-4.8H174.481a4.8,4.8,0,0,0-4.8,4.8V164.588l.645.758V167.9l-.645.758v2.3a4.8,4.8,0,0,0,4.8,4.8H215.1a4.8,4.8,0,0,0,4.8-4.8v-2.3l-.645-.758Z"/>
        <g>
          <path class="c" d="M173.54,40.2v5.354c0,1.619.623,2.435,1.688,2.435,1.107,0,1.716-.774,1.716-2.435V40.2h2.1v5.23c0,2.877-1.453,4.246-3.887,4.246-2.352,0-3.721-1.314-3.721-4.274V40.2Z"/>
          <path class="c" d="M180.887,40.2h2.1v7.554H186.7v1.771h-5.81Z"/>
          <path class="c" d="M188.316,41.971H185.8V40.2h7.166v1.771h-2.546v7.554h-2.1Z"/>
          <path class="c" d="M194.086,40.325a18.425,18.425,0,0,1,2.808-.194,4.756,4.756,0,0,1,3.016.733,2.365,2.365,0,0,1,.872,1.965,2.47,2.47,0,0,1-1.646,2.282v.041a2.325,2.325,0,0,1,1.245,1.729c.291,1.065.567,2.283.747,2.642h-2.158a12.5,12.5,0,0,1-.636-2.172c-.263-1.176-.664-1.48-1.536-1.494h-.623v3.666h-2.089Zm2.089,4.012H197c1.052,0,1.674-.526,1.674-1.342,0-.844-.581-1.287-1.549-1.287a4.183,4.183,0,0,0-.955.069Z"/>
          <path class="c" d="M204.586,47.132l-.664,2.393H201.75l2.836-9.324h2.766l2.905,9.324h-2.282l-.72-2.393Zm2.365-1.577-.581-1.978c-.165-.554-.332-1.245-.47-1.8h-.028c-.138.554-.277,1.259-.429,1.8l-.553,1.978Z"/>
        </g>
        <path class="d" d="M206.34,8.534l-.648-4.592a4.619,4.619,0,0,0-4.427-3.88H188.317a4.619,4.619,0,0,0-4.427,3.88l-.648,4.592a3.292,3.292,0,0,0,3.333,3.88h16.432A3.292,3.292,0,0,0,206.34,8.534Z"/>
        <path class="e" d="M183.243,8.534a3.292,3.292,0,0,0,3.332,3.88h16.432a3.292,3.292,0,0,0,3.333-3.88l-.556-3.946H183.8Z"/>
        <path class="c" d="M219.252,165.346l.645-.758v-8.56H169.686v8.56l.645.758V167.9l-.645.758v2.3a4.8,4.8,0,0,0,4.8,4.8H215.1a4.8,4.8,0,0,0,4.8-4.8v-2.3l-.645-.758Z"/>
        <path class="c" d="M219.9,40.373V11.82a4.8,4.8,0,0,0-4.8-4.8H174.481a4.8,4.8,0,0,0-4.8,4.8V40.373Z"/>
        <rect class="e" x="170.331" y="165.346" width="48.922" height="2.558"/>
        <path class="f" d="M194.791,35.917A11.189,11.189,0,1,1,205.98,24.728,11.2,11.2,0,0,1,194.791,35.917Zm0-19.718a8.53,8.53,0,1,0,8.53,8.53A8.54,8.54,0,0,0,194.791,16.2Z"/>
        <path class="f" d="M199.527,23.343h-3.351V19.992a1.108,1.108,0,0,0-1.108-1.108h-.554a1.108,1.108,0,0,0-1.108,1.108v3.351h-3.351a1.108,1.108,0,0,0-1.108,1.108v.554a1.108,1.108,0,0,0,1.108,1.108h3.351v3.351a1.108,1.108,0,0,0,1.108,1.108h.554a1.108,1.108,0,0,0,1.108-1.108V26.113h3.351a1.108,1.108,0,0,0,1.108-1.108v-.554A1.108,1.108,0,0,0,199.527,23.343Z"/>
        <g>
          <path class="c" d="M194.394,149.937a14.69,14.69,0,0,1-.155-2.176,4.181,4.181,0,0,1,.42-2.209,1.616,1.616,0,0,1,1.469-.884,1.69,1.69,0,0,1,1.58,1.226h.022a1.851,1.851,0,0,1,1.823-1.48,1.99,1.99,0,0,1,1.591.773,4.7,4.7,0,0,1,.674,2.928,13.037,13.037,0,0,1-.11,1.823Zm2.85-1.668v-.552c0-.895-.364-1.359-.917-1.359s-.862.431-.862,1.193a4.406,4.406,0,0,0,.044.718Zm3.3,0a5.287,5.287,0,0,0,.022-.652c0-.762-.3-1.436-1.083-1.436-.74,0-1.038.674-1.038,1.513v.575Z"/>
          <path class="c" d="M200.436,138.79a7.009,7.009,0,0,0,1.3-.088v1.513l-.541.1v.033a1.946,1.946,0,0,1,.663,1.547,1.656,1.656,0,0,1-1.657,1.745c-1.4,0-2.066-1.259-2.066-3.171h-.066c-.3,0-.707.155-.707.983a3.039,3.039,0,0,0,.409,1.491l-1.083.309a4.437,4.437,0,0,1-.486-2.1,2.1,2.1,0,0,1,2.342-2.364Zm-1.248,1.624c0,.884.21,1.569.851,1.569a.6.6,0,0,0,.641-.663.928.928,0,0,0-.619-.873,1.2,1.2,0,0,0-.287-.033Z"/>
          <path class="c" d="M194.88,135.663h1.458v-1.2h1.237v1.2h1.955c.652,0,.95-.166.95-.663a2.066,2.066,0,0,0-.044-.5l1.27-.011a3.539,3.539,0,0,1,.144,1.083,1.794,1.794,0,0,1-.464,1.27,2.239,2.239,0,0,1-1.6.464h-2.209v.718h-1.237v-.718h-1.005Z"/>
          <path class="c" d="M194.88,131.609h1.458v-1.2h1.237v1.2h1.955c.652,0,.95-.166.95-.663a2.066,2.066,0,0,0-.044-.5l1.27-.011a3.539,3.539,0,0,1,.144,1.083,1.794,1.794,0,0,1-.464,1.27,2.238,2.238,0,0,1-1.6.464h-2.209v.718h-1.237v-.718h-1.005Z"/>
          <path class="c" d="M199.575,128.195c.7-.044,1.027-.74,1.027-1.524a4.448,4.448,0,0,0-.232-1.491l1.138-.221a5.108,5.108,0,0,1,.343,1.955A2.592,2.592,0,0,1,199.1,129.8a2.706,2.706,0,0,1-2.883-2.729,2.4,2.4,0,0,1,2.7-2.408,3.989,3.989,0,0,1,.663.055Zm-1.149-1.977a.975.975,0,0,0-1.093.95,1.11,1.11,0,0,0,1.093,1.038Z"/>
          <path class="c" d="M198.116,123.654c-.8,0-1.315.011-1.779.044v-1.436l.994-.066v-.044a1.574,1.574,0,0,1-1.127-1.458,1.664,1.664,0,0,1,.033-.353h1.58a2.518,2.518,0,0,0-.044.453,1.08,1.08,0,0,0,.851,1.149,2,2,0,0,0,.376.033h2.74v1.679Z"/>
          <path class="c" d="M196.338,118l2.662-.806c.309-.088.718-.2,1.005-.265v-.044c-.3-.066-.7-.155-1.016-.232l-2.651-.674v-1.79l3.557,1.259c2.154.773,3,1.293,3.546,1.9a2.951,2.951,0,0,1,.74,1.613l-1.414.365a2.68,2.68,0,0,0-.287-.729,1.933,1.933,0,0,0-.674-.7.505.505,0,0,0-.243-.088.682.682,0,0,0-.276.066l-4.949,1.988Z"/>
        </g>
        <path class="f" d="M175.738,150.262v-3.789h13.612v-6.681h3.191v10.47Zm1.221-16.5a1.889,1.889,0,0,1,1.895,2.044,1.9,1.9,0,1,1-1.895-2.044Zm15.581,3.914H180.35v-3.789h12.19Zm-7.8-12.59h2.518v6.531h-2.518Zm-7.778-6.183a1.889,1.889,0,0,1,1.895,2.044,1.9,1.9,0,1,1-1.895-2.044Zm15.581,3.914H180.35v-3.789h12.19Zm-6.232-18.872a6.116,6.116,0,0,1,6.506,6.432,5.971,5.971,0,0,1-6.282,6.307c-3.963,0-6.481-2.593-6.481-6.532A5.928,5.928,0,0,1,186.308,103.941Zm.124,8.825c2.094,0,3.665-.873,3.665-2.493,0-1.5-1.471-2.418-3.689-2.418-1.795,0-3.64.7-3.64,2.418C182.768,112.068,184.637,112.766,186.432,112.766Zm-2.194-11.17c-1.521,0-2.792.05-3.889.1V98.4l1.7-.175v-.075a4.378,4.378,0,0,1-1.97-3.764c0-2.493,1.67-4.363,5.26-4.363h7.2v3.789h-6.756c-1.571,0-2.643.548-2.643,1.92a2.081,2.081,0,0,0,1.421,1.944,2.731,2.731,0,0,0,.947.125h7.03V101.6Z"/>
        <rect class="c" x="169.686" y="52.226" width="50.211" height="2.88"/>
        <path class="e" d="M216.667,166.215v-.868l.468-.758V11.82c0-2.648-1.56-4.8-3.485-4.8h-7.415c1.492,0,2.7,2.147,2.7,4.8V164.588l-.363.758V167.9l.363.758v2.3c0,2.648-1.21,4.8-2.7,4.8h7.415c1.925,0,3.485-2.147,3.485-4.8v-2.3l-.468-.758v-1.69Z"/>
        <path class="g" d="M180.645,170.957v-2.3l.363-.758v-2.558l-.363-.758V11.82c0-2.648,1.21-4.8,2.7-4.8h-8.866a4.8,4.8,0,0,0-4.8,4.8V164.588l.645.758V167.9l-.645.758v2.3a4.8,4.8,0,0,0,4.8,4.8h8.866C181.855,175.752,180.645,173.605,180.645,170.957Z"/>
      </g>
      <g>
        <path class="b" d="M227.394,110.562l-.393.721-.416.762-.929.357-41.865,76.71a4.8,4.8,0,0,0,1.912,6.506l35.656,19.46a4.8,4.8,0,0,0,6.506-1.912l41.865-76.71-.2-.974.416-.762.393-.721.416-.762.929-.356,1.1-2.015a4.8,4.8,0,0,0-1.912-6.506L235.213,104.9a4.8,4.8,0,0,0-6.506,1.912l-1.1,2.015.2.974Z"/>
        <path class="d" d="M262.456,121.486l1.632-4.341a4.619,4.619,0,0,0-2.027-5.526l-1.08-.589L251.774,106l-1.08-.589a4.619,4.619,0,0,0-5.744,1.285l-2.768,3.721a3.292,3.292,0,0,0,1.067,5l4.138,2.258,6.148,3.355,4.138,2.258A3.292,3.292,0,0,0,262.456,121.486Z"/>
        <path class="e" d="M242.181,110.421a3.292,3.292,0,0,0,1.067,5l4.138,2.258,6.148,3.355,4.138,2.258a3.292,3.292,0,0,0,4.784-1.809l1.4-3.73-19.3-10.532Z"/>
        <path class="c" d="M226.585,112.045l-.929.356-4.1,7.514L265.63,143.97l4.1-7.514-.2-.974,1.225-2.245.929-.356,1.1-2.015a4.8,4.8,0,0,0-1.912-6.506L235.213,104.9a4.8,4.8,0,0,0-6.506,1.912l-1.1,2.015.2.974Z"/>
        <path class="c" d="M197.469,164.048l-13.678,25.063a4.8,4.8,0,0,0,1.912,6.506l35.656,19.46a4.8,4.8,0,0,0,6.506-1.912L241.544,188.1Z"/>
        <circle class="f" cx="258.935" cy="129.567" r="6.385" transform="translate(21.159 294.786) rotate(-61.376)"/>
        <path class="c" d="M255.327,128.779l2.2,1.2-1.2,2.2a.829.829,0,0,0,.331,1.125l.364.2a.829.829,0,0,0,1.125-.331l1.2-2.2,2.2,1.2a.829.829,0,0,0,1.125-.331l.2-.364a.829.829,0,0,0-.331-1.125l-2.2-1.2,1.2-2.2a.829.829,0,0,0-.331-1.125l-.364-.2a.829.829,0,0,0-1.125.331l-1.2,2.2-2.2-1.2a.829.829,0,0,0-1.125.331l-.2.364A.829.829,0,0,0,255.327,128.779Z"/>
        <rect class="c" x="199.57" y="165.452" width="50.211" height="2.304" transform="translate(342.08 420.478) rotate(-151.376)"/>
        <rect class="e" x="224.208" y="121.361" width="48.922" height="2.558" transform="translate(408.195 349.419) rotate(-151.376)"/>
        <path class="f" d="M258.209,144.381a24.284,24.284,0,0,1-1.5,3.281,6.913,6.913,0,0,1-2.359,2.874,2.672,2.672,0,0,1-2.833.119,2.8,2.8,0,0,1-1.322-3.031l-.032-.017a3.06,3.06,0,0,1-3.818.7,3.29,3.29,0,0,1-1.7-2.382c-.2-1.127.169-2.634,1.341-4.783a21.53,21.53,0,0,1,1.6-2.558Zm-5.458.163-.437.8c-.709,1.3-.547,2.261.254,2.7.818.446,1.592.057,2.2-1.049a7.269,7.269,0,0,0,.5-1.077Zm-4.794-2.616a8.743,8.743,0,0,0-.548.928c-.6,1.106-.7,2.321.434,2.942,1.074.586,2.041-.156,2.706-1.374l.455-.834ZM243.7,152.214l-2.354-2.283,1.374-2.517,9.013,9.185-1.75,3.207-12.644-2.531,1.444-2.646,3.229.68Zm.332,3.74,2.66.578c.746.158,1.653.4,2.382.593l.017-.032c-.554-.511-1.284-1.117-1.813-1.635l-1.943-1.892Zm.862,8.3,1.593-2.918,2.052,1.12L244,170.757l-2.052-1.12,1.61-2.95-8.754-4.778,1.33-2.437Zm-4.988,9.14,1.593-2.918,2.052,1.12-4.533,8.306-2.052-1.12,1.61-2.95-8.754-4.778,1.33-2.437Zm-11.343,10.833,2.17-3.976-2.565-1.4-2.424,4.441-2-1.094,3.754-6.879,10.807,5.9-3.631,6.654-2-1.094,2.3-4.217-2.245-1.225-2.17,3.976Zm4.929,5.459a24.274,24.274,0,0,1-1.552,3.377,6.283,6.283,0,0,1-2.758,3.032,3.123,3.123,0,0,1-2.828-.232,3.261,3.261,0,0,1-1.6-3.352l-.048-.026a3.071,3.071,0,0,1-2.792.349c-1.418-.337-3-.786-3.535-.806l1.365-2.5a16.466,16.466,0,0,1,2.92.636c1.529.439,2.136.167,2.7-.835l.394-.722-4.249-2.319,1.321-2.421Zm-5.971-.117-.525.962c-.665,1.219-.45,2.273.5,2.789.978.534,1.859.141,2.471-.982a5.544,5.544,0,0,0,.524-1.15Zm-11.08,6,4.425,2.415,8.245.068-1.531,2.806-3.193-.327c-.97-.092-1.678-.166-2.523-.3l-.017.032c.542.608,1.027,1.206,1.622,1.947l2,2.508-1.5,2.742-4.359-7L215.106,198Z"/>
        <g>
          <polygon class="c" points="207.977 162.823 209.767 163.8 206.837 169.169 208.331 169.985 211.262 164.616 213.071 165.603 213.758 164.345 208.664 161.565 207.977 162.823"/>
          <polygon class="c" points="206.668 160.475 205.173 159.66 201.556 166.287 205.686 168.541 206.373 167.283 203.737 165.844 206.668 160.475"/>
          <path class="c" d="M200.293,161.935c-.644,1.18-1.377,1.494-2.164,1.065-.024-.013-.041-.03-.064-.044l-.658,1.205.018.012c1.731.945,3.295.534,4.411-1.51l2.029-3.717-1.495-.816Z"/>
          <path class="c" d="M216.222,170.259l.016-.029a2,2,0,0,0,2.056-.984,1.915,1.915,0,0,0,.143-1.735,3.852,3.852,0,0,0-1.859-1.691,14.937,14.937,0,0,0-2.071-.952l-3.569,6.539,1.485.81,1.422-2.606.442.241c.614.348.781.72.512,1.658a10.114,10.114,0,0,0-.39,1.791l1.534.837c.012-.325.288-1.3.494-2.168A1.884,1.884,0,0,0,216.222,170.259Zm-1.2-1.406-.59-.322.993-1.819a3.39,3.39,0,0,1,.705.321c.688.376.93.916.6,1.516C216.418,169.128,215.772,169.26,215.025,168.852Z"/>
          <path class="c" d="M223.985,169.926l-1.966-1.073-5.633,5.528,1.544.843,1.4-1.444,1.9,1.036-.417,1.98,1.622.885Zm-3.827,2.85,1.161-1.191c.318-.325.689-.772,1-1.112l.02.011c-.117.447-.267,1-.364,1.461l-.354,1.631Z"/>
        </g>
        <path class="g" d="M193.623,194.477l41.865-76.71.677-.494,1.225-2.245.05-.836,1.1-2.015c1.269-2.324,3.341-3.639,4.628-2.937l-7.954-4.341a4.8,4.8,0,0,0-6.506,1.912l-1.1,2.015.2.974-1.225,2.245-.929.357-41.865,76.71a4.8,4.8,0,0,0,1.912,6.506l7.954,4.341C192.369,199.256,192.354,196.8,193.623,194.477Z"/>
        <path class="e" d="M268.442,131.974l.816-.418,1.1-2.015c1.269-2.325.788-5.033-1.073-6.049l-6.369-3.476c1.03.563.838,2.9-.431,5.228l-1.1,2.015-.614.528-1.225,2.245-.112.8-41.865,76.71c-1.261,2.311-3.111,3.735-4.145,3.2h0l6.351,3.467c1.861,1.016,4.4-.045,5.667-2.37l41.865-76.71-.09-.913Z"/>
      </g>
      <g>
        <path class="b" d="M252.675,117.137l-.393.721-.416.762-.929.357-41.865,76.71a4.8,4.8,0,0,0,1.912,6.506l35.656,19.46a4.8,4.8,0,0,0,6.506-1.912l41.865-76.71-.2-.974.416-.762.393-.721.416-.762.929-.356,1.1-2.015a4.8,4.8,0,0,0-1.912-6.506l-35.656-19.46a4.8,4.8,0,0,0-6.506,1.912l-1.1,2.015.2.974Z"/>
        <path class="d" d="M287.736,128.061l1.632-4.341a4.619,4.619,0,0,0-2.027-5.526l-1.08-.589-9.206-5.024-1.08-.589a4.619,4.619,0,0,0-5.744,1.285L267.462,117a3.292,3.292,0,0,0,1.067,5l4.138,2.258,6.148,3.355,4.138,2.258A3.292,3.292,0,0,0,287.736,128.061Z"/>
        <path class="e" d="M267.462,117a3.292,3.292,0,0,0,1.067,5l4.138,2.258,6.148,3.355,4.138,2.258a3.292,3.292,0,0,0,4.784-1.809l1.4-3.73-19.3-10.532Z"/>
        <path class="c" d="M251.865,118.62l-.929.356-4.1,7.514,44.075,24.054,4.1-7.514-.2-.974,1.225-2.245.929-.356,1.1-2.015a4.8,4.8,0,0,0-1.912-6.506l-35.656-19.46a4.8,4.8,0,0,0-6.506,1.912l-1.1,2.015.2.974Z"/>
        <path class="c" d="M222.75,170.624l-13.678,25.063a4.8,4.8,0,0,0,1.912,6.506l35.656,19.46a4.8,4.8,0,0,0,6.506-1.912l13.678-25.063Z"/>
        <circle class="f" cx="284.216" cy="136.143" r="6.385" transform="translate(28.556 320.403) rotate(-61.376)"/>
        <path class="c" d="M280.608,135.354l2.2,1.2-1.2,2.2a.829.829,0,0,0,.331,1.125l.364.2a.829.829,0,0,0,1.125-.331l1.2-2.2,2.2,1.2a.829.829,0,0,0,1.125-.331l.2-.364a.829.829,0,0,0-.331-1.125l-2.2-1.2,1.2-2.2a.829.829,0,0,0-.331-1.125l-.364-.2a.829.829,0,0,0-1.125.331l-1.2,2.2-2.2-1.2a.829.829,0,0,0-1.125.331l-.2.364A.829.829,0,0,0,280.608,135.354Z"/>
        <rect class="c" x="224.85" y="172.027" width="50.211" height="2.304" transform="translate(386.401 444.937) rotate(-151.376)"/>
        <rect class="e" x="249.488" y="127.937" width="48.922" height="2.558" transform="translate(452.516 373.877) rotate(-151.376)"/>
        <path class="f" d="M283.49,150.956a24.284,24.284,0,0,1-1.5,3.281,6.913,6.913,0,0,1-2.359,2.874,2.672,2.672,0,0,1-2.833.119,2.8,2.8,0,0,1-1.322-3.031l-.032-.017a3.06,3.06,0,0,1-3.818.7,3.29,3.29,0,0,1-1.7-2.382c-.2-1.127.169-2.634,1.341-4.783a21.53,21.53,0,0,1,1.6-2.558Zm-5.458.163-.437.8c-.709,1.3-.547,2.261.254,2.7.818.446,1.592.057,2.2-1.049a7.269,7.269,0,0,0,.5-1.077Zm-4.794-2.616a8.743,8.743,0,0,0-.548.928c-.6,1.106-.7,2.321.434,2.942,1.074.586,2.041-.156,2.706-1.374l.455-.834Zm-4.262,10.286-2.354-2.283L268,153.989l9.013,9.185-1.75,3.207-12.644-2.531,1.444-2.646,3.229.68Zm.332,3.74,2.66.578c.746.158,1.653.4,2.382.593l.017-.032c-.554-.511-1.284-1.117-1.813-1.635l-1.943-1.892Zm.862,8.3,1.593-2.918,2.052,1.12-4.533,8.306-2.052-1.12,1.61-2.95-8.754-4.778,1.33-2.437Zm-4.988,9.14,1.593-2.918,2.052,1.12-4.533,8.306-2.052-1.12,1.61-2.95-8.754-4.778,1.33-2.437ZM253.838,190.8l2.17-3.976-2.565-1.4-2.424,4.441-2-1.094,3.754-6.879,10.807,5.9-3.631,6.654-2-1.094,2.3-4.217L258,187.907l-2.17,3.976Zm4.929,5.459a24.274,24.274,0,0,1-1.552,3.377,6.283,6.283,0,0,1-2.758,3.032,3.123,3.123,0,0,1-2.828-.232,3.261,3.261,0,0,1-1.6-3.352l-.048-.026a3.071,3.071,0,0,1-2.792.349c-1.418-.337-3-.786-3.535-.806l1.365-2.5a16.466,16.466,0,0,1,2.92.636c1.529.439,2.136.167,2.7-.835l.394-.722-4.249-2.319,1.321-2.421Zm-5.971-.117-.525.962c-.665,1.219-.45,2.273.5,2.789.978.534,1.859.141,2.471-.982a5.544,5.544,0,0,0,.524-1.15Zm-11.08,6,4.425,2.415,8.245.068-1.531,2.806-3.193-.327c-.97-.092-1.678-.166-2.523-.3l-.017.032c.542.608,1.027,1.206,1.622,1.947l2,2.508-1.5,2.742-4.359-7-4.505-2.459Z"/>
        <g>
          <polygon class="c" points="233.258 169.399 235.047 170.376 232.117 175.745 233.612 176.561 236.542 171.191 238.351 172.179 239.038 170.92 233.945 168.14 233.258 169.399"/>
          <polygon class="c" points="231.948 167.051 230.454 166.235 226.836 172.863 230.966 175.117 231.653 173.858 229.018 172.42 231.948 167.051"/>
          <path class="c" d="M225.573,168.511c-.644,1.18-1.377,1.494-2.164,1.065-.024-.013-.041-.03-.064-.044l-.658,1.205.018.012c1.731.945,3.295.534,4.411-1.51l2.029-3.717-1.495-.816Z"/>
          <path class="c" d="M241.5,176.834l.016-.029a2,2,0,0,0,2.056-.984,1.915,1.915,0,0,0,.143-1.735,3.852,3.852,0,0,0-1.859-1.691,14.937,14.937,0,0,0-2.071-.952l-3.569,6.539,1.485.81,1.422-2.606.442.241c.614.348.781.72.512,1.658a10.114,10.114,0,0,0-.39,1.791l1.534.837c.012-.325.288-1.3.494-2.168A1.884,1.884,0,0,0,241.5,176.834Zm-1.2-1.406-.59-.322.993-1.819a3.39,3.39,0,0,1,.705.321c.688.376.93.916.6,1.516C241.7,175.7,241.052,175.836,240.3,175.428Z"/>
          <path class="c" d="M249.265,176.5l-1.966-1.073-5.633,5.528,1.544.843,1.4-1.444,1.9,1.036-.417,1.98,1.622.885Zm-3.827,2.85,1.161-1.191c.318-.325.689-.772,1-1.112l.02.011c-.117.447-.267,1-.364,1.461l-.354,1.631Z"/>
        </g>
        <path class="g" d="M218.9,201.053l41.865-76.71.677-.494,1.225-2.245.05-.836,1.1-2.015c1.269-2.324,3.341-3.639,4.628-2.937l-7.954-4.341a4.8,4.8,0,0,0-6.506,1.912l-1.1,2.015.2.974-1.225,2.245-.929.357-41.865,76.71a4.8,4.8,0,0,0,1.912,6.506l7.954,4.341C217.65,205.832,217.634,203.377,218.9,201.053Z"/>
        <path class="e" d="M293.722,138.55l.816-.418,1.1-2.015c1.269-2.325.788-5.033-1.073-6.049l-6.369-3.476c1.03.563.838,2.9-.431,5.228l-1.1,2.015-.614.528-1.225,2.245-.112.8-41.865,76.71c-1.261,2.311-3.111,3.735-4.145,3.2h0l6.351,3.467c1.861,1.016,4.4-.045,5.667-2.37l41.865-76.71-.09-.913Z"/>
      </g>
    </g>
  </g>
</svg>
