<svg xmlns="http://www.w3.org/2000/svg" viewBox="0 0 48.433 65.535">
  <title>bear</title>
  <path d="M376.9,381.529l.043-.021a4.066,4.066,0,0,0-1.929-1.408c-.122-.042-.245-.08-.367-.118h4.073v-2.714l1.691-1.691.015-.016h0c.046-.047.09-.094.133-.144l.021-.2.044.014c-.009.048-.019.1-.029.144a2.836,2.836,0,0,0,.454-2.834l-.259-.662a13.746,13.746,0,0,1,.686,1.32,17.8,17.8,0,0,0-1.357-3.516,8.228,8.228,0,0,1,.8,1.316,10.308,10.308,0,0,0-1.654-3.022,6.583,6.583,0,0,1,1.2,1.686c-.228-.475-.6-1.262-.939-1.991l-.01.116-.553-.049,0-.093h.549c-.421-.9-.794-1.7-.795-1.705v-9.973h-4.21c-.834-1.173-1.5-1.989-1.5-1.989.373.386,1.062,1.141,1.062,1.141-.478-.571-1.491-2.063-1.491-2.063l1.151,1.307-1.331-2.12q-.35-.556-.664-1.134l-1.134-2.084a6.074,6.074,0,0,1-3.779-.575v.023l-.04.021-.021-.045.031-.014a5.166,5.166,0,0,1-1.323-1.042c-.026.008-.047.014-.05.009a.632.632,0,0,1-.056-.126,6,6,0,0,1-1.229-2.259,7.049,7.049,0,0,0,3.694,3.343,2.97,2.97,0,0,0,3.209-.525.242.242,0,0,1-.045-.008c.007-.024.015-.068.022-.069a.3.3,0,0,1,.087.017,2.863,2.863,0,0,0,.728-1.186c.038-.119.053-.191.053-.191,1.214-.592.789-1.418.668-1.61l-.028.019v-.049l.015.011-.015-.022-.548-.749-.059.533-.156-.018.1-.673-1.91-2.608a2.716,2.716,0,0,1-.525-1.614,9.475,9.475,0,0,0-.52-3.239.356.356,0,0,1-.143.092.133.133,0,0,1-.03-.005V336.4h-.147a.6.6,0,0,1,.155-.172c.022-.012.066.011.124.043a6.934,6.934,0,0,0-2.977-3.68,6.041,6.041,0,0,0-.74-3.947.781.781,0,0,0-1.293.018,7.749,7.749,0,0,0-.761,1.677.4.4,0,0,1-.524.24,6.8,6.8,0,0,0-3.354.12.61.61,0,0,1-.646-.248l-.524-.759a5.187,5.187,0,0,0-.529-.658c-2.919-3.023-3.531,2.686-3.659,5.11a4.068,4.068,0,0,1-.6,1.911c-.159.259-.345.568-.548.914a.167.167,0,0,1,.011.022c.005.015-.006.036-.01.054l-.037-.015A44.629,44.629,0,0,0,350.122,342l0,0-.008.005c-.161.381-.31.76-.442,1.131l.973-1.187a11.3,11.3,0,0,0-1.971,4.219,4.065,4.065,0,0,1,1.01-1.314l-.052.089a.284.284,0,0,1,.136-.05c.047,0,.1.093.145.144l-.252.2c-.031-.07-.08-.138-.094-.188a10.179,10.179,0,0,0-1.375,4.677,5.245,5.245,0,0,1,1.238-2.375,7.242,7.242,0,0,0-.37.753,22.406,22.406,0,0,1-1.725,3.264c-.128.2-.243.385-.362.573h0v0c-1.357,2.156-2.081,3.425-2.4,4.017h-4.929v9.764h0v.845l-.006.014.006-.652-.421.9a.4.4,0,0,1,.07.18c0,.089-.138.186-.216.28-.012-.022-.025-.045-.037-.067-.182.391-.385.825-.578,1.234l.006.016a.176.176,0,0,1-.029.032c-.207.441-.4.85-.541,1.142a6.583,6.583,0,0,1,1.2-1.686,12.028,12.028,0,0,0-1.312,2.113c.045-.063.1-.123.148-.187.02.035.046.07.071.1a2.779,2.779,0,0,1,.241-.324s-.077.151-.195.4a.189.189,0,0,1,.027.093,1.528,1.528,0,0,1-.185.427c-.015-.031-.029-.059-.044-.086a13.862,13.862,0,0,0-.96,2.684,13.728,13.728,0,0,1,.686-1.32l-.258.662a2.837,2.837,0,0,0,.637,3.038l.758.758.094-.07.122.191-.065.03.783.783v2.714h5.009c-.122.037-.245.076-.367.118A4.094,4.094,0,0,0,342.04,382c-.224.4-.454.838-.612,1.19a16.873,16.873,0,0,1,1.033-1.434,12.712,12.712,0,0,0-1.342,2.39,14.31,14.31,0,0,1,.894-1.234,8.739,8.739,0,0,0-1.614,4.015,2.027,2.027,0,0,0-1.511-.874.879.879,0,0,0-.956-.247,1.142,1.142,0,0,1,.35.535s.131.735.594.866c0,0-.409,0-.763-.586a1.013,1.013,0,0,0-.84-.339s.416.447.409.756a.867.867,0,0,0,.193,1.172.78.78,0,0,1-.506-.625,1.1,1.1,0,0,0-.637-.75s.165.709,0,.946a1,1,0,0,0-.154,1.09.849.849,0,0,1-.175-1.008.556.556,0,0,0-.422-.617.84.84,0,0,1-.144.864,1.541,1.541,0,0,0-.352.745,2.475,2.475,0,0,0,.556,2.085c.884,1.055,2.7,2.865,4.721,2.762,0,0,3.516.041,3.866-1.6,0,0,.37-1.151-1.275-2.755a2.9,2.9,0,0,1,1.285,3.809s.683-.32,1.459-.778a.139.139,0,0,1-.02-.087c.01-.031.076-.045.118-.066a.772.772,0,0,1,.04.07,9.539,9.539,0,0,0,1.388-.99,1.181,1.181,0,0,1-.312-.005.778.778,0,0,1-.179-.133c.054-.023.116-.075.159-.062a2.053,2.053,0,0,1,.345.189,2.717,2.717,0,0,0,.529-.61,4.264,4.264,0,0,1-.966,1.331,3.989,3.989,0,0,0,1.588-1.943,2.74,2.74,0,0,1-.308,1.141,6.119,6.119,0,0,0,1-1.989,2.9,2.9,0,0,1-.216,1.095,3.132,3.132,0,0,0,.756-1.773,6.552,6.552,0,0,0,4.21,2.467,6.67,6.67,0,0,1-1.015-.064l-.01.018-.009-.021a1.438,1.438,0,0,1-.406-.118,9.2,9.2,0,0,0,2.817.665v.016h.131c.28.034.578.066.905.093l.118-.093h.016l.009.1c.692.053,1.488.089,2.4.094a.338.338,0,0,0,.026-.027l.023.027h.738l-.147-.2h.331c.01.045-.1.129-.165.2,4.91-.015,6.524-.879,6.524-.879a4.378,4.378,0,0,1-1.439.185,6.553,6.553,0,0,0,4.21-2.467,3.133,3.133,0,0,0,.756,1.773,2.9,2.9,0,0,1-.216-1.095,6.119,6.119,0,0,0,1,1.989,2.74,2.74,0,0,1-.308-1.141,3.99,3.99,0,0,0,1.589,1.943,4.266,4.266,0,0,1-.966-1.331c.658,1.131,3.526,2.473,3.526,2.473a2.9,2.9,0,0,1,1.285-3.809c-1.645,1.6-1.275,2.755-1.275,2.755.193.91,1.356,1.3,2.357,1.474a.156.156,0,0,1-.034-.1c.008-.056.082-.1.127-.152l.091.154-.087.111a9.453,9.453,0,0,0,1.413.114c2.017.1,3.837-1.707,4.72-2.762a2.538,2.538,0,0,0,.6-1.587c-.021-.013-.042-.03-.062-.045l.051-.046.012.012a2.276,2.276,0,0,0-.048-.419,1.54,1.54,0,0,0-.352-.745.84.84,0,0,1-.144-.864.556.556,0,0,0-.422.617,1.085,1.085,0,0,1,.052.631l.014-.007-.014.008a.7.7,0,0,1-.226.375,1,1,0,0,0-.154-1.09c-.165-.236,0-.946,0-.946a1.105,1.105,0,0,0-.637.75.78.78,0,0,1-.506.625.867.867,0,0,0,.193-1.172c-.008-.308.409-.756.409-.756a1.013,1.013,0,0,0-.84.339c-.355.583-.763.586-.763.586a.864.864,0,0,0,.5-.548l-.053-.025.038-.04c.011.005.024.01.034.015a1.812,1.812,0,0,0,.077-.269,1.141,1.141,0,0,1,.349-.535.879.879,0,0,0-.956.247,2.026,2.026,0,0,0-1.511.874,8.74,8.74,0,0,0-1.614-4.015,14.31,14.31,0,0,1,.894,1.234,12.719,12.719,0,0,0-1.342-2.39,16.911,16.911,0,0,1,1.033,1.434c-.158-.352-.388-.787-.613-1.19a4.166,4.166,0,0,0-.307-.467l-.051.01h0m3.6,5.434.053.006-.043.067c-.014-.01-.037-.02-.038-.032S380.5,386.986,380.506,386.972Zm-1.79-21.031.006.65-.006-.014Zm-41.169,20.675,0-.005.132-.086.027.056Zm-1.878,3.055c-.014,0-.027-.018-.041-.028l.05-.051.023.047C335.69,389.651,335.679,389.672,335.669,389.671Zm.979.57a.581.581,0,0,1-.035-.1c0-.013.019-.03.03-.045.023.022.046.044.069.068C336.692,390.191,336.67,390.216,336.649,390.24Zm.423-1.734-.356-.119.007-.007.352.121Zm.41,2.4-.127-.033c.031-.033.058-.077.1-.094s.07.011.106.019Zm41.2-12.548-.07,0,.014-.048c.015,0,.037,0,.044,0S378.674,378.34,378.677,378.356Zm-.029-1.26c.01.008.006.031.008.048l-.052.018-.01-.077C378.613,377.088,378.636,377.086,378.648,377.1ZM366.8,344.491l0,0,0,0ZM340.792,368.3c.012.034.025.067.037.1-.025.011-.05.019-.074.027-.005-.018-.019-.04-.014-.053A.425.425,0,0,1,340.792,368.3Zm35.223,3.543.175-.331c-.047.005-.093.011-.14.013a3.289,3.289,0,0,1-1.48-.293,2.84,2.84,0,0,0-.626-.214,1.784,1.784,0,0,0-.638-.041,1.359,1.359,0,0,1-.166-.245.45.45,0,0,0-.014.421c0,.124.11.318.4.618a1.172,1.172,0,0,0-.209,0,.344.344,0,0,1-.186-.04.127.127,0,0,1,.025.057c0,.045-.036.094-.057.141-.033-.039-.085-.073-.093-.117a.344.344,0,0,1,.039-.149.3.3,0,0,1-.027-.03.865.865,0,0,1-.079-.141.468.468,0,0,0,.07.552,1.661,1.661,0,0,0,.549.7,1.739,1.739,0,0,0-.329-.042.474.474,0,0,1-.421-.259l-.012-.027a.481.481,0,0,0,.125.613,1,1,0,0,0,.1.166l.016-.02.114.135-.033.013a4.294,4.294,0,0,0,.354.377,1.4,1.4,0,0,0-.361-.092.5.5,0,0,1-.382-.223.9.9,0,0,1-.059-.111.454.454,0,0,0,.013.471,1.062,1.062,0,0,1,.127.264,2.083,2.083,0,0,0,.214.478s1.09,2.082,4.462,2.452h0v1.81h-36.6v-1.81a6.653,6.653,0,0,0,3.293-1.209c-.112.027-.182.064-.216.044a.718.718,0,0,1-.2-.2c-.009-.012.07-.086.109-.132l.314.28a4.164,4.164,0,0,0,1.16-1.237,2.088,2.088,0,0,0,.214-.478,1.066,1.066,0,0,1,.127-.264.454.454,0,0,0,.013-.471.905.905,0,0,1-.059.111.5.5,0,0,1-.382.223,1.4,1.4,0,0,0-.361.092,2.394,2.394,0,0,0,.545-.671.481.481,0,0,0,.125-.613l-.013.027a.473.473,0,0,1-.421.259,1.739,1.739,0,0,0-.33.042,1.659,1.659,0,0,0,.549-.7.467.467,0,0,0,.07-.552.874.874,0,0,1-.079.141.332.332,0,0,1-.3.138,1.173,1.173,0,0,0-.209,0c.293-.3.4-.494.4-.618a.449.449,0,0,0-.014-.421,1.366,1.366,0,0,1-.166.245,1.784,1.784,0,0,0-.638.041,2.84,2.84,0,0,0-.626.214,3.289,3.289,0,0,1-1.48.293,2.2,2.2,0,0,1-1.433-.667V357.2h5.847l.03-.075h.105c-.016.025-.032.05-.048.075h30.667v13.66a2.265,2.265,0,0,1-1.235.649l.06.047m-31.294-.531c.018,0,.038-.013.054-.008s.022.025.033.039l-.039.036Zm31.717,5.741-.042-.02.041-.021Zm-37.709,16.276c-.015-.031-.04-.063-.036-.091s.043-.035.067-.052c.013.03.038.061.035.089S339.047,393.025,339.022,393.042Zm7.5-1.439.016-.045.027.036Zm.469-1.788-.129-.171.036-.025.105.185Zm4.309-1.23,0-.042.042.023Zm2.784,1.491,0-.045.038.022Zm.564.815c-.006.011-.027.013-.042.019l-.019-.048.063-.023A.123.123,0,0,1,354.65,390.891Zm16.884-.176-.034-.024.035-.023Zm5.187-.811c-.014.006-.036-.006-.055-.009.008-.024.015-.049.026-.073l.107.029A.468.468,0,0,1,376.72,389.9Zm.094-.568.026-.041.022.044Zm.221-.348-.031-.035.046-.006Zm.561,1.874.032-.029.012.043Zm.121-.938c-.008.005-.026-.006-.04-.01l.014-.041.04.012C377.727,389.9,377.726,389.918,377.717,389.924Zm.339,2.73,0-.044.038.021Zm.65-3.132.025-.037.025.037Zm.283,1.946.038-.019v.045Zm.8-2.472.053.019c0,.017,0,.041-.009.05s-.036.008-.054.011Zm-.64,4.393c.009-.015.014-.037.027-.044s.028.014.043.022v.054Zm.668-.653c-.027.008-.064-.019-.1-.03l.1-.082.112.041A.458.458,0,0,1,379.813,392.737Zm1-2.721-.047-.055c.017-.006.034-.017.05-.015s.022.021.033.033Zm.608.638a.127.127,0,0,1,0-.051c0-.011.025-.015.038-.021l.021.045Zm.18-1.746a.161.161,0,0,1-.09-.062c-.008-.011.023-.05.036-.077l.151.092C381.654,388.884,381.623,388.914,381.6,388.909Zm.594,2.826.129-.051h0c-.045-.057-.09-.114-.131-.174l.068-.055.074.244Zm.836-2.513-.064-.034.024-.043.039.026Z" transform="translate(-335.434 -328.167)"/>
  <g>
    <polygon points="32.883 36.546 31.364 35.027 28.41 37.981 25.456 35.027 23.937 36.546 26.891 39.5 23.937 42.454 25.456 43.973 28.41 41.019 31.364 43.973 32.883 42.454 29.929 39.5 32.883 36.546" style="fill: #ed1c24"/>
    <path d="M355.459,372.142a4.476,4.476,0,1,1,3.165-7.641l-1.519,1.519a2.327,2.327,0,1,0,0,3.291l1.519,1.519A4.446,4.446,0,0,1,355.459,372.142Z" transform="translate(-335.434 -328.167)"/>
  </g>
</svg>
