<svg xmlns="http://www.w3.org/2000/svg" viewBox="0 0 1000 769.539">
  <defs>
    <style>
      .a {
        fill: #2d2e2e;
      }

      .a, .b, .f, .i, .j {
        fill-rule: evenodd;
      }

      .b, .c {
        fill: #3b3c3d;
      }

      .d, .j {
        fill: #7a7a7a;
      }

      .e {
        fill: #969595;
      }

      .f {
        fill: #e0e0e0;
      }

      .g {
        fill: #6e6f70;
      }

      .h {
        fill: #474849;
      }

      .i {
        fill: #939394;
      }
    </style>
  </defs>
  <title>binoculars</title>
  <g>
    <g>
      <path class="a" d="M742.786,403.347q-44.7-64.585-89.408-129.173A466.855,466.855,0,0,1,770.794,219.23a63.673,63.673,0,0,1,33.107-3.013c32.228,5.937,46.452,36.078,48.065,39.652a67.5,67.5,0,0,1,5.939,31.564c-1.107,16.19-8.259,27.753-11.579,32.98a78,78,0,0,1-10.273,12.916Z" transform="translate(-100 -215.23)"/>
      <path class="a" d="M1010.585,567.459Q953.552,513.448,896.519,459.44a466.733,466.733,0,0,1,103.6-77.921,63.656,63.656,0,0,1,31.778-9.76c32.762-.82,52.878,25.752,55.194,28.917a67.49,67.49,0,0,1,12.3,29.67c2.248,16.069-2.375,28.856-4.548,34.656a77.847,77.847,0,0,1-7.4,14.752Z" transform="translate(-100 -215.23)"/>
      <path class="b" d="M503.064,296.289q66.878-19.844,133.757-39.684a364.818,364.818,0,0,1,116.8,3.649c108.065,21.22,188.81,89.131,228.121,147.4,7.983,11.836,15.59,25.249,16.653,27.127a452.063,452.063,0,0,1,47.219,122.937q-47.9,50.642-95.809,101.284Q726.431,477.649,503.064,296.289Z" transform="translate(-100 -215.23)"/>
      <path class="a" d="M503.064,296.289s271.991-21.358,395.407,204.9L771.868,599.7,653.378,447.722,537.354,473.85Z" transform="translate(-100 -215.23)"/>
      <ellipse class="c" cx="680.894" cy="434.317" rx="51.47" ry="62.909" transform="translate(-167.242 -85.118) rotate(-10.405)"/>
      <circle class="d" cx="710.042" cy="415.284" r="156.664"/>
      <ellipse class="d" cx="352.848" cy="207.096" rx="142.693" ry="135.677"/>
      <path class="b" d="M304.863,693.087q-91.206-131.773-182.41-263.54a952.332,952.332,0,0,1,239.553-112.1c14.958-5.4,39.2-11.367,67.545-6.147,65.754,12.113,94.769,73.605,98.063,80.9a137.757,137.757,0,0,1,12.117,64.4c-2.258,33.028-16.852,56.619-23.624,67.284a159.109,159.109,0,0,1-20.962,26.352Z" transform="translate(-100 -215.23)"/>
      <ellipse class="e" cx="223.304" cy="553.584" rx="102.308" ry="161.307" transform="translate(-368.424 -0.059) rotate(-33.496)"/>
      <ellipse class="d" cx="218.083" cy="558.003" rx="87.539" ry="132.298" transform="translate(-371.732 -2.204) rotate(-33.496)"/>
      <path class="f" d="M194.956,438.867a81.587,81.587,0,0,0-29.951,26.992c-22.62,34.485-8.954,74.074-7.009,79.43A186.243,186.243,0,0,0,179.677,586a188.5,188.5,0,0,0,54.435,51.25s74.145,35.007,87.123-30.973a181.792,181.792,0,0,0-9.069-54.085s-19.708-59.647-74.49-95.838a129.7,129.7,0,0,0-29-14.144A107.063,107.063,0,0,0,194.956,438.867Z" transform="translate(-100 -215.23)"/>
      <g>
        <path class="b" d="M696.548,969.043,436.637,710.376a1089.6,1089.6,0,0,1,246.27-175.825c15.707-9.178,41.746-20.924,74.722-20.93,76.493-.014,121.895,63.153,127.115,70.673,22.054,31.779,26.172,62.777,26.994,69.944,4.313,37.629-7.213,67.2-12.62,80.607a182.049,182.049,0,0,1-18.117,34Z" transform="translate(-100 -215.23)"/>
        <ellipse class="e" cx="575.842" cy="829.008" rx="117.048" ry="184.549" transform="translate(-514.068 416.479) rotate(-43.944)"/>
        <ellipse class="d" cx="570.884" cy="835.064" rx="100.153" ry="151.361" transform="translate(-519.66 414.741) rotate(-43.944)"/>
        <path class="f" d="M520.146,705.818a93.364,93.364,0,0,0-28.1,36.585c-18.3,43.493,5.293,85.2,8.593,90.821a213.057,213.057,0,0,0,32.838,41.3A215.6,215.6,0,0,0,605.359,920.9s90.684,24.006,91.6-52.924A207.96,207.96,0,0,0,675.532,809s-34.547-63.021-103.691-92.374a148.387,148.387,0,0,0-35.565-9.9A123.1,123.1,0,0,0,520.146,705.818Z" transform="translate(-100 -215.23)"/>
      </g>
      <ellipse class="g" cx="661.274" cy="438.866" rx="51.47" ry="62.908" transform="translate(-168.38 -88.601) rotate(-10.404)"/>
      <ellipse class="h" cx="661.274" cy="438.866" rx="43.861" ry="53.607" transform="translate(-168.386 -88.588) rotate(-10.405)"/>
      <ellipse class="c" cx="663.328" cy="438.866" rx="39.738" ry="48.568" transform="translate(-168.347 -88.228) rotate(-10.404)"/>
    </g>
    <path class="i" d="M230.077,401.939c6.781,1.266,12.173-2.9,21.037-7.965,5.816-3.324,12.135-5.7,18.008-8.92,34.626-19.009,71.9-33.862,69.98-40.326-.6-2.026-5.04-3.173-5.232-3.221-.741-.186-2.886-.63-8.573,1.058a51.95,51.95,0,0,0-8.754,3.5c-8.461,3.97-15.485,7.341-20.548,9.79-11.073,5.358-23.69,11.469-39.525,19.781q-8.079,4.238-15.923,8.518s-19.193,10.511-17.079,14.627a2.452,2.452,0,0,0,.131.226A15.625,15.625,0,0,0,230.077,401.939Z" transform="translate(-100 -215.23)"/>
    <path class="i" d="M565.019,652.775c9.253.546,15.74-5.917,26.7-14.168,7.191-5.412,15.217-9.641,22.5-14.93,42.946-31.185,90.131-57.278,86.476-65.57-1.145-2.6-7.256-3.378-7.518-3.411-1.022-.121-3.954-.351-11.249,2.857a69.844,69.844,0,0,0-11.079,6.141c-10.61,6.721-19.4,12.4-25.738,16.519-13.855,9.013-29.642,19.288-49.348,33.041q-10.051,7.016-19.789,14.045s-23.806,17.252-20.3,22.382c.1.146.214.279.214.279A20.989,20.989,0,0,0,565.019,652.775Z" transform="translate(-100 -215.23)"/>
    <path class="j" d="M582.6,293.05c4.842,1.632,9.227-.866,16.253-3.666,4.608-1.838,9.489-2.924,14.128-4.681,27.362-10.364,56.238-17.4,55.5-22.343-.234-1.549-3.37-2.85-3.505-2.9-.525-.214-2.052-.759-6.4-.111a38.7,38.7,0,0,0-6.783,1.662c-6.618,2.036-12.117,3.782-16.083,5.057-8.676,2.785-18.561,5.962-31.033,10.42q-6.364,2.275-12.561,4.6s-15.162,5.727-14.037,8.965a1.848,1.848,0,0,0,.073.18A11.593,11.593,0,0,0,582.6,293.05Z" transform="translate(-100 -215.23)"/>
  </g>
</svg>
