<svg xmlns="http://www.w3.org/2000/svg" xmlns:xlink="http://www.w3.org/1999/xlink" viewBox="0 0 107.833 61.9"><defs><style>.a{fill:#231e1f;opacity:0.2;}.a,.aa,.ab,.ac,.ad,.ae,.af,.ag,.ah,.ai,.aj,.ak,.al,.am,.an,.ao,.ap,.aq,.ar,.as,.at,.au,.av,.aw,.ax,.ay,.az,.b,.ba,.bb,.bc,.be,.bf,.bg,.bh,.bi,.bj,.bk,.bl,.bm,.bn,.bo,.bp,.bq,.br,.bs,.bt,.bu,.bv,.bw,.bx,.by,.bz,.c,.ca,.cb,.cc,.cd,.ce,.cf,.cg,.ch,.ci,.cj,.ck,.cl,.cm,.cn,.co,.cp,.cq,.cr,.cs,.ct,.cu,.cv,.cw,.cx,.cy,.cz,.d,.da,.db,.dc,.dd,.de,.df,.dg,.dh,.di,.dj,.dk,.dl,.dm,.dn,.do,.dp,.dq,.dr,.ds,.dt,.du,.dv,.dw,.dx,.dy,.dz,.e,.ea,.eb,.ec,.ed,.ee,.ef,.eg,.eh,.ei,.ej,.ek,.el,.em,.en,.eo,.ep,.eq,.er,.es,.et,.eu,.ev,.ew,.ex,.ey,.ez,.f,.fa,.fb,.fc,.fd,.fe,.ff,.fg,.fh,.fi,.fj,.fk,.fl,.fm,.fn,.fo,.fp,.fq,.fr,.fs,.ft,.fu,.fv,.fw,.fx,.fy,.fz,.g,.ga,.gb,.gc,.gd,.ge,.h,.i,.j,.k,.l,.m,.n,.o,.p,.q,.r,.s,.t,.u,.v,.w,.x,.y,.z{fill-rule:evenodd;}.b{fill:#a1a1b4;}.c{fill:#394252;}.d{fill:#8a97d3;}.e{fill:url(#a);}.f{fill:url(#b);}.g{fill:url(#c);}.h{fill:url(#d);}.i{fill:url(#e);}.j{fill:url(#f);}.k{fill:url(#g);}.l{fill:url(#h);}.m{fill:url(#i);}.n{fill:url(#j);}.o{fill:url(#k);}.p{fill:url(#l);}.q{fill:url(#m);}.r{fill:url(#n);}.s{fill:url(#o);}.t{fill:url(#p);}.u{fill:url(#q);}.v{fill:url(#r);}.w{fill:url(#s);}.x{fill:url(#t);}.y{fill:url(#u);}.z{fill:url(#v);}.aa{fill:url(#w);}.ab{fill:url(#x);}.ac{fill:#3d4352;}.ad{fill:url(#y);}.ae{fill:url(#z);}.af{fill:url(#aa);}.ag{fill:url(#ab);}.ah{fill:url(#ac);}.ai{fill:url(#ad);}.aj{fill:url(#ae);}.ak{fill:url(#af);}.al{fill:url(#ag);}.am{fill:url(#ah);}.an{fill:url(#ai);}.ao{fill:url(#aj);}.ap{fill:url(#ak);}.aq{fill:url(#al);}.ar{fill:url(#am);}.as{fill:url(#an);}.at{fill:url(#ao);}.au{fill:url(#ap);}.av{fill:url(#aq);}.aw{fill:url(#ar);}.ax{fill:url(#as);}.ay{fill:#c0bfcf;}.az{fill:url(#at);}.ba{fill:url(#au);}.bb{fill:url(#av);}.bc,.bd{fill:#767b8c;}.be{fill:#ececfa;}.bf{fill:#bab5c9;}.bg{fill:url(#aw);}.bh{fill:url(#ax);}.bi{fill:url(#ay);}.bj{fill:url(#az);}.bk{fill:url(#ba);}.bl{fill:url(#bb);}.bm{fill:url(#bc);}.bn{fill:url(#bd);}.bo{fill:url(#be);}.bp{fill:url(#bf);}.bq{fill:url(#bg);}.br{fill:url(#bh);}.bs{fill:url(#bi);}.bt{fill:url(#bj);}.bu{fill:url(#bk);}.bv{fill:url(#bl);}.bw{fill:url(#bm);}.bx{fill:url(#bn);}.by{fill:url(#bo);}.bz{fill:url(#bp);}.ca{fill:url(#bq);}.cb{fill:url(#br);}.cc{fill:url(#bs);}.cd{fill:url(#bt);}.ce{fill:url(#bu);}.cf{fill:url(#bv);}.cg{fill:url(#bw);}.ch{fill:url(#bx);}.ci{fill:url(#by);}.cj{fill:url(#bz);}.ck{fill:url(#ca);}.cl{fill:url(#cb);}.cm{fill:url(#cc);}.cn{fill:url(#cd);}.co{fill:url(#ce);}.cp{fill:url(#cf);}.cq{fill:url(#cg);}.cr{fill:url(#ch);}.cs{fill:url(#ci);}.ct{fill:url(#cj);}.cu{fill:url(#ck);}.cv{fill:url(#cl);}.cw{fill:url(#cm);}.cx{fill:url(#cn);}.cy{fill:url(#co);}.cz{fill:url(#cp);}.da{fill:url(#cq);}.db{fill:#6575ae;}.dc{fill:#2d4072;}.dd{fill:url(#cr);}.de{fill:url(#cs);}.df{fill:url(#ct);}.dg{fill:url(#cu);}.dh{fill:url(#cv);}.di{fill:url(#cw);}.dj{fill:url(#cx);}.dk{fill:#243967;}.dl{fill:#384572;}.dm{fill:url(#cy);}.dn{fill:url(#cz);}.do{fill:url(#da);}.dp{fill:url(#db);}.dq{fill:url(#dc);}.dr{fill:#a39cb2;}.ds{fill:#285383;}.dt{fill:#b4a5ae;}.du{fill:#7c6e7b;}.dv{fill:url(#dd);}.dw{fill:url(#de);}.dx{fill:#132953;}.dy{fill:url(#df);}.dz{fill:url(#dg);}.ea{fill:url(#dh);}.eb{fill:#001d4d;}.ec{fill:url(#di);}.ed{fill:url(#dj);}.ee{fill:#c4c4d8;}.ef{fill:url(#dk);}.eg{fill:#5e6ba2;}.eh{fill:#507fc1;}.ei{fill:#e6daed;}.ej{fill:#f6f5ff;}.ek{fill:#6f7cb8;}.el{fill:url(#dl);}.em{fill:#ce3f20;}.en{fill:#d74a1e;}.eo{fill:url(#dm);}.ep{fill:url(#dn);}.eq{fill:#96d5d0;}.er{fill:url(#do);}.es{fill:url(#dp);}.et{fill:#ff7709;}.eu{fill:#e55d17;}.ev{fill:#ff8a07;}.ew{fill:#ed7714;}.ex{fill:#394c85;}.ey{fill:url(#dq);}.ez{fill:#ff8507;}.fa{fill:#ff8e06;}.fb{fill:#5d6aa1;}.fc{fill:#5c69a0;}.fd{fill:#5b689f;}.fe{fill:#59679e;}.ff{fill:#58669d;}.fg{fill:#57669d;}.fh{fill:#56659c;}.fi{fill:#55649b;}.fj{fill:#54639a;}.fk{fill:#536299;}.fl{fill:#516198;}.fm{fill:#506097;}.fn{fill:#4f5f96;}.fo{fill:#4e5e95;}.fp{fill:#4d5d94;}.fq{fill:#4c5d94;}.fr{fill:#4b5c93;}.fs{fill:#495b92;}.ft{fill:#485a91;}.fu{fill:#475990;}.fv{fill:#46588f;}.fw{fill:#c08c29;}.fx{fill:#ffc235;}.fy{fill:url(#dr);}.fz{fill:#fff;}.ga{fill:#354c81;}.gb{fill:#40589b;}.gc{fill:url(#ds);}.gd{fill:url(#dt);}.ge{fill:url(#du);}</style><linearGradient id="a" x1="60.842" y1="10.008" x2="57.951" y2="14.819" gradientUnits="userSpaceOnUse"><stop offset="0" stop-color="#6f7cb8"/><stop offset="1" stop-color="#6575ae"/></linearGradient><linearGradient id="b" x1="30.47" y1="57.007" x2="36.142" y2="44.269" gradientUnits="userSpaceOnUse"><stop offset="0" stop-color="#323e4f"/><stop offset="1" stop-color="#4e525d"/></linearGradient><linearGradient id="c" x1="35.835" y1="43.846" x2="30.172" y2="55.458" gradientUnits="userSpaceOnUse"><stop offset="0" stop-color="#424856"/><stop offset="1" stop-color="#3b404f"/></linearGradient><linearGradient id="d" x1="36.221" y1="57.723" x2="36.221" y2="46.002" gradientUnits="userSpaceOnUse"><stop offset="0" stop-color="#3d4352"/><stop offset="1" stop-color="#4d515d"/></linearGradient><linearGradient id="e" x1="36.221" y1="57.678" x2="36.221" y2="46.045" gradientUnits="userSpaceOnUse"><stop offset="0" stop-color="#3d4352"/><stop offset="1" stop-color="#4c505c"/></linearGradient><linearGradient id="f" x1="36.221" y1="57.632" x2="36.221" y2="46.088" gradientUnits="userSpaceOnUse"><stop offset="0" stop-color="#3d4352"/><stop offset="1" stop-color="#4b505c"/></linearGradient><linearGradient id="g" x1="36.221" y1="57.587" x2="36.221" y2="46.132" gradientUnits="userSpaceOnUse"><stop offset="0" stop-color="#3d4352"/><stop offset="1" stop-color="#4b4f5b"/></linearGradient><linearGradient id="h" x1="36.221" y1="57.542" x2="36.221" y2="46.175" gradientUnits="userSpaceOnUse"><stop offset="0" stop-color="#3d4352"/><stop offset="1" stop-color="#4a4e5b"/></linearGradient><linearGradient id="i" x1="36.221" y1="57.497" x2="36.221" y2="46.218" gradientUnits="userSpaceOnUse"><stop offset="0" stop-color="#3d4352"/><stop offset="1" stop-color="#494e5a"/></linearGradient><linearGradient id="j" x1="36.221" y1="57.451" x2="36.221" y2="46.261" gradientUnits="userSpaceOnUse"><stop offset="0" stop-color="#3d4352"/><stop offset="1" stop-color="#484d5a"/></linearGradient><linearGradient id="k" x1="36.221" y1="57.406" x2="36.221" y2="46.305" gradientUnits="userSpaceOnUse"><stop offset="0" stop-color="#3d4352"/><stop offset="1" stop-color="#484c59"/></linearGradient><linearGradient id="l" x1="36.221" y1="57.361" x2="36.221" y2="46.348" gradientUnits="userSpaceOnUse"><stop offset="0" stop-color="#3d4352"/><stop offset="1" stop-color="#474c59"/></linearGradient><linearGradient id="m" x1="36.221" y1="57.316" x2="36.221" y2="46.391" gradientUnits="userSpaceOnUse"><stop offset="0" stop-color="#3d4352"/><stop offset="1" stop-color="#464b58"/></linearGradient><linearGradient id="n" x1="36.221" y1="57.271" x2="36.221" y2="46.434" gradientUnits="userSpaceOnUse"><stop offset="0" stop-color="#3d4352"/><stop offset="1" stop-color="#454a58"/></linearGradient><linearGradient id="o" x1="36.221" y1="57.225" x2="36.221" y2="46.478" gradientUnits="userSpaceOnUse"><stop offset="0" stop-color="#3d4352"/><stop offset="1" stop-color="#454a57"/></linearGradient><linearGradient id="p" x1="36.221" y1="57.18" x2="36.221" y2="46.521" gradientUnits="userSpaceOnUse"><stop offset="0" stop-color="#3d4352"/><stop offset="1" stop-color="#444957"/></linearGradient><linearGradient id="q" x1="36.221" y1="57.135" x2="36.221" y2="46.564" gradientUnits="userSpaceOnUse"><stop offset="0" stop-color="#3d4352"/><stop offset="1" stop-color="#434856"/></linearGradient><linearGradient id="r" x1="36.221" y1="57.09" x2="36.221" y2="46.607" gradientUnits="userSpaceOnUse"><stop offset="0" stop-color="#3d4352"/><stop offset="1" stop-color="#424856"/></linearGradient><linearGradient id="s" x1="36.221" y1="57.044" x2="36.221" y2="46.651" gradientUnits="userSpaceOnUse"><stop offset="0" stop-color="#3d4352"/><stop offset="1" stop-color="#424755"/></linearGradient><linearGradient id="t" x1="36.221" y1="56.999" x2="36.221" y2="46.694" gradientUnits="userSpaceOnUse"><stop offset="0" stop-color="#3d4352"/><stop offset="1" stop-color="#414655"/></linearGradient><linearGradient id="u" x1="36.221" y1="56.954" x2="36.221" y2="46.737" gradientUnits="userSpaceOnUse"><stop offset="0" stop-color="#3d4352"/><stop offset="1" stop-color="#404654"/></linearGradient><linearGradient id="v" x1="36.221" y1="56.909" x2="36.221" y2="46.78" gradientUnits="userSpaceOnUse"><stop offset="0" stop-color="#3d4352"/><stop offset="1" stop-color="#3f4554"/></linearGradient><linearGradient id="w" x1="36.221" y1="56.864" x2="36.221" y2="46.824" gradientUnits="userSpaceOnUse"><stop offset="0" stop-color="#3d4352"/><stop offset="1" stop-color="#3f4453"/></linearGradient><linearGradient id="x" x1="36.221" y1="56.818" x2="36.221" y2="46.867" gradientUnits="userSpaceOnUse"><stop offset="0" stop-color="#3d4352"/><stop offset="1" stop-color="#3e4453"/></linearGradient><linearGradient id="y" x1="36.314" y1="46.967" x2="36.314" y2="56.584" xlink:href="#x"/><linearGradient id="z" x1="36.309" y1="47.03" x2="36.309" y2="56.529" gradientUnits="userSpaceOnUse"><stop offset="0" stop-color="#3e4453"/><stop offset="1" stop-color="#404654"/></linearGradient><linearGradient id="aa" x1="36.305" y1="47.093" x2="36.305" y2="56.473" gradientUnits="userSpaceOnUse"><stop offset="0" stop-color="#3e4453"/><stop offset="1" stop-color="#414755"/></linearGradient><linearGradient id="ab" x1="36.3" y1="47.156" x2="36.3" y2="56.418" gradientUnits="userSpaceOnUse"><stop offset="0" stop-color="#3e4454"/><stop offset="1" stop-color="#434857"/></linearGradient><linearGradient id="ac" x1="36.296" y1="47.219" x2="36.296" y2="56.363" gradientUnits="userSpaceOnUse"><stop offset="0" stop-color="#3e4554"/><stop offset="1" stop-color="#444958"/></linearGradient><linearGradient id="ad" x1="36.291" y1="47.283" x2="36.291" y2="56.307" gradientUnits="userSpaceOnUse"><stop offset="0" stop-color="#3f4555"/><stop offset="1" stop-color="#454b59"/></linearGradient><linearGradient id="ae" x1="36.286" y1="47.346" x2="36.286" y2="56.252" gradientUnits="userSpaceOnUse"><stop offset="0" stop-color="#3f4555"/><stop offset="1" stop-color="#474c5a"/></linearGradient><linearGradient id="af" x1="36.282" y1="47.409" x2="36.282" y2="56.197" gradientUnits="userSpaceOnUse"><stop offset="0" stop-color="#3f4655"/><stop offset="1" stop-color="#484d5b"/></linearGradient><linearGradient id="ag" x1="36.277" y1="47.472" x2="36.277" y2="56.142" gradientUnits="userSpaceOnUse"><stop offset="0" stop-color="#404656"/><stop offset="1" stop-color="#494f5c"/></linearGradient><linearGradient id="ah" x1="36.272" y1="47.535" x2="36.272" y2="56.086" gradientUnits="userSpaceOnUse"><stop offset="0" stop-color="#404656"/><stop offset="1" stop-color="#4b505d"/></linearGradient><linearGradient id="ai" x1="36.268" y1="47.599" x2="36.268" y2="56.031" gradientUnits="userSpaceOnUse"><stop offset="0" stop-color="#404757"/><stop offset="1" stop-color="#4c515f"/></linearGradient><linearGradient id="aj" x1="36.263" y1="47.662" x2="36.263" y2="55.976" gradientUnits="userSpaceOnUse"><stop offset="0" stop-color="#404757"/><stop offset="1" stop-color="#4e5260"/></linearGradient><linearGradient id="ak" x1="36.259" y1="47.725" x2="36.259" y2="55.921" gradientUnits="userSpaceOnUse"><stop offset="0" stop-color="#414758"/><stop offset="1" stop-color="#4f5461"/></linearGradient><linearGradient id="al" x1="36.254" y1="47.788" x2="36.254" y2="55.865" gradientUnits="userSpaceOnUse"><stop offset="0" stop-color="#414858"/><stop offset="1" stop-color="#505562"/></linearGradient><linearGradient id="am" x1="36.249" y1="47.851" x2="36.249" y2="55.81" gradientUnits="userSpaceOnUse"><stop offset="0" stop-color="#414858"/><stop offset="1" stop-color="#525663"/></linearGradient><linearGradient id="an" x1="36.245" y1="47.915" x2="36.245" y2="55.755" gradientUnits="userSpaceOnUse"><stop offset="0" stop-color="#424859"/><stop offset="1" stop-color="#535864"/></linearGradient><linearGradient id="ao" x1="36.24" y1="47.978" x2="36.24" y2="55.7" gradientUnits="userSpaceOnUse"><stop offset="0" stop-color="#424959"/><stop offset="1" stop-color="#545965"/></linearGradient><linearGradient id="ap" x1="36.235" y1="48.041" x2="36.235" y2="55.644" gradientUnits="userSpaceOnUse"><stop offset="0" stop-color="#42495a"/><stop offset="1" stop-color="#565a67"/></linearGradient><linearGradient id="aq" x1="36.231" y1="48.104" x2="36.231" y2="55.589" gradientUnits="userSpaceOnUse"><stop offset="0" stop-color="#42495a"/><stop offset="1" stop-color="#575b68"/></linearGradient><linearGradient id="ar" x1="36.226" y1="48.167" x2="36.226" y2="55.534" gradientUnits="userSpaceOnUse"><stop offset="0" stop-color="#434a5b"/><stop offset="1" stop-color="#595d69"/></linearGradient><linearGradient id="as" x1="36.221" y1="48.231" x2="36.221" y2="55.479" gradientUnits="userSpaceOnUse"><stop offset="0" stop-color="#434a5b"/><stop offset="1" stop-color="#5a5e6a"/></linearGradient><linearGradient id="at" x1="35.941" y1="55.704" x2="36.299" y2="50.593" gradientUnits="userSpaceOnUse"><stop offset="0" stop-color="#cacadd"/><stop offset="0.35" stop-color="#9d9db0"/><stop offset="1" stop-color="#767b8c"/></linearGradient><linearGradient id="au" x1="34.488" y1="49.048" x2="37.421" y2="54.34" gradientUnits="userSpaceOnUse"><stop offset="0" stop-color="#434a5b"/><stop offset="1" stop-color="#515664"/></linearGradient><linearGradient id="av" x1="36.529" y1="49.925" x2="35.052" y2="54.755" gradientUnits="userSpaceOnUse"><stop offset="0" stop-color="#b0b1c4"/><stop offset="0.27" stop-color="#9d9fb2"/><stop offset="1" stop-color="#767b8c"/></linearGradient><linearGradient id="aw" x1="67.623" y1="35.519" x2="73.294" y2="22.781" xlink:href="#b"/><linearGradient id="ax" x1="73.171" y1="22.281" x2="67.376" y2="34.162" xlink:href="#c"/><linearGradient id="ay" x1="73.374" y1="36.235" x2="73.374" y2="24.514" xlink:href="#d"/><linearGradient id="az" x1="73.374" y1="36.19" x2="73.374" y2="24.557" xlink:href="#e"/><linearGradient id="ba" x1="73.374" y1="36.145" x2="73.374" y2="24.601" xlink:href="#f"/><linearGradient id="bb" x1="73.374" y1="36.099" x2="73.374" y2="24.644" xlink:href="#g"/><linearGradient id="bc" x1="73.374" y1="36.054" x2="73.374" y2="24.687" xlink:href="#h"/><linearGradient id="bd" x1="73.374" y1="36.009" x2="73.374" y2="24.73" xlink:href="#i"/><linearGradient id="be" x1="73.374" y1="35.964" x2="73.374" y2="24.774" xlink:href="#j"/><linearGradient id="bf" x1="73.374" y1="35.919" x2="73.374" y2="24.817" xlink:href="#k"/><linearGradient id="bg" x1="73.374" y1="35.873" x2="73.374" y2="24.86" xlink:href="#l"/><linearGradient id="bh" x1="73.374" y1="35.828" x2="73.374" y2="24.903" xlink:href="#m"/><linearGradient id="bi" x1="73.374" y1="35.783" x2="73.374" y2="24.947" xlink:href="#n"/><linearGradient id="bj" x1="73.374" y1="35.738" x2="73.374" y2="24.99" xlink:href="#o"/><linearGradient id="bk" x1="73.374" y1="35.692" x2="73.374" y2="25.033" xlink:href="#p"/><linearGradient id="bl" x1="73.374" y1="35.647" x2="73.374" y2="25.076" xlink:href="#q"/><linearGradient id="bm" x1="73.374" y1="35.602" x2="73.374" y2="25.12" xlink:href="#r"/><linearGradient id="bn" x1="73.374" y1="35.557" x2="73.374" y2="25.163" xlink:href="#s"/><linearGradient id="bo" x1="73.374" y1="35.511" x2="73.374" y2="25.206" xlink:href="#t"/><linearGradient id="bp" x1="73.374" y1="35.466" x2="73.374" y2="25.249" xlink:href="#u"/><linearGradient id="bq" x1="73.374" y1="35.421" x2="73.374" y2="25.293" xlink:href="#v"/><linearGradient id="br" x1="73.374" y1="35.376" x2="73.374" y2="25.336" xlink:href="#w"/><linearGradient id="bs" x1="73.374" y1="35.331" x2="73.374" y2="25.379" xlink:href="#x"/><linearGradient id="bt" x1="73.466" y1="25.479" x2="73.466" y2="35.096" xlink:href="#x"/><linearGradient id="bu" x1="73.462" y1="25.542" x2="73.462" y2="35.041" xlink:href="#z"/><linearGradient id="bv" x1="73.457" y1="25.605" x2="73.457" y2="34.986" xlink:href="#aa"/><linearGradient id="bw" x1="73.453" y1="25.669" x2="73.453" y2="34.93" xlink:href="#ab"/><linearGradient id="bx" x1="73.448" y1="25.732" x2="73.448" y2="34.875" xlink:href="#ac"/><linearGradient id="by" x1="73.443" y1="25.795" x2="73.443" y2="34.82" xlink:href="#ad"/><linearGradient id="bz" x1="73.439" y1="25.858" x2="73.439" y2="34.765" xlink:href="#ae"/><linearGradient id="ca" x1="73.434" y1="25.921" x2="73.434" y2="34.709" xlink:href="#af"/><linearGradient id="cb" x1="73.429" y1="25.984" x2="73.429" y2="34.654" xlink:href="#ag"/><linearGradient id="cc" x1="73.425" y1="26.048" x2="73.425" y2="34.599" xlink:href="#ah"/><linearGradient id="cd" x1="73.42" y1="26.111" x2="73.42" y2="34.544" xlink:href="#ai"/><linearGradient id="ce" x1="73.415" y1="26.174" x2="73.415" y2="34.488" xlink:href="#aj"/><linearGradient id="cf" x1="73.411" y1="26.237" x2="73.411" y2="34.433" xlink:href="#ak"/><linearGradient id="cg" x1="73.406" y1="26.3" x2="73.406" y2="34.378" xlink:href="#al"/><linearGradient id="ch" x1="73.402" y1="26.364" x2="73.402" y2="34.322" xlink:href="#am"/><linearGradient id="ci" x1="73.397" y1="26.427" x2="73.397" y2="34.267" xlink:href="#an"/><linearGradient id="cj" x1="73.392" y1="26.49" x2="73.392" y2="34.212" xlink:href="#ao"/><linearGradient id="ck" x1="73.388" y1="26.553" x2="73.388" y2="34.157" xlink:href="#ap"/><linearGradient id="cl" x1="73.383" y1="26.616" x2="73.383" y2="34.101" xlink:href="#aq"/><linearGradient id="cm" x1="73.378" y1="26.68" x2="73.378" y2="34.046" xlink:href="#ar"/><linearGradient id="cn" x1="73.374" y1="26.743" x2="73.374" y2="33.991" xlink:href="#as"/><linearGradient id="co" x1="73.094" y1="34.217" x2="73.451" y2="29.106" xlink:href="#at"/><linearGradient id="cp" x1="71.64" y1="27.56" x2="74.573" y2="32.852" xlink:href="#au"/><linearGradient id="cq" x1="73.681" y1="28.438" x2="72.205" y2="33.267" xlink:href="#av"/><linearGradient id="cr" x1="62.258" y1="10.966" x2="59.461" y2="15.62" xlink:href="#a"/><linearGradient id="cs" x1="83.313" y1="14.746" x2="79.544" y2="18.932" gradientUnits="userSpaceOnUse"><stop offset="0" stop-color="#2d4072"/><stop offset="0.3" stop-color="#2d4072"/><stop offset="1" stop-color="#4e66b7"/></linearGradient><linearGradient id="ct" x1="81.969" y1="17.441" x2="77.867" y2="18.313" xlink:href="#cs"/><linearGradient id="cu" x1="66.223" y1="30.259" x2="68.319" y2="30.9" gradientUnits="userSpaceOnUse"><stop offset="0" stop-color="#7c6e7b"/><stop offset="1" stop-color="#5d515f"/></linearGradient><linearGradient id="cv" x1="32.631" y1="53.291" x2="35.097" y2="54.045" xlink:href="#cu"/><linearGradient id="cw" x1="51.924" y1="30.34" x2="53.899" y2="33.902" xlink:href="#cs"/><linearGradient id="cx" x1="43.391" y1="29.403" x2="45.298" y2="32.707" gradientUnits="userSpaceOnUse"><stop offset="0" stop-color="#36487a"/><stop offset="1" stop-color="#2d4072"/></linearGradient><linearGradient id="cy" x1="67.416" y1="33.049" x2="77.667" y2="28.908" gradientUnits="userSpaceOnUse"><stop offset="0" stop-color="#bab5c9"/><stop offset="1" stop-color="#948da5"/></linearGradient><linearGradient id="cz" x1="69.085" y1="30.028" x2="74.395" y2="27.322" gradientUnits="userSpaceOnUse"><stop offset="0" stop-color="#c2bbce"/><stop offset="1" stop-color="#9d96ab"/></linearGradient><linearGradient id="da" x1="51.674" y1="36.829" x2="53.682" y2="40.306" gradientUnits="userSpaceOnUse"><stop offset="0" stop-color="#527dbb"/><stop offset="1" stop-color="#3d6aa3"/></linearGradient><linearGradient id="db" x1="51.255" y1="33.258" x2="49.3" y2="38.629" gradientUnits="userSpaceOnUse"><stop offset="0" stop-color="#6388c2"/><stop offset="1" stop-color="#4e73ab"/></linearGradient><linearGradient id="dc" x1="54.612" y1="31.698" x2="54.213" y2="31.006" gradientUnits="userSpaceOnUse"><stop offset="0" stop-color="#0e275a"/><stop offset="1" stop-color="#243967"/></linearGradient><linearGradient id="dd" x1="71.596" y1="27.044" x2="69.764" y2="30.349" gradientUnits="userSpaceOnUse"><stop offset="0" stop-color="#d5cade"/><stop offset="0.24" stop-color="#d5cade"/><stop offset="1" stop-color="#bab5c9"/></linearGradient><linearGradient id="de" x1="34.21" y1="49.073" x2="32.321" y2="52.48" xlink:href="#dd"/><linearGradient id="df" x1="59.699" y1="24.269" x2="55.84" y2="17.011" gradientUnits="userSpaceOnUse"><stop offset="0" stop-color="#bab5c9"/><stop offset="1" stop-color="#9c94aa"/></linearGradient><linearGradient id="dg" x1="56.675" y1="19.096" x2="63.172" y2="30.817" gradientUnits="userSpaceOnUse"><stop offset="0" stop-color="#5b6575"/><stop offset="1" stop-color="#5e7b9c"/></linearGradient><linearGradient id="dh" x1="56.883" y1="28.981" x2="60.243" y2="32.461" xlink:href="#cy"/><linearGradient id="di" x1="67.198" y1="21.873" x2="68.088" y2="22.861" gradientUnits="userSpaceOnUse"><stop offset="0" stop-color="#f6f5ff"/><stop offset="1" stop-color="#c4c4d8"/></linearGradient><linearGradient id="dj" x1="68.152" y1="20.121" x2="66.579" y2="21.751" gradientUnits="userSpaceOnUse"><stop offset="0" stop-color="#c4c4d8"/><stop offset="1" stop-color="#a1a1b4"/></linearGradient><linearGradient id="dk" x1="62.972" y1="15.912" x2="60.556" y2="20.27" gradientUnits="userSpaceOnUse"><stop offset="0" stop-color="#98afca"/><stop offset="1" stop-color="#5b6679"/></linearGradient><linearGradient id="dl" x1="13.148" y1="31.481" x2="6.116" y2="12.161" xlink:href="#cx"/><linearGradient id="dm" x1="0.148" y1="9.121" x2="16.188" y2="36.903" xlink:href="#dg"/><linearGradient id="dn" x1="12.749" y1="38.501" x2="31.13" y2="10.198" gradientUnits="userSpaceOnUse"><stop offset="0" stop-color="#8aa5c4"/><stop offset="1" stop-color="#777075"/></linearGradient><linearGradient id="do" x1="11.692" y1="49.018" x2="14.733" y2="43.751" gradientUnits="userSpaceOnUse"><stop offset="0" stop-color="#f6f5ff"/><stop offset="1" stop-color="#aa9ba4"/></linearGradient><linearGradient id="dp" x1="16.115" y1="60.121" x2="15.818" y2="59.307" xlink:href="#dj"/><linearGradient id="dq" x1="2.045" y1="38.557" x2="4.421" y2="37.693" gradientUnits="userSpaceOnUse"><stop offset="0" stop-color="#ff7709"/><stop offset="1" stop-color="#e55d17"/></linearGradient><linearGradient id="dr" x1="12.8" y1="41.952" x2="12.056" y2="43.055" gradientUnits="userSpaceOnUse"><stop offset="0" stop-color="#ffdb1f"/><stop offset="1" stop-color="#ff0"/></linearGradient><linearGradient id="ds" x1="42.191" y1="36.467" x2="34.384" y2="21.783" xlink:href="#df"/><linearGradient id="dt" x1="38.101" y1="28.968" x2="44.958" y2="41.338" xlink:href="#dg"/><linearGradient id="du" x1="48.685" y1="36.888" x2="52.055" y2="40.378" xlink:href="#cy"/></defs><title>blue-truck</title><polygon class="a" points="107.682 27.729 107.833 28.104 102.526 31.603 93.856 36.661 98.266 39.207 64.433 58.74 64.433 58.74 51.114 61.34 46.183 61.9 30.386 61.9 8.023 48.988 67.209 14.817 85.319 14.817 107.682 27.729"/><polygon class="b" points="82.507 13.422 60.143 0.51 60.458 0.329 82.821 13.24 82.507 13.422"/><polygon class="b" points="82.821 19.173 82.507 19.354 82.507 13.422 82.821 13.24 82.821 19.173"/><path class="c" d="M42.19,47.1,40.9,46.356,37.42,51.924,25.19,54.955,5.622,43.658,25,32.469l19.568,11.3-2.786,1.608Z"/><path class="c" d="M79.168,25.218l-1.287-.743L74.4,30.043l-12.23,3.032L42.6,21.777,61.98,10.588l19.568,11.3-2.786,1.608Z"/><polygon class="d" points="75.796 15.226 53.432 2.315 44.245 7.524 66.609 20.436 75.796 15.226"/><polygon class="e" points="75.796 15.226 53.712 2.476 44.245 7.524 66.609 20.436 75.796 15.226"/><polygon class="f" points="39.716 45.68 37.218 44.238 36.867 44.072 36.486 43.963 36.079 43.912 35.647 43.921 35.193 43.992 34.719 44.124 34.229 44.321 33.723 44.583 33.469 44.738 33.218 44.905 32.971 45.084 32.727 45.274 32.488 45.476 32.254 45.689 32.024 45.911 31.8 46.142 31.581 46.383 31.368 46.632 31.161 46.889 30.96 47.153 30.767 47.424 30.58 47.701 30.401 47.984 30.229 48.272 30.065 48.565 29.91 48.862 29.763 49.162 29.626 49.465 29.497 49.771 29.378 50.078 29.269 50.387 29.17 50.697 29.081 51.007 29.004 51.318 28.937 51.627 28.882 51.935 28.839 52.241 28.807 52.545 28.788 52.845 28.782 53.143 28.807 53.711 28.882 54.235 29.004 54.711 29.17 55.139 29.378 55.518 29.626 55.846 29.91 56.121 30.229 56.342 32.727 57.784 39.716 45.68"/><path class="g" d="M38.925,45.223,37,44.11l-.351-.166-.38-.109-.407-.05-.432.009-.454.071L34.5,44l-.491.2-.505.262-.254.154L33,44.778l-.247.179-.243.191-.239.2-.234.212-.23.222-.224.232-.219.241-.213.249-.207.257-.2.264-.194.271-.187.277-.179.283-.171.288-.164.293-.155.3-.147.3-.137.3-.129.306-.119.308-.109.309-.1.31-.089.31-.077.31-.067.309-.055.308a4.867,4.867,0,0,0,.744,3.911l.284.275.319.221,1.4.807c-.894-.516-.918-.53-.918-2.894s2.895-7.378,4.942-8.559S38.03,44.706,38.925,45.223Z"/><path class="h" d="M36.221,46.026a10.923,10.923,0,0,0-4.942,8.559c0,3.151,2.212,4.429,4.942,2.853a10.923,10.923,0,0,0,4.941-8.559C41.163,45.727,38.951,44.45,36.221,46.026Z"/><path class="i" d="M36.221,46.069a10.84,10.84,0,0,0-4.9,8.494c0,3.128,2.2,4.4,4.9,2.831a10.84,10.84,0,0,0,4.9-8.494C41.126,45.773,38.93,44.5,36.221,46.069Z"/><path class="j" d="M36.221,46.112a10.758,10.758,0,0,0-4.867,8.43c0,3.1,2.179,4.362,4.867,2.81a10.758,10.758,0,0,0,4.867-8.43C41.088,45.818,38.909,44.56,36.221,46.112Z"/><path class="k" d="M36.221,46.155a10.675,10.675,0,0,0-4.83,8.365c0,3.08,2.162,4.328,4.83,2.788a10.675,10.675,0,0,0,4.83-8.365C41.051,45.863,38.889,44.615,36.221,46.155Z"/><path class="l" d="M36.221,46.2a10.593,10.593,0,0,0-4.792,8.3c0,3.056,2.146,4.295,4.792,2.767a10.593,10.593,0,0,0,4.792-8.3C41.014,45.909,38.868,44.67,36.221,46.2Z"/><path class="m" d="M36.221,46.241a10.51,10.51,0,0,0-4.755,8.236c0,3.032,2.129,4.262,4.755,2.745a10.51,10.51,0,0,0,4.755-8.236C40.976,45.954,38.848,44.725,36.221,46.241Z"/><path class="n" d="M36.221,46.284A10.428,10.428,0,0,0,31.5,54.455c0,3.009,2.112,4.228,4.718,2.724a10.428,10.428,0,0,0,4.718-8.171C40.939,46,38.827,44.78,36.221,46.284Z"/><path class="o" d="M36.221,46.327a10.345,10.345,0,0,0-4.68,8.107c0,2.985,2.1,4.195,4.68,2.7a10.345,10.345,0,0,0,4.68-8.107C40.9,46.045,38.806,44.835,36.221,46.327Z"/><path class="p" d="M36.221,46.37a10.263,10.263,0,0,0-4.643,8.042c0,2.961,2.079,4.161,4.643,2.681a10.263,10.263,0,0,0,4.643-8.042C40.865,46.09,38.786,44.89,36.221,46.37Z"/><path class="q" d="M36.221,46.413a10.18,10.18,0,0,0-4.606,7.978c0,2.937,2.062,4.128,4.606,2.659a10.18,10.18,0,0,0,4.606-7.978C40.827,46.135,38.765,44.945,36.221,46.413Z"/><path class="r" d="M36.221,46.456a10.1,10.1,0,0,0-4.569,7.913c0,2.914,2.045,4.094,4.569,2.638a10.1,10.1,0,0,0,4.568-7.913C40.79,46.181,38.745,45,36.221,46.456Z"/><path class="s" d="M36.221,46.5a10.016,10.016,0,0,0-4.531,7.848c0,2.89,2.029,4.061,4.531,2.616a10.015,10.015,0,0,0,4.531-7.848C40.753,46.226,38.724,45.055,36.221,46.5Z"/><path class="t" d="M36.221,46.542a9.933,9.933,0,0,0-4.494,7.784c0,2.866,2.012,4.028,4.494,2.595a9.933,9.933,0,0,0,4.494-7.784C40.715,46.271,38.7,45.11,36.221,46.542Z"/><path class="u" d="M36.221,46.586A9.851,9.851,0,0,0,31.765,54.3c0,2.842,2,3.994,4.457,2.573a9.85,9.85,0,0,0,4.457-7.719C40.678,46.317,38.683,45.164,36.221,46.586Z"/><path class="v" d="M36.221,46.629A9.768,9.768,0,0,0,31.8,54.283c0,2.818,1.979,3.961,4.419,2.551a9.768,9.768,0,0,0,4.419-7.654C40.641,46.362,38.662,45.219,36.221,46.629Z"/><path class="w" d="M36.221,46.672a9.686,9.686,0,0,0-4.382,7.59c0,2.795,1.962,3.927,4.382,2.53A9.686,9.686,0,0,0,40.6,49.2C40.6,46.407,38.642,45.274,36.221,46.672Z"/><path class="x" d="M36.221,46.715a9.6,9.6,0,0,0-4.345,7.525c0,2.771,1.945,3.894,4.345,2.508a9.6,9.6,0,0,0,4.345-7.525C40.566,46.452,38.621,45.329,36.221,46.715Z"/><path class="y" d="M36.221,46.758a9.521,9.521,0,0,0-4.307,7.461c0,2.747,1.928,3.86,4.307,2.487a9.521,9.521,0,0,0,4.307-7.461C40.529,46.5,38.6,45.384,36.221,46.758Z"/><path class="z" d="M36.221,46.8a9.438,9.438,0,0,0-4.27,7.4c0,2.723,1.912,3.827,4.27,2.465a9.438,9.438,0,0,0,4.27-7.4C40.492,46.543,38.58,45.439,36.221,46.8Z"/><path class="aa" d="M36.221,46.844a9.356,9.356,0,0,0-4.233,7.332c0,2.7,1.9,3.794,4.233,2.444a9.356,9.356,0,0,0,4.233-7.331C40.454,46.588,38.559,45.494,36.221,46.844Z"/><path class="ab" d="M36.221,46.887a9.273,9.273,0,0,0-4.2,7.267c0,2.676,1.878,3.76,4.2,2.422a9.273,9.273,0,0,0,4.2-7.267C40.417,46.634,38.539,45.549,36.221,46.887Z"/><path class="ac" d="M36.221,46.93a9.191,9.191,0,0,0-4.158,7.2c0,2.652,1.862,3.727,4.158,2.4a9.191,9.191,0,0,0,4.158-7.2C40.38,46.679,38.518,45.6,36.221,46.93Z"/><path class="ac" d="M36.226,46.934a9.171,9.171,0,0,0-4.149,7.187c0,2.646,1.858,3.719,4.149,2.4a9.171,9.171,0,0,0,4.149-7.187C40.375,46.684,38.518,45.611,36.226,46.934Z"/><path class="ac" d="M36.231,46.939a9.151,9.151,0,0,0-4.14,7.171c0,2.64,1.854,3.711,4.14,2.39a9.151,9.151,0,0,0,4.14-7.171C40.371,46.689,38.517,45.619,36.231,46.939Z"/><path class="ac" d="M36.235,46.943A9.131,9.131,0,0,0,32.1,54.1c0,2.635,1.85,3.7,4.131,2.385a9.131,9.131,0,0,0,4.131-7.156C40.367,46.694,38.517,45.626,36.235,46.943Z"/><path class="ac" d="M36.24,46.948a9.112,9.112,0,0,0-4.122,7.14c0,2.629,1.846,3.695,4.122,2.38a9.111,9.111,0,0,0,4.122-7.14C40.362,46.7,38.517,45.633,36.24,46.948Z"/><path class="ac" d="M36.245,46.952a9.092,9.092,0,0,0-4.113,7.125c0,2.623,1.842,3.686,4.113,2.375a9.092,9.092,0,0,0,4.113-7.124C40.358,46.7,38.516,45.64,36.245,46.952Z"/><path class="ac" d="M36.249,46.956a9.072,9.072,0,0,0-4.1,7.109c0,2.618,1.838,3.678,4.1,2.37a9.072,9.072,0,0,0,4.1-7.109C40.354,46.709,38.516,45.648,36.249,46.956Z"/><path class="ac" d="M36.254,46.961a9.052,9.052,0,0,0-4.1,7.093c0,2.612,1.833,3.67,4.1,2.364a9.052,9.052,0,0,0,4.1-7.093C40.349,46.714,38.516,45.655,36.254,46.961Z"/><path class="ac" d="M36.259,46.965a9.032,9.032,0,0,0-4.086,7.078c0,2.606,1.829,3.662,4.086,2.359a9.032,9.032,0,0,0,4.086-7.078C40.345,46.719,38.515,45.662,36.259,46.965Z"/><path class="ac" d="M36.263,46.97a9.012,9.012,0,0,0-4.077,7.062c0,2.6,1.825,3.654,4.077,2.354a9.012,9.012,0,0,0,4.077-7.062C40.341,46.723,38.515,45.669,36.263,46.97Z"/><path class="ac" d="M36.268,46.974A8.993,8.993,0,0,0,32.2,54.021c0,2.595,1.821,3.646,4.068,2.349a8.992,8.992,0,0,0,4.068-7.047C40.336,46.728,38.515,45.677,36.268,46.974Z"/><path class="ac" d="M36.272,46.978a8.973,8.973,0,0,0-4.059,7.031c0,2.589,1.817,3.638,4.059,2.344a8.973,8.973,0,0,0,4.059-7.031C40.332,46.733,38.514,45.684,36.272,46.978Z"/><path class="ac" d="M36.277,46.983A8.953,8.953,0,0,0,32.227,54c0,2.583,1.813,3.63,4.05,2.339a8.953,8.953,0,0,0,4.05-7.016C40.327,46.738,38.514,45.691,36.277,46.983Z"/><path class="ac" d="M36.282,46.987a8.933,8.933,0,0,0-4.042,7c0,2.577,1.809,3.622,4.042,2.333a8.933,8.933,0,0,0,4.041-7C40.323,46.743,38.514,45.7,36.282,46.987Z"/><path class="ac" d="M36.286,46.992a8.913,8.913,0,0,0-4.033,6.985c0,2.572,1.805,3.614,4.033,2.328a8.913,8.913,0,0,0,4.032-6.985C40.319,46.748,38.513,45.706,36.286,46.992Z"/><path class="ac" d="M36.291,47a8.894,8.894,0,0,0-4.024,6.969c0,2.566,1.8,3.606,4.024,2.323a8.893,8.893,0,0,0,4.024-6.969C40.314,46.753,38.513,45.713,36.291,47Z"/><path class="ac" d="M36.3,47a8.874,8.874,0,0,0-4.015,6.953c0,2.56,1.8,3.6,4.015,2.318a8.873,8.873,0,0,0,4.015-6.953C40.31,46.758,38.513,45.72,36.3,47Z"/><path class="ac" d="M36.3,47a8.854,8.854,0,0,0-4.006,6.938c0,2.555,1.793,3.59,4.006,2.313a8.854,8.854,0,0,0,4.006-6.938C40.306,46.763,38.512,45.727,36.3,47Z"/><path class="ac" d="M36.3,47.009a8.834,8.834,0,0,0-4,6.922c0,2.549,1.789,3.582,4,2.307a8.834,8.834,0,0,0,4-6.922C40.3,46.768,38.512,45.735,36.3,47.009Z"/><path class="ac" d="M36.309,47.014a8.814,8.814,0,0,0-3.988,6.907c0,2.543,1.785,3.574,3.988,2.3A8.814,8.814,0,0,0,40.3,49.316C40.3,46.773,38.512,45.742,36.309,47.014Z"/><path class="ac" d="M36.314,47.018a8.794,8.794,0,0,0-3.979,6.891c0,2.537,1.781,3.566,3.979,2.3a8.794,8.794,0,0,0,3.979-6.891C40.293,46.778,38.511,45.749,36.314,47.018Z"/><path class="ac" d="M36.319,47.022a8.775,8.775,0,0,0-3.97,6.876c0,2.532,1.777,3.558,3.97,2.292a8.774,8.774,0,0,0,3.97-6.876C40.288,46.783,38.511,45.757,36.319,47.022Z"/><path class="ad" d="M36.314,47.084a8.668,8.668,0,0,0-3.921,6.792c0,2.5,1.756,3.514,3.921,2.264a8.667,8.667,0,0,0,3.921-6.792C40.235,46.847,38.48,45.834,36.314,47.084Z"/><path class="ae" d="M36.309,47.146a8.561,8.561,0,0,0-3.873,6.708c0,2.47,1.734,3.471,3.873,2.236a8.561,8.561,0,0,0,3.873-6.708C40.183,46.912,38.448,45.911,36.309,47.146Z"/><path class="af" d="M36.3,47.208a8.454,8.454,0,0,0-3.825,6.625c0,2.439,1.712,3.428,3.825,2.208a8.454,8.454,0,0,0,3.825-6.625C40.13,46.977,38.417,45.988,36.3,47.208Z"/><path class="ag" d="M36.3,47.269a8.347,8.347,0,0,0-3.776,6.541c0,2.408,1.691,3.385,3.776,2.18a8.347,8.347,0,0,0,3.776-6.541C40.077,47.041,38.386,46.065,36.3,47.269Z"/><path class="ah" d="M36.3,47.331a8.241,8.241,0,0,0-3.728,6.457c0,2.378,1.669,3.341,3.728,2.152a8.24,8.24,0,0,0,3.728-6.457C40.024,47.106,38.355,46.142,36.3,47.331Z"/><path class="ai" d="M36.291,47.393a8.134,8.134,0,0,0-3.68,6.374c0,2.347,1.648,3.3,3.68,2.125a8.134,8.134,0,0,0,3.68-6.374C39.971,47.171,38.323,46.219,36.291,47.393Z"/><path class="aj" d="M36.286,47.455a8.027,8.027,0,0,0-3.632,6.29c0,2.316,1.626,3.255,3.632,2.1a8.027,8.027,0,0,0,3.632-6.29C39.918,47.235,38.292,46.3,36.286,47.455Z"/><path class="ak" d="M36.282,47.516A7.92,7.92,0,0,0,32.7,53.723c0,2.285,1.6,3.211,3.583,2.069a7.92,7.92,0,0,0,3.583-6.206C39.865,47.3,38.261,46.374,36.282,47.516Z"/><path class="al" d="M36.277,47.578A7.814,7.814,0,0,0,32.742,53.7c0,2.254,1.583,3.168,3.535,2.041a7.813,7.813,0,0,0,3.535-6.123C39.812,47.365,38.229,46.451,36.277,47.578Z"/><path class="am" d="M36.272,47.64a7.707,7.707,0,0,0-3.487,6.039c0,2.224,1.561,3.125,3.487,2.013a7.707,7.707,0,0,0,3.487-6.039C39.759,47.429,38.2,46.528,36.272,47.64Z"/><path class="an" d="M36.268,47.7a7.6,7.6,0,0,0-3.438,5.955c0,2.193,1.539,3.082,3.438,1.985a7.6,7.6,0,0,0,3.438-5.955C39.706,47.494,38.167,46.605,36.268,47.7Z"/><path class="ao" d="M36.263,47.763a7.493,7.493,0,0,0-3.39,5.872c0,2.162,1.518,3.038,3.39,1.957a7.493,7.493,0,0,0,3.39-5.872C39.653,47.559,38.135,46.682,36.263,47.763Z"/><path class="ap" d="M36.259,47.825a7.387,7.387,0,0,0-3.342,5.788c0,2.131,1.5,2.995,3.342,1.929A7.386,7.386,0,0,0,39.6,49.754C39.6,47.623,38.1,46.759,36.259,47.825Z"/><path class="aq" d="M36.254,47.887a7.28,7.28,0,0,0-3.293,5.7c0,2.1,1.475,2.952,3.293,1.9a7.28,7.28,0,0,0,3.293-5.7C39.547,47.688,38.073,46.837,36.254,47.887Z"/><path class="ar" d="M36.249,47.949A7.173,7.173,0,0,0,33,53.569c0,2.07,1.453,2.908,3.245,1.874a7.173,7.173,0,0,0,3.245-5.621C39.494,47.753,38.042,46.914,36.249,47.949Z"/><path class="as" d="M36.245,48.01a7.066,7.066,0,0,0-3.2,5.537c0,2.039,1.431,2.865,3.2,1.846a7.066,7.066,0,0,0,3.2-5.537C39.442,47.817,38.01,46.991,36.245,48.01Z"/><path class="at" d="M36.24,48.072a6.96,6.96,0,0,0-3.149,5.454c0,2.008,1.41,2.822,3.149,1.818a6.959,6.959,0,0,0,3.149-5.454C39.389,47.882,37.979,47.068,36.24,48.072Z"/><path class="au" d="M36.235,48.134a6.853,6.853,0,0,0-3.1,5.37c0,1.977,1.388,2.779,3.1,1.79a6.853,6.853,0,0,0,3.1-5.37C39.336,47.947,37.948,47.145,36.235,48.134Z"/><path class="av" d="M36.231,48.2a6.746,6.746,0,0,0-3.052,5.286c0,1.946,1.366,2.735,3.052,1.762a6.746,6.746,0,0,0,3.052-5.286C39.283,48.011,37.916,47.222,36.231,48.2Z"/><path class="aw" d="M36.226,48.257a6.639,6.639,0,0,0-3,5.2c0,1.916,1.345,2.692,3,1.734a6.639,6.639,0,0,0,3-5.2C39.23,48.076,37.885,47.3,36.226,48.257Z"/><path class="ax" d="M36.221,48.319a6.532,6.532,0,0,0-2.955,5.119c0,1.885,1.323,2.649,2.955,1.706a6.532,6.532,0,0,0,2.955-5.119C39.177,48.141,37.854,47.377,36.221,48.319Z"/><path class="ay" d="M36.221,48.073a6.937,6.937,0,0,0-3.139,5.437c0,2,1.405,2.813,3.139,1.812a6.937,6.937,0,0,0,3.139-5.436C39.36,47.883,37.955,47.072,36.221,48.073Z"/><path class="az" d="M36.221,48.39a6.331,6.331,0,0,0-2.864,4.961c0,1.827,1.282,2.567,2.864,1.654a6.331,6.331,0,0,0,2.864-4.961C39.086,48.217,37.8,47.477,36.221,48.39Z"/><path class="ba" d="M35.394,49.1a5.174,5.174,0,0,0-.838.885.547.547,0,0,0-.113.279.188.188,0,0,0,.073.194l.18.1c.152.088.372.006.567-.21.035-.038.071-.076.107-.113a1.106,1.106,0,0,0,.329-.736v-.294c0-.091-.032-.15-.093-.172a.221.221,0,0,0-.211.063Zm-1.568,2.15a5.155,5.155,0,0,0-.347,1.167.221.221,0,0,0,.051.214.162.162,0,0,0,.2-.005l.255-.147a1.106,1.106,0,0,0,.473-.653c.013-.05.028-.1.044-.149.09-.277.05-.508-.1-.6l-.18-.1a.188.188,0,0,0-.2.034.547.547,0,0,0-.185.238Zm-.347,2.36a1.718,1.718,0,0,0,.347.767.144.144,0,0,0,.185.024.475.475,0,0,0,.2-.2l.18-.312a.8.8,0,0,0,.1-.714c-.016-.031-.031-.064-.044-.1-.075-.19-.258-.231-.473-.107l-.255.147a.513.513,0,0,0-.2.221.43.43,0,0,0-.051.273ZM34.556,54.8c-.066-.011-.105-.063-.113-.148a.476.476,0,0,1,.072-.278l.18-.312a.8.8,0,0,1,.567-.445c.035,0,.07-.005.107-.011.2-.03.329.108.329.356v.294a.516.516,0,0,1-.093.28.429.429,0,0,1-.211.18,1.719,1.719,0,0,1-.838.083Zm1.87-.679a5.175,5.175,0,0,0,.837-.884.548.548,0,0,0,.113-.279.188.188,0,0,0-.072-.194l-.18-.1c-.152-.088-.372-.006-.567.21-.035.039-.071.076-.107.113a1.107,1.107,0,0,0-.329.736v.294c0,.091.032.15.093.172a.222.222,0,0,0,.211-.063Zm1.568-2.149a5.16,5.16,0,0,0,.347-1.167.222.222,0,0,0-.051-.214.163.163,0,0,0-.2.005l-.255.147a1.1,1.1,0,0,0-.473.653c-.013.049-.028.1-.044.149-.09.277-.05.508.1.6l.18.1a.189.189,0,0,0,.2-.034.547.547,0,0,0,.185-.238Zm.347-2.36a1.718,1.718,0,0,0-.347-.767.144.144,0,0,0-.185-.024.477.477,0,0,0-.2.2l-.18.312a.8.8,0,0,0-.1.714c.016.031.031.064.044.1.075.19.258.231.473.107l.255-.147a.517.517,0,0,0,.2-.221.431.431,0,0,0,.051-.273Zm-1.078-1.188c.066.012.105.063.113.149a.478.478,0,0,1-.072.278l-.18.312a.8.8,0,0,1-.567.445,1.044,1.044,0,0,0-.107.011c-.2.03-.329-.108-.329-.356v-.294a.516.516,0,0,1,.093-.28.427.427,0,0,1,.211-.181A1.72,1.72,0,0,1,37.264,48.425Z"/><path class="bb" d="M35.823,49.918a2.967,2.967,0,0,0-1.342,2.324.943.943,0,0,0,.393.869l.4.23a.943.943,0,0,0,.949-.094,2.967,2.967,0,0,0,1.342-2.324.943.943,0,0,0-.393-.869l-.4-.23A.943.943,0,0,0,35.823,49.918Z"/><path class="ay" d="M36.221,50.148a2.967,2.967,0,0,0-1.342,2.324.818.818,0,0,0,1.342.775,2.967,2.967,0,0,0,1.342-2.324.818.818,0,0,0-1.342-.775Z"/><path class="bc" d="M36.221,51.272a.814.814,0,0,0-.368.638c0,.235.165.33.368.213a.815.815,0,0,0,.368-.638C36.59,51.249,36.425,51.154,36.221,51.272Z"/><ellipse class="bd" cx="35.624" cy="52.732" rx="0.211" ry="0.122" transform="translate(-27.855 57.221) rotate(-60.003)"/><ellipse class="bd" cx="36.819" cy="52.042" rx="0.211" ry="0.122" transform="translate(-26.659 57.919) rotate(-60.011)"/><ellipse class="bd" cx="35.624" cy="51.352" rx="0.211" ry="0.122" transform="translate(-26.661 56.517) rotate(-59.99)"/><ellipse class="bd" cx="36.819" cy="50.663" rx="0.211" ry="0.122" transform="translate(-25.465 57.221) rotate(-60.003)"/><path class="be" d="M36.221,50.148a2.967,2.967,0,0,0-1.342,2.324c0,.039,0,.077,0,.114a2.831,2.831,0,0,1,.389-1.2,2.744,2.744,0,0,1,.949-1,.943.943,0,0,1,.949-.094.889.889,0,0,1,.389.755q0-.059,0-.118a.818.818,0,0,0-1.342-.775Z"/><path class="be" d="M36.221,48.073a6.937,6.937,0,0,0-3.139,5.437v.057a6.952,6.952,0,0,1,3.138-5.379c1.717-.991,3.111-.2,3.138,1.755v-.058C39.36,47.883,37.955,47.072,36.221,48.073Z"/><path class="be" d="M34.007,55.082a1.9,1.9,0,0,0,2.211-.072l.043-.026a4.236,4.236,0,0,1-.738-.037A9.1,9.1,0,0,0,34.007,55.082Z"/><path class="bf" d="M36.221,47.064a8.868,8.868,0,0,0-4.012,6.949c0,2.559,1.8,3.6,4.012,2.316a8.868,8.868,0,0,0,4.012-6.949c0-2.559-1.8-3.6-4.012-2.316Zm0,.6c1.93-1.114,3.494-.211,3.494,2.017a7.724,7.724,0,0,1-3.494,6.052c-1.93,1.114-3.494.211-3.494-2.017A7.723,7.723,0,0,1,36.221,47.662Z"/><polygon class="bg" points="76.868 24.192 74.37 22.75 74.019 22.584 73.639 22.475 73.231 22.425 72.799 22.434 72.345 22.504 71.872 22.637 71.381 22.834 70.876 23.096 70.621 23.25 70.37 23.417 70.123 23.596 69.88 23.787 69.641 23.989 69.406 24.201 69.177 24.423 68.952 24.655 68.733 24.895 68.52 25.145 68.313 25.401 68.113 25.665 67.919 25.936 67.732 26.214 67.553 26.497 67.381 26.784 67.218 27.077 67.062 27.374 66.916 27.674 66.778 27.977 66.649 28.283 66.531 28.591 66.421 28.9 66.322 29.21 66.234 29.52 66.156 29.83 66.09 30.139 66.034 30.447 65.991 30.753 65.96 31.057 65.94 31.358 65.934 31.655 65.96 32.224 66.034 32.747 66.156 33.224 66.322 33.652 66.531 34.03 66.778 34.358 67.062 34.633 67.381 34.854 69.88 36.296 76.868 24.192"/><path class="bh" d="M76.3,23.866,74.15,22.623l-.351-.166-.381-.109-.407-.051-.432.009-.454.07-.474.133-.491.2-.505.262-.254.154-.251.167-.247.179-.243.191-.239.2-.234.212-.23.222-.224.232-.219.241-.213.249-.207.257-.2.264-.194.271-.187.277-.179.283-.172.288L67,26.95l-.155.3-.147.3-.137.3-.129.306-.119.308-.109.309-.1.31-.089.31-.077.31-.067.309-.055.308a4.867,4.867,0,0,0,.744,3.911l.284.275.319.221,2.154,1.243c-.894-.516-1.447-.835-1.447-3.2s2.895-7.378,4.942-8.559S75.41,23.35,76.3,23.866Z"/><path class="bi" d="M73.374,24.538A10.923,10.923,0,0,0,68.432,33.1c0,3.151,2.212,4.429,4.942,2.853a10.923,10.923,0,0,0,4.942-8.559C78.315,24.24,76.1,22.962,73.374,24.538Z"/><path class="bj" d="M73.374,24.581a10.84,10.84,0,0,0-4.9,8.495c0,3.128,2.2,4.4,4.9,2.831a10.84,10.84,0,0,0,4.9-8.494C78.278,24.285,76.082,23.017,73.374,24.581Z"/><path class="bk" d="M73.374,24.624a10.758,10.758,0,0,0-4.867,8.43c0,3.1,2.179,4.362,4.867,2.81a10.758,10.758,0,0,0,4.867-8.43C78.241,24.33,76.062,23.072,73.374,24.624Z"/><path class="bl" d="M73.374,24.667a10.675,10.675,0,0,0-4.83,8.365c0,3.08,2.162,4.328,4.83,2.788a10.675,10.675,0,0,0,4.83-8.365C78.2,24.376,76.041,23.127,73.374,24.667Z"/><path class="bm" d="M73.374,24.71a10.593,10.593,0,0,0-4.792,8.3c0,3.056,2.146,4.295,4.792,2.767a10.593,10.593,0,0,0,4.792-8.3C78.166,24.421,76.021,23.182,73.374,24.71Z"/><path class="bn" d="M73.374,24.753a10.51,10.51,0,0,0-4.755,8.236c0,3.032,2.129,4.261,4.755,2.745A10.51,10.51,0,0,0,78.129,27.5C78.129,24.466,76,23.237,73.374,24.753Z"/><path class="bo" d="M73.374,24.8a10.428,10.428,0,0,0-4.718,8.171c0,3.009,2.112,4.228,4.718,2.724a10.428,10.428,0,0,0,4.718-8.171C78.092,24.512,75.979,23.292,73.374,24.8Z"/><path class="bp" d="M73.374,24.839a10.345,10.345,0,0,0-4.68,8.107c0,2.985,2.1,4.195,4.68,2.7a10.345,10.345,0,0,0,4.68-8.107C78.054,24.557,75.959,23.347,73.374,24.839Z"/><path class="bq" d="M73.374,24.883a10.263,10.263,0,0,0-4.643,8.042c0,2.961,2.079,4.161,4.643,2.681a10.263,10.263,0,0,0,4.643-8.042C78.017,24.6,75.938,23.4,73.374,24.883Z"/><path class="br" d="M73.374,24.926A10.18,10.18,0,0,0,68.768,32.9c0,2.937,2.062,4.128,4.606,2.659a10.18,10.18,0,0,0,4.606-7.978C77.98,24.648,75.918,23.457,73.374,24.926Z"/><path class="bs" d="M73.374,24.969a10.1,10.1,0,0,0-4.569,7.913c0,2.913,2.045,4.094,4.569,2.638a10.1,10.1,0,0,0,4.569-7.913C77.942,24.693,75.9,23.512,73.374,24.969Z"/><path class="bt" d="M73.374,25.012a10.016,10.016,0,0,0-4.531,7.848c0,2.89,2.029,4.061,4.531,2.616a10.016,10.016,0,0,0,4.531-7.848C77.905,24.738,75.876,23.567,73.374,25.012Z"/><path class="bu" d="M73.374,25.055a9.933,9.933,0,0,0-4.494,7.784c0,2.866,2.012,4.028,4.494,2.595a9.933,9.933,0,0,0,4.494-7.784C77.868,24.783,75.856,23.622,73.374,25.055Z"/><path class="bv" d="M73.374,25.1a9.851,9.851,0,0,0-4.457,7.719c0,2.842,2,3.994,4.457,2.573a9.851,9.851,0,0,0,4.457-7.719C77.83,24.829,75.835,23.677,73.374,25.1Z"/><path class="bw" d="M73.374,25.141A9.768,9.768,0,0,0,68.954,32.8c0,2.818,1.979,3.961,4.419,2.552a9.768,9.768,0,0,0,4.419-7.655C77.793,24.874,75.815,23.732,73.374,25.141Z"/><path class="bx" d="M73.374,25.184a9.686,9.686,0,0,0-4.382,7.59c0,2.795,1.962,3.927,4.382,2.53a9.686,9.686,0,0,0,4.382-7.59C77.756,24.919,75.794,23.787,73.374,25.184Z"/><path class="by" d="M73.374,25.227a9.6,9.6,0,0,0-4.345,7.525c0,2.771,1.945,3.894,4.345,2.508a9.6,9.6,0,0,0,4.345-7.525C77.718,24.965,75.773,23.842,73.374,25.227Z"/><path class="bz" d="M73.374,25.27a9.521,9.521,0,0,0-4.307,7.461c0,2.747,1.928,3.86,4.307,2.487a9.521,9.521,0,0,0,4.307-7.461C77.681,25.01,75.753,23.9,73.374,25.27Z"/><path class="ca" d="M73.374,25.313a9.438,9.438,0,0,0-4.27,7.4c0,2.723,1.912,3.827,4.27,2.465a9.438,9.438,0,0,0,4.27-7.4C77.644,25.055,75.732,23.952,73.374,25.313Z"/><path class="cb" d="M73.374,25.356a9.356,9.356,0,0,0-4.233,7.331c0,2.7,1.9,3.794,4.233,2.444A9.356,9.356,0,0,0,77.607,27.8C77.607,25.1,75.712,24.007,73.374,25.356Z"/><path class="cc" d="M73.374,25.4a9.273,9.273,0,0,0-4.2,7.267c0,2.676,1.878,3.76,4.2,2.422a9.273,9.273,0,0,0,4.2-7.267C77.569,25.146,75.691,24.062,73.374,25.4Z"/><path class="ac" d="M73.374,25.443a9.191,9.191,0,0,0-4.158,7.2c0,2.652,1.862,3.727,4.158,2.4a9.191,9.191,0,0,0,4.158-7.2C77.532,25.191,75.67,24.117,73.374,25.443Z"/><path class="ac" d="M73.378,25.447a9.171,9.171,0,0,0-4.149,7.187c0,2.646,1.858,3.719,4.149,2.4a9.171,9.171,0,0,0,4.149-7.187C77.528,25.2,75.67,24.124,73.378,25.447Z"/><path class="ac" d="M73.383,25.451a9.151,9.151,0,0,0-4.14,7.171c0,2.64,1.854,3.711,4.14,2.39a9.151,9.151,0,0,0,4.14-7.171C77.523,25.2,75.67,24.131,73.383,25.451Z"/><path class="ac" d="M73.388,25.456a9.131,9.131,0,0,0-4.131,7.156c0,2.635,1.85,3.7,4.131,2.385a9.131,9.131,0,0,0,4.131-7.156C77.519,25.206,75.669,24.138,73.388,25.456Z"/><path class="ac" d="M73.392,25.46A9.111,9.111,0,0,0,69.27,32.6c0,2.629,1.846,3.695,4.122,2.38a9.111,9.111,0,0,0,4.122-7.14C77.515,25.211,75.669,24.146,73.392,25.46Z"/><path class="ac" d="M73.4,25.464a9.092,9.092,0,0,0-4.113,7.124c0,2.623,1.842,3.686,4.113,2.375a9.092,9.092,0,0,0,4.113-7.125C77.51,25.216,75.669,24.153,73.4,25.464Z"/><path class="ac" d="M73.4,25.469a9.072,9.072,0,0,0-4.1,7.109c0,2.618,1.837,3.678,4.1,2.37a9.072,9.072,0,0,0,4.1-7.109C77.506,25.221,75.668,24.16,73.4,25.469Z"/><path class="ac" d="M73.406,25.473a9.052,9.052,0,0,0-4.1,7.093c0,2.612,1.833,3.67,4.1,2.364a9.052,9.052,0,0,0,4.1-7.093C77.5,25.226,75.668,24.167,73.406,25.473Z"/><path class="ac" d="M73.411,25.478a9.032,9.032,0,0,0-4.086,7.078c0,2.606,1.829,3.662,4.086,2.359A9.032,9.032,0,0,0,77.5,27.837C77.5,25.231,75.668,24.175,73.411,25.478Z"/><path class="ac" d="M73.415,25.482a9.012,9.012,0,0,0-4.077,7.062c0,2.6,1.825,3.654,4.077,2.354a9.012,9.012,0,0,0,4.077-7.062C77.493,25.236,75.667,24.182,73.415,25.482Z"/><path class="ac" d="M73.42,25.486a8.992,8.992,0,0,0-4.068,7.047c0,2.595,1.821,3.646,4.068,2.349a8.992,8.992,0,0,0,4.068-7.047C77.489,25.241,75.667,24.189,73.42,25.486Z"/><path class="ac" d="M73.425,25.491a8.973,8.973,0,0,0-4.059,7.031c0,2.589,1.817,3.638,4.059,2.344a8.973,8.973,0,0,0,4.059-7.031C77.484,25.246,75.667,24.2,73.425,25.491Z"/><path class="ac" d="M73.429,25.5a8.953,8.953,0,0,0-4.05,7.016c0,2.583,1.813,3.63,4.05,2.339a8.953,8.953,0,0,0,4.05-7.016C77.48,25.251,75.666,24.2,73.429,25.5Z"/><path class="ac" d="M73.434,25.5a8.933,8.933,0,0,0-4.041,7c0,2.577,1.809,3.622,4.041,2.333a8.933,8.933,0,0,0,4.042-7C77.475,25.255,75.666,24.211,73.434,25.5Z"/><path class="ac" d="M73.439,25.5a8.913,8.913,0,0,0-4.032,6.985c0,2.572,1.805,3.614,4.032,2.328a8.913,8.913,0,0,0,4.033-6.985C77.471,25.26,75.666,24.218,73.439,25.5Z"/><path class="ac" d="M73.443,25.508a8.893,8.893,0,0,0-4.023,6.969c0,2.566,1.8,3.606,4.023,2.323a8.893,8.893,0,0,0,4.024-6.969C77.467,25.265,75.665,24.225,73.443,25.508Z"/><path class="ac" d="M73.448,25.513a8.873,8.873,0,0,0-4.015,6.953c0,2.56,1.8,3.6,4.015,2.318a8.873,8.873,0,0,0,4.015-6.953C77.462,25.27,75.665,24.233,73.448,25.513Z"/><path class="ac" d="M73.452,25.517a8.853,8.853,0,0,0-4.006,6.938c0,2.555,1.793,3.59,4.006,2.313a8.854,8.854,0,0,0,4.006-6.938C77.458,25.275,75.665,24.24,73.452,25.517Z"/><path class="ac" d="M73.457,25.522a8.834,8.834,0,0,0-4,6.922c0,2.549,1.789,3.582,4,2.307a8.834,8.834,0,0,0,4-6.922C77.454,25.28,75.664,24.247,73.457,25.522Z"/><path class="ac" d="M73.462,25.526a8.814,8.814,0,0,0-3.988,6.907c0,2.543,1.785,3.574,3.988,2.3a8.814,8.814,0,0,0,3.988-6.907C77.449,25.285,75.664,24.254,73.462,25.526Z"/><path class="ac" d="M73.466,25.53a8.794,8.794,0,0,0-3.979,6.891c0,2.537,1.781,3.566,3.979,2.3a8.794,8.794,0,0,0,3.979-6.891C77.445,25.29,75.664,24.262,73.466,25.53Z"/><path class="ac" d="M73.471,25.535A8.774,8.774,0,0,0,69.5,32.41c0,2.532,1.777,3.558,3.97,2.292a8.774,8.774,0,0,0,3.97-6.876C77.441,25.295,75.663,24.269,73.471,25.535Z"/><path class="cd" d="M73.466,25.6a8.667,8.667,0,0,0-3.921,6.792c0,2.5,1.756,3.514,3.921,2.264a8.667,8.667,0,0,0,3.921-6.792C77.388,25.36,75.632,24.346,73.466,25.6Z"/><path class="ce" d="M73.462,25.658a8.561,8.561,0,0,0-3.873,6.708c0,2.47,1.734,3.471,3.873,2.236a8.561,8.561,0,0,0,3.873-6.708C77.335,25.424,75.6,24.423,73.462,25.658Z"/><path class="cf" d="M73.457,25.72a8.454,8.454,0,0,0-3.825,6.625c0,2.439,1.712,3.428,3.825,2.208a8.454,8.454,0,0,0,3.825-6.625C77.282,25.489,75.57,24.5,73.457,25.72Z"/><path class="cg" d="M73.453,25.782a8.347,8.347,0,0,0-3.776,6.541c0,2.408,1.691,3.385,3.776,2.18a8.347,8.347,0,0,0,3.776-6.541C77.229,25.554,75.538,24.577,73.453,25.782Z"/><path class="ch" d="M73.448,25.843A8.24,8.24,0,0,0,69.72,32.3c0,2.378,1.669,3.341,3.728,2.152A8.24,8.24,0,0,0,77.176,28C77.176,25.618,75.507,24.655,73.448,25.843Z"/><path class="ci" d="M73.443,25.905a8.134,8.134,0,0,0-3.68,6.374c0,2.347,1.647,3.3,3.68,2.125a8.134,8.134,0,0,0,3.68-6.374C77.123,25.683,75.476,24.732,73.443,25.905Z"/><path class="cj" d="M73.439,25.967a8.027,8.027,0,0,0-3.632,6.29c0,2.316,1.626,3.255,3.632,2.1a8.027,8.027,0,0,0,3.632-6.29C77.07,25.748,75.444,24.809,73.439,25.967Z"/><path class="ck" d="M73.434,26.029a7.92,7.92,0,0,0-3.583,6.206c0,2.285,1.6,3.211,3.583,2.069A7.92,7.92,0,0,0,77.017,28.1C77.017,25.812,75.413,24.886,73.434,26.029Z"/><path class="cl" d="M73.429,26.09a7.813,7.813,0,0,0-3.535,6.123c0,2.254,1.583,3.168,3.535,2.041a7.813,7.813,0,0,0,3.535-6.123C76.964,25.877,75.382,24.963,73.429,26.09Z"/><path class="cm" d="M73.425,26.152a7.707,7.707,0,0,0-3.487,6.039c0,2.224,1.561,3.125,3.487,2.013a7.707,7.707,0,0,0,3.487-6.039C76.911,25.942,75.35,25.04,73.425,26.152Z"/><path class="cn" d="M73.42,26.214a7.6,7.6,0,0,0-3.438,5.955c0,2.193,1.539,3.082,3.438,1.985A7.6,7.6,0,0,0,76.858,28.2C76.858,26.006,75.319,25.118,73.42,26.214Z"/><path class="co" d="M73.416,26.276a7.493,7.493,0,0,0-3.39,5.872c0,2.162,1.518,3.038,3.39,1.957a7.493,7.493,0,0,0,3.39-5.872C76.806,26.071,75.288,25.195,73.416,26.276Z"/><path class="cp" d="M73.411,26.337a7.386,7.386,0,0,0-3.342,5.788c0,2.131,1.5,2.995,3.342,1.929a7.386,7.386,0,0,0,3.342-5.788C76.753,26.136,75.256,25.272,73.411,26.337Z"/><path class="cq" d="M73.406,26.4a7.28,7.28,0,0,0-3.294,5.7c0,2.1,1.475,2.952,3.294,1.9A7.28,7.28,0,0,0,76.7,28.3C76.7,26.2,75.225,25.349,73.406,26.4Z"/><path class="cr" d="M73.4,26.461a7.173,7.173,0,0,0-3.245,5.621c0,2.07,1.453,2.908,3.245,1.874a7.173,7.173,0,0,0,3.245-5.621C76.647,26.265,75.194,25.426,73.4,26.461Z"/><path class="cs" d="M73.4,26.523a7.066,7.066,0,0,0-3.2,5.537c0,2.039,1.431,2.865,3.2,1.846a7.066,7.066,0,0,0,3.2-5.537C76.594,26.33,75.163,25.5,73.4,26.523Z"/><path class="ct" d="M73.392,26.584a6.96,6.96,0,0,0-3.149,5.454c0,2.008,1.41,2.822,3.149,1.818A6.959,6.959,0,0,0,76.541,28.4C76.541,26.394,75.131,25.58,73.392,26.584Z"/><path class="cu" d="M73.388,26.646a6.853,6.853,0,0,0-3.1,5.37c0,1.977,1.388,2.779,3.1,1.79a6.853,6.853,0,0,0,3.1-5.37C76.488,26.459,75.1,25.658,73.388,26.646Z"/><path class="cv" d="M73.383,26.708a6.746,6.746,0,0,0-3.052,5.286c0,1.946,1.366,2.735,3.052,1.762a6.746,6.746,0,0,0,3.052-5.286C76.435,26.524,75.069,25.735,73.383,26.708Z"/><path class="cw" d="M73.379,26.77a6.639,6.639,0,0,0-3,5.2c0,1.916,1.345,2.692,3,1.734a6.639,6.639,0,0,0,3-5.2C76.382,26.588,75.037,25.812,73.379,26.77Z"/><path class="cx" d="M73.374,26.831a6.533,6.533,0,0,0-2.955,5.119c0,1.885,1.323,2.649,2.955,1.706a6.532,6.532,0,0,0,2.955-5.119C76.329,26.653,75.006,25.889,73.374,26.831Z"/><path class="ay" d="M73.374,26.585a6.938,6.938,0,0,0-3.139,5.436c0,2,1.405,2.813,3.139,1.812A6.938,6.938,0,0,0,76.513,28.4C76.513,26.4,75.107,25.584,73.374,26.585Z"/><path class="cy" d="M73.374,26.9a6.33,6.33,0,0,0-2.864,4.961c0,1.827,1.282,2.567,2.864,1.654a6.331,6.331,0,0,0,2.864-4.961C76.238,26.729,74.956,25.989,73.374,26.9Z"/><path class="cz" d="M72.546,27.617a5.178,5.178,0,0,0-.838.885.548.548,0,0,0-.113.279.188.188,0,0,0,.073.194l.18.1c.152.088.372.006.567-.21.035-.038.071-.076.107-.113a1.107,1.107,0,0,0,.329-.736v-.294c0-.091-.032-.15-.093-.172a.221.221,0,0,0-.211.063Zm-1.568,2.149a5.165,5.165,0,0,0-.347,1.168.221.221,0,0,0,.051.214.162.162,0,0,0,.2-.005L71.132,31a1.106,1.106,0,0,0,.473-.653c.013-.05.028-.1.044-.149.09-.277.05-.508-.1-.6l-.18-.1a.188.188,0,0,0-.2.034.546.546,0,0,0-.185.238Zm-.347,2.36a1.72,1.72,0,0,0,.347.767.144.144,0,0,0,.185.024.476.476,0,0,0,.2-.2l.18-.312a.8.8,0,0,0,.1-.714c-.016-.031-.031-.064-.044-.1-.075-.19-.258-.231-.473-.107l-.255.147a.513.513,0,0,0-.2.221.431.431,0,0,0-.051.273Zm1.077,1.188c-.066-.011-.105-.063-.113-.149a.475.475,0,0,1,.072-.278l.18-.312a.8.8,0,0,1,.567-.445c.035,0,.07-.005.107-.011.2-.03.329.108.329.356v.294a.515.515,0,0,1-.093.28.429.429,0,0,1-.211.181,1.72,1.72,0,0,1-.837.083Zm1.87-.679a5.176,5.176,0,0,0,.837-.884.547.547,0,0,0,.113-.279.188.188,0,0,0-.073-.194l-.18-.1c-.152-.088-.372-.006-.567.21-.035.039-.071.076-.107.113a1.107,1.107,0,0,0-.329.736v.294c0,.091.032.15.093.172a.222.222,0,0,0,.211-.063Zm1.568-2.149a5.161,5.161,0,0,0,.347-1.168.221.221,0,0,0-.051-.214.163.163,0,0,0-.2.005l-.255.147a1.1,1.1,0,0,0-.473.653c-.014.049-.028.1-.044.149-.09.277-.05.508.1.6l.18.1a.188.188,0,0,0,.2-.034.549.549,0,0,0,.185-.238Zm.347-2.36a1.719,1.719,0,0,0-.347-.767.144.144,0,0,0-.185-.024.477.477,0,0,0-.2.2l-.18.312a.8.8,0,0,0-.1.714c.016.031.031.064.044.1.075.19.258.231.473.107l.255-.147a.518.518,0,0,0,.2-.221.431.431,0,0,0,.051-.273Zm-1.078-1.188c.066.012.105.063.113.148a.478.478,0,0,1-.073.278l-.18.312a.8.8,0,0,1-.567.445,1.017,1.017,0,0,0-.107.011c-.2.03-.329-.108-.329-.356v-.294a.516.516,0,0,1,.093-.28.427.427,0,0,1,.211-.181A1.72,1.72,0,0,1,74.416,26.938Z"/><path class="da" d="M72.976,28.43a2.966,2.966,0,0,0-1.342,2.324.943.943,0,0,0,.393.869l.4.23a.943.943,0,0,0,.949-.094,2.965,2.965,0,0,0,1.342-2.324.943.943,0,0,0-.393-.869l-.4-.23A.943.943,0,0,0,72.976,28.43Z"/><path class="ay" d="M73.374,28.66a2.967,2.967,0,0,0-1.342,2.324.818.818,0,0,0,1.342.775,2.965,2.965,0,0,0,1.342-2.324.818.818,0,0,0-1.342-.775Z"/><path class="bc" d="M73.374,29.784a.814.814,0,0,0-.368.638c0,.235.165.33.368.213A.814.814,0,0,0,73.742,30C73.742,29.762,73.577,29.667,73.374,29.784Z"/><ellipse class="bd" cx="72.777" cy="31.244" rx="0.211" ry="0.122" transform="translate(9.326 78.643) rotate(-59.995)"/><ellipse class="bd" cx="73.971" cy="30.554" rx="0.211" ry="0.122" transform="translate(10.516 79.327) rotate(-59.99)"/><ellipse class="bd" cx="72.777" cy="29.865" rx="0.211" ry="0.122" transform="translate(10.534 77.971) rotate(-60.011)"/><ellipse class="bd" cx="73.971" cy="29.175" rx="0.211" ry="0.122" transform="translate(11.722 78.652) rotate(-60.003)"/><path class="be" d="M73.374,28.66a2.967,2.967,0,0,0-1.342,2.324c0,.039,0,.077,0,.114a2.833,2.833,0,0,1,.389-1.2,2.746,2.746,0,0,1,.949-1,.943.943,0,0,1,.949-.094.89.89,0,0,1,.389.755c0-.04,0-.079,0-.118a.818.818,0,0,0-1.342-.775Z"/><path class="be" d="M73.374,26.585a6.938,6.938,0,0,0-3.139,5.436v.057A6.952,6.952,0,0,1,73.374,26.7c1.717-.991,3.111-.2,3.138,1.755V28.4C76.513,26.4,75.107,25.584,73.374,26.585Z"/><path class="be" d="M71.16,33.594a1.9,1.9,0,0,0,2.211-.072l.043-.026a4.235,4.235,0,0,1-.738-.037A9.082,9.082,0,0,0,71.16,33.594Z"/><path class="bf" d="M73.374,25.577a8.868,8.868,0,0,0-4.012,6.949c0,2.559,1.8,3.6,4.012,2.316a8.868,8.868,0,0,0,4.012-6.949c0-2.559-1.8-3.6-4.012-2.316Zm0,.6c1.93-1.114,3.494-.211,3.494,2.017a7.723,7.723,0,0,1-3.494,6.052c-1.93,1.114-3.494.211-3.494-2.018A7.723,7.723,0,0,1,73.374,26.175Z"/><polygon class="d" points="75.796 15.226 53.432 2.315 59 0.182 60.143 0 82.507 12.912 81.364 13.094 75.796 15.226"/><polygon class="db" points="75.796 15.226 53.712 2.476 59.279 0.343 60.422 0.161 82.507 12.912 81.364 13.094 75.796 15.226"/><path class="d" d="M55.112,3.284l.383-.115-8.93,5.064-.095-.055,8.641-4.894Zm9.549.166L59.092,5.076l-9.079,5.148.438.253,8.641-4.894Z"/><path class="d" d="M69.6,11.651l.383-.115L61.056,16.6l-.095-.055L69.6,11.651Zm9.549.166-5.568,1.626L64.5,18.591l.438.253,8.642-4.894Z"/><polygon class="dc" points="64.66 3.45 59.092 5.583 50.451 10.477 50.013 10.224 59.092 5.076 64.66 3.45"/><polygon class="dc" points="79.152 11.817 73.584 13.949 64.658 19.008 64.22 18.756 73.584 13.443 79.152 11.817"/><path class="dd" d="M55.644,3.085l5.568-1.626L64.66,3.45,59.092,5.076l-9.187,5.209L46.457,8.294l9.187-5.209Zm14.492,8.367-9.187,5.21L64.4,18.652l9.187-5.209,5.568-1.626L75.7,9.826Z"/><path class="db" d="M55.644,3.085l5.568-1.626L64.66,3.45,59.092,5.076,55.644,3.085Zm14.492,8.367L75.7,9.826l3.448,1.991-5.568,1.626Z"/><path class="dc" d="M29.456,53.817l.5-.287.761-4.108a3.929,3.929,0,0,1,1.723-2.564l7.433-4.291c.976-.563,1.771-.1,1.771,1.023v3.192l25.986-15,.154-.1.879-4.743a3.781,3.781,0,0,1,1.658-2.468l6.6-3.809c.939-.542,1.705-.1,1.705.985v3.275l.748-.906,2.389-1.546V19.784l.75-.433V12.912l-1.143.182L75.8,15.226l-9.187,5.209-6.743-4.877L26.025,35.1l-2,9.944V47.78l.443.947-.325,4.287v.859l.281.941.607,1.4Z"/><polygon class="de" points="82.507 18.944 82.507 14.472 81.599 13.347 81.031 14.15 80.032 16.649 80.26 20.659 82.507 18.944"/><polygon class="df" points="82.507 18.944 82.507 14.472 82.099 15.183 80.515 16.928 80.26 20.659 82.507 18.944"/><polygon class="dg" points="64.992 33.301 67.627 31.779 67.781 31.684 68.546 27.552 64.992 27.552 64.992 33.301"/><polygon class="dh" points="29.456 53.817 29.953 53.531 30.714 49.423 30.715 49.418 30.716 49.414 30.716 49.41 30.717 49.406 30.722 49.381 30.723 49.377 30.724 49.374 30.724 49.373 30.725 49.368 30.725 49.364 30.729 49.348 30.73 49.343 30.731 49.339 30.732 49.335 30.732 49.331 30.733 49.327 30.734 49.325 30.734 49.323 30.735 49.319 30.736 49.314 30.737 49.31 30.738 49.306 30.739 49.302 30.742 49.289 30.742 49.285 30.743 49.281 30.744 49.277 30.745 49.276 30.745 49.273 30.746 49.268 30.747 49.264 30.749 49.256 30.75 49.252 30.752 49.244 30.753 49.239 30.754 49.235 30.755 49.231 30.756 49.227 30.756 49.227 30.759 49.215 30.76 49.21 30.761 49.206 30.763 49.198 30.764 49.194 30.766 49.19 30.767 49.185 30.768 49.181 30.768 49.178 30.769 49.177 30.77 49.173 30.771 49.169 30.772 49.165 30.773 49.161 30.774 49.156 27.008 49.156 27.008 55.139 29.456 53.817"/><polygon class="di" points="80.032 16.649 81.031 14.15 24.024 47.064 24.024 47.78 24.141 48.918 80.032 16.649"/><polygon class="dj" points="66.609 20.436 59.866 15.559 26.025 35.097 24.024 45.04 66.609 20.436"/><path class="dk" d="M80.032,16.649,24.141,48.918v4.768l.337.194,6.059-3.5.178-.959a3.929,3.929,0,0,1,1.723-2.564l7.433-4.291c.976-.563,1.771-.1,1.771,1.023v.38L68.363,28.543l.3-1.6a3.781,3.781,0,0,1,1.658-2.468l6.6-3.809c.939-.542,1.705-.1,1.705.985v.972l1.592-.919.483-.837V16.824Z"/><path class="dl" d="M29.365,51.058l.68-.392.2-1.1.025-.124.029-.124.032-.124.036-.123.039-.123.043-.122L30.5,48.7l.049-.121.052-.12.055-.119.058-.117.061-.116L30.836,48l.066-.112.069-.111.071-.109.074-.107.076-.1.078-.1.08-.1.082-.1.084-.094.086-.091.088-.088.089-.085.091-.082.092-.078.094-.075.095-.071.1-.067.1-.063.1-.059,7.433-4.291.23-.119.224-.09.216-.06.207-.032.2,0,.186.023.174.05.16.076-.548-.317-.16-.076-.174-.05-.186-.023-.2,0L40,41.426l-.216.06-.224.09-.23.119-7.433,4.291-.1.059-.1.063-.1.067-.095.071-.094.075-.092.078-.091.082-.089.085-.087.088-.086.091-.084.094-.082.1-.08.1-.078.1-.076.1-.074.107-.071.109-.069.111-.066.112-.064.114-.061.116-.058.117-.055.118-.052.12-.049.121-.046.122-.043.122-.039.123-.036.123L29.754,49l-.029.124-.025.124-.335,1.808ZM67.192,29.219l.68-.392.323-1.741.024-.12.028-.12.031-.12.035-.12.038-.119.041-.119.044-.118.047-.117.05-.116.053-.115.056-.114.059-.112.062-.111.064-.109.067-.107.069-.105.071-.1.074-.1.076-.1.078-.1.08-.094.081-.091.083-.089.085-.085.087-.082.088-.079.09-.076.091-.072.092-.069.093-.065.094-.061.1-.057,6.6-3.809.223-.116.217-.087.209-.059.2-.031.191,0,.18.023.168.048.156.073-.548-.317-.156-.073-.168-.048-.181-.023-.191,0-.2.031-.209.059-.217.087-.223.116-6.6,3.809-.1.057-.094.061-.093.065-.092.069-.091.073-.09.076-.088.079-.087.082-.085.085-.083.089-.082.091-.08.094-.078.1-.076.1-.074.1-.071.1-.069.105-.067.107-.064.109-.062.111-.059.112-.056.114-.053.115-.05.116-.047.117-.044.118-.041.119-.038.119-.035.12-.031.12-.028.12-.024.12Z"/><path class="dm" d="M29.466,53.812l.5-.287.761-4.107a3.932,3.932,0,0,1,.4-1.121l-7.806,4.508v1.357l.675.39v1.984l5.474-2.725ZM41.191,42.483a1.288,1.288,0,0,1,.457,1.1v3.191l25.98-15,.154-.1.878-4.741a3.464,3.464,0,0,1,.092-.375Z"/><path class="dn" d="M30.522,48.645l-.791.457-.006.024-.025.124L28.912,53.5l.543.314.007,0,.787-4.247.025-.124.029-.124.032-.124.036-.123.039-.123.043-.122L30.5,48.7l.024-.06ZM67.555,27.258l-.816,4.407.544.314.006,0,.906-4.89.024-.12.024-.1Z"/><path class="do" d="M29.466,53.812l.5-.287.743-4.014-7.389,4.268v.383l.675.39,1.039,1.666,4.435-2.406Zm12.148-10.6a2.03,2.03,0,0,1,.033.376v3.191l25.98-15,.154-.1.743-4.013L41.614,43.212Zm37-21.37v3.083l.478-.3,1.607-1.12V20.654Z"/><path class="dp" d="M30.205,49.8l-.68.393-.613,3.31.543.314.006,0,.743-4.013ZM67.353,28.347l-.615,3.317.544.314.006,0,.745-4.02Z"/><path class="dq" d="M42.729,25.822l9.637-5.564,4.15-2.4,3.271-1.889a.106.106,0,0,1,.115.006h0l6.455,4.669a.106.106,0,0,1,.044.086h0v2.438l.467,1.1a.1.1,0,0,1,.009.041h0v5.183a.107.107,0,0,1-.005.033L66.4,31.3a.105.105,0,0,1-.054.067l-12.815,7.4h0l-9.634,5.562a.106.106,0,0,1-.155-.12v0l.471-1.685v-5.2L43.741,36.2a.107.107,0,0,1-.008-.041h0V33.7l-1.056-7.776a.106.106,0,0,1,.052-.106Zm9.606-5.3L42.9,25.97l1.046,7.706,0,.023v2.439l.465,1.119a.1.1,0,0,1,.011.047v5.233h0a.1.1,0,0,1,0,.028l-.406,1.452L53.385,38.6l.46-1.645v-5.2l-.468-1.125a.107.107,0,0,1-.008-.041h0V28.139L52.335,20.52Zm1.313,17.931L56.516,36.8h0L66.2,31.2l.461-1.722V24.332l-.464-1.09a.1.1,0,0,1-.012-.049V20.787l-6.355-4.6-7.3,4.215,1.046,7.706,0,.023v2.439l.465,1.119a.1.1,0,0,1,.011.047v5.233h0a.105.105,0,0,1,0,.028Z"/><path class="dr" d="M66.877,27.649v.973l-.213.123v-.973l.213-.123ZM44.209,41.714V40.74l.213-.123v.973l-.213.123Zm9.637-5.565v-.973l.213-.123v.973Z"/><path class="ds" d="M66.877,28.622v.872a.107.107,0,0,1-.005.033L66.4,31.3a.105.105,0,0,1-.054.067l-12.815,7.4h0l-9.634,5.562a.106.106,0,0,1-.155-.12v0l.471-1.685v-.808l.213-.123v.944h0a.1.1,0,0,1,0,.028l-.406,1.452L53.385,38.6l.46-1.645v-.81l.213-.123v.946h0a.105.105,0,0,1,0,.028l-.406,1.452L56.516,36.8h0L66.2,31.2l.461-1.722v-.736Z"/><path class="dt" d="M59.858,15.563,40.29,4.266,12.328,20.41,31.9,31.707Z"/><polygon class="du" points="78.668 20.863 78.12 20.546 78.23 20.623 78.328 20.718 78.414 20.831 78.486 20.961 78.543 21.109 78.585 21.273 78.611 21.453 78.62 21.649 78.62 24.901 79.168 25.218 79.168 21.965 79.16 21.77 79.134 21.59 79.092 21.425 79.034 21.278 78.962 21.147 78.876 21.034 78.778 20.94 78.668 20.863"/><polygon class="dv" points="79.01 20.271 78.461 19.955 78.306 19.881 78.137 19.833 77.957 19.81 77.765 19.814 77.564 19.845 77.355 19.904 77.138 19.99 76.915 20.106 70.318 23.915 70.223 23.972 70.128 24.034 70.035 24.099 69.943 24.168 69.852 24.24 69.762 24.316 69.674 24.396 69.588 24.478 69.503 24.564 69.419 24.652 69.338 24.744 69.258 24.838 69.18 24.934 69.105 25.033 69.031 25.134 68.96 25.238 68.891 25.343 68.824 25.451 68.76 25.56 68.698 25.671 68.639 25.783 68.583 25.897 68.529 26.012 68.479 26.128 68.431 26.245 68.387 26.363 68.346 26.482 68.308 26.601 68.273 26.721 68.242 26.841 68.214 26.962 68.19 27.082 67.283 31.978 67.831 32.295 68.738 27.399 68.762 27.278 68.79 27.158 68.821 27.038 68.856 26.918 68.894 26.798 68.935 26.68 68.98 26.562 69.027 26.445 69.078 26.329 69.131 26.213 69.188 26.1 69.247 25.988 69.308 25.877 69.373 25.767 69.439 25.66 69.508 25.555 69.58 25.451 69.653 25.35 69.729 25.251 69.807 25.154 69.886 25.06 69.968 24.969 70.051 24.88 70.136 24.795 70.223 24.712 70.311 24.633 70.4 24.557 70.491 24.484 70.583 24.416 70.677 24.35 70.771 24.289 70.866 24.232 77.463 20.423 77.687 20.307 77.903 20.22 78.113 20.162 78.314 20.131 78.505 20.127 78.686 20.15 78.854 20.198 79.01 20.271"/><polygon class="du" points="41.67 42.762 41.122 42.445 41.236 42.524 41.338 42.623 41.427 42.74 41.502 42.876 41.562 43.029 41.605 43.2 41.632 43.387 41.641 43.59 41.641 46.782 42.19 47.099 42.19 43.907 42.181 43.704 42.154 43.516 42.11 43.346 42.05 43.193 41.976 43.057 41.887 42.94 41.785 42.841 41.67 42.762"/><polygon class="dw" points="39.87 42.01 32.437 46.301 32.339 46.36 32.241 46.423 32.145 46.49 32.05 46.561 31.957 46.636 31.864 46.714 31.774 46.796 31.684 46.881 31.597 46.969 31.511 47.06 31.427 47.154 31.345 47.251 31.265 47.351 31.187 47.453 31.111 47.557 31.038 47.664 30.966 47.773 30.898 47.883 30.832 47.996 30.768 48.11 30.707 48.226 30.649 48.343 30.594 48.461 30.542 48.581 30.493 48.702 30.447 48.823 30.405 48.946 30.366 49.069 30.33 49.192 30.298 49.316 30.269 49.44 30.244 49.564 29.456 53.817 30.005 54.134 30.793 49.881 30.817 49.756 30.846 49.633 30.878 49.509 30.914 49.385 30.953 49.262 30.996 49.14 31.042 49.018 31.091 48.898 31.143 48.778 31.198 48.66 31.256 48.542 31.316 48.427 31.38 48.312 31.446 48.2 31.515 48.089 31.586 47.981 31.66 47.874 31.735 47.77 31.813 47.668 31.893 47.568 31.976 47.471 32.06 47.377 32.145 47.286 32.233 47.198 32.322 47.113 32.413 47.031 32.505 46.953 32.599 46.878 32.694 46.807 32.79 46.74 32.887 46.677 32.985 46.617 40.418 42.326 40.648 42.207 40.872 42.117 41.088 42.057 41.295 42.025 41.492 42.021 41.678 42.045 41.851 42.094 42.012 42.17 41.463 41.853 41.303 41.778 41.129 41.728 40.943 41.705 40.746 41.708 40.539 41.74 40.324 41.801 40.1 41.89 39.87 42.01"/><path class="bf" d="M77.463,20.423l-6.6,3.809A4.865,4.865,0,0,0,68.738,27.4l-.907,4.9.344-.2.152-.088.88-4.751a3.781,3.781,0,0,1,1.658-2.468l6.6-3.809c.939-.542,1.705-.1,1.705.985v3.253l.478-.276.005,0V21.687c0-1.392-.982-1.96-2.188-1.264ZM30,54.134l.5-.287.761-4.108a3.929,3.929,0,0,1,1.723-2.564l7.433-4.291c.976-.563,1.771-.1,1.771,1.023V47.1l.483-.279V43.628c0-1.434-1.012-2.019-2.255-1.3l-7.433,4.291a5.014,5.014,0,0,0-2.193,3.263Z"/><polygon class="dk" points="52.878 20.575 53.811 27.45 65.514 20.693 59.814 16.571 52.878 20.575"/><polygon class="dx" points="52.878 20.575 65.001 20.397 65.514 20.693 59.814 16.571 52.878 20.575"/><polygon class="dy" points="53.737 26.901 65.001 20.397 59.757 16.604 52.878 20.575 53.737 26.901"/><path class="dz" d="M53.7,26.628l7.761-4.481-.11.064L59.075,17l-6.2,3.578.822,6.052Zm8.2-4.736-2.162-4.984,4.792,3.466Z"/><path class="ea" d="M56.566,27.028l-1.558.9a.407.407,0,0,0-.169.323v.287c0,.123.076.181.169.128l1.558-.9a.406.406,0,0,0,.169-.323v-.287C56.735,27.032,56.659,26.975,56.566,27.028Z"/><path class="eb" d="M65.718,20.961l-.4.228a.407.407,0,0,0-.169.322V21.8c0,.123.076.181.169.128l.4-.228a.406.406,0,0,0,.169-.322v-.287C65.886,20.965,65.81,20.908,65.718,20.961Z"/><path class="ec" d="M67.81,21.062l-.877-.506-.877-.506a.2.2,0,0,0-.213,0l-.149.086a.261.261,0,0,0-.089.233v.989a.745.745,0,0,0,.089.335.6.6,0,0,0,.213.241l.877.506.877.506a.2.2,0,0,0,.213,0l.149-.086a.261.261,0,0,0,.089-.233v-.989a.745.745,0,0,0-.089-.335A.6.6,0,0,0,67.81,21.062Z"/><path class="ed" d="M67.661,21.148l-.877-.506-.877-.506a.186.186,0,0,0-.213,0,.283.283,0,0,0-.089.233v.989a.745.745,0,0,0,.089.335.6.6,0,0,0,.213.241l.877.506.877.506a.186.186,0,0,0,.213,0,.283.283,0,0,0,.089-.233v-.989a.746.746,0,0,0-.089-.335A.6.6,0,0,0,67.661,21.148Z"/><polygon class="ee" points="80.868 20.297 80.703 20.201 82.821 18.978 82.821 17.895 82.821 17.704 84.09 18.437 80.868 20.297"/><polygon class="b" points="83.583 18.729 80.868 20.297 80.868 23.603 83.583 22.036 83.583 20.793 84.09 20.501 84.09 18.437 83.583 18.729"/><polygon class="b" points="80.703 20.201 80.868 20.297 80.868 23.603 80.703 23.508 80.703 20.201"/><path class="ef" d="M57.989,17.624l1.818,1.049L59.075,17l-1.086.627Zm2.752,1.589-1-2.306,4.792,3.466-.891.515Z"/><path class="eg" d="M1.66,32.129v2.229L.89,35.492l0,7.395Q12.515,49.6,24.144,56.316l0-7.4-.116-1.646V45.04Z"/><path class="eh" d="M.887,39.871l0,3.016Q12.515,49.6,24.144,56.316l0-3.018Q12.516,46.583.887,39.871Z"/><path class="ei" d="M.886,38.687V39.87Q12.515,46.583,24.144,53.3V52.115Q12.516,45.4.886,38.687Z"/><polygon class="d" points="1.66 34.358 0.89 35.492 24.14 48.916 24.024 47.27 1.66 34.358"/><polygon class="ej" points="25.031 53.796 24.653 53.578 23.234 54.398 23.611 54.616 25.031 53.796"/><polygon class="b" points="25.031 53.796 24.653 53.578 24.143 53.873 24.897 53.873 25.031 53.796"/><polygon class="d" points="24.024 45.04 1.66 32.129 6.457 23.799 26.025 35.097 24.024 45.04"/><polygon class="ek" points="23.424 43.712 25.071 35.528 6.769 24.962 2.821 31.817 23.424 43.712"/><polygon class="el" points="5.424 31.607 25.071 35.528 6.769 24.962 2.821 31.817 5.424 31.607"/><polygon class="em" points="25.324 49.509 24.139 50.193 24.139 52.734 25.324 52.05 25.324 49.509"/><polygon class="en" points="24.401 50.042 24.139 50.193 24.139 52.28 24.139 52.734 24.401 52.583 24.794 52.356 24.401 52.356 24.401 50.042"/><polygon class="dk" points="25.377 49.357 24.139 50.071 24.139 50.316 25.218 49.693 25.218 51.989 24.139 52.612 24.139 52.856 25.271 52.203 25.43 52.111 25.43 51.927 25.43 49.386 25.43 49.326 25.377 49.357"/><polygon class="eo" points="7.052 25.125 3.387 31.491 23.542 43.127 25.071 35.528 7.052 25.125"/><polygon class="ep" points="3.814 31.737 23.542 43.127 25.071 35.528 7.479 25.372 3.814 31.737"/><polygon class="eq" points="10.768 27.27 8.122 25.743 7.258 29.297 10.768 27.27"/><path class="ej" d="M24.118,54.323.884,40.909h0v-.436L0,40.984,23.611,54.616Z"/><polygon class="er" points="24.118 54.323 0.884 40.909 0.884 41.494 23.611 54.616 24.118 54.323"/><polygon class="es" points="24.118 56.745 0.48 43.119 0.48 42.531 24.118 56.157 24.118 56.745"/><polygon class="b" points="24.118 54.323 25.031 53.796 25.031 56.218 24.118 56.745 24.118 56.387 23.611 56.68 23.611 54.616 24.118 54.323"/><polygon class="ee" points="23.611 56.679 0 43.047 0 40.984 23.611 54.616 23.611 56.679"/><polygon class="et" points="22.143 49.041 24.139 50.193 24.139 52.734 22.143 51.581 22.143 49.041"/><polygon class="eu" points="22.143 49.041 22.951 49.507 22.951 51.581 22.143 51.581 22.143 49.041"/><polygon class="ev" points="24.139 52.28 24.139 52.734 22.143 51.581 22.535 51.354 24.139 52.28"/><polygon class="ew" points="22.143 51.581 22.535 51.354 22.928 51.581 22.143 51.581"/><polygon class="ex" points="22.09 48.888 24.139 50.071 24.139 50.316 22.249 49.224 22.249 51.52 24.139 52.612 24.139 52.856 22.195 51.734 22.036 51.642 22.036 51.458 22.036 48.918 22.036 48.857 22.09 48.888"/><polygon class="ey" points="2.884 37.922 0.887 36.769 0.887 39.309 2.884 40.462 2.884 37.922"/><polygon class="ez" points="2.884 39.886 2.884 40.34 1.441 39.507 1.441 39.629 0.887 39.309 0.887 39.187 0.887 38.868 1.441 38.868 1.441 39.053 2.884 39.886"/><polygon class="fa" points="1.441 36.996 0.887 36.891 0.887 39.187 1.441 38.868 1.441 36.996"/><polygon class="ex" points="2.937 37.83 0.887 36.646 0.887 36.891 2.778 37.982 2.778 40.279 0.887 39.187 0.887 39.432 2.831 40.554 2.99 40.646 2.99 40.462 2.99 37.922 2.99 37.861 2.937 37.83"/><path class="ei" d="M10.99,38.543l3.7,2.138a.406.406,0,0,1,.169.322v.287c0,.123-.076.181-.169.128l-3.7-2.138a.406.406,0,0,1-.169-.322V38.67C10.821,38.546,10.9,38.489,10.99,38.543Z"/><path class="eg" d="M10.85,41.261l3.987,2.3a.221.221,0,0,1,.113.2v2.589a.226.226,0,0,1-.339.2l-3.987-2.3c-.072-.041-.113-.255-.113-.338V41.457a.226.226,0,0,1,.339-.2Z"/><path class="fb" d="M10.848,41.27l3.979,2.3a.214.214,0,0,1,.109.19v2.581a.219.219,0,0,1-.328.19l-3.979-2.3c-.07-.04-.109-.245-.109-.325V41.46a.219.219,0,0,1,.328-.19Z"/><path class="fc" d="M10.845,41.279l3.97,2.3a.207.207,0,0,1,.106.183v2.572a.212.212,0,0,1-.317.183l-3.97-2.3c-.067-.039-.106-.235-.106-.312V41.462a.212.212,0,0,1,.318-.183Z"/><path class="fd" d="M10.843,41.288,14.8,43.579a.2.2,0,0,1,.1.177V46.32a.2.2,0,0,1-.307.177l-3.961-2.292c-.065-.038-.1-.224-.1-.3V41.465a.2.2,0,0,1,.307-.177Z"/><path class="fe" d="M10.841,41.3l3.952,2.288a.193.193,0,0,1,.1.171V46.31a.2.2,0,0,1-.3.171l-3.952-2.288c-.063-.036-.1-.214-.1-.286v-2.44a.2.2,0,0,1,.3-.171Z"/><path class="ff" d="M10.838,41.3l3.943,2.285a.186.186,0,0,1,.1.165V46.3a.19.19,0,0,1-.285.165l-3.944-2.285c-.06-.035-.1-.2-.1-.273V41.47a.19.19,0,0,1,.285-.165Z"/><path class="fg" d="M10.836,41.314l3.935,2.281a.179.179,0,0,1,.091.159v2.538a.183.183,0,0,1-.274.158l-3.935-2.281c-.058-.034-.091-.193-.091-.26V41.472a.183.183,0,0,1,.274-.159Z"/><path class="fh" d="M10.834,41.322,14.76,43.6a.172.172,0,0,1,.088.152v2.53a.176.176,0,0,1-.264.152l-3.926-2.278c-.056-.032-.088-.183-.088-.247V41.475a.176.176,0,0,1,.264-.152Z"/><path class="fi" d="M10.831,41.331l3.917,2.274a.165.165,0,0,1,.084.146v2.521a.169.169,0,0,1-.253.146l-3.917-2.274c-.054-.031-.084-.172-.084-.234V41.477a.169.169,0,0,1,.253-.146Z"/><path class="fj" d="M10.829,41.34l3.908,2.271a.158.158,0,0,1,.081.14v2.513a.161.161,0,0,1-.242.14l-3.908-2.271c-.051-.03-.081-.162-.081-.221V41.48a.161.161,0,0,1,.242-.14Z"/><path class="fk" d="M10.827,41.348l3.9,2.267a.151.151,0,0,1,.077.134v2.5a.154.154,0,0,1-.231.134l-3.9-2.267c-.049-.028-.077-.152-.077-.208V41.482a.154.154,0,0,1,.231-.134Z"/><path class="fl" d="M10.824,41.357l3.891,2.263a.144.144,0,0,1,.074.127v2.5a.147.147,0,0,1-.221.127l-3.891-2.263c-.047-.027-.074-.141-.074-.2V41.485a.147.147,0,0,1,.221-.127Z"/><path class="fm" d="M10.822,41.366l3.882,2.26a.137.137,0,0,1,.07.121v2.487a.14.14,0,0,1-.21.121L10.682,44.1c-.044-.026-.07-.131-.07-.182V41.487a.14.14,0,0,1,.21-.121Z"/><path class="fn" d="M10.82,41.375l3.873,2.256a.13.13,0,0,1,.066.115v2.478a.133.133,0,0,1-.2.115l-3.873-2.256a.238.238,0,0,1-.066-.169V41.49a.133.133,0,0,1,.2-.115Z"/><path class="fo" d="M10.818,41.383l3.864,2.253a.123.123,0,0,1,.063.109v2.47a.126.126,0,0,1-.188.109l-3.865-2.253a.216.216,0,0,1-.063-.156V41.492a.126.126,0,0,1,.188-.109Z"/><path class="fp" d="M10.815,41.392l3.856,2.249a.116.116,0,0,1,.059.1v2.461a.118.118,0,0,1-.178.1L10.7,44.059a.194.194,0,0,1-.059-.143V41.495a.118.118,0,0,1,.178-.1Z"/><path class="fq" d="M10.813,41.4l3.847,2.246a.109.109,0,0,1,.056.1V46.2a.111.111,0,0,1-.167.1L10.7,44.046a.173.173,0,0,1-.056-.13V41.5a.111.111,0,0,1,.167-.1Z"/><path class="fr" d="M10.811,41.409l3.838,2.242a.1.1,0,0,1,.052.09v2.444a.1.1,0,0,1-.156.09l-3.838-2.242a.152.152,0,0,1-.052-.117V41.5a.1.1,0,0,1,.156-.09Z"/><path class="fs" d="M10.808,41.418l3.829,2.239a.1.1,0,0,1,.048.084v2.436a.1.1,0,0,1-.145.084l-3.829-2.239a.131.131,0,0,1-.048-.1V41.5a.1.1,0,0,1,.145-.084Z"/><path class="ft" d="M10.806,41.427l3.821,2.235a.088.088,0,0,1,.045.078v2.427a.09.09,0,0,1-.135.078L10.716,44.01a.111.111,0,0,1-.045-.091V41.5a.09.09,0,0,1,.135-.078Z"/><path class="fu" d="M10.8,41.436l3.812,2.232a.081.081,0,0,1,.041.072v2.419a.083.083,0,0,1-.124.071L10.721,44a.092.092,0,0,1-.041-.078V41.507a.083.083,0,0,1,.124-.072Z"/><path class="fv" d="M10.8,41.444l3.8,2.228a.074.074,0,0,1,.038.065v2.41a.075.075,0,0,1-.113.065l-3.8-2.228a.074.074,0,0,1-.038-.065V41.51a.075.075,0,0,1,.113-.065Z"/><polygon class="fw" points="14.33 43.788 14.602 43.631 14.602 45.989 14.33 46.146 14.33 43.788"/><polygon class="fx" points="10.225 41.418 14.33 43.788 14.33 46.146 10.225 43.776 10.225 41.418"/><polygon class="fy" points="10.497 41.261 14.602 43.631 14.33 43.788 10.225 41.418 10.497 41.261"/><path class="fz" d="M24.118,54.323h0l.913-.527-.1-.058-.812.469h0l-.507.293-.369-.213-.008,0L.1,40.926l-.1.059L23.234,54.4l.008,0,.369.213.507-.293ZM.886,40.794v-.322h0v.319h0Z"/><path class="ga" d="M64.66,3.45,59.092,5.583l-8.34,4.724.335.194,8.455-4.794L64.66,3.45Zm14.492,8.367-5.568,2.132-8.927,5.059v.016l.284.206,9.091-5.158Z"/><path class="ek" d="M59.858,15.563,40.29,4.266,6.457,23.8,26.025,35.1Z"/><path class="gb" d="M13.041,24.361l1.221.705a1.765,1.765,0,0,0,.951.185,1.59,1.59,0,0,1-.7-.185L13.3,24.361c-.484-.279-.422-.772.136-1.094L39.623,8.146a2.166,2.166,0,0,1,.945-.263,2.237,2.237,0,0,0-1.2.263L13.177,23.267C12.618,23.589,12.557,24.082,13.041,24.361Z"/><path class="d" d="M14.958,25.251a2.236,2.236,0,0,0,1.2-.263L42.349,9.867c.559-.322.62-.815.136-1.094l-1.221-.705a1.763,1.763,0,0,0-.951-.185,1.589,1.589,0,0,1,.7.185l1.221.705c.484.279.423.772-.136,1.094L15.9,24.988A2.166,2.166,0,0,1,14.958,25.251Z"/><path class="gb" d="M18.435,27.476l1.221.705a1.765,1.765,0,0,0,.951.185,1.591,1.591,0,0,1-.7-.185l-1.221-.705c-.484-.279-.422-.772.136-1.094L45.018,11.26A2.166,2.166,0,0,1,45.962,11a2.237,2.237,0,0,0-1.2.263L18.571,26.382C18.013,26.7,17.952,27.2,18.435,27.476Z"/><path class="d" d="M20.353,28.366a2.237,2.237,0,0,0,1.2-.264L47.743,12.981c.559-.323.62-.815.136-1.094l-1.221-.705A1.763,1.763,0,0,0,45.707,11a1.587,1.587,0,0,1,.7.185l1.221.705c.484.279.422.772-.136,1.094L21.3,28.1A2.165,2.165,0,0,1,20.353,28.366Z"/><path class="gb" d="M23.83,30.591l1.221.705a1.764,1.764,0,0,0,.951.185,1.59,1.59,0,0,1-.7-.185l-1.221-.705c-.484-.279-.422-.772.136-1.094L50.412,14.375a2.168,2.168,0,0,1,.945-.264,2.238,2.238,0,0,0-1.2.264L23.966,29.5C23.408,29.819,23.346,30.311,23.83,30.591Z"/><path class="d" d="M25.747,31.481a2.236,2.236,0,0,0,1.2-.263L53.138,16.1c.559-.323.62-.815.136-1.094L52.053,14.3a1.763,1.763,0,0,0-.951-.185,1.589,1.589,0,0,1,.7.185L53.019,15c.484.279.423.772-.136,1.094L26.692,31.217A2.164,2.164,0,0,1,25.747,31.481Z"/><path class="dk" d="M28.728,34.519l-1.2,8.108L41.964,34.29l-.933-6.874-12.3,7.1ZM43.313,26.1l.933,6.874L53,27.919l-.933-6.874Z"/><path class="dx" d="M28.728,34.519l12.724-.525.512.3-.933-6.874-12.3,7.1ZM43.313,26.1l9.174,1.525.512.3-.933-6.874Z"/><path class="gc" d="M28.728,34.519,27.62,41.979l13.832-7.986-.859-6.325L28.728,34.519Zm15.444-2.1,8.315-4.8L51.627,21.3l-8.315,4.8Z"/><path class="gd" d="M28.728,34.519l-1.06,7.139,13.511-7.8L40.357,27.8,28.728,34.519ZM44.134,32.15l8.079-4.664-.822-6.052L43.313,26.1Z"/><path class="ge" d="M46.4,32.9l-1.558.9a.407.407,0,0,0-.169.322v.287c0,.123.076.181.169.128l1.558-.9a.406.406,0,0,0,.169-.323v-.287C46.569,32.9,46.493,32.844,46.4,32.9Z"/></svg>