<svg xmlns="http://www.w3.org/2000/svg" viewBox="0 0 2568.44 1094.73"><defs><style>.cls-1{isolation:isolate;}.cls-12,.cls-2{fill:#fff;}.cls-3{fill:#92b3c3;}.cls-4,.cls-5,.cls-8{fill:#142a3a;}.cls-4,.cls-7{opacity:0.25;}.cls-4,.cls-5,.cls-7{mix-blend-mode:multiply;}.cls-5{opacity:0.15;}.cls-6{fill:#bac6d3;}.cls-9{fill:#dbe2ec;}.cls-10{fill:#abb6be;}.cls-11{fill:#28292a;}.cls-12,.cls-13{opacity:0.5;}.cls-14{fill:#2c2f32;}</style></defs><title>boat-c</title><g class="cls-1"><g id="Layer_1" data-name="Layer 1"><path class="cls-2" d="M789.07,27.65V16.1a8,8,0,0,1,8-8h85.39a8,8,0,0,1,8,8V27.65Z"/><path class="cls-2" d="M890.56,48.64V60.19a8,8,0,0,1-8,8H797.12a8,8,0,0,1-8-8V48.64Z"/><rect class="cls-3" x="791.17" y="27.65" width="97.29" height="21"/><rect class="cls-4" x="791.17" y="27.65" width="97.29" height="5.42" transform="translate(1679.63 60.72) rotate(180)"/><rect class="cls-2" x="807.97" y="68.24" width="63.69" height="41.99" transform="translate(1679.63 178.47) rotate(180)"/><rect class="cls-5" x="807.97" y="68.24" width="20.47" height="41.99" transform="translate(1636.42 178.47) rotate(180)"/><path class="cls-2" d="M554.73,0h105a0,0,0,0,1,0,0V73.49A52.49,52.49,0,0,1,607.23,126h0a52.49,52.49,0,0,1-52.49-52.49V0A0,0,0,0,1,554.73,0Z" transform="translate(1214.45 125.98) rotate(180)"/><path class="cls-5" d="M595.11,1.42a63.56,63.56,0,0,0-10.55,35.15V126H554.73V52.49A52.5,52.5,0,0,1,595.11,1.42Z"/><path class="cls-2" d="M704.4,36.13h0a33.76,33.76,0,0,1,33.76,33.76v47.26H670.64V69.89A33.76,33.76,0,0,1,704.4,36.13Z"/><path class="cls-5" d="M696.6,37a40.87,40.87,0,0,0-6.78,22.6v57.5H670.64V69.89A33.76,33.76,0,0,1,696.6,37Z"/><rect class="cls-4" x="807.97" y="68.24" width="63.69" height="8.4" transform="translate(1679.63 144.88) rotate(180)"/><path class="cls-6" d="M1384.77,374.86l-17.11,7.3-113.8-266.69,17.11-7.3ZM1056.35,104.69l-17.64,5.89,91.77,275.05,17.64-5.89ZM839.82,117.13l-18.6,0-.75,290,18.6,0ZM607.23,126c4.8,4.8,78.93,177.53,78.93,177.53H787.59L669.24,126Z"/><g class="cls-7"><path class="cls-8" d="M1271.86,110.23h-5.73l-12.26,5.23,11.84,27.74h17.06a11.18,11.18,0,0,0,3-.42Z"/><path class="cls-8" d="M669.24,126h-62c.87.87,4,7.31,8.64,17.25h64.87Z"/><polygon class="cls-8" points="839.82 117.13 821.22 117.08 821.15 143.2 839.75 143.2 839.82 117.13"/><polygon class="cls-8" points="1058.2 110.23 1039.73 110.23 1038.71 110.58 1049.59 143.2 1069.2 143.2 1058.2 110.23"/></g><path class="cls-9" d="M1617.94,345.22s-16.48-100.06-230.77-100.06c-190.48,0-658.58,28.71-760.25,35.1a28.84,28.84,0,0,0-25.67,20h0a28.84,28.84,0,0,1-27.48,20.09h-3.93a28.84,28.84,0,0,0-25.41,15.2L478.19,459l601,.85,38,21.13L1254,503.84h423.5l31.1-24.09L1578.85,346.59Z"/><path class="cls-10" d="M393.27,433.67a8.45,8.45,0,0,1-8.45-8.45V311.93a8.45,8.45,0,0,1,16.91,0V425.21A8.45,8.45,0,0,1,393.27,433.67Z"/><path class="cls-10" d="M565.71,433.67a8.45,8.45,0,0,1-8.45-8.45V311.93a8.45,8.45,0,0,1,16.91,0V425.21A8.45,8.45,0,0,1,565.71,433.67Z"/><path class="cls-10" d="M738.16,433.67a8.45,8.45,0,0,1-8.45-8.45V311.93a8.45,8.45,0,1,1,16.91,0V425.21A8.45,8.45,0,0,1,738.16,433.67Z"/><path class="cls-10" d="M910.6,433.67a8.45,8.45,0,0,1-8.45-8.45V311.93a8.45,8.45,0,1,1,16.91,0V425.21A8.45,8.45,0,0,1,910.6,433.67Z"/><path class="cls-10" d="M1038.71,444a8.45,8.45,0,0,1-8.45-8.45V320.39H273.62V435.55a8.45,8.45,0,0,1-16.91,0V311.93a8.45,8.45,0,0,1,8.45-8.45h773.54a8.45,8.45,0,0,1,8.45,8.45V435.55A8.45,8.45,0,0,1,1038.71,444Z"/><path class="cls-10" d="M1038.71,383H265.16a8.45,8.45,0,0,1,0-16.91h773.54a8.45,8.45,0,1,1,0,16.91Z"/><polygon class="cls-6" points="562.36 435.55 397.35 727.03 1002.31 714.35 1071.07 445.58 562.36 435.55"/><polygon class="cls-11" points="513.7 524.13 939.76 524.13 884.34 645 513.7 645 513.7 524.13"/><polygon class="cls-12" points="567.77 524.13 513.7 524.13 513.7 645 670.55 645 567.77 524.13"/><polygon class="cls-12" points="623.95 524.5 604.99 524.5 707.76 645.38 726.73 645.38 623.95 524.5"/><polygon class="cls-5" points="537.34 471.5 1093.41 584.35 1055.01 447.4 537.34 471.5"/><polygon class="cls-9" points="497.33 455.64 372.22 743.07 485.49 743.07 607.23 455.64 497.33 455.64"/><polygon class="cls-5" points="592.53 490.34 607.23 455.64 497.33 455.64 482.23 490.34 592.53 490.34"/><polygon class="cls-11" points="1561.52 346.59 1195.02 346.59 1137.96 503.84 1694.68 479.74 1561.52 346.59"/><g class="cls-13"><polygon class="cls-2" points="1250.07 498.99 1421.3 491.57 1544.58 346.59 1379.64 346.59 1250.07 498.99"/><polygon class="cls-2" points="1608.08 393.14 1580.41 365.47 1475.17 489.24 1528.32 486.94 1608.08 393.14"/><polygon class="cls-2" points="1648 433.07 1620.33 405.4 1551.87 485.92 1605.02 483.62 1648 433.07"/></g><rect class="cls-9" x="1468.36" y="348.63" width="15.16" height="152.16" transform="translate(-57.46 338.27) rotate(-12.83)"/><rect class="cls-9" x="1304.11" y="348.63" width="15.16" height="152.16" transform="translate(-29.64 105.72) rotate(-4.56)"/><path class="cls-2" d="M1925.44,555.4,1864.9,492a39.61,39.61,0,0,0-28.64-12.25H1167.77a55.27,55.27,0,0,1-51.08-34.16h0a55.27,55.27,0,0,0-51.08-34.16H227.4A36.64,36.64,0,0,0,191.7,439.9a36.63,36.63,0,0,0-35.3,36.6v.06h866.16a11.13,11.13,0,0,1,10.23,15.51L977.87,620.33Z"/><path class="cls-5" d="M1864.9,492a39.61,39.61,0,0,0-28.64-12.25H1306l428.36,14.68a16,16,0,0,1,15.43,16h0a16,16,0,0,1-14,15.85L977.87,620.33l947.58-64.93Z"/><path class="cls-10" d="M1839,612a8.46,8.46,0,0,1-8.29-10.14l31.42-154.26a8.45,8.45,0,0,1,7.7-6.75l671.81-46.15a8.45,8.45,0,0,1,8.83,10.27l-34.34,154.27a8.45,8.45,0,0,1-16.5-3.67l31.88-143.22-654.1,44.93-30.13,148A8.46,8.46,0,0,1,1839,612Z"/><path class="cls-10" d="M1995.23,638a8.46,8.46,0,0,1-8.34-9.92l33.56-191.17a8.45,8.45,0,1,1,16.65,2.92L2003.54,631A8.46,8.46,0,0,1,1995.23,638Z"/><path class="cls-10" d="M2179.89,612.92a8.46,8.46,0,0,1-8.34-9.92l31.35-178.59a8.45,8.45,0,1,1,16.65,2.92l-31.35,178.59A8.46,8.46,0,0,1,2179.89,612.92Z"/><path class="cls-10" d="M2364.56,587.8a8.46,8.46,0,0,1-8.34-9.92l29.15-166A8.45,8.45,0,1,1,2402,414.8l-29.15,166A8.46,8.46,0,0,1,2364.56,587.8Z"/><path class="cls-10" d="M1859.82,521.16a8.45,8.45,0,0,1-.57-16.89L2528,458.33a8.45,8.45,0,0,1,1.16,16.87L1860.4,521.13Z"/><path class="cls-6" d="M13.55,956.1H363.22a0,0,0,0,1,0,0V983.2a0,0,0,0,1,0,0H13.55A13.55,13.55,0,0,1,0,969.65v0A13.55,13.55,0,0,1,13.55,956.1Z"/><path class="cls-9" d="M75.24,968.17V833.87a64.82,64.82,0,0,1,9.34-33.52l64.21-106.28H854.51A102.21,102.21,0,0,0,923.83,667L934,657.59a102.21,102.21,0,0,1,62.32-26.86l1551.85-106.6-197.84,400a127.59,127.59,0,0,1-94.37,69.44l-549.07,87.09a1142.44,1142.44,0,0,1-179,14.11H184.67a87.83,87.83,0,0,1-78.86-49.17L81.85,996.7A64.83,64.83,0,0,1,75.24,968.17Z"/><path class="cls-5" d="M1382.58,604.19,1141.7,641.07l705.4,29.22c27.57,1.14,30.63,40.79,3.56,46.14L1295,826.31l763.85,11.75c22.48.35,31.48,29.19,13.19,42.26l-256.08,183,440-69.79a127.59,127.59,0,0,0,94.37-69.44l197.84-400Z"/><path class="cls-5" d="M1000.83,630.78a122.9,122.9,0,0,0-54.89,17.35q-1.54,1-3,2.14l-.22.16q-1.39,1-2.74,2.08l-.91.74c-.69.55-1.37,1.11-2,1.68-1,.87-2,1.75-3,2.65l-7.66,7.07L923.83,667l0,0q-.93.86-1.87,1.68l-.58.5L920,670.32l-.66.54L918,671.94l-.66.52L916,673.52l-.63.47-1.47,1.07-.57.4-1.61,1.11-.47.32-1.8,1.17-.31.2q-1.06.67-2.14,1.32h0a81.66,81.66,0,0,1-46.51,14.48H154.71a20.25,20.25,0,0,0-6.58,1.1l-23.85,39.48H860.43a122.16,122.16,0,0,0,83.09-32.49l10.15-9.37a82.2,82.2,0,0,1,50-21.53L2527.14,566.61l14.42-29.15,6.41-13Z"/><path class="cls-2" d="M854.51,714.35H148.79a20.29,20.29,0,1,1,0-40.58H854.51A81.69,81.69,0,0,0,910.07,652l10.15-9.37a122.92,122.92,0,0,1,74.69-32.2l1551.85-106.6a20.29,20.29,0,1,1,2.78,40.48L997.69,651a82.2,82.2,0,0,0-50,21.53l-10.15,9.37A122.16,122.16,0,0,1,854.51,714.35Z"/><polygon class="cls-11" points="997.89 880.24 923.98 880.24 937.42 839.15 1011.33 839.15 997.89 880.24"/><polygon class="cls-11" points="1085.25 880.24 1011.33 880.24 1024.77 839.15 1098.68 839.15 1085.25 880.24"/><path class="cls-14" d="M2327.77,956.1H75.24v12.07a64.83,64.83,0,0,0,6.62,28.53l23.95,48.86a87.83,87.83,0,0,0,78.86,49.17H1527.9a1142.45,1142.45,0,0,0,179-14.11l549.07-87.09A127.57,127.57,0,0,0,2327.77,956.1Z"/><path class="cls-2" d="M1294,826.34H156.39a16.91,16.91,0,0,1,0-33.81h1137L2363,726.19a16.91,16.91,0,1,1,2.09,33.75L1295,826.31Q1294.49,826.34,1294,826.34Z"/><polygon class="cls-5" points="1579.36 347.11 1080.16 357.04 1071.07 382.16 1613.52 382.16 1579.36 347.11"/><rect class="cls-2" x="1071.07" y="336.13" width="546.87" height="20.91" rx="9.09" ry="9.09"/><rect class="cls-2" x="514.54" y="100.59" width="779.42" height="32.97" rx="11.2" ry="11.2"/><polygon class="cls-12" points="1085.25 880.24 1098.68 839.15 1070.56 839.15 1035.62 880.24 1085.25 880.24"/><polygon class="cls-12" points="997.89 880.24 1011.33 839.15 983.21 839.15 948.27 880.24 997.89 880.24"/><rect class="cls-6" x="672.25" y="507.96" width="17.87" height="165.87" transform="translate(305.42 -228.84) rotate(24.43)"/></g></g></svg>