<svg xmlns="http://www.w3.org/2000/svg" viewBox="0 0 1955.12 2618.73"><defs><style>.cls-1{isolation:isolate;}.cls-2{fill:#93a0a8;}.cls-3{fill:#fcfcfc;}.cls-4{fill:#0f2535;opacity:0.15;mix-blend-mode:multiply;}.cls-5{fill:#f1f1f1;}.cls-6{fill:#185481;}.cls-7{fill:#dbe7ec;}.cls-8{fill:#2e3132;}.cls-11,.cls-9{fill:#fff;}.cls-10,.cls-9{opacity:0.5;}.cls-12{fill:#a6b1b9;}</style></defs><title>boat-a</title><g class="cls-1"><g id="Layer_1" data-name="Layer 1"><rect class="cls-2" x="231.48" y="1807.81" width="211.69" height="6.49" transform="translate(-933.52 477.39) rotate(-33.07)"/><rect class="cls-2" x="776.1" y="1622.72" width="6.49" height="204.52" transform="translate(-990.63 1054.06) rotate(-44.93)"/><rect class="cls-2" x="62.32" y="1788.3" width="102.92" height="6.49" transform="translate(-1643.77 1426.05) rotate(-74.62)"/><polygon class="cls-3" points="122.55 1747.29 525.01 1696.59 851.56 43.38 122.55 1747.29"/><polygon class="cls-4" points="324.87 1721.81 525.01 1696.59 851.56 43.38 324.87 1721.81"/><polygon class="cls-3" points="345.86 1805.78 756.7 1706.36 851.56 43.38 345.86 1805.78"/><polygon class="cls-3" points="1565.17 1565.93 851.56 43.38 851.56 1565.93 1565.17 1565.93"/><polygon class="cls-4" points="1024.21 1565.93 851.56 43.38 851.56 1565.93 1024.21 1565.93"/><path class="cls-5" d="M1606.11,1582H851.56a16.08,16.08,0,1,1,0-32.17h754.55a16.08,16.08,0,1,1,0,32.17Z" transform="translate(0)"/><path class="cls-5" d="M851.56,1828.44a16.08,16.08,0,0,1-16.08-16.08V16.08a16.08,16.08,0,1,1,32.17,0V1812.36A16.08,16.08,0,0,1,851.56,1828.44Z" transform="translate(0)"/><polygon class="cls-4" points="562.7 1753.3 851.56 43.38 756.7 1706.36 562.7 1753.3"/><path class="cls-6" d="M873.13,2026.07l92.74,542.17a60.73,60.73,0,0,0,59.86,50.49h120.33l13.65-575.12Z" transform="translate(0)"/><path class="cls-4" d="M1158.77,2083.06c-62.57,18.15-162.83,50.23-162.83,50.23l77.76,18.52a60.3,60.3,0,0,1,46.31,57l11.14,409.9h14.9Z" transform="translate(0)"/><path class="cls-7" d="M1583.73,1812.36H1271.86v-55.24h249.85a27.59,27.59,0,0,1,20.5,9.13Z" transform="translate(0)"/><path class="cls-4" d="M1522.76,1812.36h61l-41.52-46.12a27.59,27.59,0,0,0-20.5-9.13H1271.86l210.29,17.26a31,31,0,0,1,22.73,12.91Z" transform="translate(0)"/><path class="cls-3" d="M417.5,1877.42l62.27-79.5a21.46,21.46,0,0,1,16.9-8.23H873.13L927,1751.9a25.44,25.44,0,0,1,14.6-4.61h309.6a25.44,25.44,0,0,1,17.17,6.67l43.88,40.12h330.29a20.67,20.67,0,0,1,17.83,10.21l20.33,34.62Z" transform="translate(0)"/><path class="cls-6" d="M1637.35,1809.17H1309.93a13.88,13.88,0,0,1-9.39-3.64l-44.6-40.78a9,9,0,0,0-6.1-2.37H942.11a9,9,0,0,0-5.19,1.64l-54.56,38.24a13.84,13.84,0,0,1-8,2.52H505.64v-4.87H874.38a9,9,0,0,0,5.19-1.64L934.13,1760a13.84,13.84,0,0,1,8-2.52h307.73a13.88,13.88,0,0,1,9.39,3.64l44.6,40.78a9,9,0,0,0,6.1,2.37h327.42Z" transform="translate(0)"/><path class="cls-4" d="M1607.48,1841.14l73.27-2.23-20.33-34.62a20.67,20.67,0,0,0-17.83-10.21H1312.3l281.25,18.28Z" transform="translate(0)"/><rect class="cls-8" x="525.01" y="1812.36" width="75.38" height="40.29" rx="7.47" ry="7.47"/><rect class="cls-8" x="628.13" y="1812.36" width="75.38" height="40.29" rx="7.47" ry="7.47"/><rect class="cls-8" x="731.26" y="1812.36" width="75.38" height="40.29" rx="7.47" ry="7.47"/><path class="cls-9" d="M592.92,1852.65a7.47,7.47,0,0,0,7.47-7.47v-25.34a7.47,7.47,0,0,0-7.47-7.47H569.13l-34.26,40.29Z" transform="translate(0)"/><path class="cls-9" d="M696,1852.65a7.47,7.47,0,0,0,7.47-7.47v-25.34a7.47,7.47,0,0,0-7.47-7.47H672.26L638,1852.65Z" transform="translate(0)"/><path class="cls-9" d="M799.17,1852.65a7.47,7.47,0,0,0,7.47-7.47v-25.34a7.47,7.47,0,0,0-7.47-7.47H775.38l-34.26,40.29Z" transform="translate(0)"/><rect class="cls-8" x="1320.42" y="1817.46" width="60.44" height="32.3" rx="5.99" ry="5.99"/><path class="cls-9" d="M1374.86,1849.77a6,6,0,0,0,6-6v-20.32a6,6,0,0,0-6-6h-7.1l-27.46,32.3Z" transform="translate(0)"/><rect class="cls-8" x="1436.9" y="1817.46" width="60.44" height="32.3" rx="5.99" ry="5.99"/><path class="cls-9" d="M1491.35,1849.77a6,6,0,0,0,6-6v-20.32a6,6,0,0,0-6-6h-7.1l-27.46,32.3Z" transform="translate(0)"/><rect class="cls-8" x="1553.39" y="1817.46" width="60.44" height="32.3" rx="5.99" ry="5.99"/><path class="cls-9" d="M1607.83,1849.77a6,6,0,0,0,6-6v-20.32a6,6,0,0,0-6-6h-7.1l-27.46,32.3Z" transform="translate(0)"/><polygon class="cls-8" points="863.48 1852.65 953.71 1790.82 1216.24 1790.82 1263.04 1852.65 863.48 1852.65"/><g class="cls-10"><polygon class="cls-11" points="1209.76 1790.82 1171.33 1790.82 1118.76 1852.65 1157.2 1852.65 1209.76 1790.82"/><polygon class="cls-11" points="955.99 1852.65 1079.81 1852.65 1132.38 1790.82 1008.55 1790.82 955.99 1852.65"/><polygon class="cls-11" points="1239.31 1821.3 1221.21 1797.38 1174.22 1852.65 1212.65 1852.65 1239.31 1821.3"/></g><path class="cls-12" d="M309.61,1843.52H103a4.61,4.61,0,0,1-3.36-1.46L1.25,1737.29a4.61,4.61,0,0,1,3.62-7.76l231.89,13.16a4.61,4.61,0,0,1,3.34,1.73L313.22,1836a4.61,4.61,0,0,1-3.61,7.49ZM105,1834.3H300l-65.85-82.52L15.87,1739.39Z" transform="translate(0)"/><path class="cls-12" d="M162.42,1843.52A4.6,4.6,0,0,1,159,1842l-89.54-100.9a4.61,4.61,0,0,1,6.9-6.12l89.54,100.9a4.61,4.61,0,0,1-3.45,7.67Z" transform="translate(0)"/><path class="cls-12" d="M254.1,1845.77a4.6,4.6,0,0,1-3.43-1.52l-87-96.34a4.61,4.61,0,1,1,6.85-6.18l87,96.34a4.61,4.61,0,0,1-3.42,7.7Z" transform="translate(0)"/><path class="cls-12" d="M275.72,1801h-.12L57.7,1795.43a4.61,4.61,0,0,1,.24-9.22l217.89,5.61a4.61,4.61,0,0,1-.12,9.22Z" transform="translate(0)"/><path class="cls-12" d="M1820.4,1867.68a4.61,4.61,0,0,1-3.33-1.42l-21.83-22.74H1588.61a4.61,4.61,0,0,1-3.48-7.64l74.08-85.13a4.61,4.61,0,0,1,3.44-1.58c.52,0,52.89-.48,104.68-.73,30.43-.14,54.7-.18,72.16-.1,10.38,0,18.45.13,24,.25,3,.07,5.31.14,6.92.24,2.6.15,5.29.3,6.48,3.13a4.68,4.68,0,0,1-1,5.08l-52.26,52.26,1.42,53.65a4.61,4.61,0,0,1-4.61,4.73Zm-221.67-33.38h198.47a4.61,4.61,0,0,1,3.33,1.42l14.94,15.56-1.15-43.72a4.61,4.61,0,0,1,1.35-3.38l46.4-46.4c-30.85-.59-128.63,0-197.27.6Z" transform="translate(0)"/><path class="cls-12" d="M1818.93,1812H1616a4.61,4.61,0,0,1,0-9.22h202.94a4.61,4.61,0,0,1,0,9.22Z" transform="translate(0)"/><path class="cls-12" d="M1741.65,1843.52a4.61,4.61,0,0,1-3.55-7.55l71.16-86a4.61,4.61,0,0,1,7.11,5.88l-71.16,86A4.6,4.6,0,0,1,1741.65,1843.52Z" transform="translate(0)"/><path class="cls-12" d="M1680.74,1843.52a4.61,4.61,0,0,1-3.9-7.07l54.08-85.68a4.61,4.61,0,0,1,7.8,4.92l-54.08,85.68A4.61,4.61,0,0,1,1680.74,1843.52Z" transform="translate(0)"/><path class="cls-3" d="M257.07,2028,93.31,1838.91h1703.9l140.37,146.22,17.55,79.93-78,68.23H565.89A505.6,505.6,0,0,1,257.07,2028Z" transform="translate(0)"/><path class="cls-6" d="M1797.21,1845.25H93.31a6.34,6.34,0,1,1,0-12.67h1703.9a6.34,6.34,0,0,1,0,12.67Z" transform="translate(0)"/><path class="cls-6" d="M257.07,2028h0a505.6,505.6,0,0,0,308.82,105.28H1877.14l78-68.23-17.55-79.93-1732.72-17.4Z" transform="translate(0)"/><polygon class="cls-3" points="1939.29 1992.92 226.68 1992.92 236.81 2004.62 1941.86 2004.62 1939.29 1992.92"/><rect class="cls-11" x="242.12" y="1868.8" width="1548.59" height="18.99" rx="9.5" ry="9.5"/><path class="cls-4" d="M1877.14,2133.29l78-68.23-17.55-79.93-93.44-97.33H436.27l1090.51,22.69a27.18,27.18,0,0,1,26.61,27.17h0a27.18,27.18,0,0,1-25,27.09l-177.78,14.49,195.1,20.33a47.83,47.83,0,0,1,42.87,47.57v15.13a47.83,47.83,0,0,1-33,45.48l-78.52,25.55Z" transform="translate(0)"/><path class="cls-4" d="M867.64,1565.93V16.08A16.08,16.08,0,0,0,851.56,0V1828.44a16.08,16.08,0,0,0,16.08-16.08V1582h738.2a16.22,16.22,0,0,0,16.35-16.08Z" transform="translate(0)"/></g></g></svg>