<svg xmlns="http://www.w3.org/2000/svg" viewBox="0 0 1713.39 2870.49"><defs><style>.cls-1{isolation:isolate;}.cls-2{fill:#5b9bb4;}.cls-3{fill:#fcfcfc;}.cls-4{fill:#0f2847;}.cls-4,.cls-6{opacity:0.15;mix-blend-mode:multiply;}.cls-5{fill:#f1f1f1;}.cls-6{fill:#0f2535;}.cls-7{fill:#121732;}.cls-8{fill:#d8e0e2;}.cls-9{fill:#44310f;}.cls-10{opacity:0.5;}.cls-11{fill:#fff;}.cls-12{fill:#d3d3d3;}.cls-13{fill:#7bb4d0;}</style></defs><title>boat-g</title><g class="cls-1"><g id="Layer_1" data-name="Layer 1"><path class="cls-2" d="M1018.26,2588.27l-55.62,223.62a77.25,77.25,0,0,1-75,58.6H685.16c-19.6,0-25.78-26.45-8.21-35.14l12.84-6.35A88.32,88.32,0,0,0,739,2749.83v-40.6A148.28,148.28,0,0,0,722.32,2641L698,2594.11Z" transform="translate(0 0)"/><path class="cls-2" d="M117.37,2480.65,96,2645.55a315.92,315.92,0,0,0-.53,76.78l5.13,44.49a35.18,35.18,0,0,0,35,31.15H136a35.18,35.18,0,0,0,34.33-27.49L227,2517.2Z" transform="translate(0 0)"/><polygon class="cls-3" points="245.29 2125.29 860.47 17.8 913.43 17.84 971.06 2103.9 245.29 2125.29"/><path class="cls-4" d="M245.29,2125.29l458.12-65.23c100.27-14.28,175.34-99.25,160.09-183.45L896.37,34.9l74.69,2069Z" transform="translate(0 0)"/><path class="cls-3" d="M919,217.7,1591.12,2174s-305.6,35.7-617.14,35.46Z" transform="translate(0 0)"/><path class="cls-4" d="M1591.12,2174,919,217.7,1419.45,2024A95.63,95.63,0,0,1,1344,2143.68l-370,65.75C1285.52,2209.67,1591.12,2174,1591.12,2174Z" transform="translate(0 0)"/><path class="cls-5" d="M931.15,17.35l-.06-2.09q0-.73-.11-1.47A15.72,15.72,0,0,0,913.45.12l-66,8.16a9.59,9.59,0,0,0,0,19l48.71,6.09,61.91,2241a17.72,17.72,0,1,0,35.43-1Z" transform="translate(0 0)"/><path class="cls-5" d="M219.82,2143a17.72,17.72,0,0,1-.49-35.44l751.23-21.37a17.72,17.72,0,0,1,1,35.43L220.34,2143Z" transform="translate(0 0)"/><path class="cls-6" d="M219.82,2143h.51l733.5-20.86h0a18.49,18.49,0,0,0-19-17.88l-723.87,21.27a6.63,6.63,0,0,0-5.12,10.62A17.7,17.7,0,0,0,219.82,2143Z" transform="translate(0 0)"/><path class="cls-6" d="M993.48,2273.46,931.15,17.35l-.06-2.09q0-.73-.11-1.47A15.67,15.67,0,0,0,925,3.33c-4.68-3.65-11.51,0-11.35,6l62.55,2282.38A17.72,17.72,0,0,0,993.48,2273.46Z" transform="translate(0 0)"/><path class="cls-6" d="M839,17.84a9.58,9.58,0,0,0,8.39,9.47l48.71,6.09v-8a7.53,7.53,0,0,0-7.53-7.53Z" transform="translate(0 0)"/><path class="cls-7" d="M1589.47,2293.28l52.89-10.66a52.52,52.52,0,0,1,10.38-1h25.4a14.82,14.82,0,0,1,13.44,8.59l9.63,20.76-23.22,9.31-4.57-2.64a141.31,141.31,0,0,0-43.17-16.23Z" transform="translate(0 0)"/><polygon class="cls-7" points="1638.19 2342.08 1713.39 2292.88 1713.39 2321.31 1681.62 2339.66 1638.19 2342.08"/><path class="cls-8" d="M181.71,2329.67l53.24-48.94a45.83,45.83,0,0,1,30.18-12.08l180.7-3.31h0a17.5,17.5,0,0,1,18.12-17.49l801.8,28.51a45,45,0,0,1,27.57,10.71l30.34,25.84L581,2362.55Z" transform="translate(0 0)"/><rect class="cls-9" x="431.6" y="2296.87" width="95.69" height="36.55"/><polygon class="cls-9" points="1094.75 2288.66 590.9 2288.66 590.9 2337.6 1163.94 2337.6 1094.75 2288.66"/><g class="cls-10"><polygon class="cls-11" points="852.49 2337.6 921.37 2337.6 962.97 2288.66 894.09 2288.66 852.49 2337.6"/><polygon class="cls-11" points="527.29 2333.41 527.29 2296.87 496.01 2296.87 464.94 2333.41 527.29 2333.41"/><polygon class="cls-11" points="590.9 2288.66 590.9 2337.6 683.29 2337.6 724.89 2288.66 590.9 2288.66"/><polygon class="cls-11" points="863.58 2288.66 794.7 2288.66 753.1 2337.6 821.98 2337.6 863.58 2288.66"/></g><path class="cls-12" d="M61.93,2335.41a3.67,3.67,0,0,1-3.65-3.32l-7.53-78.67a3.67,3.67,0,0,1,3.54-4l1603.63-46.87a3.65,3.65,0,0,1,2.93,1.32l23.82,28.7a14.19,14.19,0,0,1-9.84,23.22l-32,2.46-13.22,31.85a3.67,3.67,0,1,1-6.77-2.81l14.08-33.93a3.67,3.67,0,0,1,3.11-2.25l34.28-2.63a6.86,6.86,0,0,0,4.75-11.22l-22.68-27.32L58.43,2256.62l7.16,74.77a3.67,3.67,0,0,1-3.3,4Z" transform="translate(0 0)"/><path class="cls-12" d="M59.37,2308.65a3.67,3.67,0,0,1-.11-7.33l1580.9-50.25a3.67,3.67,0,1,1,.23,7.33L59.49,2308.65Z" transform="translate(0 0)"/><path class="cls-12" d="M105.44,2335.41a3.67,3.67,0,0,1-3.67-3.67v-80.17a3.67,3.67,0,1,1,7.33,0v80.17A3.67,3.67,0,0,1,105.44,2335.41Z" transform="translate(0 0)"/><path class="cls-12" d="M159,2334a3.67,3.67,0,0,1-3.67-3.67V2250a3.67,3.67,0,0,1,7.33,0v80.31A3.67,3.67,0,0,1,159,2334Z" transform="translate(0 0)"/><path class="cls-12" d="M406.77,2326.95a3.67,3.67,0,0,1-3.67-3.67v-80.52a3.67,3.67,0,1,1,7.33,0v80.52A3.67,3.67,0,0,1,406.77,2326.95Z" transform="translate(0 0)"/><path class="cls-12" d="M536.9,2323.26a3.67,3.67,0,0,1-3.66-3.57l-2.09-80.56a3.67,3.67,0,0,1,7.33-.19l2.09,80.57a3.67,3.67,0,0,1-3.57,3.76Z" transform="translate(0 0)"/><path class="cls-12" d="M734.86,2317.64a3.67,3.67,0,0,1-3.66-3.54l-2.8-80.71a3.67,3.67,0,1,1,7.33-.25l2.8,80.71a3.67,3.67,0,0,1-3.54,3.79Z" transform="translate(0 0)"/><path class="cls-12" d="M1008.81,2309.86a3.67,3.67,0,0,1-3.67-3.67v-81a3.67,3.67,0,0,1,7.33,0v81A3.67,3.67,0,0,1,1008.81,2309.86Z" transform="translate(0 0)"/><path class="cls-12" d="M1271.63,2302.4a3.67,3.67,0,0,1-3.67-3.67v-81.25a3.67,3.67,0,1,1,7.33,0v81.25A3.67,3.67,0,0,1,1271.63,2302.4Z" transform="translate(0 0)"/><path class="cls-12" d="M1519.92,2295.35a3.67,3.67,0,0,1-3.6-4.37c0-.2,3.91-20,8.1-39.93,8.68-41.32,10.15-42.78,11.32-44a3.67,3.67,0,0,1,5.52,4.8c-2.2,4.52-10.75,44.66-17.74,80.49A3.67,3.67,0,0,1,1519.92,2295.35Z" transform="translate(0 0)"/><path class="cls-8" d="M108.81,2331.74H46.17a11.27,11.27,0,0,0-10.93,8.52L0,2480.72l108.81-59.15Z" transform="translate(0 0)"/><path class="cls-3" d="M0,2480.72l108.81-149,1517.38-43.07a13.69,13.69,0,0,1,14,15.37l-19.78,159.63a75.73,75.73,0,0,1-53.32,63.21c-99.44,30-353.51,92.27-746,92.27C304.42,2619.15,0,2480.72,0,2480.72Z" transform="translate(0 0)"/><path class="cls-4" d="M1626.19,2288.67l-80.57,2.29-13.37,73.59a64.76,64.76,0,0,1-56.68,52.8l-579.79,63.37H91.53L0,2480.67l0,.05s304.42,138.43,821.06,138.43c392.5,0,646.57-62.32,746-92.27a75.73,75.73,0,0,0,53.32-63.21L1640.17,2304A13.69,13.69,0,0,0,1626.19,2288.67Z" transform="translate(0 0)"/><rect class="cls-13" x="54.4" y="2472.09" width="1536.72" height="17.11"/><rect class="cls-9" x="152.47" y="2353.84" width="73.52" height="17.42" rx="6.64" ry="6.64"/><rect class="cls-9" x="544.82" y="2345.13" width="73.52" height="17.42" rx="6.64" ry="6.64"/><rect class="cls-9" x="937.17" y="2336.42" width="73.52" height="17.42" rx="6.64" ry="6.64"/><rect class="cls-9" x="1329.52" y="2327.7" width="73.52" height="17.42" rx="6.64" ry="6.64"/><path class="cls-13" d="M81,2511c122.55,40.74,379.68,108.12,740.11,108.12,392.5,0,646.57-62.32,746-92.27a75.63,75.63,0,0,0,28.4-15.85Z" transform="translate(0 0)"/></g></g></svg>