<svg xmlns="http://www.w3.org/2000/svg" viewBox="0 0 2128.51 2811.27"><defs><style>.cls-1{isolation:isolate;}.cls-2{fill:#93a0a8;}.cls-3{fill:#fcfcfc;}.cls-4{fill:#a05511;}.cls-5{fill:#7c4314;}.cls-6{fill:#c0c6c9;}.cls-7,.cls-9{fill:#0f2535;mix-blend-mode:multiply;}.cls-7{opacity:0.25;}.cls-8{fill:#16232d;}.cls-9{opacity:0.15;}.cls-10{fill:#282b2d;}.cls-11,.cls-17{opacity:0.5;}.cls-12,.cls-17{fill:#fff;}.cls-13{fill:#102332;}.cls-14{fill:none;}.cls-15{fill:#0f2d47;}.cls-16{fill:#c8d2d8;}</style></defs><title>boat-b</title><g class="cls-1"><g id="Layer_1" data-name="Layer 1"><rect class="cls-2" x="1175.5" y="1958.1" width="253.07" height="7.94" transform="translate(-737.75 785.52) rotate(-26.46)"/><rect class="cls-2" x="1853.01" y="1860.99" width="7.94" height="403.88" transform="translate(-655.75 3242.03) rotate(-73.15)"/><path class="cls-3" d="M1191,11.8l590.65,2029.13s-305.35,43.1-449.14-95.27C1273.55,1487.45,1191,11.8,1191,11.8Z"/><path class="cls-4" d="M904.48,1915.59l-5.43-24.87a3,3,0,0,1,2.89-3.59h82.4l-24,29.85Z"/><path class="cls-5" d="M904.14,1914l1.19,1.58,54.72,1.35.42-.19,23.88-29.65H958.14l-6.72,10.52a11.16,11.16,0,0,1-8.56,5.12l-40.51,3.1Z"/><rect class="cls-6" x="877.13" y="1908.77" width="9.95" height="31.78"/><rect class="cls-7" x="877.13" y="1908.77" width="9.95" height="9.53"/><path class="cls-6" d="M872.77,1910.23h-12a8,8,0,0,1-7.8-6.15l-5.14-21.44a2.9,2.9,0,0,1,5.64-1.35l5.14,21.44a2.21,2.21,0,0,0,2.15,1.7h12a2.9,2.9,0,1,1,0,5.8Z"/><rect class="cls-8" x="865.45" y="1900.64" width="33.3" height="13.39" rx="5.77" ry="5.77"/><path class="cls-8" d="M852.36,1896.2a7.14,7.14,0,0,1-6.94-5.48l-3.4-14.18a7.14,7.14,0,0,1,13.89-3.33l3.4,14.18a7.15,7.15,0,0,1-7,8.81Z"/><path class="cls-3" d="M552.21,1807.29S680,513.46,1132.41,11.8H1191V1807.29Z"/><path class="cls-9" d="M1191,11.8h-24.58s-355.82,1469-205.51,1795.49H1191Z"/><path class="cls-10" d="M1188.74,1826.85,538,1816.93a9.64,9.64,0,0,1,0-19.28l650.71-9.92a19.57,19.57,0,1,1,.6,39.13Z"/><path class="cls-10" d="M1171.45,2167l7.77-2155.2L1191,23.6l-79.65-2.08a9.72,9.72,0,0,1,0-19.43L1191,0a11.49,11.49,0,0,1,11.79,11.19v.61l7.77,2155.2a19.56,19.56,0,1,1-39.13.14Z"/><polygon class="cls-10" points="1259.81 2024.88 1191.01 1972.45 629.53 1972.45 835.41 2090.41 1101.68 2090.41 1259.81 2024.88"/><g class="cls-11"><polygon class="cls-12" points="1160.69 1972.45 1127.42 1972.45 1027.13 2090.41 1060.4 2090.41 1160.69 1972.45"/><polygon class="cls-12" points="1191.01 1972.45 1175.43 1972.45 1075.14 2090.41 1101.68 2090.41 1112.07 2086.1 1201.74 1980.63 1191.01 1972.45"/><polygon class="cls-12" points="1093.7 1972.45 986.51 1972.45 886.22 2090.41 993.41 2090.41 1093.7 1972.45"/></g><path class="cls-13" d="M0,2336.56l57,48.19a172.87,172.87,0,0,0,111.59,40.84H1543.85a1532.1,1532.1,0,0,0,356-41.94L2097,2336.56Z"/><path class="cls-3" d="M615.85,2164.94l19.08-24.6a68.53,68.53,0,0,1,43.69-25.73l680.8-105.11a27.36,27.36,0,0,1,16.3,2.51l211.8,104.69-612.59,96.5Z"/><path class="cls-9" d="M770.37,2185.71c193.57-19.94,517.89-54.15,517.89-54.15l-457.17,3.72c-14.44.12-17.07-20.52-3.06-24,87.33-21.86,202.12-50.51,211.5-52.36l-360.89,55.72a68.53,68.53,0,0,0-43.69,25.73l-19.08,24.6Z"/><path class="cls-3" d="M1191,1972.45H561.56a3.72,3.72,0,0,1-3.34-5.35l4.17-8.54a16.62,16.62,0,0,1,14.94-9.33H1158a27.55,27.55,0,0,1,20.58,9.23Z"/><path class="cls-14" d="M1505.1,2076s567.44,10.37,555.52,17.25S1529.88,2167,1529.88,2167Z"/><path class="cls-15" d="M0,2336.56l91.62-57.66a684.58,684.58,0,0,1,330.71-104.36l1706.19-84.69L2097,2336.56Z"/><path class="cls-16" d="M604.38,1949.24l19.86-20.6a17.93,17.93,0,0,1,12.91-5.49H877.57a111.83,111.83,0,0,0,27.12-3.34l47.5-11.88a15.49,15.49,0,0,0,11.73-15h0a9.46,9.46,0,0,1,9.46-9.46h0a62.79,62.79,0,0,1,23.32,4.49l153.23,61.29Z"/><path class="cls-9" d="M996.7,1887.94q-1.44-.58-2.91-1.08l27.8,26.83c10.11,9.76,3.21,26.86-10.85,26.86h-398l-8.37,8.68h545.54Z"/><path class="cls-10" d="M1388.69,2018.43l-250.78,52a81.33,81.33,0,0,0-44.48,25.84h0a8.24,8.24,0,0,0,6.48,13.69L1541,2093.71Z"/><path class="cls-13" d="M835.41,2381.08l39.29,354.77a20.9,20.9,0,0,1-20.77,23.2h0a26.11,26.11,0,0,0-26.11,26.11h0a26.11,26.11,0,0,0,26.11,26.11h157.78a45.77,45.77,0,0,0,44.69-35.91l87-394.28Z"/><path class="cls-3" d="M386.15,2255.55l16.48-.89c10.75-.53,26.51-1.42,46.57-2.34s44.43-2.16,72.38-3.33l44.52-1.94,49.36-2,53.66-2.12,57.43-2.12c39.42-1.4,81-2.83,124-4.18l65.5-2,67.12-1.95,136.93-3.62,136.95-3.11,67.13-1.35,65.52-1.2c43-.75,84.62-1.37,124.06-1.9l57.46-.7,53.7-.51,49.4-.44,44.56-.24c28-.19,52.37-.18,72.45-.21s35.87.05,46.63.06l16.5.08-16.48.89c-10.75.54-26.51,1.42-46.57,2.35s-44.43,2.16-72.38,3.34l-44.52,1.95-49.36,2-53.66,2.12-57.43,2.12c-39.42,1.4-81,2.82-124,4.18l-65.5,2-67.12,1.94L1120.54,2246l-136.95,3.09-67.13,1.34-65.52,1.19c-43,.75-84.62,1.37-124.06,1.9l-57.46.7-53.7.51-49.4.44-44.56.24c-28,.2-52.37.19-72.45.22s-35.87,0-46.63-.05Z"/><rect class="cls-10" x="695.87" y="2209.68" width="115.75" height="73.72" rx="17.49" ry="17.49" transform="translate(-54.85 19.15) rotate(-1.4)"/><rect class="cls-10" x="1062.45" y="2200.69" width="115.75" height="73.72" rx="17.49" ry="17.49" transform="translate(-54.53 28.14) rotate(-1.4)"/><rect class="cls-10" x="1429.04" y="2191.7" width="115.75" height="73.72" rx="17.49" ry="17.49" transform="translate(-54.2 37.13) rotate(-1.4)"/><path class="cls-9" d="M1272.68,2336.56H2097l31.54-246.71-464.8,23.07h0c-17.71.88,163.3,9.31,264,13.88a49.08,49.08,0,0,1,44.39,64.41l-25.36,76.85a49.08,49.08,0,0,1-43.9,33.63Z"/><path class="cls-9" d="M561.56,1972.45H1191l-12.07-13.56-620.71,8.21A3.72,3.72,0,0,0,561.56,1972.45Z"/><path class="cls-17" d="M811.13,2225.76a17.49,17.49,0,0,0-17.92-17.06l-41.76,1-53.93,63.43a17.5,17.5,0,0,0,16.76,11.23l80.74-2a17.6,17.6,0,0,0,2-.16l15.1-17.76Z"/><path class="cls-17" d="M1178.66,2255.49l-.95-38.73a17.49,17.49,0,0,0-17.92-17.06l-39.46,1-55.46,65.23a17.49,17.49,0,0,0,16,9.48l80.74-2a17.51,17.51,0,0,0,4.75-.78l12.15-14.29A17.59,17.59,0,0,0,1178.66,2255.49Z"/><path class="cls-17" d="M1544.29,2207.78a17.49,17.49,0,0,0-17.92-17.06l-43.22,1.06-52.88,62.2a17.5,17.5,0,0,0,17.17,12.42l80.74-2,.42,0,16.6-19.53Z"/><g class="cls-11"><polygon class="cls-12" points="1335.97 2101.28 1401.17 2024.6 1388.69 2018.43 1280.06 2040.97 1225.31 2105.36 1335.97 2101.28"/><polygon class="cls-12" points="1482.14 2064.62 1458.71 2053.04 1420.35 2098.16 1454.69 2096.9 1482.14 2064.62"/><polygon class="cls-12" points="1448.34 2047.91 1424.91 2036.33 1370.78 2099.99 1405.13 2098.72 1448.34 2047.91"/></g><path class="cls-9" d="M1694.81,2047q5-.11,9.74-.27h.1c46.4-1.51,77-5.83,77-5.83l-8.93-30.67L1191,11.8l465.42,1899.59c11.32,46.21-24.59,90.37-72.15,88.91-148-4.55-251.76-54.64-251.76-54.64,95.08,91.5,260.81,103.65,362.18,101.38Z"/></g></g></svg>