<svg xmlns="http://www.w3.org/2000/svg" viewBox="0 0 1195.86 1555.03"><defs><style>.cls-1{isolation:isolate;}.cls-2{fill:#ff572f;}.cls-3{fill:#f74423;}.cls-4{fill:#fff;}.cls-5{fill:#1f2a3a;opacity:0.15;mix-blend-mode:multiply;}.cls-6{fill:#ff693b;}.cls-7{fill:#fff6f6;}.cls-8{fill:#c96114;}.cls-9{fill:#a34c14;}.cls-10{fill:#fc9526;}.cls-11{fill:#ffba45;}.cls-12{fill:#24213c;}.cls-13{fill:#2f305b;}.cls-14{fill:#29264d;}.cls-15{fill:#5c64a5;}.cls-16{fill:#f5f5f9;}</style></defs><title>boat-d</title><g class="cls-1"><g id="Layer_1" data-name="Layer 1"><path class="cls-2" d="M589.32,1318.84,552.9,1526.25A24.54,24.54,0,0,0,577.07,1555h68.4a37.26,37.26,0,0,0,36-27.47l56.85-208.72Z"/><path class="cls-3" d="M589.32,1318.84l-7.07,40.25,98.45,14.77L641.94,1555h3.53a37.26,37.26,0,0,0,36-27.47l56.85-208.72Z"/><polygon class="cls-4" points="828.45 1123.95 1195.86 1141.63 821.41 42.33 828.45 1123.95"/><polygon class="cls-5" points="1065.93 1135.38 821.41 42.33 1195.86 1141.63 1065.93 1135.38"/><path class="cls-6" d="M107.14,1044.31s-25.22-.26-51.32,33.47S0,1107.9,0,1107.9L26.18,1193s29.72,3.61,55.82-30.12,51.32-33.47,51.32-33.47Z"/><path class="cls-2" d="M82.05,1141.63c-6.42,15-24.21,46.69-55.87,51.35,0,0,29.72,3.61,55.82-30.12s51.32-33.47,51.32-33.47l-26.18-85.08s-25.22-.26-51.32,33.47S0,1107.9,0,1107.9s34.27,9.42,54.75-14.27c9.84-11.38,19.3-17.29,26.48-20.37a12.53,12.53,0,0,1,16.68,7.38l8.65,24.29a12.57,12.57,0,0,1-4.38,14.33C95.39,1124.27,86,1132.48,82.05,1141.63Z"/><polygon class="cls-4" points="270.24 983.09 821.41 42.33 828.45 983.09 270.24 983.09"/><polygon class="cls-5" points="741.42 983.09 821.41 42.33 828.45 983.09 741.42 983.09"/><path class="cls-7" d="M828.45,992.78h-575a9.69,9.69,0,1,1,0-19.39h575a9.69,9.69,0,0,1,0,19.39Z"/><path class="cls-7" d="M828.45,1160a9.69,9.69,0,0,1-9.69-9.69V9.69a9.69,9.69,0,0,1,19.39,0V1150.32A9.69,9.69,0,0,1,828.45,1160Z"/><path class="cls-5" d="M838.15,1150.32V9.69A9.69,9.69,0,0,0,828.45,0V1160A9.69,9.69,0,0,0,838.15,1150.32Z"/><path class="cls-8" d="M385.81,1177h0a17.67,17.67,0,0,1-19.68-15.4l-2.23-18.31a17.67,17.67,0,0,1,15.4-19.68h0A17.67,17.67,0,0,1,399,1139l2.23,18.31A17.67,17.67,0,0,1,385.81,1177Z"/><path class="cls-9" d="M370.58,1127.22a17.66,17.66,0,0,0-6.67,16.07l2.23,18.31a17.66,17.66,0,0,0,10.34,14Z"/><polygon class="cls-8" points="743.83 1121.28 777.7 1126.5 766.45 1144.44 748.65 1142.2 743.83 1140.56 743.83 1121.28"/><rect class="cls-10" x="732.11" y="1113.02" width="14.6" height="29.19" rx="2.48" ry="2.48"/><rect class="cls-11" x="734.18" y="1078.01" width="10.47" height="99.2" rx="2.05" ry="2.05"/><path class="cls-10" d="M739.41,1076.74h0a3.41,3.41,0,0,1-3.41-3.41V1045a3.41,3.41,0,0,1,3.41-3.41h0a3.41,3.41,0,0,1,3.41,3.41v28.31A3.41,3.41,0,0,1,739.41,1076.74Z"/><rect class="cls-11" x="734.18" y="1072.93" width="10.47" height="5.72" rx="2.11" ry="2.11"/><path class="cls-8" d="M133.32,1172.95s797.51-31.32,1062.54-31.32c-45,57.83-560.58,103.91-560.58,103.91S237.73,1277.36,133.32,1172.95Z"/><path class="cls-9" d="M952,1173.13,864.55,1188l220.59-4.77c56.75-12.7,99.2-26.75,110.72-41.57-59.78,0-146.67,1.59-245.37,4.06h0C966.91,1146.67,968.2,1170.38,952,1173.13Z"/><path class="cls-12" d="M385.36,1336.83c-105.87-29-202-63.49-202-63.49l12.91-39.62S317.76,1262.19,385.36,1336.83Z"/><path class="cls-13" d="M183.32,1273.34s-42-59.43-50-100.39c32.13,10.44,50,15,50,15l12.91,45.76Z"/><rect class="cls-11" x="123.75" y="1032.08" width="4.02" height="148.41" transform="translate(-312.96 82.95) rotate(-16.72)"/><circle class="cls-11" cx="104.41" cy="1035.21" r="5.42"/><path class="cls-14" d="M183.32,1188s480.87,56.47,1012.54-46.33c-17.67,56.22-28.91,146.17-170.26,183.11s-404.78,53-629.65,14.46c-104.94-18-199.71-105.48-199.71-105.48Z"/><path class="cls-15" d="M521.09,1223.11c-135.94,0-240.21-7-293.26-11.54l.75-8.8c136.39,11.63,497.49,31.19,903.88-38.11l1.49,8.71c-177.91,30.34-367.36,47-563.1,49.43Q545.34,1223.12,521.09,1223.11Z"/><path class="cls-16" d="M345.85,1162l.89,5.64a7.49,7.49,0,0,0,7.59,6.33l575.16-14.52a4.3,4.3,0,0,0,3.89-5.88l-4.13-10.38a7.57,7.57,0,0,0-7-4.77H862.33a29.68,29.68,0,0,1-19.72-7.5h0a29.68,29.68,0,0,0-19.72-7.5H769.33a10.65,10.65,0,0,0-10.22,7.64h0a10.65,10.65,0,0,1-9.82,7.63L353,1153.36A7.49,7.49,0,0,0,345.85,1162Z"/><path class="cls-5" d="M1195.86,1141.63c-128.72,24.89-254.46,40.44-371.12,49.72h0l163.17-2.9a19.17,19.17,0,0,1,18.5,25.32l-11.75,34.67a34.9,34.9,0,0,1-27.73,23.29c-45.43,7-148.78,23.24-145.44,25.17s172.2,6.19,258.69,8.27C1170.41,1261.95,1180.8,1189.54,1195.86,1141.63Z"/><path class="cls-6" d="M850.51,1294.22c-305.19,30.52-597.1-16.71-597.1-16.71h0c37.1,24.69,88.46,52.41,142.53,61.68,224.88,38.55,488.3,22.49,629.65-14.46,63.15-16.5,100.33-43.59,123.71-73.52C1099.23,1262.66,1009,1278.37,850.51,1294.22Z"/><path class="cls-2" d="M816.14,1356.28c81.88-6.09,154.8-17.25,209.46-31.54,63.15-16.5,100.33-43.59,123.71-73.52-50.08,11.44-140.27,27.14-298.8,43q-27.12,2.71-54,4.63h0l191.49-8.28a10.23,10.23,0,0,1,10.2,13.32L994.93,1314a18.1,18.1,0,0,1-13,12.11C954.92,1332.72,877.77,1350.63,816.14,1356.28Z"/><path class="cls-5" d="M929.24,1143.19a7.57,7.57,0,0,0-7-4.77H862.33a29.68,29.68,0,0,1-19.72-7.5h0a29.68,29.68,0,0,0-19.72-7.5H769.33a10.63,10.63,0,0,0-6.53,2.24c8.82.35,33.91,1.39,43.39,1.79a7.78,7.78,0,0,1,5.91,3.12h0a7.79,7.79,0,0,1-6.24,12.45H788.21l49.48,4.71a5.9,5.9,0,0,1,5.34,5.87h0a5.9,5.9,0,0,1-5.68,5.89l-187.48,7h0l279.62-7.06a4.3,4.3,0,0,0,3.89-5.88Z"/><path class="cls-5" d="M243.72,983.09a9.69,9.69,0,0,0,9.69,9.69H818.93a9.69,9.69,0,0,0-9.69-9.69Z"/></g></g></svg>