<?xml version="1.0" encoding="utf-8"?>
<!-- Generator: Adobe Illustrator 21.1.0, SVG Export Plug-In . SVG Version: 6.00 Build 0)  -->
<svg version="1.1" id="Layer_1" xmlns="http://www.w3.org/2000/svg" xmlns:xlink="http://www.w3.org/1999/xlink" x="0px" y="0px"
	 viewBox="0 0 1728.839 433.026" enable-background="new 0 0 1728.839 433.026" xml:space="preserve">
<g>
	<path fill="#FFFFFF" d="M201.795,172.774H54.727c-7.819,0-14.158,6.339-14.158,14.158v3.237h175.384v-3.237
		C215.953,179.113,209.614,172.774,201.795,172.774z"/>
	<g>
		<rect x="1503.773" y="145.788" fill="#E5E0E0" width="11.864" height="34.267"/>
		<rect x="1571.555" y="145.788" fill="#E5E0E0" width="11.864" height="34.267"/>
	</g>
	<g>
		<rect x="1503.773" y="145.788" fill="#C8C3C3" width="11.864" height="13.594"/>
		<rect x="1571.555" y="145.788" fill="#C8C3C3" width="11.864" height="13.594"/>
	</g>
	<path fill="#E5E0E0" d="M1617.911,139.025h-148.629c-3.735,0-6.763,3.028-6.763,6.763l0,0c0,3.735,3.028,6.763,6.763,6.763h148.629
		c3.735,0,6.763-3.028,6.763-6.763l0,0C1624.674,142.053,1621.646,139.025,1617.911,139.025z"/>
	<path fill="#B41C1C" d="M727.437,287.969l-5.653,1.874c-14.803,4.908-30.782-3.113-35.69-17.915l-28.847-86.996
		c-4.908-14.803,3.113-30.782,17.915-35.69l5.653-1.874c14.803-4.908,30.782,3.113,35.69,17.915l28.847,86.996
		C750.26,267.081,742.239,283.06,727.437,287.969z"/>
	<polygon fill="#84B7DA" points="1062.033,179.619 947.59,8.239 701.299,182.104 	"/>
	<g opacity="0.5">
		<polygon fill="#FFFFFF" points="1023.315,121.638 1009.385,100.778 941.645,180.448 973.498,180.229 		"/>
		<polygon fill="#FFFFFF" points="806.744,181.378 909.362,180.671 995.267,79.636 950.39,12.432 		"/>
		<polygon fill="#FFFFFF" points="1043.415,151.738 1029.485,130.878 987.607,180.132 1019.461,179.913 		"/>
	</g>
	<path fill="#B41C1C" d="M287.586,292.545l-5.653,1.874c-14.803,4.908-30.782-3.113-35.69-17.915l-28.847-86.996
		c-4.908-14.803,3.113-30.782,17.915-35.69l5.653-1.874c14.803-4.908,30.782,3.113,35.69,17.915l28.847,86.996
		C310.41,271.657,302.389,287.636,287.586,292.545z"/>
	<path fill="#C34427" d="M305.501,256.854l-28.847-86.996c-4.425-13.346-17.85-21.178-31.298-18.993
		c6.905,3.144,12.533,9.044,15.109,16.813l28.847,86.996c4.908,14.803-3.113,30.782-17.915,35.69l-5.653,1.874
		c-1.457,0.483-2.925,0.839-4.393,1.077c6.251,2.846,13.549,3.434,20.582,1.102l5.653-1.874
		C302.389,287.636,310.41,271.657,305.501,256.854z"/>
	<path fill="#FFFFFF" d="M60.608,358.349h1467.189c88.221-118.189,185.142-183.212,185.142-183.212L33.889,186.7L60.608,358.349
		L60.608,358.349L60.608,358.349z"/>
	<path opacity="0.15" fill="#192A3A" d="M1320.445,327.333l-511.25,31.015l688.815,42.63
		c94.556-145.103,214.929-225.842,214.929-225.842l-735.459,5.065l-47.233,5.386c0,0,517.636,13.138,525.456,8.623
		C1463.524,189.696,1320.445,327.333,1320.445,327.333z"/>
	<g>
		<path fill="#B0B6BE" d="M701.299,190.343c-3.577,0-6.749-2.31-7.844-5.72c-1.101-3.428,0.151-7.174,3.093-9.251L942.839,1.508
			c1.815-1.282,4.072-1.774,6.256-1.37c2.185,0.406,4.113,1.677,5.347,3.525l114.443,171.38c1.682,2.52,1.846,5.759,0.427,8.436
			c-1.419,2.676-4.193,4.358-7.222,4.379l-360.734,2.484C701.337,190.343,701.318,190.343,701.299,190.343z M945.434,19.846
			l-217.92,153.837l319.181-2.198L945.434,19.846z"/>
	</g>
	<path fill="#B44314" d="M1527.785,358.349H60.608c2.286,14.685,14.201,25.974,28.989,27.463l51.965,5.234
		c9.385,0.945,17.903,5.904,23.36,13.598l10.437,14.717c5.613,7.913,14.451,12.921,24.124,13.665H1478.23
		C1493.911,406.197,1510.679,381.266,1527.785,358.349z"/>
	<path fill="#A03714" d="M1144.238,413.294l-27.954,19.732h361.946c15.681-26.829,32.449-51.761,49.555-74.677h-718.59
		l327.664,27.762C1150.796,387.292,1155.665,405.228,1144.238,413.294z"/>
	<path opacity="0.15" fill="#192A3A" d="M1689.325,192.602c8.173-6.382,14.53-11.048,18.579-13.943L34.431,190.184l2.148,13.8
		L1689.325,192.602z"/>
	<path fill="#BDC3D0" d="M40.569,229.612c0,0,6.306-0.202,18.129-0.582c11.824-0.366,29.164-0.903,51.234-1.586
		c22.07-0.612,48.87-1.356,79.611-2.208c15.371-0.404,31.727-0.833,48.969-1.286c8.621-0.237,17.466-0.253,26.52-0.215
		c9.054,0.016,18.316-0.042,27.776-0.095c151.359-0.807,353.17-1.884,554.982-2.96c201.811-1.076,403.623-2.153,554.982-2.96
		c9.46-0.064,18.723-0.128,27.776-0.189c9.053-0.154,17.897-0.192,26.52-0.02c17.247,0.269,33.606,0.524,48.98,0.763
		c30.748,0.52,57.555,0.973,79.63,1.346c44.152,0.878,69.382,1.379,69.382,1.379s-25.223,0.771-69.363,2.12
		c-22.07,0.609-48.87,1.348-79.611,2.196c-15.371,0.404-31.727,0.833-48.969,1.286c-8.621,0.264-17.465,0.321-26.519,0.263
		c-9.053,0.035-18.316,0.07-27.776,0.107c-151.359,0.807-353.17,1.884-554.982,2.96c-201.812,1.076-403.623,2.153-554.982,2.96
		c-9.46,0.048-18.723,0.089-27.776,0.201c-9.053,0.135-17.897,0.214-26.52,0.068c-17.246-0.269-33.606-0.524-48.98-0.764
		c-30.749-0.525-57.555-0.982-79.631-1.359c-22.076-0.448-39.422-0.799-51.248-1.039C46.876,229.747,40.569,229.612,40.569,229.612z
		"/>
	<path fill="#BDC3D0" d="M47.249,272.525c0,0,6.091-0.191,17.51-0.549c11.42-0.345,28.169-0.851,49.486-1.494
		c21.317-0.605,47.202-1.344,76.895-2.066c14.846-0.376,30.644-0.777,47.298-1.199c8.327-0.222,16.869-0.222,25.614-0.167
		c8.744,0.032,17.691-0.009,26.828-0.045c146.188-0.537,341.107-1.254,536.025-1.97c194.918-0.717,389.836-1.433,536.025-1.97
		c9.137-0.048,18.083-0.094,26.827-0.14c8.744-0.139,17.286-0.16,25.614,0.027c16.657,0.299,32.457,0.584,47.306,0.851
		c29.697,0.575,55.587,1.076,76.908,1.488c42.642,0.956,67.01,1.503,67.01,1.503s-24.362,0.726-66.997,1.996
		c-21.317,0.569-47.203,1.26-76.895,2.053c-14.846,0.376-30.644,0.776-47.298,1.199c-8.327,0.249-16.869,0.29-25.613,0.216
		c-8.744,0.018-17.691,0.038-26.828,0.057c-146.189,0.537-341.107,1.254-536.025,1.97c-194.918,0.717-389.836,1.433-536.025,1.97
		c-9.137,0.031-18.083,0.056-26.827,0.152c-8.744,0.119-17.286,0.182-25.614,0.021c-16.657-0.299-32.457-0.584-47.306-0.851
		c-29.697-0.505-55.587-1.053-76.908-1.501c-21.321-0.487-38.074-0.87-49.496-1.131C53.34,272.671,47.249,272.525,47.249,272.525z"
		/>
	<path fill="#BDC3D0" d="M53.928,315.437c0,0,5.9-0.18,16.963-0.517c11.063-0.324,27.289-0.799,47.939-1.404
		c20.651-0.566,45.727-1.257,74.491-1.926c14.382-0.349,29.686-0.72,45.819-1.112c8.067-0.207,16.341-0.191,24.812-0.12
		c8.471,0.048,17.137,0.023,25.988,0.004c141.612-0.269,330.429-0.629,519.246-0.988c188.817-0.359,377.633-0.718,519.246-0.987
		c8.851-0.031,17.517-0.061,25.988-0.091c8.47-0.122,16.745-0.129,24.812,0.074c16.135,0.33,31.44,0.643,45.823,0.938
		c28.766,0.629,53.845,1.177,74.497,1.629c41.306,1.035,64.909,1.626,64.909,1.626s-23.601,0.681-64.902,1.873
		c-20.651,0.53-45.727,1.174-74.491,1.912c-14.382,0.349-29.686,0.72-45.819,1.112c-8.067,0.234-16.341,0.259-24.812,0.169
		c-8.471,0.003-17.137,0.005-25.988,0.008c-141.612,0.269-330.429,0.628-519.246,0.987c-188.817,0.359-377.633,0.718-519.246,0.987
		c-8.851,0.015-17.517,0.023-25.987,0.103c-8.47,0.103-16.745,0.15-24.812-0.026c-16.135-0.33-31.44-0.643-45.823-0.938
		c-28.766-0.559-53.844-1.155-74.497-1.642c-20.653-0.526-36.88-0.939-47.944-1.221C59.829,315.594,53.928,315.437,53.928,315.437z"
		/>
	<path fill="#983514" d="M1478.23,433.026c15.681-26.829,32.449-51.761,49.555-74.677c-150.986,10.563-260.028,42.54-334.48,74.677
		H1478.23z"/>
	<path fill="#225986" d="M6.866,198.402l1714.882-11.811c1.464-0.01,2.887-0.495,4.053-1.38c0.115-0.088,0.23-0.175,0.345-0.262
		c5.193-3.937,2.371-12.22-4.145-12.175L6.732,184.588c-4.14,0.029-7.287,3.729-6.65,7.819l0.041,0.26
		C0.639,195.985,3.508,198.425,6.866,198.402z"/>
</g>
</svg>
