<svg xmlns="http://www.w3.org/2000/svg" viewBox="0 0 1701.58 362.16"><defs><style>.cls-1{isolation:isolate;}.cls-2{fill:#889aa0;}.cls-3{fill:#9bcae2;}.cls-4{fill:#7ab2d5;}.cls-5{fill:#35200f;}.cls-6{fill:#8897a0;}.cls-7{fill:#ffa648;}.cls-8{fill:#fcfcfc;}.cls-9{fill:#ffde59;}.cls-10{fill:#b2c0c6;}.cls-11{opacity:0.29;}.cls-11,.cls-14{mix-blend-mode:multiply;}.cls-12{fill:#0f181e;}.cls-13{fill:#fff;}.cls-14{fill:#0f2535;opacity:0.15;}</style></defs><title>boat-H</title><g class="cls-1"><g id="Layer_1" data-name="Layer 1"><path class="cls-2" d="M951.94,73.08a5,5,0,0,1-5-5V47.46a5,5,0,1,1,10.06,0V68A5,5,0,0,1,951.94,73.08Z"/><path class="cls-2" d="M1022,73.08a5,5,0,0,1-5-5V47.46a5,5,0,1,1,10.06,0V68A5,5,0,0,1,1022,73.08Z"/><path class="cls-2" d="M1092.08,73.08a5,5,0,0,1-5-5V47.46a5,5,0,1,1,10.06,0V68A5,5,0,0,1,1092.08,73.08Z"/><path class="cls-2" d="M1162.15,73.08a5,5,0,0,1-5-5V47.46a5,5,0,1,1,10.06,0V68A5,5,0,0,1,1162.15,73.08Z"/><path class="cls-2" d="M1232.22,73.08a5,5,0,0,1-5-5V47.46a5,5,0,1,1,10.06,0V68A5,5,0,0,1,1232.22,73.08Z"/><path class="cls-2" d="M1302.29,73.08a5,5,0,0,1-5-5V47.46a5,5,0,1,1,10.06,0V68A5,5,0,0,1,1302.29,73.08Z"/><path class="cls-2" d="M1372.36,73.08a5,5,0,0,1-5-5V47.46a5,5,0,1,1,10.06,0V68A5,5,0,0,1,1372.36,73.08Z"/><path class="cls-2" d="M1442.43,73.08a5,5,0,0,1-5-5V47.46a5,5,0,1,1,10.06,0V68A5,5,0,0,1,1442.43,73.08Z"/><path class="cls-2" d="M1512.5,73.08a5,5,0,0,1-5-5V47.46a5,5,0,1,1,10.06,0V68A5,5,0,0,1,1512.5,73.08Z"/><path class="cls-2" d="M402.21,145.88a5,5,0,0,1-5-4.67L396,124a5,5,0,1,1,10-.71l1.22,17.17a5,5,0,0,1-4.66,5.38Z"/><path class="cls-2" d="M336,150.46a5,5,0,0,1-5-5V127.74a5,5,0,1,1,10.06,0v17.69A5,5,0,0,1,336,150.46Z"/><path class="cls-2" d="M262.91,155.62a5,5,0,0,1-5-4.83l-.77-19.08a5,5,0,1,1,10.05-.4l.77,19.08a5,5,0,0,1-4.83,5.23Z"/><path class="cls-2" d="M192.72,162.89a5,5,0,0,1-4.77-3.43c-2-6-4.74-13.21-5.8-15.07a5,5,0,0,1,6.09-7.9c1.52.88,3.24,1.87,9.25,19.76a5,5,0,0,1-4.77,6.64Z"/><path class="cls-2" d="M127.47,191.24a5,5,0,0,1-4.22-2.28L112.9,173.14a5,5,0,1,1,8.42-5.51l10.35,15.83a5,5,0,0,1-4.21,7.79Z"/><path class="cls-3" d="M701.73,68.57,772.53,4.8l108,71.48s-185.76,45.23-183,42.48S701.73,68.57,701.73,68.57Z"/><path class="cls-4" d="M688.45,86.26l70.8-63.76L867.25,94s-185.76,45.23-183,42.48S688.45,86.26,688.45,86.26Z"/><polygon class="cls-5" points="739.11 33.16 739.11 96.48 690.84 147.9 629.29 135.41 739.11 33.16"/><path class="cls-6" d="M721.55,144.93a12,12,0,0,1-6.32-1.48c-12.89-7.44-64.95-7.6-83.91-7a4.8,4.8,0,0,1-3.35-8.38L769.32,1.23a4.8,4.8,0,0,1,5.83-.45l97.44,63.41a4.8,4.8,0,0,1-.16,8.15c-.34.2-34.38,20.49-70,39.32-21,11.1-38.51,19.54-52,25.09C735.19,143,726.71,144.93,721.55,144.93ZM647.66,126.6c22.27,0,59.6,1.16,72.37,8.53,1.53.7,12.66,2.51,78.58-32.35,25.85-13.67,50.73-28,62.24-34.78L773,10.84,644,126.61Z"/><path class="cls-7" d="M669.65,131.63l68.66-59.3A42.05,42.05,0,0,1,765.8,62.1h935.77Z"/><path class="cls-5" d="M1685.18,84.12H789.82a42.05,42.05,0,0,0-27.49,10.23l-68.66,59.3,991.87-66.83C1685.4,85.92,1685.28,85,1685.18,84.12Z"/><path class="cls-8" d="M0,362.16H1610.64A64.72,64.72,0,0,0,1675,304.51L1701.58,62.1,242.07,144.47A250.79,250.79,0,0,0,22.23,304.56Z"/><path class="cls-9" d="M1683.33,228.33h0L1701.58,62.1,242.07,144.47A250.79,250.79,0,0,0,22.24,304.56l-9.52,24.68h838.6A3481,3481,0,0,0,1683.33,228.33Z"/><path class="cls-10" d="M105.27,183.25a5,5,0,0,1-2.9-9.15A255.58,255.58,0,0,1,235,128L413.3,117.95a5,5,0,1,1,.57,10L235.59,138.05a245.53,245.53,0,0,0-127.43,44.28A5,5,0,0,1,105.27,183.25Z"/><path class="cls-7" d="M894,165l-71,60.9a55.06,55.06,0,0,1-35.85,13.27H639l80-80.08Z"/><g class="cls-11"><path class="cls-12" d="M1076.86,362.16h533.78A64.72,64.72,0,0,0,1675,304.51l3.82-34.81A3481,3481,0,0,1,1076.86,362.16Z"/></g><path class="cls-13" d="M1696.19,111.21l-979.43,40a11.48,11.48,0,0,0-7,2.76L559.28,283.06H31.71q-5.2,10.45-9.47,21.49L21.67,306H563.53a11.48,11.48,0,0,0,7.47-2.77L721.67,174l972-39.71Z"/><path class="cls-10" d="M1525.22,51.58h-586a5,5,0,0,1,0-10.06h586a5,5,0,0,1,0,10.06Z"/><path class="cls-14" d="M1610.64,362.16A64.72,64.72,0,0,0,1675,304.51L1701.58,62.1,789,113.6h0l271.91-2c23.52-.17,35.95,27.78,20.07,45.13L893,362.16Z"/></g></g></svg>