<svg xmlns="http://www.w3.org/2000/svg" viewBox="0 0 2840.71 1143.88"><defs><style>.cls-1{isolation:isolate;}.cls-2{fill:#95c6e0;}.cls-10,.cls-2,.cls-3{opacity:0.5;}.cls-10,.cls-4{fill:#fff;}.cls-5{fill:#92b3ce;}.cls-6,.cls-7{fill:#142a45;mix-blend-mode:multiply;}.cls-6{opacity:0.25;}.cls-7{opacity:0.15;}.cls-8{fill:#e0ecfc;}.cls-9{fill:#333642;}.cls-11{fill:#6f94ad;}.cls-12{fill:#d9e0f2;}.cls-13{fill:#1d5991;}.cls-14{fill:#abb7cc;}</style></defs><title>boat-f</title><g class="cls-1"><g id="Layer_1" data-name="Layer 1"><path class="cls-2" d="M1472.74,87.37l-36.51,136.08,487.66,31.67S1856.25,171,1900.08,87.37Z"/><g class="cls-3"><path class="cls-4" d="M1449.91,224.34l191.82,12.46,127-149.43H1566.37Z"/><path class="cls-4" d="M1895.29,87.37h-62.83L1702.08,240.72l59.54,3.87Z"/><path class="cls-4" d="M1893.37,196.25c-6.23-19.25-10.06-41.86-7-65.69L1788,246.3l59.54,3.87Z"/></g><path class="cls-4" d="M1947.7,13V7.55a3.78,3.78,0,0,0-3.78-3.78h-40.06a3.78,3.78,0,0,0-3.78,3.78V13Z"/><path class="cls-4" d="M1900.08,22.82v5.42a3.78,3.78,0,0,0,3.78,3.78h40.06a3.78,3.78,0,0,0,3.78-3.78V22.82Z"/><rect class="cls-5" x="1901.07" y="12.97" width="45.64" height="9.85"/><rect class="cls-6" x="1901.07" y="12.97" width="45.64" height="2.54"/><rect class="cls-4" x="1908.95" y="32.02" width="29.88" height="19.7"/><rect class="cls-7" x="1929.23" y="32.02" width="9.61" height="19.7"/><path class="cls-4" d="M1814.71,0h0a24.63,24.63,0,0,1,24.63,24.63V59.11a0,0,0,0,1,0,0h-49.26a0,0,0,0,1,0,0V24.63A24.63,24.63,0,0,1,1814.71,0Z"/><path class="cls-7" d="M1820.39.67a29.82,29.82,0,0,1,4.95,16.49v42h14V24.63A24.63,24.63,0,0,0,1820.39.67Z"/><rect class="cls-6" x="1908.95" y="32.02" width="29.88" height="3.94"/><path class="cls-8" d="M1472.74,87.37l79.88-31.71a76.73,76.73,0,0,1,28.31-5.41h381.31a76.73,76.73,0,0,1,53.23,21.46l16.27,15.66Z"/><path class="cls-4" d="M2526.71,222.3h-62.39a84.29,84.29,0,0,0-55.2,20.59l-85,73.65H1418.49L1024.35,581.71h434.57l706.45-145.6,249.17-56.71a45.18,45.18,0,0,0,21.92-12.11l105.11-111.88C2553,242.58,2543.87,222.3,2526.71,222.3Z"/><path class="cls-7" d="M2526.71,222.3h-62.39a84.29,84.29,0,0,0-55.2,20.59l-85,73.65H1418.49l755.8,37.83c21.28,1.07,24.26,31.31,3.59,36.51l-429.57,108,246.57-27.61,170.49-35.14,249.17-56.71a45.18,45.18,0,0,0,21.92-12.11l105.11-111.88C2553,242.58,2543.87,222.3,2526.71,222.3Z"/><polygon class="cls-9" points="1458.92 581.71 1848.11 501.5 1795.43 416.01 1270.64 416.01 1270.64 416.01 1024.35 581.71 1458.92 581.71"/><g class="cls-3"><polygon class="cls-4" points="1553.04 416.01 1412.15 581.71 1458.92 581.71 1478.39 577.7 1615.87 416.01 1553.04 416.01"/><polygon class="cls-4" points="1512.13 570.74 1588.31 555.04 1706.52 416.01 1643.69 416.01 1512.13 570.74"/><polygon class="cls-4" points="1146.06 581.71 1348.47 581.71 1489.36 416.01 1286.95 416.01 1146.06 581.71"/></g><polygon class="cls-8" points="148.43 693.48 2165.37 436.11 2363.81 693.48 2273.04 766.3 148.43 693.48"/><path class="cls-7" d="M1038.05,580,148.43,693.48l1809.5,62,405.88-62L779.3,661.19c-12.24-.25-14.06-17.77-2.13-20.52C843.29,625.4,941.07,602.74,1038.05,580Z"/><polygon class="cls-9" points="2089.14 525.33 1770.54 566.56 1823.65 635.45 2181.67 645.33 2089.14 525.33"/><polygon class="cls-10" points="2159.51 616.59 2089.14 525.32 2027.96 533.24 1938.37 638.61 2136.14 644.07 2159.51 616.59"/><path class="cls-11" d="M2328,647l-670.37-23c-12.2-.42-18.08-9.47-18.48-18.26s4.6-18.35,16.71-19.89l569-72.61-6.06-7.86-564,72c-17.43,2.22-24.76,16.48-24.19,28.79s9.18,25.83,26.75,26.43l677.45,23.22Z"/><path class="cls-4" d="M52.06,693.48H2224.52a34.22,34.22,0,0,0,20.72-7l87.66-66.71a34.22,34.22,0,0,1,20.72-7h287.71a10,10,0,0,1,9.92,8.57l10.93,74.29A10.26,10.26,0,0,1,2652,707.41h-20.69a10.26,10.26,0,0,0-10.26,10.26V742.6a4.92,4.92,0,0,0,4.82,4.92l21.28.45a12.08,12.08,0,0,1,9.55,5l178.59,248c13.16,18.27.87,43.86-21.61,45L945,1142.63A934.93,934.93,0,0,1,248.25,882.41Z"/><path class="cls-8" d="M1418.49,316.54l23.93-41a19.69,19.69,0,0,1,18-9.74L2136,301.55l9.64,15Z"/><path class="cls-4" d="M2078.15,274.77l-.63,0-659.66-42.83a9.64,9.64,0,0,1,1.25-19.24l659.66,42.84a9.64,9.64,0,0,1-.62,19.26Z"/><path class="cls-4" d="M2039.59,94.33H1458.92a7,7,0,0,1,0-13.92h580.67a7,7,0,0,1,0,13.92Z"/><path class="cls-12" d="M2342.09,619.76h-.17L6.79,563.38a7,7,0,1,1,.34-13.92l2335.12,56.38a7,7,0,0,1-.16,13.92Z"/><path class="cls-12" d="M204.66,714.9a7,7,0,0,1-5.87-3.21L103.47,562.64a7,7,0,0,1,11.73-7.5l95.32,149.05a7,7,0,0,1-5.86,10.71Z"/><path class="cls-12" d="M379.47,714.9a7,7,0,0,1-5.87-3.21L281,566.93a7,7,0,1,1,11.73-7.5l92.57,144.77a7,7,0,0,1-5.86,10.71Z"/><path class="cls-12" d="M611.25,735.45a7,7,0,0,1-5.87-3.21l-102.29-160a7,7,0,1,1,11.73-7.5l102.29,160a7,7,0,0,1-5.86,10.71Z"/><path class="cls-12" d="M909.48,735.45a7,7,0,0,1-5.87-3.21L806,579.6a7,7,0,1,1,11.73-7.5l97.61,152.64a7,7,0,0,1-5.86,10.71Z"/><path class="cls-12" d="M1207.71,735.45a7,7,0,0,1-5.87-3.21L1108.9,586.91a7,7,0,0,1,11.73-7.5l92.93,145.33a7,7,0,0,1-5.86,10.71Z"/><path class="cls-12" d="M1505.93,735.45a7,7,0,0,1-5.87-3.21l-88.26-138a7,7,0,0,1,11.73-7.5l88.26,138a7,7,0,0,1-5.86,10.71Z"/><path class="cls-12" d="M1804.16,735.45a7,7,0,0,1-5.87-3.21l-83.58-130.7a7,7,0,1,1,11.73-7.5L1810,724.74a7,7,0,0,1-5.86,10.71Z"/><path class="cls-12" d="M2102.39,735.45a7,7,0,0,1-5.87-3.21l-78.9-123.39a7,7,0,1,1,11.73-7.5l78.9,123.39a7,7,0,0,1-5.86,10.71Z"/><rect class="cls-9" x="611.25" y="778.08" width="110.3" height="37.48" rx="18.74" ry="18.74"/><path class="cls-9" d="M1189,823.06h-72.82a18.8,18.8,0,0,1-18.74-18.74h0a18.8,18.8,0,0,1,18.74-18.74H1189a18.8,18.8,0,0,1,18.74,18.74h0A18.8,18.8,0,0,1,1189,823.06Z"/><path class="cls-9" d="M1798.77,830.56H1726a18.8,18.8,0,0,1-18.74-18.74h0A18.8,18.8,0,0,1,1726,793.08h72.82a18.8,18.8,0,0,1,18.74,18.74h0A18.8,18.8,0,0,1,1798.77,830.56Z"/><rect class="cls-9" x="2072.38" y="798.43" width="110.3" height="37.48" rx="18.74" ry="18.74"/><rect class="cls-9" x="2239.44" y="798.43" width="110.3" height="37.48" rx="18.74" ry="18.74"/><rect class="cls-9" x="2451.47" y="798.43" width="110.3" height="37.48" rx="18.74" ry="18.74"/><path class="cls-13" d="M2656.72,753h0a12.08,12.08,0,0,0-9.55-5l-21.28-.45a4.92,4.92,0,0,1-4.82-4.92h0L281.62,693.48H52.06l5.12,4.93,2595.93,54.5Z"/><path class="cls-14" d="M1479.18,316.36a11.24,11.24,0,0,1-9.51-5.23l-7.31-11.54a11.24,11.24,0,1,1,19-12l7.31,11.54a11.25,11.25,0,0,1-9.49,17.26Z"/><path class="cls-14" d="M1622.67,316.36a11.24,11.24,0,0,1-11.24-11.24V293.58a11.24,11.24,0,1,1,22.49,0v11.54A11.24,11.24,0,0,1,1622.67,316.36Z"/><path class="cls-14" d="M1795.44,316.36a11.25,11.25,0,0,1-10.89-14.08l3-11.54a11.24,11.24,0,0,1,21.76,5.68l-3,11.54A11.25,11.25,0,0,1,1795.44,316.36Z"/><path class="cls-14" d="M2083.14,316.36a11.25,11.25,0,0,1-10.49-7.2l-1.4-3.61a11.24,11.24,0,0,1,21-8.1l1.4,3.61a11.25,11.25,0,0,1-10.49,15.3Z"/><path class="cls-13" d="M945,1142.63,2813.7,1046c22.49-1.16,34.77-26.75,21.61-45l-22.53-31.29H353.35A934.94,934.94,0,0,0,945,1142.63Z"/><path class="cls-13" d="M309.08,936.08H2788.55l-6.39-8.88H298.27Q303.65,931.68,309.08,936.08Z"/><path class="cls-7" d="M2656.72,753a12.08,12.08,0,0,0-9.55-5l-21.28-.45a4.92,4.92,0,0,1-4.82-4.92V717.67a10.26,10.26,0,0,1,10.26-10.26H2652a10.26,10.26,0,0,0,10.15-11.76l-10.93-74.29a10,10,0,0,0-9.92-8.57H2353.62a34.22,34.22,0,0,0-20.72,7l-87.66,66.71a34.22,34.22,0,0,1-20.72,7H1751.58C1858,804.2,2009.71,962.86,2123.26,1081.73L2813.7,1046c22.49-1.16,34.77-26.75,21.61-45Z"/><path class="cls-12" d="M1479.18,312.08a7,7,0,0,1-5.89-3.24l-52.11-82.26a7,7,0,1,1,11.76-7.45L1485,301.39a7,7,0,0,1-5.87,10.69Z"/><path class="cls-12" d="M1622.67,312.08a7,7,0,0,1-7-7V236.66l-47.5-147.15a7,7,0,0,1,13.25-4.28l47.83,148.19a7,7,0,0,1,.34,2.14v69.56A7,7,0,0,1,1622.67,312.08Z"/><path class="cls-12" d="M1795.44,312.08a7,7,0,0,1-6.74-8.72l15-57.37a7,7,0,1,1,13.47,3.51l-15,57.37A7,7,0,0,1,1795.44,312.08Z"/><path class="cls-12" d="M2083.14,312.08a7,7,0,0,1-6.49-4.45l-15.71-40.67a6.93,6.93,0,0,1-.26-.83L2016.77,89a7,7,0,1,1,13.51-3.35l43.8,176.64,15.55,40.27a7,7,0,0,1-6.49,9.47Z"/></g></g></svg>