<svg xmlns="http://www.w3.org/2000/svg" viewBox="0 0 235.4 202.807">
  <defs>
    <style>
      .a {
        fill: #4a2829;
      }

      .b {
        fill: #bcbab4;
      }

      .c {
        fill: #852f32;
      }

      .d {
        fill: #f9f8f4;
      }

      .e {
        fill: #eb454b;
      }

      .f {
        fill: #ebeae4;
      }

      .g {
        fill: #e5e3dc;
      }

      .h {
        fill: #d13035;
      }
    </style>
  </defs>
  <title>book</title>
  <g>
    <g>
      <path class="a" d="M283.481,250.125V399.432a57.008,57.008,0,0,0,33.837,0V250.125Z" transform="translate(-182.7 -199.193)"/>
      <path class="b" d="M283.994,390.518v2.37a55.81,55.81,0,0,0,32.812,0v-2.37a55.831,55.831,0,0,1-32.812,0Z" transform="translate(-182.7 -199.193)"/>
      <g>
        <polygon class="c" points="48.399 15.645 3.568 3.189 3.568 1.139 0 2.197 0 169.605 48.399 183.051 96.798 196.496 100.781 197.603 100.781 30.197 96.798 29.09 48.399 15.645"/>
        <polygon class="c" points="231.831 1.139 231.831 3.189 187.001 15.645 138.602 29.09 134.619 30.197 134.619 197.603 138.602 196.496 187.001 183.051 235.4 169.605 235.4 2.197 231.831 1.139"/>
      </g>
      <g>
        <polygon class="a" points="184.899 14.049 137.968 26.957 134.106 28.02 134.106 193.583 137.968 192.52 184.899 179.611 231.831 166.701 231.831 1.139 184.899 14.049"/>
        <polygon class="a" points="50.501 14.049 3.568 1.139 3.568 166.701 50.501 179.611 97.432 192.52 101.294 193.583 101.294 28.02 97.432 26.957 50.501 14.049"/>
      </g>
    </g>
    <path class="d" d="M197.283,199.193l51.453,14.1,34.683,9.5,6.548,1.793v0l.013,0v0l.047.013h-.007c.337.092.664.209.99.325a16.443,16.443,0,0,1,1.669.683c4.32,2.073,7.5,5.922,7.509,9.469.008-3.547,3.189-7.4,7.509-9.469a16.443,16.443,0,0,1,1.669-.683c.327-.116.654-.233.991-.325h-.007l.046-.013v0l.013,0v0l6.548-1.793,34.683-9.5,51.452-14.1,7.314,5.043V364.584l-98.54,27.006a55.959,55.959,0,0,1-11.567,1.232l-.11,0h0l-.11,0a55.955,55.955,0,0,1-11.566-1.232L189.97,364.584V204.236Z" transform="translate(-182.7 -199.193)"/>
    <polygon class="e" points="162.454 12.038 172.187 18.094 147.176 24.563 139.286 18.41 162.454 12.038"/>
    <path class="d" d="M310.409,383.447v0l-.013,0h0l-.046.013h.007a15.783,15.783,0,0,0-2.66,1.008c-3.869,1.857-6.818,5.139-7.4,8.352a55.959,55.959,0,0,0,11.567-1.232l98.54-27.006-7.314-6.527Z" transform="translate(-182.7 -199.193)"/>
    <polygon class="d" points="14.583 0 14.583 7.046 14.583 158.863 7.269 165.391 7.269 5.043 14.583 0"/>
    <g>
      <polygon class="f" points="220.391 0 220.391 7.046 220.391 158.863 168.939 172.959 168.939 14.096 220.391 0"/>
      <path class="d" d="M310.356,224.6h-.007l.046-.013v0l.013,0v0l6.548-1.793,34.683-9.5V372.152l-34.683,9.5-6.548,1.794v0l-.013,0h0l-.046.013h.007c-.337.092-.664.209-.991.324V224.925C309.692,224.809,310.019,224.691,310.356,224.6Z" transform="translate(-182.7 -199.193)"/>
      <path class="f" d="M307.7,225.607a16.443,16.443,0,0,1,1.669-.683V383.787a16.426,16.426,0,0,0-1.669.684c-3.869,1.857-6.818,5.139-7.4,8.352l-.111,0V235.09C300.187,231.539,303.371,227.684,307.7,225.607Z" transform="translate(-182.7 -199.193)"/>
    </g>
    <g>
      <polygon class="b" points="209.055 15.721 209.055 20.158 130.143 41.775 130.143 37.339 209.055 15.721"/>
      <polygon class="b" points="209.055 27.465 209.055 31.901 130.143 53.52 130.143 49.082 209.055 27.465"/>
      <polygon class="b" points="209.055 39.209 209.055 43.646 130.143 65.264 130.143 60.827 209.055 39.209"/>
      <polygon class="b" points="209.055 50.953 209.055 55.39 130.143 77.008 130.143 72.57 209.055 50.953"/>
      <polygon class="b" points="209.055 62.697 209.055 67.135 130.143 88.752 130.143 84.314 209.055 62.697"/>
      <polygon class="b" points="209.055 74.44 209.055 78.877 130.143 100.496 130.143 96.059 209.055 74.44"/>
      <polygon class="b" points="209.055 86.184 209.055 90.621 130.143 112.239 130.143 107.803 209.055 86.184"/>
      <polygon class="b" points="209.055 97.928 209.055 102.365 130.143 123.982 130.143 119.545 209.055 97.928"/>
      <polygon class="b" points="209.055 109.672 209.055 114.109 130.143 135.727 130.143 131.29 209.055 109.672"/>
      <polygon class="b" points="209.055 133.159 209.055 137.597 130.143 159.215 130.143 154.777 209.055 133.159"/>
      <polygon class="b" points="209.055 144.903 209.055 149.34 130.143 170.959 130.143 166.521 209.055 144.903"/>
      <polygon class="b" points="209.055 121.416 209.055 125.853 130.143 147.471 130.143 143.033 209.055 121.416"/>
    </g>
    <path class="d" d="M289.966,383.447v0l.013,0h0l.047.013h-.007a15.794,15.794,0,0,1,2.659,1.008c3.869,1.857,6.818,5.139,7.4,8.352a55.955,55.955,0,0,1-11.566-1.232L189.97,364.584l7.314-6.527Z" transform="translate(-182.7 -199.193)"/>
    <polygon class="f" points="220.391 0 220.391 7.046 220.391 158.863 227.705 165.391 227.705 5.043 220.391 0"/>
    <g>
      <polygon class="d" points="14.583 0 14.583 7.046 14.583 158.863 66.036 172.959 66.036 14.096 14.583 0"/>
      <path class="f" d="M290.019,224.6h.007l-.047-.013v0l-.013,0v0l-6.548-1.793-34.683-9.5V372.152l34.683,9.5,6.548,1.794v0l.013,0h0l.047.013h-.007c.337.092.664.209.99.324V224.925C290.683,224.809,290.356,224.691,290.019,224.6Z" transform="translate(-182.7 -199.193)"/>
      <path class="g" d="M292.678,225.607a16.443,16.443,0,0,0-1.669-.683V383.787a16.426,16.426,0,0,1,1.669.684c3.869,1.857,6.818,5.139,7.4,8.352l.111,0V235.09C300.188,231.539,297,227.684,292.678,225.607Z" transform="translate(-182.7 -199.193)"/>
    </g>
    <g>
      <polygon class="b" points="25.919 15.721 25.919 20.158 104.832 41.775 104.832 37.339 25.919 15.721"/>
      <polygon class="b" points="25.919 27.465 25.919 31.901 104.832 53.52 104.832 49.082 25.919 27.465"/>
      <polygon class="b" points="25.919 39.209 25.919 43.646 104.832 65.264 104.832 60.827 25.919 39.209"/>
      <polygon class="b" points="25.919 50.953 25.919 55.39 104.832 77.008 104.832 72.57 25.919 50.953"/>
      <polygon class="b" points="25.919 62.697 25.919 67.135 104.832 88.752 104.832 84.314 25.919 62.697"/>
      <polygon class="b" points="25.919 74.44 25.919 78.877 104.832 100.496 104.832 96.059 25.919 74.44"/>
      <polygon class="b" points="25.919 86.184 25.919 90.621 104.832 112.239 104.832 107.803 25.919 86.184"/>
      <polygon class="b" points="25.919 97.928 25.919 102.365 104.832 123.982 104.832 119.545 25.919 97.928"/>
      <polygon class="b" points="25.919 109.672 25.919 114.109 104.832 135.727 104.832 131.29 25.919 109.672"/>
      <polygon class="b" points="25.919 133.159 25.919 137.597 104.832 159.215 104.832 154.777 25.919 133.159"/>
      <polygon class="b" points="25.919 144.903 25.919 149.34 104.832 170.959 104.832 166.521 25.919 144.903"/>
      <polygon class="b" points="25.919 121.416 25.919 125.853 104.832 147.471 104.832 143.033 25.919 121.416"/>
    </g>
    <g>
      <polygon class="e" points="139.286 18.41 139.286 96.307 150.87 90.428 150.87 15.225 139.286 18.41"/>
      <polygon class="h" points="162.454 12.038 150.87 15.225 150.87 90.428 162.454 89.934 162.454 12.038"/>
    </g>
  </g>
</svg>
