<svg xmlns="http://www.w3.org/2000/svg" viewBox="0 0 435.087 476.987"><defs><style>.a{fill:#f53137;}.a,.b,.c,.d,.e,.f,.g,.h{fill-rule:evenodd;}.b{fill:#cf292f;}.c{fill:#911d25;}.d{fill:#ffeaea;}.e{fill:#b7acac;}.f{fill:#1a2126;}.g,.j{fill:#fff;}.h{fill:#999;}.i{opacity:0.65;}</style></defs><title>box</title><polygon class="a" points="217.418 250.919 434.838 125.46 217.418 0 0 125.46 217.418 250.919"/><polygon class="a" points="217.418 250.919 434.838 125.46 217.418 0 0 125.46 217.418 250.919"/><polygon class="b" points="435.087 125.021 217.65 250.511 217.65 476.82 435.087 351.331 435.087 125.021"/><polygon class="c" points="435.087 125.084 217.65 250.573 217.65 254.233 435.087 128.744 435.087 125.084"/><polygon class="b" points="299.725 203.393 343.134 178.332 125.716 52.872 82.307 77.933 299.725 203.393"/><polygon class="c" points="343.075 178.34 299.647 203.417 299.647 248.394 343.075 223.316 343.075 178.34"/><polygon class="d" points="302.517 201.821 343.174 178.349 125.756 52.889 85.097 76.362 302.517 201.821"/><polygon class="e" points="343.101 178.191 302.555 201.599 302.555 247.971 343.101 224.562 343.101 178.191"/><polygon class="c" points="217.677 251.218 0.24 125.73 0.24 351.499 217.677 476.987 217.677 251.218"/><path class="b" d="M87.553,113.275a15.641,15.641,0,0,0-16.677,0l-17.093,9.867q-8.335,4.813,0,9.628L101,160.028a15.646,15.646,0,0,0,16.674,0l17.093-9.869q8.338-4.814,0-9.628Z" transform="translate(0 0)"/><path class="d" d="M87.553,110.386a15.641,15.641,0,0,0-16.677,0l-17.093,9.867q-8.335,4.813,0,9.628L101,157.14a15.646,15.646,0,0,0,16.674,0l17.093-9.869q8.338-4.814,0-9.628Z" transform="translate(0 0)"/><polygon class="c" points="343.075 358.304 299.647 383.38 299.647 429.589 343.075 404.513 343.075 358.304"/><polygon class="e" points="343.101 358.226 302.555 381.635 302.555 428.006 343.101 404.598 343.101 358.226"/><polygon class="b" points="0.259 125.805 217.695 251.294 217.695 254.955 0.259 129.466 0.259 125.805"/><path class="f" d="M310.293,305.339v25.739q0,3.515,3.044,1.757l103.015-59.475a5.708,5.708,0,0,0,3.044-5.271V242.351q0-3.515-3.044-1.757L313.337,300.068A5.711,5.711,0,0,0,310.293,305.339Zm106.059-26.882L313.337,337.931a5.712,5.712,0,0,0-3.044,5.271v40.586q0,3.515,3.044,1.757L416.352,326.07A5.708,5.708,0,0,0,419.4,320.8V280.214Q419.4,276.7,416.352,278.457Zm9.663-50.556v99.444L303.674,397.977V298.531Z" transform="translate(0 0)"/><path class="g" d="M416.352,240.594q3.043-1.756,3.044,1.757V268.09a5.708,5.708,0,0,1-3.044,5.271L313.337,332.835q-3.043,1.758-3.044-1.757V305.339a5.711,5.711,0,0,1,3.044-5.271Zm-100.885,103.4v3.776l99.973-57.717v-3.776Zm0,10.542v3.776l99.973-57.717v-3.776ZM415.44,249.993v-3.777l-99.973,57.716v3.778Zm0,9.489V255.7l-99.973,57.717V317.2ZM419.4,320.8a5.708,5.708,0,0,1-3.044,5.271L313.337,385.545q-3.043,1.758-3.044-1.757V343.2a5.712,5.712,0,0,1,3.044-5.271l103.015-59.475q3.043-1.756,3.044,1.757ZM315.466,375.62V379.4l99.973-57.717V317.9Zm0-10.542v3.776l99.973-57.717v-3.776Zm0-42.168v3.776l99.973-57.717v-3.776Z" transform="translate(0 0)"/><path class="h" d="M315.466,313.421,415.44,255.7v3.778L315.466,317.2Zm0-9.489,99.973-57.716v3.777l-99.973,57.717Zm99.973-3.338-99.973,57.717v-3.776l99.973-57.717Zm0-10.542L315.466,347.77v-3.776l99.973-57.717Zm0-21.084-99.973,57.717V322.91l99.973-57.717Zm0,42.168-99.973,57.717v-3.776l99.973-57.717Zm0,10.542L315.466,379.4V375.62L415.44,317.9Z" transform="translate(0 0)"/><g class="i"><path class="j" d="M24.424,344.773c-6.83-4.247-12.387-15.164-12.387-24.335s5.557-13.177,12.387-8.93c3.309,2.057,6.419,5.722,8.759,10.318l-4.2,3.031a13.5,13.5,0,0,0-4.555-5.365c-3.552-2.209-6.441-.125-6.441,4.644s2.889,10.446,6.441,12.654c1.721,1.07,3.338,1.176,4.555.3l4.2,8.259C30.843,347.035,27.733,346.831,24.424,344.773Z" transform="translate(0 0)"/><path class="j" d="M47.646,347.394l-3.863-2.4v11.82l-5.274-3.28V320.267L50.1,327.473c5.163,3.21,8.32,9.712,8.32,15.9,0,5.885-2.749,7.318-5.423,6.5L58.566,366l-6.054-3.765Zm1.672-14.172-5.534-3.441v8.977l5.534,3.441c2.117,1.316,3.714.614,3.714-2.179A8.272,8.272,0,0,0,49.317,333.222Z" transform="translate(0 0)"/><path class="j" d="M74.962,376.2c-4.279-2.661-7.595-7.455-9.338-13.5a30.68,30.68,0,0,1-1.232-7.875V336.362l5.946,3.7V358.5a17.571,17.571,0,0,0,.725,4.342,8.861,8.861,0,0,0,3.9,5.37c1.933,1.2,3.136,1.041,3.9-.521a9.535,9.535,0,0,0,.725-3.44V345.81l5.946,3.7v18.466a17.43,17.43,0,0,1-1.232,6.34C82.557,378.19,79.241,378.86,74.962,376.2Z" transform="translate(0 0)"/></g><polygon class="j" points="111.462 398.886 90.907 358.505 95.112 355.474 115.667 395.855 111.462 398.886"/><polygon class="j" points="95.112 388.719 90.907 380.459 111.462 365.641 115.667 373.9 95.112 388.719"/></svg>