<svg xmlns="http://www.w3.org/2000/svg" xmlns:xlink="http://www.w3.org/1999/xlink" viewBox="0 0 168 168">
  <defs>
    <clipPath id="a">
      <rect width="168" height="168" style="fill: none"/>
    </clipPath>
    <linearGradient id="b" x1="88.962" y1="144.775" x2="88.962" y2="123.3" gradientUnits="userSpaceOnUse">
      <stop offset="0" stop-color="#f7b894"/>
      <stop offset="1" stop-color="#d98d64"/>
    </linearGradient>
    <linearGradient id="c" x1="-1171.98" y1="1731.719" x2="-1171.98" y2="1750.299" gradientTransform="translate(1713.403 -1231.499) rotate(17.145)" gradientUnits="userSpaceOnUse">
      <stop offset="0" stop-color="#9e7939"/>
      <stop offset="1" stop-color="#9e6a2f"/>
    </linearGradient>
    <clipPath id="d">
      <path d="M57.434,76.654l8.414,1.538s-.352,4.032-.577,5.286a11.227,11.227,0,0,1-6.057.326s-1.367-.422-2.081-3.359C56.381,77.374,57.434,76.654,57.434,76.654Z" style="fill: none"/>
    </clipPath>
    <linearGradient id="e" x1="63.495" y1="78.128" x2="63.629" y2="85.499" gradientUnits="userSpaceOnUse">
      <stop offset="0" stop-color="#29536b"/>
      <stop offset="1" stop-color="#4e90b5"/>
    </linearGradient>
    <clipPath id="f">
      <path d="M75.992,79.27s7.586-2.442,11.016-1.217a44.8,44.8,0,0,1,.519,5.667s-2.619,2.062-9.028,2.046a12.145,12.145,0,0,1-2.239-3.9C75.52,79.071,75.992,79.27,75.992,79.27Z" style="fill: #fff"/>
    </clipPath>
    <linearGradient id="g" x1="82.898" y1="77.775" x2="83.032" y2="85.147" gradientTransform="translate(6.015 -5.718) rotate(4.096)" xlink:href="#e"/>
  </defs>
  <title>bruce</title>
  <g style="clip-path: url(#a)">
    <g>
      <path d="M106.437,132.322s-31.019,2.228-35.585,3.767c3.972,3.922,11.836,6.825,11.836,6.825Z" style="fill: #bd787a"/>
      <path d="M86.337,153.3c11.715.388,18.066-10.955,18.066-10.955l.125-59.544-8.537,33.191-18.585-1.881L73.4,145.3S74.623,152.917,86.337,153.3Z" style="fill: url(#b)"/>
      <path d="M87.33,148.4l-8.008-1.334L80.741,179.7a115.02,115.02,0,0,0,19.724-1.308l-3.03-34.235Z" style="fill: #f2f2f2"/>
      <path d="M96.736,152.413l-9.405-12.336-6.553,12.336,7.194,4.647v22.556q3.371-.143,6.716-.487l-3.139-22.557Z" style="fill: #ffcf33"/>
      <g>
        <path d="M69.45,35.663S55.888,46.8,50.589,68.172l2.515.776-.128,20.378L49.1,94.936s1.592,33.838,24.1,36.508,30.543-36.5,30.543-36.5L115.587,79.15S127.6,58.064,116,41.034C102.235,27.266,75.391,30.391,69.45,35.663Z" style="fill: #f7b894"/>
        <path d="M72.815,68.442,76.3,59.253s12.618,4.971,16.918,11C92.651,73.479,92,74.2,92,74.2S82.165,68.948,72.815,68.442Z" style="fill: #9e6a2f"/>
        <path d="M62.684,103.549c-.717-.437-7.006-4.374-7.211-7.163s2.308-5.319,2.413-5.425l.321-.315.4.2a35.374,35.374,0,0,0,4.941,1.824c5-4.931,3.671-20.995,3.485-22.964l-2.979-3.4.953-.836,3.243,3.7.024.2c.083.778,1.964,19.126-4.138,24.476l-.256.225-.327-.089a35.95,35.95,0,0,1-5.068-1.8c-.593.692-1.875,2.4-1.748,4.112.118,1.619,4.117,4.649,6.609,6.178Z" style="fill: #de8d60"/>
        <path d="M121.38,57.88c-.044,11.411-5.793,21.27-5.793,21.27l-10.07,13.432c-2.541-6.4-2.536-9.866-2.536-9.866,2.449-4.268,3.372-22.458,2.447-29.712C103.484,47.684,89.4,50.795,70.69,47.4l-9.722-1.864-5.067.182a43.313,43.313,0,0,1,5.585-5.495s-.017.178-2.153.251c1.369-.641,4.491-3.432,6.53-4.469,1.511-1.152,2.892-1.931,3.888-2.667,15.925-6.588,30.751-5.024,43.7,4.114l-.223-2.343S116.7,39.8,117,40.04c3.073,3.557,3.4,10.9,4.367,17.3" style="fill: #9e7939"/>
        <path d="M49.221,96.507s4.383,5.491,14.6,7.026c7.67,1.146,32.192-5.248,32.192-5.248s4.682-9.575,6.965-15.568a24.2,24.2,0,0,0,5.339.025s-5.633,26.135-10.956,35.511a27.111,27.111,0,0,1-3.251,3.713s-4.258,6.448-5.648,7.8-10.042,3.666-10.042,3.666l-1.631.553s-9.148-1.971-12.072-3.724l-1.266.215s-7.861-7.608-9.038-10.888l-1.2-.05S49.165,106.936,49.221,96.507Z" style="fill: url(#c)"/>
        <path d="M108.32,82.742l3.459-2.279s7.524,1.345,10.034,4.769a17.641,17.641,0,0,1-12.234,17.5l-6.3-.154Z" style="fill: #f7b894"/>
        <path d="M64.836,60.667l-1.554,8.89a18.834,18.834,0,0,0-13.622-.8c.144-2.98,1.3-3.79,1.3-3.79S55.083,61.116,64.836,60.667Z" style="fill: #9e6a2f"/>
        <path d="M63.282,69.557s1.868-7.984,3.3-9.812C66.759,61.966,63.282,69.557,63.282,69.557Z" style="fill: #9e6a2f"/>
        <path d="M72.815,68.442c.092-.244,1.715-10.116,1.715-10.116s.423,2.132-.613,7.2A10.683,10.683,0,0,1,72.815,68.442Z" style="fill: #9e6a2f"/>
        <g>
          <path d="M57.434,76.654l8.414,1.538s-.352,4.032-.577,5.286a11.227,11.227,0,0,1-6.057.326s-1.291-.3-2.081-3.359S57.434,76.654,57.434,76.654Z" style="fill: #fff"/>
          <g style="clip-path: url(#d)">
            <path d="M66.47,80.724c.093,2.609-1.3,4.772-3.107,4.835s-2.655-2.029-2.744-4.637.606-4.738,2.413-4.8S66.38,78.121,66.47,80.724Z" style="fill: url(#e)"/>
          </g>
          <path d="M56.933,77.023l-1.441-2.208s7.919.94,10.355,3.378C63.379,78.146,56.933,77.023,56.933,77.023Z" style="fill: #9e6a2f"/>
        </g>
        <g>
          <g>
            <path d="M75.992,79.27s7.586-2.442,11.016-1.217a44.8,44.8,0,0,1,.519,5.667s-2.619,2.062-9.028,2.046a12.145,12.145,0,0,1-2.239-3.9C75.52,79.071,75.992,79.27,75.992,79.27Z" style="fill: #fff"/>
            <g style="clip-path: url(#f)">
              <ellipse cx="82.96" cy="81.24" rx="4.042" ry="4.723" transform="translate(-5.591 6.133) rotate(-4.096)" style="fill: url(#g)"/>
            </g>
          </g>
          <path d="M75.954,79.621l-1.407-1.745s9.261-2.192,12.461.176C84.059,78.032,75.954,79.621,75.954,79.621Z" style="fill: #9e6a2f"/>
        </g>
        <g>
          <path d="M60.639,117.779c-.351-5.12-.829-12.343-.988-15.176-.335-.1-.674-.193-.987-.3.072,1.642.308,5.658.994,15.628l.036.158a63.236,63.236,0,0,0,7.936,13.417c.582.2,1.2.4,1.821.589C64.551,126.6,61.012,118.638,60.639,117.779Z" style="fill: #75571a"/>
          <path d="M91.727,99.348c-.318.075-.645.154-.985.233,1.237,4.438,3.709,11.229,8.072,15.744.141-.322.286-.661.43-1C95.268,109.99,92.927,103.582,91.727,99.348Z" style="fill: #75571a"/>
          <path d="M83.519,131.912c.34-.111.681-.225,1.017-.342-7.18-7.484-9.345-21.786-9.986-28.723-.331.05-.66.1-.985.144a83.949,83.949,0,0,0,1.963,12.076C77.332,122.448,80.051,128.134,83.519,131.912Z" style="fill: #75571a"/>
        </g>
        <path d="M62.493,108.865s16.031.821,26.722-5.775c-3.813,7.69-14.021,15.259-21.193,15.52A30.116,30.116,0,0,1,62.493,108.865Z" style="fill: #261005"/>
        <path d="M63.79,109.677l2.343,4.434s13.023.2,21.218-9.326C77.056,110.266,63.79,109.677,63.79,109.677Z" style="fill: #fff"/>
        <path d="M68.022,118.609s5.7-4.145,8.35-5.221,6.367-2.091,6.367-2.091S76.56,118.151,68.022,118.609Z" style="fill: #5e2408"/>
        <g>
          <polygon points="92.51 77.144 111.779 80.462 109.199 82.053 92.322 79.635 92.51 77.144" style="fill: #521e1f"/>
          <path d="M61.027,89.877,62.12,82.3l3.857-.182s-.3,4.8-2.394,6.545S61.027,89.877,61.027,89.877Z" style="fill: #fff;opacity: 0.35000000000000003"/>
          <path d="M74.643,91.539l.772-7s8.106,3.148,11.763,2.743c-1.144,4.036-2.113,6.852-2.113,6.852A29.049,29.049,0,0,1,74.643,91.539Z" style="fill: #fff;opacity: 0.35000000000000003"/>
          <path d="M78.292,93.516a27.929,27.929,0,0,1-6.563-2.829c-2.186-1.57-1.651-12.725-1.525-14.944l.037-.628,22.874.553.057.464c.04.335.932,10.365-2.266,15.929C88.635,96.012,82.029,94.67,78.292,93.516Zm-6.972-16.2c-.3,6.042.037,11.642,1.105,12.41a27.447,27.447,0,0,0,6.22,2.656c2.735.843,9.3,2.444,11.227-.909,2.58-4.488,2.224-11.5,2.085-13.25Z" style="fill: #521e1f"/>
          <path d="M56.951,90.92c-1.987-.613-3.565-2.7-4.441-3.929C50.226,83.79,51.077,74.3,51.115,73.9l.052-.588,15.575,1.263v.548c.011,2.151-.063,12.97-2.519,14.539A9.363,9.363,0,0,1,56.951,90.92ZM52.206,75.329c-.222,2.992-.3,8.771,1.271,10.968.729,1.018,2.087,2.948,3.825,3.485a8.287,8.287,0,0,0,6.28-1.121c1.35-.862,1.934-6.644,1.952-11.7Z" style="fill: #521e1f"/>
          <path d="M66.493,80.688,65.454,80.1a3.212,3.212,0,0,1,2.834-1.587,3.7,3.7,0,0,1,2.415,1.3l-.361,1.494a6.482,6.482,0,0,0-2.523-.968C66.8,80.222,66.5,80.666,66.493,80.688Z" style="fill: #521e1f"/>
        </g>
        <path d="M107.892,99.843s5.361-4.6,6.3-7.811c1.518-5.209-4.289-4.587-4.289-4.587s4.289-5.016,8.578-2.536C121.127,86.439,121.321,97.229,107.892,99.843Z" style="fill: #e68b62"/>
      </g>
      <path d="M121.081,150.966c-5.811-2.954-6.256,9.069-4.874,23.735,7.364-2.355,19.15-1.337,25.668-5.451C135.9,162.442,125.3,153.115,121.081,150.966Z" style="fill: #760c10"/>
      <path d="M36.574,170.623a123.445,123.445,0,0,0,21.912,6.618c-.885-15.009-1.758-26.274-1.758-26.274C51.884,153.951,43.773,160.52,36.574,170.623Z" style="fill: #760c10"/>
      <g>
        <path d="M82.095,145.794c-1.459-1.172-2.846-2.253-4.519-1.985-13.1,2.1-20.849,7.158-20.849,7.158l.543,26.01a123.322,123.322,0,0,0,27.383,2.744c-2.194-16.125-4.779-33.4-4.779-33.4S80.653,146.146,82.095,145.794Z" style="fill: #760c10"/>
        <path d="M99.978,143.769a5.3,5.3,0,0,0-2.542.392c.157,6.335.825,18.845,1.762,34.418a102.038,102.038,0,0,0,22.662-5.858l-.779-21.755S113.23,145.842,99.978,143.769Z" style="fill: #760c10"/>
      </g>
      <path d="M121.622,151.215l-1.081-.5c-.195.417-.38.849-.557,1.291l1.105.442Q121.344,151.82,121.622,151.215Z" style="fill: #54090b"/>
      <path d="M118.549,163.881l-1.185-.121c-.083.79-.148,1.588-.2,2.395l1.187.081Q118.43,165.045,118.549,163.881Z" style="fill: #54090b"/>
      <path d="M120.312,154.653l-1.137-.352c-.23.745-.446,1.531-.639,2.335l1.159.278C119.88,156.134,120.091,155.374,120.312,154.653Z" style="fill: #54090b"/>
      <path d="M119.206,159.213l-1.17-.218q-.218,1.165-.385,2.378l1.179.166Q119,160.352,119.206,159.213Z" style="fill: #54090b"/>
      <path d="M57.622,158.093l1.169-.228c-.166-.848-.322-1.632-.469-2.345l-1.166.238C57.3,156.469,57.458,157.25,57.622,158.093Z" style="fill: #54090b"/>
      <path d="M57.829,153.175c-.324-1.5-.522-2.345-.522-2.345l-1.16.277s.2.833.518,2.32Z" style="fill: #54090b"/>
      <path d="M58.5,162.774l1.172-.209q-.22-1.226-.429-2.352l-1.17.219Q58.278,161.55,58.5,162.774Z" style="fill: #54090b"/>
      <path d="M59.29,167.467l1.176-.188c-.128-.807-.26-1.594-.387-2.36l-1.175.2Q59.1,166.26,59.29,167.467Z" style="fill: #54090b"/>
      <polygon points="87.331 140.077 70.851 136.089 64.378 145.759 80.778 152.413 87.331 140.077" style="fill: #f2f2f2"/>
      <polygon points="112.53 143.218 106.437 132.322 87.331 140.077 96.736 152.413 112.53 143.218" style="fill: #f2f2f2"/>
    </g>
  </g>
</svg>
