<svg xmlns="http://www.w3.org/2000/svg" viewBox="0 0 570.989 480.265">
  <defs>
    <style>
      .a {
        isolation: isolate;
      }

      .b {
        fill: #191a1a;
      }

      .c {
        fill: #706e6e;
      }

      .d, .h {
        fill: #fff;
      }

      .d, .j {
        opacity: 0.2;
      }

      .e {
        opacity: 0.5;
      }

      .e, .j {
        mix-blend-mode: overlay;
      }

      .f {
        fill: #eb1c23;
      }

      .g {
        fill: #a1adb7;
      }

      .i {
        fill: #393838;
      }
    </style>
  </defs>
  <title>car-battery</title>
  <g class="a">
    <g>
      <path class="b" d="M540.248,81.129A15.886,15.886,0,0,0,524.66,68.3H46.329A15.886,15.886,0,0,0,30.74,81.129l-9.754,49.7H550Z"/>
      <rect class="c" x="22.205" y="137.883" width="526.578" height="339.418"/>
      <rect class="d" x="22.205" y="137.883" width="8.79" height="339.418"/>
      <rect class="e" x="539.993" y="137.883" width="8.79" height="339.418" transform="translate(1088.777 615.185) rotate(180)"/>
      <path class="f" d="M432.254,140.421,406.3,36.64A48.38,48.38,0,0,0,359.361,0H210.437A48.38,48.38,0,0,0,163.5,36.64l-24.739,98.906c-2.653,10.6,3.215,21.769,13.683,24.917a20.3,20.3,0,0,0,25.568-14.509L200.52,55.979a20.306,20.306,0,0,1,14.612-14.731c.117-.03.249-.06.392-.088a7.471,7.471,0,0,1,7.371,2.751c3.047,4.015,8.925,6.737,15.69,6.737,6.794,0,12.695-2.746,15.73-6.791a7.808,7.808,0,0,1,6.209-3.254h2.435a7.809,7.809,0,0,1,6.209,3.254c3.035,4.045,8.936,6.791,15.73,6.791s12.695-2.746,15.73-6.791a7.809,7.809,0,0,1,6.209-3.254h2.435a7.809,7.809,0,0,1,6.209,3.254c3.035,4.045,8.936,6.791,15.73,6.791,6.683,0,12.5-2.657,15.579-6.594a7.678,7.678,0,0,1,7.425-2.744,16.126,16.126,0,0,1,2.814.706,20.3,20.3,0,0,1,12.247,13.962L390.4,140.421c2.793,11.166,14.5,20.3,26.006,20.3h0C427.915,160.723,435.047,151.587,432.254,140.421Z"/>
      <path class="e" d="M403.44,140,382.578,56.594a38.881,38.881,0,0,0-37.719-29.446H225.174a38.881,38.881,0,0,0-37.719,29.446l-19.882,79.487a16.858,16.858,0,0,0,6.446,17.795,20.187,20.187,0,0,0,4-7.921l22.5-89.975a20.306,20.306,0,0,1,14.612-14.731c.117-.03.249-.06.392-.088a7.471,7.471,0,0,1,7.371,2.752c3.047,4.015,8.925,6.737,15.69,6.737,6.794,0,12.695-2.746,15.73-6.791a7.809,7.809,0,0,1,6.209-3.254h2.435a7.809,7.809,0,0,1,6.209,3.254c3.035,4.045,8.936,6.791,15.73,6.791s12.695-2.746,15.73-6.791a7.809,7.809,0,0,1,6.209-3.254h2.435a7.809,7.809,0,0,1,6.209,3.254c3.035,4.045,8.936,6.791,15.73,6.791,6.683,0,12.5-2.657,15.579-6.594a7.678,7.678,0,0,1,7.425-2.744,16.118,16.118,0,0,1,2.814.706,20.3,20.3,0,0,1,12.247,13.962L390.4,140.421a26.583,26.583,0,0,0,8.59,13.375C403,150.9,404.891,145.8,403.44,140Z"/>
      <g>
        <path class="g" d="M91.446,88.821H64.952A11.5,11.5,0,0,0,53.669,98.1l-7.06,35.973h63.18L102.729,98.1A11.5,11.5,0,0,0,91.446,88.821Z"/>
        <path class="g" d="M517.32,98.1a11.5,11.5,0,0,0-11.283-9.283H479.542A11.5,11.5,0,0,0,468.259,98.1l-7.06,35.973h63.18Z"/>
      </g>
      <rect class="b" x="72.828" y="213.487" width="425.333" height="176.372" rx="16.262" ry="16.262"/>
      <path class="h" d="M113.467,268.841l-2.551,9.192h-8.343l10.893-35.815h10.628l11.159,35.815h-8.768l-2.763-9.192Zm9.087-6.058-2.232-7.6c-.638-2.126-1.276-4.783-1.808-6.908h-.106c-.532,2.126-1.062,4.836-1.648,6.908l-2.125,7.6Zm42.356,14.294a23.774,23.774,0,0,1-9.14,1.541c-12.381,0-18.758-7.757-18.758-17.96,0-12.222,8.714-18.971,19.555-18.971,4.2,0,7.386.8,8.821,1.594l-1.7,6.377a17.069,17.069,0,0,0-6.8-1.328c-6.377,0-11.372,3.879-11.372,11.85,0,7.173,4.252,11.69,11.425,11.69a19.285,19.285,0,0,0,6.8-1.169Zm30.026,0a23.774,23.774,0,0,1-9.14,1.541c-12.381,0-18.758-7.757-18.758-17.96,0-12.222,8.714-18.971,19.555-18.971,4.2,0,7.386.8,8.821,1.594l-1.7,6.377a17.069,17.069,0,0,0-6.8-1.328c-6.377,0-11.372,3.879-11.372,11.85,0,7.173,4.252,11.69,11.425,11.69a19.286,19.286,0,0,0,6.8-1.169Zm13.447-34.859v20.564c0,6.218,2.391,9.353,6.482,9.353,4.252,0,6.589-2.976,6.589-9.353V242.218h8.078V262.3c0,11.053-5.58,16.313-14.933,16.313-9.033,0-14.293-5.048-14.293-16.419v-19.98Zm58.456,22.105c-.159-4.3-.319-9.512-.319-14.719h-.106c-1.169,4.57-2.657,9.672-4.038,13.869l-4.358,13.976h-6.323l-3.826-13.816c-1.169-4.252-2.338-9.353-3.242-14.029h-.107c-.159,4.836-.372,10.363-.584,14.826l-.691,13.6h-7.493l2.285-35.815h10.787l3.507,11.956c1.169,4.145,2.232,8.608,3.029,12.807h.213c.956-4.145,2.178-8.874,3.4-12.86l3.773-11.9h10.628l1.913,35.815h-7.865Zm22.748-22.105v20.564c0,6.218,2.391,9.353,6.482,9.353,4.252,0,6.589-2.976,6.589-9.353V242.218h8.078V262.3c0,11.053-5.58,16.313-14.933,16.313-9.033,0-14.293-5.048-14.293-16.419v-19.98Zm28.22,0h8.078v29.014h14.241v6.8H317.807Zm35.765,26.623-2.551,9.192h-8.342l10.893-35.815H364.2l11.159,35.815H366.59l-2.762-9.192Zm9.087-6.058-2.233-7.6c-.637-2.126-1.275-4.783-1.807-6.908h-.106c-.532,2.126-1.062,4.836-1.647,6.908l-2.125,7.6Zm19.984-13.763H372.97v-6.8H400.5v6.8h-9.778v29.013h-8.077Zm53.407,10.734c0,11.8-7.067,18.863-17.589,18.863-10.574,0-16.844-8.023-16.844-18.279,0-10.734,6.907-18.758,17.429-18.758C430.045,241.581,436.05,249.817,436.05,259.754Zm-25.879.425c0,7.068,3.295,12.009,8.715,12.009,5.473,0,8.608-5.207,8.608-12.169,0-6.482-3.029-12.009-8.608-12.009C413.359,248.01,410.171,253.218,410.171,260.179Zm31.2-17.483a70.624,70.624,0,0,1,10.787-.744c5.314,0,9.033.8,11.584,2.817a9.084,9.084,0,0,1,3.348,7.545,9.488,9.488,0,0,1-6.323,8.768v.159c2.5,1.01,3.879,3.347,4.783,6.643,1.116,4.092,2.178,8.768,2.869,10.149h-8.289a47.908,47.908,0,0,1-2.444-8.342c-1.01-4.517-2.551-5.686-5.9-5.739h-2.392v14.082h-8.023Zm8.023,15.41h3.188c4.038,0,6.43-2.019,6.43-5.154,0-3.242-2.232-4.943-5.952-4.943a16.123,16.123,0,0,0-3.667.266Z"/>
      <g>
        <path class="f" d="M136.173,330.256v-.182c6.948-2.653,10.147-7.681,10.147-13.075a13.373,13.373,0,0,0-7.314-12.159c-4.572-2.651-9.783-3.474-18.285-3.474a121.6,121.6,0,0,0-18.011,1.281V363.17a107.854,107.854,0,0,0,15.085.913c12.251,0,19.747-2.01,24.228-5.576a16.464,16.464,0,0,0,6.4-13.166C148.424,337.479,143.212,332.084,136.173,330.256ZM116.516,311.88a36.265,36.265,0,0,1,5.943-.366c6.308,0,9.874,2.47,9.874,7.132,0,4.571-3.84,7.587-11.245,7.587h-4.572Zm5.395,41.873a43.725,43.725,0,0,1-5.395-.184V336.2h4.754c6.948,0,12.525,2.469,12.525,8.594C133.8,351.284,128.218,353.753,121.911,353.753Z"/>
        <polygon class="f" points="211.628 313.525 228.268 313.525 228.268 363.443 242.164 363.443 242.164 313.525 258.987 313.525 258.987 301.823 211.628 301.823 211.628 313.525"/>
        <polygon class="f" points="263.744 313.525 280.385 313.525 280.385 363.443 294.28 363.443 294.28 313.525 311.102 313.525 311.102 301.823 263.744 301.823 263.744 313.525"/>
        <polygon class="f" points="332.502 337.388 355.175 337.388 355.175 326.051 332.502 326.051 332.502 313.252 356.546 313.252 356.546 301.823 318.604 301.823 318.604 363.443 357.826 363.443 357.826 352.015 332.502 352.015 332.502 337.388"/>
        <path class="f" d="M400.709,334.553v-.273c5.3-1.92,10.879-7.314,10.879-15.087,0-5.668-2.012-10.056-5.759-12.981-4.389-3.474-10.788-4.846-19.931-4.846a121.418,121.418,0,0,0-18.559,1.281v60.8h13.8V339.216h4.115c5.76.091,8.411,2.1,10.148,9.874,1.736,7.587,3.29,12.525,4.205,14.353h14.262c-1.188-2.377-3.016-10.422-4.936-17.461C407.384,340.312,405.006,336.291,400.709,334.553Zm-14.08-5.394h-5.486V312.245a27.726,27.726,0,0,1,6.309-.458c6.4,0,10.24,2.927,10.24,8.5C397.693,325.685,393.578,329.16,386.63,329.16Z"/>
        <path class="f" d="M452.644,301.823l-6.217,14.811c-1.828,4.389-3.29,7.955-4.663,11.795h-.182c-1.462-4.024-2.834-7.314-4.754-11.795l-6.217-14.811h-16l19.474,36.388v25.232h13.9v-25.69l20.3-35.93Z"/>
        <polygon class="f" points="192.006 301.828 176.895 301.828 176.895 324.849 153.874 324.849 153.874 339.96 176.895 339.96 176.895 362.981 192.006 362.981 192.006 339.96 215.027 339.96 215.027 324.849 192.006 324.849 192.006 301.828"/>
      </g>
      <rect class="e" x="22.205" y="181.025" width="526.578" height="9.995"/>
      <g class="e">
        <polygon points="520.614 114.889 464.965 114.889 462.724 126.308 522.855 126.308 520.614 114.889"/>
        <polygon points="48.134 126.308 108.264 126.308 106.023 114.889 50.375 114.889 48.134 126.308"/>
      </g>
      <path class="i" d="M559.532,123.08H11.457A11.457,11.457,0,0,0,0,134.537v28.158a18.33,18.33,0,0,0,18.33,18.33H552.659a18.33,18.33,0,0,0,18.33-18.33V134.537A11.457,11.457,0,0,0,559.532,123.08Z"/>
      <path class="i" d="M552.658,422.32H484.31a25.06,25.06,0,0,1-50.12,0H397.432a25.06,25.06,0,0,1-50.12,0H310.554a25.06,25.06,0,0,1-50.12,0H223.676a25.06,25.06,0,0,1-50.12,0H136.8a25.06,25.06,0,0,1-50.12,0H18.33A18.33,18.33,0,0,0,0,440.65v28.158a11.457,11.457,0,0,0,11.457,11.457H559.532a11.457,11.457,0,0,0,11.457-11.457V440.65A18.33,18.33,0,0,0,552.658,422.32Z"/>
      <path class="d" d="M18.33,181.025H31c-9.643,0-17.461-8.207-17.461-18.33V134.537A11.2,11.2,0,0,1,24.449,123.08H11.457A11.457,11.457,0,0,0,0,134.537V162.7A18.33,18.33,0,0,0,18.33,181.025Z"/>
      <path class="e" d="M552.658,422.32H539.993c9.644,0,17.461,8.207,17.461,18.33v28.158a11.2,11.2,0,0,1-10.914,11.457h12.992a11.457,11.457,0,0,0,11.457-11.457V440.65A18.33,18.33,0,0,0,552.658,422.32Z"/>
      <path class="e" d="M559.532,123.08H546.54a11.2,11.2,0,0,1,10.914,11.457V162.7c0,10.123-7.818,18.33-17.461,18.33h12.666a18.33,18.33,0,0,0,18.33-18.33V134.537A11.457,11.457,0,0,0,559.532,123.08Z"/>
      <path class="d" d="M13.534,468.808V440.65c0-10.123,7.818-18.33,17.461-18.33H18.33A18.33,18.33,0,0,0,0,440.65v28.158a11.457,11.457,0,0,0,11.457,11.457H24.449A11.2,11.2,0,0,1,13.534,468.808Z"/>
      <path class="j" d="M.027,469.336a11.447,11.447,0,0,0,11.43,10.929H559.532a11.447,11.447,0,0,0,11.43-10.929Z"/>
      <path class="j" d="M.976,168.56A18.324,18.324,0,0,0,18.33,181.025H552.659a18.324,18.324,0,0,0,17.354-12.465Z"/>
    </g>
  </g>
</svg>
