<svg xmlns="http://www.w3.org/2000/svg" viewBox="0 0 262.045 275.878">
  <defs>
    <style>
      .a {
        fill: #e6e3e3;
      }

      .b {
        fill: #f7f5f5;
      }

      .c {
        fill: #ebe8e8;
        opacity: 0.5;
      }

      .d {
        fill: #dfd0cb;
      }

      .e {
        fill: #d9d9d9;
      }

      .f {
        fill: #7fc4db;
      }

      .g {
        fill: #d4c3be;
      }

      .h {
        fill: #948886;
      }

      .i {
        fill: #676770;
      }

      .j {
        fill: #dc4a3a;
        opacity: 0.11;
      }
    </style>
  </defs>
  <title>cat-c</title>
  <g>
    <g>
      <path class="a" d="M401.236,319.37c2.926,1.171,11.571,10.447,17.324,9.561,6.586-4.063,9.673-13.359,5.332-17.561-6.888-6.669-19.424-14.062-24.541-14.062s-25.183,22.326-34.787,31.282l-7.86,29.183c17.13,3.072,25.311-9.448,31.848-19.347C388.554,338.422,397.868,318.023,401.236,319.37Z" transform="translate(-163.862 -154.504)"/>
      <path class="b" d="M228.017,225.545s-.086-10.561-3.226-16.247c0,0,12.972,12.8,15.228,25,0,0,1.8-4.791,1.711-6.971,0,0,8.462,31.414-16.94,67.965,0,0-11.776,16.9-20.5,30.53s-13.9,49.759,13.086,55.818l-.545,12.034s-52.427-3.521-52.973-50.588a51.054,51.054,0,0,0,4.1,5.826s-6.738-22.854,18.3-43.325-2.225-44.64-7.858-49.728-20.171-31.575,4.089-48.066C182.488,207.792,210.715,189.872,228.017,225.545Z" transform="translate(-163.862 -154.504)"/>
      <path class="b" d="M301.462,254.392s3.477,20.4-50.914,44.817-44.517,94.548-29.1,123.27c0,0,2.332,7.363,15.961,7.363h61.059s2-18.8-24.351-18.621c0,0,13.668-15.937,45.976-31.075s51.3-22.191,55.546-59.979-7.452-72.2-16.961-83.8S303.366,233.857,301.462,254.392Z" transform="translate(-163.862 -154.504)"/>
      <path class="c" d="M291.354,308.364s-6.274,37.22,4.353,85.309l11.081-6.52,6.815-55.335Z" transform="translate(-163.862 -154.504)"/>
      <path class="b" d="M353.942,430.382c.7-19.03-17.571-16.437-17.571-16.437-11.711-23.154-6-68.02-2.472-96.164s-10.048-36.47-19.6-36.47-21.512,6.524-23.487,32,16.576,83.253,23.969,101.371c4.514,11.064,12.144,14.613,17.4,15.7Z" transform="translate(-163.862 -154.504)"/>
      <path class="c" d="M309.268,258.973s25.081,21.234,41.615,23.493,21.757-5.077,23.906-17.649-22.8-22.7-22.8-22.7Z" transform="translate(-163.862 -154.504)"/>
      <path class="b" d="M362.441,185.538S378.1,154.5,379.951,154.5s18.2,10.506,12.367,50.122c0,0,14.521,22.977,13.048,33.821s-25.44,32.53-41.917,37.017c-13.433,3.658-48.049-7.347-61.891-16.907-3.136-2.166-5.206-4.258-5.721-6.088,0,0-1.856-9.8,2.171-25.84,0,0-2.7-2.224-4.58-7.635s-9.93-26.163-10.491-39.063a7.149,7.149,0,0,1,5.243-1.683c3.37.187,19.4,3.121,31.421,15.115A240.306,240.306,0,0,1,362.441,185.538Z" transform="translate(-163.862 -154.504)"/>
      <path class="d" d="M314.064,198.026c-9.853-15.781-31.128-18.069-31.128-18.069.562,12.9,8.613,33.652,10.491,39.063A20.821,20.821,0,0,0,297,225.6a6.637,6.637,0,0,0,4.618,2.108C306.4,206.871,312.653,199.48,314.064,198.026Z" transform="translate(-163.862 -154.504)"/>
      <path class="d" d="M370.92,186.624c10.813,6.834,21.379,18,21.379,18,5.838-39.616-10.519-50.121-12.367-50.121Z" transform="translate(-163.862 -154.504)"/>
      <path class="e" d="M320.29,223.022c.7-.053,7.484-6.543,15.819-3.365s9.556,13.827,9.6,15.56a26.558,26.558,0,0,1-16.619,1.61C320.2,234.614,320.29,223.022,320.29,223.022Z" transform="translate(-163.862 -154.504)"/>
      <path class="e" d="M372.327,228.289s-4.594-10.771,4.583-15.7,14.256,1.154,14.256,1.154a13.534,13.534,0,0,1-5.381,12.892A15.7,15.7,0,0,1,372.327,228.289Z" transform="translate(-163.862 -154.504)"/>
      <path class="f" d="M336.981,231.135a21.6,21.6,0,0,0-2.237-11.775c-7.906-2.385-14.226,3.606-14.9,3.656,0,0-.094,11.591,8.8,13.805a23.645,23.645,0,0,0,5.735.679A11.162,11.162,0,0,0,336.981,231.135Z" transform="translate(-163.862 -154.504)"/>
      <path class="f" d="M386.725,225.824c.3-9.37-5.906-12.8-8.629-13.849-.4.178-.789.353-1.2.574-9.177,4.929-4.583,15.7-4.583,15.7A15.7,15.7,0,0,0,385.77,226.6C386.114,226.347,386.422,226.086,386.725,225.824Z" transform="translate(-163.862 -154.504)"/>
      <path class="g" d="M365.465,231.142s-19.486,2.07-19.27,18.9,19.059,14.621,23.774,13.48,14.812-6.679,13.488-20.329S365.465,231.142,365.465,231.142Z" transform="translate(-163.862 -154.504)"/>
      <path class="h" d="M357.832,250.6c-.162-.1,7.4,1.014,7.958-8.118h1.464s.923,8.254,7.523,7.226c0,0-6.179,3.459-8-3.6C366.773,246.111,363.871,254.252,357.832,250.6Z" transform="translate(-163.862 -154.504)"/>
      <path class="i" d="M366.293,234.8c-.419.043-7.111.646-6.823,4.039,0,0,.406,2.069,3.236,2.194a4.6,4.6,0,0,0,4.36,2.476c2.975-.31,3.259-4,3.259-4a2.88,2.88,0,0,0,2.274-2.964C372.431,234.122,366.293,234.8,366.293,234.8Z" transform="translate(-163.862 -154.504)"/>
      <ellipse class="j" cx="169.138" cy="98.252" rx="12.71" ry="12.69"/>
      <ellipse class="j" cx="229.988" cy="81.737" rx="11.182" ry="11.164"/>
      <path class="e" d="M356.849,245.221s-14.886-6.837-53.364-1.315C303.485,243.906,338.312,233.724,356.849,245.221Z" transform="translate(-163.862 -154.504)"/>
      <path class="e" d="M354.767,247.961s-27.757-5.444-48.613,6.431C306.154,254.392,323.424,239.156,354.767,247.961Z" transform="translate(-163.862 -154.504)"/>
      <path class="e" d="M324.831,258.7a58.629,58.629,0,0,1,28.929-8.171S337.891,247.2,324.831,258.7Z" transform="translate(-163.862 -154.504)"/>
      <path class="e" d="M374.789,239.882c-.4.494,9.362-17.483,33.516-19.9C408.306,219.982,387.147,224.809,374.789,239.882Z" transform="translate(-163.862 -154.504)"/>
      <path class="e" d="M374.777,242.484s15.635-15.654,37.682-14.776C412.46,227.708,389.476,230.862,374.777,242.484Z" transform="translate(-163.862 -154.504)"/>
      <path class="e" d="M375.386,245.221a55.93,55.93,0,0,1,32.92-6.1S392.238,233.392,375.386,245.221Z" transform="translate(-163.862 -154.504)"/>
    </g>
    <circle class="b" cx="163.367" cy="70.961" r="2.465"/>
    <circle class="b" cx="212.673" cy="65.02" r="2.465"/>
  </g>
</svg>
