<svg xmlns="http://www.w3.org/2000/svg" viewBox="0 0 258.803 285.737">
  <defs>
    <style>
      .a {
        fill: #c57528;
      }

      .b {
        fill: #f0eded;
      }

      .c {
        fill: #e89832;
      }

      .d {
        fill: #f5f5f5;
      }

      .e {
        fill: #502a11;
      }

      .f {
        fill: #b2b3b5;
      }

      .g {
        fill: #eca679;
      }

      .h {
        fill: #e8bcb1;
      }

      .i {
        fill: #c27229;
      }

      .j {
        fill: #e0e6e9;
      }

      .k {
        fill: #e1dede;
      }

      .l {
        fill: #ad5718;
        opacity: 0.5;
      }
    </style>
  </defs>
  <title>cat-a</title>
  <g>
    <path class="a" d="M411.744,318.677l1.367,7.653s-23.233-18.313-19.953-41,13.666-24.053,21.046-34.166,5.74-25.966-5.74-31.979-29.519.82-34.986,18.039l-.82-11.753s-20.5,27.332-16.126,56.578c4.253,28.445,30.222,48.872,44.467,62.041,1.731,1.888,8.342,9.646,8.592,18.287.006.206.025.381.042.563.3,13.256-8.942,27.066-30.688,25.979l-5.74,22.549,2.05-.82s50.428-1.23,54.118-40.179S411.744,318.677,411.744,318.677Z" transform="translate(-171 -154.49)"/>
    <path class="a" d="M220.8,331.38s6.145,54.861-4.257,76.252c0,0-.1,0-.287,0l.212.2c-17.823.882-16.439,14.039-16.144,15.945h22.635c2.655-1.577,10.555-6.878,14.523-16.193,4.813-11.3,15.253-50.481,16.955-65.514S220.8,331.38,220.8,331.38Z" transform="translate(-171 -154.49)"/>
    <path class="b" d="M315.749,415.2s-8.56.144-17.215-.048c0,0-13.1-.383-13.772,12.385l-.048,1.339a1.315,1.315,0,0,0,1.339.956s59.775.191,76.225-.574c0,0,5.356.191,7.842-6.121s8.416-18.363,9.947-28.5S315.749,415.2,315.749,415.2Z" transform="translate(-171 -154.49)"/>
    <path class="c" d="M277.35,380.675s.134.15.387.431c3.453,3.824,29.063,31.874,39.4,34.191,11.094,2.487,47.629,3.443,54.9-1.721s12.051-16.068,11.286-39.4S361.7,291.794,304.575,268.84c0,0-8.289-3.571-12.369-4.973s-12.5-3.7-14.282-6.886-9.436,13.517-9.436,13.517l-20.658,55.726Z" transform="translate(-171 -154.49)"/>
    <path class="c" d="M289.318,225.763c22.276-52.659,12.832-58.22,12.832-58.22-16.2.993-41.691,14.977-41.691,14.977-15.968-6.939-28.657-4.562-28.657-4.562L210.266,154.49c-10.855.143-10.777,44.88-10.777,44.88s-15.722,9.838-15.939,18.6,12.8,28.166,12.8,28.166l15.535,21.441,5.1,6.135c11.441,13.875,19,62.219,19.711,66.875,1.837-1.562,10.845-9.306,15.625-14.914a75.083,75.083,0,0,0,15.367-33.182c.72-2.736,4.16-33.119,10.973-35.331a23.764,23.764,0,0,0,10.479-6.788l-1.009-3.271,3.117,1.461c.442-3.373-1.644-8.217-1.644-8.217l2.677,1.541C292.745,234.694,289.318,225.763,289.318,225.763Z" transform="translate(-171 -154.49)"/>
    <path class="b" d="M189.17,225.356s17.406,33.474,20.467,43.421-.956,19.7-.765,24.866l2.678-3.634s-4.208,11.668,5.164,35.961,52.219,49.924,52.219,49.924l9.947,5.93s-25.249-37.491-26.205-64.461-.191-33.091-.191-33.091l5.738,1.913a56.778,56.778,0,0,0-4.4-8.99,27.332,27.332,0,0,0,4.973-6.5s-6.886-.765-7.842-1.53c0,0,5.356-5.547,8.225-6.5,0,0-8.99-.956-11.859-.191,0,0,8.416-12.624,19.893-17.215a49.876,49.876,0,0,0-11.668-.383s8.8-7.269,14.537-8.608c0,0-6.886-4.782-12.624-4.591,0,0,8.225-4.4,11.285-8.608,0,0-20.371,6.886-28.309.956s-8.608-16.833-16.45-17.885a9.229,9.229,0,0,0-8.894,4.782c-3.443,5.643-13.485,8.8-20.371-3.539,0,0-2.1,5.643-.191,10.616a36.713,36.713,0,0,0-6.025-1.53s4.4,6.79,4.973,10.329A8.987,8.987,0,0,0,189.17,225.356Z" transform="translate(-171 -154.49)"/>
    <path class="d" d="M236.7,216.666a11.29,11.29,0,0,0,10.441,8.355c8.628.483,17.942-4.1,17.308-16.824,0,0-4.985-5.951-16.378-4.107S236.7,216.666,236.7,216.666Z" transform="translate(-171 -154.49)"/>
    <path class="d" d="M206.564,196.19s-4.056,1.728-5.309,8.594,4.049,10.129,6.224,9.886,6.02-2.333,8.286-7.64C215.766,207.03,213.21,197.358,206.564,196.19Z" transform="translate(-171 -154.49)"/>
    <path class="e" d="M255.661,223.667c5.363-2.117,9.465-6.992,9.037-15.577,0,0-4.315-5.133-14.074-4.377C249.96,207.085,247.989,219.952,255.661,223.667Z" transform="translate(-171 -154.49)"/>
    <path class="e" d="M206.735,214.634a2.808,2.808,0,0,0,.819.054c2.175-.243,6.02-2.333,8.286-7.64,0,0-1.846-6.926-6.448-9.758C207.4,199.064,201.453,205.447,206.735,214.634Z" transform="translate(-171 -154.49)"/>
    <path class="f" d="M198.766,238.041s9.693,1.338,15.908-12.524l.773,1.055S209.726,241.447,198.766,238.041Z" transform="translate(-171 -154.49)"/>
    <path class="f" d="M214.866,227.745s3.033,16.106,19.048,15.072c0,0-14.47-.579-17.718-15.56" transform="translate(-171 -154.49)"/>
    <path class="g" d="M211.929,220.338s-3.361-1.068-2.881-2.527,5.357-.917,8.5-.537,7.886,1.66,7.653,3.309-4.632,1.093-4.632,1.093-.888,7.972-5.657,7.1S211.929,220.338,211.929,220.338Z" transform="translate(-171 -154.49)"/>
    <path class="h" d="M220.4,188.533S208.538,160.841,210.3,154.5l0,0c-10.855.142-10.777,44.88-10.777,44.88S213.819,191.252,220.4,188.533Z" transform="translate(-171 -154.49)"/>
    <path class="h" d="M268.651,197.489c17.542,20.366,20.667,28.274,20.667,28.274,16.147-38.17,15.627-51.591,14.119-56.089C302.2,173.723,268.651,197.489,268.651,197.489Z" transform="translate(-171 -154.49)"/>
    <path class="i" d="M242.624,177.828s-9.271,4.521-17.25,24.79c0,0,9.525-16.7,23.394-23.838C248.768,178.78,244.273,177.968,242.624,177.828Z" transform="translate(-171 -154.49)"/>
    <path class="j" d="M178.352,229.766s19.078-.892,28.5-.145C206.857,229.622,192.543,226.409,178.352,229.766Z" transform="translate(-171 -154.49)"/>
    <path class="j" d="M186.4,240.265s10.355-5.2,17.857-6.882C204.255,233.383,193.292,233.62,186.4,240.265Z" transform="translate(-171 -154.49)"/>
    <path class="j" d="M226.7,236.076a269.121,269.121,0,0,1,45.991,15.687S254.532,239.033,226.7,236.076Z" transform="translate(-171 -154.49)"/>
    <path class="i" d="M252.606,179.722s-12.2,9.51-18.5,20.119c0,0,17.284-16.1,23.5-18.474C257.61,181.366,253.642,180,252.606,179.722Z" transform="translate(-171 -154.49)"/>
    <path class="i" d="M232.754,177.823s-8.218,9.048-10.013,17.884c0,0,9.969-15.639,14.818-18.141A38.263,38.263,0,0,0,232.754,177.823Z" transform="translate(-171 -154.49)"/>
    <path class="i" d="M266.261,230.019s7.749-3.686,23.981-1.5c0,0,1.43,5.374,1.66,7.075C291.9,235.589,270.187,230.4,266.261,230.019Z" transform="translate(-171 -154.49)"/>
    <path class="j" d="M224.428,227.96s38.55-.644,74.248,7.018C298.676,234.978,253.055,223.339,224.428,227.96Z" transform="translate(-171 -154.49)"/>
    <path class="i" d="M268.32,239.5s6.3-3.825,22.08,3.059a15.546,15.546,0,0,1,.843,6S274.189,240.84,268.32,239.5Z" transform="translate(-171 -154.49)"/>
    <path class="j" d="M223.432,232.031s35.129,1.827,61.769,11.267C285.2,243.3,254.92,231.161,223.432,232.031Z" transform="translate(-171 -154.49)"/>
    <path class="i" d="M185.515,212.3s4.977,1.911,6.591,3.751a9.2,9.2,0,0,0-3.944-7.238A28.242,28.242,0,0,0,185.515,212.3Z" transform="translate(-171 -154.49)"/>
    <path class="i" d="M183.782,220.5a67.111,67.111,0,0,1,7.425,4.126s-2.121-6.606-7.157-9.3A9.744,9.744,0,0,0,183.782,220.5Z" transform="translate(-171 -154.49)"/>
    <path class="j" d="M171,214.441s24.377,6.5,37.147,10.622C208.147,225.063,194.144,217.8,171,214.441Z" transform="translate(-171 -154.49)"/>
    <circle class="d" cx="212.836" cy="206.816" r="1.603" transform="translate(-195.107 231.015) rotate(-81.2)"/>
    <circle class="d" cx="260.923" cy="210.502" r="1.603" transform="translate(-158.02 281.658) rotate(-81.2)"/>
    <path class="b" d="M211.55,290.009s-3.507,11.094.191,30.6c0,0,2.3-3.953,3.826-4.081s2.55-16.705,2.55-16.705Z" transform="translate(-171 -154.49)"/>
    <path class="a" d="M282.9,386.669l4.081,4.846s19.638-62.485,4.336-87.989S282.9,386.669,282.9,386.669Z" transform="translate(-171 -154.49)"/>
    <path class="c" d="M258,290c-10.306,9.138-1.166,78.548-1.144,78.714.933,17.116,1.06,43.267-5.472,56.334a36.914,36.914,0,0,0-8.988,1.312c-8.611,3.547-7.918,11.449-7.481,13.867h23.118c2.894-1.728,10.149-6.718,13.875-15.225,3.963-9.05,11.818-36.862,15.218-54.023C313.25,284.531,268.319,280.851,258,290Z" transform="translate(-171 -154.49)"/>
    <path class="b" d="M255.074,413.007a47.658,47.658,0,0,1-3.755,11.978,36.914,36.914,0,0,0-8.988,1.312c-8.611,3.547-7.918,11.449-7.481,13.867h23.118c2.893-1.728,10.149-6.718,13.874-15.226.943-2.153,2.108-5.377,3.379-9.26A79.662,79.662,0,0,1,255.074,413.007Z" transform="translate(-171 -154.49)"/>
    <path class="k" d="M218.456,402.874a37.22,37.22,0,0,1-1.877,4.758s-.105,0-.287,0l.212.2c-17.823.882-16.439,14.039-16.144,15.945H223c2.655-1.577,10.555-6.878,14.523-16.193.1-.234.205-.5.309-.754A51.5,51.5,0,0,1,218.456,402.874Z" transform="translate(-171 -154.49)"/>
    <path class="i" d="M340.323,405.365s3.209-17.325,6.653-21.151,12.911-10.425,35.865-14.537a62.836,62.836,0,0,1,.574,13.007s-26.779,3.634-31.561,7.747S340.323,405.365,340.323,405.365Z" transform="translate(-171 -154.49)"/>
    <path class="i" d="M335.4,352.557s8.321,1.052,13.485.382,27.449-8.8,27.449-8.8,1.913,5.26,2.3,6.5c0,0-22.475,5.165-28.979,6.217S335.4,352.557,335.4,352.557Z" transform="translate(-171 -154.49)"/>
    <path class="i" d="M361.9,316.788s-27.353,11.859-51.072,10.9c0,0,11.477,6.886,22.954,7.077s35.961-5.164,35.961-5.164S364.382,319.466,361.9,316.788Z" transform="translate(-171 -154.49)"/>
    <path class="i" d="M304.613,268.9c-7.844,3.726-20.553,8.02-33.394,4.962,0,0,21.72,8.78,36.752,4.7,4.418-1.2,7.757-2.252,10.285-3.143C312.93,272.577,306.28,269.627,304.613,268.9Z" transform="translate(-171 -154.49)"/>
    <path class="i" d="M335.348,286.991c-9.4,5.507-25.913,12.973-43.274,10.351,0,0,16.093,10.582,34.685,6.321a109.208,109.208,0,0,0,19.762-6.461C342.725,293.454,337.453,288.821,335.348,286.991Z" transform="translate(-171 -154.49)"/>
    <path class="i" d="M335.4,352.557a25.9,25.9,0,0,0,15.207,6.057c9.309.51,14.665-2.168,18.873-3.443s9.564-3.06,9.564-3.06a53.526,53.526,0,0,0-2.71-7.97S347.231,356.319,335.4,352.557Z" transform="translate(-171 -154.49)"/>
    <path class="i" d="M252.866,320.422s5.93-7.269,11.668-10.9,9.373-6.312,9.373-6.312-11.477,17.406-20.467,24.675Z" transform="translate(-171 -154.49)"/>
    <path class="i" d="M254.182,341s14.834-9.177,20.876-12.211l4.775-2.7s-12.121,15.68-24.792,23.709Z" transform="translate(-171 -154.49)"/>
    <path class="l" d="M403.167,262.333s-4-14-23.5-14.167a23.605,23.605,0,0,0-7.833,3s5-1.167,9,1.167S395.667,261,398,269.167Z" transform="translate(-171 -154.49)"/>
    <path class="l" d="M409.667,256s2.667-22.833-18.167-23.167c0,0,10.167-3.667,18,2.667s5.5,14.333,5.5,14.333S412.167,254.5,409.667,256Z" transform="translate(-171 -154.49)"/>
    <path class="i" d="M256,360.583c.25,0,15.917-6,18.667-7.5s5.5-3.25,5.5-3.25-9.667,12.583-23.417,17.333Z" transform="translate(-171 -154.49)"/>
    <path class="l" d="M393.667,281.167S381,277.5,375.333,279s-10,5.667-10.333,7.667c0,0,7-3.333,10.667-3.333s17,5.667,17,5.667Z" transform="translate(-171 -154.49)"/>
    <path class="l" d="M395.667,303.833s-9.667-4.333-15-1.333c0,0,14.583,3.688,19.583,9.438Z" transform="translate(-171 -154.49)"/>
    <path class="l" d="M413.111,326.331s-11.777-1.164-16.277-4.33-6.333-4.667-6.333-4.667a66.559,66.559,0,0,0,17.167,4.167Z" transform="translate(-171 -154.49)"/>
    <path class="l" d="M392.667,336.667S405,335.5,411,337.833a25.546,25.546,0,0,1,9.5,6.5s-10.5-4-20.667-1.333Z" transform="translate(-171 -154.49)"/>
    <path class="l" d="M416.333,354.667s12,2.833,13.167,8.5c0,0,.08,5.612-.127,7.306C429.373,370.472,419.5,355.833,416.333,354.667Z" transform="translate(-171 -154.49)"/>
    <path class="l" d="M416,376.5s4,9.167,3.5,16.5c0,0-4.333,4.833-6,5.167C413.5,398.167,416.333,386.167,416,376.5Z" transform="translate(-171 -154.49)"/>
  </g>
</svg>
