<svg xmlns="http://www.w3.org/2000/svg" viewBox="0 0 337.597 239.151">
  <defs>
    <style>
      .a {
        fill: #f5f2f2;
      }

      .b {
        fill: #c26d1b;
      }

      .c {
        fill: #10100e;
      }

      .d {
        fill: #d9dadb;
      }

      .e {
        fill: #c4c5c6;
      }

      .f {
        fill: #d9d9d9;
      }

      .g {
        fill: #bf6a1c;
      }

      .h {
        fill: #eea333;
      }

      .i {
        fill: #161213;
      }

      .j {
        fill: #afb1b3;
      }

      .k {
        fill: #deb9b9;
      }

      .l {
        fill: #c4c6c7;
      }

      .m {
        fill: #e69022;
      }
    </style>
  </defs>
  <title>cat-b</title>
  <g>
    <path class="a" d="M219.619,265.982a163.811,163.811,0,0,1-21.672,5.131c-37.853,6.159-45.935-24.591-39.469-31.867s5.395-11.81,4.922-15.4-4.887-8.392-11.56-8.159-29.606,6.391-7.945,44.094c15.365,26.744,43.53,28.648,67.4,24.15A159.19,159.19,0,0,1,219.619,265.982Z" transform="translate(-134.794 -172.799)"/>
    <path class="b" d="M192.862,285.8s-7.583-1.292-8-6.5,4.208-7.333,6.375-7.5,18.875-2.208,32.208-7.458-11,19.583-11,19.583S200.529,286.179,192.862,285.8Z" transform="translate(-134.794 -172.799)"/>
    <path class="c" d="M205.2,284.971a29.518,29.518,0,0,1-4-7.333c-1-3.333.167-6.667,3.833-7.167s3.667,2.833,4,4.667,3.833,8.833,3.833,8.833Z" transform="translate(-134.794 -172.799)"/>
    <path class="d" d="M422.127,298.763s-4.548,22.75-6.688,33.5-2.14,40.625,4.815,53.375l.758,1.083s16.095-1.333,15.515,12.833l-18.725-.083a7.411,7.411,0,0,1-4.057-1.542c-2.229-1.583-19.661-25-23.05-66Z" transform="translate(-134.794 -172.799)"/>
    <path class="d" d="M260.023,399.534s1.576-13.612-12.139-12.436c0,0-9.459-11.007-8.119-14.116s28.062-16.469,33.9-31.425L210.993,353.32s18.524,46.214,32.161,46.214Z" transform="translate(-134.794 -172.799)"/>
    <path class="a" d="M398.7,258.513l-6.569,6.262c-6.946-14.459-12.8-26.206-12.8-26.206L368.9,243.042c-2.233,11.241-10.541,13.512-14.839,13.919-11.965,2.344-102.149-20.06-136.066,9.906,0,0-9.667,7.333-14.667,37.667-1.093,6.629-1.919,11.446-2.633,15.036-2.885,10.93-17.685,24.589-17.685,24.589l.007.061c-6.4,6.15-14.982,15.609-16.79,23.614a84.815,84.815,0,0,0-1.4,8.536l0,0s-.02.176-.053.475-.068.6-.1.907c-.6,5.4-2.709,25.159-2.134,29.322.664,4.813,6.463,4.875,6.513,4.875h17.679a23.2,23.2,0,0,0-.3-6.312,9.391,9.391,0,0,0-.218-.927q-.036-.134-.074-.267c-1.389-4.433-5.566-5.686-6.9-5.978a4.043,4.043,0,0,1-.425-.082h0c-.6-.148-1.4-.49-1.474-1.266-.125-1.25,3-21.835,10.5-25.293s52.5-17.957,63.25-23.457c0,0,74.587-1.89,119.315-6.219l6.436-.727a30.652,30.652,0,0,0,11.407-1.4,28.127,28.127,0,0,0,4.6-1.641c29.55-11.965,30.919-44.913,32.11-50.866,1.25-6.25,7-11.5,7-11.5l2.5-16.75Z" transform="translate(-134.794 -172.799)"/>
    <path class="e" d="M404.049,334.391l-.72.982Z" transform="translate(-134.794 -172.799)"/>
    <path class="f" d="M352.971,343.8s-10.438-48.306,7.04-54.046,14.857,36.723,14.857,36.723l-13.323,16.468Z" transform="translate(-134.794 -172.799)"/>
    <g>
      <path class="a" d="M412.877,409.169l-18.683.4s-7.617.74-12.577-11.235-20.5-52.625-24.75-64.625-10.993-44.125,8.941-47.875,22.934,35.75,23.184,56,7,47.75,9,54C397.991,395.831,415.262,392.882,412.877,409.169Z" transform="translate(-134.794 -172.799)"/>
      <path class="a" d="M397.991,395.831c-.928-2.9-2.878-10.378-4.728-19.581h0c-6.938,8.257-18.386,5.075-18.391,5.074,2.806,7.218,5.254,13.41,6.744,17.007,4.961,11.975,12.577,11.235,12.577,11.235l18.683-.4C415.262,392.882,397.991,395.831,397.991,395.831Z" transform="translate(-134.794 -172.799)"/>
    </g>
    <path class="g" d="M435.205,246.031a104.732,104.732,0,0,0-15.546,9.837s8.985-2.307,13.409-3.07C433.069,252.8,434.647,247.381,435.205,246.031Z" transform="translate(-134.794 -172.799)"/>
    <path class="g" d="M432.288,259.518c.039-.51-3.88,6.682-5.921,11.849l-.874,3.083s5.84-6.42,6.42-6.585C431.913,267.866,432.237,260.189,432.288,259.518Z" transform="translate(-134.794 -172.799)"/>
    <path class="c" d="M258.287,273.128c4.76,3.6,6.209,11.247,3.93,16a25.062,25.062,0,0,1-6.592,8.951c-2.344,2.062-4.844,4.931-8.129,5.807-4.567,1.466-5.137-4.675-5.422-7.243-.661-3.646-1.917-7.238-2.015-10.775.025-5.189,2.086-8.813,6.745-11.769a17.429,17.429,0,0,1,8.7-2.682l.376.072A12.521,12.521,0,0,1,258.287,273.128Z" transform="translate(-134.794 -172.799)"/>
    <path class="f" d="M370.945,247.513s21.25,32.5,39.75,35.25c0,0,13,.25,21.75-7.75s-14.75-23.5-14.75-23.5Z" transform="translate(-134.794 -172.799)"/>
    <path class="a" d="M441.1,203.337s22.892-20.708,24.423-20.118,11.726,14.52-5.767,45.477c0,0,4.69,23.676,0,32.189s-31.47,18.823-46.555,17.277c-12.3-1.261-37.462-21.438-45.876-33.781-1.906-2.8-2.953-5.191-2.8-6.872,0,0,1.594-8.714,10.054-20.715,0,0-1.528-2.706-1.355-7.789s.132-24.849,3.788-35.716a6.348,6.348,0,0,1,4.881.281c2.733,1.232,15.078,8.785,21.2,22.562A213.388,213.388,0,0,1,441.1,203.337Z" transform="translate(-134.794 -172.799)"/>
    <path class="h" d="M394.2,220.926c.593.179,8.291-3.03,14.181,2.266s3.5,14.509,2.983,15.959a23.583,23.583,0,0,1-14.284-3.976C390.42,230.5,394.2,220.926,394.2,220.926Z" transform="translate(-134.794 -172.799)"/>
    <path class="i" d="M405.437,232.98a19.184,19.184,0,0,0,1.909-10.471c-5.788-4.5-12.939-1.558-13.509-1.73,0,0-3.781,9.573,2.88,14.249a21,21,0,0,0,4.535,2.395A9.912,9.912,0,0,0,405.437,232.98Z" transform="translate(-134.794 -172.799)"/>
    <path class="j" d="M416.655,259.328c-.125-.112,6.282,2.116,8.292-5.756l1.277.244s-.569,7.353,5.359,7.555c0,0-5.965,1.988-6.383-4.472C425.2,256.9,421.314,263.517,416.655,259.328Z" transform="translate(-134.794 -172.799)"/>
    <path class="k" d="M427.08,247.072c-.367-.073-6.2-1.31-6.846,1.645,0,0-.2,1.862,2.173,2.708a4.082,4.082,0,0,0,3.053,3.241c2.606.514,3.81-2.539,3.81-2.539a2.558,2.558,0,0,0,2.7-1.921C432.467,248.1,427.08,247.072,427.08,247.072Z" transform="translate(-134.794 -172.799)"/>
    <g>
      <path class="l" d="M415.077,248.431s-15.162-8.489-57.5-10.08C357.572,238.351,396.6,235.241,415.077,248.431Z" transform="translate(-134.794 -172.799)"/>
      <path class="l" d="M412.454,250.487s-29.264-9.42-53.422-2.488C359.032,248,379.77,237.517,412.454,250.487Z" transform="translate(-134.794 -172.799)"/>
      <path class="l" d="M378.636,254.9s13.657-4.886,32.38-2.332C411.016,252.573,394.315,247,378.636,254.9Z" transform="translate(-134.794 -172.799)"/>
    </g>
    <path class="l" d="M437.815,251.481c-.541.169,15.48-8.4,34.575,1.6C472.39,253.084,454.34,246.334,437.815,251.481Z" transform="translate(-134.794 -172.799)"/>
    <path class="l" d="M436.536,253.4s19.239-3.977,35.163,7.439C471.7,260.843,453.112,251.961,436.536,253.4Z" transform="translate(-134.794 -172.799)"/>
    <path class="l" d="M435.651,255.732a49.664,49.664,0,0,1,27.393,11.551S453.925,255.186,435.651,255.732Z" transform="translate(-134.794 -172.799)"/>
    <circle class="a" cx="399.169" cy="225.167" r="2.189" transform="translate(-89.337 343.784) rotate(-68.911)"/>
    <path class="c" d="M458.862,224.763c-1.417-3.292-17.625-21.375-17.625-21.375l-12-3.028c.319,1.816,2.432,12.768,7.622,16.737,5.667,4.333,12,12,13.667,22s9.958,5.125,11.083,3.583C461.612,242.679,460.279,228.054,458.862,224.763Z" transform="translate(-134.794 -172.799)"/>
    <path class="m" d="M459.739,228.691s-4.543-5.595-9.21-11.262-8.36-9.017-9.43-14.092c0,0,22.8-21.422,24.407-20.124S459.739,228.691,459.739,228.691Z" transform="translate(-134.794 -172.799)"/>
    <path class="k" d="M447.777,206.946c6.775,9.117,11.961,21.745,11.961,21.745,17.494-30.957,7.3-44.887,5.767-45.477Z" transform="translate(-134.794 -172.799)"/>
    <path class="h" d="M435.63,241.915s-.365-10.392,8.813-11.544,11.442,5.511,11.442,5.511a12.018,12.018,0,0,1-8.577,8.962A13.94,13.94,0,0,1,435.63,241.915Z" transform="translate(-134.794 -172.799)"/>
    <path class="i" d="M448.347,244.473c3.244-7.667-.8-12.492-2.724-14.23-.384.022-.766.04-1.178.092-9.178,1.152-8.813,11.544-8.813,11.544a13.94,13.94,0,0,0,11.678,2.928C447.674,244.711,448.012,244.593,448.347,244.473Z" transform="translate(-134.794 -172.799)"/>
    <circle class="a" cx="441.917" cy="235.997" r="2.189" transform="translate(-72.073 390.606) rotate(-68.912)"/>
    <path class="i" d="M397.028,198.227a29.547,29.547,0,0,1,6.077-2.1s-5.285-14.973-20.535-22.286c0,0-3.117-1.943-5.559-.534l3.024,33.272Z" transform="translate(-134.794 -172.799)"/>
    <path class="k" d="M397.028,198.227c-3.122-16.222-20.017-24.915-20.017-24.915-3.656,10.867-3.616,30.632-3.788,35.716a18.486,18.486,0,0,0,.857,6.593,5.893,5.893,0,0,0,3.152,3.222C387.857,203.109,395.4,198.981,397.028,198.227Z" transform="translate(-134.794 -172.799)"/>
    <path class="c" d="M344.32,275.1c2.911-6.654,11.352-16.07,14.111-19.051a18.664,18.664,0,0,1-4.247.917c-2.816.552-9.964-.267-19.689-1.452-3.978,6.155-9.415,20.585-7.175,28.586C329.654,292.429,340.82,283.1,344.32,275.1Z" transform="translate(-134.794 -172.799)"/>
    <path class="m" d="M230.115,275.932c10-11,10-12,19.5-11.5s12.5-2,16-8a23.776,23.776,0,0,1,4.57-5.329c-20.534.808-40.054,4.806-52.272,15.6,0,0-7.925,6.014-13.136,29.67C209.294,293.443,222.006,284.852,230.115,275.932Z" transform="translate(-134.794 -172.799)"/>
    <path class="m" d="M290.7,279.429c8.5,1.5,12.5-5.5,17.5-13,3.809-5.713,4.623-9.972,6.561-13.152-9.447-1.014-19.91-1.921-30.535-2.228.186.866,1.361,6.759-.026,11.381C282.7,267.429,282.2,277.929,290.7,279.429Z" transform="translate(-134.794 -172.799)"/>
    <path class="c" d="M172.7,355.1s-1.5,7,1,9,4,3,8.75.125,10.625-9.375,15.75-12.25,10.375-5.5,12.625-10.75S214.7,325.471,197.2,327.1Z" transform="translate(-134.794 -172.799)"/>
    <path class="b" d="M215.445,363.179s1.583-.5,3.333,1.5,1.667,3.083,3.833,3.833,4.083,1.083,5.583,3.917,5.25,11.167-2.583,10.333C225.612,382.763,216.2,366.763,215.445,363.179Z" transform="translate(-134.794 -172.799)"/>
    <path class="c" d="M158.7,276.346s5.375-1.75,10.25.75,5.625,6.5,5.625,6.5S163.82,280.846,158.7,276.346Z" transform="translate(-134.794 -172.799)"/>
  </g>
</svg>
