<svg xmlns="http://www.w3.org/2000/svg" xmlns:xlink="http://www.w3.org/1999/xlink" viewBox="0 0 216.668 300.387">
  <defs>
    <linearGradient id="a" x1="288.796" y1="343.806" x2="328.561" y2="447.398" gradientUnits="userSpaceOnUse">
      <stop offset="0.1" stop-color="#ededed"/>
      <stop offset="1" stop-color="#d1d1d1"/>
    </linearGradient>
    <linearGradient id="b" x1="390.253" y1="252.817" x2="391.165" y2="264.68" gradientUnits="userSpaceOnUse">
      <stop offset="0" stop-color="#ffc8b6"/>
      <stop offset="0.893" stop-color="#ffad93"/>
      <stop offset="1" stop-color="#ffaa8e"/>
    </linearGradient>
    <linearGradient id="c" x1="376.923" y1="231.938" x2="363.782" y2="212.463" gradientUnits="userSpaceOnUse">
      <stop offset="0" stop-color="#ffc8b6"/>
      <stop offset="0.023" stop-color="#ffc7b4"/>
      <stop offset="0.361" stop-color="#ffb79f"/>
      <stop offset="0.69" stop-color="#ffad92"/>
      <stop offset="1" stop-color="#ffaa8e"/>
    </linearGradient>
    <linearGradient id="d" x1="373.107" y1="234.513" x2="359.966" y2="215.038" xlink:href="#c"/>
    <linearGradient id="e" x1="381.515" y1="228.84" x2="368.374" y2="209.365" xlink:href="#c"/>
    <linearGradient id="f" x1="379.398" y1="230.269" x2="366.257" y2="210.793" xlink:href="#c"/>
    <linearGradient id="g" x1="378.002" y1="231.21" x2="364.861" y2="211.735" xlink:href="#c"/>
    <linearGradient id="h" x1="375.829" y1="232.677" x2="362.688" y2="213.201" xlink:href="#c"/>
    <linearGradient id="i" x1="383.646" y1="227.402" x2="370.505" y2="207.927" xlink:href="#c"/>
    <linearGradient id="j" x1="383.07" y1="227.79" x2="369.929" y2="208.315" xlink:href="#c"/>
    <linearGradient id="k" x1="378.587" y1="230.816" x2="365.446" y2="211.34" xlink:href="#c"/>
    <linearGradient id="l" x1="376.979" y1="231.901" x2="363.838" y2="212.425" xlink:href="#c"/>
    <linearGradient id="m" x1="375.695" y1="232.767" x2="362.554" y2="213.292" xlink:href="#c"/>
    <linearGradient id="n" x1="374.443" y1="233.611" x2="361.302" y2="214.136" xlink:href="#c"/>
    <linearGradient id="o" x1="380.329" y1="229.64" x2="367.188" y2="210.165" xlink:href="#c"/>
    <linearGradient id="p" x1="378.937" y1="230.582" x2="365.796" y2="211.107" gradientUnits="userSpaceOnUse">
      <stop offset="0" stop-color="#ffc8b6"/>
      <stop offset="0.14" stop-color="#ffc1ac"/>
      <stop offset="0.412" stop-color="#ffb69c"/>
      <stop offset="0.684" stop-color="#ffae92"/>
      <stop offset="1" stop-color="#ffaa8e"/>
    </linearGradient>
    <linearGradient id="q" x1="370.406" y1="236.336" x2="357.265" y2="216.861" xlink:href="#c"/>
    <linearGradient id="r" x1="358.244" y1="307.465" x2="354.651" y2="347.36" gradientUnits="userSpaceOnUse">
      <stop offset="0" stop-color="#525252"/>
      <stop offset="0.245" stop-color="#494949"/>
      <stop offset="0.549" stop-color="#373737"/>
      <stop offset="0.775" stop-color="#464646"/>
      <stop offset="1" stop-color="#505050"/>
    </linearGradient>
    <linearGradient id="s" x1="7672.699" y1="285.443" x2="7676.84" y2="264.742" gradientTransform="translate(-7316.17)" gradientUnits="userSpaceOnUse">
      <stop offset="0" stop-color="#ffc8b6"/>
      <stop offset="0.189" stop-color="#fbb9a3"/>
      <stop offset="0.47" stop-color="#f6a88e"/>
      <stop offset="0.743" stop-color="#f39d81"/>
      <stop offset="1" stop-color="#f29a7d"/>
    </linearGradient>
    <linearGradient id="t" x1="8904.02" y1="109.51" x2="8902.072" y2="123.149" gradientTransform="matrix(0.975, -0.224, 0.224, 0.975, -8335.421, 2155.582)" gradientUnits="userSpaceOnUse">
      <stop offset="0" stop-color="#fffbf7"/>
      <stop offset="0.06" stop-color="#fdf7f2"/>
      <stop offset="0.385" stop-color="#f5e4dd"/>
      <stop offset="0.702" stop-color="#f1d9d0"/>
      <stop offset="1" stop-color="#efd5cc"/>
    </linearGradient>
    <linearGradient id="u" x1="-1456.63" y1="114.564" x2="-1463.318" y2="129.438" gradientTransform="matrix(-0.975, 0.224, 0.224, 0.975, -1073.456, 485.278)" gradientUnits="userSpaceOnUse">
      <stop offset="0" stop-color="#ffb80d"/>
      <stop offset="0.27" stop-color="#ffaa0d"/>
      <stop offset="0.646" stop-color="#ff9d0d"/>
      <stop offset="1" stop-color="#ff990d"/>
    </linearGradient>
    <linearGradient id="v" x1="-1444.443" y1="104.288" x2="-1439.405" y2="114.683" gradientTransform="matrix(-0.975, 0.224, 0.224, 0.975, -1073.456, 485.278)" gradientUnits="userSpaceOnUse">
      <stop offset="0" stop-color="#ffb80d"/>
      <stop offset="0.539" stop-color="#ffbe0d"/>
      <stop offset="1" stop-color="#ffc80d"/>
    </linearGradient>
    <linearGradient id="w" x1="-1563.094" y1="722.083" x2="-1561.848" y2="724.655" gradientTransform="matrix(-0.943, 0.333, 0.333, 0.943, -1351.045, 109.515)" gradientUnits="userSpaceOnUse">
      <stop offset="0" stop-color="#ffb80d"/>
      <stop offset="1" stop-color="#ffd90d"/>
    </linearGradient>
    <linearGradient id="x" x1="-1455.65" y1="116.183" x2="-1460.307" y2="127.028" gradientTransform="matrix(-0.975, 0.224, 0.224, 0.975, -1073.456, 485.278)" gradientUnits="userSpaceOnUse">
      <stop offset="0" stop-color="#ffb80d"/>
      <stop offset="0.34" stop-color="#ffbe0d"/>
      <stop offset="0.797" stop-color="#ffcf0d"/>
      <stop offset="1" stop-color="#ffd90d"/>
    </linearGradient>
    <linearGradient id="y" x1="-1464.154" y1="112.128" x2="-1468.808" y2="122.967" xlink:href="#v"/>
    <linearGradient id="z" x1="8894.512" y1="75.537" x2="8878.126" y2="71.251" gradientTransform="matrix(0.975, -0.224, 0.224, 0.975, -8335.421, 2155.582)" gradientUnits="userSpaceOnUse">
      <stop offset="0" stop-color="#ffb80d"/>
      <stop offset="0.244" stop-color="#ffc40d"/>
      <stop offset="0.633" stop-color="#ffd10d"/>
      <stop offset="1" stop-color="#ffd50d"/>
    </linearGradient>
    <linearGradient id="aa" x1="1732.11" y1="108.743" x2="1736.884" y2="117.283" gradientTransform="matrix(0.975, -0.224, 0.224, 0.975, -1341.92, 546.745)" gradientUnits="userSpaceOnUse">
      <stop offset="0" stop-color="#6b390d"/>
      <stop offset="1" stop-color="#a9360d"/>
    </linearGradient>
    <linearGradient id="ab" x1="9091.958" y1="-1053.163" x2="9097.805" y2="-1046.804" gradientTransform="matrix(0.995, -0.096, 0.096, 0.995, -8578.515, 2167.932)" gradientUnits="userSpaceOnUse">
      <stop offset="0" stop-color="#ffc8b6"/>
      <stop offset="0.218" stop-color="#ffb79f"/>
      <stop offset="0.488" stop-color="#ffa78a"/>
      <stop offset="0.752" stop-color="#ff9d7d"/>
      <stop offset="1" stop-color="#ff9a79"/>
    </linearGradient>
    <linearGradient id="ac" x1="1726.954" y1="110.77" x2="1732.154" y2="115.403" gradientTransform="matrix(0.975, -0.224, 0.224, 0.975, -1341.92, 546.745)" gradientUnits="userSpaceOnUse">
      <stop offset="0" stop-color="#6b390d"/>
      <stop offset="1" stop-color="#bf5353"/>
    </linearGradient>
    <linearGradient id="ad" x1="369.096" y1="288.248" x2="364.121" y2="343.486" xlink:href="#r"/>
    <linearGradient id="ae" x1="378.77" y1="377.283" x2="384.128" y2="357.459" gradientUnits="userSpaceOnUse">
      <stop offset="0" stop-color="#ecca9f"/>
      <stop offset="0.441" stop-color="#efc1a0"/>
      <stop offset="1" stop-color="#f0bda0"/>
    </linearGradient>
    <linearGradient id="af" x1="353.725" y1="378.11" x2="358.723" y2="359.618" xlink:href="#ae"/>
    <linearGradient id="ag" x1="495.84" y1="506.326" x2="510.252" y2="506.326" gradientTransform="translate(-140)" gradientUnits="userSpaceOnUse">
      <stop offset="0" stop-color="#5e5e5e"/>
      <stop offset="1" stop-color="#424343"/>
    </linearGradient>
    <linearGradient id="ah" x1="381.425" y1="386.193" x2="386.486" y2="365.65" xlink:href="#ae"/>
    <linearGradient id="ai" x1="515.248" y1="505.208" x2="545.445" y2="505.208" xlink:href="#ag"/>
    <linearGradient id="aj" x1="-2083.627" y1="1399.597" x2="-2080.565" y2="1381.23" gradientTransform="translate(2896.591 -31.058) rotate(23.848)" xlink:href="#ae"/>
    <linearGradient id="ak" x1="369.139" y1="288.249" x2="364.165" y2="343.487" xlink:href="#r"/>
    <linearGradient id="al" x1="349.028" y1="310.048" x2="372.001" y2="317.989" xlink:href="#c"/>
    <linearGradient id="am" x1="345.628" y1="271.51" x2="344.875" y2="265.957" gradientUnits="userSpaceOnUse">
      <stop offset="0" stop-color="#ffc8b6"/>
      <stop offset="0.06" stop-color="#fec4b1"/>
      <stop offset="0.385" stop-color="#fcb39c"/>
      <stop offset="0.702" stop-color="#fba98f"/>
      <stop offset="1" stop-color="#faa58b"/>
    </linearGradient>
    <linearGradient id="an" x1="353.697" y1="270.387" x2="364.333" y2="268.78" xlink:href="#c"/>
    <linearGradient id="ao" x1="349.1" y1="256.096" x2="352.874" y2="251.493" xlink:href="#c"/>
    <linearGradient id="ap" x1="352.443" y1="258.735" x2="355.713" y2="254.747" xlink:href="#c"/>
    <linearGradient id="aq" x1="354.884" y1="261.546" x2="357.437" y2="258.432" xlink:href="#c"/>
    <linearGradient id="ar" x1="356.362" y1="265.011" x2="359.387" y2="264.727" xlink:href="#c"/>
  </defs>
  <title>consumer-a</title>
  <g style="isolation: isolate">
    <g>
      <g>
        <path d="M436.883,427.541l-.628-.561c.067-.075,6.689-7.773,7.711-30.691l.841.038C443.77,419.6,437.165,427.228,436.883,427.541Z" transform="translate(-254.403 -209.305)" style="fill: #783b0d"/>
        <path d="M436.108,418.867a5.128,5.128,0,0,1-3.19-1.215c-2.569-2.04-5.612-7.553-5.521-22.23l.843.005c-.089,14.339,2.78,19.641,5.2,21.565a3.9,3.9,0,0,0,3.083,1l.2.82A2.79,2.79,0,0,1,436.108,418.867Z" transform="translate(-254.403 -209.305)" style="fill: #783b0d"/>
        <path d="M421.268,449.407a1.248,1.248,0,0,1-.193-.013l.132-.831a1.7,1.7,0,0,0,1.343-.643c1.256-1.318,2.983-5.623.436-19.65l.829-.151c2.5,13.765,1,18.706-.7,20.428A2.61,2.61,0,0,1,421.268,449.407Z" transform="translate(-254.403 -209.305)" style="fill: #783b0d"/>
        <path d="M446.4,439.323a2.526,2.526,0,0,1-.5-.042l.175-.824a4.446,4.446,0,0,0,3.372-1.212c3.387-2.685,7.576-10.438,8.3-32.127l.841.029c-.739,22.1-5.126,30.035-8.675,32.8A5.766,5.766,0,0,1,446.4,439.323Z" transform="translate(-254.403 -209.305)" style="fill: #783b0d"/>
        <path d="M414.532,425.419a3.943,3.943,0,0,1-1.8-.453c-2.379-1.214-5.555-5.471-7.17-18.858l.836-.1c1.566,12.977,4.5,17.057,6.69,18.195a2.7,2.7,0,0,0,2.448.169l.407.738A3.087,3.087,0,0,1,414.532,425.419Z" transform="translate(-254.403 -209.305)" style="fill: #783b0d"/>
        <path d="M440.72,476.487l-.829-.151c.116-.635,11.555-63.86,9.5-103.249l.841-.043C452.293,412.531,440.836,475.852,440.72,476.487Z" transform="translate(-254.403 -209.305)" style="fill: #783b0d"/>
        <path d="M432.7,472.434l-.831-.14c.083-.5,8.3-50.588,2.638-98.746l.836-.1C441.023,421.731,432.788,471.933,432.7,472.434Z" transform="translate(-254.403 -209.305)" style="fill: #783b0d"/>
        <path d="M406.739,432.025s4.891-8.633,12-9.83,13.749,5.5,13.749,5.5a30.874,30.874,0,0,1-12.5,5.424A28.457,28.457,0,0,1,406.739,432.025Z" transform="translate(-254.403 -209.305)" style="fill: #4e691e"/>
        <path d="M424.316,383.04s4.89-8.633,12-9.83,13.749,5.5,13.749,5.5a30.881,30.881,0,0,1-12.5,5.424A28.451,28.451,0,0,1,424.316,383.04Z" transform="translate(-254.403 -209.305)" style="fill: #4e691e"/>
        <path d="M446.911,427.315s-.555-9.13,3.437-12.725,11.025-.293,11.025-.293a22.351,22.351,0,0,1-5.619,9.15A15.893,15.893,0,0,1,446.911,427.315Z" transform="translate(-254.403 -209.305)" style="fill: #4e691e"/>
        <path d="M436.968,385.752s7.293-2.32,10.928,1.8,2.238,13.114,2.238,13.114a16.7,16.7,0,0,1-8.431-5.052A23.557,23.557,0,0,1,436.968,385.752Z" transform="translate(-254.403 -209.305)" style="fill: #4e691e"/>
        <path d="M423.194,405.784s7.293-2.32,10.928,1.8,2.237,13.114,2.237,13.114a16.7,16.7,0,0,1-8.43-5.052A23.544,23.544,0,0,1,423.194,405.784Z" transform="translate(-254.403 -209.305)" style="fill: #4e691e"/>
        <path d="M416.651,472.364s19.9-10.072,33.718,0Z" transform="translate(-254.403 -209.305)" style="fill: #6b4933"/>
        <path d="M427.428,470.284c-.122-.3-12.277-30.763-16.439-77.414l.84-.074c4.151,46.517,16.259,76.872,16.381,77.173Z" transform="translate(-254.403 -209.305)" style="fill: #783b0d"/>
        <path d="M468.75,439.216c0,4.272-5.819,5.878-13,5.878s-13-1.606-13-5.878,5.819-9.6,13-9.6S468.75,434.944,468.75,439.216Z" transform="translate(-254.403 -209.305)" style="fill: #608225"/>
        <path d="M453.3,424.739c0,4.272-5.819,6.448-13,6.448s-13-2.175-13-6.448c0-1.807,5.819-6.769,13-6.769S453.3,422.052,453.3,424.739Z" transform="translate(-254.403 -209.305)" style="fill: #608225"/>
        <path d="M471.071,399.075c0,3.971-5.408,5.463-12.079,5.463s-12.079-1.492-12.079-5.463,5.408-8.917,12.079-8.917S471.071,395.1,471.071,399.075Z" transform="translate(-254.403 -209.305)" style="fill: #608225"/>
        <path d="M470.778,374.889c.744,1.936-4.572,4.811-11.076,8.5s-11.733,6.793-12.477,4.857,3.278-8.179,9.782-11.867S470.033,372.954,470.778,374.889Z" transform="translate(-254.403 -209.305)" style="fill: #608225"/>
        <path d="M405.979,447.217a12.769,12.769,0,0,1,.6-13.3c4.6-6.693,12.453-5.305,12.453-5.305a33.319,33.319,0,0,1-5.482,12.367C408.955,447.669,405.979,447.217,405.979,447.217Z" transform="translate(-254.403 -209.305)" style="fill: #608225"/>
        <path d="M406.111,431.186s-1.163-10.383,3.435-17.076,13.219-7.164,13.219-7.164a45.537,45.537,0,0,1-6.248,14.226A35.714,35.714,0,0,1,406.111,431.186Z" transform="translate(-254.403 -209.305)" style="fill: #608225"/>
        <path d="M397.446,405.4s4.89-8.633,12-9.83,13.749,5.5,13.749,5.5a30.88,30.88,0,0,1-12.5,5.424A28.451,28.451,0,0,1,397.446,405.4Z" transform="translate(-254.403 -209.305)" style="fill: #608225"/>
        <path d="M424.316,453.247s4.89-8.633,12-9.83,13.749,5.5,13.749,5.5a30.881,30.881,0,0,1-12.5,5.424A28.451,28.451,0,0,1,424.316,453.247Z" transform="translate(-254.403 -209.305)" style="fill: #608225"/>
        <path d="M416.695,435.231s6.509-4.565,12.469-2.274,9.118,10.576,9.118,10.576a24.731,24.731,0,0,1-11.505-1.421A29.294,29.294,0,0,1,416.695,435.231Z" transform="translate(-254.403 -209.305)" style="fill: #608225"/>
        <path d="M407.879,392.854s3.439-6.07,8.439-6.913,9.669,3.864,9.669,3.864a21.72,21.72,0,0,1-8.793,3.815A20.011,20.011,0,0,1,407.879,392.854Z" transform="translate(-254.403 -209.305)" style="fill: #608225"/>
        <path d="M437.186,408.806s4.889-8.633,12-9.83,13.749,5.5,13.749,5.5a30.881,30.881,0,0,1-12.5,5.424A28.452,28.452,0,0,1,437.186,408.806Z" transform="translate(-254.403 -209.305)" style="fill: #6b9129"/>
        <path d="M444.387,375.212s3.117-8.335,8.041-9.165,9.791,6.163,9.791,6.163a16.991,16.991,0,0,1-8.545,4.757A15.268,15.268,0,0,1,444.387,375.212Z" transform="translate(-254.403 -209.305)" style="fill: #608225"/>
        <path d="M441.583,392.934c.667,4.194-4.842,6.815-11.89,8.47s-12.965,1.716-13.633-2.478,4.167-11.06,11.214-12.715S440.916,388.739,441.583,392.934Z" transform="translate(-254.403 -209.305)" style="fill: #6b9129"/>
        <path d="M455,493.95l-3.208-22.021H414.84l-2.391,22.021a34,34,0,0,0,10.979,10.677h-1.755v2.931h24.8v-2.931H444.3A32.712,32.712,0,0,0,455,493.95Z" transform="translate(-254.403 -209.305)" style="fill: #f0f0f0"/>
        <path d="M445.307,504.627h-1a27,27,0,0,0,3.354-2.327c-5.392-1.172-17.38-4.239-22.343-9.2-4.6-4.6-4.512-15.3-4.068-21.17H414.84l-2.391,22.021a34,34,0,0,0,10.979,10.677h-1.755v2.931h12.981l-9.932-2.235,19.044-.154Z" transform="translate(-254.403 -209.305)" style="fill: #d1d1d1"/>
        <g>
          <path d="M443,440.632a135.025,135.025,0,0,1,22.112,3.049,9.164,9.164,0,0,0,1.286-.652,136.1,136.1,0,0,0-23.6-3.337A3.955,3.955,0,0,0,443,440.632Z" transform="translate(-254.403 -209.305)" style="fill: #557321"/>
          <path d="M442.756,439.216c0,.043.01.08.01.121,6.01-1.2,17.288-2.912,24.6-3.968a11.315,11.315,0,0,0-1.219-1.46H445.361a11.618,11.618,0,0,0-.823.928h20.033c-6.41.94-16.062,2.412-21.743,3.549A5.086,5.086,0,0,0,442.756,439.216Z" transform="translate(-254.403 -209.305)" style="fill: #557321"/>
        </g>
        <g>
          <path d="M431.16,424.755c-1.335.115-2.685.23-3.825.3a4.239,4.239,0,0,0,.165.918c.976-.064,2.2-.166,3.74-.3,6.238-.537,15.3-1.317,21.981-.114a4.4,4.4,0,0,0,.081-.827c0-.034-.012-.072-.014-.106C446.488,423.433,437.417,424.215,431.16,424.755Z" transform="translate(-254.403 -209.305)" style="fill: #557321"/>
          <path d="M443.85,418.31c-4.591,1.1-10.785,2.7-15.112,4.2a6.707,6.707,0,0,0-1.157,1.407,173.415,173.415,0,0,1,18.256-5.121A19.327,19.327,0,0,0,443.85,418.31Z" transform="translate(-254.403 -209.305)" style="fill: #557321"/>
        </g>
        <path d="M428.039,448.376c-.4.418-.78.835-1.12,1.239,7.8-2.218,17.356-1.153,22.483-.223.423-.294.662-.479.662-.479s-.176-.173-.471-.44C444.555,447.566,435.605,446.637,428.039,448.376Z" transform="translate(-254.403 -209.305)" style="fill: #557321"/>
        <path d="M418.667,428.56c-4.7,3.522-10.3,12.989-13.045,17.96.207.446.357.7.357.7a1.566,1.566,0,0,0,.33-.006c2.6-4.726,8.058-14.029,12.522-17.633.151-.621.2-.969.2-.969S418.9,428.586,418.667,428.56Z" transform="translate(-254.403 -209.305)" style="fill: #557321"/>
        <path d="M406,429.259c.026.918.08,1.564.1,1.812,2.858-5.484,9.929-18.16,16.244-22.528.174-.606.292-1.061.356-1.324C416.382,410.894,409.376,422.908,406,429.259Z" transform="translate(-254.403 -209.305)" style="fill: #557321"/>
        <path d="M439.427,405.618a107.962,107.962,0,0,1,23.343-1.3c-.2-.189-.581-.539-1.13-.986a110.348,110.348,0,0,0-21.272,1.186C440.028,404.891,439.717,405.26,439.427,405.618Z" transform="translate(-254.403 -209.305)" style="fill: #5c7d24"/>
        <g>
          <path d="M470.518,401.065a3.619,3.619,0,0,0,.375-.863c-5.395-1.286-10.7-2.243-15.047-3.027-3.1-.559-6.081-1.1-7.736-1.541a8.45,8.45,0,0,0-.487.824c1.4.409,3.859.875,8.058,1.631C459.979,398.863,465.2,399.806,470.518,401.065Z" transform="translate(-254.403 -209.305)" style="fill: #557321"/>
          <path d="M452.025,393.4c-.885.114-1.628.223-2.277.328a11.041,11.041,0,0,0-1.064,1.132c.787-.155,1.887-.335,3.46-.539a35.6,35.6,0,0,1,18.237,2.178,8.616,8.616,0,0,0-.789-1.278A36.788,36.788,0,0,0,452.025,393.4Z" transform="translate(-254.403 -209.305)" style="fill: #557321"/>
        </g>
        <path d="M416.572,395.328c7.323-4.649,17.4-5.751,22.969-5.987a10.438,10.438,0,0,0-1.011-.88c-5.49.311-14.309,1.447-21.245,5.356A12.052,12.052,0,0,0,416.572,395.328Z" transform="translate(-254.403 -209.305)" style="fill: #608225"/>
        <path d="M446.294,371.38c-.173.287-.336.567-.487.841a31.13,31.13,0,0,0,6.8.773,26.012,26.012,0,0,0,9.014-1.57c-.179-.223-.387-.475-.636-.759A27.159,27.159,0,0,1,446.294,371.38Z" transform="translate(-254.403 -209.305)" style="fill: #557321"/>
      </g>
      <g>
        <polygon points="36.12 231.529 18 300.098 20.507 300.095 43.19 233.116 36.12 231.529" style="fill: #d19d64"/>
        <polygon points="94.744 228.975 112.964 300.025 110.458 300.027 87.677 230.575 94.744 228.975" style="fill: #d19d64"/>
        <polygon points="64.058 233.448 67.223 300.387 69.789 300.384 70.113 233.443 64.058 233.448" style="fill: #d19d64"/>
        <path d="M359.423,381.474l-28.843.022s-2.386-34.811-38.671-34.783c-43.766.034-28.867,34.372-28.867,34.372s-.5,0-8.608.007c-.969,43.372,20.595,62.6,58.876,62.574s52.54-12.029,52.54-12.029Z" transform="translate(-254.403 -209.305)" style="fill: url(#a)"/>
        <path d="M337.986,433.876c-49.863.038-56.24-52.341-56.24-52.341l-19.206.015-1.179-.462-6.927.006c-.969,43.372,20.595,62.6,58.876,62.574s52.54-12.029,52.54-12.029l-6.427-50.163-6.765.006S371.741,433.849,337.986,433.876Z" transform="translate(-254.403 -209.305)" style="fill: #f0f0f0"/>
      </g>
      <g>
        <g>
          <path d="M365.058,273.416s-11.277-8.351-18.082-1.827c-.566,4.727-.736,6.168-.736,6.168s3.982-5.532,15.855-1.052C364.136,276.033,365.058,273.416,365.058,273.416Z" transform="translate(-254.403 -209.305)" style="fill: #aba8a8"/>
          <path d="M347.037,271.379s2.843-3.42,8.937-2.484c6.364.977,9.084,4.521,9.084,4.521l-.364.18a17.972,17.972,0,0,0-8.809-4.138,10.92,10.92,0,0,0-8.036,1.921Z" transform="translate(-254.403 -209.305)" style="fill: #b7baba"/>
          <g>
            <polygon points="131.538 31.603 134.793 29.664 136.912 31.412 134.116 34.707 131.538 31.603" style="fill: #af7727"/>
            <polygon points="134.962 35.279 139.069 33.292 139.344 33.72 136.177 36.031 134.962 35.279" style="fill: #af7727"/>
            <polygon points="137.545 38.51 141.201 35.406 143.972 38.641 138.655 39.7 137.545 38.51" style="fill: #af7727"/>
            <path d="M407,267.109s-1.857-7.85-4.9-11.619c-4.251-5.266-11.431-15.173-26.166-23.875-2.682.16-2.813,1.9-2.813,1.9s5.3,3.175,7.064,16.58c1.623,12.326-.285,22.555,9.144,25.828C401.3,280.075,407,267.109,407,267.109Z" transform="translate(-254.403 -209.305)" style="fill: url(#b)"/>
            <path d="M366.425,275.99c.456-.392,5.277-4.34,10.863-8.475l2.2-.6v-1.457s2.64-1.287,3.593-1.8c7.759-4.136,23.4,2.874,19.16,10.462-7.426,13.292-21.255,27.127-27.834,28.5S357.694,283.5,366.425,275.99Z" transform="translate(-254.403 -209.305)" style="fill: #f3f8f7"/>
            <g>
              <path d="M376.2,231.773s-1.421-11-1.516-11.82-4-.953-7.934,1.454c.749,4.489,4.767,13.47,6.973,12.251S376.2,231.773,376.2,231.773Z" transform="translate(-254.403 -209.305)" style="fill: url(#c)"/>
              <path d="M368.1,225.764a4.517,4.517,0,0,0-1.345,4.256c.331,1.922,5.692,4.494,6.973,3.639S370.75,223.025,368.1,225.764Z" transform="translate(-254.403 -209.305)" style="fill: url(#d)"/>
              <path d="M374.717,220.218c-.156-.475.9-4.924,1.023-5.555s-1.749-1.24-2.277-.132-2.278,5.207-1.663,5.687S374.717,220.218,374.717,220.218Z" transform="translate(-254.403 -209.305)" style="fill: url(#e)"/>
              <path d="M372.758,220.476s-.645-5.93-.933-6.191c-.645-.584-2.134.045-2.222,1.07-.028.327.206,5.978.6,6.014A14.773,14.773,0,0,0,372.758,220.476Z" transform="translate(-254.403 -209.305)" style="fill: url(#f)"/>
              <path d="M371.476,220.431s-1.546-5.346-2.02-5.627-2.192.6-2.192.882,1.181,5.389,1.489,5.578S371.476,220.431,371.476,220.431Z" transform="translate(-254.403 -209.305)" style="fill: url(#g)"/>
              <path d="M369.37,220.821a17.6,17.6,0,0,0-2.057-2.881,1.389,1.389,0,0,0-1.863,1.479,12.364,12.364,0,0,0,1.852,2.8C367.609,222.3,369.37,220.821,369.37,220.821Z" transform="translate(-254.403 -209.305)" style="fill: url(#h)"/>
              <path d="M373.369,214.75a11.565,11.565,0,0,1-.908-2.615c-.329-1.092.923-1.538,1.755-1.27a9.194,9.194,0,0,1,1.525,3.8C375.661,215.029,373.98,215.98,373.369,214.75Z" transform="translate(-254.403 -209.305)" style="fill: url(#i)"/>
              <path d="M374.215,210.866l-4.21-1.56s-1.979,1.835.285,2.552a4.559,4.559,0,0,0,2.708.31Z" transform="translate(-254.403 -209.305)" style="fill: url(#j)"/>
              <path d="M367.541,216.574c-.446-.475-1.492-1.948-1.987-2.656s.434-1.89,1.308-1.782,2.464,2.3,2.741,3.221S367.987,217.049,367.541,216.574Z" transform="translate(-254.403 -209.305)" style="fill: url(#k)"/>
              <path d="M366.862,212.135l-4.918.315s-1.181,2.393,1.425,2.432a4.242,4.242,0,0,0,3-1.258A2.966,2.966,0,0,0,366.862,212.135Z" transform="translate(-254.403 -209.305)" style="fill: url(#l)"/>
              <path d="M365.893,219.918a8.149,8.149,0,0,1-1.644-1.71c-.492-.671.1-1.572.893-1.829s1.758.94,2.171,1.562S366.848,220.478,365.893,219.918Z" transform="translate(-254.403 -209.305)" style="fill: url(#m)"/>
              <path d="M365.34,216.367c-.484.029-4.245.272-4.245.272s-.611,2.263,1.995,2.3a2.994,2.994,0,0,0,2.518-1.017C366.035,217.46,365.824,216.338,365.34,216.367Z" transform="translate(-254.403 -209.305)" style="fill: url(#n)"/>
              <path d="M369.52,215.459a16.915,16.915,0,0,1-2.351-2.555c-.6-.991.513-1.615,1.466-1.718a11.783,11.783,0,0,1,3.224,3.128C372.392,215.029,370.184,216.167,369.52,215.459Z" transform="translate(-254.403 -209.305)" style="fill: url(#o)"/>
              <path d="M368.689,211.236l-4.34-.269s-1.078,2.678,1.2,2.548C368.8,213.327,368.689,211.236,368.689,211.236Z" transform="translate(-254.403 -209.305)" style="fill: url(#p)"/>
              <path d="M367.418,227.527c-2.116.528-3.5-2.524-5.45-1.52a2.1,2.1,0,0,0-.79,2.418s5.94,2.35,7.574,3.734C368.165,229.542,369.534,227,367.418,227.527Z" transform="translate(-254.403 -209.305)" style="fill: url(#q)"/>
            </g>
            <path d="M380.94,263.351s9.265-6.43,17.332-2.68,7,13.205,7,13.205l-3.529,1.135s.5-8.2-5.547-10.967-15.623.887-15.623.887Z" transform="translate(-254.403 -209.305)" style="fill: #fff"/>
            <path d="M389.2,238.97l-4.171.526s2.606,3.615,2.5,3.506,3.787-2.285,3.787-2.285Z" transform="translate(-254.403 -209.305)" style="fill: #f0a336"/>
            <polygon points="139.069 33.292 134.629 34.606 136.135 38.062 139.344 33.72 139.069 33.292" style="fill: #f0a336"/>
            <polygon points="141.201 35.406 139.616 40.507 141.592 42.53 143.972 38.641 141.201 35.406" style="fill: #f0a336"/>
          </g>
          <path d="M378.964,356.387c.761-15.9-.18-39.216-.18-39.216a19.257,19.257,0,0,0,4.427-6.021c-1.793-9.992-9.864-27.031-9.864-27.031s-14.6-9.48-19.857-9.608S335,285.633,334.914,286.169c-5,31.643,11.273,44.582,11.273,44.582s5.509,12.295.237,29.564c-1.117,3.778,7.464,7.1,16.081,7.056,8.2-.042,16.433-3.269,16.369-6.742C378.848,359.236,378.892,357.883,378.964,356.387Z" transform="translate(-254.403 -209.305)" style="fill: url(#r)"/>
          <polygon points="118.421 75.522 110.655 64.11 107.692 67.399 114.916 82.286 118.421 75.522" style="fill: #a3a6a6"/>
          <polygon points="117.792 75.396 110.291 64.291 110.655 64.11 118.421 75.522 117.792 75.396" style="fill: #aba8a8"/>
          <g>
            <path d="M349.425,258.39l-.484,19.182s7.82,13.7,16.764,13.576-6-30.919-6-30.919Z" transform="translate(-254.403 -209.305)" style="fill: url(#s)"/>
            <g>
              <path d="M366.012,223.023s11.239,11.807,12.815,27.943-1.994,26.617-1.994,26.617l-11.382,1.072s-2.6-19.111-21.562-15.65a108.915,108.915,0,0,1-2.8-11.741l9.972-2.335-2.313-17.091Z" transform="translate(-254.403 -209.305)" style="fill: #ffc8b6"/>
              <path d="M368.095,249.316a18.3,18.3,0,0,1-2.756,1.72C367.681,250.946,368.095,249.316,368.095,249.316Z" transform="translate(-254.403 -209.305)" style="fill: #f7b099"/>
              <path d="M376.485,248.6a17.355,17.355,0,0,1-2.711-.681C375.318,249.246,376.485,248.6,376.485,248.6Z" transform="translate(-254.403 -209.305)" style="fill: #f7b099"/>
              <path d="M360.911,248.222s-4.13-.8-3.933-.844a31.232,31.232,0,0,1,3.053,1.243s-3.759,1.736-3.7,1.722,4.65-1.425,4.65-1.425S361.489,248.853,360.911,248.222Z" transform="translate(-254.403 -209.305)" style="fill: #f7b099"/>
              <path d="M365.451,278.655l11.382-1.072s3.054-8.978,2.262-23.1c-.066,1.9-.937,3.9-5.281,4.311-5.4.509-19.718-4.191-19.718-4.191l-2.869.736s1.072,4.238,2.013,7.929C363.76,266.3,365.451,278.655,365.451,278.655Z" transform="translate(-254.403 -209.305)" style="mix-blend-mode: multiply;fill: url(#t)"/>
              <path d="M378.842,253.735c.077.186,4.724,13.937,3.648,15.856s-1.432,2.107-1.432,2.107,3.647,6.625.2,9.287-8.674.09-8.674.09-1.76,2.5-3.038,2.4-5.849-2.866-5.849-2.866a6.366,6.366,0,0,1-2.977.876c-1.376-.077-5.663-10.785-5.737-11.063s-2.1.975-3.344-.607-.688-15.7-.688-15.7l2.967-2.084s12.586,7.009,19.055,6.209S378.842,253.735,378.842,253.735Z" transform="translate(-254.403 -209.305)" style="fill: url(#u)"/>
              <path d="M360.895,260.7s-3.535,15.1-6.165,14.331.948-16.145.948-16.145Z" transform="translate(-254.403 -209.305)" style="fill: url(#v)"/>
              <path d="M365.256,269.718s-.392,3.994-1.5,3.8-2.433-4.18-2.433-4.18Z" transform="translate(-254.403 -209.305)" style="fill: url(#w)"/>
              <path d="M374.282,268.607c.177-.041,1.436,14.645.05,15-1.934.494-6.747-13.458-6.747-13.458Z" transform="translate(-254.403 -209.305)" style="fill: url(#x)"/>
              <path d="M379.386,264.489c.072.128,5.438,8.711,4.826,9.7-.649,1.053-7.4-7.212-7.4-7.212Z" transform="translate(-254.403 -209.305)" style="fill: url(#y)"/>
              <path d="M341.089,251.265s-3.694-2.138-4.016-8.25c0,0-13.061-9.664,5.153-8.813-19.965-15.832,11.614-19.035,13.149-19.18,5.509-.519,14.2,12.295,14.2,12.295s-5.839-1.916-18.592,4.4c.9,5.5,3.108,22.879,3.108,22.879l-2.869.736L349,249.413Z" transform="translate(-254.403 -209.305)" style="fill: url(#z)"/>
              <path d="M349.535,255.478c-2.486-1.56-5.259-3.3-7.2-4.506l-1.248.292s.061.359.182,1c1.8,1.121,4.409,2.755,6.588,4.122l-4.374,5.231q.2.688.405,1.392c.233-.043.452-.066.681-.1l5.781-6.913Z" transform="translate(-254.403 -209.305)" style="fill: #ffa487"/>
              <path d="M338.063,250.619a16.975,16.975,0,0,1,14.289-9.027l-.122-1.911a24,24,0,0,0-15.885,8.332Z" transform="translate(-254.403 -209.305)" style="fill: #f0a336"/>
              <path d="M351.219,231.687a.492.492,0,0,1-.064-.118l1.754-.708a26.651,26.651,0,0,0-18.544-.213l1.229,3.087C335.657,233.72,344.891,228.1,351.219,231.687Z" transform="translate(-254.403 -209.305)" style="fill: #f0a336"/>
              <path d="M364.11,227.209c-.206-1.07-5.194-10.1-10.781-12.938a17.116,17.116,0,0,0-10.441-1.206l1.076,3.671c.045-.018,4.684-2.043,8.7-.008,4.912,2.491,9.358,10.031,9.6,10.865Z" transform="translate(-254.403 -209.305)" style="fill: #f0a336"/>
              <path d="M358.146,233.188s6.507-5.33,12.018-3.327C367.323,227.746,363.523,228.754,358.146,233.188Z" transform="translate(-254.403 -209.305)" style="fill: #f7b099"/>
              <path d="M370.646,239.256s-.684-1.116-1.964.464C370.232,238.885,370.646,239.256,370.646,239.256Z" transform="translate(-254.403 -209.305)" style="fill: #f7b099"/>
              <path d="M362.969,229.2s3.724-1.523,4.724-.82C366.227,227.221,364.557,228.105,362.969,229.2Z" transform="translate(-254.403 -209.305)" style="fill: #f7b099"/>
              <path d="M369.877,235.618a11.5,11.5,0,0,0,5.727,1.648,6.626,6.626,0,0,0,.433-2.332,29.76,29.76,0,0,1-7.078-4.731Z" transform="translate(-254.403 -209.305)" style="fill: #bd812a"/>
              <path d="M358.1,240.967s6.17-1.857,8.815-4.987a47.051,47.051,0,0,0-.583-5.513l-1.707.161.228,1.4s-.954-1.008-.947-.939a17.677,17.677,0,0,1-8.148,7.077A12.579,12.579,0,0,0,358.1,240.967Z" transform="translate(-254.403 -209.305)" style="fill: #bd812a"/>
              <path d="M363.591,261.558s7.044,2.234,12.284.592c.229,2.47-1.664,9.477-4.206,9.556C366.47,271.868,363.591,261.558,363.591,261.558Z" transform="translate(-254.403 -209.305)" style="fill: url(#aa)"/>
              <path d="M374.678,265.168l.258-2.769c-5.1,1.137-11.344-.841-11.344-.841A19.028,19.028,0,0,0,364.44,264,17.248,17.248,0,0,0,374.678,265.168Z" transform="translate(-254.403 -209.305)" style="fill: #fff"/>
              <g>
                <path d="M368.257,240.369s4.114,12.2,1.728,15.727l-10.809,1.987s-3.749-8.483-4.018-13.5A83.215,83.215,0,0,1,368.257,240.369Z" transform="translate(-254.403 -209.305)" style="fill: #0d0d0d;opacity: 0.2"/>
                <path d="M378.717,239.219s3,10.967.937,15.1c-3.077.58-3.342.614-3.342.614l-5.591-11.961-.594-3.167S376.43,238.872,378.717,239.219Z" transform="translate(-254.403 -209.305)" style="fill: #0d0d0d;opacity: 0.2"/>
                <path d="M355.158,244.587l-11.127,4.8s-.235,1.7-.038,1.648,11.608-3.7,11.608-3.7Z" transform="translate(-254.403 -209.305)" style="fill: #202020"/>
                <g>
                  <path d="M356.947,252.175a57.384,57.384,0,0,0,2.23,5.909l10.809-1.987c.831-1.231.931-2.993.633-5.446A114.864,114.864,0,0,1,356.947,252.175Z" transform="translate(-254.403 -209.305)" style="fill: #fff;opacity: 0.2"/>
                  <path d="M374.026,250.042l2.287,4.892s.266-.035,3.342-.614c.773-1.549.87-3.627.646-6.159A54.233,54.233,0,0,1,374.026,250.042Z" transform="translate(-254.403 -209.305)" style="fill: #fff;opacity: 0.2"/>
                </g>
                <path d="M358.955,258.509l-.122-.269c-.034-.074-3.358-7.439-4.05-13.611l-.03-.27.246-.115a73.227,73.227,0,0,1,12.694-4.3l0-.011.423-.1c.01,0,.962-.218,1.948-.4l.324-.059,0,.009a33.255,33.255,0,0,1,8.362-.541l.254.021.076.244c2.816,9.048,1.271,14.363.933,15.336l-.075.216-5.436.818-3.192-10.825c-.253-.8-.922-2.848-1.435-4.408q-.589.114-1.173.24c.725,2.045,3.635,10.878,1.635,15.756l-.078.191Zm-3.389-13.692a53.627,53.627,0,0,0,3.836,12.841l10.308-1.9c1.75-4.69-1.132-13.351-1.755-15.112A72.882,72.882,0,0,0,355.566,244.817Zm16.574-.017,2.9,9.832,4.327-.651c.356-1.18,1.555-6.23-.934-14.4a32.654,32.654,0,0,0-7.808.528c.157.479.428,1.3.7,2.13.435,1.332.668,2.046.76,2.443l.021.035-.011.007c.007.031.013.061.018.088Z" transform="translate(-254.403 -209.305)" style="fill: #202020"/>
                <polygon points="96.062 37.306 95.783 39.758 97.599 39.177 98.285 36.347 96.062 37.306" style="fill: #454545"/>
              </g>
              <path d="M370.525,242.233a127.015,127.015,0,0,1,6.259,14.278l1.947.809a9.188,9.188,0,0,1-.754,2.823,12.834,12.834,0,0,1-8.555-1.633,6.548,6.548,0,0,0,1.813-3.176c.542-2.215-1-11.452-1-11.452Z" transform="translate(-254.403 -209.305)" style="fill: url(#ab)"/>
              <path d="M363.094,261.94a.808.808,0,0,1,.846-1.068C363.481,261.511,363.094,261.94,363.094,261.94Z" transform="translate(-254.403 -209.305)" style="fill: #ff8d0d"/>
              <path d="M373.118,247.258s2.495-3.5,4.92-2.546c-.307.94-.479,1.059-.479,1.059S376.656,245.031,373.118,247.258Z" transform="translate(-254.403 -209.305)" style="fill: #593d14"/>
              <path d="M367.964,248.186s.735-4.569-7.057.564C362.2,248.25,366.2,246.33,367.964,248.186Z" transform="translate(-254.403 -209.305)" style="fill: #593d14"/>
              <path d="M365.806,266.921c1.366,2.478,3.341,4.864,5.863,4.785a2.074,2.074,0,0,0,1.386-.737A9.426,9.426,0,0,0,365.806,266.921Z" transform="translate(-254.403 -209.305)" style="fill: url(#ac)"/>
            </g>
          </g>
          <path d="M364.348,284.109l2.107,6.165,5.739-5.572.628.126-6.326,6.619a7.815,7.815,0,0,1-3.77.419C364.026,284.743,364.348,284.109,364.348,284.109Z" transform="translate(-254.403 -209.305)" style="fill: #aba8a8"/>
          <path d="M378.923,361.245c-.219,5-1.01,14.834-.911,17.86-9.886.851-28.367-8.141-32.758-15.983,1.54-4.229,3.834-12.9,16.84-12.568C376.184,350.912,379.06,358.136,378.923,361.245Z" transform="translate(-254.403 -209.305)" style="fill: url(#ad)"/>
          <path d="M345.781,361.645l-1.487,2.82s7.086,9.959,18.256,14.24c.228.088,1.821-2.247,2.052-2.164.463.167,0,1.8.479,1.947a29.9,29.9,0,0,0,13.087,1.22c-.156-1.931-.128-2.918-.128-2.918S361.05,379.449,345.781,361.645Z" transform="translate(-254.403 -209.305)" style="fill: #f3f8f7"/>
          <polygon points="108.861 82.661 113.788 86.927 113.957 80.193 108.861 82.661" style="fill: #f3f8f7"/>
          <path d="M347.848,271.379c.278.911,6.351,9.133,16.5,12.73.22.517,0,.279,0,.279s-10.346-3.362-12.8-5.53-4.515-7.478-4.515-7.478Z" transform="translate(-254.403 -209.305)" style="fill: #b7baba"/>
          <path d="M347.037,271.379a34.948,34.948,0,0,0,17.311,13.008c-.826,6.347-1.285,8.735-1.285,8.735a26.9,26.9,0,0,1-17.828-15.333C346.024,274.827,347.037,271.379,347.037,271.379Z" transform="translate(-254.403 -209.305)" style="fill: #f3f8f7"/>
        </g>
        <g>
          <g>
            <path d="M362.139,503.005s-2.221-14.112-3.075-26.923-1.025-33.771-1.025-33.771-1.991-5.036-3.075-7.516-5.306-2.014-7,.342-3.925,4.47-4.937,10.59S351.8,482.7,360.6,503.911C362.481,503.241,362.139,503.005,362.139,503.005Z" transform="translate(-254.403 -209.305)" style="fill: url(#ae)"/>
            <path d="M347.962,435.137c.672,4.452,6.157,3.824,7-.342S369.3,367.264,369.3,367.264a33.3,33.3,0,0,0-3.7-2.388c-14.128-7.9-19.7-2.332-19.7-2.332s-7.683,10.369-8.024,12.931,3.587,9.907,3.587,9.907S347.289,430.686,347.962,435.137Z" transform="translate(-254.403 -209.305)" style="fill: url(#af)"/>
            <path d="M355.84,509.647h14.412l-1.089-2.287a59.38,59.38,0,0,1-7.025-4.354,2.631,2.631,0,0,0-1.73.6c-2.319,2.457-4.568,4.521-4.568,4.521Z" transform="translate(-254.403 -209.305)" style="fill: url(#ag)"/>
            <path d="M355.27,370.968l-.939-.41a139.244,139.244,0,0,1-8.214,15.873c-.151-6.357-.212-10.786-.119-11.562.254-2.112,2.371-5.9,3.607-7.971l-1.41-.64c-1.305,2.195-3.441,6.078-3.723,8.428-.243,2.028.459,25.655,1.036,43.52l2.107,14.11c-.473-13.777-1.126-30.891-1.455-44.112C350.307,382.291,355.061,371.445,355.27,370.968Z" transform="translate(-254.403 -209.305)" style="fill: #fcedde;mix-blend-mode: multiply"/>
            <polygon points="115.85 300.341 101.081 300.341 101.438 298.825 115.493 298.825 115.85 300.341" style="fill: #f3f3f3"/>
            <path d="M350.6,445.833c-2.077.277-2.474-3.078-2.514-3.176l.951-.382c.205.508.953,1.85,1.932,1.95.773.078,1.687-.626,2.632-2.043l1.126.941A5.862,5.862,0,0,1,350.6,445.833Z" transform="translate(-254.403 -209.305)" style="fill: #fcedde;mix-blend-mode: multiply"/>
          </g>
          <path d="M392.288,438.411c-1.983-6.614-14.213-59.246-14.213-59.246s.046-6.308-8.368-11.581-16.136,10.72-6.306,31.608c4.517,9.6,18.1,38.257,20.6,43.32S394.446,445.611,392.288,438.411Z" transform="translate(-254.403 -209.305)" style="fill: url(#ah)"/>
          <path d="M375.248,509.647V507.6s3.681-2.791,5.124-6.064a2.465,2.465,0,0,1,2.391-.683s2.788,7.479,21.059,6.064a4.637,4.637,0,0,1,1.623,2.733Z" transform="translate(-254.403 -209.305)" style="fill: url(#ai)"/>
          <polygon points="120.845 298.291 150.401 298.769 151.775 300.341 120.845 300.341 120.845 298.291" style="fill: #f3f3f3"/>
          <path d="M383.163,501.284s5.036-36.7,9.415-60.445c.759-4.116-4.842-4.124-9.243-.144-1.281,1.158-6.264,5.718-9.019,15.332s9.9,23.3,6.055,45.506C382.836,501.875,383.163,501.284,383.163,501.284Z" transform="translate(-254.403 -209.305)" style="fill: url(#aj)"/>
          <path d="M385.9,438.869l-20.979-46.921.087-.452c.455-.4,4.453-3.986,4.865-6.874.39-2.732.023-10.207.007-10.524l-1.535.077a89.935,89.935,0,0,1,.007,10.23c-.18,1.263-1.459,2.939-2.648,4.24l.834-4.5.013-10.645h-1.537V383.93l-1.423,8.812,21.232,46.594,1.1-.414Z" transform="translate(-254.403 -209.305)" style="fill: #fcedde;mix-blend-mode: multiply"/>
          <path d="M378.967,361.246c-.219,5-1.01,14.835-.911,17.86-9.886.851-28.367-8.141-32.758-15.983,1.54-4.229,3.834-12.9,16.84-12.568C376.228,350.913,379.1,358.138,378.967,361.246Z" transform="translate(-254.403 -209.305)" style="fill: url(#ak)"/>
          <path d="M345.825,361.646l-1.487,2.82s8.413,12.37,21.633,15.793c.613.159,2.509-2.44,2.509-2.44l.82,1.778a34.112,34.112,0,0,0,8.912.113c-.156-1.931-.128-2.918-.128-2.918S361.094,379.45,345.825,361.646Z" transform="translate(-254.403 -209.305)" style="fill: #f3f8f7"/>
          <path d="M384.826,439.336l.483.467s-6.051,11.581-6.523,16.592,3.593,16.734,3.64,24.958a164.818,164.818,0,0,1-1.017,20.279l.992-.036a97.627,97.627,0,0,0,1.312-19.912c-.239-10.447-3.963-20.074-3.631-25.318s6.362-16.421,6.362-16.421l-.539-1.076Z" transform="translate(-254.403 -209.305)" style="fill: #fcedde;mix-blend-mode: multiply"/>
        </g>
        <g>
          <path d="M334.972,286.191a27.5,27.5,0,0,0-10.6,13.448c5.824,21.555,18.746,40.354,18.746,40.354s9.662,5.383,15.455,2.439,8.171-7.272,5.793-14.449c-2-6.023-3.31-7.42-3.31-7.42l-.57,1.286-.073-2.808-2.224,1.045.206-1.1S343.112,291.693,334.972,286.191Z" transform="translate(-254.403 -209.305)" style="fill: #f3f8f7"/>
          <path d="M347.894,345.646c9.648,2.646,16.47.774,18-11.163,1.123-8.785-3.3-16.794-8.026-18.444s-14.662,2.786-16.7,11.945C339.7,334.576,343.244,343.014,347.894,345.646Z" transform="translate(-254.403 -209.305)" style="fill: #fff"/>
          <polygon points="90.896 90.333 94.621 91.829 92.604 96.998 89.411 95.694 90.896 90.333" style="fill: #af7727"/>
          <polygon points="88.071 98.625 91.523 101.82 92.152 99.772 88.071 98.625" style="fill: #af7727"/>
          <polygon points="88.071 102.178 92.626 103.254 91.87 106.248 85.85 105.446 88.071 102.178" style="fill: #af7727"/>
          <path d="M359.416,344.9l-4.166.327a6.056,6.056,0,0,0-2.864-3.342c-3.57-2.107-9.741-4.793-11.667-12.174-3.207-12.293,11.323-27.11,7.113-51.186l3.282-.788S381,325.006,359.416,344.9Z" transform="translate(-254.403 -209.305)" style="fill: url(#al)"/>
          <polygon points="92.721 106.732 91.429 110.387 85.85 105.446 88.071 102.178 92.721 106.732" style="fill: #f0a336"/>
          <polygon points="93.721 100.796 88.071 98.625 93.721 98.625 93.721 100.796" style="fill: #f0a336"/>
          <path d="M349.295,303.969c.066-.3-4-4.33-4-4.33L343.814,305l5.481.267Z" transform="translate(-254.403 -209.305)" style="fill: #f0a336"/>
          <path d="M347.832,278.527l-4.716-8.133.532-7.5s2.772.98,2.855,3.3a32.216,32.216,0,0,1-.085,3.981S350.212,276.576,347.832,278.527Z" transform="translate(-254.403 -209.305)" style="fill: url(#am)"/>
          <polygon points="95.923 64.78 84.117 49.114 90.199 39.597 91.326 39.767 104.375 56.047 95.923 64.78" style="fill: #404040"/>
          <polygon points="103.451 56.2 95.683 64.461 95.923 64.78 104.375 56.047 103.451 56.2" style="fill: #505050"/>
          <polygon points="90.199 39.597 103.451 56.2 104.375 56.047 91.326 39.767 90.199 39.597" style="fill: #636363"/>
          <path d="M347.832,278.527l-3.318-15.395s7.849,1.716,9.121,3.543.585,12.148-1.592,12.6A6.636,6.636,0,0,1,347.832,278.527Z" transform="translate(-254.403 -209.305)" style="fill: url(#an)"/>
          <path d="M344.514,263.133l1.7-6.131,2.37-5.818s3.249.909,2.413,3.113c-.315.83-1.351,2.3-2.01,4.029-1.09,2.863-1.394,4.716-1.683,5.512A2.482,2.482,0,0,1,344.514,263.133Z" transform="translate(-254.403 -209.305)" style="fill: url(#ao)"/>
          <path d="M347.123,263.783l2.553-5.616,3.561-1.828,2.674.895s.224,2.442-1.832,2.256a2.979,2.979,0,0,0-2.173.655l-2.216,4.423A4.869,4.869,0,0,1,347.123,263.783Z" transform="translate(-254.403 -209.305)" style="fill: url(#ap)"/>
          <path d="M349.613,264.571c-.147-.052,3.094-4.231,3.094-4.231l3.637-.988,1.509,1.589s.071,2-1.509,1.541c-1.563-.454-2.146.192-2.146.192s-1.592,2.55-2.3,2.824A4.368,4.368,0,0,1,349.613,264.571Z" transform="translate(-254.403 -209.305)" style="fill: url(#aq)"/>
          <path d="M351.87,265.439l3.326-2.375,3.375-.091,1.63,1.191s-1.145,1.407-2.127,1.007a1.656,1.656,0,0,0-1.465-.086l-2.7,2.212A4.425,4.425,0,0,1,351.87,265.439Z" transform="translate(-254.403 -209.305)" style="fill: url(#ar)"/>
        </g>
      </g>
    </g>
  </g>
</svg>
