<svg xmlns="http://www.w3.org/2000/svg" xmlns:xlink="http://www.w3.org/1999/xlink" viewBox="0 0 311.943 298.799">
  <defs>
    <linearGradient id="a" x1="7479.986" y1="442.079" x2="7479.986" y2="399.504" gradientTransform="translate(-7379.823 -214.099)" gradientUnits="userSpaceOnUse">
      <stop offset="0" stop-color="#514f4f"/>
      <stop offset="1" stop-color="#393939"/>
    </linearGradient>
    <linearGradient id="b" x1="7508.163" y1="471.417" x2="7526.02" y2="471.417" gradientTransform="translate(-7176.17)" gradientUnits="userSpaceOnUse">
      <stop offset="0" stop-color="#5e5e5e"/>
      <stop offset="1" stop-color="#424343"/>
    </linearGradient>
    <linearGradient id="c" x1="7611.481" y1="835.454" x2="7621.55" y2="835.454" gradientTransform="matrix(0.996, -0.092, 0.092, 0.996, -7340.827, 339.804)" xlink:href="#b"/>
    <linearGradient id="d" x1="324.598" y1="386.957" x2="307.077" y2="376.737" gradientUnits="userSpaceOnUse">
      <stop offset="0" stop-color="#ecca9f"/>
      <stop offset="0.23" stop-color="#e6bf9b"/>
      <stop offset="0.627" stop-color="#dfb296"/>
      <stop offset="1" stop-color="#ddae94"/>
    </linearGradient>
    <linearGradient id="e" x1="312.908" y1="403.438" x2="296.458" y2="393.842" gradientUnits="userSpaceOnUse">
      <stop offset="0" stop-color="#ecca9f"/>
      <stop offset="0.441" stop-color="#efc1a0"/>
      <stop offset="1" stop-color="#f0bda0"/>
    </linearGradient>
    <linearGradient id="f" x1="294.574" y1="378.018" x2="294.189" y2="366.409" xlink:href="#e"/>
    <linearGradient id="g" x1="306.535" y1="378.577" x2="306.162" y2="367.323" xlink:href="#e"/>
    <linearGradient id="h" x1="295.382" y1="311.233" x2="291.79" y2="351.128" gradientUnits="userSpaceOnUse">
      <stop offset="0" stop-color="#525252"/>
      <stop offset="0.245" stop-color="#494949"/>
      <stop offset="0.549" stop-color="#373737"/>
      <stop offset="0.775" stop-color="#464646"/>
      <stop offset="1" stop-color="#505050"/>
    </linearGradient>
    <linearGradient id="i" x1="304.157" y1="312.023" x2="300.564" y2="351.918" xlink:href="#h"/>
    <linearGradient id="j" x1="7610.664" y1="289.085" x2="7614.822" y2="268.291" gradientTransform="translate(-7316.17)" gradientUnits="userSpaceOnUse">
      <stop offset="0" stop-color="#ffc8b6"/>
      <stop offset="0.189" stop-color="#fbb9a3"/>
      <stop offset="0.47" stop-color="#f6a88e"/>
      <stop offset="0.743" stop-color="#f39d81"/>
      <stop offset="1" stop-color="#f29a7d"/>
    </linearGradient>
    <linearGradient id="k" x1="7477.683" y1="270.911" x2="7475.734" y2="284.549" gradientTransform="translate(-7176.17)" gradientUnits="userSpaceOnUse">
      <stop offset="0" stop-color="#fffbf7"/>
      <stop offset="0.06" stop-color="#fdf7f2"/>
      <stop offset="0.385" stop-color="#f5e4dd"/>
      <stop offset="0.702" stop-color="#f1d9d0"/>
      <stop offset="1" stop-color="#efd5cc"/>
    </linearGradient>
    <linearGradient id="l" x1="-31.109" y1="276.495" x2="-37.506" y2="290.723" gradientTransform="matrix(-1, 0, 0, 1, 274.752, 0)" gradientUnits="userSpaceOnUse">
      <stop offset="0" stop-color="#ffb80d"/>
      <stop offset="0.27" stop-color="#ffaa0d"/>
      <stop offset="0.646" stop-color="#ff9d0d"/>
      <stop offset="1" stop-color="#ff990d"/>
    </linearGradient>
    <linearGradient id="m" x1="-19.078" y1="266.111" x2="-14.04" y2="276.505" gradientTransform="matrix(-1, 0, 0, 1, 274.752, 0)" gradientUnits="userSpaceOnUse">
      <stop offset="0" stop-color="#ffb80d"/>
      <stop offset="0.539" stop-color="#ffbe0d"/>
      <stop offset="1" stop-color="#ffc80d"/>
    </linearGradient>
    <linearGradient id="n" x1="-128.557" y1="720.596" x2="-127.31" y2="723.168" gradientTransform="matrix(-0.994, 0.113, 0.113, 0.994, 88.679, -428.642)" gradientUnits="userSpaceOnUse">
      <stop offset="0" stop-color="#ffb80d"/>
      <stop offset="1" stop-color="#ffd90d"/>
    </linearGradient>
    <linearGradient id="o" x1="-29.965" y1="276.555" x2="-34.622" y2="287.4" gradientTransform="matrix(-1, 0, 0, 1, 274.752, 0)" gradientUnits="userSpaceOnUse">
      <stop offset="0" stop-color="#ffb80d"/>
      <stop offset="0.34" stop-color="#ffbe0d"/>
      <stop offset="0.797" stop-color="#ffcf0d"/>
      <stop offset="1" stop-color="#ffd90d"/>
    </linearGradient>
    <linearGradient id="p" x1="-38.221" y1="272.942" x2="-42.878" y2="283.788" xlink:href="#m"/>
    <linearGradient id="q" x1="7468.174" y1="236.939" x2="7451.789" y2="232.654" gradientTransform="translate(-7176.17)" gradientUnits="userSpaceOnUse">
      <stop offset="0" stop-color="#ffb80d"/>
      <stop offset="0.244" stop-color="#ffc40d"/>
      <stop offset="0.633" stop-color="#ffd10d"/>
      <stop offset="1" stop-color="#ffd50d"/>
    </linearGradient>
    <clipPath id="r" transform="translate(-203.654 -214.099)">
      <path d="M306.847,250.907s1.114,1.249-.2,4.789c-3.284-.811-6.581-1.342-6.581-1.342l.489-2.265Z" style="fill: none"/>
    </clipPath>
    <linearGradient id="s" x1="7449.455" y1="-2710.245" x2="7450.598" y2="-2718.085" gradientTransform="translate(-7617.31 -102.594) rotate(22.593)" gradientUnits="userSpaceOnUse">
      <stop offset="0" stop-color="#0dfffd"/>
      <stop offset="1" stop-color="#0d736d"/>
    </linearGradient>
    <clipPath id="t" transform="translate(-203.654 -214.099)">
      <path d="M316.859,252.886c.47,2.246-.33,3.171-.33,3.171l-3.612.277-.752-4.492A8.5,8.5,0,0,1,316.859,252.886Z" style="fill: none"/>
    </clipPath>
    <linearGradient id="u" x1="6129.277" y1="-2897.073" x2="6130.302" y2="-2903.961" gradientTransform="matrix(1.116, 0.496, -0.359, 0.938, -7570.58, -63.508)" xlink:href="#s"/>
    <linearGradient id="w" x1="7698.931" y1="-707.283" x2="7704.778" y2="-700.925" gradientTransform="translate(-7415.883 -42.652) rotate(7.475)" gradientUnits="userSpaceOnUse">
      <stop offset="0" stop-color="#ffc8b6"/>
      <stop offset="0.218" stop-color="#ffb79f"/>
      <stop offset="0.488" stop-color="#ffa78a"/>
      <stop offset="0.752" stop-color="#ff9d7d"/>
      <stop offset="1" stop-color="#ff9a79"/>
    </linearGradient>
    <linearGradient id="x" x1="7515.77" y1="335.212" x2="7512.216" y2="350.257" gradientTransform="translate(-7176.17)" gradientUnits="userSpaceOnUse">
      <stop offset="0" stop-color="#ffc8b6"/>
      <stop offset="0.612" stop-color="#f5a185"/>
      <stop offset="1" stop-color="#ef8c6b"/>
    </linearGradient>
    <linearGradient id="y" x1="7532.372" y1="345.985" x2="7531.473" y2="351.184" gradientTransform="translate(-7176.17)" gradientUnits="userSpaceOnUse">
      <stop offset="0" stop-color="#ffc8b6"/>
      <stop offset="1" stop-color="#fca68c"/>
    </linearGradient>
    <linearGradient id="z" x1="362.186" y1="347.598" x2="362.918" y2="351.896" gradientTransform="matrix(1, 0, 0, 1, 0, 0)" xlink:href="#x"/>
    <linearGradient id="aa" x1="7536.74" y1="346.759" x2="7537.422" y2="350.756" xlink:href="#x"/>
    <linearGradient id="ab" x1="7220.148" y1="-1104.53" x2="7220.961" y2="-1098.747" gradientTransform="translate(-6732.175 -1381.782) rotate(22.384)" xlink:href="#x"/>
    <linearGradient id="ac" x1="7370.976" y1="-692.019" x2="7371.779" y2="-686.298" gradientTransform="matrix(0.962, 0.272, -0.272, 0.962, -6919.211, -993.898)" xlink:href="#x"/>
    <linearGradient id="ad" x1="7533.906" y1="345.889" x2="7534.773" y2="350.978" xlink:href="#x"/>
    <linearGradient id="ae" x1="7534.998" y1="347.061" x2="7535.802" y2="352.781" xlink:href="#x"/>
    <linearGradient id="af" x1="7531.066" y1="346.078" x2="7530.719" y2="353.865" xlink:href="#x"/>
    <linearGradient id="ag" x1="7531.664" y1="347.529" x2="7532.467" y2="353.249" xlink:href="#x"/>
    <linearGradient id="ah" x1="7525.578" y1="344.811" x2="7524.68" y2="350.011" xlink:href="#y"/>
    <linearGradient id="ai" x1="7512.004" y1="346.023" x2="7512.414" y2="355.115" gradientTransform="translate(-7176.17)" gradientUnits="userSpaceOnUse">
      <stop offset="0" stop-color="#ffc8b6"/>
      <stop offset="0.14" stop-color="#fabda9"/>
      <stop offset="0.438" stop-color="#f2aa94"/>
      <stop offset="0.728" stop-color="#ee9f87"/>
      <stop offset="1" stop-color="#ec9b83"/>
    </linearGradient>
    <linearGradient id="aj" x1="7485.535" y1="344.761" x2="7480.146" y2="375.297" gradientTransform="translate(-7176.17)" gradientUnits="userSpaceOnUse">
      <stop offset="0" stop-color="#ffc8b6"/>
      <stop offset="0.023" stop-color="#ffc7b4"/>
      <stop offset="0.361" stop-color="#ffb79f"/>
      <stop offset="0.69" stop-color="#ffad92"/>
      <stop offset="1" stop-color="#ffaa8e"/>
    </linearGradient>
    <linearGradient id="ak" x1="7511.565" y1="347.925" x2="7512.164" y2="355.804" xlink:href="#aj"/>
    <linearGradient id="al" x1="7520.871" y1="345.449" x2="7519.646" y2="352.393" gradientTransform="translate(-7176.17)" gradientUnits="userSpaceOnUse">
      <stop offset="0" stop-color="#ffc8b6"/>
      <stop offset="0.06" stop-color="#fec4b1"/>
      <stop offset="0.385" stop-color="#fcb39c"/>
      <stop offset="0.702" stop-color="#fba98f"/>
      <stop offset="1" stop-color="#faa58b"/>
    </linearGradient>
    <linearGradient id="am" x1="7190.927" y1="1897.476" x2="7189.626" y2="1904.85" gradientTransform="matrix(0.905, -0.425, 0.452, 0.963, -7020.875, 1575.798)" xlink:href="#aj"/>
    <linearGradient id="an" x1="7518.827" y1="345.387" x2="7517.777" y2="351.338" xlink:href="#aj"/>
    <radialGradient id="ao" cx="7387.194" cy="1388.535" r="4.928" gradientTransform="matrix(0.961, -0.278, 0.288, 0.996, -7155.359, 1019.132)" gradientUnits="userSpaceOnUse">
      <stop offset="0" stop-color="#ffaa8e"/>
      <stop offset="0.31" stop-color="#ffad92"/>
      <stop offset="0.639" stop-color="#ffb79f"/>
      <stop offset="0.977" stop-color="#ffc7b4"/>
      <stop offset="1" stop-color="#ffc8b6"/>
    </radialGradient>
    <radialGradient id="ap" cx="7516.482" cy="349.779" r="4.928" gradientTransform="translate(-7176.17)" xlink:href="#ao"/>
    <linearGradient id="aq" x1="7515.066" y1="347.659" x2="7515.665" y2="355.538" xlink:href="#aj"/>
    <linearGradient id="ar" x1="7517.018" y1="347.511" x2="7517.617" y2="355.389" xlink:href="#aj"/>
    <linearGradient id="as" x1="43.24" y1="125.709" x2="57.864" y2="125.709" gradientUnits="userSpaceOnUse">
      <stop offset="0" stop-color="#ffd6bc"/>
      <stop offset="1" stop-color="#e5906f"/>
    </linearGradient>
    <linearGradient id="at" x1="41.797" y1="110.096" x2="61.193" y2="110.096" gradientUnits="userSpaceOnUse">
      <stop offset="0" stop-color="#b85021"/>
      <stop offset="1" stop-color="#a94a1e"/>
    </linearGradient>
    <linearGradient id="au" x1="43.592" y1="126.409" x2="59.53" y2="126.409" gradientUnits="userSpaceOnUse">
      <stop offset="0" stop-color="#a7491e"/>
      <stop offset="1" stop-color="#903f1a"/>
    </linearGradient>
    <linearGradient id="av" x1="-177.126" y1="394.315" x2="-177.126" y2="358.438" gradientTransform="matrix(-1, 0, 0, 1, 71.099, -214.099)" gradientUnits="userSpaceOnUse">
      <stop offset="0" stop-color="#4b4b4b"/>
      <stop offset="1" stop-color="#343434"/>
    </linearGradient>
    <linearGradient id="aw" x1="5.833" y1="394.315" x2="5.833" y2="358.438" xlink:href="#av"/>
    <linearGradient id="ax" x1="-85.204" y1="368.546" x2="-85.204" y2="356.669" xlink:href="#av"/>
    <linearGradient id="ay" x1="-185.101" y1="331.483" x2="-186.1" y2="317.93" gradientTransform="matrix(-1, 0, 0, 1, 274.752, 0)" gradientUnits="userSpaceOnUse">
      <stop offset="0" stop-color="#739327"/>
      <stop offset="0.14" stop-color="#809828"/>
      <stop offset="0.438" stop-color="#95a02a"/>
      <stop offset="0.728" stop-color="#a2a42c"/>
      <stop offset="1" stop-color="#a6a62c"/>
    </linearGradient>
    <linearGradient id="az" x1="-183.231" y1="332.287" x2="-184.324" y2="317.456" gradientTransform="matrix(-1, 0, 0, 1, 274.752, 0)" gradientUnits="userSpaceOnUse">
      <stop offset="0" stop-color="#78b60d"/>
      <stop offset="0.201" stop-color="#9cc51d"/>
      <stop offset="0.408" stop-color="#bad129"/>
      <stop offset="0.613" stop-color="#cfda33"/>
      <stop offset="0.813" stop-color="#dcdf38"/>
      <stop offset="1" stop-color="#e0e13a"/>
    </linearGradient>
    <linearGradient id="ba" x1="-185.699" y1="338.134" x2="-184.865" y2="358.429" gradientTransform="matrix(-1, 0, 0, 1, 71.099, -214.099)" gradientUnits="userSpaceOnUse">
      <stop offset="0" stop-color="#595959"/>
      <stop offset="0.499" stop-color="#656565"/>
      <stop offset="1" stop-color="#696969"/>
    </linearGradient>
    <linearGradient id="bb" x1="-165.523" y1="317.189" x2="-186.863" y2="363.765" gradientTransform="matrix(-1, 0, 0, 1, 71.099, -214.099)" gradientUnits="userSpaceOnUse">
      <stop offset="0" stop-color="#595959"/>
      <stop offset="0.189" stop-color="#6c6c6c"/>
      <stop offset="0.47" stop-color="#818181"/>
      <stop offset="0.743" stop-color="#8e8e8e"/>
      <stop offset="1" stop-color="#929292"/>
    </linearGradient>
    <linearGradient id="bc" x1="3276.692" y1="318.488" x2="3274.649" y2="359.364" gradientTransform="translate(-2881.043)" gradientUnits="userSpaceOnUse">
      <stop offset="0" stop-color="#dfa967"/>
      <stop offset="0.503" stop-color="#ffd486"/>
      <stop offset="1" stop-color="#dfa967"/>
    </linearGradient>
    <linearGradient id="bd" x1="3258.772" y1="349.69" x2="3258.529" y2="354.553" gradientTransform="translate(-2881.043)" gradientUnits="userSpaceOnUse">
      <stop offset="0" stop-color="#f4bd78"/>
      <stop offset="1" stop-color="#ffd486"/>
    </linearGradient>
    <linearGradient id="be" x1="3276.888" y1="318.509" x2="3274.844" y2="359.385" gradientTransform="translate(-2881.043)" gradientUnits="userSpaceOnUse">
      <stop offset="0" stop-color="#d7a669"/>
      <stop offset="1" stop-color="#ffcd82"/>
    </linearGradient>
    <linearGradient id="bf" x1="3230.669" y1="350.446" x2="3230.553" y2="352.764" gradientTransform="translate(-2881.043)" gradientUnits="userSpaceOnUse">
      <stop offset="0" stop-color="#dfad6d"/>
      <stop offset="1" stop-color="#ffd486"/>
    </linearGradient>
    <linearGradient id="bg" x1="3237.718" y1="350.747" x2="3238.324" y2="351.565" gradientTransform="translate(-3084.697 -214.099)" gradientUnits="userSpaceOnUse">
      <stop offset="0" stop-color="#6e6e6e"/>
      <stop offset="1" stop-color="#404040"/>
    </linearGradient>
    <linearGradient id="bh" x1="3235.435" y1="350.747" x2="3236.041" y2="351.565" xlink:href="#bg"/>
    <linearGradient id="bi" x1="3248.136" y1="349.293" x2="3247.498" y2="351.904" gradientTransform="translate(-3084.697 -214.099)" gradientUnits="userSpaceOnUse">
      <stop offset="0" stop-color="#bbb"/>
      <stop offset="1" stop-color="#fff"/>
    </linearGradient>
    <linearGradient id="bj" x1="3292.114" y1="349.821" x2="3292.966" y2="351.88" gradientTransform="translate(-3084.697 -214.099)" gradientUnits="userSpaceOnUse">
      <stop offset="0" stop-color="#bbb"/>
      <stop offset="0.602" stop-color="#ebebeb"/>
      <stop offset="1" stop-color="#fff"/>
    </linearGradient>
    <linearGradient id="bk" x1="-165.481" y1="436.117" x2="-169.451" y2="516.66" xlink:href="#av"/>
  </defs>
  <title>consumer-b-sad</title>
  <g style="isolation: isolate">
    <g>
      <g>
        <polygon points="35.914 296.816 42.598 291.509 267.67 291.509 284.068 296.816 35.914 296.816" style="opacity: 0.04"/>
        <polygon points="311.943 297.791 295.809 295.434 117.361 295.434 119.694 298.799 311.943 297.791" style="opacity: 0.08"/>
        <polygon points="124.627 298.773 119.694 294.859 16.562 294.859 7.96 297.917 124.627 298.773" style="opacity: 0.03"/>
      </g>
      <g>
        <polygon points="103.421 292.979 96.905 292.979 97.758 260.776 102.49 260.688 103.421 292.979" style="fill: #535151"/>
        <polygon points="104.74 267.882 95.664 268.847 94.811 184.081 105.515 184.081 104.74 267.882" style="fill: url(#a)"/>
        <polygon points="97.658 269.547 102.607 270.009 102.583 268.111 97.668 268.634 97.658 269.547" style="fill: #313131"/>
        <polygon points="124.989 290.412 75.03 291.399 74.372 293.965 124.989 293.965 124.989 290.412" style="fill: #6b6a6a"/>
        <polygon points="137.768 188.171 62.496 187.264 62.935 174.427 79.82 177.965 135.886 177.156 137.768 188.171" style="fill: #913214"/>
        <polygon points="136.362 254.581 65.984 254.251 66.569 251.724 135.434 251.724 136.362 254.581" style="fill: #6b6a6a"/>
      </g>
      <g>
        <path d="M302.2,277.184s-11.277-8.351-18.082-1.827c-.566,4.727-.736,6.168-.736,6.168s3.982-5.532,15.855-1.052C301.275,279.8,302.2,277.184,302.2,277.184Z" transform="translate(-203.654 -214.099)" style="fill: #aba8a8"/>
        <path d="M284.176,275.147s2.843-3.42,8.937-2.484c6.364.977,9.084,4.521,9.084,4.521l-.364.18a17.972,17.972,0,0,0-8.809-4.138,10.92,10.92,0,0,0-8.036,1.921Z" transform="translate(-203.654 -214.099)" style="fill: #b7baba"/>
        <path d="M317.5,460.816l2.11.91,8.27,23.8s-5.644.549-9.2-1.591-5.427-17.8-4.664-21.476C316.362,459.619,317.5,460.816,317.5,460.816Z" transform="translate(-203.654 -214.099)" style="fill: #f3f3f3"/>
        <path d="M336.556,458.325s-2.546,2.327-4.563,2.732c.322,1.839,2.512,6.21,5.924,10.69a124.708,124.708,0,0,0,11.376,12.762c.851-2.879.473-3.635.473-3.635a84.385,84.385,0,0,1-6.051-7.815c-2.395-3.656-4.078-13.236-4.078-13.236Z" transform="translate(-203.654 -214.099)" style="fill: url(#b)"/>
        <path d="M315.253,459.173c3.127-1.175,4.954,2.929,5.26,4.872s6.186,20.39,6.186,20.39-6.646-.2-8.542-2.467S313.483,459.838,315.253,459.173Z" transform="translate(-203.654 -214.099)" style="fill: url(#c)"/>
        <path d="M305.212,368.883s-15.7,5.1-6.24,22.805c6.009,2.68,37.329,5.614,42.433,6.141,4.186.433,9.413.06,11.571-2.9a12.7,12.7,0,0,0,1.819-10.039C353.589,384.466,328.082,375.459,305.212,368.883Z" transform="translate(-203.654 -214.099)" style="fill: url(#d)"/>
        <path d="M346.9,387.686a15.937,15.937,0,0,0-5.489,10.143s-15.971,9.2-10.058,20.892S336.4,459.7,336.4,459.7s1.068,2.415,2.781-.094c-.222-23.561,12.572-46.637,15.184-61.341a47.819,47.819,0,0,0,.57-13.317C354.112,384.554,351.622,383.762,346.9,387.686Z" transform="translate(-203.654 -214.099)" style="fill: url(#e)"/>
        <path d="M344.238,393.121l1.065-1.457-43.765-12.23-.453,1.443,41.753,11.6-1.578,2.159h1.727l-1.335.815,2.321,3.159c-1.748,1.771-11.019,7.785-11.442,14.211-.163,2.478,1.578,6.1,2.823,10.693,2.261,8.329,2.171,20.549.924,35.116.084.688.128,1.069.128,1.069a4.83,4.83,0,0,0,1.232.6c1.652-15.508,1.545-28.451-.824-37.178-1.209-4.454-2.92-7.971-2.773-10.2.447-6.8,11.372-13.609,11.449-13.681l.485-.459-2.128-2.9,4.516-2.76Z" transform="translate(-203.654 -214.099)" style="fill: #fcedde;mix-blend-mode: multiply"/>
        <path d="M282.507,367.532s-7.626,12.689-6.24,23.561c6.3,2.81,23.974,5.9,25.416,6.141,10.367,1.757,13.463-2.474,11.549-13.3C311.906,383.063,296.91,373.084,282.507,367.532Z" transform="translate(-203.654 -214.099)" style="fill: url(#f)"/>
        <path d="M316.352,420.593c.354-14.324-2.427-31.772-2.692-33.533-.523-3.478-8.3-4.164-11.977,10.175-.214.836-3.158,8.247-2.836,14.683s14.617,47.464,17.1,49.355l1.475.839.631-1.406S316.848,431.638,316.352,420.593Z" transform="translate(-203.654 -214.099)" style="fill: url(#g)"/>
        <path d="M303.815,410.719l2.433-14.308-1.678-1.183L307,393.365l-1.082-.542c-.125-.063-12.418-6.175-23.758-8.015a39.836,39.836,0,0,1,3.239-13.026l-1.369-.643a40.2,40.2,0,0,0-3.408,14.293l-.018.671.664.1c9.337,1.377,19.56,5.9,22.873,7.448l-2.13,1.63,2.167,1.527-1.764,13.285s-1.86,9.019,8.037,38.909c2.508,6.629,4.661,11.641,5.492,12.274l.2.112C303.293,422.7,303.51,412.041,303.815,410.719Z" transform="translate(-203.654 -214.099)" style="fill: #fcedde;mix-blend-mode: multiply"/>
        <path d="M343.544,330.692a6.288,6.288,0,0,1-.363,2.409,16.02,16.02,0,0,1-3.25-2.647A11.759,11.759,0,0,1,343.544,330.692Z" transform="translate(-203.654 -214.099)" style="fill: #af7727"/>
        <path d="M344.468,330.974a10.524,10.524,0,0,1-.925,2.316,2.673,2.673,0,0,1-1-1.533A5.665,5.665,0,0,1,344.468,330.974Z" transform="translate(-203.654 -214.099)" style="fill: #af7727"/>
        <path d="M348.533,334.377a6.759,6.759,0,0,1-.591,2.954,37.859,37.859,0,0,1-2.151-3.451A9.514,9.514,0,0,1,348.533,334.377Z" transform="translate(-203.654 -214.099)" style="fill: #af7727"/>
        <path d="M310.485,287.888c2.022,1.518,6.32,4.485,9.864,7.559,3.374,7.088,12.6,27.072,15.928,35.186,2.541,6.191-6.9,23.212-15.928,16.849C312.107,341.674,305.647,284.255,310.485,287.888Z" transform="translate(-203.654 -214.099)" style="fill: #f3f8f7"/>
        <path d="M316.1,360.155c.761-15.9-.18-39.216-.18-39.216a19.257,19.257,0,0,0,4.427-6.021c-1.793-9.992-9.864-27.031-9.864-27.031s-14.6-9.48-19.857-9.608-18.491,11.121-18.576,11.658c-5,31.643,11.273,44.582,11.273,44.582s5.509,12.295.237,29.564c-1.117,3.778,7.464,7.1,16.081,7.056,8.2-.042,16.433-3.269,16.369-6.742C315.987,363,316.031,361.651,316.1,360.155Z" transform="translate(-203.654 -214.099)" style="fill: url(#h)"/>
        <path d="M283.563,364.083a26.526,26.526,0,0,1-2.884,7.146c4.9,6.594,14.042,2.368,20.734,5.393,5.873,2.654,15.445-3.9,15.445-4.138a43.285,43.285,0,0,1-.857-8.4C315.729,355.385,285.854,354.434,283.563,364.083Z" transform="translate(-203.654 -214.099)" style="fill: url(#i)"/>
        <polygon points="106.308 74.496 98.543 63.085 95.58 66.374 102.804 81.261 106.308 74.496" style="fill: #a3a6a6"/>
        <path d="M277.474,285.29a46.761,46.761,0,0,0-12.083,12.8c3.758,18.106,19.643,51.585,19.643,51.585l12.6-2.391s9.163-6.04,7.9-13.494a9.956,9.956,0,0,0-6.487-7.857l-.758,1.185.352-2.786-2.356.7.37-1.06S284.69,291.959,277.474,285.29Z" transform="translate(-203.654 -214.099)" style="fill: #f3f8f7"/>
        <path d="M289.641,263.47l-4.922,17.112s9.041,14.159,17.985,14.037-6.468-31.149-6.468-31.149Z" transform="translate(-203.654 -214.099)" style="fill: url(#j)"/>
        <polygon points="96.748 81.636 101.676 85.902 101.844 79.167 96.748 81.636" style="fill: #f3f8f7"/>
        <polygon points="105.68 74.371 98.179 63.265 98.543 63.085 106.308 74.496 105.68 74.371" style="fill: #aba8a8"/>
        <path d="M301.487,287.877l2.107,6.165,5.74-5.572.628.126-6.326,6.619a7.815,7.815,0,0,1-3.77.419C301.164,288.511,301.487,287.877,301.487,287.877Z" transform="translate(-203.654 -214.099)" style="fill: #aba8a8"/>
        <path d="M284.987,275.147c.278.911,6.351,9.133,16.5,12.73.22.517,0,.279,0,.279s-10.346-3.362-12.8-5.53-4.515-7.478-4.515-7.478Z" transform="translate(-203.654 -214.099)" style="fill: #b7baba"/>
        <path d="M284.176,275.147a34.948,34.948,0,0,0,17.311,13.008c-.826,6.347-1.285,8.735-1.285,8.735a26.9,26.9,0,0,1-17.828-15.333C283.162,278.6,284.176,275.147,284.176,275.147Z" transform="translate(-203.654 -214.099)" style="fill: #f3f8f7"/>
        <g>
          <path d="M311.067,228.99s8.306,14.026,6.224,30.105-7.911,25.492-7.911,25.492l-11.332-1.507s1.749-19.208-17.5-20.085a108.91,108.91,0,0,1-.1-12.07l10.242-.04,1.578-17.175Z" transform="translate(-203.654 -214.099)" style="fill: #ffc8b6"/>
          <path d="M306.721,256.578a20.85,20.85,0,0,1-3.884,1.587A3.23,3.23,0,0,0,306.721,256.578Z" transform="translate(-203.654 -214.099)" style="fill: #f7b099"/>
          <path d="M316.162,258.439a16.488,16.488,0,0,1-2.879-1.65A2.554,2.554,0,0,0,316.162,258.439Z" transform="translate(-203.654 -214.099)" style="fill: #f7b099"/>
          <path d="M300.532,252.235s-3.878-1.059-3.676-1.059,3.348,1.454,3.348,1.454l-.136,1.037s-3.494.251-3.43.251,3.88.368,3.88.368A3.137,3.137,0,0,0,300.532,252.235Z" transform="translate(-203.654 -214.099)" style="fill: #f7b099"/>
          <path d="M298.049,283.081l11.333,1.507s4.989-8.065,7.384-22.008c-.489,1.834-1.788,3.592-6.113,3.017-5.381-.716-18.277-8.505-18.277-8.505l-2.961.074s.095,4.37.185,8.178C299.17,270.664,298.049,283.081,298.049,283.081Z" transform="translate(-203.654 -214.099)" style="mix-blend-mode: multiply;fill: url(#k)"/>
          <path d="M316.685,263.048c.033.2,1.48,12.75,0,14.379s-1.868,1.733-1.868,1.733,2.069,7.274-1.891,9.095-8.713-2.441-8.713-2.441-1.5,1.578-2.721,1.2-5.479-3.545-5.479-3.545-1.889,1.054-3.213.671-3.1-11.4-3.11-11.689-2.266.479-3.123-1.341,2.848-13.939,2.848-13.939l3.012-.586s11.042,8.872,17.525,9.543S316.685,263.048,316.685,263.048Z" transform="translate(-203.654 -214.099)" style="fill: url(#l)"/>
          <path d="M297.635,264.556s-6.831,13.925-9.221,12.584,4.543-15.522,4.543-15.522Z" transform="translate(-203.654 -214.099)" style="fill: url(#m)"/>
          <path d="M299.862,272.643s-1.277,3.8-2.318,3.368-1.434-4.619-1.434-4.619Z" transform="translate(-203.654 -214.099)" style="fill: url(#n)"/>
          <path d="M308.588,273.819c.182,0-1.884,14.594-3.314,14.628-2,.048-3.558-14.628-3.558-14.628Z" transform="translate(-203.654 -214.099)" style="fill: url(#o)"/>
          <path d="M314.238,271.391s3.309,9.581,2.527,10.54-5.593-8.687-5.593-8.687Z" transform="translate(-203.654 -214.099)" style="fill: url(#p)"/>
          <path d="M280.447,250.925s-3.121-2.912-2.064-8.94c0,0-10.562-12.347,7-7.434-15.907-19.9,15.586-15.947,17.115-15.744,5.485.729,11.086,15.166,11.086,15.166s-5.26-3.176-19.106.123c-.351,5.561-2.1,22.993-2.1,22.993l-2.961.074-.847-6.271Z" transform="translate(-203.654 -214.099)" style="fill: url(#q)"/>
          <path d="M312.636,247.546a17.444,17.444,0,0,0,4.865,2.884,5,5,0,0,0,.609-2.667c-2.424-1.544-5.838-6.2-5.838-6.2Z" transform="translate(-203.654 -214.099)" style="fill: #bd812a"/>
          <path d="M299.851,250.17s7.145-1.138,9.775-3.311a34.2,34.2,0,0,0,.6-5.789l-1.7.487-.091,1.413s-.876-1.425-.885-1.356a18.514,18.514,0,0,1-9.355,5.3A12.578,12.578,0,0,0,299.851,250.17Z" transform="translate(-203.654 -214.099)" style="fill: #bd812a"/>
          <path d="M299.567,279.16a26.363,26.363,0,0,1,10.385-2.466v2.466S306.343,278.247,299.567,279.16Z" transform="translate(-203.654 -214.099)" style="fill: #de633b"/>
          <path d="M287.734,256.926c-2.073-2.077-4.386-4.392-6.005-6.005l-1.282.005s-.021.364-.046,1.011c1.5,1.5,3.679,3.674,5.5,5.494l-5.436,4.118q.036.714.083,1.447c.237.011.456.037.686.053l7.183-5.442Z" transform="translate(-203.654 -214.099)" style="fill: #ffa487"/>
          <path d="M306.847,250.907s1.114,1.249-.2,4.789c-3.284-.811-6.581-1.342-6.581-1.342l.489-2.265Z" transform="translate(-203.654 -214.099)" style="fill: #fff"/>
          <path d="M316.859,252.886c.47,2.246-.33,3.171-.33,3.171l-3.612.277-.752-4.492A8.5,8.5,0,0,1,316.859,252.886Z" transform="translate(-203.654 -214.099)" style="fill: #fff"/>
          <g style="clip-path: url(#r)">
            <path d="M305.862,254.463c-.85,1.492-2.278,2.27-3.189,1.737s-.96-2.175-.11-3.667,2.278-2.27,3.189-1.737S306.712,252.97,305.862,254.463Z" transform="translate(-203.654 -214.099)" style="fill: url(#s)"/>
            <path d="M304.128,254.219c-.226.406-.61.615-.858.467s-.266-.6-.04-1,.61-.615.858-.467S304.354,253.813,304.128,254.219Z" transform="translate(-203.654 -214.099)" style="fill: #fff;opacity: 0.2"/>
            <path d="M305.762,253.131c-.208.416-.583.641-.837.5s-.292-.586-.083-1,.583-.641.837-.5S305.97,252.715,305.762,253.131Z" transform="translate(-203.654 -214.099)" style="fill: #fff;opacity: 0.4"/>
          </g>
          <g style="clip-path: url(#t)">
            <path d="M315.709,255.241c-.854,1.5-2.173,2.346-2.947,1.893s-.709-2.035.144-3.533,2.173-2.346,2.947-1.893S316.563,253.742,315.709,255.241Z" transform="translate(-203.654 -214.099)" style="fill: url(#u)"/>
            <path d="M315.709,255.241c-.854,1.5-2.173,2.346-2.947,1.893s-.709-2.035.144-3.533,2.173-2.346,2.947-1.893S316.563,253.742,315.709,255.241Z" transform="translate(-203.654 -214.099)" style="fill: url(#u)"/>
            <path d="M314.166,255.15c-.25.438-.636.686-.862.554s-.207-.6.042-1.033.636-.686.862-.554S314.416,254.712,314.166,255.15Z" transform="translate(-203.654 -214.099)" style="fill: #fff;opacity: 0.2"/>
            <path d="M315.741,253.956c-.22.454-.588.727-.823.61s-.247-.58-.027-1.034.588-.727.823-.61S315.961,253.5,315.741,253.956Z" transform="translate(-203.654 -214.099)" style="fill: #fff;opacity: 0.4"/>
          </g>
          <path d="M277.066,246.418c7.341-3.579,16.427-2.409,16.526-2.393l.31-1.89c-.424-.072-10.458-1.714-17.926,1.358Z" transform="translate(-203.654 -214.099)" style="fill: #f0a336"/>
          <path d="M294.709,234.117a.491.491,0,0,1-.036-.129l1.868-.3c-.228-1.468-4.612-4.592-7.412-5.6-3.173-1.145-9.8-1.087-10.079-1.082l.021,3.833c.065,0,6.568-1.976,9.424-.945C291.219,230.876,294.374,233.453,294.709,234.117Z" transform="translate(-203.654 -214.099)" style="fill: #f0a336"/>
          <path d="M308.276,232.643c.039-1.089-2.8-11.012-7.606-15.026a17.116,17.116,0,0,0-9.905-3.516l.226,3.819c.048-.007,5.022-.941,8.478,1.942,4.228,3.529,6.871,11.874,6.918,12.741Z" transform="translate(-203.654 -214.099)" style="fill: #f0a336"/>
          <path d="M300.558,252.089l6.382-.5s.353.435.348.411.591-1.307.591-1.307A29.409,29.409,0,0,0,300.558,252.089Z" transform="translate(-203.654 -214.099)" style="fill: #593d14"/>
          <path d="M312.164,251.843l.09.383s3.552.012,4.627.775c.068.446.091.665.091.665l.5-1.412A8.721,8.721,0,0,0,312.164,251.843Z" transform="translate(-203.654 -214.099)" style="fill: #593d14"/>
          <path d="M311.159,248.723a127.018,127.018,0,0,1,2.9,15.318l1.716,1.225a9.187,9.187,0,0,1-1.368,2.582,12.834,12.834,0,0,1-7.971-3.51,6.548,6.548,0,0,0,2.479-2.688c1.024-2.037,1.6-11.384,1.6-11.384Z" transform="translate(-203.654 -214.099)" style="fill: url(#w)"/>
          <path d="M301.123,240.423s7.537-3.735,12.458-.548C311.286,237.176,307.357,237.307,301.123,240.423Z" transform="translate(-203.654 -214.099)" style="fill: #f7b099"/>
          <path d="M311.969,247.457s-.416-1.241-2.018.012C311.649,247,311.969,247.457,311.969,247.457Z" transform="translate(-203.654 -214.099)" style="fill: #f7b099"/>
          <path d="M306.717,235.9s3.971-.649,4.788.26C310.336,234.7,308.51,235.186,306.717,235.9Z" transform="translate(-203.654 -214.099)" style="fill: #f7b099"/>
          <path d="M306.65,255.7a12.466,12.466,0,0,0-6.581-1.342A64.319,64.319,0,0,0,306.65,255.7Z" transform="translate(-203.654 -214.099)" style="fill: #fff;opacity: 0.4"/>
          <path d="M301.638,254.539s1.51-.079,2.012.378A5.135,5.135,0,0,1,301.638,254.539Z" transform="translate(-203.654 -214.099)" style="fill: #fff;opacity: 0.5"/>
          <path d="M312.916,256.335a5.7,5.7,0,0,1,3.612-.277A30.223,30.223,0,0,1,312.916,256.335Z" transform="translate(-203.654 -214.099)" style="fill: #fff;opacity: 0.4"/>
          <path d="M313.653,256.257a2.043,2.043,0,0,1,1.331-.125A3.445,3.445,0,0,1,313.653,256.257Z" transform="translate(-203.654 -214.099)" style="fill: #fff;opacity: 0.5"/>
          <g>
            <path d="M305.779,229.645s5.7,11.538,3.809,15.357l-10.447,3.41s-4.846-7.908-5.781-12.841A83.211,83.211,0,0,1,305.779,229.645Z" transform="translate(-203.654 -214.099)" style="fill: #0d0d0d;opacity: 0.2"/>
            <path d="M315.993,227.111s4.435,10.469,2.941,14.84a46.042,46.042,0,0,1-4.444,1.293L308.567,231.9l-1.01-3.06S313.679,227.071,315.993,227.111Z" transform="translate(-203.654 -214.099)" style="fill: #0d0d0d;opacity: 0.2"/>
            <path d="M293.359,235.57l-10.388,6.241s-.006,1.717.182,1.639,11.01-5.218,11.01-5.218Z" transform="translate(-203.654 -214.099)" style="fill: #202020"/>
            <g>
              <path d="M296.143,242.853a57.388,57.388,0,0,0,3,5.559L309.588,245c.66-1.331.524-3.09-.1-5.481A114.864,114.864,0,0,1,296.143,242.853Z" transform="translate(-203.654 -214.099)" style="fill: #fff;opacity: 0.2"/>
              <path d="M312.3,238.7l1.894,4.634s1.771-.4,4.743-1.38c.56-1.638.379-3.711-.181-6.19A63.228,63.228,0,0,1,312.3,238.7Z" transform="translate(-203.654 -214.099)" style="fill: #fff;opacity: 0.2"/>
            </g>
            <path d="M298.977,248.863l-.157-.25c-.043-.068-4.319-6.925-5.828-12.95l-.066-.263.228-.147a73.19,73.19,0,0,1,12.007-5.958l-.005-.01.407-.152c.009,0,.924-.345,1.877-.655l.314-.1,0,.009a33.145,33.145,0,0,1,8.215-1.65l.255-.013.107.232c3.993,8.584,3.174,14.063,2.969,15.075l-.045.224-5.279,1.536-4.605-10.3c-.357-.76-1.294-2.7-2.01-4.179-.38.127-.756.259-1.13.394.991,1.929,5.052,10.3,3.72,15.4l-.052.2Zm-5.183-13.119a53.647,53.647,0,0,0,5.513,12.216l9.963-3.252c1.109-4.882-2.9-13.083-3.752-14.743A72.93,72.93,0,0,0,293.794,235.744Zm16.424-2.226,4.184,9.358,4.2-1.222c.194-1.218.707-6.389-2.845-14.15a32.712,32.712,0,0,0-7.668,1.564c.22.454.6,1.236.975,2.018.608,1.261.934,1.938,1.079,2.32l.026.033-.011.009c.011.03.021.058.03.085Z" transform="translate(-203.654 -214.099)" style="fill: #202020"/>
            <polygon points="85.323 24.104 85.373 26.571 87.096 25.754 87.399 22.857 85.323 24.104" style="fill: #454545"/>
          </g>
        </g>
        <path d="M317.227,348.461s-1.936-19.536,17.6-20.132c11.705,2.411,22.475,17.912,22.475,17.912S347.875,358.008,317.227,348.461Z" transform="translate(-203.654 -214.099)" style="fill: url(#x)"/>
        <path d="M331.8,332.581l.9.709a17.467,17.467,0,0,1,10.846-2.6c-1.959-1.845-2.621-2.46-2.621-2.46A15.327,15.327,0,0,0,331.8,332.581Z" transform="translate(-203.654 -214.099)" style="fill: #f0a336"/>
        <path d="M334.778,335.937s8.333-5.105,9.272-5.176l.419.213-8.934,5.483Z" transform="translate(-203.654 -214.099)" style="fill: #f0a336"/>
        <path d="M339.032,336.457a17.141,17.141,0,0,1,6.9-4.15,14.2,14.2,0,0,1,2.6,2.07A18.4,18.4,0,0,0,339.032,336.457Z" transform="translate(-203.654 -214.099)" style="fill: #f0a336"/>
        <path d="M317.745,349.007s3.686-16.1,18.011-20.459c.144-1.648-1.891-3.791-1.891-3.791s-17.251,4.728-18.575,22.857A5.847,5.847,0,0,0,317.745,349.007Z" transform="translate(-203.654 -214.099)" style="fill: #fff"/>
        <path d="M350.844,346.263s-.626,3.865.361,4.1,7.464-.425,9.564-.459c.736-2.635.234-3.876.234-3.876s-2.739-1.164-7.581.234C352.61,346.5,351.781,346.019,350.844,346.263Z" transform="translate(-203.654 -214.099)" style="fill: url(#y)"/>
        <path d="M364.464,347.6c.422,1.039-.59,1.695-1.5,1.6s-2.623-.33-2.911-1.053-.461-1.832.335-2.106S364.042,346.565,364.464,347.6Z" transform="translate(-203.654 -214.099)" style="fill: url(#z)"/>
        <path d="M360.32,345.065s-1.419.636-1.709,1.7.173,1.658,1.087,1.7,2.988-.272,3.046-1.159S362.564,344.97,360.32,345.065Z" transform="translate(-203.654 -214.099)" style="fill: url(#aa)"/>
        <path d="M362.948,346.436c.04-.047,1.917.522,1.917.522a5.466,5.466,0,0,1-1.018,4.19,3.123,3.123,0,0,1-1.763-.778S362.518,347.019,362.948,346.436Z" transform="translate(-203.654 -214.099)" style="fill: url(#ab)"/>
        <path d="M360.32,345.065a17.673,17.673,0,0,1,2.327.224,6.219,6.219,0,0,1-.6,4.868,3.553,3.553,0,0,1-2.095-.649S359.91,345.779,360.32,345.065Z" transform="translate(-203.654 -214.099)" style="fill: url(#ac)"/>
        <path d="M356.861,343.882a5.49,5.49,0,0,0-.952,1.911,1.684,1.684,0,0,0,1.285,2.3,2.931,2.931,0,0,0,2.5-2.172C359.756,344.958,359.291,343.058,356.861,343.882Z" transform="translate(-203.654 -214.099)" style="fill: url(#ad)"/>
        <path d="M356.861,343.882c.024-.075,2.517-.5,2.517-.5a7.4,7.4,0,0,1,.792,5.491,3.573,3.573,0,0,1-2.334-.061S356.648,344.786,356.861,343.882Z" transform="translate(-203.654 -214.099)" style="fill: url(#ae)"/>
        <path d="M356.293,345.755a3.7,3.7,0,0,0-2.115-.151,2.057,2.057,0,0,0-.993,2.46,1.825,1.825,0,0,0,2.537.534C356.352,348.219,357.1,347.434,356.293,345.755Z" transform="translate(-203.654 -214.099)" style="fill: url(#af)"/>
        <path d="M353.777,346.228c.024-.071,2.517-.473,2.517-.473a6.621,6.621,0,0,1,.792,5.162,3.782,3.782,0,0,1-2.334-.057S353.564,347.078,353.777,346.228Z" transform="translate(-203.654 -214.099)" style="fill: url(#ag)"/>
        <path d="M350.844,346.263l-4.116,1.813-1.544,2.97s2.779,1.462,3.7-.608a12.556,12.556,0,0,1,2.321-.075A2.945,2.945,0,0,0,350.844,346.263Z" transform="translate(-203.654 -214.099)" style="fill: url(#ah)"/>
        <path d="M331.7,350.522s6.088-.428,6.317-.452,3.3,1.489,3.882-.319-2.637-2.635-2.637-2.635-4.443-2.411-6.027-2.151S327.757,350.454,331.7,350.522Z" transform="translate(-203.654 -214.099)" style="fill: url(#ai)"/>
        <path d="M312.77,329.91a2.983,2.983,0,0,1-.147,3.184,40.137,40.137,0,0,0-3.493-2.333S311.824,329.627,312.77,329.91Z" transform="translate(-203.654 -214.099)" style="fill: #af7727"/>
        <path d="M314.85,332.463v1.56a14.76,14.76,0,0,1-1.688-1.56Z" transform="translate(-203.654 -214.099)" style="fill: #af7727"/>
        <path d="M318.631,334.306l-.378,1.607s-1.607-1.292-1.371-1.284S318.631,334.306,318.631,334.306Z" transform="translate(-203.654 -214.099)" style="fill: #af7727"/>
        <path d="M285.468,349.565s-3.942-8.311.584-14.455a15.7,15.7,0,0,1,15.907-6.6c11.818,1.778,33.361,17.42,33.361,17.42S324.772,357.606,285.468,349.565Z" transform="translate(-203.654 -214.099)" style="fill: url(#aj)"/>
        <path d="M332.5,343.962s-3.6.586-4.228,1.531-.11,2.927,0,4.333,7.5.475,9.89-.408,4.4-4.019,4.4-4.019C342.766,345.365,333.006,343.873,332.5,343.962Z" transform="translate(-203.654 -214.099)" style="fill: url(#ak)"/>
        <path d="M342.476,345.716s-1.229,4.963,3.545,4.632c-.709-3.4-1.087-5.483-1.087-5.483Z" transform="translate(-203.654 -214.099)" style="fill: url(#al)"/>
        <path d="M343.2,344.9s1.2,5.632,5.633,3.138c-2.317-3.161-3.679-5.118-3.679-5.118Z" transform="translate(-203.654 -214.099)" style="fill: url(#am)"/>
        <path d="M345.159,342.915a36.669,36.669,0,0,1-4.311,1.95,7.284,7.284,0,0,1-1.513,0l-.417,1.322,4.286,1.067,3.032-1.76Z" transform="translate(-203.654 -214.099)" style="fill: url(#an)"/>
        <path d="M342.84,346.034s.245,5.225,4.687,3.588c-1.642-3.157-2.594-5.1-2.594-5.1Z" transform="translate(-203.654 -214.099)" style="fill: url(#ao)"/>
        <path d="M344.933,344.521s-5.929.7-6.567,1.225c-.52,1.158-.616,2.589.862,2.784,2.612.005,6.452-1.643,6.435-2.544C345.15,344.658,344.933,344.521,344.933,344.521Z" transform="translate(-203.654 -214.099)" style="fill: url(#ap)"/>
        <path d="M341.618,345.32l-5.419,1.166s-1.283,2.143.514,3.372a21.9,21.9,0,0,0,5.367-2.134Z" transform="translate(-203.654 -214.099)" style="fill: url(#aq)"/>
        <path d="M339.217,346.151s-1.033,5.2,3.632,4.88c-.693-3.325-1.231-5.712-1.231-5.712Z" transform="translate(-203.654 -214.099)" style="fill: url(#ar)"/>
        <path d="M298.4,338.876c.189-.126,2.844-7.863,9.643-9.249,2.45.127,4.727.284,4.727.284s-8.887,2.1-10.967,9.722A15.372,15.372,0,0,1,298.4,338.876Z" transform="translate(-203.654 -214.099)" style="fill: #f0a336"/>
        <path d="M304.876,338.371c-.189.2,1.938-6.476,8.556-7.09.52.473,1.418,1.182,1.418,1.182S309.792,333.172,304.876,338.371Z" transform="translate(-203.654 -214.099)" style="fill: #f0a336"/>
        <path d="M318.631,334.306l-1.8-.756s-8.225,2.742-11.25,8.178c5.672.095,6.712,0,6.712,0A16.436,16.436,0,0,1,318.631,334.306Z" transform="translate(-203.654 -214.099)" style="fill: #f0a336"/>
        <path d="M333.856,460.293l-3.012.272a42.906,42.906,0,0,0,7.451,14.226c5.767,7.469,10.854,10.654,10.854,10.654s.842-3.052.763-2.835-.934.594-.934.594-7.926-7.626-10.778-11.789a47.1,47.1,0,0,1-5.324-9.813C332.733,461.152,333.856,460.293,333.856,460.293Z" transform="translate(-203.654 -214.099)" style="fill: #f3f3f3"/>
        <path d="M287.386,349.946h-3.546l-2.458-4.153s2.647-18.451,20.61-19.774a12.486,12.486,0,0,1,3.223,3.248s-6.437,1.1-12.173,7.656S287.386,349.946,287.386,349.946Z" transform="translate(-203.654 -214.099)" style="fill: #fff"/>
        <path d="M280.059,371.139s1.27,4.1,5.409,4.387,13.138-.511,16.94,1.727,12.843-2.781,15.336-4.476c-.721-2.168-1.212-2.107-1.212-2.107s-8.679,7.314-15.392,5.612-6.562-3.267-13.046-2.931-6.279-4.584-6.283-4.577S280.059,371.139,280.059,371.139Z" transform="translate(-203.654 -214.099)" style="fill: #f3f8f7"/>
      </g>
      <g>
        <g>
          <g>
            <polygon points="57.095 137.9 46.477 137.9 43.24 113.517 59.53 113.517 57.095 137.9" style="fill: url(#as)"/>
            <polygon points="61.193 114.633 41.797 114.079 43.24 106.252 48.516 105.559 51.01 110.062 59.53 111.221 61.193 114.633" style="fill: url(#at)"/>
            <polygon points="46.713 105.829 46.867 114.196 42.994 114.113 44.398 106.1 46.713 105.829" style="fill: #322019;mix-blend-mode: screen"/>
            <polygon points="51.01 110.062 48.101 109.785 47.012 105.757 48.516 105.559 51.01 110.062" style="fill: #853918"/>
            <path d="M249.413,320.02c-.022.135-.957,8.244-.957,8.244l1.09.031.566-8.367Z" transform="translate(-203.654 -214.099)" style="fill: #322019;mix-blend-mode: screen"/>
          </g>
          <polygon points="54.115 110.484 54.37 114.438 58.74 114.563 57.659 110.966 54.115 110.484" style="fill: #f3f3f3;mix-blend-mode: multiply"/>
        </g>
        <polygon points="43.592 119.764 59.53 120.38 58.173 133.054 45.283 133.054 43.592 119.764" style="fill: url(#au)"/>
      </g>
      <g>
        <polygon points="244.12 294.434 252.329 294.434 251.254 205.664 245.293 205.566 244.12 294.434" style="fill: #5b5b5b"/>
        <polygon points="213.531 291.574 285.02 292.675 285.753 294.957 213.531 294.957 213.531 291.574" style="fill: #9c9c9c"/>
        <polygon points="242.459 213.58 253.893 214.655 254.968 143.224 241.481 143.224 242.459 213.58" style="fill: url(#av)"/>
        <polygon points="251.381 215.436 245.146 215.95 245.176 213.835 251.368 214.417 251.381 215.436" style="fill: #313131"/>
        <polygon points="61.161 294.434 69.371 294.434 68.296 205.664 62.334 205.566 61.161 294.434" style="fill: #5b5b5b"/>
        <polygon points="29.986 291.574 98.543 292.675 99.276 294.957 29.986 294.957 29.986 291.574" style="fill: #9c9c9c"/>
        <polygon points="59.5 213.58 70.934 214.655 72.009 143.224 58.523 143.224 59.5 213.58" style="fill: url(#aw)"/>
        <polygon points="30.122 150.749 282.484 150.749 282.484 142.637 30.122 143.224 30.122 150.749" style="fill: url(#ax)"/>
        <polygon points="68.422 215.436 62.187 215.95 62.217 213.835 68.409 214.417 68.422 215.436" style="fill: #313131"/>
        <polygon points="305.451 137.848 0 137.848 0 148.599 304.132 142.393 305.451 137.848" style="fill: #ffd5b6"/>
        <g>
          <path d="M257.7,351.947h1.566c-.159,3.422-.627,7.1-1.754,9.651l-1.712.035C256.942,359.571,257.51,355.862,257.7,351.947Z" transform="translate(-203.654 -214.099)" style="fill: #f2b892"/>
          <path d="M250.711,361.737a34.825,34.825,0,0,1-.744-9.79h1.56c-.132,4.1.049,7.73.772,9.758Z" transform="translate(-203.654 -214.099)" style="fill: #f2b892"/>
          <path d="M218.1,354.435c.079-.831.159-1.663.238-2.488H219.9c-.359,3.732-.7,7.352-.971,10.439l-1.567.032C217.562,360.157,217.808,357.488,218.1,354.435Z" transform="translate(-203.654 -214.099)" style="fill: #f2b892"/>
          <path d="M270.528,351.947H272.1c-.184,1.237-.388,2.591-.6,3.94-.343,2.2-.644,4.02-.9,5.444l-1.589.032C269.44,359.018,269.985,355.592,270.528,351.947Z" transform="translate(-203.654 -214.099)" style="fill: #f2b892"/>
          <polygon points="6.375 137.848 7.934 137.848 7.934 148.437 6.375 148.469 6.375 137.848" style="fill: #f2b892"/>
          <path d="M236.226,351.947h1.595c.167.756.335,1.517.5,2.278.646,2.938,1.206,5.52,1.676,7.73l-1.586.032C237.774,358.988,237.017,355.519,236.226,351.947Z" transform="translate(-203.654 -214.099)" style="fill: #f2b892"/>
          <polygon points="26.352 137.848 27.938 137.848 29.852 147.99 28.271 148.022 26.352 137.848" style="fill: #f2b892"/>
        </g>
        <polygon points="78.876 137.848 77.703 141.446 81.056 142.026 76.918 143.853 75.868 147.076 304.132 142.393 305.451 137.848 78.876 137.848" style="fill: #e4a279"/>
        <g>
          <polygon points="77.703 141.446 78.065 140.335 133.747 145.888 120.717 146.156 80.735 142.168 81.056 142.026 77.703 141.446" style="fill: #ca895d"/>
          <path d="M505.75,352.479l3.265-.222-.463,1.594-2.7.183c-11.065.749-27.11,1.835-41.894,3.357l-15.717.322C466.142,355.16,490.6,353.5,505.75,352.479Z" transform="translate(-203.654 -214.099)" style="fill: #ca895d"/>
          <path d="M443.1,351.947h7.5c-8.693,2.076-23.578,4.42-38.493,6.507l-13.7.281C413.708,356.733,431.106,354.256,443.1,351.947Z" transform="translate(-203.654 -214.099)" style="fill: #ca895d"/>
          <path d="M366.714,357.341h-.124c-18.95-.014-49.075-3.251-66.946-5.393h13.7c17.183,1.873,38.584,3.824,53.247,3.834h.123a261.4,261.4,0,0,0,41.617-3.834h8.731C406.756,353.967,386.567,357.341,366.714,357.341Z" transform="translate(-203.654 -214.099)" style="fill: #ca895d"/>
        </g>
        <polygon points="93.222 292.61 92.637 294.957 99.276 294.957 98.543 292.675 93.222 292.61" style="fill: #4b4b4b"/>
        <polygon points="280.591 292.61 280.006 294.957 286.645 294.957 285.912 292.675 280.591 292.61" style="fill: #4b4b4b"/>
      </g>
      <g>
        <path d="M473.471,326.1s1.584-14.736.512-14.833-3.021,16.861-3.021,16.861l-6.038-3.538s-2.046-9.159-2.631-9.354-2.144,12.667-2.144,12.667-6.528-7.591-7.5-7.405-.877,7.6-.779,7.016-3.8-8.482-4.385-8.236,1.949,11.354,1.949,11.354l22.393,2.192Z" transform="translate(-203.654 -214.099)" style="fill: url(#ay)"/>
        <path d="M448.554,332.09s-7.99-15.785-7.113-16.37,9.354,13.447,9.354,13.447-1.364-11.693-.487-11.4,3.41,9.647,3.313,9.939-1.169-17.539.682-17.052,5.652,14.519,5.749,14.908-1.462-10.231-1.072-10.231,3.7,7.99,3.7,7.99.39-9.841,2.826-9.647,4.58,12.667,4.58,12.667.1-16.37.78-16.37,1.364,15.493,1.364,15.493,3.8-10.524,4.58-9.841-1.851,11.79-1.851,11.79l-1.294,6.284Z" transform="translate(-203.654 -214.099)" style="fill: url(#az)"/>
        <g style="mix-blend-mode: multiply">
          <path d="M462.348,322.521c.207.491.334.8.334.8a39.215,39.215,0,0,1,.9-6.832l-.173,15.727-1.169-.01Z" transform="translate(-203.654 -214.099)" style="fill: #f0f0f0"/>
          <path d="M454.968,311.264a13.848,13.848,0,0,1,1.272,2.5l.746,18.394-1.17-.01Z" transform="translate(-203.654 -214.099)" style="fill: #f0f0f0"/>
          <path d="M469.407,322.941c.246,1.109.433,2.059.548,2.672l-1.63,6.644-1.2-.01Z" transform="translate(-203.654 -214.099)" style="fill: #f0f0f0"/>
          <path d="M471.545,314.226c.1,1.171.194,2.476.279,3.772l-1.724,7.028c.013-1.221.038-3.16.083-5.247Z" transform="translate(-203.654 -214.099)" style="fill: #f0f0f0"/>
        </g>
        <polygon points="273.479 117.086 269.995 137.212 269.654 137.676 244.413 137.676 240.71 116.53 273.479 117.086" style="fill: url(#ba)"/>
        <polygon points="240.71 116.53 250.913 116.703 251.143 127.443 250.779 128.223 251.184 128.905 251.429 137.676 244.413 137.676 240.71 116.53" style="fill: url(#bb)"/>
        <polygon points="256.463 121.889 255.943 122.701 255.749 122.084 256.463 121.889" style="fill: #3d3d3d"/>
        <polygon points="267.701 132.705 267.019 132.315 267.019 132.705 267.701 132.705" style="fill: #3d3d3d"/>
        <polygon points="265.557 121.113 265.432 121.889 265.797 121.752 265.557 121.113" style="fill: #3d3d3d"/>
        <polygon points="259.259 129.66 256.58 129.66 256.58 129.904 259.259 129.66" style="fill: #3d3d3d"/>
        <polygon points="244.73 122.701 244.876 123.692 244.486 123.692 244.73 122.701" style="fill: #5b5b5b"/>
        <path d="M448.383,336.8s.235,1.072.211,1.072-.455-.081-.455-.081l.333-.032Z" transform="translate(-203.654 -214.099)" style="fill: #a6a6a6"/>
        <polygon points="240.71 116.53 250.844 116.729 240.774 116.893 240.71 116.53" style="fill: #a6a6a6"/>
        <path d="M454.433,342.321l.958-.162-.553.844Z" transform="translate(-203.654 -214.099)" style="fill: #a6a6a6"/>
        <polygon points="250.779 128.223 251.143 127.443 251.737 128.06 250.779 128.223" style="fill: #737373"/>
        <polygon points="269.995 137.212 244.293 136.991 244.413 137.676 269.654 137.676 269.995 137.212" style="fill: #f3f3f3;mix-blend-mode: multiply"/>
        <polygon points="260.625 116.868 262.829 117.244 271.279 117.048 260.625 116.868" style="fill: #949494"/>
        <polygon points="269.671 127.808 269.232 126.639 269.232 128.247 269.671 127.808" style="fill: #3d3d3d"/>
        <polygon points="247.861 132.705 247.601 133.192 247.406 132.948 247.861 132.705" style="fill: #3d3d3d"/>
      </g>
      <g>
        <g>
          <path d="M361.206,347.083,373.361,312.1c.892-2.014,3.313-2.389,5.382-2.389h48.523a1.826,1.826,0,0,1,1.758,2.32l-10.4,37.024a1.826,1.826,0,0,1-1.758,1.332h-8.279l-.576,1.563H370.564l.247-1.563h-7.087C362.467,350.384,360.557,349.789,361.206,347.083Z" transform="translate(-203.654 -214.099)" style="fill: url(#bc)"/>
          <path d="M415.157,351.947H340.313c-1.193,0-1.193-1.563-1.193-1.563h77.147Z" transform="translate(-203.654 -214.099)" style="fill: url(#bd)"/>
          <path d="M361.772,347.958,373.746,313a5.119,5.119,0,0,1,4.771-3.291H427.04a1.826,1.826,0,0,1,1.758,2.32l-10.4,37.024a1.826,1.826,0,0,1-1.758,1.332h-8.279l-.576,1.563H370.337l.247-1.563H363.5A1.826,1.826,0,0,1,361.772,347.958Z" transform="translate(-203.654 -214.099)" style="fill: url(#be)"/>
          <path d="M360.137,350.384l-.658,1.563H340.313c-1.275,0-1.193-1.563-1.193-1.563Z" transform="translate(-203.654 -214.099)" style="fill: url(#bf)"/>
          <polygon points="191.435 114.826 189.254 119.864 195.41 119.864 197.233 114.826 191.435 114.826" style="fill: #595959"/>
          <rect x="152.83" y="136.94" width="1.022" height="0.279" rx="0.14" ry="0.14" style="fill: url(#bg)"/>
          <rect x="150.547" y="136.94" width="1.022" height="0.279" rx="0.14" ry="0.14" style="fill: url(#bh)"/>
          <polygon points="159.281 136.285 158.91 137.848 166.684 137.848 166.93 136.285 159.281 136.285" style="mix-blend-mode: multiply;fill: url(#bi)"/>
          <polygon points="204.128 137.848 204.704 136.285 211.819 136.285 211.504 137.848 204.128 137.848" style="mix-blend-mode: multiply;fill: url(#bj)"/>
        </g>
        <path d="M394.231,330.907l-1.323,3.056h6.156l1.471-4.066A51.62,51.62,0,0,1,394.231,330.907Z" transform="translate(-203.654 -214.099)" style="fill: #7f7166"/>
      </g>
      <g>
        <g>
          <path d="M409.769,501.757s5.988,2.005.41,7.3h-4.538s-3.5-2.269-.756-7.28C408.225,501.651,409.769,501.757,409.769,501.757Z" transform="translate(-203.654 -214.099)" style="fill: #4d382d"/>
          <path d="M404.885,501.776c.674-.025,1.3-.041,1.882-.05.623,1.265,1.326,3.928-1.218,7.264C405.017,508.586,402.411,506.3,404.885,501.776Z" transform="translate(-203.654 -214.099)" style="fill: #2f231c"/>
        </g>
        <g>
          <path d="M458.559,501.757s5.988,2.005.41,7.3h-4.538s-3.5-2.269-.756-7.28C457.015,501.651,458.559,501.757,458.559,501.757Z" transform="translate(-203.654 -214.099)" style="fill: #4d382d"/>
          <path d="M453.675,501.776c.674-.025,1.3-.041,1.882-.05.623,1.265,1.326,3.928-1.218,7.264C453.806,508.586,451.2,506.3,453.675,501.776Z" transform="translate(-203.654 -214.099)" style="fill: #2f231c"/>
        </g>
        <path d="M388.7,501.757s5.988,2.005.41,7.3h-4.538s-3.5-2.269-.756-7.28C387.158,501.651,388.7,501.757,388.7,501.757Z" transform="translate(-203.654 -214.099)" style="fill: #35261f"/>
        <polygon points="269.188 194.608 268.253 287.36 205.936 289.277 205.936 194.608 269.188 194.608" style="fill: url(#bk)"/>
        <polygon points="205.936 194.608 177.822 194.608 173.584 287.728 205.936 289.277 205.936 194.608" style="fill: #e4a279"/>
        <polygon points="269.452 198.455 205.936 199.715 205.936 194.608 269.188 194.608 269.452 198.455" style="fill: #b87951"/>
        <polygon points="205.936 194.608 209.963 199.635 208.263 289.206 205.936 289.277 205.936 194.608" style="fill: #b87951"/>
        <polygon points="269.188 194.608 265.797 198.527 265.432 287.447 268.253 287.36 269.188 194.608" style="fill: #b87951"/>
        <g>
          <path d="M393.8,408.707h1.513c1.346,60.839,2.533,85.478,3.431,94.15l-1.5-.072C396.352,494.313,395.186,471.464,393.8,408.707Z" transform="translate(-203.654 -214.099)" style="fill: #db9364"/>
          <path d="M379.06,461.8c1.957,2.635,3.927,7.064,3.829,14.8-.1,8.177-.323,18.158-.5,25.476L380.879,502c.176-7.31.394-17.265.5-25.423.074-5.88-1.051-9.668-2.434-12.195Z" transform="translate(-203.654 -214.099)" style="fill: #db9364"/>
          <path d="M403.439,408.707h1.5c-.324,10.862-.805,26.041-1.378,41.152-.627,16.529-1.238,29.741-1.818,39.271-.41,6.745-.76,11.053-1.074,13.82l-1.5-.072C400.677,489.441,402.36,445.336,403.439,408.707Z" transform="translate(-203.654 -214.099)" style="fill: #db9364"/>
          <path d="M386.665,479.02c-.867-18.6-2-42.816-5.978-52.984l.14-3.069c5.155,8.885,6.358,34.707,7.35,55.982.412,8.848.866,18.563,1.607,23.478l-1.522-.073C387.618,498.181,387.218,490.865,386.665,479.02Z" transform="translate(-203.654 -214.099)" style="fill: #db9364"/>
          <path d="M389.784,452.463c-.9-17.393-2.035-34.674-2.656-43.756h1.516c.626,9.172,1.767,26.554,2.667,44,1.623,31.475,1.514,44.393,1.015,49.842l-1.482-.071C391.3,497.379,391.442,484.5,389.784,452.463Z" transform="translate(-203.654 -214.099)" style="fill: #db9364"/>
        </g>
      </g>
    </g>
  </g>
</svg>
