<svg xmlns="http://www.w3.org/2000/svg" xmlns:xlink="http://www.w3.org/1999/xlink" viewBox="0 0 216.668 300.427">
  <defs>
    <linearGradient id="a" x1="288.796" y1="343.806" x2="328.561" y2="447.398" gradientUnits="userSpaceOnUse">
      <stop offset="0.1" stop-color="#ededed"/>
      <stop offset="1" stop-color="#d1d1d1"/>
    </linearGradient>
    <linearGradient id="b" x1="390.253" y1="252.817" x2="391.165" y2="264.68" gradientUnits="userSpaceOnUse">
      <stop offset="0" stop-color="#ffc8b6"/>
      <stop offset="0.893" stop-color="#ffad93"/>
      <stop offset="1" stop-color="#ffaa8e"/>
    </linearGradient>
    <linearGradient id="c" x1="376.923" y1="231.938" x2="363.782" y2="212.463" gradientUnits="userSpaceOnUse">
      <stop offset="0" stop-color="#ffc8b6"/>
      <stop offset="0.023" stop-color="#ffc7b4"/>
      <stop offset="0.361" stop-color="#ffb79f"/>
      <stop offset="0.69" stop-color="#ffad92"/>
      <stop offset="1" stop-color="#ffaa8e"/>
    </linearGradient>
    <linearGradient id="d" x1="373.107" y1="234.513" x2="359.966" y2="215.038" xlink:href="#c"/>
    <linearGradient id="e" x1="381.515" y1="228.84" x2="368.374" y2="209.365" xlink:href="#c"/>
    <linearGradient id="f" x1="379.398" y1="230.269" x2="366.257" y2="210.793" xlink:href="#c"/>
    <linearGradient id="g" x1="378.002" y1="231.21" x2="364.861" y2="211.735" xlink:href="#c"/>
    <linearGradient id="h" x1="375.829" y1="232.677" x2="362.688" y2="213.201" xlink:href="#c"/>
    <linearGradient id="i" x1="383.646" y1="227.402" x2="370.505" y2="207.927" xlink:href="#c"/>
    <linearGradient id="j" x1="383.07" y1="227.79" x2="369.929" y2="208.315" xlink:href="#c"/>
    <linearGradient id="k" x1="378.587" y1="230.816" x2="365.446" y2="211.34" xlink:href="#c"/>
    <linearGradient id="l" x1="376.979" y1="231.901" x2="363.838" y2="212.425" xlink:href="#c"/>
    <linearGradient id="m" x1="375.695" y1="232.767" x2="362.554" y2="213.292" xlink:href="#c"/>
    <linearGradient id="n" x1="374.443" y1="233.611" x2="361.302" y2="214.136" xlink:href="#c"/>
    <linearGradient id="o" x1="380.329" y1="229.64" x2="367.188" y2="210.165" xlink:href="#c"/>
    <linearGradient id="p" x1="378.937" y1="230.582" x2="365.796" y2="211.107" gradientUnits="userSpaceOnUse">
      <stop offset="0" stop-color="#ffc8b6"/>
      <stop offset="0.14" stop-color="#ffc1ac"/>
      <stop offset="0.412" stop-color="#ffb69c"/>
      <stop offset="0.684" stop-color="#ffae92"/>
      <stop offset="1" stop-color="#ffaa8e"/>
    </linearGradient>
    <linearGradient id="q" x1="370.406" y1="236.336" x2="357.265" y2="216.861" xlink:href="#c"/>
    <linearGradient id="r" x1="358.244" y1="307.465" x2="354.651" y2="347.36" gradientUnits="userSpaceOnUse">
      <stop offset="0" stop-color="#525252"/>
      <stop offset="0.245" stop-color="#494949"/>
      <stop offset="0.549" stop-color="#373737"/>
      <stop offset="0.775" stop-color="#464646"/>
      <stop offset="1" stop-color="#505050"/>
    </linearGradient>
    <linearGradient id="s" x1="7673.94" y1="285.346" x2="7678.137" y2="264.363" gradientTransform="translate(-7316.17)" gradientUnits="userSpaceOnUse">
      <stop offset="0" stop-color="#f7bba9"/>
      <stop offset="0.189" stop-color="#f1ac96"/>
      <stop offset="0.47" stop-color="#ea9b81"/>
      <stop offset="0.743" stop-color="#e69074"/>
      <stop offset="1" stop-color="#e58d70"/>
    </linearGradient>
    <linearGradient id="t" x1="7540.848" y1="266.845" x2="7538.873" y2="280.668" gradientTransform="translate(-7176.17)" gradientUnits="userSpaceOnUse">
      <stop offset="0" stop-color="#f7eeea"/>
      <stop offset="0.06" stop-color="#f5eae5"/>
      <stop offset="0.385" stop-color="#ead7d0"/>
      <stop offset="0.702" stop-color="#e4ccc3"/>
      <stop offset="1" stop-color="#e2c8bf"/>
    </linearGradient>
    <linearGradient id="u" x1="-94.49" y1="272.394" x2="-101.269" y2="287.469" gradientTransform="matrix(-1, 0, 0, 1, 274.752, 0)" gradientUnits="userSpaceOnUse">
      <stop offset="0" stop-color="#ffab00"/>
      <stop offset="0.27" stop-color="#ff9d00"/>
      <stop offset="0.646" stop-color="#ff9000"/>
      <stop offset="1" stop-color="#ff8c00"/>
    </linearGradient>
    <linearGradient id="v" x1="-82.14" y1="261.98" x2="-77.034" y2="272.515" gradientTransform="matrix(-1, 0, 0, 1, 274.752, 0)" gradientUnits="userSpaceOnUse">
      <stop offset="0" stop-color="#ffab00"/>
      <stop offset="0.539" stop-color="#ffb100"/>
      <stop offset="1" stop-color="#fb0"/>
    </linearGradient>
    <linearGradient id="w" x1="-191.65" y1="724.355" x2="-190.387" y2="726.962" gradientTransform="matrix(-0.994, 0.113, 0.113, 0.994, 88.679, -428.642)" gradientUnits="userSpaceOnUse">
      <stop offset="0" stop-color="#ffab00"/>
      <stop offset="1" stop-color="#fc0"/>
    </linearGradient>
    <linearGradient id="x" x1="-93.498" y1="274.035" x2="-98.218" y2="285.026" gradientTransform="matrix(-1, 0, 0, 1, 274.752, 0)" gradientUnits="userSpaceOnUse">
      <stop offset="0" stop-color="#ffab00"/>
      <stop offset="0.34" stop-color="#ffb100"/>
      <stop offset="0.797" stop-color="#ffc200"/>
      <stop offset="1" stop-color="#fc0"/>
    </linearGradient>
    <linearGradient id="y" x1="-101.541" y1="269.925" x2="-106.261" y2="280.918" xlink:href="#v"/>
    <linearGradient id="z" x1="7531.211" y1="232.415" x2="7514.604" y2="228.071" gradientTransform="translate(-7176.17)" gradientUnits="userSpaceOnUse">
      <stop offset="0" stop-color="#ffab00"/>
      <stop offset="0.244" stop-color="#ffb700"/>
      <stop offset="0.633" stop-color="#ffc400"/>
      <stop offset="1" stop-color="#ffc800"/>
    </linearGradient>
    <clipPath id="aa" transform="translate(-254.403 -209.266)">
      <path d="M370.087,246.228s1.127,1.609-.2,5.2c-3.329-.821-6.67-1.36-6.67-1.36l.483-2.709Z" style="fill: none"/>
    </clipPath>
    <linearGradient id="ab" x1="7506.143" y1="-2738.44" x2="7507.302" y2="-2746.385" gradientTransform="translate(-7617.31 -102.594) rotate(22.593)" gradientUnits="userSpaceOnUse">
      <stop offset="0" stop-color="#00fff0"/>
      <stop offset="1" stop-color="#006660"/>
    </linearGradient>
    <clipPath id="ac" transform="translate(-254.403 -209.266)">
      <path d="M380.227,247.683a7.362,7.362,0,0,1-.331,4.108l-3.661.281-.762-4.552S378.271,246.393,380.227,247.683Z" style="fill: none"/>
    </clipPath>
    <linearGradient id="ad" x1="6176.503" y1="-2926.559" x2="6177.542" y2="-2933.54" gradientTransform="matrix(1.116, 0.496, -0.359, 0.938, -7570.58, -63.508)" xlink:href="#ab"/>
    <linearGradient id="ae" x1="369.506" y1="265.601" x2="374.042" y2="273.714" gradientUnits="userSpaceOnUse">
      <stop offset="0" stop-color="#5e2c00"/>
      <stop offset="1" stop-color="#9c2900"/>
    </linearGradient>
    <linearGradient id="af" x1="364.74" y1="267.486" x2="370.617" y2="272.5" gradientUnits="userSpaceOnUse">
      <stop offset="0" stop-color="#5e2c00"/>
      <stop offset="1" stop-color="#b24646"/>
    </linearGradient>
    <linearGradient id="ag" x1="7761.116" y1="-719.724" x2="7767.042" y2="-713.279" gradientTransform="translate(-7415.883 -42.652) rotate(7.475)" gradientUnits="userSpaceOnUse">
      <stop offset="0" stop-color="#f7bba9"/>
      <stop offset="0.218" stop-color="#f6aa92"/>
      <stop offset="0.488" stop-color="#f69a7d"/>
      <stop offset="0.752" stop-color="#f59070"/>
      <stop offset="1" stop-color="#f58d6c"/>
    </linearGradient>
    <linearGradient id="ah" x1="369.096" y1="288.248" x2="364.121" y2="343.486" xlink:href="#r"/>
    <linearGradient id="ai" x1="378.77" y1="377.283" x2="384.128" y2="357.459" gradientUnits="userSpaceOnUse">
      <stop offset="0" stop-color="#ecca9f"/>
      <stop offset="0.441" stop-color="#efc1a0"/>
      <stop offset="1" stop-color="#f0bda0"/>
    </linearGradient>
    <linearGradient id="aj" x1="353.725" y1="378.11" x2="358.723" y2="359.618" xlink:href="#ai"/>
    <linearGradient id="ak" x1="495.84" y1="506.326" x2="510.252" y2="506.326" gradientTransform="translate(-140)" gradientUnits="userSpaceOnUse">
      <stop offset="0" stop-color="#5e5e5e"/>
      <stop offset="1" stop-color="#424343"/>
    </linearGradient>
    <linearGradient id="al" x1="381.425" y1="386.193" x2="386.486" y2="365.65" xlink:href="#ai"/>
    <linearGradient id="am" x1="515.248" y1="505.208" x2="545.445" y2="505.208" xlink:href="#ak"/>
    <linearGradient id="an" x1="-2083.627" y1="1399.597" x2="-2080.565" y2="1381.23" gradientTransform="translate(2896.591 -31.058) rotate(23.848)" xlink:href="#ai"/>
    <linearGradient id="ao" x1="369.139" y1="288.249" x2="364.165" y2="343.487" xlink:href="#r"/>
    <linearGradient id="ap" x1="349.028" y1="310.048" x2="372.001" y2="317.989" xlink:href="#c"/>
    <linearGradient id="aq" x1="345.628" y1="271.51" x2="344.875" y2="265.957" gradientUnits="userSpaceOnUse">
      <stop offset="0" stop-color="#ffc8b6"/>
      <stop offset="0.06" stop-color="#fec4b1"/>
      <stop offset="0.385" stop-color="#fcb39c"/>
      <stop offset="0.702" stop-color="#fba98f"/>
      <stop offset="1" stop-color="#faa58b"/>
    </linearGradient>
    <linearGradient id="ar" x1="353.697" y1="270.387" x2="364.333" y2="268.78" xlink:href="#c"/>
    <linearGradient id="as" x1="349.1" y1="256.096" x2="352.874" y2="251.493" xlink:href="#c"/>
    <linearGradient id="at" x1="352.443" y1="258.735" x2="355.713" y2="254.747" xlink:href="#c"/>
    <linearGradient id="au" x1="354.884" y1="261.546" x2="357.437" y2="258.432" xlink:href="#c"/>
    <linearGradient id="av" x1="356.362" y1="265.011" x2="359.387" y2="264.727" xlink:href="#c"/>
  </defs>
  <title>consumer-a-happy</title>
  <g style="isolation: isolate">
    <g>
      <g>
        <path d="M436.883,427.541l-.628-.561c.067-.075,6.689-7.773,7.711-30.691l.841.038C443.77,419.6,437.165,427.228,436.883,427.541Z" transform="translate(-254.403 -209.266)" style="fill: #783b0d"/>
        <path d="M436.108,418.867a5.128,5.128,0,0,1-3.19-1.215c-2.569-2.04-5.612-7.553-5.521-22.23l.843.005c-.089,14.339,2.78,19.641,5.2,21.565a3.9,3.9,0,0,0,3.083,1l.2.82A2.79,2.79,0,0,1,436.108,418.867Z" transform="translate(-254.403 -209.266)" style="fill: #783b0d"/>
        <path d="M421.268,449.407a1.248,1.248,0,0,1-.193-.013l.132-.831a1.7,1.7,0,0,0,1.343-.643c1.256-1.318,2.983-5.623.436-19.65l.829-.151c2.5,13.765,1,18.706-.7,20.428A2.61,2.61,0,0,1,421.268,449.407Z" transform="translate(-254.403 -209.266)" style="fill: #783b0d"/>
        <path d="M446.4,439.323a2.526,2.526,0,0,1-.5-.042l.175-.824a4.446,4.446,0,0,0,3.372-1.212c3.387-2.685,7.576-10.438,8.3-32.127l.841.029c-.739,22.1-5.126,30.035-8.675,32.8A5.766,5.766,0,0,1,446.4,439.323Z" transform="translate(-254.403 -209.266)" style="fill: #783b0d"/>
        <path d="M414.532,425.419a3.943,3.943,0,0,1-1.8-.453c-2.379-1.214-5.555-5.471-7.17-18.858l.836-.1c1.566,12.977,4.5,17.057,6.69,18.195a2.7,2.7,0,0,0,2.448.169l.407.738A3.087,3.087,0,0,1,414.532,425.419Z" transform="translate(-254.403 -209.266)" style="fill: #783b0d"/>
        <path d="M440.72,476.487l-.829-.151c.116-.635,11.555-63.86,9.5-103.249l.841-.043C452.293,412.531,440.836,475.852,440.72,476.487Z" transform="translate(-254.403 -209.266)" style="fill: #783b0d"/>
        <path d="M432.7,472.434l-.831-.14c.083-.5,8.3-50.588,2.638-98.746l.836-.1C441.023,421.731,432.788,471.933,432.7,472.434Z" transform="translate(-254.403 -209.266)" style="fill: #783b0d"/>
        <path d="M406.739,432.025s4.891-8.633,12-9.83,13.749,5.5,13.749,5.5a30.874,30.874,0,0,1-12.5,5.424A28.457,28.457,0,0,1,406.739,432.025Z" transform="translate(-254.403 -209.266)" style="fill: #4e691e"/>
        <path d="M424.316,383.04s4.89-8.633,12-9.83,13.749,5.5,13.749,5.5a30.881,30.881,0,0,1-12.5,5.424A28.451,28.451,0,0,1,424.316,383.04Z" transform="translate(-254.403 -209.266)" style="fill: #4e691e"/>
        <path d="M446.911,427.315s-.555-9.13,3.437-12.725,11.025-.293,11.025-.293a22.351,22.351,0,0,1-5.619,9.15A15.893,15.893,0,0,1,446.911,427.315Z" transform="translate(-254.403 -209.266)" style="fill: #4e691e"/>
        <path d="M436.968,385.752s7.293-2.32,10.928,1.8,2.238,13.114,2.238,13.114a16.7,16.7,0,0,1-8.431-5.052A23.557,23.557,0,0,1,436.968,385.752Z" transform="translate(-254.403 -209.266)" style="fill: #4e691e"/>
        <path d="M423.194,405.784s7.293-2.32,10.928,1.8,2.237,13.114,2.237,13.114a16.7,16.7,0,0,1-8.43-5.052A23.544,23.544,0,0,1,423.194,405.784Z" transform="translate(-254.403 -209.266)" style="fill: #4e691e"/>
        <path d="M416.651,472.364s19.9-10.072,33.718,0Z" transform="translate(-254.403 -209.266)" style="fill: #6b4933"/>
        <path d="M427.428,470.284c-.122-.3-12.277-30.763-16.439-77.414l.84-.074c4.151,46.517,16.259,76.872,16.381,77.173Z" transform="translate(-254.403 -209.266)" style="fill: #783b0d"/>
        <path d="M468.75,439.216c0,4.272-5.819,5.878-13,5.878s-13-1.606-13-5.878,5.819-9.6,13-9.6S468.75,434.944,468.75,439.216Z" transform="translate(-254.403 -209.266)" style="fill: #608225"/>
        <path d="M453.3,424.739c0,4.272-5.819,6.448-13,6.448s-13-2.175-13-6.448c0-1.807,5.819-6.769,13-6.769S453.3,422.052,453.3,424.739Z" transform="translate(-254.403 -209.266)" style="fill: #608225"/>
        <path d="M471.071,399.075c0,3.971-5.408,5.463-12.079,5.463s-12.079-1.492-12.079-5.463,5.408-8.917,12.079-8.917S471.071,395.1,471.071,399.075Z" transform="translate(-254.403 -209.266)" style="fill: #608225"/>
        <path d="M470.778,374.889c.744,1.936-4.572,4.811-11.076,8.5s-11.733,6.793-12.477,4.857,3.278-8.179,9.782-11.867S470.033,372.954,470.778,374.889Z" transform="translate(-254.403 -209.266)" style="fill: #608225"/>
        <path d="M405.979,447.217a12.769,12.769,0,0,1,.6-13.3c4.6-6.693,12.453-5.305,12.453-5.305a33.319,33.319,0,0,1-5.482,12.367C408.955,447.669,405.979,447.217,405.979,447.217Z" transform="translate(-254.403 -209.266)" style="fill: #608225"/>
        <path d="M406.111,431.186s-1.163-10.383,3.435-17.076,13.219-7.164,13.219-7.164a45.537,45.537,0,0,1-6.248,14.226A35.714,35.714,0,0,1,406.111,431.186Z" transform="translate(-254.403 -209.266)" style="fill: #608225"/>
        <path d="M397.446,405.4s4.89-8.633,12-9.83,13.749,5.5,13.749,5.5a30.88,30.88,0,0,1-12.5,5.424A28.451,28.451,0,0,1,397.446,405.4Z" transform="translate(-254.403 -209.266)" style="fill: #608225"/>
        <path d="M424.316,453.247s4.89-8.633,12-9.83,13.749,5.5,13.749,5.5a30.881,30.881,0,0,1-12.5,5.424A28.451,28.451,0,0,1,424.316,453.247Z" transform="translate(-254.403 -209.266)" style="fill: #608225"/>
        <path d="M416.695,435.231s6.509-4.565,12.469-2.274,9.118,10.576,9.118,10.576a24.731,24.731,0,0,1-11.505-1.421A29.294,29.294,0,0,1,416.695,435.231Z" transform="translate(-254.403 -209.266)" style="fill: #608225"/>
        <path d="M407.879,392.854s3.439-6.07,8.439-6.913,9.669,3.864,9.669,3.864a21.72,21.72,0,0,1-8.793,3.815A20.011,20.011,0,0,1,407.879,392.854Z" transform="translate(-254.403 -209.266)" style="fill: #608225"/>
        <path d="M437.186,408.806s4.889-8.633,12-9.83,13.749,5.5,13.749,5.5a30.881,30.881,0,0,1-12.5,5.424A28.452,28.452,0,0,1,437.186,408.806Z" transform="translate(-254.403 -209.266)" style="fill: #6b9129"/>
        <path d="M444.387,375.212s3.117-8.335,8.041-9.165,9.791,6.163,9.791,6.163a16.991,16.991,0,0,1-8.545,4.757A15.268,15.268,0,0,1,444.387,375.212Z" transform="translate(-254.403 -209.266)" style="fill: #608225"/>
        <path d="M441.583,392.934c.667,4.194-4.842,6.815-11.89,8.47s-12.965,1.716-13.633-2.478,4.167-11.06,11.214-12.715S440.916,388.739,441.583,392.934Z" transform="translate(-254.403 -209.266)" style="fill: #6b9129"/>
        <path d="M455,493.95l-3.208-22.021H414.84l-2.391,22.021a34,34,0,0,0,10.979,10.677h-1.755v2.931h24.8v-2.931H444.3A32.712,32.712,0,0,0,455,493.95Z" transform="translate(-254.403 -209.266)" style="fill: #f0f0f0"/>
        <path d="M445.307,504.627h-1a27,27,0,0,0,3.354-2.327c-5.392-1.172-17.38-4.239-22.343-9.2-4.6-4.6-4.512-15.3-4.068-21.17H414.84l-2.391,22.021a34,34,0,0,0,10.979,10.677h-1.755v2.931h12.981l-9.932-2.235,19.044-.154Z" transform="translate(-254.403 -209.266)" style="fill: #d1d1d1"/>
        <g>
          <path d="M443,440.632a135.025,135.025,0,0,1,22.112,3.049,9.164,9.164,0,0,0,1.286-.652,136.1,136.1,0,0,0-23.6-3.337A3.955,3.955,0,0,0,443,440.632Z" transform="translate(-254.403 -209.266)" style="fill: #557321"/>
          <path d="M442.756,439.216c0,.043.01.08.01.121,6.01-1.2,17.288-2.912,24.6-3.968a11.315,11.315,0,0,0-1.219-1.46H445.361a11.618,11.618,0,0,0-.823.928h20.033c-6.41.94-16.062,2.412-21.743,3.549A5.086,5.086,0,0,0,442.756,439.216Z" transform="translate(-254.403 -209.266)" style="fill: #557321"/>
        </g>
        <g>
          <path d="M431.16,424.755c-1.335.115-2.685.23-3.825.3a4.239,4.239,0,0,0,.165.918c.976-.064,2.2-.166,3.74-.3,6.238-.537,15.3-1.317,21.981-.114a4.4,4.4,0,0,0,.081-.827c0-.034-.012-.072-.014-.106C446.488,423.433,437.417,424.215,431.16,424.755Z" transform="translate(-254.403 -209.266)" style="fill: #557321"/>
          <path d="M443.85,418.31c-4.591,1.1-10.785,2.7-15.112,4.2a6.707,6.707,0,0,0-1.157,1.407,173.415,173.415,0,0,1,18.256-5.121A19.327,19.327,0,0,0,443.85,418.31Z" transform="translate(-254.403 -209.266)" style="fill: #557321"/>
        </g>
        <path d="M428.039,448.376c-.4.418-.78.835-1.12,1.239,7.8-2.218,17.356-1.153,22.483-.223.423-.294.662-.479.662-.479s-.176-.173-.471-.44C444.555,447.566,435.605,446.637,428.039,448.376Z" transform="translate(-254.403 -209.266)" style="fill: #557321"/>
        <path d="M418.667,428.56c-4.7,3.522-10.3,12.989-13.045,17.96.207.446.357.7.357.7a1.566,1.566,0,0,0,.33-.006c2.6-4.726,8.058-14.029,12.522-17.633.151-.621.2-.969.2-.969S418.9,428.586,418.667,428.56Z" transform="translate(-254.403 -209.266)" style="fill: #557321"/>
        <path d="M406,429.259c.026.918.08,1.564.1,1.812,2.858-5.484,9.929-18.16,16.244-22.528.174-.606.292-1.061.356-1.324C416.382,410.894,409.376,422.908,406,429.259Z" transform="translate(-254.403 -209.266)" style="fill: #557321"/>
        <path d="M439.427,405.618a107.962,107.962,0,0,1,23.343-1.3c-.2-.189-.581-.539-1.13-.986a110.348,110.348,0,0,0-21.272,1.186C440.028,404.891,439.717,405.26,439.427,405.618Z" transform="translate(-254.403 -209.266)" style="fill: #5c7d24"/>
        <g>
          <path d="M470.518,401.065a3.619,3.619,0,0,0,.375-.863c-5.395-1.286-10.7-2.243-15.047-3.027-3.1-.559-6.081-1.1-7.736-1.541a8.45,8.45,0,0,0-.487.824c1.4.409,3.859.875,8.058,1.631C459.979,398.863,465.2,399.806,470.518,401.065Z" transform="translate(-254.403 -209.266)" style="fill: #557321"/>
          <path d="M452.025,393.4c-.885.114-1.628.223-2.277.328a11.041,11.041,0,0,0-1.064,1.132c.787-.155,1.887-.335,3.46-.539a35.6,35.6,0,0,1,18.237,2.178,8.616,8.616,0,0,0-.789-1.278A36.788,36.788,0,0,0,452.025,393.4Z" transform="translate(-254.403 -209.266)" style="fill: #557321"/>
        </g>
        <path d="M416.572,395.328c7.323-4.649,17.4-5.751,22.969-5.987a10.438,10.438,0,0,0-1.011-.88c-5.49.311-14.309,1.447-21.245,5.356A12.052,12.052,0,0,0,416.572,395.328Z" transform="translate(-254.403 -209.266)" style="fill: #608225"/>
        <path d="M446.294,371.38c-.173.287-.336.567-.487.841a31.13,31.13,0,0,0,6.8.773,26.012,26.012,0,0,0,9.014-1.57c-.179-.223-.387-.475-.636-.759A27.159,27.159,0,0,1,446.294,371.38Z" transform="translate(-254.403 -209.266)" style="fill: #557321"/>
      </g>
      <g>
        <polygon points="36.12 231.569 18 300.138 20.507 300.135 43.19 233.156 36.12 231.569" style="fill: #d19d64"/>
        <polygon points="94.744 229.015 112.964 300.064 110.458 300.067 87.677 230.614 94.744 229.015" style="fill: #d19d64"/>
        <polygon points="64.058 233.488 67.223 300.427 69.789 300.424 70.113 233.483 64.058 233.488" style="fill: #d19d64"/>
        <path d="M359.423,381.474l-28.843.022s-2.386-34.811-38.671-34.783c-43.766.034-28.867,34.372-28.867,34.372s-.5,0-8.608.007c-.969,43.372,20.595,62.6,58.876,62.574s52.54-12.029,52.54-12.029Z" transform="translate(-254.403 -209.266)" style="fill: url(#a)"/>
        <path d="M337.986,433.876c-49.863.038-56.24-52.341-56.24-52.341l-19.206.015-1.179-.462-6.927.006c-.969,43.372,20.595,62.6,58.876,62.574s52.54-12.029,52.54-12.029l-6.427-50.163-6.765.006S371.741,433.849,337.986,433.876Z" transform="translate(-254.403 -209.266)" style="fill: #f0f0f0"/>
      </g>
      <g>
        <g>
          <path d="M365.058,273.416s-11.277-8.351-18.082-1.827c-.566,4.727-.736,6.168-.736,6.168s3.982-5.532,15.855-1.052C364.136,276.033,365.058,273.416,365.058,273.416Z" transform="translate(-254.403 -209.266)" style="fill: #aba8a8"/>
          <path d="M347.037,271.379s2.843-3.42,8.937-2.484c6.364.977,9.084,4.521,9.084,4.521l-.364.18a17.972,17.972,0,0,0-8.809-4.138,10.92,10.92,0,0,0-8.036,1.921Z" transform="translate(-254.403 -209.266)" style="fill: #b7baba"/>
          <g>
            <polygon points="131.538 31.642 134.793 29.704 136.912 31.451 134.116 34.747 131.538 31.642" style="fill: #af7727"/>
            <polygon points="134.962 35.319 139.069 33.332 139.344 33.76 136.177 36.07 134.962 35.319" style="fill: #af7727"/>
            <polygon points="137.545 38.55 141.201 35.446 143.972 38.681 138.655 39.74 137.545 38.55" style="fill: #af7727"/>
            <path d="M407,267.109s-1.857-7.85-4.9-11.619c-4.251-5.266-11.431-15.173-26.166-23.875-2.682.16-2.813,1.9-2.813,1.9s5.3,3.175,7.064,16.58c1.623,12.326-.285,22.555,9.144,25.828C401.3,280.075,407,267.109,407,267.109Z" transform="translate(-254.403 -209.266)" style="fill: url(#b)"/>
            <path d="M366.425,275.99c.456-.392,5.277-4.34,10.863-8.475l2.2-.6v-1.457s2.64-1.287,3.593-1.8c7.759-4.136,23.4,2.874,19.16,10.462-7.426,13.292-21.255,27.127-27.834,28.5S357.694,283.5,366.425,275.99Z" transform="translate(-254.403 -209.266)" style="fill: #f3f8f7"/>
            <g>
              <path d="M376.2,231.773s-1.421-11-1.516-11.82-4-.953-7.934,1.454c.749,4.489,4.767,13.47,6.973,12.251S376.2,231.773,376.2,231.773Z" transform="translate(-254.403 -209.266)" style="fill: url(#c)"/>
              <path d="M368.1,225.764a4.517,4.517,0,0,0-1.345,4.256c.331,1.922,5.692,4.494,6.973,3.639S370.75,223.025,368.1,225.764Z" transform="translate(-254.403 -209.266)" style="fill: url(#d)"/>
              <path d="M374.717,220.218c-.156-.475.9-4.924,1.023-5.555s-1.749-1.24-2.277-.132-2.278,5.207-1.663,5.687S374.717,220.218,374.717,220.218Z" transform="translate(-254.403 -209.266)" style="fill: url(#e)"/>
              <path d="M372.758,220.476s-.645-5.93-.933-6.191c-.645-.584-2.134.045-2.222,1.07-.028.327.206,5.978.6,6.014A14.773,14.773,0,0,0,372.758,220.476Z" transform="translate(-254.403 -209.266)" style="fill: url(#f)"/>
              <path d="M371.476,220.431s-1.546-5.346-2.02-5.627-2.192.6-2.192.882,1.181,5.389,1.489,5.578S371.476,220.431,371.476,220.431Z" transform="translate(-254.403 -209.266)" style="fill: url(#g)"/>
              <path d="M369.37,220.821a17.6,17.6,0,0,0-2.057-2.881,1.389,1.389,0,0,0-1.863,1.479,12.364,12.364,0,0,0,1.852,2.8C367.609,222.3,369.37,220.821,369.37,220.821Z" transform="translate(-254.403 -209.266)" style="fill: url(#h)"/>
              <path d="M373.369,214.75a11.565,11.565,0,0,1-.908-2.615c-.329-1.092.923-1.538,1.755-1.27a9.194,9.194,0,0,1,1.525,3.8C375.661,215.029,373.98,215.98,373.369,214.75Z" transform="translate(-254.403 -209.266)" style="fill: url(#i)"/>
              <path d="M374.215,210.866l-4.21-1.56s-1.979,1.835.285,2.552a4.559,4.559,0,0,0,2.708.31Z" transform="translate(-254.403 -209.266)" style="fill: url(#j)"/>
              <path d="M367.541,216.574c-.446-.475-1.492-1.948-1.987-2.656s.434-1.89,1.308-1.782,2.464,2.3,2.741,3.221S367.987,217.049,367.541,216.574Z" transform="translate(-254.403 -209.266)" style="fill: url(#k)"/>
              <path d="M366.862,212.135l-4.918.315s-1.181,2.393,1.425,2.432a4.242,4.242,0,0,0,3-1.258A2.966,2.966,0,0,0,366.862,212.135Z" transform="translate(-254.403 -209.266)" style="fill: url(#l)"/>
              <path d="M365.893,219.918a8.149,8.149,0,0,1-1.644-1.71c-.492-.671.1-1.572.893-1.829s1.758.94,2.171,1.562S366.848,220.478,365.893,219.918Z" transform="translate(-254.403 -209.266)" style="fill: url(#m)"/>
              <path d="M365.34,216.367c-.484.029-4.245.272-4.245.272s-.611,2.263,1.995,2.3a2.994,2.994,0,0,0,2.518-1.017C366.035,217.46,365.824,216.338,365.34,216.367Z" transform="translate(-254.403 -209.266)" style="fill: url(#n)"/>
              <path d="M369.52,215.459a16.915,16.915,0,0,1-2.351-2.555c-.6-.991.513-1.615,1.466-1.718a11.783,11.783,0,0,1,3.224,3.128C372.392,215.029,370.184,216.167,369.52,215.459Z" transform="translate(-254.403 -209.266)" style="fill: url(#o)"/>
              <path d="M368.689,211.236l-4.34-.269s-1.078,2.678,1.2,2.548C368.8,213.327,368.689,211.236,368.689,211.236Z" transform="translate(-254.403 -209.266)" style="fill: url(#p)"/>
              <path d="M367.418,227.527c-2.116.528-3.5-2.524-5.45-1.52a2.1,2.1,0,0,0-.79,2.418s5.94,2.35,7.574,3.734C368.165,229.542,369.534,227,367.418,227.527Z" transform="translate(-254.403 -209.266)" style="fill: url(#q)"/>
            </g>
            <path d="M380.94,263.351s9.265-6.43,17.332-2.68,7,13.205,7,13.205l-3.529,1.135s.5-8.2-5.547-10.967-15.623.887-15.623.887Z" transform="translate(-254.403 -209.266)" style="fill: #fff"/>
            <path d="M389.2,238.97l-4.171.526s2.606,3.615,2.5,3.506,3.787-2.285,3.787-2.285Z" transform="translate(-254.403 -209.266)" style="fill: #f0a336"/>
            <polygon points="139.069 33.332 134.629 34.646 136.135 38.102 139.344 33.76 139.069 33.332" style="fill: #f0a336"/>
            <polygon points="141.201 35.446 139.616 40.546 141.592 42.57 143.972 38.681 141.201 35.446" style="fill: #f0a336"/>
          </g>
          <path d="M378.964,356.387c.761-15.9-.18-39.216-.18-39.216a19.257,19.257,0,0,0,4.427-6.021c-1.793-9.992-9.864-27.031-9.864-27.031s-14.6-9.48-19.857-9.608S335,285.633,334.914,286.169c-5,31.643,11.273,44.582,11.273,44.582s5.509,12.295.237,29.564c-1.117,3.778,7.464,7.1,16.081,7.056,8.2-.042,16.433-3.269,16.369-6.742C378.848,359.236,378.892,357.883,378.964,356.387Z" transform="translate(-254.403 -209.266)" style="fill: url(#r)"/>
          <polygon points="118.421 75.561 110.655 64.15 107.692 67.439 114.916 82.326 118.421 75.561" style="fill: #a3a6a6"/>
          <polygon points="117.792 75.436 110.291 64.331 110.655 64.15 118.421 75.561 117.792 75.436" style="fill: #aba8a8"/>
          <g>
            <path d="M353.037,259.537l-4.989,17.577s8.692,13.886,17.757,13.76-6.085-31.337-6.085-31.337Z" transform="translate(-254.403 -209.266)" style="fill: url(#s)"/>
            <g>
              <path d="M374.362,224.358s8.418,14.215,6.308,30.512-8.018,25.836-8.018,25.836l-11.486-1.527s1.772-19.467-17.74-20.357a110.387,110.387,0,0,1-.1-12.233l10.38-.041,1.6-17.406Z" transform="translate(-254.403 -209.266)" style="fill: #f7bba9"/>
              <path d="M369.957,252.319a16.71,16.71,0,0,1-3.113,1.272A2.589,2.589,0,0,0,369.957,252.319Z" transform="translate(-254.403 -209.266)" style="fill: #eaa38c"/>
              <path d="M363.671,247.5s-3.657-.919-3.453-.919,3.134,1.732,3.134,1.732l-.059.448s-4.45.6-4.385.6h4.953A3.1,3.1,0,0,0,363.671,247.5Z" transform="translate(-254.403 -209.266)" style="fill: #eaa38c"/>
              <path d="M361.167,279.179l11.486,1.527s5.057-8.173,7.484-22.306c-.5,1.858-1.812,3.641-6.2,3.058-5.454-.725-18.524-8.62-18.524-8.62l-3,.075s.1,4.429.187,8.289C362.3,266.595,361.167,279.179,361.167,279.179Z" transform="translate(-254.403 -209.266)" style="mix-blend-mode: multiply;fill: url(#t)"/>
              <path d="M380.055,257.608c.033.2,1.5,14.839,0,16.49s-1.894,1.756-1.894,1.756,2.1,7.372-1.916,9.217-8.831-2.474-8.831-2.474-1.518,1.6-2.758,1.211-5.553-3.593-5.553-3.593-1.915,1.068-3.256.68-3.143-11.939-3.152-12.231-2.3.486-3.165-1.36,2.887-15.66,2.887-15.66l3.4-1.385s10.839,9.782,17.41,10.462S380.055,257.608,380.055,257.608Z" transform="translate(-254.403 -209.266)" style="fill: url(#u)"/>
              <path d="M360.748,260.4s-6.923,14.113-9.345,12.754,4.6-15.732,4.6-15.732Z" transform="translate(-254.403 -209.266)" style="fill: url(#v)"/>
              <path d="M363,269.258s-1.295,3.856-2.349,3.413-1.453-4.681-1.453-4.681Z" transform="translate(-254.403 -209.266)" style="fill: url(#w)"/>
              <path d="M372.173,271.261c.184,0-1.909,14.791-3.358,14.826-2.022.048-3.606-14.826-3.606-14.826Z" transform="translate(-254.403 -209.266)" style="fill: url(#x)"/>
              <path d="M377.575,268.354s3.354,9.711,2.561,10.682-5.669-8.8-5.669-8.8Z" transform="translate(-254.403 -209.266)" style="fill: url(#y)"/>
              <path d="M343.328,246.59s-3.163-2.951-2.092-9.061c0,0-10.7-12.513,7.092-7.534-16.122-20.174,15.8-16.163,17.346-15.957,5.559.739,11.236,15.371,11.236,15.371s-5.331-3.219-19.364.125c-.356,5.636-2.129,23.3-2.129,23.3l-3,.075-.858-6.356Z" transform="translate(-254.403 -209.266)" style="fill: url(#z)"/>
              <path d="M350.713,252.671c-2.1-2.105-4.445-4.451-6.086-6.086l-1.3.005s-.022.369-.047,1.025c1.522,1.516,3.729,3.723,5.571,5.568l-5.509,4.173q.036.724.084,1.467c.24.011.462.037.7.054l7.28-5.515Z" transform="translate(-254.403 -209.266)" style="fill: #f9977a"/>
              <path d="M370.207,246.3s1.007,1.537-.322,5.125c-3.329-.821-6.67-1.36-6.67-1.36l.483-2.709Z" transform="translate(-254.403 -209.266)" style="fill: #fff"/>
              <path d="M380.227,247.683a7.362,7.362,0,0,1-.331,4.108l-3.661.281-.762-4.552S378.438,246.791,380.227,247.683Z" transform="translate(-254.403 -209.266)" style="fill: #fff"/>
              <g style="clip-path: url(#aa)">
                <path d="M369.086,250.175c-.862,1.512-2.308,2.3-3.232,1.76s-.973-2.2-.112-3.717,2.308-2.3,3.232-1.76S369.947,248.662,369.086,250.175Z" transform="translate(-254.403 -209.266)" style="fill: url(#ab)"/>
                <path d="M367.16,249.847c-.246.432-.659.657-.923.5s-.278-.629-.032-1.061.659-.657.923-.5S367.406,249.415,367.16,249.847Z" transform="translate(-254.403 -209.266)" style="fill: #fff;opacity: 0.2"/>
                <path d="M368.925,248.753c-.26.456-.7.693-.974.53s-.293-.664-.034-1.12.7-.693.974-.53S369.185,248.3,368.925,248.753Z" transform="translate(-254.403 -209.266)" style="fill: #fff;opacity: 0.4"/>
              </g>
              <g style="clip-path: url(#ac)">
                <path d="M379.066,250.963c-.865,1.519-2.2,2.378-2.987,1.919s-.719-2.062.146-3.581,2.2-2.378,2.987-1.919S379.931,249.444,379.066,250.963Z" transform="translate(-254.403 -209.266)" style="fill: url(#ad)"/>
                <path d="M377.372,251.078c-.282.5-.718.776-.974.626s-.234-.673.048-1.168.718-.776.974-.626S377.655,250.583,377.372,251.078Z" transform="translate(-254.403 -209.266)" style="fill: #fff;opacity: 0.2"/>
                <path d="M379.1,249.488c-.238.488-.633.807-.882.711s-.258-.569-.02-1.057.633-.807.882-.711S379.342,249,379.1,249.488Z" transform="translate(-254.403 -209.266)" style="fill: #fff;opacity: 0.4"/>
              </g>
              <path d="M339.9,242.021c7.44-3.628,16.649-2.442,16.749-2.425l.314-1.916c-.429-.072-10.6-1.737-18.168,1.376Z" transform="translate(-254.403 -209.266)" style="fill: #e39629"/>
              <path d="M357.782,229.554a.5.5,0,0,1-.037-.131l1.893-.3c-.231-1.487-4.674-4.654-7.512-5.678-3.216-1.16-9.931-1.1-10.215-1.1l.021,3.884c.066,0,6.657-2,9.551-.958C354.245,226.27,357.442,228.882,357.782,229.554Z" transform="translate(-254.403 -209.266)" style="fill: #e39629"/>
              <path d="M371.532,228.06c.04-1.1-2.834-11.16-7.709-15.229a17.347,17.347,0,0,0-10.039-3.563l.229,3.871c.048-.007,5.09-.953,8.592,1.969,4.285,3.576,6.964,12.034,7.012,12.913Z" transform="translate(-254.403 -209.266)" style="fill: #e39629"/>
              <path d="M363.7,247.356s5.407-.96,6.533-.513c.3.148.306.864.3.839s.6-1.925.6-1.925A37.508,37.508,0,0,0,363.7,247.356Z" transform="translate(-254.403 -209.266)" style="fill: #4c3007"/>
              <path d="M375.473,247.52l.045.271s3.646-.588,4.735.185c.069.452.124,1.257.124,1.257l.509-2.168A14.934,14.934,0,0,0,375.473,247.52Z" transform="translate(-254.403 -209.266)" style="fill: #4c3007"/>
              <path d="M364.283,234.029s7.638-3.786,12.627-.555C374.583,230.738,370.6,230.871,364.283,234.029Z" transform="translate(-254.403 -209.266)" style="fill: #eaa38c"/>
              <path d="M375.275,243.075s-.422-1.258-2.045.012C374.951,242.614,375.275,243.075,375.275,243.075Z" transform="translate(-254.403 -209.266)" style="fill: #eaa38c"/>
              <path d="M369.952,230.212s4.025-.658,4.853.263C373.62,228.995,371.77,229.488,369.952,230.212Z" transform="translate(-254.403 -209.266)" style="fill: #eaa38c"/>
              <path d="M376.592,239a9.105,9.105,0,0,1,4.54,1.61,6.715,6.715,0,0,0,.958-2.2,12.7,12.7,0,0,0-5.916-6.281Z" transform="translate(-254.403 -209.266)" style="fill: #b0741d"/>
              <path d="M362.423,240.093a48.674,48.674,0,0,1,9.622-1.586,63.816,63.816,0,0,0,.9-6.914l-1.723-.229-.092,1.432s-.888-1.444-.9-1.374-6.006,2.351-9.481,5.37A12.75,12.75,0,0,0,362.423,240.093Z" transform="translate(-254.403 -209.266)" style="fill: #b0741d"/>
              <path d="M363.214,261.87s6.45,3.807,12,3.376c-.335,2.491-3.459,7.7-6,7.26C364.884,271.761,363.214,261.87,363.214,261.87Z" transform="translate(-254.403 -209.266)" style="fill: url(#ae)"/>
              <path d="M369.957,251.6a19.207,19.207,0,0,0-7.855-2.1C363.955,251.442,369.957,251.6,369.957,251.6Z" transform="translate(-254.403 -209.266)" style="fill: #f7bba9"/>
              <path d="M376.235,252.072l4.3-.981s.424.955-.395,1.228A15.4,15.4,0,0,1,376.235,252.072Z" transform="translate(-254.403 -209.266)" style="fill: #f7bba9"/>
              <path d="M373.345,267.954l.883-2.676c-5.3-.036-11.014-3.408-11.014-3.408s.187,1.1.6,2.6A16.893,16.893,0,0,0,373.345,267.954Z" transform="translate(-254.403 -209.266)" style="fill: #fff"/>
              <path d="M364.791,267.425c.963,2.4,2.4,4.733,4.423,5.081a2.659,2.659,0,0,0,1.947-.589C370.195,269.275,366.492,267.919,364.791,267.425Z" transform="translate(-254.403 -209.266)" style="fill: url(#af)"/>
              <g>
                <path d="M372.638,242.132s1.292,12.98-1.866,15.927l-11.127-.493s-1.776-9.231-.9-14.244A84.34,84.34,0,0,1,372.638,242.132Z" transform="translate(-254.403 -209.266)" style="opacity: 0.2"/>
                <path d="M383.231,243.373s.471,11.514-2.505,15.127c-3.17-.127-3.441-.153-3.441-.153l-2.8-13.084.133-3.263S381.05,242.51,383.231,243.373Z" transform="translate(-254.403 -209.266)" style="opacity: 0.2"/>
                <path d="M358.742,243.321l-12.081,2.214s-.619,1.626-.412,1.619,12.307-1.022,12.307-1.022Z" transform="translate(-254.403 -209.266)" style="fill: #131313"/>
                <g>
                  <path d="M358.784,251.223a58.168,58.168,0,0,0,.86,6.342l11.127.493c1.1-1.027,1.6-2.744,1.862-5.235A116.414,116.414,0,0,1,358.784,251.223Z" transform="translate(-254.403 -209.266)" style="fill: #fff;opacity: 0.2"/>
                  <path d="M376.138,253l1.147,5.351s.27.026,3.441.153c1.116-1.354,1.684-3.385,2.037-5.937A54.961,54.961,0,0,1,376.138,253Z" transform="translate(-254.403 -209.266)" style="fill: #fff;opacity: 0.2"/>
                </g>
                <path d="M380.927,258.9l-5.555-.427-.694-11.42c-.069-.852-.264-3.021-.416-4.677q-.609-.022-1.213-.029c.252,2.185,1.118,11.57-1.966,15.933l-.121.171-11.635-.515-.06-.293c-.016-.08-1.626-8.111-.907-14.365l.031-.273.269-.058a74.244,74.244,0,0,1,13.516-1.367l0-.012h.44c.01,0,1,0,2.014.048l.335.024a33.555,33.555,0,0,1,8.382,1.366l.247.078.019.258c.726,9.581-2.008,14.476-2.563,15.36Zm-4.83-1.14,4.421.34c.619-1.083,2.951-5.8,2.349-14.438a33.12,33.12,0,0,0-7.832-1.252c.046.509.127,1.385.205,2.262.127,1.415.195,2.173.2,2.586l.012.039-.013,0c0,.033,0,.063,0,.092l.033,0Zm-16.133-.563,10.612.47c2.792-4.233,1.915-13.443,1.7-15.324a73.957,73.957,0,0,0-13.184,1.3A54.364,54.364,0,0,0,359.963,257.2Z" transform="translate(-254.403 -209.266)" style="fill: #131313"/>
                <polygon points="99.243 34.989 98.41 37.347 100.336 37.186 101.657 34.547 99.243 34.989" style="fill: #383838"/>
              </g>
              <path d="M374.455,244.358a128.728,128.728,0,0,1,2.938,15.525l1.74,1.241a9.312,9.312,0,0,1-1.386,2.617,13.007,13.007,0,0,1-8.079-3.557,6.637,6.637,0,0,0,2.513-2.725c1.038-2.064,1.617-11.538,1.617-11.538Z" transform="translate(-254.403 -209.266)" style="fill: url(#ag)"/>
              <path d="M362.637,262.133a.819.819,0,0,1,1.078-.862C363.116,261.8,362.637,262.133,362.637,262.133Z" transform="translate(-254.403 -209.266)" style="fill: #ff8000"/>
            </g>
          </g>
          <path d="M364.348,284.109l2.107,6.165,5.739-5.572.628.126-6.326,6.619a7.815,7.815,0,0,1-3.77.419C364.026,284.743,364.348,284.109,364.348,284.109Z" transform="translate(-254.403 -209.266)" style="fill: #aba8a8"/>
          <path d="M378.923,361.245c-.219,5-1.01,14.834-.911,17.86-9.886.851-28.367-8.141-32.758-15.983,1.54-4.229,3.834-12.9,16.84-12.568C376.184,350.912,379.06,358.136,378.923,361.245Z" transform="translate(-254.403 -209.266)" style="fill: url(#ah)"/>
          <path d="M345.781,361.645l-1.487,2.82s7.086,9.959,18.256,14.24c.228.088,1.821-2.247,2.052-2.164.463.167,0,1.8.479,1.947a29.9,29.9,0,0,0,13.087,1.22c-.156-1.931-.128-2.918-.128-2.918S361.05,379.449,345.781,361.645Z" transform="translate(-254.403 -209.266)" style="fill: #f3f8f7"/>
          <polygon points="108.861 82.701 113.788 86.967 113.957 80.232 108.861 82.701" style="fill: #f3f8f7"/>
          <path d="M347.848,271.379c.278.911,6.351,9.133,16.5,12.73.22.517,0,.279,0,.279s-10.346-3.362-12.8-5.53-4.515-7.478-4.515-7.478Z" transform="translate(-254.403 -209.266)" style="fill: #b7baba"/>
          <path d="M347.037,271.379a34.948,34.948,0,0,0,17.311,13.008c-.826,6.347-1.285,8.735-1.285,8.735a26.9,26.9,0,0,1-17.828-15.333C346.024,274.827,347.037,271.379,347.037,271.379Z" transform="translate(-254.403 -209.266)" style="fill: #f3f8f7"/>
        </g>
        <g>
          <g>
            <path d="M362.139,503.005s-2.221-14.112-3.075-26.923-1.025-33.771-1.025-33.771-1.991-5.036-3.075-7.516-5.306-2.014-7,.342-3.925,4.47-4.937,10.59S351.8,482.7,360.6,503.911C362.481,503.241,362.139,503.005,362.139,503.005Z" transform="translate(-254.403 -209.266)" style="fill: url(#ai)"/>
            <path d="M347.962,435.137c.672,4.452,6.157,3.824,7-.342S369.3,367.264,369.3,367.264a33.3,33.3,0,0,0-3.7-2.388c-14.128-7.9-19.7-2.332-19.7-2.332s-7.683,10.369-8.024,12.931,3.587,9.907,3.587,9.907S347.289,430.686,347.962,435.137Z" transform="translate(-254.403 -209.266)" style="fill: url(#aj)"/>
            <path d="M355.84,509.647h14.412l-1.089-2.287a59.38,59.38,0,0,1-7.025-4.354,2.631,2.631,0,0,0-1.73.6c-2.319,2.457-4.568,4.521-4.568,4.521Z" transform="translate(-254.403 -209.266)" style="fill: url(#ak)"/>
            <path d="M355.27,370.968l-.939-.41a139.244,139.244,0,0,1-8.214,15.873c-.151-6.357-.212-10.786-.119-11.562.254-2.112,2.371-5.9,3.607-7.971l-1.41-.64c-1.305,2.195-3.441,6.078-3.723,8.428-.243,2.028.459,25.655,1.036,43.52l2.107,14.11c-.473-13.777-1.126-30.891-1.455-44.112C350.307,382.291,355.061,371.445,355.27,370.968Z" transform="translate(-254.403 -209.266)" style="fill: #fcedde;mix-blend-mode: multiply"/>
            <polygon points="115.85 300.381 101.081 300.381 101.438 298.865 115.493 298.865 115.85 300.381" style="fill: #f3f3f3"/>
            <path d="M350.6,445.833c-2.077.277-2.474-3.078-2.514-3.176l.951-.382c.205.508.953,1.85,1.932,1.95.773.078,1.687-.626,2.632-2.043l1.126.941A5.862,5.862,0,0,1,350.6,445.833Z" transform="translate(-254.403 -209.266)" style="fill: #fcedde;mix-blend-mode: multiply"/>
          </g>
          <path d="M392.288,438.411c-1.983-6.614-14.213-59.246-14.213-59.246s.046-6.308-8.368-11.581-16.136,10.72-6.306,31.608c4.517,9.6,18.1,38.257,20.6,43.32S394.446,445.611,392.288,438.411Z" transform="translate(-254.403 -209.266)" style="fill: url(#al)"/>
          <path d="M375.248,509.647V507.6s3.681-2.791,5.124-6.064a2.465,2.465,0,0,1,2.391-.683s2.788,7.479,21.059,6.064a4.637,4.637,0,0,1,1.623,2.733Z" transform="translate(-254.403 -209.266)" style="fill: url(#am)"/>
          <polygon points="120.845 298.331 150.401 298.808 151.775 300.381 120.845 300.381 120.845 298.331" style="fill: #f3f3f3"/>
          <path d="M383.163,501.284s5.036-36.7,9.415-60.445c.759-4.116-4.842-4.124-9.243-.144-1.281,1.158-6.264,5.718-9.019,15.332s9.9,23.3,6.055,45.506C382.836,501.875,383.163,501.284,383.163,501.284Z" transform="translate(-254.403 -209.266)" style="fill: url(#an)"/>
          <path d="M385.9,438.869l-20.979-46.921.087-.452c.455-.4,4.453-3.986,4.865-6.874.39-2.732.023-10.207.007-10.524l-1.535.077a89.935,89.935,0,0,1,.007,10.23c-.18,1.263-1.459,2.939-2.648,4.24l.834-4.5.013-10.645h-1.537V383.93l-1.423,8.812,21.232,46.594,1.1-.414Z" transform="translate(-254.403 -209.266)" style="fill: #fcedde;mix-blend-mode: multiply"/>
          <path d="M378.967,361.246c-.219,5-1.01,14.835-.911,17.86-9.886.851-28.367-8.141-32.758-15.983,1.54-4.229,3.834-12.9,16.84-12.568C376.228,350.913,379.1,358.138,378.967,361.246Z" transform="translate(-254.403 -209.266)" style="fill: url(#ao)"/>
          <path d="M345.825,361.646l-1.487,2.82s8.413,12.37,21.633,15.793c.613.159,2.509-2.44,2.509-2.44l.82,1.778a34.112,34.112,0,0,0,8.912.113c-.156-1.931-.128-2.918-.128-2.918S361.094,379.45,345.825,361.646Z" transform="translate(-254.403 -209.266)" style="fill: #f3f8f7"/>
          <path d="M384.826,439.336l.483.467s-6.051,11.581-6.523,16.592,3.593,16.734,3.64,24.958a164.818,164.818,0,0,1-1.017,20.279l.992-.036a97.627,97.627,0,0,0,1.312-19.912c-.239-10.447-3.963-20.074-3.631-25.318s6.362-16.421,6.362-16.421l-.539-1.076Z" transform="translate(-254.403 -209.266)" style="fill: #fcedde;mix-blend-mode: multiply"/>
        </g>
        <g>
          <path d="M334.972,286.191a27.5,27.5,0,0,0-10.6,13.448c5.824,21.555,18.746,40.354,18.746,40.354s9.662,5.383,15.455,2.439,8.171-7.272,5.793-14.449c-2-6.023-3.31-7.42-3.31-7.42l-.57,1.286-.073-2.808-2.224,1.045.206-1.1S343.112,291.693,334.972,286.191Z" transform="translate(-254.403 -209.266)" style="fill: #f3f8f7"/>
          <path d="M347.894,345.646c9.648,2.646,16.47.774,18-11.163,1.123-8.785-3.3-16.794-8.026-18.444s-14.662,2.786-16.7,11.945C339.7,334.576,343.244,343.014,347.894,345.646Z" transform="translate(-254.403 -209.266)" style="fill: #fff"/>
          <polygon points="90.896 90.373 94.621 91.869 92.604 97.038 89.411 95.734 90.896 90.373" style="fill: #af7727"/>
          <polygon points="88.071 98.665 91.523 101.86 92.152 99.811 88.071 98.665" style="fill: #af7727"/>
          <polygon points="88.071 102.218 92.626 103.294 91.87 106.287 85.85 105.486 88.071 102.218" style="fill: #af7727"/>
          <path d="M359.416,344.9l-4.166.327a6.056,6.056,0,0,0-2.864-3.342c-3.57-2.107-9.741-4.793-11.667-12.174-3.207-12.293,11.323-27.11,7.113-51.186l3.282-.788S381,325.006,359.416,344.9Z" transform="translate(-254.403 -209.266)" style="fill: url(#ap)"/>
          <polygon points="92.721 106.772 91.429 110.427 85.85 105.486 88.071 102.218 92.721 106.772" style="fill: #f0a336"/>
          <polygon points="93.721 100.836 88.071 98.665 93.721 98.665 93.721 100.836" style="fill: #f0a336"/>
          <path d="M349.295,303.969c.066-.3-4-4.33-4-4.33L343.814,305l5.481.267Z" transform="translate(-254.403 -209.266)" style="fill: #f0a336"/>
          <path d="M347.832,278.527l-4.716-8.133.532-7.5s2.772.98,2.855,3.3a32.216,32.216,0,0,1-.085,3.981S350.212,276.576,347.832,278.527Z" transform="translate(-254.403 -209.266)" style="fill: url(#aq)"/>
          <polygon points="95.923 64.82 84.117 49.154 90.199 39.637 91.326 39.807 104.375 56.087 95.923 64.82" style="fill: #404040"/>
          <polygon points="103.451 56.24 95.683 64.501 95.923 64.82 104.375 56.087 103.451 56.24" style="fill: #505050"/>
          <polygon points="90.199 39.637 103.451 56.24 104.375 56.087 91.326 39.807 90.199 39.637" style="fill: #636363"/>
          <path d="M347.832,278.527l-3.318-15.395s7.849,1.716,9.121,3.543.585,12.148-1.592,12.6A6.636,6.636,0,0,1,347.832,278.527Z" transform="translate(-254.403 -209.266)" style="fill: url(#ar)"/>
          <path d="M344.514,263.133l1.7-6.131,2.37-5.818s3.249.909,2.413,3.113c-.315.83-1.351,2.3-2.01,4.029-1.09,2.863-1.394,4.716-1.683,5.512A2.482,2.482,0,0,1,344.514,263.133Z" transform="translate(-254.403 -209.266)" style="fill: url(#as)"/>
          <path d="M347.123,263.783l2.553-5.616,3.561-1.828,2.674.895s.224,2.442-1.832,2.256a2.979,2.979,0,0,0-2.173.655l-2.216,4.423A4.869,4.869,0,0,1,347.123,263.783Z" transform="translate(-254.403 -209.266)" style="fill: url(#at)"/>
          <path d="M349.613,264.571c-.147-.052,3.094-4.231,3.094-4.231l3.637-.988,1.509,1.589s.071,2-1.509,1.541c-1.563-.454-2.146.192-2.146.192s-1.592,2.55-2.3,2.824A4.368,4.368,0,0,1,349.613,264.571Z" transform="translate(-254.403 -209.266)" style="fill: url(#au)"/>
          <path d="M351.87,265.439l3.326-2.375,3.375-.091,1.63,1.191s-1.145,1.407-2.127,1.007a1.656,1.656,0,0,0-1.465-.086l-2.7,2.212A4.425,4.425,0,0,1,351.87,265.439Z" transform="translate(-254.403 -209.266)" style="fill: url(#av)"/>
        </g>
      </g>
    </g>
  </g>
</svg>
