<svg xmlns="http://www.w3.org/2000/svg" xmlns:xlink="http://www.w3.org/1999/xlink" viewBox="0 0 168 168">
  <defs>
    <clipPath id="a">
      <rect width="168" height="168" style="fill: none"/>
    </clipPath>
    <linearGradient id="b" x1="84.654" y1="153.392" x2="84.717" y2="149.714" gradientUnits="userSpaceOnUse">
      <stop offset="0" stop-color="#54090b"/>
      <stop offset="0.296" stop-color="#640a0d"/>
      <stop offset="0.666" stop-color="#710c0f"/>
      <stop offset="1" stop-color="#760c10"/>
    </linearGradient>
    <linearGradient id="c" x1="84.885" y1="85.624" x2="91.558" y2="86.984" gradientUnits="userSpaceOnUse">
      <stop offset="0" stop-color="#ffae80"/>
      <stop offset="0.093" stop-color="#feaa7b"/>
      <stop offset="0.664" stop-color="#f99760"/>
      <stop offset="1" stop-color="#f79056"/>
    </linearGradient>
    <linearGradient id="d" x1="-414.205" y1="225.887" x2="-414.205" y2="219.777" gradientTransform="translate(320.628 484.774) rotate(90)" gradientUnits="userSpaceOnUse">
      <stop offset="0" stop-color="#426f85"/>
      <stop offset="0.213" stop-color="#375c6f"/>
      <stop offset="0.492" stop-color="#2d4959"/>
      <stop offset="0.759" stop-color="#263d4c"/>
      <stop offset="1" stop-color="#243947"/>
    </linearGradient>
    <linearGradient id="e" x1="538.622" y1="64.572" x2="538.622" y2="58.461" gradientTransform="translate(-465.73 9.005)" xlink:href="#d"/>
    <linearGradient id="f" x1="85.234" y1="163.078" x2="85.254" y2="161.935" xlink:href="#b"/>
  </defs>
  <title>dave</title>
  <g style="clip-path: url(#a)">
    <g>
      <path d="M104.175,146.075c14.513,4.4,27.857,9.058,34.875,15.124l3.784,10.862c-10.966,1.517-118.693.206-123.218-.575l8.812-12.459c12.859-6.391,25.415-11.724,36.792-12.951Z" style="fill: #f5fdff"/>
      <rect x="72.497" y="120.172" width="26.952" height="24.187" style="fill: #ffae80"/>
      <polygon points="85.203 139.572 77.799 149.081 84.713 158.772 86.889 155.645 91.658 149.081 85.203 139.572" style="fill: url(#b)"/>
      <polygon points="72.221 134.983 63.111 146.895 77.799 149.081 85.203 139.572 72.221 134.983" style="fill: #e1f0f5"/>
      <polygon points="85.203 139.572 91.658 149.081 106.792 146.895 99.449 136.127 85.203 139.572" style="fill: #e1f0f5"/>
      <path d="M56.59,74.414a17.388,17.388,0,0,0-5.082.372c-2.27,5.491,0,14.162,0,14.162l5.753,3.42Z" style="fill: #ed9c6d"/>
      <path d="M114.651,74.414a17.388,17.388,0,0,1,5.082.372c2.271,5.491,0,14.162,0,14.162l-5.753,3.42Z" style="fill: #ed9c6d"/>
      <path d="M116.015,75.138l-1.16,17.3s-3.31,16.785-8.682,25.122c-5.8,8.988-9.917,7.709-20.485,7.709-8.939,0-5.861-2.16-14.805-6.214C63.7,109.487,56.65,91.385,56.65,91.385L55.259,74.829c0-2.3,4.735-31.593,7.044-33.871s43.263-3.425,45.232,0S116.015,75.138,116.015,75.138Z" style="fill: #ffae80"/>
      <path d="M86.825,82.209H97.149s2.895,8.582-12,9.382A10.545,10.545,0,0,1,86.825,82.209Z" style="fill: url(#c)"/>
      <path d="M81.985,61.635l-.354-4.873s-11.119.855-13.679,1.811a27.013,27.013,0,0,0-5.517,3.187l-1.143,3.669A83.846,83.846,0,0,1,69.2,62.44C71.114,62.012,81.985,61.635,81.985,61.635Z" style="fill: #3d2416"/>
      <path d="M87.512,81.59c.005-2.895-.006-5.786-.055-8.678-.028-3.1-.156-6.2-.245-9.3l-.131.267c1.032-.853,2.03-1.74,3.039-2.616s2.02-1.756,3.007-2.653c-1.112.768-2.2,1.557-3.294,2.348s-2.193,1.577-3.261,2.391l-.128.1,0,.166c-.086,3.1-.217,6.2-.244,9.3-.052,3.1-.06,6.2-.053,9.3l0,.63.68-.007,6.314-.045,3.155-.039.789-.017h.075l.012,0-.205-.027.006,0,.046.014a.381.381,0,0,1-.146-.055.354.354,0,0,1-.109-.124l0,.01c0,.007.007.006.013.023a1.673,1.673,0,0,1,.059.258,5.4,5.4,0,0,1-.011,1.316,8.2,8.2,0,0,1-2.441,4.917,8.312,8.312,0,0,1-2.448,1.649,11.819,11.819,0,0,1-1.44.53c-.5.141-1.005.255-1.524.35.526-.035,1.05-.092,1.571-.176A11.729,11.729,0,0,0,92.074,91a9.162,9.162,0,0,0,2.756-1.523,8.832,8.832,0,0,0,3-5.208,6.133,6.133,0,0,0,.107-1.543,2.487,2.487,0,0,0-.078-.446,1.47,1.47,0,0,0-.055-.147l-.032-.076a.838.838,0,0,0-.17-.2,1.02,1.02,0,0,0-.2-.125l-.046-.018,0,0c-.1-.015.207.028-.216-.031l-.012,0h-.075l-.786-.013-3.144-.042Z" style="fill: #c98965"/>
      <path d="M116.015,75.712,115.2,91.385s-4.183,38.281-29.954,38.281S56.155,91.385,56.155,91.385l-.9-18.637,1.969,3.872V91.939l5.8,5.961,4.536-4.02,35.034.255,4.938,4.021s6.288-5.243,6.288-5.622V78.092Z" style="fill: #e69b71"/>
      <path d="M72.5,97.354s3.7,5.544,13.089,5.544,13.323-5.4,13.323-5.4Z" style="fill: #3d2416"/>
      <path d="M72.5,97.493H98.676s-4.559,4.107-13.09,4.107S72.5,97.493,72.5,97.493Z" style="fill: #fff"/>
      <path d="M73.033,96.519l-4.659,10.657S70.8,97.169,73.033,96.519Z" style="fill: #b2785b"/>
      <path d="M98.327,96.519l4.029,11.109S100.83,97.248,98.327,96.519Z" style="fill: #b2785b"/>
      <path d="M90.041,61.493l.889-5.119S102.322,57.8,105.037,59.3s2.385,1.58,2.385,1.58l.023,3.161a24.193,24.193,0,0,0-3.748-1.617C102.151,61.987,90.041,61.493,90.041,61.493Z" style="fill: #3d2416"/>
      <g>
        <path d="M105.031,70.944s.871,4.635-8.1,3.064c-7.774-1.364-4.882-6.914-4.882-6.914a8.591,8.591,0,0,1,6.626-.38A13.473,13.473,0,0,1,105.031,70.944Z" style="fill: #fff"/>
        <ellipse cx="97.534" cy="70.569" rx="3.559" ry="4.679" transform="translate(2.14 144.005) rotate(-73.477)" style="fill: url(#d)"/>
        <path d="M104.858,71.518a.964.964,0,0,1-.4-.23c-5.875-5.8-11.93-3.648-11.994-3.624a.978.978,0,0,1-1.07-.325.509.509,0,0,1,.25-.816c.071-.024,7.23-2.573,13.966,4.078a.517.517,0,0,1-.054.859A.885.885,0,0,1,104.858,71.518Z" style="fill: #3d2416"/>
        <path d="M92.47,73.621s9.235-1.28,14,1.424C104.223,77.81,92.47,73.621,92.47,73.621Z" style="fill: #ffae80"/>
      </g>
      <g>
        <path d="M65.387,70.881s-1.288,4.663,7.732,3.425C80.94,73.23,78.5,67.514,78.5,67.514s-2.4-1.227-6.491-.177A15.84,15.84,0,0,0,65.387,70.881Z" style="fill: #fff"/>
        <ellipse cx="72.892" cy="70.784" rx="4.68" ry="3.559" transform="translate(-15.316 20.356) rotate(-14.403)" style="fill: url(#e)"/>
        <path d="M65.536,71.462a.876.876,0,0,1-.724-.107.526.526,0,0,1,.043-.866c7.324-6.07,14-3.562,14.063-3.534a.507.507,0,0,1,.241.817.977.977,0,0,1-1.078.3c-.25-.1-5.762-2.11-12.164,3.2A.964.964,0,0,1,65.536,71.462Z" style="fill: #3d2416"/>
        <path d="M79.825,72.678S70.76,73.137,65.3,75.2C70.765,76.119,79.825,72.678,79.825,72.678Z" style="fill: #ffae80"/>
      </g>
      <polygon points="84.713 158.772 79.028 164.642 91.386 164.642 84.713 158.772" style="fill: url(#f)"/>
      <g>
        <path d="M69.9,26.809c-1.94.555-3.786,1.171-5.47,1.835C53.879,38.753,51.185,49.107,51.185,49.107l4.076,25.17,1.967,3.343.357-5.565,4.66-20.728.113-.037C66.7,42.016,71.076,31.919,69.9,26.809Z" style="fill: #3d2416"/>
        <path d="M102.2,27.392c-9.379-4.2-21.169-3.5-30.759-1.013,1.176,4.786-1.728,12.756-7.045,24.245l.4-.131,4.645-5.436-2.256,5.978,2.877-.237,1.533-.761C85.864,42.963,100.585,35.66,102.2,27.392Z" style="fill: #3d2416"/>
        <path d="M116.229,36.207c-1,4.552-4.883,8.784-8.9,12.469L113.867,78.5l2.789-4,2.236-31.486A16.217,16.217,0,0,0,116.229,36.207Z" style="fill: #3d2416"/>
        <path d="M114.9,34.492a17.452,17.452,0,0,0-9.675-5.543c-.511-.31-1.044-.577-1.574-.852-1.976,8.422-15.079,15.258-29.359,22.353l6.069-.5,21.621-7.414-3.43,3.612,7.656-2.593.731,3.338C110.771,43.292,114.608,38.9,114.9,34.492Z" style="fill: #3d2416"/>
        <path d="M116.229,36.207a16.917,16.917,0,0,0-1.328-1.715c-.292,4.405-4.129,8.8-7.96,12.4l.39,1.781C111.346,44.991,115.224,40.759,116.229,36.207Z" style="fill: #2e170d"/>
        <path d="M103.652,28.1c-.478-.248-.961-.485-1.453-.705-1.614,8.268-16.335,15.571-30.6,22.646l-1.533.761,4.231-.348C88.572,43.356,101.676,36.52,103.652,28.1Z" style="fill: #2e170d"/>
        <path d="M71.44,26.379c-.525.136-1.032.284-1.542.43,1.178,5.11-3.2,15.207-7.541,24.481l2.039-.666C69.712,39.136,72.616,31.165,71.44,26.379Z" style="fill: #2e170d"/>
      </g>
    </g>
  </g>
</svg>
