<svg xmlns="http://www.w3.org/2000/svg" viewBox="0 0 71.575 31.568">
  <defs>
    <style>
      .a {
        fill: #ced7da;
      }

      .b {
        fill: #90876f;
      }

      .c {
        fill: #95b2c0;
      }

      .d {
        fill: #d6ebf2;
      }

      .e {
        fill: #fdfdff;
      }

      .f {
        fill: #a2bac6;
      }

      .g {
        fill: #94a9b4;
      }

      .h {
        fill: #7c94a0;
      }

      .i {
        fill: #3f4c52;
      }
    </style>
  </defs>
  <title>dead-fish</title>
  <g>
    <path class="a" d="M0,18.423S.271,11.562,9.035,5.514,29.045-.108,31.764.1A48.63,48.63,0,0,1,46.812,3.407a31.423,31.423,0,0,1,11.619,9.445l1.289.406,5.641-2.581s4.961-.884,4.891.068-5.238,5.325-5.238,5.325-1.605,1.5,2.25,4.459c3.6,2.757,4.146,5.5,4.146,5.5s.379,1.655-3.875,1.046c-2.5-.359-6.65-2.8-8.9-5.463-2.209-2.615-2.445-1.7-2.988-1.562a68.511,68.511,0,0,1-7.406,3.058c-3.125.883-13.521,2.921-20.451,2.921A52.83,52.83,0,0,1,16.1,25.082a42.141,42.141,0,0,0-7.676-.544c-1.09.137-3.875-.611-3.941-1.7l-.068-1.087S.406,21.21,0,18.423Z"/>
    <path class="b" d="M67.344,26.987c-1.2-.576-2.59-1.094-3.957-1.623A13.432,13.432,0,0,0,67.344,26.987Z"/>
    <path class="c" d="M23.221,22.728c.314-5.67-2.127-8.288-2.106-7.882.34,5.911-.746,7.813-2.582,7.813-4.537,0-2.986-5.844-11.342-3.521-3.307.918-6.459-2.729-4.756-7.014A13.807,13.807,0,0,0,.053,18.378c.406,2.787,4.418,3.33,4.418,3.33L4.537,22.8c.068,1.086,2.855,1.834,3.941,1.7a41.915,41.915,0,0,1,7.676.542,52.844,52.844,0,0,0,11.687.951c6.93,0,17.326-2.038,20.451-2.921A68.05,68.05,0,0,0,55.7,20.009c.34-.084.7-1.153,5.168,3.631.066-.56-4.2-4.234-2.84-5.406.8-.689,2.99-1.129,3.08-1.775.2-1.442-6.406-7.613-6.291-7.49,7.24,7.8-13.219,12.816-29.937,14.366C24.389,23.38,23.176,23.546,23.221,22.728Z"/>
    <path class="d" d="M12.621,4.45c-3.943,2.02-2.514,3.941,6.115,2.311,7.342-1.388,16.293,5.682,18.822,4.687,7.949-3.126,15.355,3.873,17.326,1.631C51.961,6.557,40.684-1.054,12.621,4.45Z"/>
    <path class="e" d="M55.258,11.546a35.668,35.668,0,0,0-9.049-6.439A34.573,34.573,0,0,0,35,1.466c-5.4-.834-13.4-.488-17.557,1.043a37.632,37.632,0,0,0-4.969,2.215.348.348,0,0,0,.17.64c1.32-.1,2.512-.835,3.834-.868.631-.018,1.24,0,1.836.033,11.8-3.326,23.771.061,33.467,6.982.943.5,1.777.99,2.455,1.4A.862.862,0,0,0,55.258,11.546Z"/>
    <path class="f" d="M22.689,26.249a10.347,10.347,0,0,0,2.383,3.816A4.237,4.237,0,0,0,29.814,31.3c1.3-.4,3.154-1.854,2.648-2.6a5.849,5.849,0,0,0-2.781-1.544c-.684-.177-4.367-1.059-4.367-1.059S22.6,25.786,22.689,26.249Z"/>
    <path class="g" d="M25.4,15.134s1.353.384.8.839c-.316.262-.357.334-.314.474a1.127,1.127,0,0,0,.324.42,27.767,27.767,0,0,0,3.057,2.727c.588.256,1.4.638,2.727-1.529s.994-2.318,1.732-3.057a7.744,7.744,0,0,0,1.3-2.063s.254-.765-1.656-.255C29.885,13.618,26.008,13.911,25.4,15.134Z"/>
    <path class="f" d="M45.3,24.154s1.732.917,3.363,1.972,2.65,1.663,3.975.678,1.9-1.732.273-2.582-5.1-.95-5.1-.95S44.793,23.339,45.3,24.154Z"/>
    <path class="g" d="M57.652,18.446l-.918,1.428s1.02,1.02,3.211,3.057A13.771,13.771,0,0,0,68.15,26.8c3.209.255,3.769-.1,3.26-1.121s-2.547-4.484-4.279-5.554S63.869,17.58,65.193,15.9a56.013,56.013,0,0,1,5.2-4.994s-.611-1.07-2.547-.815-7.234,2.8-7.234,2.8l-1.633.408s.025.353.816,1.326C61.576,16.816,58.723,16.918,57.652,18.446Z"/>
    <path class="h" d="M10.338,10.829a2.621,2.621,0,0,1-1.912,3.082c-1.438.491-3.115.316-3.52-.867s.5-2.387,1.941-2.879S9.932,9.643,10.338,10.829Z"/>
    <path class="i" d="M9.014,11.113c.037.364-.5.725-1.178.791s-1.377-.071-1.412-.434.494-.663,1.168-.73S8.98,10.749,9.014,11.113Z"/>
    <path class="h" d="M36.842,18.55l-.014-.006a.941.941,0,0,0-.912,0,.9.9,0,0,0,0,1.563.946.946,0,0,0,.912,0l.014-.006A.9.9,0,0,0,36.842,18.55Z"/>
    <path class="h" d="M40.267,17.793l0-.007a.632.632,0,0,0-.7-.282.618.618,0,0,0,0,1.192.634.634,0,0,0,.7-.286l0-.007A.58.58,0,0,0,40.267,17.793Z"/>
    <path class="h" d="M43.941,16.854a.643.643,0,0,0,.006,1.285A.643.643,0,0,0,43.941,16.854Z"/>
    <circle class="h" cx="44.964" cy="14.235" r="0.573" transform="translate(-0.073 0.232) rotate(-0.295)"/>
    <path class="h" d="M51.551,14.337l-.018-.045a.618.618,0,0,0-1.182,0l-.018.047a.631.631,0,1,0,1.217,0Z"/>
    <path class="h" d="M48.019,12.383c-.387,0-.746.493-.482.845l.047.06a.517.517,0,0,0,.877,0c.016-.02.031-.039.045-.059C48.773,12.874,48.406,12.382,48.019,12.383Z"/>
    <path class="h" d="M47.611,15.327a.606.606,0,0,0,0,1.211A.606.606,0,0,0,47.611,15.327Z"/>
    <path class="h" d="M36.607,15.165a.021.021,0,1,0,0,.041A.021.021,0,0,0,36.607,15.165Z"/>
    <path class="h" d="M36.6,15.46v.014a.6.6,0,0,0-.607-.572.633.633,0,0,0-.6.791.756.756,0,0,0,.33.447C36.146,16.458,36.762,15.929,36.6,15.46Z"/>
    <path class="h" d="M32.867,19.445a.7.7,0,0,0,.006,1.4A.7.7,0,0,0,32.867,19.445Z"/>
    <path class="h" d="M25.2,18.622a.664.664,0,0,0-.357-.209.8.8,0,0,0-.57.076.738.738,0,0,0-.145,1.16.778.778,0,0,0,.717.189.659.659,0,0,0,.357-.211A.731.731,0,0,0,25.2,18.622Z"/>
    <path class="h" d="M27.16,20.695a.471.471,0,0,0,0,.941A.471.471,0,0,0,27.16,20.695Z"/>
    <circle class="h" cx="41.838" cy="12.331" r="0.757" transform="translate(-0.032 0.108) rotate(-0.147)"/>
    <circle class="h" cx="26.007" cy="12.281" r="0.739" transform="translate(-0.032 0.069) rotate(-0.152)"/>
    <path class="h" d="M16.152,15.782l.053.074a.688.688,0,1,0-.939.943.545.545,0,0,0,.076.037.693.693,0,0,0,.812-.107A.676.676,0,0,0,16.152,15.782Z"/>
    <path class="h" d="M18.8,20.017a.4.4,0,0,0,0,.8A.4.4,0,0,0,18.8,20.017Z"/>
    <circle class="h" cx="18.738" cy="17.428" r="0.821" transform="translate(-0.041 0.045) rotate(-0.136)"/>
    <circle class="h" cx="9.497" cy="16.477" r="0.637" transform="translate(-0.076 0.044) rotate(-0.265)"/>
    <g>
      <path class="h" d="M17.385,13.438a.342.342,0,0,1-.045.028.515.515,0,0,1-.041.038C17.328,13.482,17.357,13.46,17.385,13.438Z"/>
      <path class="h" d="M17.6,12.769a.651.651,0,0,0-1.254,0,.671.671,0,0,0,.3.733.394.394,0,0,0,.037.024.569.569,0,0,0,.658-.064A.654.654,0,0,0,17.6,12.769Z"/>
    </g>
    <circle class="h" cx="5.488" cy="17.224" r="0.79" transform="translate(-0.042 0.014) rotate(-0.141)"/>
    <path class="a" d="M34.894,8.39a.28.28,0,0,0,0,.56A.28.28,0,0,0,34.894,8.39Z"/>
    <circle class="a" cx="38.59" cy="8.084" r="1.053" transform="matrix(1, -0.003, 0.003, 1, -0.022, 0.106)"/>
    <path class="a" d="M33.668,5.987l-.043-.01a.643.643,0,1,0,0,1.24c.016,0,.029-.006.043-.009A.637.637,0,0,0,33.668,5.987Z"/>
    <path class="d" d="M43.633,5.389a.58.58,0,0,0,0,1.159A.58.58,0,0,0,43.633,5.389Z"/>
    <path class="d" d="M47.391,7.642c-.014,0-.027-.01-.043-.014a.427.427,0,1,0,0,.823l.039-.014A.416.416,0,0,0,47.391,7.642Z"/>
    <path class="d" d="M50.836,9.439a.944.944,0,0,0,.006,1.887A.944.944,0,0,0,50.836,9.439Z"/>
    <path class="d" d="M25.57,3.443a.706.706,0,0,0-.686-.519.83.83,0,0,0-.777.6.73.73,0,0,0,.51.893.74.74,0,0,0,.561-.074.657.657,0,0,0,.24-.246A.719.719,0,0,0,25.57,3.443Z"/>
    <path class="d" d="M30.172,2.616c-.021.01-.045.019-.066.027a.761.761,0,0,0-.541.715.766.766,0,0,0,.543.712l.068.026a.768.768,0,1,0,0-1.48Z"/>
    <path class="d" d="M36.623,3.706a.763.763,0,0,0-1.394-.179.782.782,0,0,0,.121.923c.01.015.023.027.035.042a.71.71,0,0,0,1.008,0l.035-.042A.8.8,0,0,0,36.623,3.706Z"/>
    <path class="a" d="M29.041,5.976a.624.624,0,0,0,0,1.248A.624.624,0,0,0,29.041,5.976Z"/>
    <path class="d" d="M19.85,2.745a.7.7,0,0,0-.855.111.209.209,0,0,0-.021.028.669.669,0,0,0-.18.618.554.554,0,0,0,.092.211.735.735,0,0,0,.611.35.707.707,0,0,0,.353-1.318Z"/>
    <path class="h" d="M68.24,25.687c-3.148-2.359-6.564-4.315-9.672-6.732-.191-.15-.525.044-.363.281a14.584,14.584,0,0,0,4.162,3.45c1.836,1.208,3.6,2.688,5.707,3.4C68.328,26.167,68.422,25.822,68.24,25.687Z"/>
    <path class="h" d="M69.107,22.682c-2.75-1.823-6.047-2.729-9.049-4.043-.279-.122-.525.267-.244.419a36.365,36.365,0,0,0,9.18,3.9A.15.15,0,0,0,69.107,22.682Z"/>
    <path class="h" d="M69.435,11.111a12.523,12.523,0,0,0-4.449,1.922,13.227,13.227,0,0,0-3.627,3c-.17.229.174.423.359.277a50.349,50.349,0,0,1,7.855-4.872C69.766,11.337,69.623,11.076,69.435,11.111Z"/>
    <path class="h" d="M63.555,18.021a3.588,3.588,0,0,0-2.268-.988.2.2,0,0,0-.051.382c.781.216,1.377.786,2.213.862A.151.151,0,0,0,63.555,18.021Z"/>
  </g>
</svg>
