<svg id="Layer_1" data-name="Layer 1" xmlns="http://www.w3.org/2000/svg" viewBox="0 0 136.08 41.64"><defs><style>.cls-1{fill:#f4f7f9;}.cls-2{fill:#eaf0f3;}.cls-3{fill:#eef3f6;}</style></defs><title>fog-cloud-n</title><path class="cls-1" d="M8.5,27.56c.9,0,1.88-.11,2.82-.23a3,3,0,0,1,1.82-2.08,4,4,0,0,1,4.68,2.93.81.81,0,0,1,.14-.13q.22-.28.46-.54a1.73,1.73,0,0,1-.61-1.23,1.49,1.49,0,0,1,.23-.89,4.31,4.31,0,0,0-6.94-.2c-1.25,0-1.26.92-.87,1.3a1.63,1.63,0,0,0-1.64.1c-.37.26-.4.51-.6.9A1.75,1.75,0,0,0,8.5,27.56Z"/><path class="cls-2" d="M57.24,17.46c-.21.13-.4.27-.58.4a1.61,1.61,0,0,0,.21.39A6.7,6.7,0,0,1,57.24,17.46Z"/><path class="cls-2" d="M2.38,28.73c-.51-.08-2.27.06-2.37.59S1.5,31,2.17,31.06c.28,0,.49.15.71,0a1.15,1.15,0,0,0,1,.79h.78l.29-.07q-.12,0,0,0a1,1,0,0,0,.31-.06l.29-.09a.65.65,0,0,0,.24-.12,1.29,1.29,0,0,0,.6.21l.73.05a2.11,2.11,0,0,0,.39,0l.73,0a1.82,1.82,0,0,0,1.34-.45,2.84,2.84,0,0,0,.51.32,2.24,2.24,0,0,0,1,.21,1.55,1.55,0,0,0,.52-.09q.52-.29.23-.12t0,0a1.17,1.17,0,0,0,.45-.3,7.87,7.87,0,0,0,9.31.78l0,0a6.67,6.67,0,0,0,3.89,1.45,10.64,10.64,0,0,0,3.7-.62,4.17,4.17,0,0,1,1.68-.23,3.17,3.17,0,0,0,.72,2.52,9.09,9.09,0,0,0,7.75,3.26,9.81,9.81,0,0,0,4-1.16,15.46,15.46,0,0,0,3.12,2.26,15.1,15.1,0,0,0,7.42,1.92c3.13,0,4.68-1.25,7-3.05a7.6,7.6,0,0,1,1.32-.87c.23.37.43.68.47.73,2.92,4,8.63,3.51,12.76,2a8.5,8.5,0,0,0,5.06-4.74,4.13,4.13,0,0,0,1.22.43l.37.08a4.89,4.89,0,0,0,2.27.72,5,5,0,0,0,3.44-1.22l.13-.12c.1.12.19.24.31.36a6.66,6.66,0,0,0,4.13,2,6.22,6.22,0,0,0,4.32-1.53,6,6,0,0,0,1.67-2.56l.23-1.22a9.68,9.68,0,0,0,1.39-.6h.08a3.13,3.13,0,0,0,.46.69,3.21,3.21,0,0,0,2.15,1,3.09,3.09,0,0,0,3-2.07,4.06,4.06,0,0,0,1.42,1.62,5,5,0,0,0,6.36-1.06,3.75,3.75,0,0,0,.33-.52l2.75.13a3.91,3.91,0,0,0,2.25-.55,1.49,1.49,0,0,0,.39.24,2.45,2.45,0,0,0,1.32.18,8.46,8.46,0,0,0,3.44-.51l.11.06a.66.66,0,0,0,.86.8l.55-.21a2.24,2.24,0,0,0,2.64-.58,2.2,2.2,0,0,0,1.24.4,2,2,0,0,0,1.75-.63,1.63,1.63,0,0,0,2.27-1.62,1.43,1.43,0,0,0,0-.16c.34.07.69.16,1,.24s-.2,0,.12,0c1.46.19,2.61-2.1-.12-2.4-.61-.07-.1,0-.78-.19a11.19,11.19,0,0,0-2.43.81,5.92,5.92,0,0,0-5.1,1.63,3.37,3.37,0,0,0-1.78-.65l-.32,0a3.68,3.68,0,0,0-2.55.85,3,3,0,0,1-.38-.25c-.36-.49-.76,0-.46.67a3.93,3.93,0,0,0-1-.62,3.58,3.58,0,0,0-1.77-.64,3.78,3.78,0,0,0-1.71.31,3.28,3.28,0,0,0-1.51-.47l-.32,0a3.72,3.72,0,0,0-2.16.58,2.64,2.64,0,0,0-.2-.26,3.63,3.63,0,0,0-2.43-1.21,3.86,3.86,0,0,0-2.85.89,4.06,4.06,0,0,0-.83,1.12,2.77,2.77,0,0,0-1-1.09,6.76,6.76,0,0,0-1.28-.62,3.82,3.82,0,0,0-3.34.43,3.71,3.71,0,0,0-.71.63,3.06,3.06,0,0,0-.48-.37,6.75,6.75,0,0,1-.19.85,6.94,6.94,0,0,0-2.92-2.1,6.46,6.46,0,0,0-3.33-.28A5.05,5.05,0,0,0,91.08,27a8.11,8.11,0,0,0,.26-1.1,8,8,0,0,0-3.13-7.4c-4-3.38-10.94-4.3-15.42-1.29A8.63,8.63,0,0,0,69,23.57a3,3,0,0,0-1.15-.29,3.58,3.58,0,0,0-2.57.86,3.91,3.91,0,0,0-1.06,1.65,9.77,9.77,0,0,0-6.57.44,4.5,4.5,0,0,0-2.79,3.42,5.32,5.32,0,0,0-2.11-2.07,4.49,4.49,0,0,0-2.14-.71,4,4,0,0,0-2.86,1,4.92,4.92,0,0,0-1.62,4.77,4.69,4.69,0,0,1-1.25-.07,6,6,0,0,0-9-1.28,5.75,5.75,0,0,0-1.51,2.25,4.88,4.88,0,0,1-.66-.84A8.66,8.66,0,0,1,32.39,29l0,0a2.79,2.79,0,0,1-.57,1.08,6,6,0,0,0-5.4-1.68,8.24,8.24,0,0,0-4,1.86l-.05,0c-1.33-.52-1.69.19-2.59.78a6.24,6.24,0,0,0-7.18-.54v0a6.51,6.51,0,0,0-1.89,0,7.79,7.79,0,0,0-2.82-1.83s0,0,0,0,0,0,0,0,0-.41-.07-.42c-.24,0-.78-.37-.85.43A1.79,1.79,0,0,0,5,29.79l-.19-.1-.33-.12a1.49,1.49,0,0,0-1,0,1.22,1.22,0,0,0-1-.84H2.38C2.24,28.8,2.4,28.78,2.38,28.73Z"/><path class="cls-2" d="M129.65,26.41c-.07-.17,0-.32.22-.45a1,1,0,0,0-.6-.33l-.24,0A2.2,2.2,0,0,1,129.65,26.41Z"/><path class="cls-1" d="M113.55,22.31A3.67,3.67,0,0,0,110.4,20a4,4,0,0,0-4.46-3.35A8.66,8.66,0,0,0,101.12,14l-.43,0c-2.39-1.43-5.94-1.1-7.36,1.34a8.69,8.69,0,0,0-4.83-6,9.75,9.75,0,0,0-7-5C78,3.65,73.9,4,71.06,6.15q-.46,0-.91.09c-.49-.32-1-.62-1.5-.9A8.09,8.09,0,0,0,59.73.1c-5.23.79-8,5-8.26,9.55a7.91,7.91,0,0,0-1.83,1.69,8.46,8.46,0,0,0-.75,1.15,13.85,13.85,0,0,0-2.48,1.19,10.18,10.18,0,0,0-4.24,4.77,9.28,9.28,0,0,0-4.56-2.73c-4.32-1-9.65,2.5-9.78,7.13a6,6,0,0,0,.06,1,4.3,4.3,0,0,0-.55,1.8l-.12,0a4,4,0,0,0-1.33-.13,3.53,3.53,0,0,0-1.76-.84,3.68,3.68,0,0,1,.83.89,1.59,1.59,0,0,1,.11,1.55,12.64,12.64,0,0,1,2.57-1,3.33,3.33,0,0,1,.25-1.51,5.93,5.93,0,0,1,2.81-2.84,3.58,3.58,0,0,1,2.8-1l.49-.08a8.77,8.77,0,0,1,7,2.29,7.44,7.44,0,0,1,.86-.22,7.66,7.66,0,0,1,1.94-3.2,5.76,5.76,0,0,1,3.46-1.48,7.34,7.34,0,0,1,1-.64,6.78,6.78,0,0,1,4-.67c.31-6.14,5.45-8.95,11.6-8.55a6,6,0,0,1,4.47,2.27,8.5,8.5,0,0,1,6.73-.72c1.69-2.32,5.25-2.1,7.51-.2a6.62,6.62,0,0,1,2,3.35c3.07,0,6.19,2.17,8,4.47a8.49,8.49,0,0,1,.77,1.19,2.31,2.31,0,0,1,1.44-.61,2.28,2.28,0,0,1,1,.17,1.29,1.29,0,0,1,.39-.65c1.38-1.2,2.74-.91,4.42-.64a7.78,7.78,0,0,1,3.69,1.45,6.61,6.61,0,0,1,2.16,3.18c.28.18.55.36.81.55a2.85,2.85,0,0,1,1.93-.47A3,3,0,0,1,112,24.17a3.46,3.46,0,0,1,1.75-.74A3.56,3.56,0,0,0,113.55,22.31Z"/><path class="cls-1" d="M115.25,23.54a3.06,3.06,0,0,1,2.11,2.07,1.85,1.85,0,0,1,.38.35,2.08,2.08,0,0,1,3.14-.5,2,2,0,0,1,.66,1.35,1.5,1.5,0,0,1,.64,0l.21-.18.22-.15a1.64,1.64,0,0,1,.75-.29,1.28,1.28,0,0,0-1-.68,2.2,2.2,0,0,0-.82.11,2.06,2.06,0,0,0-.11-.27A2.89,2.89,0,0,0,119.92,24a2.31,2.31,0,0,0-2.31.19,2.21,2.21,0,0,0-.32.31,2.08,2.08,0,0,0-.86-1.36,1.83,1.83,0,0,0-2.08,0,1.56,1.56,0,0,0-.35.35A3.47,3.47,0,0,1,115.25,23.54Z"/><path class="cls-3" d="M18.42,26.12a4.26,4.26,0,0,1,2-.06,4.32,4.32,0,0,1,3.76-1.32,4.8,4.8,0,0,0-4.41-.45A3.09,3.09,0,0,0,18,25.39c0,.06.08.12.12.19S18.34,25.94,18.42,26.12Z"/><path class="cls-3" d="M124.66,27.91l.25-.06a1.36,1.36,0,0,1,1.31-.71.88.88,0,0,1,.21-.43,3,3,0,0,1,2.6-1.1c-.94-.78-2.47-.88-3,.51a1.53,1.53,0,0,1-.23.64,2.25,2.25,0,0,0-.45-.19,2.91,2.91,0,0,0-.66-.06,1.87,1.87,0,0,0-1.29-.35,1.53,1.53,0,0,1,.2.54A1.44,1.44,0,0,1,124.66,27.91Z"/><path class="cls-3" d="M114,23.41l-.21,0c0,.1,0,.2,0,.3A1.85,1.85,0,0,1,114,23.41Z"/><path class="cls-3" d="M131.63,27.33c-.21-.27-.78-.16-1.29.09a.5.5,0,0,0-.22-.61c.07-.3.26-1-.23-.91-.17-.29-.53-.75-.87-.28a3,3,0,0,0-2.6,1.1.88.88,0,0,0-.21.43,1.36,1.36,0,0,0-1.31.71l-.25.06a1.44,1.44,0,0,0-1.11-1.21,1.53,1.53,0,0,0-.2-.54,1.64,1.64,0,0,0-.75.29l-.22.15-.21.18a1.5,1.5,0,0,0-.64,0,2,2,0,0,0-.66-1.35,2.08,2.08,0,0,0-3.14.5,1.85,1.85,0,0,0-.38-.35,3.06,3.06,0,0,0-2.11-2.07,3.47,3.47,0,0,0-1.25-.13,1.85,1.85,0,0,0-.2.32c0-.1,0-.2,0-.3a3.46,3.46,0,0,0-1.75.74,3,3,0,0,0-2.87-2.54,2.85,2.85,0,0,0-1.93.47c-.26-.19-.53-.38-.81-.55a6.61,6.61,0,0,0-2.16-3.18,7.78,7.78,0,0,0-3.69-1.45c-1.68-.27-3-.56-4.42.64a1.29,1.29,0,0,0-.39.65,2.28,2.28,0,0,0-1-.17,2.31,2.31,0,0,0-1.44.61,8.49,8.49,0,0,0-.77-1.19c-1.8-2.3-4.91-4.45-8-4.47a6.62,6.62,0,0,0-2-3.35c-2.26-1.9-5.82-2.12-7.51.2a8.5,8.5,0,0,0-6.73.72,6,6,0,0,0-4.47-2.27c-6.15-.4-11.28,2.41-11.6,8.55a6.78,6.78,0,0,0-4,.67,7.34,7.34,0,0,0-1,.64,5.76,5.76,0,0,0-3.46,1.48,7.66,7.66,0,0,0-1.94,3.2,7.44,7.44,0,0,0-.86.22,8.77,8.77,0,0,0-7-2.29l-.49.08a3.58,3.58,0,0,0-2.8,1,5.93,5.93,0,0,0-2.81,2.84,3.33,3.33,0,0,0-.25,1.51,12.32,12.32,0,0,0-2,.74.48.48,0,0,0-.28-.19.2.2,0,0,0-.12,0A1.5,1.5,0,0,0,25,25.63a3.68,3.68,0,0,0-.83-.89,4.32,4.32,0,0,0-3.76,1.32,4.26,4.26,0,0,0-2,.06c-.08-.18-.16-.36-.26-.54s-.08-.12-.12-.19a1.49,1.49,0,0,0-.23.89,1.73,1.73,0,0,0,.61,1.23q-.24.27-.46.54a.81.81,0,0,0-.14.13,4,4,0,0,0-4.68-2.93A3.09,3.09,0,0,0,11,27.05a2.89,2.89,0,0,0-3,.42l0,0a1.29,1.29,0,0,0-.81,1c.17-.17,1.19.71,1,1.34,1.19-.38,1.64.21,2.44,1a6.51,6.51,0,0,1,1.89,0v0a6.24,6.24,0,0,1,7.18.54c.9-.59,1.26-1.3,2.59-.78l.05,0a8.24,8.24,0,0,1,4-1.86A6.11,6.11,0,0,1,31.23,30s0,0,0,.05c0,.37.07.74.09,1.1a.32.32,0,0,0,.48.25c.23-.17.53-.05.78.07l.11.39a6.82,6.82,0,0,0,1.71,3c.26.26.6-.11.45-.39a2,2,0,0,1-.2-1.25,5.74,5.74,0,0,1,1.22-1.6,6,6,0,0,1,9,1.28,6.87,6.87,0,0,0,1.5.19,5,5,0,0,1,1.37-4.89,4,4,0,0,1,2.86-1,4.49,4.49,0,0,1,2.14.71,6.69,6.69,0,0,1,2.2,2.48,5,5,0,0,1,2.7-3.83,9.77,9.77,0,0,1,6.57-.44,3.91,3.91,0,0,1,1.06-1.65,3.58,3.58,0,0,1,2.57-.86A3,3,0,0,1,69,24a8.63,8.63,0,0,1,3.76-6.39c4.48-3,11.38-2.09,15.42,1.29a8,8,0,0,1,3.13,7.4,8.09,8.09,0,0,1-.26,1.1h.37a.2.2,0,0,0,.19.12c.31,0,.62,0,.93,0h0a9.81,9.81,0,0,1,6.37,2.86.33.33,0,0,0,.54-.26c0-.57.77-1.22,1.32-1.66a3.91,3.91,0,0,1,2.73-.1,6.76,6.76,0,0,1,1.28.62,2.77,2.77,0,0,1,1,1.09,4.06,4.06,0,0,1,.83-1.12,3.86,3.86,0,0,1,2.85-.89,3.63,3.63,0,0,1,2.43,1.21,2.62,2.62,0,0,1,.2.26A3.72,3.72,0,0,1,114.3,29l.32,0a3.29,3.29,0,0,1,1.51.47,3.78,3.78,0,0,1,1.71-.31,3.58,3.58,0,0,1,1.77.64,3.94,3.94,0,0,1,1,.62c-.12-.44.26-.86.46-.67,0,.15.15.36.47.25a4.34,4.34,0,0,1,2.46-.85l.32,0a3.37,3.37,0,0,1,1.78.65,5.92,5.92,0,0,1,5.1-1.63,17.34,17.34,0,0,1,3.1-.64A2.7,2.7,0,0,0,131.63,27.33ZM56.87,18.25a1.61,1.61,0,0,1-.21-.39c.18-.13.37-.27.58-.4A6.7,6.7,0,0,0,56.87,18.25Z"/><path class="cls-1" d="M130.79,26.77a.49.49,0,0,0,0-.11,3.15,3.15,0,0,0-5.41-.25,2.78,2.78,0,0,0-3.38-.28,3.3,3.3,0,0,0-1.81-1.69c-.91-.33-2,.28-2.73-.05-.36-.17-.74-.85-1.12-1.1a3.78,3.78,0,0,0-1.34-.54,3.05,3.05,0,0,0-2.83.77c-.21.21,0,.49.29.44,1.15-.26,2.15-.57,3.26.15A6.92,6.92,0,0,1,117,25.62a.5.5,0,0,0,.49.1c1.44-.45,2.81-.71,3.56,1a.56.56,0,0,0,1,0,2.78,2.78,0,0,1,3,.73.45.45,0,0,0,.7-.13,2.27,2.27,0,0,1,4.09-.11.43.43,0,0,0,.42.22.26.26,0,0,0,.24.14l.5-.07a.32.32,0,0,0,.09.08,5.68,5.68,0,0,0,1.78.25A2.76,2.76,0,0,1,134.85,29a.51.51,0,0,0,.92-.17C136.35,26.4,132.53,25.8,130.79,26.77Z"/><path class="cls-1" d="M10.51,26.07C8.93,26,7,26.27,6.74,28a2.55,2.55,0,0,0-2.26,1,1.35,1.35,0,0,0-1.15,0c-1-.66-3.19-1.09-3.25.56,0,.23.31.26.41.09.48-.84,2-.15,2.47.27a.49.49,0,0,0,.58,0l.82.13a.49.49,0,0,0,.8-.26c.25-.88,1.32-.86,2.05-.83a.51.51,0,0,0,.48-.53c0-1.44,1.77-1.37,2.72-1.26A.56.56,0,1,0,10.51,26.07Z"/><path class="cls-1" d="M26,25.41c-1.54-2.93-7.3-2.87-8.87,0-.16.29.19.51.43.39,1.27-.65,2.27-1.43,3.78-1.47,1.71,0,2.73.92,4.14,1.65C25.84,26.19,26.16,25.74,26,25.41Z"/><path class="cls-1" d="M39.85,20.84A11.35,11.35,0,0,0,31,20.63c-2,.85-4.36,2.67-4.4,5a.36.36,0,0,0,.67.14A7.47,7.47,0,0,1,32,21.41c2.54-.86,5-.31,7.49.42A.53.53,0,0,0,39.85,20.84Z"/><path class="cls-3" d="M9.57,28.82a.84.84,0,0,0-.37.43.33.33,0,0,0-.17-.1,1.24,1.24,0,0,0,0-.28.22.22,0,0,0-.34-.17,1.26,1.26,0,0,0-.45.71h0a1,1,0,0,0,0-.12.65.65,0,0,0,.06-.34c0-.48-.6-.66-1-.55A2,2,0,0,0,5,29.24a.83.83,0,0,0-.94.64.93.93,0,0,0-.31.22C3,29.56,2.21,29,1.4,29.3a.69.69,0,0,0-.55.08.29.29,0,0,0-.08.4l0,0a.31.31,0,0,0,.3.39,1.83,1.83,0,0,0,.46-.07A1,1,0,0,0,1.91,30,.22.22,0,0,0,2,29.9a5.48,5.48,0,0,1,1.83,1.18l0,0a.46.46,0,0,0,.66.24,1.87,1.87,0,0,0,.24-.15.35.35,0,0,0,.3-.07,1,1,0,0,0,.35-.74l0-.1.12,0a1.33,1.33,0,0,0,.64.42,1.62,1.62,0,0,0,1.58-.43l.11-.13a.79.79,0,0,0,.85.26h0l.16,0a1.28,1.28,0,0,0,.46.25,1.18,1.18,0,0,0,1.54-.93A1,1,0,0,0,9.57,28.82Zm.52,1.12a.51.51,0,0,1-.34.13,1.09,1.09,0,0,0,0-.2c0-.11,0-.3.1-.38S10.26,29.79,10.09,29.95Z"/><path class="cls-3" d="M135,28.28a.33.33,0,0,0-.22-.1l-.17-.07a1,1,0,0,0-1-.4,2.94,2.94,0,0,0-3,0,.39.39,0,0,0-.11.11.68.68,0,0,0-.55,0H130a.4.4,0,0,0-.35.52,4.42,4.42,0,0,0-1.1-.2,3.38,3.38,0,0,0-1.59.56c-.19.12,0,.46.17.37,1.17-.51,2,0,3.11.21a1.19,1.19,0,0,0,.92-.13.41.41,0,0,0,.39-.21,2.19,2.19,0,0,1,.94-.51l.38,0v0A.44.44,0,0,0,133,29l.2.16a.44.44,0,0,0,.42.09l.21-.12,0,.06a.37.37,0,0,0,.39.19.42.42,0,0,0,.46.13.49.49,0,0,0,.6-.31C135.41,28.73,135.35,28.64,135,28.28Z"/></svg>