<svg id="Layer_1" data-name="Layer 1" xmlns="http://www.w3.org/2000/svg" viewBox="0 0 171.01 43.96"><defs><style>.cls-1{fill:#f4f7f9;}.cls-2{fill:#eaf0f3;}.cls-3{fill:#eef3f6;}</style></defs><title>fog-cloud-a</title><path class="cls-1" d="M18.47,31.06a4.43,4.43,0,0,1,.2-1.54c.88-2.83,4.07-3.56,6.66-2.83a7.51,7.51,0,0,1,1.69.72l.19,0a3.55,3.55,0,0,1,.39-.89,6.6,6.6,0,0,1,6.18-3,4.18,4.18,0,0,1,5.28.06,3.47,3.47,0,0,1,1.41-.07A6.15,6.15,0,0,1,42,22.59,4.08,4.08,0,0,1,42.56,18a4,4,0,0,1,2.3-1.3,5.68,5.68,0,0,1,2.33-.34,4.35,4.35,0,0,1,1-2.4,4.89,4.89,0,0,1,.55-.55A5.14,5.14,0,0,1,53.94,10a7.26,7.26,0,0,1,4.71,2.21,6.56,6.56,0,0,1,3.3-.47,2,2,0,0,1-.07-.74c.23-2.68.88-5.28,3.4-6.65a8.56,8.56,0,0,1,1.85-.72,8.3,8.3,0,0,1,4.41-1.22c3.93.09,7,2.8,8.92,6.38a16.15,16.15,0,0,1,1.64,2.74,6.83,6.83,0,0,1,1.41.4,2.14,2.14,0,0,1,.18-.19c2.15-1.87,5.38-.33,7.37,1a8.24,8.24,0,0,1,2.06,2.05A7,7,0,0,1,97.7,13c.22,0,.44,0,.67,0a4,4,0,0,1,1.81.1,4.64,4.64,0,0,1,2.51,2,4.37,4.37,0,0,1,.62,1.13v0l.09.22a4.08,4.08,0,0,1,3.08,1.49,8.44,8.44,0,0,1,3.56-4.05,3.29,3.29,0,0,1,3.93.23,6.81,6.81,0,0,1,3.25,1,10,10,0,0,1,4.67-1.29,6.65,6.65,0,0,1,1.39.13,5,5,0,0,1,6.11,0,6,6,0,0,1,2.09,3.3,8,8,0,0,1,1.46,1.85,3.39,3.39,0,0,1,3-1.63,5.58,5.58,0,0,1,4.74,3.59,6.75,6.75,0,0,1,.52,3.19,5,5,0,0,1-.24,1.31l0,.14.66.21c1.1.19,2-.27,3,.53.67.56.66,1.44,1.17,2a2,2,0,0,1,.17.23,3.73,3.73,0,0,1,3.45,1,4.09,4.09,0,0,1,1.1,2.19l.12.06a4.35,4.35,0,0,1,1.89-.39,2.94,2.94,0,0,1,1.4.45,15.46,15.46,0,0,1,2.33.53,44,44,0,0,0,7.74.27c1,0,1.92,0,2.88-.05a6.26,6.26,0,0,0-1-.51l-.13-.11a2.56,2.56,0,0,0-2.28-.25,7.5,7.5,0,0,0-2.07.33,5.1,5.1,0,0,0-2.1-1.06,3,3,0,0,0-.67-1.16,4.38,4.38,0,0,0-5.67-.78c-.71-2-2.06-2.57-3.35-1.51-.95-2.52-4.47-4.43-7-3.59a7.17,7.17,0,0,0-1.28-4.43,7,7,0,0,0-8.79-2.46c.62-2.14-1-4.7-3.42-5.49a6.48,6.48,0,0,0-.81-.2,5.78,5.78,0,0,0-.63-.18A5,5,0,0,0,122.78,13a3.65,3.65,0,0,0-4-1.14,3.83,3.83,0,0,0-1.8,1.42,6.42,6.42,0,0,0-8.09-2,4.53,4.53,0,0,0-2.53,2.86,8.1,8.1,0,0,0-5.56-3.06A9.39,9.39,0,0,0,94,12.65l-.5-.41a13.23,13.23,0,0,0-9.14-2.8c-2.09-4.25-5.4-8-10.17-9.15A11.15,11.15,0,0,0,62.62,4.56a8.9,8.9,0,0,0-1.35,3,6.53,6.53,0,0,0-.07,1.77c-.42.2-.83.43-1.23.66l-.34.06a6.2,6.2,0,0,0-9.09-.55,6.44,6.44,0,0,0-1.87.69,6.36,6.36,0,0,0-3.18,5,4.61,4.61,0,0,0-2.62-.54,4.09,4.09,0,0,0-3.14,5.61,10.24,10.24,0,0,0-3.52,1.19,6,6,0,0,0-7,1.8h0a6,6,0,0,0-3.51,2.45,4.83,4.83,0,0,0-5.69.37,5.66,5.66,0,0,0-2,3.34c0,.11,0,.19,0,.25a3.19,3.19,0,0,0-.42.11,3.39,3.39,0,0,0-1,.6,4.78,4.78,0,0,1,1.13.73A4.61,4.61,0,0,1,18.47,31.06Z"/><path class="cls-2" d="M160.57,36.63l-4.11-.16a13,13,0,0,1-1.54,0,2.64,2.64,0,0,1-1.42.9,2.45,2.45,0,0,1-1.34,0,2.28,2.28,0,0,1-3.65.67,3.32,3.32,0,0,1-.77-.82,3.27,3.27,0,0,1-1.22-.45,2,2,0,0,1-1.14-1.57c0-.08,0-.15,0-.23a1.83,1.83,0,0,1-1.65-.53,4.8,4.8,0,0,1-1.27,1,1.84,1.84,0,0,1-2.3-.79,3,3,0,0,1-1.84-.8,4.63,4.63,0,0,1-2.57-.15,1.65,1.65,0,0,1-1-2.18,3.56,3.56,0,0,1-3.86-3.31,4.62,4.62,0,0,1-3.86.34,4.08,4.08,0,0,1-2.08-1.82,15.46,15.46,0,0,1-5.82,1.2,5.09,5.09,0,0,1-5.85,2.43,3.41,3.41,0,0,1-.42-.14,4.86,4.86,0,0,1-1.38,1.57,4.74,4.74,0,0,1-3.49.92,5.63,5.63,0,0,1-3.48.66,4,4,0,0,1-3.66-4,5.82,5.82,0,0,1-2.27.42,5.89,5.89,0,0,1-2.15,1,8.94,8.94,0,0,1-2.47,2.73,4.47,4.47,0,0,1-2.93,1c-3,1.61-6.8,1.23-8.75-1.81a8.68,8.68,0,0,1-.58-1.08,6.78,6.78,0,0,1-.82-.49,2.17,2.17,0,0,1-2.05-1.24c0-.08-.06-.15-.09-.23a9.07,9.07,0,0,1-5.09.26,8,8,0,0,1-5.68-4.54,3.35,3.35,0,0,1-3.82-.88c-2.54.17-5.1-.94-5.85-3.67l-.33-.06a5.62,5.62,0,0,1-5.87,1.23,4,4,0,0,1-.52.31c-.63,2.81-3.24,5.42-6.12,3.6h0a3.71,3.71,0,0,0-2.18.43,3.92,3.92,0,0,1-.43,1.9,1.88,1.88,0,0,1-3.24.38,1.84,1.84,0,0,1-2.76-1.46l-1-.3a2,2,0,0,1-2.28.56,1.4,1.4,0,0,0-1.59.33l-.16.14a2.18,2.18,0,0,1-.07,2.71,1.52,1.52,0,0,1-.19,1C30,34,25.92,37.07,23.89,33.85a1.84,1.84,0,0,1-1,.9,2.19,2.19,0,0,1-3.85.86l-.57,0a2.35,2.35,0,0,1-.79.52l-.4.16a2,2,0,0,1-1.59,0,1.92,1.92,0,0,1-.73.43,3.12,3.12,0,0,1-2.64-.27,1.69,1.69,0,0,1-.74.82c-1.51.88-3.59,1.35-4.74-.4a2.88,2.88,0,0,1-.23-.67L5,36a7.12,7.12,0,0,1-1.62.87A2,2,0,0,1,.88,35.79a1.72,1.72,0,0,1,0-.18h0a1.14,1.14,0,0,0-.15.5,1.5,1.5,0,0,0,.78,1.39,1.75,1.75,0,0,0,2.26-.58A1.75,1.75,0,0,0,5,37.69c1.19.19,2.45.39,3.71.51a3.1,3.1,0,0,0,2.27,1.26,2.53,2.53,0,0,0,1.82-.9,2.1,2.1,0,0,0,.27-.4,5.89,5.89,0,0,0,.63-.16,5.79,5.79,0,0,0,4.12,1.55,6,6,0,0,0,3-1.46,8,8,0,0,0,4.8,1.56,3.45,3.45,0,0,0,2.52-.76,5,5,0,0,0,2.11,1.89,2.78,2.78,0,0,0,2.86-.39,6,6,0,0,0,2.7,2c2.39.7,4.82-.63,6.32-2.49l.12.06c.52.23,1.07.45,1.64.67,2.65,3,8.63,3.92,11.95,3a11.81,11.81,0,0,0,3.34-1.54,11.52,11.52,0,0,0,2.79-1.3,7.63,7.63,0,0,0,1.61-1.43,7.84,7.84,0,0,0,3.29.51,4.18,4.18,0,0,0,2.23-.91c3.71,2.53,8.2,5,12.54,4.32a13,13,0,0,0,4.25-1.64,14.23,14.23,0,0,0,9.29,1.55,4.18,4.18,0,0,0,2.7-1.69l.73-.13a11.25,11.25,0,0,0,7.16.54,7.25,7.25,0,0,0,4.91.44,6.29,6.29,0,0,0,3.07-2.16,4.52,4.52,0,0,0,2-.8l.36-.27a1.63,1.63,0,0,0,1,.41,1.87,1.87,0,0,0,.37,0,4,4,0,0,0,2.3-.16,7.2,7.2,0,0,0,3.77,2.3,3.49,3.49,0,0,0,4.32-2l.21-.47a1.72,1.72,0,0,0,.41.1,10.91,10.91,0,0,0,5.31,2.32c2.2.27,5.57-.51,6.84-2.46a3,3,0,0,0,1.08-.55l.41.17a1.63,1.63,0,0,0,1.47,1.35c1.4,0,2.46,1.38,3.82,1.71a5.2,5.2,0,0,0,3.32-.38,4.3,4.3,0,0,0,2.3-2.43,4.09,4.09,0,0,0,1.67-.5,3.75,3.75,0,0,0,1.4-1.43c1.55-.08,3.1-.18,4.65-.31a4.12,4.12,0,0,0,3,1.31,3.72,3.72,0,0,0,3-1.39C164.69,36.74,162.63,36.71,160.57,36.63Z"/><path class="cls-2" d="M84.9,20.56a4.59,4.59,0,0,1-.12.62c0,.11-.07.22-.11.33a3.68,3.68,0,0,0,.6-.83Z"/><path class="cls-1" d="M11.72,31.07a3.43,3.43,0,0,0-.62.79,5.49,5.49,0,0,0-.71.18,9.85,9.85,0,0,1-2.23.42A5.1,5.1,0,0,0,6.87,32a5.57,5.57,0,0,0-2.67.17,2.84,2.84,0,0,0-.35.14c-.62,0-1.23-.09-1.85-.1A2,2,0,0,0,.12,34.86,2.34,2.34,0,0,0,.06,36,1.17,1.17,0,0,0,.92,37a.26.26,0,0,0,.2-.45,1.18,1.18,0,0,1-.55-.8,1.67,1.67,0,0,1,0-.3,1.41,1.41,0,0,0,.25.15,1.33,1.33,0,0,1,.24-.31,1.31,1.31,0,0,1,1.12-.5.9.9,0,0,1,.55.24,1.33,1.33,0,0,1,.33.24,1.64,1.64,0,0,1,.46.07h0a1.67,1.67,0,0,1,1.79-1.17c1.2.08,2.39.24,3.58.4a1.74,1.74,0,0,1,1.56-1.05h.13a2.93,2.93,0,0,1,3.55-1.82c.5.14,1,.24,1.44.34a3.32,3.32,0,0,1,1-1.6A4.32,4.32,0,0,0,11.72,31.07Z"/><path class="cls-3" d="M167.55,33.08a1.88,1.88,0,0,1-.68-.24c-1,0-1.92.06-2.88.05a44,44,0,0,1-7.74-.27,15.46,15.46,0,0,0-2.33-.53,2.94,2.94,0,0,0-1.4-.45,4.35,4.35,0,0,0-1.89.39l-.12-.06a4.09,4.09,0,0,0-1.1-2.19,3.73,3.73,0,0,0-3.45-1,2,2,0,0,0-.17-.23c-.52-.59-.51-1.47-1.17-2-1-.8-1.9-.35-3-.53l-.66-.21,0-.14a5,5,0,0,0,.24-1.31,6.75,6.75,0,0,0-.52-3.19A5.58,5.58,0,0,0,136,17.54a3.39,3.39,0,0,0-3,1.63,8,8,0,0,0-1.46-1.85A6,6,0,0,0,129.4,14a5,5,0,0,0-6.11,0,6.65,6.65,0,0,0-1.39-.13,10,10,0,0,0-4.67,1.29,6.81,6.81,0,0,0-3.25-1,3.29,3.29,0,0,0-3.93-.23,8.44,8.44,0,0,0-3.56,4.05,4.08,4.08,0,0,0-3.08-1.49l-.09-.22v0a4.37,4.37,0,0,0-.62-1.13,4.64,4.64,0,0,0-2.51-2,4,4,0,0,0-1.81-.1c-.22,0-.45,0-.67,0a7,7,0,0,0-4.58,1.9,8.24,8.24,0,0,0-2.06-2.05c-2-1.37-5.22-2.92-7.37-1a2.14,2.14,0,0,0-.18.19,6.83,6.83,0,0,0-1.41-.4,16.15,16.15,0,0,0-1.64-2.74c-1.9-3.58-5-6.29-8.92-6.38a8.3,8.3,0,0,0-4.41,1.22,8.56,8.56,0,0,0-1.85.72c-2.52,1.37-3.17,4-3.4,6.65a2,2,0,0,0,.07.74,6.56,6.56,0,0,0-3.3.47A7.26,7.26,0,0,0,53.94,10a5.14,5.14,0,0,0-5.19,3.34,4.89,4.89,0,0,0-.55.55,4.35,4.35,0,0,0-1,2.4,5.68,5.68,0,0,0-2.33.34,4,4,0,0,0-2.3,1.3A4.08,4.08,0,0,0,42,22.59a6.15,6.15,0,0,0-1.54.86,3.47,3.47,0,0,0-1.41.07,4.18,4.18,0,0,0-5.28-.06,6.6,6.6,0,0,0-6.18,3,3.55,3.55,0,0,0-.39.89l-.19,0a7.51,7.51,0,0,0-1.69-.72c-2.59-.73-5.78,0-6.66,2.83a4.43,4.43,0,0,0-.2,1.54,4.61,4.61,0,0,0-.78.09,4.78,4.78,0,0,0-1.13-.73,3.32,3.32,0,0,0-1,1.6c-.47-.09-.94-.2-1.44-.34a2.93,2.93,0,0,0-3.55,1.82h-.13a1.74,1.74,0,0,0-1.56,1.05c-1.19-.17-2.38-.32-3.58-.4a1.67,1.67,0,0,0-1.79,1.17h0a1.64,1.64,0,0,0-.46-.07A1.33,1.33,0,0,0,2.72,35a.9.9,0,0,0-.55-.24,1.31,1.31,0,0,0-1.12.5,1.33,1.33,0,0,0-.24.31h0a1.72,1.72,0,0,0,0,.18,2,2,0,0,0,2.48,1.13A7.12,7.12,0,0,0,5,36l1.64.17a2.88,2.88,0,0,0,.23.67c1.16,1.75,3.24,1.28,4.74.4a1.69,1.69,0,0,0,.74-.82,3.12,3.12,0,0,0,2.64.27,1.92,1.92,0,0,0,.73-.43,2,2,0,0,0,1.59,0l.4-.16a2.35,2.35,0,0,0,.79-.52l.57,0a2.19,2.19,0,0,0,3.85-.86,1.84,1.84,0,0,0,1-.9c1,1.64,2.61,1.64,4.1.93a.16.16,0,0,0,.13,0l.11-.09a8.17,8.17,0,0,0,1.45-1,9.91,9.91,0,0,1,7.7-1,.35.35,0,0,0,.35-.09,11.84,11.84,0,0,1,2.37,1.33.36.36,0,0,0,.45-.57A10.47,10.47,0,0,0,31.72,31a1.75,1.75,0,0,0,0-.46,2.18,2.18,0,0,0,.07-2.71l.16-.14a1.4,1.4,0,0,1,1.59-.33,2,2,0,0,0,2.28-.56l1,.3a1.84,1.84,0,0,0,2.76,1.46,1.88,1.88,0,0,0,3.24-.38,3.92,3.92,0,0,0,.43-1.9,3.71,3.71,0,0,1,2.18-.43h0c2.53,1.59,4.85-.22,5.81-2.58,2.46-1,5.86,1,7,3.16.18.34.83.29.73-.17l0-.09h0v0a5.68,5.68,0,0,0-4.11-3.91,6.34,6.34,0,0,0,3.15-1.52l.33.06c.75,2.73,3.31,3.84,5.85,3.67a3.35,3.35,0,0,0,3.82.88,8,8,0,0,0,5.68,4.54,9.07,9.07,0,0,0,5.09-.26c0,.08.06.15.09.23a2.17,2.17,0,0,0,2.05,1.24l.24.15c1.72,4.3,5.8,6.87,10.3,4.91,2.08-.91,3.94-2.09,4.71-4.33a7.32,7.32,0,0,0,.25-1l0-.07a5.89,5.89,0,0,0,2.15-1,5.82,5.82,0,0,0,2.27-.42,4,4,0,0,0,3.28,3.91,8.7,8.7,0,0,0,4.69,1.35,7.18,7.18,0,0,0,6.9-4.18,5.32,5.32,0,0,0,3.41-2.52,15.46,15.46,0,0,0,5.82-1.2,4.22,4.22,0,0,0,.76,1,10.65,10.65,0,0,0-5.41,3.86c-.26.36.21.93.57.6a11.27,11.27,0,0,1,5.63-2.9,9.93,9.93,0,0,1,3.43-.1,11.21,11.21,0,0,1,1.62.85,3.39,3.39,0,0,0,3.21,1.53,1.65,1.65,0,0,0,1,2.18,4.63,4.63,0,0,0,2.57.15,3,3,0,0,0,1.84.8,1.84,1.84,0,0,0,2.3.79,4.8,4.8,0,0,0,1.27-1,1.83,1.83,0,0,0,1.65.53c0,.08,0,.15,0,.23a2,2,0,0,0,1.14,1.57,3.27,3.27,0,0,0,1.22.45,3.32,3.32,0,0,0,.77.82,2.28,2.28,0,0,0,3.65-.67,2.45,2.45,0,0,0,1.34,0,2.64,2.64,0,0,0,1.42-.9,13,13,0,0,0,1.54,0l4.11.16c2.06.08,4.12.11,6.18.06l.08-.1c.27-.18,2.88-.22,3.13-.43C170.77,35.43,171.17,33.49,167.55,33.08ZM84.67,21.51c0-.11.08-.22.11-.33a4.59,4.59,0,0,0,.12-.62l.37.11A3.68,3.68,0,0,1,84.67,21.51Zm7.16,13.43a.41.41,0,0,0,.09-.34l.34-.18.42-.25a5.22,5.22,0,0,0,1.23-.68h0A8.71,8.71,0,0,1,91.83,34.94Z"/><path class="cls-1" d="M.75,34.91A1.16,1.16,0,0,0,.43,36.5c.08.13.31,0,.28-.11a1,1,0,0,1,.07-.53,1,1,0,0,1,.16-.26H1a.42.42,0,0,0,.5-.46C1.42,34.79,1,34.74.75,34.91Z"/><path class="cls-1" d="M28.21,28.12a5.83,5.83,0,0,0-4.77-2.28c-1.34.06-3.23.58-4.07,1.76a.4.4,0,0,0-.31.14,3.53,3.53,0,0,0-.93,2.07v.11a4.37,4.37,0,0,0,0,.62,2.52,2.52,0,0,0-1.77-.05,1.21,1.21,0,0,0-.88,1.17.11.11,0,0,0,.18.08,2.19,2.19,0,0,1,1.12-.63,2.94,2.94,0,0,1,1.46.3,4.14,4.14,0,0,0,1,2,.42.42,0,1,0,.61-.58,3.28,3.28,0,0,1-.8-1.47A.41.41,0,0,0,19,31a3,3,0,0,1-.12-.65,3.5,3.5,0,0,1,.78-2.15.36.36,0,0,0,.07-.36,6.23,6.23,0,0,1,4.11-1.22,5.22,5.22,0,0,1,3.62,2C27.85,29.1,28.58,28.57,28.21,28.12Z"/><path class="cls-1" d="M39.85,22.79a4.17,4.17,0,0,0-4.66-.7A2.18,2.18,0,0,0,34,23.4a6.42,6.42,0,0,0-6.68,1.9.29.29,0,0,0,.45.36c1.43-1.8,4.45-2.16,6.53-1.25a1.52,1.52,0,0,0,.5.25.43.43,0,0,0,.34-.78,1.23,1.23,0,0,1,1.33-1.19,3.14,3.14,0,0,1,.8,0,3.3,3.3,0,0,1,2,.73C39.61,23.63,40.18,23.16,39.85,22.79Z"/><path class="cls-1" d="M48.27,16.77a4.73,4.73,0,0,0-6.7,1.17c-1.1,1.72-1.06,5.6,1.5,5.93.4.05.62-.56.21-.7a2.61,2.61,0,0,1-1.53-1.72,4.6,4.6,0,0,1,1.17-3.82c1.55-1.31,3.25-.8,4.93-.17A.41.41,0,0,0,48.27,16.77Z"/><path class="cls-1" d="M60.45,14.2A6.06,6.06,0,0,0,55,9.58a.24.24,0,0,0-.08.48,5.82,5.82,0,0,1,4.7,4.33A.43.43,0,1,0,60.45,14.2Z"/><path class="cls-1" d="M83.17,10.6a.35.35,0,0,0-.59.21c0,.2,0,.4,0,.61,0-.24-.06-.48-.08-.73a.24.24,0,0,0-.41-.15,15.38,15.38,0,0,0-3-4.78c-2.23-2.37-6.16-4.31-9.46-3.19l0,0c-2.55-.78-5.68,1.34-7,3.38a7.72,7.72,0,0,0-.33,8.18c.15.23.47,0,.4-.22-.81-2.71-.92-5.42.93-7.76a7.36,7.36,0,0,1,2.92-2.21,27.19,27.19,0,0,1,3-.74c3.17-.1,6,.45,8.38,2.74a13.61,13.61,0,0,1,2.75,3.79c.48,1,1.79,3.39,1.36,4.46a.45.45,0,0,0,.68.55A1.43,1.43,0,0,0,83,13.3h0a.39.39,0,0,0,.15-.17A8.55,8.55,0,0,0,83.82,11,.41.41,0,0,0,83.17,10.6Z"/><path class="cls-1" d="M104.61,17.82a7.54,7.54,0,0,0-2.26-3.61c-.14-.7-.93-1.15-1.8-1.44a.51.51,0,0,0-.68-.29l-.05,0a5.23,5.23,0,0,0-.78-.13l-.57-.11a.22.22,0,0,0-.23.12l-.23,0a9.3,9.3,0,0,0-4.21,1.1c-.83.49-2.58,2.17-2,3.29a.34.34,0,0,0,.66-.15c-.1-1.51,1.62-2.6,2.85-3a21.61,21.61,0,0,1,2.6-.56,8.5,8.5,0,0,1,3.64,1.53,7.3,7.3,0,0,1,2.25,3.48C104,18.68,104.75,18.36,104.61,17.82Z"/><path class="cls-1" d="M118.45,15.23c-1.14-2-3.29-2.47-5.38-2.83-.3-.05-.36.38-.07.46,1.78.5,3.77,1.1,4.67,2.85a9.48,9.48,0,0,1,.68,4.67c0,.22.29.25.41.12C120,19.2,119.23,16.58,118.45,15.23Z"/><path class="cls-1" d="M131.56,15.66c-.14-.23-.56,0-.43.23.79,1.58,1.56,2.85,1.46,4.65A9,9,0,0,1,131,24.74c-.17.3.23.51.47.38,1.49-.84,1.89-2.92,1.95-4.49C133.52,18.49,132.67,17.46,131.56,15.66Z"/><path class="cls-1" d="M170.88,33.91a5.33,5.33,0,0,0-1.82-.53l-.69-.37a.25.25,0,0,0-.3,0c-.43-.2-.9-.43-1.29-.2a4.43,4.43,0,0,0-.64-.31.45.45,0,0,0-.57.24,10.32,10.32,0,0,0-3.66-.12c-.8,0-1.81-.4-2.24.33l-.19-.15a.36.36,0,0,0-.06-.4.9.9,0,0,0-.57-.35.38.38,0,0,0-.22,0c-1-.27-2.23-.35-2.68.45-1.34-1.16-3.68-2.5-5-.78-.11.15.08.36.23.24,1.56-1.2,3.59.32,4.64,1.42.19.2.62.19.65-.16.08-1,2.06-.31,2.39-.17a.4.4,0,0,0,.23,0c.15.14.31.28.45.43s.3.16.4,0,1.86,0,2.31-.08a5.88,5.88,0,0,1,3.81.45.35.35,0,0,0,.31,0,.42.42,0,0,0,.53.23c1.17-.46,1.94.3,2.61,1a2.16,2.16,0,0,1,.05.39.41.41,0,0,0,.78.12,1.5,1.5,0,0,0,.11-.82.3.3,0,0,0,.07-.2,3.41,3.41,0,0,1,.33-.26A.35.35,0,0,0,170.88,33.91Z"/></svg>