<svg id="Layer_1" data-name="Layer 1" xmlns="http://www.w3.org/2000/svg" viewBox="0 0 141.46 38.82"><defs><style>.cls-1{fill:#f4f7f9;}.cls-2{fill:#eaf0f3;}.cls-3{fill:#eef3f6;}</style></defs><title>fog-cloud-i</title><path class="cls-1" d="M114.77,26.08c-.28-.23-.56-.44-.85-.66a2.35,2.35,0,0,0-1.49-2.59,3,3,0,0,0-2.55.19,27.57,27.57,0,0,0-6.06-1.94c-1.26-3.1-4.28-5.69-7.73-5.62a5.14,5.14,0,0,0-5.3,4.95c-.65,0-1.3.08-2,.16a7.82,7.82,0,0,0-2.48-3,3.68,3.68,0,0,0,.62-3A3.56,3.56,0,0,0,84.74,12C84,8.67,80.8,7.09,77.27,8.42a20.16,20.16,0,0,0-3.94,2C71.82,5.83,68.63,1.58,64.43.32c-3.51-1.06-8,.65-11.51,3.39a4.46,4.46,0,0,0-.84-.29,6.12,6.12,0,0,0-4.58-.7A5.32,5.32,0,0,0,44,9.61a9.72,9.72,0,0,0-.19,1.07,5.61,5.61,0,0,0-4.92-.18,5.56,5.56,0,0,0-3.26,5.13,6.79,6.79,0,0,0,.31,2c-.76,0-1.52.08-2.28.17a3.75,3.75,0,0,0-2.19-.28,10.37,10.37,0,0,0-4.06,1.67,2.59,2.59,0,0,0-2.93.84c-.44.58-.87,2-.07,2.47a9.51,9.51,0,0,0-1.17,5.25,4.13,4.13,0,0,1,3.18-1.29,6.19,6.19,0,0,1,.42-.61,7.6,7.6,0,0,1,1-2.64c2.14-3.57,5.79-3.61,8.54-1.93l.4-.17a14.19,14.19,0,0,1,1.88-.59,5.14,5.14,0,0,1-1.17-2.88c-.49-4.36,4.44-6,7.19-3.77a5.41,5.41,0,0,1,1-.19,3.85,3.85,0,0,1,2.21-3.87,4.19,4.19,0,0,1,.52-.22,4.54,4.54,0,0,1,.37-.88C50.18,6.08,53,6.21,55.36,7.35a5.71,5.71,0,0,1,3.35-.66,6.16,6.16,0,0,1,.66.12,5.52,5.52,0,0,1,3.13-.07,6.56,6.56,0,0,1,2.74,1.49,6.13,6.13,0,0,1,3.81,3.32,7.61,7.61,0,0,1,.72,3.18,7.76,7.76,0,0,1,2.14,1.14l.27.22c1.12-2.23,2.9-3.1,4.64-2.82,5-2.28,9,3.84,9.25,8.26,0,0,0,0,0,.07a5.35,5.35,0,0,1,1.8,2.06l.55,0a7.93,7.93,0,0,1,7.45-.93h0a7.53,7.53,0,0,1,5,.36,6.87,6.87,0,0,1,4.21,1.25c2,0,3.55,1.2,5.16,2.28a6.65,6.65,0,0,1,2.75.11,10.37,10.37,0,0,1,2.54.22A4.07,4.07,0,0,0,114.77,26.08Z"/><path class="cls-1" d="M121,28.54a4.06,4.06,0,0,0-3-1.12l-.89,0a10.44,10.44,0,0,1,1.83.92A6,6,0,0,1,121,28.54Z"/><path class="cls-2" d="M14.77,37.19a3.56,3.56,0,0,0,.43,0,4.32,4.32,0,0,0,.4.2,4.25,4.25,0,0,0,3,.05,7.74,7.74,0,0,0,1.43-.68c.08.85.77,1.66,1.87.88A7.25,7.25,0,0,1,24.11,37l2.14-.53a27.73,27.73,0,0,0,18.92,1.06c4.36,1.48,8.7.16,13.14-.38L61.1,37c.34,0,.68,0,1,0,2.54.11,10.93,3.37,13,.34l.3-.07c1.61,0,3.15.08,4.66,0a9.61,9.61,0,0,0,2.65.42,4.38,4.38,0,0,0,2.65-.87l.56,0a6.07,6.07,0,0,0,2.7,1.35,5.73,5.73,0,0,0,4.32.4,9,9,0,0,0,3.71-1.07.93.93,0,0,0,.24-1.17l10.45-.5c1.35,1.93,5.61,3.51,8.29,2.88a5.38,5.38,0,0,0,1,.08A4.45,4.45,0,0,0,120.14,37l.28-.08a7,7,0,0,0,2,.65,1,1,0,0,0,1.18-.59l.09,0a2.8,2.8,0,0,0,3.71-.56.85.85,0,0,0,.68,0l.09-.07a2.89,2.89,0,0,0,3.34,1,3.79,3.79,0,0,0,2.41-3.07l.61,0a4.22,4.22,0,0,0-3.25-1.64,3.62,3.62,0,0,0-2.52,1l-.11.12a2.23,2.23,0,0,0-.42-.27,5.71,5.71,0,0,0-2.58-.76,4.35,4.35,0,0,0-3,1.23,3.17,3.17,0,0,0-.46.56,5.38,5.38,0,0,0-3.41-3.27,7.58,7.58,0,0,0-6.67.89,4.33,4.33,0,0,0-.74.63l-.1-.08a9.19,9.19,0,0,1-4,1.48,2,2,0,0,1-2.16-2.32,3.37,3.37,0,0,1-2.09.09,3.61,3.61,0,0,0-.86-1.47,3.53,3.53,0,0,0-3.43-1,3.93,3.93,0,0,0-2,1.35,4.13,4.13,0,0,0-.67,1,5.3,5.3,0,0,0-4.44-2.82A4.36,4.36,0,0,0,87.95,31a5.81,5.81,0,0,0-.72,1.93,2.87,2.87,0,0,1-1.46-1.14A9.73,9.73,0,0,0,79.29,23a8.26,8.26,0,0,0-6.55.19l-.13.07a9.16,9.16,0,0,0-3.44-3.84,7.09,7.09,0,0,0-4-1,2.79,2.79,0,0,0,.06-.65,3.64,3.64,0,0,0-1-2.52,5.44,5.44,0,0,0-3.05-1.75,4.26,4.26,0,0,0-4.09,1.78c-.4-.77-1.65-2.16-1.66-2.28a2.83,2.83,0,0,1-1.91-2.16l-.05,0-.23,0a3.05,3.05,0,0,1,.58,1.68,4.59,4.59,0,0,0-5.58,2.31,7.15,7.15,0,0,0-2.29,5.11,6.25,6.25,0,0,0,2.37,4.87,4.87,4.87,0,0,1-3.06,5.62,3.55,3.55,0,0,0,.9-1.89,1.78,1.78,0,0,0,.05-.64,3.28,3.28,0,0,0-.09-1.1,3.78,3.78,0,0,0-1-1.72,4.48,4.48,0,0,0-.64-.77,4.39,4.39,0,0,0-1.83-1.08,4,4,0,0,0-2.95.34A4.09,4.09,0,0,0,38.17,25a4.66,4.66,0,0,0-.53,1.3,8.37,8.37,0,0,0-.2,1.62,15.37,15.37,0,0,0,.17,1.9s0,.08,0,.13a5.52,5.52,0,0,0-4.92-1.54,4.5,4.5,0,0,0-3.23,2.44,4.24,4.24,0,0,0-2.64-.28,6,6,0,0,0-3.65,3c0,.07-.07.15-.11.23l-2.4.07a13.28,13.28,0,0,0-9-2.38h0c3.43-.1,6.9-.69,10.33-.79a3.83,3.83,0,0,1,.1-.69,5.77,5.77,0,0,1,.6-1.52,3.77,3.77,0,0,0-3.48.45l-1.81,1.2a3.93,3.93,0,0,0-1.3-.8c-1.8-.69-4.39.25-4.95,2.24l-.11.4c-.53-.48-.85,0-1.29,0a1.06,1.06,0,0,0-.57.23,1.4,1.4,0,0,0-1.28-.41A4.71,4.71,0,0,0,6,32.65a2.41,2.41,0,0,0-.77-.06,3,3,0,0,0-1.62-.5,1.26,1.26,0,0,0-1.35,1.06,1.22,1.22,0,0,0-.09.15A1.84,1.84,0,0,0,1,33.56,2,2,0,0,0,0,35a.75.75,0,0,0,1.2.65l.47-.36.35.23a.9.9,0,0,0,1.17-.11,1.19,1.19,0,0,0,.48.35A1.6,1.6,0,0,0,5,35.69,3.82,3.82,0,0,0,6,35.48a7.69,7.69,0,0,0,6.63,1.05A3.63,3.63,0,0,0,14.77,37.19Z"/><path class="cls-1" d="M127.62,30.72c-.23-1.06-1.71-1.46-2.38-1.38a2.33,2.33,0,0,0-1.6-.6,2.15,2.15,0,0,0-1.2.35h0C124,29.36,124.34,31.77,127.62,30.72Z"/><path class="cls-3" d="M117.11,27.45a10.1,10.1,0,0,0-1.55-.47,4.32,4.32,0,0,1,.29.51Z"/><path class="cls-3" d="M23.33,28.72q-.08-.47-.11-.93a4.2,4.2,0,0,0-.51.7,3.18,3.18,0,0,1,.44.22Z"/><path class="cls-3" d="M121.87,29.64a2.12,2.12,0,0,1,.58-.55,5.92,5.92,0,0,0-1.43-.55A4.49,4.49,0,0,1,121.87,29.64Z"/><path class="cls-3" d="M22,30.7c-6.34-.52-8.09-.09-10.34.79h0a13.31,13.31,0,0,1,9,2.37,3,3,0,0,1,2.26.55c0-.07.2-.78.25-.85a6,6,0,0,1,3.65-3,4.24,4.24,0,0,1,2.64.28,4.5,4.5,0,0,1,3.23-2.44A5.52,5.52,0,0,1,37.64,30s0-.08,0-.13a15.37,15.37,0,0,1-.17-1.9,8.37,8.37,0,0,1,.2-1.62,4.66,4.66,0,0,1,.53-1.3,4.09,4.09,0,0,1,1.48-1.45,4,4,0,0,1,2.95-.34,4.39,4.39,0,0,1,1.83,1.08,4.48,4.48,0,0,1,.64.77,3.78,3.78,0,0,1,1,1.72,3.28,3.28,0,0,1,.09,1.1,1.78,1.78,0,0,1-.05.64,3.55,3.55,0,0,1-.9,1.89,4.87,4.87,0,0,0,3.06-5.62,6.25,6.25,0,0,1-2.37-4.87,7.15,7.15,0,0,1,2.29-5.11,4.59,4.59,0,0,1,5.58-2.31c0-.66-.43-1.7-.35-1.71l.05,0A2.83,2.83,0,0,0,55.4,13c0,.12,1.26,1.51,1.66,2.28a4.26,4.26,0,0,1,4.09-1.78,5.44,5.44,0,0,1,3.05,1.75,3.64,3.64,0,0,1,1,2.52,2.79,2.79,0,0,1-.06.65,7.09,7.09,0,0,1,4,1,9.16,9.16,0,0,1,3.44,3.84l.13-.07A8.26,8.26,0,0,1,79.29,23a9.73,9.73,0,0,1,6.48,8.76,2.87,2.87,0,0,0,1.46,1.14A5.81,5.81,0,0,1,87.95,31a4.36,4.36,0,0,1,3.72-2.11,5.3,5.3,0,0,1,4.44,2.82,4.13,4.13,0,0,1,.67-1,3.93,3.93,0,0,1,2-1.35,3.53,3.53,0,0,1,3.43,1,3.61,3.61,0,0,1,.86,1.47,3.37,3.37,0,0,0,2.09-.09A2,2,0,0,0,107.28,34a9.19,9.19,0,0,0,4-1.48l.1.08a4.33,4.33,0,0,1,.74-.63,7.58,7.58,0,0,1,6.67-.89,5.38,5.38,0,0,1,3.41,3.27,3.17,3.17,0,0,1,.46-.56,4.35,4.35,0,0,1,3-1.23,5.71,5.71,0,0,1,2.58.76,2.23,2.23,0,0,1,.42.27l.11-.12a3.62,3.62,0,0,1,2.52-1,4.22,4.22,0,0,1,3.25,1.64h.4a.68.68,0,0,0,.48.69,3.51,3.51,0,0,0,1.92-.08l0,0a1.64,1.64,0,0,0,2,1,1.48,1.48,0,0,0,.7-.41,2.17,2.17,0,0,0,1.38-1.27.93.93,0,0,0-.31-1,3,3,0,0,0-.88-.53,1.43,1.43,0,0,0-.94-.27,1.35,1.35,0,0,0-.38.09,1.92,1.92,0,0,0-.78.27,5.15,5.15,0,0,0-2,.38,1.26,1.26,0,0,0-.85-1.43,6.9,6.9,0,0,0-3.56,0,3.29,3.29,0,0,0-3.94-.3,2.34,2.34,0,0,0-.11-.47l0,0c-.18-.48-1.82-1-2.64-.62-.67-1-1.2-1.07-2.52-1h0a2.12,2.12,0,0,0-.58.55,4.49,4.49,0,0,0-.85-1.1,6,6,0,0,0-2.07-.17,10.44,10.44,0,0,0-1.83-.92l-1.26,0a4.32,4.32,0,0,0-.29-.51,10.37,10.37,0,0,0-2.54-.22,6.65,6.65,0,0,0-2.75-.11c-1.61-1.09-3.14-2.29-5.16-2.28a6.87,6.87,0,0,0-4.21-1.25,7.53,7.53,0,0,0-5-.36h0a7.93,7.93,0,0,0-7.45.93l-.55,0a5.35,5.35,0,0,0-1.8-2.06s0,0,0-.07c-.2-4.43-4.26-10.54-9.25-8.26-1.73-.29-3.52.59-4.64,2.82l-.27-.22a7.76,7.76,0,0,0-2.14-1.14,7.61,7.61,0,0,0-.72-3.18,6.13,6.13,0,0,0-3.81-3.32,6.56,6.56,0,0,0-2.74-1.49,5.52,5.52,0,0,0-3.13.07,6.16,6.16,0,0,0-.66-.12,5.71,5.71,0,0,0-3.35.66C53,6.21,50.18,6.08,48.7,8.74a4.54,4.54,0,0,0-.37.88,4.19,4.19,0,0,0-.52.22,3.85,3.85,0,0,0-2.21,3.87,5.41,5.41,0,0,0-1,.19c-2.75-2.23-7.68-.58-7.19,3.77a5.14,5.14,0,0,0,1.17,2.88,14.19,14.19,0,0,0-1.88.59l-.4.17c-2.75-1.68-6.4-1.64-8.54,1.93a7.6,7.6,0,0,0-1,2.64,6.19,6.19,0,0,0-.42.61,4.13,4.13,0,0,0-3.18,1.29q0,.47.11.93h-.18a3.18,3.18,0,0,0-.44-.22,5.77,5.77,0,0,0-.6,1.52A3.83,3.83,0,0,0,22,30.7Z"/><path class="cls-1" d="M141.17,33.07a1,1,0,0,0-.07-.2,2.85,2.85,0,0,0-.5-.51,2.25,2.25,0,0,0-1.44-.54c-.62,0-1.2.2-1.82.2a1.9,1.9,0,0,0-1.07.28,2.7,2.7,0,0,0-2-1.51,3.67,3.67,0,0,0-2.59.2.35.35,0,0,0-.06-.07c-.84-.64-2.72-1.2-3.63-.34h0c-.48-1.06-2.06-2.11-3.07-1.23-.24.21,0,.7.29.54,1.06-.5,1.94.34,2.44,1.2a.25.25,0,0,0,.44,0l0-.05a9,9,0,0,1,1.44-.15,3,3,0,0,1,1.64.66.34.34,0,0,0,.47,0,12,12,0,0,0,1.78.07,2.26,2.26,0,0,1,2.09,1.25.44.44,0,0,0,.72.16c.29,0,.55-.08.85-.09a8.09,8.09,0,0,0,1.27,0,2.62,2.62,0,0,1,1.57,0,3.27,3.27,0,0,1,1.09.81.68.68,0,0,0,0,.28.19.19,0,0,0,.09.09c.1.1.31.08.32-.09A1.35,1.35,0,0,0,141.17,33.07Z"/><path class="cls-1" d="M122.66,28.69a4.33,4.33,0,0,0-1.28-.55,2.89,2.89,0,0,0-1.26-.18.18.18,0,0,0-.05.34,6.88,6.88,0,0,0,1.22.46c.38.14.75.34,1.14.45S122.89,28.86,122.66,28.69Z"/><path class="cls-1" d="M119.17,28.42c-.2-.71-1-1.18-1.69-1.51-.94-1.28-3-1.51-4.38-1.07a.22.22,0,0,0,0,.41,6.15,6.15,0,0,0,1,.07l-.33,0a.22.22,0,0,0-.19.19l-.21,0a.31.31,0,0,0-.15,0c-.49,0-1.09,0-1.56,0a.43.43,0,0,0-.17,0c-.36-.19-.73-.38-1.07-.59a7.27,7.27,0,0,0-.91-.79c-1.14-1.18-2.86-.35-4.09-1.15s-2.59-1.54-4.17-1.09a.19.19,0,0,0-.12.09c-.22-.18-.44-.36-.68-.53a.3.3,0,0,0-.46.35c-2.44-1.27-5.78-1.1-7,1.51a.23.23,0,0,0,.39.23,5,5,0,0,1,5.88-1.18,5.67,5.67,0,0,1,2.81,3.72.36.36,0,0,0,.68-.07,3.92,3.92,0,0,0-.77-2.54,4.87,4.87,0,0,1,2.56,0,4.15,4.15,0,0,0,1,.7,1.92,1.92,0,0,0,.77.11,7.51,7.51,0,0,1,2.72.48,3.59,3.59,0,0,0,.79.66,6.25,6.25,0,0,1,1.37,1.89.39.39,0,0,0,.49.22c2.41-1,4.62-1.26,6.88.22a.24.24,0,0,0,.28,0l0,0A.22.22,0,0,0,119.17,28.42Z"/><path class="cls-1" d="M26.71,25.7c0-.49-.85-.52-.86,0,0,0,0,.09,0,.13a5.62,5.62,0,0,0-2.55,1.08.22.22,0,0,0-.19,0,2.28,2.28,0,0,0-.77.9,4.8,4.8,0,0,0-4.85,1.59,5,5,0,0,0-5.16.16,6.79,6.79,0,0,0-1,1c-.55.56-.27.39-1,.55a8.23,8.23,0,0,1-2,.09c-1.06,0-2,.95-3,.74-.76-.15-1.18-.5-2-.19a9.24,9.24,0,0,0-2.1,1.47A2.85,2.85,0,0,0,0,35.2a.27.27,0,0,0,.53.08c.17-1.21,1.07-1.4,1.87-2.07.59-.49.88-1,1.55-1.09a.19.19,0,0,0,.14.14c.21,0,.43,0,.65,0A1.32,1.32,0,0,1,5,32.4a1.43,1.43,0,0,0,.51.29,1.6,1.6,0,0,0,1-.21,3.71,3.71,0,0,1,2-.55,4.23,4.23,0,0,0,1,.28,3.47,3.47,0,0,0,2.15-.69c.91-.9,1.35-1.75,2.82-1.91a8.35,8.35,0,0,1,2.77.39.41.41,0,0,0,.68.1,4.24,4.24,0,0,1,4.43-1.57.37.37,0,0,0,.46-.18l.56-.57a.35.35,0,0,0,.11-.16,5.09,5.09,0,0,1,.8-.5,5.6,5.6,0,0,1,2.05-.51.44.44,0,0,0,.39-.48A1.47,1.47,0,0,1,26.71,25.7Z"/><path class="cls-1" d="M70,13.43a3.14,3.14,0,0,0-.27-.91c-.06-.13-.29-.1-.26.06a6.43,6.43,0,0,1,.08,1.78c-.12.4-.22.81-.33,1.19s.33.51.46.2a4.71,4.71,0,0,0,.58-2.15A.2.2,0,0,0,70,13.43Z"/><path class="cls-1" d="M86.2,19.38c-.05-.15-.28-.07-.24.09a4.36,4.36,0,0,1,.14,1.91A7.32,7.32,0,0,1,85.52,23a.21.21,0,0,0,.35.21A4.3,4.3,0,0,0,86.2,19.38Z"/><path class="cls-1" d="M89.37,22.43A3.6,3.6,0,0,0,88,23.61a2.13,2.13,0,0,0-.5,1.56.19.19,0,0,0,.32.05c.26-.39.29-.9.56-1.31a3.14,3.14,0,0,1,1.18-1.09C89.75,22.7,89.62,22.31,89.37,22.43Z"/><path class="cls-1" d="M37.79,23a4.54,4.54,0,0,0-2.71-3.31A.13.13,0,0,0,35,20a4.78,4.78,0,0,1,2.31,3.13C37.36,23.4,37.86,23.35,37.79,23Z"/></svg>