<svg id="Layer_1" data-name="Layer 1" xmlns="http://www.w3.org/2000/svg" viewBox="0 0 169.87 42.69"><defs><style>.cls-1{fill:#f4f7f9;}.cls-2{fill:#eaf0f3;}.cls-3{fill:#eef3f6;}</style></defs><title>fog-cloud-b</title><path class="cls-1" d="M160.18,29.45a2.78,2.78,0,0,0-1,0,1.82,1.82,0,0,0-.75-.28l-.21,0a1.82,1.82,0,0,0-.57-1.11,1.48,1.48,0,0,0-.17-.11h0a1.58,1.58,0,0,0-.31-.16l0,0-.09,0a1.72,1.72,0,0,0-.28-.06h-.12a1.89,1.89,0,0,0-.69.08,1.66,1.66,0,0,0-.92.75,39.79,39.79,0,0,0,6.85,1.93A2.88,2.88,0,0,0,160.18,29.45Z"/><path class="cls-2" d="M.7,30.54a1,1,0,0,0,.7,0,1.25,1.25,0,0,0,.6-.12,2.75,2.75,0,0,0,1.25.38,1.74,1.74,0,0,1,.16-2.89,2.33,2.33,0,0,0-.68-.23A2.5,2.5,0,0,0,.23,28.87h0a1.64,1.64,0,0,0-.15.25A1.1,1.1,0,0,0,.7,30.54Z"/><path class="cls-1" d="M15.41,24.7c.82-2,2.23-3.62,4.6-3.59a8.47,8.47,0,0,1,6.72-2.37,5.61,5.61,0,0,1,1.59.41,3.88,3.88,0,0,0-.9-1.23,4.37,4.37,0,0,0-4.8-.53A4,4,0,0,0,20.5,20a2.74,2.74,0,0,0-2.55-1,1.85,1.85,0,0,0-1.44,1.26,1.66,1.66,0,0,0-.2.48,1.57,1.57,0,0,0,0,.7A4,4,0,0,0,13,25.58a6.2,6.2,0,0,1,.83-.46A5,5,0,0,1,15.41,24.7Z"/><path class="cls-2" d="M153,31.44a4.26,4.26,0,0,1,.14.65c.26,2-2.76,3.33-3.88,1.48-.09-.14-.15-.28-.21-.42a2.16,2.16,0,0,1-3.2.68c-1-.67-2.71-1.87-4.12-1.94a3.84,3.84,0,0,1-3.65,2.73,2.16,2.16,0,0,1-2.15-1.42,3.76,3.76,0,0,1-2.17-.41,2.44,2.44,0,0,1-.42-.28,5.47,5.47,0,0,1-3.75,1,2.06,2.06,0,0,1-1.71-1.68,8.08,8.08,0,0,1-4,2.51,3.26,3.26,0,0,0,.09-.78,5.26,5.26,0,0,0,0-.56,3.34,3.34,0,0,0-.9-2.9,3.62,3.62,0,0,0-.53-.43A5.35,5.35,0,0,0,117.26,28a6.25,6.25,0,0,0-3.33,2.58,3.42,3.42,0,0,0-.17-.59,3.53,3.53,0,0,0-3.2-2.23,9,9,0,0,0-2.83.44,3.39,3.39,0,0,0-.28-.55,2.94,2.94,0,0,0-.3-.66A3.83,3.83,0,0,0,106,25.85a4.74,4.74,0,0,0-1.08-1.91,4,4,0,0,0-4.93-.72,4.17,4.17,0,0,0-.8.63,6.19,6.19,0,0,0-4.09-3.08A9,9,0,0,0,92,20.47a8.26,8.26,0,0,0-6.75,2.65,7.08,7.08,0,0,0-1,1.4,8.75,8.75,0,0,0-1.93,2.07A7.43,7.43,0,0,0,81.25,26a12.68,12.68,0,0,0-10.09.87,7.3,7.3,0,0,0-2.21,1.81,10.31,10.31,0,0,0-5.13,2.65,3.49,3.49,0,0,0-1,2.05,4.22,4.22,0,0,1-1.59-.48,5.3,5.3,0,0,1-5.79,1.48,5.18,5.18,0,0,1-4.49,1.66l-.19,0a9.92,9.92,0,0,1-3.93,2.12,2.08,2.08,0,0,1-2.73-1.61c-1.79.41-4,.62-5.57-.28a2,2,0,0,1-2.19,1.37h-.2a2,2,0,0,1-1.85-1,1.74,1.74,0,0,1-.09.15,1.85,1.85,0,0,1-1.25.68,1.89,1.89,0,0,1-2-1.64,1.86,1.86,0,0,1,.37-1.29,2.48,2.48,0,0,0-1.21.86,1.56,1.56,0,0,1,.12.61,1.58,1.58,0,0,1-.85,1.35,2.3,2.3,0,0,1-.95.22,1.62,1.62,0,0,1-1.77-1.66,1.67,1.67,0,0,1,0-.24,1.91,1.91,0,0,0-.12.27l-.22.17a1.64,1.64,0,0,0-1.25-.49c-.79.06-1.7.9-1.24,1.73A1.74,1.74,0,0,0,26,38a.91.91,0,0,0,.32-.29,2.82,2.82,0,0,0,1.11.41,2.5,2.5,0,0,0,1.35.26A4.49,4.49,0,0,0,30,38l0,0a1.19,1.19,0,0,0,1.25.71c.68-.15,1.42-.16,2.08-.26a2.64,2.64,0,0,0,1.47.16,2.33,2.33,0,0,0,1.29,0,3.19,3.19,0,0,0,.23.33,5.58,5.58,0,0,0,5.94,1.61,4.48,4.48,0,0,0,2.27.09l.11,0a6,6,0,0,0,3,1.45,7.71,7.71,0,0,0,4.48.44,11.73,11.73,0,0,0,3.5-1.42,5.3,5.3,0,0,0,7.25-.32,8.32,8.32,0,0,0,7.34.84,7.35,7.35,0,0,0,1.58-.94,6.16,6.16,0,0,0,2.2,1.1,4.49,4.49,0,0,0,4.7-1.6,6,6,0,0,0,6.53-2.06,7.34,7.34,0,0,0,.7.51,5.07,5.07,0,0,0,1.39.61,3.27,3.27,0,0,0,.47.43c2,1.46,4-.27,5.31-1.89a9.36,9.36,0,0,0,7.54,3.27,7.1,7.1,0,0,0,1.38-.23,4.24,4.24,0,0,0,1.54-.42,4.44,4.44,0,0,0,.55-.34,12.3,12.3,0,0,0,4.61-3.49h.41c1,2.37,4,4.15,6.38,2.52a5.67,5.67,0,0,0,3.75.75,4.5,4.5,0,0,0,2.65-1.62l.1,0c1.93,2.06,5.72,2.71,7.17.09l3.25-.21A2.9,2.9,0,0,0,135,36.51c.52.12,1,.26,1.57.4a12.23,12.23,0,0,0,8.11,2.18,3.78,3.78,0,0,0,3.38-3.69,2.91,2.91,0,0,0,1.07.13,5.58,5.58,0,0,0,4.8.58,1.6,1.6,0,0,0,1.33-.54A8,8,0,0,0,157,34.34a2,2,0,0,0,1.7,0c-.46-.1-.92-.21-1.38-.34C155.34,33.41,154.1,33.09,153,31.44Z"/><path class="cls-1" d="M37.38,22.7a5,5,0,0,1,3.14-2.29,6.23,6.23,0,0,1,6.15,2.11,8,8,0,0,1,.19-.8c.83-2.77,2.88-4.32,5.56-5.18a10.12,10.12,0,0,1,7.34.21,3.65,3.65,0,0,1,.66.26l.18.07.35.15A6.12,6.12,0,0,1,65,15.18a5.13,5.13,0,0,1,3.43,1.1c.86-2.29,2.8-4.08,5.17-3.39A6.56,6.56,0,0,1,76,11.4a4.75,4.75,0,0,1,1.63-.23,5.53,5.53,0,0,1,1.72-1.23,3.86,3.86,0,0,1,2.88-2l.11-.11a8,8,0,0,1,2.72-4.66,4.36,4.36,0,0,1,2.27-.94,7.49,7.49,0,0,1,4.24-.67,8.14,8.14,0,0,1,7.16,7.15,4.07,4.07,0,0,1,.72.52,6.72,6.72,0,0,1,2.29,1.68l.21-.18a2.12,2.12,0,0,1,2.17-.23,5.48,5.48,0,0,1,1.11.8,5.94,5.94,0,0,1,7.3,1,8.21,8.21,0,0,1,1.78,3.35,3.9,3.9,0,0,1,.34,2.15c0,.1,0,.19-.05.29a5.24,5.24,0,0,1-.07.62l.06.1A3.67,3.67,0,0,1,119,18a5,5,0,0,1,2.49,3.15,5.28,5.28,0,0,1,.13.77,5.53,5.53,0,0,1,4.93,3,7.72,7.72,0,0,1,5.57.68,4.59,4.59,0,0,1,5.65.11,7.76,7.76,0,0,1,4.72-2,6.21,6.21,0,0,1,5.95,4.88,2.71,2.71,0,0,1,.86-.82l-.1.05a2.32,2.32,0,0,1,.44-.24h0a2.45,2.45,0,0,1,2.24.21,2.62,2.62,0,0,1,.42.33,5.67,5.67,0,0,1,1,0,1.65,1.65,0,0,0-.14-.41,1.52,1.52,0,0,0-1-.8,2.26,2.26,0,0,0-1.38-.4.83.83,0,0,0-.56.31,2.23,2.23,0,0,0-.31-.25,5,5,0,0,0-2.43-.71A4.75,4.75,0,0,0,145,23.25a7.39,7.39,0,0,0-6.38.71,5,5,0,0,0-3-.39,4.34,4.34,0,0,0-.49.13A6.25,6.25,0,0,0,130.91,20a7.32,7.32,0,0,0-4.59.38l-.1,0a11.92,11.92,0,0,0-3.61-.8h-.52A3.39,3.39,0,0,0,120.93,16a5.41,5.41,0,0,0-2.85-1.14c-2.23-4.58-7.45-7.44-12.72-7.35A8.08,8.08,0,0,0,104.08,7c-2.17-5-8.87-7.4-14.55-6.92A19.88,19.88,0,0,0,73.8,10.11a13.17,13.17,0,0,0-14.07,3.74,4.08,4.08,0,0,0-.59.36c-.39.29-.75.59-1.1.91a10.63,10.63,0,0,0-12.93,5c-2.71-2.62-7.33-2.75-10.85-.83l0,0A6.83,6.83,0,0,1,37.38,22.7Z"/><path class="cls-1" d="M165.21,30.13a1,1,0,0,0-.9.44c.58,0,1.16,0,1.73-.07A1.58,1.58,0,0,0,165.21,30.13Z"/><path class="cls-2" d="M65.57,19.49a1.79,1.79,0,0,0-.93,0l.19.24A7.58,7.58,0,0,1,65.57,19.49Z"/><path class="cls-2" d="M63.59,29.31a1.32,1.32,0,0,0,.43-.4l-.09-.23a1.9,1.9,0,0,1-.79.71A.5.5,0,0,0,63.59,29.31Z"/><path class="cls-2" d="M28.82,19.36a6.29,6.29,0,0,1,1.46-.52A2.64,2.64,0,0,0,28.82,19.36Z"/><path class="cls-2" d="M4.69,31.22a.58.58,0,0,0,.63.37h.07a2.91,2.91,0,0,0,.45.13,3.08,3.08,0,0,0,3.07-1.27c-.48-1.83-3.26-2.11-4.49.58Z"/><path class="cls-2" d="M34.27,34.59a2,2,0,0,1,1.57-1.07,3.26,3.26,0,0,1,.6,0,1.9,1.9,0,0,1,.39,0A4.63,4.63,0,0,1,39.2,30a4.66,4.66,0,0,1-.39-.68,5.91,5.91,0,0,1-2.72.74,4.38,4.38,0,0,1-6.89-2.15,4.59,4.59,0,0,1-2.65.4,1.91,1.91,0,0,1-1.48-1.2L24,27a1.79,1.79,0,0,1-1.36.79,4.46,4.46,0,0,1-2.34-.71,1.83,1.83,0,0,1-1,2.42l-2.42.85a1.82,1.82,0,0,1-2.35-1.21,4.78,4.78,0,0,1-.46.39,4.5,4.5,0,0,1-2,.48L9,30.42a10.2,10.2,0,0,0,8,0,5.07,5.07,0,0,0,1.16,0c.88-.08,1.76-.14,2.63-.2,2.88,2.3,6.39,3.74,9.38,1.38A12.7,12.7,0,0,0,33.25,33a10,10,0,0,0,1.17,1.27h-.49A1.75,1.75,0,0,1,34.27,34.59Z"/><path class="cls-1" d="M10.67,26.73a4.35,4.35,0,0,0,2-.89,4.56,4.56,0,0,0-5,.94,2.05,2.05,0,0,0-.58.43c-.78-.84-2.2-.26-3,.41a.72.72,0,0,0-.1.12H4C6.2,27.41,8.45,27.12,10.67,26.73Z"/><path class="cls-2" d="M76.83,17.47a5.1,5.1,0,0,1-.07.53l.41.1Q77,17.78,76.83,17.47Z"/><path class="cls-3" d="M3.9,30.79a2.64,2.64,0,0,1-.66,0,1.52,1.52,0,0,0,1,.21l.13,0a3.06,3.06,0,0,1-.31-.3Z"/><path class="cls-3" d="M32.8,34.4a3.79,3.79,0,0,1,1.13-.19,2.09,2.09,0,0,0-1.38-.47,1.85,1.85,0,0,0-1.25.68l0,0A2.62,2.62,0,0,1,32.8,34.4Z"/><path class="cls-3" d="M4,27.75a1.75,1.75,0,0,0-.55.19,2.34,2.34,0,0,1,.37.21A.78.78,0,0,1,4,27.75Z"/><path class="cls-3" d="M13,25.95c0-.12,0-.25,0-.37l-.39.26.21.1Z"/><path class="cls-3" d="M8.91,30.43H9l-.06,0Z"/><path class="cls-3" d="M28.82,19.36h0a5.08,5.08,0,0,0-.47-.23,4.15,4.15,0,0,1,.19.48A2.62,2.62,0,0,1,28.82,19.36Z"/><path class="cls-3" d="M162.89,31.06a2.45,2.45,0,0,1,1.32-.29v-.05a.67.67,0,0,1,.09-.16c-.63,0-1.27,0-1.91-.07l-.53-.07a2.73,2.73,0,0,1,.39.59A2.74,2.74,0,0,1,162.89,31.06Z"/><path class="cls-3" d="M153.29,28.6c.54,0,1.08.06,1.61.12a1.74,1.74,0,0,1,.08-.18l0-.05-.75-.23a5.51,5.51,0,0,0-1-.19A1.6,1.6,0,0,1,153.29,28.6Z"/><path class="cls-3" d="M31.87,19.29a2.92,2.92,0,0,1,1.68.47,4.86,4.86,0,0,1,.67-.46c-.16-.08-.33-.16-.5-.22a6,6,0,0,0-3.45-.25A2.53,2.53,0,0,1,31.87,19.29Z"/><path class="cls-3" d="M168.13,31.45a4.52,4.52,0,0,1-1.54.58,1.68,1.68,0,0,0-.55-1.54c-.57.05-1.15.07-1.73.07a.67.67,0,0,0-.09.16v.05a2.45,2.45,0,0,0-1.32.29,2.74,2.74,0,0,0-.63,0,2.73,2.73,0,0,0-.39-.59A39.79,39.79,0,0,1,155,28.49l0,.05a1.74,1.74,0,0,0-.08.18c-.54-.06-1.08-.1-1.61-.12a1.6,1.6,0,0,0,0-.52,5.67,5.67,0,0,0-1,0,2.62,2.62,0,0,0-.42-.33,2.45,2.45,0,0,0-2.24-.21h0a2.32,2.32,0,0,0-.44.24l.1-.05a2.71,2.71,0,0,0-.86.82,6.21,6.21,0,0,0-5.95-4.88,7.76,7.76,0,0,0-4.72,2,4.59,4.59,0,0,0-5.65-.11,7.72,7.72,0,0,0-5.57-.68,5.53,5.53,0,0,0-4.93-3,5.28,5.28,0,0,0-.13-.77A5,5,0,0,0,119,18a3.67,3.67,0,0,0-4.39.82l-.06-.1a5.24,5.24,0,0,0,.07-.62c0-.1,0-.19.05-.29a3.9,3.9,0,0,0-.34-2.15,8.21,8.21,0,0,0-1.78-3.35,5.94,5.94,0,0,0-7.3-1,5.48,5.48,0,0,0-1.11-.8,2.12,2.12,0,0,0-2.17.23l-.21.18a6.72,6.72,0,0,0-2.29-1.68,4.07,4.07,0,0,0-.72-.52,8.14,8.14,0,0,0-7.16-7.15,7.49,7.49,0,0,0-4.24.67,4.36,4.36,0,0,0-2.27.94,8,8,0,0,0-2.72,4.66l-.11.11a3.86,3.86,0,0,0-2.88,2,5.53,5.53,0,0,0-1.72,1.23A4.75,4.75,0,0,0,76,11.4a6.56,6.56,0,0,0-2.35,1.49c-2.36-.69-4.31,1.09-5.17,3.39A5.13,5.13,0,0,0,65,15.18a6.12,6.12,0,0,0-4.1,2.06l-.35-.15L60.41,17a3.65,3.65,0,0,0-.66-.26,10.12,10.12,0,0,0-7.34-.21c-2.68.86-4.73,2.41-5.56,5.18a8,8,0,0,0-.19.8,6.23,6.23,0,0,0-6.15-2.11,5,5,0,0,0-3.14,2.29,6.83,6.83,0,0,0-3.15-3.39,4.86,4.86,0,0,0-.67.46,2.92,2.92,0,0,0-1.68-.47,2.53,2.53,0,0,0-1.59-.45,6.29,6.29,0,0,0-1.46.52,2.62,2.62,0,0,0-.3.26,4.15,4.15,0,0,0-.19-.48,5.61,5.61,0,0,0-1.59-.41A8.47,8.47,0,0,0,20,21.1c-2.37,0-3.78,1.61-4.6,3.59a5,5,0,0,0-1.54.42,6.2,6.2,0,0,0-.83.46c0,.12,0,.25,0,.37h-.18l-.21-.1a4.35,4.35,0,0,1-2,.89c-2.22.39-4.47.67-6.71,1H4a.78.78,0,0,0-.18.4,2.34,2.34,0,0,0-.37-.21,1.74,1.74,0,0,0-.16,2.89,2.64,2.64,0,0,0,.66,0l.21-.07a3.06,3.06,0,0,0,.31.3,3,3,0,0,1,4.49-.58l0,0,.06,0L12.13,30a4.5,4.5,0,0,0,2-.48,4.78,4.78,0,0,0,.46-.39,1.82,1.82,0,0,0,2.35,1.21l2.42-.85a1.83,1.83,0,0,0,1-2.42,4.46,4.46,0,0,0,2.34.71A1.79,1.79,0,0,0,24,27l1,.14a1.91,1.91,0,0,0,1.48,1.2,4.59,4.59,0,0,0,2.65-.4,4.38,4.38,0,0,0,6.89,2.15,5.91,5.91,0,0,0,2.72-.74,4.66,4.66,0,0,0,.39.68,4.63,4.63,0,0,0-2.37,3.52,1.9,1.9,0,0,0-.39,0,3.26,3.26,0,0,0-.6,0,2,2,0,0,0-1.57,1.07,1.75,1.75,0,0,0-.33-.37,3.79,3.79,0,0,0-1.13.19,2.62,2.62,0,0,0-1.52.06,1.86,1.86,0,0,0-.37,1.29,1.89,1.89,0,0,0,2,1.64,1.85,1.85,0,0,0,1.25-.68,1.74,1.74,0,0,0,.09-.15,2,2,0,0,0,1.85,1h.2a2,2,0,0,0,2.19-1.37c1.55.9,3.78.69,5.57.28a2.08,2.08,0,0,0,2.73,1.61A9.92,9.92,0,0,0,50.74,36l.19,0a5.18,5.18,0,0,0,4.49-1.66,5.3,5.3,0,0,0,5.79-1.48,3.87,3.87,0,0,0,.74.31,7.3,7.3,0,0,0,1.59,4.63c.23.29.8,0,.61-.33a9.22,9.22,0,0,1-.89-5.45,3.12,3.12,0,0,1,.55-.73,10.31,10.31,0,0,1,5.13-2.65,7.3,7.3,0,0,1,2.21-1.81A12.68,12.68,0,0,1,81.25,26l.29.13a15.28,15.28,0,0,0,0,4.53c0,.31.55.36.58,0a13.92,13.92,0,0,1,1.72-5.79c.15-.13.3-.26.46-.38a7.08,7.08,0,0,1,1-1.4A8.26,8.26,0,0,1,92,20.47a9,9,0,0,1,3.09.29,6.19,6.19,0,0,1,4.09,3.08,4.17,4.17,0,0,1,.8-.63,4,4,0,0,1,4.93.72,4.32,4.32,0,0,1,.42.52,10.64,10.64,0,0,1,1.14,3.85v.21a.31.31,0,0,0,0,.07,10.79,10.79,0,0,1-.09,2.38.29.29,0,0,0,.55.16,6.61,6.61,0,0,0,.58-3.24c.06.11.12.21.17.33a9,9,0,0,1,2.83-.44,3.53,3.53,0,0,1,3.2,2.23,3.42,3.42,0,0,1,.17.59A6.25,6.25,0,0,1,117.26,28a5.35,5.35,0,0,1,5.19,1.61,3.62,3.62,0,0,1,.53.43,3.25,3.25,0,0,1,.48.61A6.29,6.29,0,0,1,122,36c-.27.28.16.7.47.49a5.89,5.89,0,0,0,1.91-2.31,7.93,7.93,0,0,0,3.5-2.34,2.06,2.06,0,0,0,1.71,1.68,5.47,5.47,0,0,0,3.75-1,2.44,2.44,0,0,0,.42.28,3.76,3.76,0,0,0,2.17.41,2.16,2.16,0,0,0,2.15,1.42,3.84,3.84,0,0,0,3.65-2.73c1.41.07,3.16,1.27,4.12,1.94a2.16,2.16,0,0,0,3.2-.68c.07.14.13.28.21.42,1.12,1.86,4.14.55,3.88-1.48a4.26,4.26,0,0,0-.14-.65c1.13,1.65,2.37,2,4.39,2.52.46.13.92.24,1.38.34a2,2,0,0,0,.36-.2c1.36.56,2.93.3,3.31-1.32l.51.19a3.67,3.67,0,0,0,2.3.58l.25.16c1.31.67,2.74,0,3.83-.75S169.11,30.71,168.13,31.45ZM64.83,19.74l-.19-.24a1.79,1.79,0,0,1,.93,0A7.58,7.58,0,0,0,64.83,19.74ZM76.76,18a5.1,5.1,0,0,0,.07-.53q.15.31.34.62Z"/><path class="cls-3" d="M27.49,34.84a1.47,1.47,0,0,1,1.93.84,2.2,2.2,0,0,1,.35.2,2.13,2.13,0,0,1,.31-.55,1.61,1.61,0,0,0-.48-.68,1.93,1.93,0,0,0-1.1-.36,1.64,1.64,0,0,0-1.83,1.32A1.64,1.64,0,0,1,27.49,34.84Z"/><path class="cls-3" d="M28.39,37.51a2.3,2.3,0,0,0,.95-.22,1.58,1.58,0,0,0,.85-1.35,1.56,1.56,0,0,0-.12-.61,2.13,2.13,0,0,0-.31.55,2.2,2.2,0,0,0-.35-.2,1.47,1.47,0,0,0-1.93-.84,1.64,1.64,0,0,0-.83.77,1.67,1.67,0,0,0,0,.24A1.62,1.62,0,0,0,28.39,37.51Z"/><path class="cls-1" d="M21.24,18.6a4.26,4.26,0,0,0-4.3.24c-.64.45-1.8,1.7-1.5,2.61a.48.48,0,0,0-.16.06,5.8,5.8,0,0,0-2.81,4.27,5,5,0,0,0-4,.52A.89.89,0,0,0,8,26a1.23,1.23,0,0,0-1.12.31,1.48,1.48,0,0,0-.56.69,1.81,1.81,0,0,0-.92-.1,5.72,5.72,0,0,0-1.1.42,6.07,6.07,0,0,1-1.77.23c-1.14.09-2.66.44-2.33,1.9.05.24.45.31.47,0,.13-1.49,2.45-.76,3.42-1,.59-.15,1-.53,1.66-.51a13.76,13.76,0,0,1,1.6.44.5.5,0,0,0,.5-.74c1.57-.82,3-1.44,4.82-.71a.51.51,0,0,0,.71-.39,5,5,0,0,1,2.47-4.18.42.42,0,0,0,.18-.57l.12-.07a.21.21,0,0,0,.18-.07,1.21,1.21,0,0,0,.4-.12.3.3,0,0,0-.06-.51.55.55,0,0,0-.2-.06,2.08,2.08,0,0,1,1.28-1.4,2.75,2.75,0,0,1,2.14,0c-.12.14-.27.27-.37.37-.36.38.23,1,.64.67s.78-.65.78-1.07A.47.47,0,0,0,21.24,18.6Z"/><path class="cls-1" d="M37.92,24.52A7.69,7.69,0,0,0,37.85,23a.36.36,0,0,0-.12-.21,8.93,8.93,0,0,0-.32-1.13.33.33,0,0,0,.12-.34,5.31,5.31,0,0,0-4.88-4.15,6.86,6.86,0,0,0-3.36.5c-1.14.57-.49.69-1.55,0a2.76,2.76,0,0,0-1.46-.42c-.18,0-.31.28-.1.34a4.45,4.45,0,0,1,1.73,1c-.17.06-.23.35,0,.42l.43.29a.31.31,0,0,0,.42.07l.35-.17c.33,0,.7-.17,1.08-.24a7.83,7.83,0,0,1,2.74-.1,8.25,8.25,0,0,1,2,.7,5.15,5.15,0,0,1,.91.87A15.83,15.83,0,0,1,37,22.81a.3.3,0,0,0,.1.12.36.36,0,0,0,0,.11,8.32,8.32,0,0,1,.09,1.5.36.36,0,0,0,.7.11h0s0-.05,0-.08h0S37.92,24.54,37.92,24.52Z"/><path class="cls-1" d="M84.37,3.61a.2.2,0,0,0-.34-.2A9,9,0,0,0,82.13,8a7.9,7.9,0,0,0,1.34,4.4c.25.45.91,0,.65-.47a6.8,6.8,0,0,1-1.25-4.61A12.49,12.49,0,0,1,84.37,3.61Z"/><path class="cls-1" d="M48.3,26.57c-1.47-2.45-1.19-5.24-.29-7.83.11-.31-.34-.52-.48-.21-1.21,2.83-1.57,5.82,0,8.58C47.85,27.62,48.6,27.08,48.3,26.57Z"/><path class="cls-1" d="M44.75,31.68a16,16,0,0,0-3.7-.26,6,6,0,0,1-1.58-1.68,3.91,3.91,0,0,1,.09-3.36.42.42,0,0,0-.76-.34,4.51,4.51,0,0,0-.11,4,3.63,3.63,0,0,0,1,1.19.24.24,0,0,0,0,.32.13.13,0,0,0,0,0A5.32,5.32,0,0,0,37.25,33a3.23,3.23,0,0,0-3.35.89,4.43,4.43,0,0,0-4.08.61c-1.18-.59-2.05-.21-3.23.43-1,.52-2.73.12-2.85,1.65,0,.16.2.29.31.14.72-1,1.47-.33,2.43-.56,1.16-.28,1.56-1.59,3.05-.64a.54.54,0,0,0,.63,0A3.44,3.44,0,0,1,33.85,35a.54.54,0,0,0,.62-.15,2.24,2.24,0,0,1,2.72-.76.54.54,0,0,0,.62-.15c1.76-2,4.43-1.66,6.79-1.27A.5.5,0,0,0,44.75,31.68Z"/><path class="cls-1" d="M169.31,31.39a1.2,1.2,0,0,0-1,0,2.07,2.07,0,0,0-1.52.45,1.36,1.36,0,0,0-.27-.4,1.1,1.1,0,0,0,0-.26,1.59,1.59,0,0,0-2.46-.56,1.9,1.9,0,0,0-.41-.19,2.07,2.07,0,0,0-.93-.11c-.49-.12-1-.22-1.44-.34h-.09l0,0c-.1-.22-.49-.17-.44.1a2.49,2.49,0,0,0,.08.32s0,0,0,0c-.25-.18-.43-.54-.63-.69a2.05,2.05,0,0,0-.79-.36c-.33-.08-.68-.05-1-.11-.63-.1-.91-.48-1.43-.76a1.14,1.14,0,0,0-1.4.17,1.27,1.27,0,0,0-2.17-.34,4.34,4.34,0,0,0-2.28-1.27,3.68,3.68,0,0,0-2.3,1,5.66,5.66,0,0,0-3.61-4.38,6.83,6.83,0,0,0-8.6,3.4c-.27.57.63,1,.9.4a5.78,5.78,0,0,1,7.12-2.93,5.06,5.06,0,0,1,2.91,7c-.21.39.4.63.62.27a5.44,5.44,0,0,0,.72-3.38h0a4.33,4.33,0,0,1,2.48-.44,5.29,5.29,0,0,1,1.85,1.42c.26.26.65,0,.72-.28l.73.22c-.1.58.75.7.89.14,0,0,0,0,0-.07a.14.14,0,0,0,.16,0c.42-.64,1.6.49,2.07.65a5.55,5.55,0,0,0,.78.13,2.59,2.59,0,0,1,1.36.68c.45.38,1,.89,1.51.51l0,0a1,1,0,0,0,.31.15,2,2,0,0,0,.53,0,2.12,2.12,0,0,1,1.5.5.41.41,0,0,0,.62-.15,1.44,1.44,0,0,0,.07-.28.48.48,0,0,0,.16.07,1.17,1.17,0,0,1,.43.24.36.36,0,0,0,.23.18.86.86,0,0,0,.53.21l.3.41a.42.42,0,0,0,.73.22.89.89,0,0,1,.92-.56.93.93,0,0,0,.46.48.34.34,0,0,0,.33,0l.08.09A.37.37,0,0,0,169,33C169.89,33.18,170.27,31.81,169.31,31.39Z"/><path class="cls-1" d="M118.7,17.24a4.6,4.6,0,0,0-3.68-.08,7.75,7.75,0,0,0-1.08-4c-1.8-2.79-6.56-3.94-9.3-1.92-.17.13-.08.46.16.42,2.61-.5,5.19-.83,7.4,1.06s2.73,6.59-.27,8a.47.47,0,0,0,.33.88,3.55,3.55,0,0,0,2.6-2.87h0a.27.27,0,0,0,0-.06c0-.1,0-.2.05-.3.28-.4,1.42-.61,1.67-.61a4,4,0,0,1,.91.08,4.49,4.49,0,0,1,2.29,1.22,4.94,4.94,0,0,1,1,5,.26.26,0,0,0,.47.21A5.07,5.07,0,0,0,118.7,17.24Z"/></svg>