<svg id="Layer_1" data-name="Layer 1" xmlns="http://www.w3.org/2000/svg" viewBox="0 0 207.35 46.97"><defs><style>.cls-1{fill:#eef3f6;}.cls-2{fill:#f4f7f9;}.cls-3{fill:#eaf0f3;}</style></defs><title>fog-cloud-m</title><path class="cls-1" d="M202.71,35a5.12,5.12,0,0,1,.49-.48c-1.08-.08-2.15-.21-3.22-.33a5.5,5.5,0,0,1,.94.66A3.18,3.18,0,0,0,202.71,35Z"/><path class="cls-2" d="M167.85,24.27c-.34-2.35-1.91-4.61-4.4-5a7.3,7.3,0,0,0-2.7.2A11.42,11.42,0,0,0,156,12.19a9,9,0,0,0-8.59-3.69c-.25,0-.5.09-.75.14l-.37-.25A15.49,15.49,0,0,0,142,6.64a7.55,7.55,0,0,0-.37-1.32A8.66,8.66,0,0,0,132.9,0,12.52,12.52,0,0,0,128,1.49,15,15,0,0,0,115.84,5a9.34,9.34,0,0,0-3.26,6c-3-1.37-6.78-.58-9.89,1.42a13.19,13.19,0,0,0-5.27,1.19,13,13,0,0,0-1.53-1.17,10,10,0,0,0-2-1,5.75,5.75,0,0,0-5.31-3.82c-5-.44-8.69,4.55-9.72,9.11a9.37,9.37,0,0,0-1.74,2,8.9,8.9,0,0,0-1.22,2.85,8.06,8.06,0,0,0-2.51-.09,9.48,9.48,0,0,0-5.93,3.21,9.59,9.59,0,0,0-4.94.67,7.24,7.24,0,0,0-1.55,1c-1,.26-1.92.55-2.88.86a6,6,0,0,0-10-.08q-.14.19-.27.4c-.2.07-.4.14-.6.23a8,8,0,0,0-5.85.63,6.93,6.93,0,0,0-3-.9c-2.07-.12-4.17,1.38-6.1,1a3,3,0,0,0-1.8.17,4,4,0,0,0-.51-.45,4.52,4.52,0,0,0-3.16-.76h0a5.58,5.58,0,0,0-.73-.38,4.94,4.94,0,0,0-3.5.1,3.42,3.42,0,0,0-1,.51A2.32,2.32,0,0,0,19.16,27a11.06,11.06,0,0,0-1.17.65A2.36,2.36,0,0,1,16,28a3.22,3.22,0,0,0-2.42.09c-1.38.56.78,1.27-2.43.71a9.65,9.65,0,0,0-2-.52,3,3,0,0,0-2.27,1.07,2.67,2.67,0,0,0-.32.54L7,30a1.45,1.45,0,0,1,.71-.52,10.25,10.25,0,0,1,1.05-.27,2.89,2.89,0,0,0,1,.15l.43,0a3.7,3.7,0,0,0,1.16-.08l.14,0a4.14,4.14,0,0,0,.36.27c2.26,1.47,5,.68,7.5-.18a3.88,3.88,0,0,0,1-.06c4.66-.88,9.25,1.62,13.87,2a53.33,53.33,0,0,0,11.36-.37,11.1,11.1,0,0,0,4.84-1.47C51,29,52,27.81,52.63,27.65s1.76.32,2.46.38c1.32.11,2.26.73,3.77.7a4.26,4.26,0,0,0,2.4-.8,8.4,8.4,0,0,0,1.67.11,7.15,7.15,0,0,0,3.7-1.18c6.21-1.09,10.73-4.35,14.92-8.79A3.83,3.83,0,0,0,86.67,15c.75-.4,1.52-.76,2.3-1.1l.29,0,.46,0a12.94,12.94,0,0,0,2.11.29,3.31,3.31,0,0,0,.58,0,16.46,16.46,0,0,0,5.86,2,3.14,3.14,0,0,0,2.28-.67,20,20,0,0,0,2.38.07,37,37,0,0,0,8.45-1.18l.12,0A3.82,3.82,0,0,0,115.39,13c3.93-1.69,7.86-4.55,12.2-4.94a17.7,17.7,0,0,1,3.06,0,5.8,5.8,0,0,0,5,2.34,4.8,4.8,0,0,0,3.76-.53l2.7.78c4.59,1.31,8.89,3.16,12.15,6.76,3,3.29,5.46,6.13,9.58,8a35.93,35.93,0,0,0,5,1.84,7.38,7.38,0,0,0-.88-.93A10.06,10.06,0,0,0,167.85,24.27Z"/><path class="cls-2" d="M200,34.2a4.3,4.3,0,0,0-2.89-.48,1.06,1.06,0,0,0-.77-.48,9.84,9.84,0,0,0-1.67,0,3.54,3.54,0,0,0-3.32-1.33,2.72,2.72,0,0,0-2.68.91,2.78,2.78,0,0,0-1-.55c2.17,1.45,4.93,1.6,7.7,1.6A41.28,41.28,0,0,1,200,34.2Z"/><path class="cls-3" d="M202.13,35.78a3.75,3.75,0,0,0-2.31-1c.76.05.19,0-.05-.07a5.65,5.65,0,0,0-1.22-.21,4.47,4.47,0,0,0-2.42-.58,5,5,0,0,0-2.29.64c-.17.1-.32.21-.47.32l-.33.24-.16.11a4.56,4.56,0,0,0-.74.65,6.56,6.56,0,0,0-2.77-.7,6.32,6.32,0,0,0-2.34.45,4.21,4.21,0,0,0-.81-1.38,3.94,3.94,0,0,0-2.49-1.08,4.58,4.58,0,0,0-2,.52,4.09,4.09,0,0,0-.79.59A3.49,3.49,0,0,0,180,35a3,3,0,0,0-.8,1.21,3.45,3.45,0,0,0-.25.71l-.54.31s0,0,0,0l-.05-.3,0-.07a3.63,3.63,0,0,0-1.56-4,3.7,3.7,0,0,0-1.36-.44,3.18,3.18,0,0,0-.74-.07,9.51,9.51,0,0,0-4.35,1,7.29,7.29,0,0,0-1.72,1.27,3.42,3.42,0,0,0-.61.82,6.06,6.06,0,0,0-2.14-2.65,9.25,9.25,0,0,0-8.84-.59l-.21.11a8.3,8.3,0,0,0-10-7,10.85,10.85,0,0,0-5.41-.35,7.07,7.07,0,0,0-2.5,1.09,11.51,11.51,0,0,0-1.44-3.23c-3.24-5-9.15-7.17-15-6.75-8.81.64-21.4,7.51-22.89,16.8a7.22,7.22,0,0,0-7.1.67c-.82-6-7.38-9.21-12.94-7.27a12.14,12.14,0,0,0-7.07,6.58,12.5,12.5,0,0,0-7.6-1.88A7,7,0,0,0,60.28,33a3.77,3.77,0,0,0-.68-.58c-2.1-1.37-5.17-1.76-7.11.14a5.11,5.11,0,0,0-.35.38,3.51,3.51,0,0,0-2.59,4.45l-.32,0a3.54,3.54,0,0,0-.3-.74,5.59,5.59,0,0,0-.59-.84l-.06-.12a4.63,4.63,0,0,0-3.39-2.53,6,6,0,0,0-1.9.11h0l-.47.07.24,0a3.8,3.8,0,0,0-2.67,2c-1.24.06-2.48.32-3.74.45a3.4,3.4,0,0,0-1.5-2,6.65,6.65,0,0,0-3.19-.91c-.6,0-1.21.07-1.81.08a3.87,3.87,0,0,0-2.31.85,2.45,2.45,0,0,1-.19-.88L25.78,33a3.3,3.3,0,0,0-.25-.32A3.6,3.6,0,0,0,23,31.58l-.25,0a3.35,3.35,0,0,0-2.64-1.3H17.89a3.68,3.68,0,0,0-2.52,1,3.76,3.76,0,0,0-1,1.91,14,14,0,0,1-1.54.15A3.08,3.08,0,0,0,12,32a3.63,3.63,0,0,0-2.49-1.08H8.88a3.68,3.68,0,0,0-2.52,1,3.74,3.74,0,0,0-.83,1.26,17.53,17.53,0,0,1-2-.51,1.37,1.37,0,0,1-1-1.13,2.4,2.4,0,0,1-.5,0,1.22,1.22,0,0,0-.15-.16l-.11-.1a1,1,0,0,0-1.17,0l-.11.08A1,1,0,0,0,.14,32.6c.38.86,1.28.91,2.24.78a1.4,1.4,0,0,0,.18.45.72.72,0,0,0,.4.3,1.38,1.38,0,0,0,1.77.06,1.44,1.44,0,0,0,.36-.38,2,2,0,0,0,1.37.28h.06a1.91,1.91,0,0,0,2.1,1.32,1.13,1.13,0,0,0,.93-1v-.23l.25,0a1.85,1.85,0,0,0,.84-.5h.28l.6-.06s0,.08,0,.13c.19,1.45,2.21,1.82,3.23,1a1.93,1.93,0,0,0,.68-1.06,4,4,0,0,0,.76-.71,3.06,3.06,0,0,0,.72-.34,1.89,1.89,0,0,0,.87,1,2.88,2.88,0,0,0,2.62.36,6.15,6.15,0,0,0,1.19,1.33,5,5,0,0,0,3.78,1,4.6,4.6,0,0,0,1.41-.48h.08a4.66,4.66,0,0,0,2.46,2.57,9.34,9.34,0,0,0,3.51.78,4.26,4.26,0,0,0,1.43.9,5.54,5.54,0,0,0,4.09-.24l0,0a6.22,6.22,0,0,0,2,1,13,13,0,0,0,8.36.54,3.51,3.51,0,0,0,4.13-.66,45.83,45.83,0,0,0,5.86.17l2.39,1.43a5.21,5.21,0,0,0,6.06-.14c1.32-1,4.38,0,5.92,0,1.94,0,4.8,0,6.71-1a5.5,5.5,0,0,0,1.31.8,6.81,6.81,0,0,0,5.07.06c2.53.76,4.8,1.29,6.24,1.62.8.18,1.63.34,2.47.46a18.49,18.49,0,0,0,9.17,2.31,16.84,16.84,0,0,0,8.54-2.59l.06.08a4.4,4.4,0,0,0,1.63,1.5,4.91,4.91,0,0,0,1.67.78,6.79,6.79,0,0,0,3.23,0,5.64,5.64,0,0,0,2.49-1.45l.88-1.14a4.33,4.33,0,0,0,.46-1,8.32,8.32,0,0,0,3.13,1.14,8.84,8.84,0,0,0,5.37-.93c5.36,3.5,11.71,5.5,17.33,2A5.54,5.54,0,0,0,151,46.48a2.78,2.78,0,0,0,1.41.38,2.81,2.81,0,0,0,1.48,0A4.15,4.15,0,0,0,156,46.2l1.13-.87L158,44.2q.16-.36.31-.73a2.73,2.73,0,0,0,.37-1.39v0a6.6,6.6,0,0,0,2.69.13c.22,0,.44-.09.65-.15a5.14,5.14,0,0,0,9,1.59,6.49,6.49,0,0,0,.7-1.11,7.33,7.33,0,0,0,3,1.92,7.09,7.09,0,0,0,4,.16,6.4,6.4,0,0,0,4.39-4.07,17.82,17.82,0,0,0,4.89.15c1.67-.22,3.74-1.42,5.43-.9a3,3,0,0,0,3.81-2.06,2,2,0,0,0,2.94-.2,4,4,0,0,0,.65-.45,8.65,8.65,0,0,0,2,.27,2.06,2.06,0,0,0,.73-.24,1.07,1.07,0,0,0,1,.47c1.41-.11,3.85-1.22,1.88-2.86a1.93,1.93,0,0,0-2.18-.42c-.6.18-.76.24-1.13.32A12.41,12.41,0,0,0,202.13,35.78Z"/><path class="cls-2" d="M180,30.6l.38.08a3.55,3.55,0,0,0,2.29.91H183a3.76,3.76,0,0,0,1.34-.25l1.31.15a4.59,4.59,0,0,0-5.38-1.94,8,8,0,0,0-7-3.14,11,11,0,0,0-3.91,1,28.79,28.79,0,0,0,3.63.73A25.13,25.13,0,0,0,180,30.6Z"/><path class="cls-1" d="M186,32.19a3.31,3.31,0,0,1,1.67.07,7.19,7.19,0,0,1-.86-.67l-1.17-.1.14.23C185.82,31.87,185.89,32,186,32.19Z"/><path class="cls-1" d="M4.52,31.19a1.91,1.91,0,0,1,.92-.53,1.62,1.62,0,0,1,1,0,2.06,2.06,0,0,1,.19-.78,11,11,0,0,1-1.71-.37,1.91,1.91,0,0,0-2.43,2c.45-.08.92-.25,1.32-.31A4.55,4.55,0,0,1,4.52,31.19Z"/><path class="cls-1" d="M169.3,27.38l-.49-.14.21.26Z"/><path class="cls-1" d="M154.22,17.41c-3.25-3.59-7.56-5.44-12.15-6.76l-2.7-.78a4.8,4.8,0,0,1-3.76.53,5.8,5.8,0,0,1-5-2.34,17.7,17.7,0,0,0-3.06,0c-4.34.4-8.27,3.25-12.2,4.94a3.82,3.82,0,0,1-3.89,1.38l-.12,0a37,37,0,0,1-8.45,1.18,20,20,0,0,1-2.38-.07,3.14,3.14,0,0,1-2.28.67,16.46,16.46,0,0,1-5.86-2,3.31,3.31,0,0,1-.58,0,12.94,12.94,0,0,1-2.11-.29l-.46,0-.29,0c-.78.34-1.54.7-2.3,1.1a3.83,3.83,0,0,1-5.13,3.12c-4.19,4.44-8.71,7.7-14.92,8.79A7.15,7.15,0,0,1,62.92,28a8.4,8.4,0,0,1-1.67-.11,4.26,4.26,0,0,1-2.4.8c-1.51,0-2.44-.6-3.77-.7-.69-.06-1.75-.54-2.46-.38S51,29,50.39,29.41a11.1,11.1,0,0,1-4.84,1.47,53.33,53.33,0,0,1-11.36.37c-4.61-.42-9.21-2.92-13.87-2a3.88,3.88,0,0,1-1,.06c-2.51.87-5.24,1.66-7.5.18a4.14,4.14,0,0,1-.36-.27l-.14,0a3.7,3.7,0,0,1-1.16.08l-.43,0a2.89,2.89,0,0,1-1-.15,10.25,10.25,0,0,0-1.05.27A1.45,1.45,0,0,0,7,30l-.38-.06a2.06,2.06,0,0,0-.19.78,1.62,1.62,0,0,0-1,0,1.91,1.91,0,0,0-.92.53,4.55,4.55,0,0,0-.75.06c-.4.06-.86.23-1.32.31a1.37,1.37,0,0,0,1,1.13,17.53,17.53,0,0,0,2,.51,3.74,3.74,0,0,1,.83-1.26,3.68,3.68,0,0,1,2.52-1h.64A3.63,3.63,0,0,1,12,32a3.08,3.08,0,0,1,.8,1.33,14,14,0,0,0,1.54-.15,3.76,3.76,0,0,1,1-1.91,3.68,3.68,0,0,1,2.52-1h2.25a3.35,3.35,0,0,1,2.64,1.3l.25,0a3.6,3.6,0,0,1,2.49,1.08,3.3,3.3,0,0,1,.25.32l1.52-.15a2.45,2.45,0,0,0,.19.88,3.87,3.87,0,0,1,2.31-.85c.6,0,1.2-.1,1.81-.08a6.65,6.65,0,0,1,3.19.91,3.4,3.4,0,0,1,1.5,2c1.26-.13,2.5-.38,3.74-.45a3.8,3.8,0,0,1,2.67-2l-.24,0,.47-.07h0a6,6,0,0,1,1.9-.11,4.63,4.63,0,0,1,3.39,2.53l.06.12a5.59,5.59,0,0,1,.59.84,3.54,3.54,0,0,1,.3.74l.32,0a3.51,3.51,0,0,1,2.59-4.45,5.11,5.11,0,0,1,.35-.38c1.94-1.89,5-1.51,7.11-.14a3.77,3.77,0,0,1,.68.58,7,7,0,0,1,4.67-2.17,12.5,12.5,0,0,1,7.6,1.88,12.14,12.14,0,0,1,7.07-6.58c5.56-1.95,12.12,1.26,12.94,7.27a7.22,7.22,0,0,1,7.1-.67c1.49-9.29,14.08-16.16,22.89-16.8,5.81-.42,11.73,1.7,15,6.75a11.51,11.51,0,0,1,1.44,3.23,7.07,7.07,0,0,1,2.5-1.09,10.85,10.85,0,0,1,5.41.35,8.3,8.3,0,0,1,10,7l.21-.11a9.25,9.25,0,0,1,8.84.59A6.06,6.06,0,0,1,168,35.33a3.42,3.42,0,0,1,.61-.82,7.29,7.29,0,0,1,1.72-1.27,9.51,9.51,0,0,1,4.35-1,3.18,3.18,0,0,1,.74.07,3.7,3.7,0,0,1,1.36.44,3.63,3.63,0,0,1,1.56,4l0,.07.05.3s0,0,0,0l.54-.31a3.45,3.45,0,0,1,.25-.71A3,3,0,0,1,180,35a3.49,3.49,0,0,1,.89-.66,4.09,4.09,0,0,1,.79-.59,4.58,4.58,0,0,1,2-.52,3.94,3.94,0,0,1,2.49,1.08,4.21,4.21,0,0,1,.81,1.38,6.32,6.32,0,0,1,2.34-.45,6.56,6.56,0,0,1,2.77.7,4.56,4.56,0,0,1,.74-.65l.16-.11.33-.24c.16-.11.31-.22.47-.32a5,5,0,0,1,2.29-.64,4.47,4.47,0,0,1,2.42.58,5.65,5.65,0,0,1,1.22.21c.24.06.81.12.05.07a3.75,3.75,0,0,1,2.31,1,4.91,4.91,0,0,1,.58-.76,3.18,3.18,0,0,1-1.79-.16,5.5,5.5,0,0,0-.94-.66,41.28,41.28,0,0,0-4.64-.34c-2.77,0-5.53-.16-7.7-1.6a3.31,3.31,0,0,0-1.67-.07c-.07-.16-.14-.32-.22-.47l-.14-.23-1.31-.15a3.76,3.76,0,0,1-1.34.25h-.32a3.55,3.55,0,0,1-2.29-.91L180,30.6a25.13,25.13,0,0,1-7-2.49,28.79,28.79,0,0,1-3.63-.73l-.28.12-.21-.26a35.93,35.93,0,0,1-5-1.84C159.68,23.54,157.2,20.7,154.22,17.41Z"/><path class="cls-2" d="M33.92,29.42c-1.09-.42-2.5.18-3.51,1h0a.36.36,0,0,0-.3-.31.57.57,0,0,0-.59.22c-2-1.85-5.77-2-8.25-1.94a18.66,18.66,0,0,0-4.77.68,8.8,8.8,0,0,0-1.56.6.5.5,0,0,0-.58-.16c-.8.28-1.89-.4-2.65-.61a7.47,7.47,0,0,0-2.08-.29,5.59,5.59,0,0,0-2,.3c-.64.26-.8.65-1.63.56s-1.7-.57-2.69-.1A2.18,2.18,0,0,0,2.06,31.1C1.16,30.91.25,31,0,32c0,.14.15.19.24.1a1.7,1.7,0,0,1,2-.17.41.41,0,0,0,.57-.41c0-1.72,1.66-1.59,2.75-1.19a3,3,0,0,0,1,.33c.87,0,1.53-.85,2.35-1,1.39-.28,2.67.48,3.94.81.21.23.42.46.62.7a.3.3,0,0,0,.41.06,14.73,14.73,0,0,1,7.23-1.87,18.66,18.66,0,0,1,3.8.26c1.27.22,3.21.52,4.07,1.6a.52.52,0,0,0,.65.14.15.15,0,0,0,.19,0,14.54,14.54,0,0,1,2.11-1,12.27,12.27,0,0,0,2.05-.6A.25.25,0,0,0,33.92,29.42Z"/><path class="cls-2" d="M55,26.93h-.18a4.45,4.45,0,0,0-2.52.62,7.41,7.41,0,0,0-1.62,1,.4.4,0,0,0-.34.12,2.18,2.18,0,0,0-.51.64.6.6,0,0,0,0,.1,16.92,16.92,0,0,0-5.65.41c-2.26.54-4.81,1.35-5.9,3.59-.13.27.24.46.43.26,3.1-3.43,9.38-3.93,13.54-2.67.67.2,1.12-.71.45-1-.29-.13-.56-.27-.83-.41a3.23,3.23,0,0,1,1-1.06A6.83,6.83,0,0,1,55,28C55.58,28,55.63,27,55,26.93Z"/><path class="cls-2" d="M207.26,35.93l0,0c-.54-2.46-4.27-1.37-6-1.62-.71-.1-1.37-.57-2.08-.64-.54-.05-.85.17-1.37.08-1.18-.21-1.75-.82-3-.18l0,0a2.65,2.65,0,0,0-.49.11.42.42,0,0,0-.13-.22c-.92-.82-3.93-1.38-4.64-.09l-.26-.19a.42.42,0,0,0,.09-.65c-1.15-1.32-3.45-2.16-5-1.06a11.59,11.59,0,0,0-8-2.28.5.5,0,0,0-.52-.6,2.47,2.47,0,0,0-1.16.22A2.92,2.92,0,0,0,171,27.44a.43.43,0,0,0-.24.19,13.77,13.77,0,0,0-3.74-1.2A15.43,15.43,0,0,0,165.84,25c-.26-.28-.78-.07-.63.34l.1.27-.07,0a.27.27,0,0,0-.41,0,.36.36,0,0,0,.2.61c0,.11,0,.21,0,.32l0,.05a7.53,7.53,0,0,0-3.91-3.95,9.29,9.29,0,0,0-1.46-.86,8.19,8.19,0,0,0-1.12-.49.51.51,0,0,0-.27-.84l-.3,0a.43.43,0,0,0-.24-.05,3.7,3.7,0,0,0-.36-1.35.41.41,0,0,0-.77.29c0,.05,0,.1,0,.16h0l-1.38-1.15a15.7,15.7,0,0,0-2.38-3.9c-.28-.34-.93-.06-.72.39l.21.47-.57-.53a15.56,15.56,0,0,0-3.69-2.52l0,0c-3.26-2.05-8.46-4.47-11.92-1.6l0,0a14.23,14.23,0,0,0-7.51-3.11A15.2,15.2,0,0,0,121.1,9.3a22.67,22.67,0,0,0-7,4.63.2.2,0,0,0,.09.33,22.51,22.51,0,0,0-7.74-.16c-2.11.34-4.92.84-6.32,2.63l-.06-.06a.22.22,0,0,0,0-.11,4.7,4.7,0,0,0,.72-.59.37.37,0,0,0,.1-.16,17.56,17.56,0,0,1,2.37-1.2.39.39,0,0,0,.18-.06l.4-.18c.59-.17.25-1.13-.34-.9a17,17,0,0,0-4.34,2.47,13,13,0,0,0-6.41-2.39,9.23,9.23,0,0,0-5.17.66c-1,.56-2.24,1.72-2,3a8,8,0,0,0-4.42.78c-2.57,1.33-4.22,4.41-4.78,7.15-.11.55.74.68.86.14a9.75,9.75,0,0,1,6-7l0,0a10.26,10.26,0,0,1,5.56.89.55.55,0,0,0,.44-1,12.79,12.79,0,0,0-3.4-.93c1-1.24,1.59-2.24,3.36-2.59a12,12,0,0,1,4.66.16c3.33.7,5.32,2.53,7,5.36.31.52,1,0,.88-.47a6.45,6.45,0,0,0-1.3-2.45c1.88-1.46,4.5-2,6.8-2.22a21.38,21.38,0,0,1,8.1.71c.72.2.92-1,.18-1.16-.46-.12-.93-.21-1.39-.3a.22.22,0,0,0,.11,0c4.26-2.51,8.69-6.18,14-5.76a12.06,12.06,0,0,1,6.25,2.45c1.86,1.4,2.85,3.16,4.21,5a.44.44,0,0,0,.77-.41,9.62,9.62,0,0,0-2.47-3.87c3.12-.14,5.93-.33,8.93.83.5.19,1,.42,1.54.68l.63.43a13.91,13.91,0,0,1,6.2,10.34l0,.06c-.09.33.25.58.55.55a.2.2,0,0,0,.2,0,6.71,6.71,0,0,1,5.1,0,9.49,9.49,0,0,1,1.44,1.1c.16.2.32.39.48.61a.46.46,0,0,0,.27.18,10,10,0,0,1,2.1,4,.21.21,0,0,0,.32.12.52.52,0,0,0,.78-.31h0s0-.08,0-.12h0a7.72,7.72,0,0,0,0-1.13,4.7,4.7,0,0,1,1.83-.61.33.33,0,0,0,.4,0h0c.4,0,.81.06,1.2.1a14.4,14.4,0,0,1,5.12,2.5.52.52,0,0,0,.25.08,4,4,0,0,0-.45.7.26.26,0,0,0,.44.27c2.1-2.76,6.3-.89,8.21,1.06.38.39,1.08-.27.7-.67l-.27-.27c.24.13.49.25.73.39a.38.38,0,0,0,.32,0,.44.44,0,0,0,.27,0,7,7,0,0,1,5,1.72.38.38,0,0,0,.61-.24c0-.54,1.27-.54,1.57-.54a3,3,0,0,1,1.92.52,2.13,2.13,0,0,0-.7,1.28.24.24,0,0,0,.14.25l.12.06a.2.2,0,0,0,.23-.06l.06-.09a.13.13,0,0,0-.08-.2,4,4,0,0,1,1.11-.75,1.89,1.89,0,0,1,1.38-.15,2.56,2.56,0,0,1,1.95,1.23.45.45,0,0,0,.79-.19c.24-.86,1.77.17,2.14.28a3.56,3.56,0,0,0,1.37.06,7,7,0,0,1,2.13.13,12.38,12.38,0,0,1,2,.39v.07a.45.45,0,0,0,.37.39h0a.51.51,0,0,0,.65-.24h0A.47.47,0,0,0,207.26,35.93Z"/><path class="cls-1" d="M117,15.46a8.37,8.37,0,0,0-.79-.8l-.05,0-.2-.18a.25.25,0,0,0-.19-.07l-.3-.14L115.2,14c-.34-.26-.77.27-.42.53a5,5,0,0,1,1.37,1.58c.17.31.59.07.57-.23C116.95,15.9,117.17,15.66,117,15.46Z"/><path class="cls-1" d="M101.3,17.4h0l0-.08h0c-.23-.33-.83,0-.56.4a4.72,4.72,0,0,1,.81,3,.18.18,0,0,0,.36.06A4.71,4.71,0,0,0,101.3,17.4Z"/><path class="cls-1" d="M91.55,19.32c-.88-1-2.48-1.06-3.74-1.27a7.66,7.66,0,0,0-4.72.37c-.33.16-.36.74.08.78l3.24.28c.41,0,1.09,0,1.74.05l0,0a4.87,4.87,0,0,1,1.57.47.42.42,0,0,0,.43-.71,1.53,1.53,0,0,0-.4-.26,3.16,3.16,0,0,1,1.47.55C91.43,19.75,91.7,19.5,91.55,19.32Z"/><path class="cls-1" d="M81.15,20.22a5.18,5.18,0,0,0-2.65,2,12.75,12.75,0,0,0-1.16,1.56c-.38.63-.56,1.33-.89,2-.16.32.32.51.49.22a21.74,21.74,0,0,1,1.94-3,11.19,11.19,0,0,1,2.5-2.13C81.65,20.65,81.49,20.15,81.15,20.22Z"/></svg>