<svg id="Layer_1" data-name="Layer 1" xmlns="http://www.w3.org/2000/svg" viewBox="0 0 95.61 35.5"><defs><style>.cls-1{fill:#eaf0f3;}.cls-2{fill:#f4f7f9;}.cls-3{fill:#eef3f6;}</style></defs><title>fog-cloud-c</title><path class="cls-1" d="M.51,27.06a.81.81,0,0,0,.75.68v0a9.89,9.89,0,0,0,2.21,0A1,1,0,0,0,4,27.49a1.57,1.57,0,0,0,1.36,1c1.64.17,3.28.29,4.93.38A1.52,1.52,0,0,0,11,29a103.22,103.22,0,0,0,12.87-.21l1.26,0,.05.05c1.49,1.4,5.57,3.23,8.31,2.79a5.18,5.18,0,0,0,4.13.85,6.91,6.91,0,0,0,2.47-1.73,53.54,53.54,0,0,0,6.63.58A10.7,10.7,0,0,0,48,32.87a8.71,8.71,0,0,0,6,2.63c2.56.05,6.06-1.61,7-4.08h0c4.39,1.2,9.11,1.06,12.81-1.42l.42,0A6.27,6.27,0,0,0,78,31.56a3,3,0,0,0,3-1.42,1.84,1.84,0,0,0,.11-.38,3.33,3.33,0,0,0,.73-.5,9.23,9.23,0,0,1,1.54.17,8.77,8.77,0,0,0,3.45.4,3.78,3.78,0,0,0,1.88-1,.67.67,0,0,0,.69.07,3.73,3.73,0,0,0,.58-.37,2.54,2.54,0,0,0,2.51,0l-1.73,0-1.25,0c-.29-.22-.78-.59-.84-.65a5.81,5.81,0,0,0-1.34-.67,3.4,3.4,0,0,0-2-1.8,1.29,1.29,0,0,1-.17.16.78.78,0,0,1-.33-.06c0-.07,0-.14,0-.21a4.09,4.09,0,0,0-1.51,0,4.08,4.08,0,0,1-1.73-.14,4.09,4.09,0,0,0-1.08-1.06h.06L80.31,24a3.58,3.58,0,0,0-.73-.31,4.21,4.21,0,0,0-3.67.11,3.56,3.56,0,0,0-.4.27,3.51,3.51,0,0,0-1.64-3.46c-1.65-.92-3.62-1.57-5.38-.5a4.07,4.07,0,0,0-1,.9,3.48,3.48,0,0,0-2.07-3.48,3.25,3.25,0,0,0-2.3-.22l-.57.23A3.84,3.84,0,0,0,60.8,18a3.89,3.89,0,0,0-1.37-.78,3.44,3.44,0,0,0-.57-.11,6,6,0,0,0-1.36-3,7,7,0,0,0-5.6-2.42,3.87,3.87,0,0,0-3.18.14,3.67,3.67,0,0,0-2.12,2.6,5.93,5.93,0,0,0-1.2,2.49,3,3,0,0,0-.77-1.24,3.61,3.61,0,0,0-4.48-.49A8.91,8.91,0,0,0,38.9,16a4.23,4.23,0,0,0-1.32,3,2.9,2.9,0,0,0,0,.42,3.15,3.15,0,0,1-1.17.39,3.36,3.36,0,0,0-2-1.57A10.17,10.17,0,0,0,32.92,18a3.75,3.75,0,0,0-2.78.21,3.65,3.65,0,0,0-2.77,2.56,3.1,3.1,0,0,0-.68-.08A4.49,4.49,0,0,0,22.64,23a4,4,0,0,0-.51,2,4,4,0,0,1-1.72.94,2.13,2.13,0,0,1-2-.49,2,2,0,0,1-2,.45,2,2,0,0,1-1.75.89,3.85,3.85,0,0,1-1.08-.21,1.5,1.5,0,0,1-2.44.64,4,4,0,0,1-.53-.65l-.33.72a1.62,1.62,0,0,1-2.55-.06c-.42-.59-5.06-.13-4.76-.36a1.36,1.36,0,0,1-2.16-.59A.91.91,0,0,0,.51,27.06Zm29.56,1.85.25.31c-.31-.1-.61-.21-.91-.33Z"/><path class="cls-1" d="M88.7,27.88l.1.06Z"/><path class="cls-2" d="M83.33,23.6l.18.17a3.19,3.19,0,0,1,.83.61c.2,0,.41,0,.62-.05a2.73,2.73,0,0,0-.6-1.58,2.93,2.93,0,0,0-1.14-.85A4,4,0,0,1,83.33,23.6Z"/><path class="cls-2" d="M10.84,23.23a3.13,3.13,0,0,1,.27-.25,3.47,3.47,0,0,1,1.33-2.36,3.61,3.61,0,0,1,5.1.34l.29-.13a2.49,2.49,0,0,1,.17-1.4c1.18-2.73,3.17-1.86,5-.18a1.94,1.94,0,0,1,.94,0,5.49,5.49,0,0,1,2.74-4.63,4.38,4.38,0,0,1,3-.61,4,4,0,0,1,1.66-.67,4.61,4.61,0,0,1,.22-3.73A4.12,4.12,0,0,1,36,8a3.89,3.89,0,0,1,2.31,1.52,6.26,6.26,0,0,1,1.21.31,5.12,5.12,0,0,1,4.21-3.42A4.72,4.72,0,0,1,45.94,4.5a5.7,5.7,0,0,1,5,.66h0C53.86,1.94,58.66,4,59.59,7.91c0,0,0,.09,0,.14a4.37,4.37,0,0,1,4,.07,3.55,3.55,0,0,1,4.71-.33c4.06-.33,7.11,3.78,5.81,8a4.66,4.66,0,0,1-.41.91,5.59,5.59,0,0,1,1,.31,5.56,5.56,0,0,1,3.5,1.11,5.81,5.81,0,0,1,1,.91,5,5,0,0,1,2.22.62A3.87,3.87,0,0,1,82.82,21a3.3,3.3,0,0,0-.29-2.48A3.06,3.06,0,0,0,80.18,17a3.79,3.79,0,0,0-.67-1.29,3.36,3.36,0,0,0-3.92-.94l0,0c0-.15.08-.29.11-.44C76.58,8.89,72,4.2,66.82,3.74a12.24,12.24,0,0,0-5.6.94l-.6-.21a8.29,8.29,0,0,0-1.49-2.88,4.34,4.34,0,0,0-7.37,1.17l0,.09A5.8,5.8,0,0,0,45.82,1a12.27,12.27,0,0,0-6.94,5.87,7.9,7.9,0,0,0-1.24-.74,6.49,6.49,0,0,0-2.55-.5,6.17,6.17,0,0,0-4.33,1.73A5.7,5.7,0,0,0,29.36,13a10.58,10.58,0,0,0-2.58.85,4.64,4.64,0,0,0-2.42,2.78,4.45,4.45,0,0,0-.32-.35A5.38,5.38,0,0,0,18.6,15a4.29,4.29,0,0,0-2.91,4.62c-.63,0-1.25,0-1.88,0A4.1,4.1,0,0,0,9.47,23.9a4.21,4.21,0,0,1,1.14-.41Z"/><path class="cls-1" d="M44,10.94a3.07,3.07,0,0,1-.54-.75,4.66,4.66,0,0,0-.15,1.08,4.62,4.62,0,0,1,.62.33C43.93,11.38,44,11.16,44,10.94Z"/><path class="cls-3" d="M83.23,21.9a3.57,3.57,0,0,0-.41-.91,3.62,3.62,0,0,1-.26.7A3,3,0,0,1,83.23,21.9Z"/><path class="cls-2" d="M9.47,23.9a5.23,5.23,0,0,0-.56.33,3.22,3.22,0,0,0-2.12-.31,4.8,4.8,0,0,0-5.66.6,1.49,1.49,0,0,0-.53.95,1.33,1.33,0,0,0-.54.71c-.14.43-.06,1.36.54,1.35a.22.22,0,0,0,.19-.18A.45.45,0,0,0,.72,27a1,1,0,0,1-.12-.63.77.77,0,0,1,.07-.19,1.71,1.71,0,0,0,.07.18.68.68,0,0,1,.47-.25A10,10,0,0,1,3.41,26a1.1,1.1,0,0,1,.53.25,1.55,1.55,0,0,1,1.29-1.09l4.32-.64A4,4,0,0,1,9.47,23.9Z"/><path class="cls-3" d="M84.35,24.38a3.19,3.19,0,0,0-.83-.61l-.18-.17a4,4,0,0,0-.1-1.7,3,3,0,0,0-.67-.21,3.62,3.62,0,0,0,.26-.7,3.87,3.87,0,0,0-1.49-1.36A5,5,0,0,0,79.11,19a5.81,5.81,0,0,0-1-.91A5.56,5.56,0,0,0,74.65,17a5.59,5.59,0,0,0-1-.31,4.66,4.66,0,0,0,.41-.91c1.29-4.2-1.75-8.31-5.81-8a3.55,3.55,0,0,0-4.71.33,4.37,4.37,0,0,0-4-.07s0-.09,0-.14c-.93-3.92-5.73-6-8.67-2.76h0a5.7,5.7,0,0,0-5-.66,4.72,4.72,0,0,0-2.19,1.87A5.12,5.12,0,0,0,39.53,9.8a6.26,6.26,0,0,0-1.21-.31A3.89,3.89,0,0,0,36,8,4.12,4.12,0,0,0,31.5,9.57a4.61,4.61,0,0,0-.22,3.73,4,4,0,0,0-1.66.67,4.38,4.38,0,0,0-3,.61,5.49,5.49,0,0,0-2.74,4.63,1.94,1.94,0,0,0-.94,0c-1.79-1.69-3.77-2.55-5,.18a2.49,2.49,0,0,0-.17,1.4l-.29.13a3.61,3.61,0,0,0-5.1-.34A3.47,3.47,0,0,0,11.11,23a3.13,3.13,0,0,0-.27.25l-.23.26a4.21,4.21,0,0,0-1.14.41,4,4,0,0,0,.09.65L6.64,25a1.81,1.81,0,0,0-3,.44A1.92,1.92,0,0,0,2,25.24C1.6,25.37.87,25.81.8,26.3l-.06,0,.05.09a.55.55,0,0,0,.1.26.25.25,0,0,0,.14.09,1.29,1.29,0,0,0,1.87.15c-.14.11.87.06,2,0a.73.73,0,0,0,.16.38v0h0a1.1,1.1,0,0,0,.53.49,1.88,1.88,0,0,0,2-.63l.06,0a1.62,1.62,0,0,0,2.55.06l.33-.72a4,4,0,0,0,.53.65,1.48,1.48,0,0,0,2.4-.58,3.07,3.07,0,0,0,1,.7,1.62,1.62,0,0,0,.3.08,1,1,0,0,0,1.08.13,1.87,1.87,0,0,0,1-1.54,1.91,1.91,0,0,0,1.54-.55,2.13,2.13,0,0,0,2,.49,4.21,4.21,0,0,0,1.32-.62,3.32,3.32,0,0,0,.74,1.36v0h0l0,0c.18.18.43-.06.37-.27h0a6.62,6.62,0,0,1-.61-1.87,3.45,3.45,0,0,1,.06-1,4.7,4.7,0,0,1,.29-.67,4.49,4.49,0,0,1,4.05-2.34l.38,0A4.43,4.43,0,0,0,27,22.17v.07c0,.11,0,.21.05.32a4.75,4.75,0,0,0,.14.57c.14.42.76.18.64-.24-.74-2.57,1.62-4.37,3.93-4.54a6.92,6.92,0,0,1,4.15,1.32.34.34,0,0,0,.35,0l.12.19a3.15,3.15,0,0,0,1.17-.39,2.9,2.9,0,0,1,0-.42,4.23,4.23,0,0,1,1.32-3,8.91,8.91,0,0,1,1.26-.85,3.61,3.61,0,0,1,4.48.49,2.77,2.77,0,0,1,.22.24c0,.24,0,.47,0,.71a6.14,6.14,0,0,0,.91,3c.22.34.7,0,.51-.37a5.37,5.37,0,0,1-.29-.58,5.69,5.69,0,0,1-.39-1.58,5.81,5.81,0,0,1,0-.91,6.09,6.09,0,0,1,1-1.79,3.67,3.67,0,0,1,2.12-2.6,4,4,0,0,1,3-.22.15.15,0,0,0,.1.21,7.67,7.67,0,0,1,4.86,1.66c1.86,1.66,2.18,4,2,6.38,0,.38.55.62.69.2a7.46,7.46,0,0,0,.34-2.72A4.18,4.18,0,0,1,60.8,18a3.84,3.84,0,0,1,1.73-.53l.57-.23a3.25,3.25,0,0,1,2.3.22,3.38,3.38,0,0,1,1.4,1.12,3.44,3.44,0,0,1,.49,1,5.15,5.15,0,0,1-.57,2.78c-.19.39.39.62.6.26a4,4,0,0,0,.52-2,3.64,3.64,0,0,1,.64-.51c1.76-1.06,3.74-.41,5.38.5A3.51,3.51,0,0,1,75.51,24a3.56,3.56,0,0,1,.4-.27,4.21,4.21,0,0,1,3.67-.11,3.58,3.58,0,0,1,.73.31l.32.15h-.06a4.09,4.09,0,0,1,1.08,1.06,4.08,4.08,0,0,0,1.73.14,4.09,4.09,0,0,1,1.51,0,4,4,0,0,0,.07-1C84.76,24.34,84.55,24.35,84.35,24.38ZM43.92,11.6a4.62,4.62,0,0,0-.62-.33,4.66,4.66,0,0,1,.15-1.08,3.07,3.07,0,0,0,.54.75C44,11.16,43.93,11.38,43.92,11.6Z"/><path class="cls-3" d="M95.52,26.5l-.06-.11a1,1,0,0,0-.81-.59h-.1a1.18,1.18,0,0,0-.87.36.92.92,0,0,1-.43,0,1.63,1.63,0,0,0-1-.86,1.06,1.06,0,0,0-1.26.58.93.93,0,0,0-.87-.38,1.79,1.79,0,0,0-.9.37A2.35,2.35,0,0,0,85.75,25l-.39.37a3.4,3.4,0,0,1,2,1.8,5.81,5.81,0,0,1,1.34.67l.1.06-.1-.06.12.1a.41.41,0,0,0,0,.63.52.52,0,0,0,.45.09.43.43,0,0,0,.25-.17l1.2,0a1.41,1.41,0,0,0,1.09.21,1.23,1.23,0,0,0,.37-.18h.3a2,2,0,0,0,.5-.47l0,0a2.64,2.64,0,0,0,1.06,0,1,1,0,0,0,1.41-.85A.84.84,0,0,0,95.52,26.5Z"/><path class="cls-2" d="M11.17,21.79c0-.29-.39-.51-.57-.21a4.13,4.13,0,0,0-.34.72.38.38,0,0,0-.14.11,3.73,3.73,0,0,0-.78,1.82,1.2,1.2,0,0,0-.66.22.11.11,0,0,0,0,.16,1.13,1.13,0,0,0,1,.2.32.32,0,0,0,.28-.26c0-.14.07-.28.11-.41a3.76,3.76,0,0,0,.51,1.4h0l0,.07c.18.29.68,0,.53-.29A3.6,3.6,0,0,1,11.29,22,.12.12,0,0,0,11.17,21.79Z"/><path class="cls-2" d="M32.36,13.62a7.29,7.29,0,0,0-6.87,1.06,5.13,5.13,0,0,0-1.71,5.68.19.19,0,0,0,.36-.08c-.12-4.55,3.76-6.88,7.95-5.7C32.63,14.72,32.91,13.79,32.36,13.62Z"/><path class="cls-2" d="M55.57,3A5.26,5.26,0,0,0,48.92,7.7a5,5,0,0,0-3.87.48c-1.14.69-2.3,2.23-1.59,3.59a.21.21,0,0,0,.41-.1,3.21,3.21,0,0,1,2.05-2.93c1.27-.52,2.36-.09,3.63.07.37,0,.67-.48.31-.71A3.44,3.44,0,0,0,49.55,8,8.52,8.52,0,0,1,51,5.12a4.36,4.36,0,0,1,4.58-1,6.15,6.15,0,0,1,3.06,2.38c.89,1.33.74,2.55.41,4-.09.41.43.54.68.3C62.5,8,58.26,3.68,55.57,3Z"/><path class="cls-2" d="M73.15,18.06c2.06-1.39,2.51-4.25,1.69-6.53s-4-4.81-6.56-4.08c-.25.07-.12.4.09.4A6.51,6.51,0,0,1,74,11.62c.78,1.95.5,4.69-1.5,5.78a9.57,9.57,0,0,0-6.07-1.53c-.61,0-.49.92.09.93,2.68,0,5.23.68,7,2.77a.22.22,0,0,0,.39-.21A4,4,0,0,0,73.15,18.06Z"/><path class="cls-2" d="M95.24,26.53c-.28-1.15-1.85-1.11-2.75-1.41a1.68,1.68,0,0,0-1.57.09,1.51,1.51,0,0,0-1.5-.19,3.41,3.41,0,0,0-2.67-1.53,2.16,2.16,0,0,0-1.41.52,3.38,3.38,0,0,0-1.14-.79.34.34,0,0,0-.2,0,3,3,0,0,0-.38-2,2.81,2.81,0,0,0-2-1.57.21.21,0,0,0-.16.37A4.2,4.2,0,0,1,83,21.64a2.89,2.89,0,0,1,.25,1c0,.36-.07.57.12.88a.27.27,0,0,0,.34.08.33.33,0,0,0,.06.15,5.84,5.84,0,0,0,1.05,1.15,2.85,2.85,0,0,0-2,.13c-.2.12-.09.41.11.46.59.14,1.23,0,1.85.1l.14,0a.4.4,0,0,0,.41.09,5.41,5.41,0,0,1,1.56.63.13.13,0,0,0,.16-.2,6,6,0,0,0-1.22-.87c.61-.44,1.32-.17,2,.18a.3.3,0,0,0,.41-.12,4.44,4.44,0,0,1,.58.67.54.54,0,0,0,.74.12l.92,0a.51.51,0,0,0,.8,0,8,8,0,0,1,3,.7C94.5,27.46,95.39,27.11,95.24,26.53Z"/><path class="cls-3" d="M87.25,26.71a.43.43,0,0,0-.12-.09,2.75,2.75,0,0,0-1.65-1.2,4.21,4.21,0,0,0-3.27.21c-.13.09-.1.36.09.37,1.4,0,3.79-.27,4.26,1.5.14.51.85.26.85-.2A.91.91,0,0,0,87.25,26.71Z"/></svg>