<svg id="Layer_1" data-name="Layer 1" xmlns="http://www.w3.org/2000/svg" viewBox="0 0 155.13 38.95"><defs><style>.cls-1{fill:#f4f7f9;}.cls-2{fill:#eaf0f3;}.cls-3{fill:#eef3f6;}</style></defs><title>fog-cloud-f</title><path class="cls-1" d="M134.75,26.7q-.58,0-1.15-.06c-.38,0-.76,0-1.14,0a3.14,3.14,0,0,0-.91-.29c-.69-.11-1.54-.31-2.46-.52a4.52,4.52,0,0,1,.59,1.59A14.76,14.76,0,0,0,134.75,26.7Z"/><path class="cls-2" d="M51.07,16.16a4.48,4.48,0,0,0,1.19-1C51.28,15.67,51,16,51.07,16.16Z"/><path class="cls-1" d="M138.69,28.44c1,.08,2.09.14,3.13.19-1.27-.33-2.54-1-3.61-1.31h-.06a2.36,2.36,0,0,1,.2.36Z"/><path class="cls-2" d="M126.13,23.72a4.32,4.32,0,0,1,.5.14,4,4,0,0,0-1-1,4.92,4.92,0,0,0-1.72-.71,3.07,3.07,0,0,0-2.6-.15h-.09a10.93,10.93,0,0,1,4.46,1.43A3.44,3.44,0,0,1,126.13,23.72Z"/><path class="cls-1" d="M148,28.71a2.34,2.34,0,0,0-3-.37,2.94,2.94,0,0,1-.79.37Q146.08,28.74,148,28.71Z"/><path class="cls-2" d="M108.5,26.37c.19.09.24.08,0,0Z"/><path class="cls-1" d="M98.42,15l.13.16a5.7,5.7,0,0,1,2.7,2.91,8.23,8.23,0,0,0,1.88.29,4.51,4.51,0,0,1,3.44,1.85,4.79,4.79,0,0,1,4.32-3,6.88,6.88,0,0,1,1.24.07,1.8,1.8,0,0,1,1.88.3l.28.28a14.7,14.7,0,0,1,4.81,3.08A7.35,7.35,0,0,0,116.28,18a4,4,0,0,0-.35-.29,2.46,2.46,0,0,0-1.18-.43c-1.92-.72-4-1.06-5.84.09a5.89,5.89,0,0,0-1.31,1.15,5.07,5.07,0,0,0-1-.47,5.43,5.43,0,0,0-3,0A6.61,6.61,0,0,0,102,16a8.07,8.07,0,0,0-3.24-1.67A10.18,10.18,0,0,0,97,13.69,8,8,0,0,1,98.42,15Z"/><path class="cls-1" d="M90.94,6a6.27,6.27,0,0,0-1.69-1.48C86.6.73,81.13-1,77.35,3c-.24.26-.49.54-.72.84a8.6,8.6,0,0,0-6-3.59c-5-.84-12.13,0-13.6,5.38a8.85,8.85,0,0,0-1,2.2A11.68,11.68,0,0,0,53.2,6.53a8.36,8.36,0,0,0-10.8,5.92c0,.13-.05.26-.08.39l-.23.31C38.22,10.88,32.38,12.55,32,18c0,.09,0,.17,0,.25a11.31,11.31,0,0,0-1,.93,6.63,6.63,0,0,0-1.88,6.24,5.5,5.5,0,0,0-2,3.91l-.3,0a4.82,4.82,0,0,0-2.48.45,3.67,3.67,0,0,0-2,2.24l-.19-.09a2.5,2.5,0,0,0-1.91.14,1.94,1.94,0,0,0-.91.38,1.78,1.78,0,0,0-.29.29c1.25-.1,2.5-.22,3.74-.38,1.51-.2,3.94-.19,5.28-.89.58-.3,1-.88,1.54-1.24a5.53,5.53,0,0,1,1.23-.58A4.53,4.53,0,0,1,31.38,28a5.63,5.63,0,0,1,1.83-6.62C34,18.6,36.06,16,39,15.63a6.34,6.34,0,0,1,3.63.55l.14-.05A2.88,2.88,0,0,1,42.65,15,6.12,6.12,0,0,1,43.79,12a3.86,3.86,0,0,1,4.08-1.19,2.15,2.15,0,0,1,.37-1,2.2,2.2,0,0,1,.45-.46l.18-.14.06,0a3.53,3.53,0,0,1,4,0,1.72,1.72,0,0,1,.65.83,12.72,12.72,0,0,1,6.16,1.42,6,6,0,0,1,.81.21,6,6,0,0,1,0-1.68A2.27,2.27,0,0,1,59,8a3.78,3.78,0,0,1,1.49-3.32,4.53,4.53,0,0,1,4.67-.36A3.73,3.73,0,0,1,66.46,2.6,4.11,4.11,0,0,1,71,2.44,7.77,7.77,0,0,1,74.25,6a3.84,3.84,0,0,1,.24,1.91L75,7.87A5.36,5.36,0,0,1,82,6.67l.29.18a3.84,3.84,0,0,1,3.74.52,6,6,0,0,1,1.43,1.51A2,2,0,0,1,88.84,9a4.87,4.87,0,0,1,2.7,4.27,6.45,6.45,0,0,1-.3,2.15c.21.08.43.17.63.28A6.54,6.54,0,0,1,92.28,14a1.79,1.79,0,0,1,.22-.39l-.22,0C92.83,11,92.64,8.18,90.94,6Z"/><path class="cls-2" d="M135.54,30.42a4.51,4.51,0,0,0-1.91-1.17,3.62,3.62,0,0,0-3.5,1,3.48,3.48,0,0,0-.47.61,7.5,7.5,0,0,0-5.22-2.3,4.68,4.68,0,0,0-3.67-.45,8.49,8.49,0,0,0-4.83-.7,4.27,4.27,0,0,0-.56-.21l-.09-.07a3.57,3.57,0,0,0-4.29.58,3.84,3.84,0,0,0-.55.67,3.4,3.4,0,0,0-2.33-2.07l.37.1-.23-.13c-.21-.14-.41-.3-.63-.43a3.85,3.85,0,0,0-2.78-.47,3.84,3.84,0,0,0-3.69.09A5.11,5.11,0,0,0,98.77,29q-.14.24-.26.49s0-.08,0-.13l0-.08-.13-.11a2.15,2.15,0,0,1-1.3-.29,5.19,5.19,0,0,0-2.26-2.62c-2.36-1.38-5.95-1.32-8,.68l-.1.06a6.06,6.06,0,0,0-4-4.92c-3.86-1.6-8.68.87-9.54,4.57A11.51,11.51,0,0,1,72.91,24a5.34,5.34,0,0,1-3.52-1.49,3.4,3.4,0,0,1-.95-1.75A7.19,7.19,0,0,1,67,20.69a2,2,0,0,1-.69-.23,4.21,4.21,0,0,1-3.1,1.26,2.52,2.52,0,0,1-1.43-.39,6.18,6.18,0,0,1-2.07.66c.44.37.87.71,1.27,1a2.07,2.07,0,0,1-.24,3.45,7.56,7.56,0,0,0-6.94-4,7.41,7.41,0,0,0-6.05,4.14,5.51,5.51,0,0,1-.77.14,2,2,0,0,1-2-1,5.43,5.43,0,0,1-3.47,2.07l-.39-.21A3.43,3.43,0,0,0,36.81,27c-2.09,1.55-4.16,3.88-3.18,6.7a4.88,4.88,0,0,0,.76,1.38l0,.09a6.1,6.1,0,0,1-2.61-2,2.67,2.67,0,0,0-.74.73,4.09,4.09,0,0,0-2.59-.31,17.21,17.21,0,0,0-5.46,2,85.92,85.92,0,0,1-12.72.23c-1.8-.1-1.56-2.57,0-2.94a2.36,2.36,0,0,0-2,.35,2.64,2.64,0,0,0-1,1.63L6.78,35a.57.57,0,0,0-.57-.38,14.6,14.6,0,0,0-3.68.76c-1,.26-2,.3-2.49,1.27a.51.51,0,0,0,.19.58c.75.53,1.64.18,2.47-.07a1.08,1.08,0,0,0,.29.07,18.11,18.11,0,0,0,4.06,0c.13,0,.38-.08.71-.16a2.16,2.16,0,0,0,.31.32.87.87,0,0,0,.65.19,2.09,2.09,0,0,0,.41.16,2.56,2.56,0,0,0,2.66-.93,1.14,1.14,0,0,0,.41.06,1.47,1.47,0,0,0,1.64,1.08,62.15,62.15,0,0,1,8.29-.6c1.53,0,3.05.07,4.56-.06a9.31,9.31,0,0,0,5.67-.45,3.58,3.58,0,0,0,.34-.19c6.18.7,12.48,1.7,18.68,1.9,3,.1,5.71-.9,8.62-.93,2.72,0,5.41.85,8.09,1.17,5.95.72,12.21-.91,18.07-1.79q5.93-.9,11.86-1.74c3.45,1.76,9.33,2.09,12.4-.31,1.48-.07,3-.11,4.44-.14a6.93,6.93,0,0,0,4.2.34,5.81,5.81,0,0,0,1.41-.53,38.7,38.7,0,0,0,6.76-1,13.22,13.22,0,0,0,3,0,7.41,7.41,0,0,0,6.48-1l-.21,0A3.29,3.29,0,0,0,135.54,30.42Z"/><path class="cls-2" d="M144,31.07l-.21,0a3.58,3.58,0,0,0-2.39-.92l-1,0a3.48,3.48,0,0,0-3.15,2l.15-.18a.86.86,0,0,0,.19.22,5.9,5.9,0,0,0,5,1.43,11.79,11.79,0,0,0,1.4-.57,7.64,7.64,0,0,0,1.17-.22h.12c.7.08,1.23.57,2,.52s1.12-.69,1.78-.91,1.59.12,2.38.05a2.13,2.13,0,0,0,2.16-1.67h-.33Z"/><path class="cls-1" d="M16,32.4a3,3,0,0,0-.87.48c.71,0,1.41,0,2.12-.08A1,1,0,0,0,16,32.4Z"/><path class="cls-3" d="M129.08,25.84a4.5,4.5,0,0,0-2.45-2,4.26,4.26,0,0,1,.67,1.61C127.91,25.58,128.51,25.71,129.08,25.84Z"/><path class="cls-3" d="M136.77,32.67l.15,0h.17a3.83,3.83,0,0,1,.22-.52h0A5.87,5.87,0,0,1,136.77,32.67Z"/><path class="cls-3" d="M97,13.69a5.86,5.86,0,0,0-2.52-1,2.12,2.12,0,0,0-2,.87A9.77,9.77,0,0,1,97,13.69Z"/><path class="cls-3" d="M17.35,33.06a2.65,2.65,0,0,1,1.4,0,2.25,2.25,0,0,1,.27-.43l-1.78.12,0,.07C17.31,32.93,17.33,33,17.35,33.06Z"/><path class="cls-3" d="M121.23,22a6.91,6.91,0,0,0-1.07,0,12.45,12.45,0,0,0-1-1.11,4.64,4.64,0,0,1,.47,1.48A7.3,7.3,0,0,1,121.23,22Z"/><path class="cls-3" d="M144.18,28.7l-2.36-.08A4.4,4.4,0,0,0,144.18,28.7Z"/><path class="cls-3" d="M135.49,26.45l-.74.25a16.88,16.88,0,0,1,3.4.6A2.24,2.24,0,0,0,135.49,26.45Z"/><path class="cls-3" d="M141.82,28.63c-1,0-2.09-.11-3.13-.19l-.34-.77a2.36,2.36,0,0,0-.2-.36,16.88,16.88,0,0,0-3.4-.6,14.76,14.76,0,0,1-5.08.73,4.52,4.52,0,0,0-.59-1.59c-.57-.13-1.17-.26-1.78-.37a4.26,4.26,0,0,0-.67-1.61,4.32,4.32,0,0,0-.5-.14,3.44,3.44,0,0,0-.44-.29A10.93,10.93,0,0,0,121.23,22a7.3,7.3,0,0,0-1.64.37,4.64,4.64,0,0,0-.47-1.48,14.7,14.7,0,0,0-4.81-3.08l-.28-.28a1.8,1.8,0,0,0-1.88-.3,6.88,6.88,0,0,0-1.24-.07,4.79,4.79,0,0,0-4.32,3,4.51,4.51,0,0,0-3.44-1.85,8.23,8.23,0,0,1-1.88-.29,5.7,5.7,0,0,0-2.7-2.91L98.42,15A8,8,0,0,0,97,13.69a9.77,9.77,0,0,0-4.49-.11,1.79,1.79,0,0,0-.22.39,6.54,6.54,0,0,0-.41,1.78c-.21-.1-.42-.19-.63-.28a6.45,6.45,0,0,0,.3-2.15A4.87,4.87,0,0,0,88.84,9a2,2,0,0,0-1.36-.17,6,6,0,0,0-1.43-1.51,3.84,3.84,0,0,0-3.74-.52L82,6.67A5.36,5.36,0,0,0,75,7.87l-.47.06A3.84,3.84,0,0,0,74.25,6,7.77,7.77,0,0,0,71,2.44a4.11,4.11,0,0,0-4.57.16A3.73,3.73,0,0,0,65.2,4.36a4.53,4.53,0,0,0-4.67.36A3.78,3.78,0,0,0,59,8,2.27,2.27,0,0,0,60.58,10a6,6,0,0,0,0,1.68,6,6,0,0,0-.81-.21A12.72,12.72,0,0,0,53.63,10,1.72,1.72,0,0,0,53,9.18a3.53,3.53,0,0,0-4,0l-.06,0-.18.14a2.2,2.2,0,0,0-.45.46,2.15,2.15,0,0,0-.37,1A3.86,3.86,0,0,0,43.79,12,6.12,6.12,0,0,0,42.65,15a2.88,2.88,0,0,0,.13,1.17l-.14.05A6.34,6.34,0,0,0,39,15.63c-3,.36-5.06,3-5.81,5.76A5.63,5.63,0,0,0,31.38,28a4.53,4.53,0,0,0-.56,1.57,5.53,5.53,0,0,0-1.23.58c-.57.36-1,.94-1.54,1.24-1.35.7-3.77.7-5.28.89-1.25.16-2.49.28-3.74.38a2.25,2.25,0,0,0-.27.43,2.65,2.65,0,0,0-1.4,0c0-.06,0-.13-.07-.19l0-.07c-.7,0-1.41.06-2.12.08a2.89,2.89,0,0,0-.81.94,6.09,6.09,0,0,0-2.13.38l-.28,0a2.7,2.7,0,0,0-1.64-1.22c-1.53.37-1.76,2.84,0,2.94A85.92,85.92,0,0,0,23,35.65a17.21,17.21,0,0,1,5.46-2,4.09,4.09,0,0,1,2.59.31,2.67,2.67,0,0,1,.74-.73,6.1,6.1,0,0,0,2.61,2l0-.09a4.88,4.88,0,0,1-.76-1.38c-1-2.82,1.1-5.15,3.18-6.7a3.43,3.43,0,0,1,4.33.61l.39.21A5.43,5.43,0,0,0,45,25.74a2,2,0,0,0,2,1,5.51,5.51,0,0,0,.77-.14,7.41,7.41,0,0,1,6.05-4.14,7.56,7.56,0,0,1,6.94,4A2.07,2.07,0,0,0,61,23c-.39-.3-.83-.64-1.27-1a6.18,6.18,0,0,0,2.07-.66,2.52,2.52,0,0,0,1.43.39,4.21,4.21,0,0,0,3.1-1.26,2,2,0,0,0,.69.23,7.19,7.19,0,0,0,1.41.05,3.4,3.4,0,0,0,.95,1.75A5.34,5.34,0,0,0,72.91,24a11.51,11.51,0,0,0,.36,2.72c.86-3.7,5.68-6.17,9.54-4.57a6.06,6.06,0,0,1,4,4.92l.1-.06c2-2,5.6-2.06,8-.68a5.19,5.19,0,0,1,2.26,2.62,2.15,2.15,0,0,0,1.3.29l.13.11,0,.08s0,.08,0,.13q.12-.25.26-.49a5.11,5.11,0,0,1,2.41-3.6,3.84,3.84,0,0,1,3.69-.09,3.85,3.85,0,0,1,2.78.47c.22.13.42.28.63.43l.23.13c.24.08.19.09,0,0l-.37-.1a3.4,3.4,0,0,1,2.33,2.07,3.84,3.84,0,0,1,.55-.67,3.57,3.57,0,0,1,4.29-.58l.09.07a4.27,4.27,0,0,1,.56.21,8.49,8.49,0,0,1,4.83.7,4.68,4.68,0,0,1,3.67.45,7.5,7.5,0,0,1,5.22,2.3,3.48,3.48,0,0,1,.47-.61,3.62,3.62,0,0,1,3.5-1,4.51,4.51,0,0,1,1.91,1.17,3.29,3.29,0,0,1,1,2.21l.21,0a5.87,5.87,0,0,0,.53-.47h0a3.48,3.48,0,0,1,3.15-2l1,0a3.58,3.58,0,0,1,2.39.92l.21,0,9.34-.22h.33c0-.11.06-.22.08-.34.19-1.1-1.3-1.72-2.06-1.06-.35.3-2.26,0-3.18.13a2.34,2.34,0,0,0-.56-.88q-1.9,0-3.79,0A4.4,4.4,0,0,1,141.82,28.63ZM51.07,16.16c-.08-.18.21-.49,1.19-1A4.48,4.48,0,0,1,51.07,16.16Z"/><path class="cls-1" d="M29.16,31.74a4.14,4.14,0,0,0-3.5-.47,4.25,4.25,0,0,0-1.49.56c0-.37-.52-.62-.76-.27-.37.57-2.84-.06-3.61.19a3,3,0,0,0-1.48,1.1,3.6,3.6,0,0,0-2.65-.7c-1.11.17-1.15,1-2.31,1.19-1.63.22-3.21-.73-4.79-.32A3.33,3.33,0,0,0,6.64,34.4c-.63-.41-1.57.21-2.29.5-1.62.65-3,.25-4.27,1.74-.17.2.14.51.33.33,1-1,2.06-1,3.41-1.13.4,0,2.38-.69,2.45-.45.12.41.67.31.83,0,1.19-2.32,3.66-1.11,5.79-1.06a.93.93,0,0,0,.21.17v.08c-.12.36.33.83.66.51a6.9,6.9,0,0,1,2-1.37,3.21,3.21,0,0,1,3,.87c.29.29.94,0,.7-.4l-.06-.09h0a3.63,3.63,0,0,0-.31-.45c1.14-1.84,2.57-.28,4.1-.61a1.73,1.73,0,0,0,.48-.18.17.17,0,0,0,.33.07c.43-.76,1.53-.79,2.3-.9a3.28,3.28,0,0,1,2.43.42A.44.44,0,0,0,29.16,31.74Z"/><path class="cls-1" d="M34.57,24.74A8.67,8.67,0,0,0,31,28c-.08,0-.19,0-.22.07a7.51,7.51,0,0,0-.21,1,4.21,4.21,0,0,0,0,2.18v0h0v.07c.08.29.57.16.51-.13s-.05-.36-.07-.53c-.18-2.54,2.12-3.89,4.09-5.11C35.5,25.29,35.05,24.49,34.57,24.74Z"/><path class="cls-1" d="M48,10.61A4.49,4.49,0,0,0,42.61,13,3.65,3.65,0,0,0,42,14.68a4.54,4.54,0,0,0,1.08,4.17.4.4,0,0,0,.63-.48,4.89,4.89,0,0,1-.93-2.46c0-2.59,2.11-5.42,4.87-4.38C48.26,11.76,48.65,10.82,48,10.61Z"/><path class="cls-1" d="M62.27,12.66c-1.8-3.19-7.77-4.51-10.43-1.77-.16.16.07.4.26.34a8.64,8.64,0,0,1,5-.66,8,8,0,0,1,4.36,2.54C61.81,13.45,62.55,13.15,62.27,12.66Z"/><path class="cls-1" d="M81.58,5A7.19,7.19,0,0,0,75,7.35,5.4,5.4,0,0,0,74.95,6c0-.2-.38-.24-.39,0A8.72,8.72,0,0,1,74,8.9c-.14.36.39.71.62.35A6.77,6.77,0,0,1,81.45,6,.5.5,0,0,0,81.58,5Z"/><path class="cls-1" d="M101,15.59c-.55-2-2.52-3.1-4.45-3.58a12,12,0,0,0-1.19-.24C95.79,8.4,93,3.82,89.1,4.87c-.32.09-.18.62.15.57a3.68,3.68,0,0,1,2.84.67l0,0a3.38,3.38,0,0,0-1-.49.47.47,0,0,0-.2,0,.85.85,0,0,0-.93.21.44.44,0,0,0,.18.67,3.23,3.23,0,0,1,1.6,1A9.56,9.56,0,0,1,92.28,10q0,.73,0,1.47c0,.12,0,.23,0,.35a.4.4,0,0,0,.08.31.39.39,0,0,0,.1.21,1.78,1.78,0,0,0-.35.48c-.12.24.2.44.39.3l.06,0,0,0a3.86,3.86,0,0,0-1.47,2.38c-.1.34.38.55.52.21.45-1.16,1-2,2.34-2.14a4.59,4.59,0,0,1,3.23.56c1.85,1.23,1.88,3.15,1.51,5.11-.09.46.54.55.73.2A4.53,4.53,0,0,0,99,14.67a4.87,4.87,0,0,1,1,1.27A.47.47,0,0,0,101,15.59Z"/><path class="cls-1" d="M153,29.35l-.14,0-.1,0h0a.44.44,0,0,0-.4,0,3.15,3.15,0,0,0-1.07-.05,6.7,6.7,0,0,1-3.19-.33c-.62-.24-1-.69-1.62-.79a3,3,0,0,0-1.15.18c-.17,0-.3.27-.45.31-.93.27-.79-.12-1.42-.31a4.77,4.77,0,0,0-4.08.11c-2-2.91-6.08-2.9-9.11-1.8a.43.43,0,0,0,.07-.29c-.46-3.47-5.64-6-9.12-5.12a9.57,9.57,0,0,0-5.78-4.84,12,12,0,0,0-4.88,0A5.41,5.41,0,0,0,107.07,18a.4.4,0,0,0-.07-.17c-1-1.13-3.52-1-4.51,0-.13.13-.07.4.15.37a12.12,12.12,0,0,1,1.75-.28,3.43,3.43,0,0,1,1.77.37.5.5,0,0,0,.43.31,1.54,1.54,0,0,0-.21.66.29.29,0,0,0,.11.27l.16.11a.19.19,0,0,0,.3-.12c.06-.71,1.59-1.16,2.17-1.32a5.24,5.24,0,0,1,6.62,3.14.48.48,0,0,0,.89-.36,5.67,5.67,0,0,0-1.71-2.53c2.89.3,5.11,3.78,5.22,6.42,0,.62,1,.49.95-.12a7.31,7.31,0,0,0-.46-2.24,7.38,7.38,0,0,1,4.81,1.34,8.29,8.29,0,0,1,3.44,4c.16.32.73.34.76-.1a3.08,3.08,0,0,0-.11-1,.39.39,0,0,0,.24.16.32.32,0,0,0,.27.52c3.09-.22,6.47-1.25,8.59,1.76a.48.48,0,0,0,.81,0h.09a4.63,4.63,0,0,1,3.11,0c.54.2,1.09.77,1.68.86s.73-.21,1.2-.43c.68-.31.7-.15,1.32.09a9,9,0,0,0,1.14.38,9.72,9.72,0,0,0,2.19.49c.46,0,2.27-.58,2.37.32a.5.5,0,0,0,.4.41v0c-.08.48.57.58.77.21a1.85,1.85,0,0,0,.13-.32.68.68,0,0,1,.14-.13l.09-.08h0a.43.43,0,0,0,.16-.08.66.66,0,0,0,.89-.59C155.13,29.29,153.73,29.31,153,29.35Zm-38.3-12.11h0L113.44,17a8,8,0,0,1,1.29.13l.11,0A.2.2,0,0,0,114.72,17.25Z"/><path class="cls-1" d="M87.39,7.17A5.28,5.28,0,0,0,83.11,6l-.05,0A3.92,3.92,0,0,0,79.24,8.4c-.19.37.42.73.64.37,1.66-2.75,4.84-1.58,7.26-1C87.5,7.83,87.6,7.37,87.39,7.17Z"/></svg>