<svg id="Layer_1" data-name="Layer 1" xmlns="http://www.w3.org/2000/svg" viewBox="0 0 121.92 60.52"><defs><style>.cls-1{fill:#eef3f6;}.cls-2{fill:#f4f7f9;}.cls-3{fill:#eaf0f3;}</style></defs><title>fog-cloud-k</title><path class="cls-1" d="M3.59,45.72l.7.14a2.58,2.58,0,0,0-1.61-.67A1.65,1.65,0,0,0,3.59,45.72Z"/><path class="cls-2" d="M99.11,41.26a3.88,3.88,0,0,0-.71.43c-.28-.14-.57-.28-.86-.4a8.46,8.46,0,0,0-1.79-3.46,4.31,4.31,0,0,0,2.11-3,6,6,0,0,0,.09-1.47,10.19,10.19,0,0,0,5.65-5.14,10.31,10.31,0,0,0-4.07-13.71,8,8,0,0,0,0-2.47c-.6-3.87-3.86-6.25-7.64-6.54a9.79,9.79,0,0,0-4.38.64,7.48,7.48,0,0,0-2-1.05A8.33,8.33,0,0,0,77.24,0c-3.5,0-7.18.63-9.44,3.62a8.11,8.11,0,0,0-1.62,4.55c-3.91,0-7.6,3.19-6.39,7.56a5.08,5.08,0,0,0,2.49,3.36A8,8,0,0,0,62,20l-.36.1c-.7-.31-1.35-.67-1.82-.91-4.1-2.11-6.73.39-8.59,3.86-.35.65-.73,1.26-1.13,1.86a8.48,8.48,0,0,0-5.67,2.33,9.32,9.32,0,0,0-2.05,3h0a4.27,4.27,0,0,0-2.2-1.19,7,7,0,0,0-5.86,0,5.48,5.48,0,0,0-3.17-.31,6.06,6.06,0,0,0-4.63,3.85,11.63,11.63,0,0,0-2.41.84A6.6,6.6,0,0,0,18,34.55a6.42,6.42,0,0,0-1.78,6.77c-.08.1-.16.19-.23.3a8.56,8.56,0,0,0-4.45.54,5.32,5.32,0,0,0-1.16.92,25.32,25.32,0,0,0,12.27-3.47,2.1,2.1,0,0,1,1.29-2.16c4.38-1.59,9-3.21,13.67-3.35a22,22,0,0,1,6,.7c.71.17,2,.79,2.72.48s.81-1.13,1.21-1.85a13.27,13.27,0,0,1,5.37-5.15,4.18,4.18,0,0,1,1.77-3.47,5.63,5.63,0,0,1,.76-1,6.08,6.08,0,0,1,5.72-1.82,5.21,5.21,0,0,1,1-1.77,5,5,0,0,1,2.18-1.45,5.94,5.94,0,0,1,1.37-.27,7.45,7.45,0,0,1,3.83-6.89,6.18,6.18,0,0,1,.74-.32c3.51-4.31,11.2-3.73,16.25-.63.35-.2.71-.38,1.09-.55,2.3-1.06,5.11,1.22,3.35,5,.75-.8,2.3-.32,2.26,1.26l.1-.19c-.34-1.61,1.45-1.13,1.39-1.53-.24-1.57,3.82-3,3.48.92,4,.82,5.14,6,2.86,10A8.38,8.38,0,0,1,99.9,27.1,3.6,3.6,0,0,0,99,29c-.7.79-1.39,1.55-2,2.25a3.65,3.65,0,0,0-.33,4.39,4.09,4.09,0,0,0-.56.22L96,36h0a2.7,2.7,0,0,0-.74.55,3.58,3.58,0,0,0-1,2,3.39,3.39,0,0,0,.38,2.27,4.23,4.23,0,0,0,1.25,1.29,4.31,4.31,0,0,0,2.27.5,3.78,3.78,0,0,0,3.53,1.11,7.41,7.41,0,0,1,2.84.11l.44.12a3.29,3.29,0,0,0,.69,1.05,3,3,0,0,1,2-.51A6.85,6.85,0,0,0,99.11,41.26Z"/><path class="cls-3" d="M120.7,49.85a7.8,7.8,0,0,0-3.9-.44,5.75,5.75,0,0,0-1,.21,1.87,1.87,0,0,0-1.06-.31,1.44,1.44,0,0,0-.3,0,1.54,1.54,0,0,0-2-.77c-.18.07-.37.12-.55.17a2.43,2.43,0,0,1-.83,1.45,2.92,2.92,0,0,0,.45.4,19.39,19.39,0,0,0-2.58.08h0a11.77,11.77,0,0,0-12.46.65l-.19-.08a6.68,6.68,0,0,0-1.37-2.55,7.09,7.09,0,0,0-4.33-2.32,6.18,6.18,0,0,0-2.84.22,12.4,12.4,0,0,0,0-1.93,7,7,0,0,0-3-5.7,5.8,5.8,0,0,0-2.45-.84,3.29,3.29,0,0,0,1.78-.89A3.6,3.6,0,0,0,85,35.47c0-.07.1-.13.14-.21a4.19,4.19,0,0,0-.75-5,5.6,5.6,0,0,0-3.71-1.58,6.34,6.34,0,0,0-4.32,1.65,3.52,3.52,0,0,0-1.07,2.28c-3.68-1.05-7.6-.4-9.92,2.16a15,15,0,0,0-7.75,2.9,5.54,5.54,0,0,0-3,0,5.68,5.68,0,0,0-3.85,3.5,4.6,4.6,0,0,0-.21.85c-4.13-1.68-8.94-1.73-11.42,1.3A8,8,0,0,0,34,40.74c-3.42-.4-6.54,1.12-7.76,4.11a2.18,2.18,0,0,1-.36-.88A9.81,9.81,0,0,1,24,43.61a3.25,3.25,0,0,1-.67-.44A29,29,0,0,1,4.52,45.91L4.39,46l-.11-.1-.7-.14a1.65,1.65,0,0,1-.91-.53A2.37,2.37,0,0,0,.49,46.3a1.65,1.65,0,0,0,.74,2.48,5.14,5.14,0,0,0,5.24-.39,1.2,1.2,0,0,0,.39.41,4.59,4.59,0,0,0,4.29.49,3.63,3.63,0,0,0,3.54.25c1.21,0,2.42.08,3.62.08a5,5,0,0,0,1.58-.26,4,4,0,0,0,2.33,1.12,7.78,7.78,0,0,0,1.94,0c2.06,2.8,5.18,5.12,8.54,4.09a31,31,0,0,1,5.17-1.35l.22,0a3.8,3.8,0,0,0,.31.49c1.57,2.11,5,2.76,7,1a4.63,4.63,0,0,0,1.5-2.92c.22.16.44.34.68.48A11.58,11.58,0,0,0,54.37,56a14.05,14.05,0,0,0,8-1.73q1,0,1.92,0A13.39,13.39,0,0,0,76.26,60.5,9.84,9.84,0,0,0,84,56.38a8.9,8.9,0,0,0,1.13-.77c2.38-.06,5.65-1.13,6.73-3.19a10.55,10.55,0,0,0,13.34.61,1.69,1.69,0,0,0,.25-.23c.78,0,1.57,0,2.36-.07,1.27.76,2.71.92,3.59-.48a10.79,10.79,0,0,0,1.08-.32,2.21,2.21,0,0,0,.29.57c.82,1.15,1.8.57,2.67,0a2.79,2.79,0,0,0,.43.31,1.17,1.17,0,0,0,1.34,0,1.54,1.54,0,0,0,.63-1c.89,0,1.81.23,2.66.2C121.71,52,121.63,50.26,120.7,49.85Z"/><path class="cls-1" d="M109.15,46.36a2.62,2.62,0,0,1,1,.29,2.86,2.86,0,0,1,1.49,2.12l.26-.08c.26-1.34-.49-2.73-1.29-2.09-.54.43-1.43-1-1.5-1.07a2.29,2.29,0,0,0-1.46-1.05,7.41,7.41,0,0,1,.73,1.74A3,3,0,0,1,109.15,46.36Z"/><path class="cls-1" d="M23.3,43.16a3.25,3.25,0,0,0,.67.44,9.81,9.81,0,0,0,1.89.36,2.18,2.18,0,0,0,.36.88c1.23-3,4.34-4.51,7.76-4.11a8,8,0,0,1,5.23,2.6c2.48-3,7.29-3,11.42-1.3a4.6,4.6,0,0,1,.21-.85,5.68,5.68,0,0,1,3.85-3.5,5.54,5.54,0,0,1,3,0,15,15,0,0,1,7.75-2.9c2.31-2.56,6.23-3.22,9.92-2.16a3.52,3.52,0,0,1,1.07-2.28,6.34,6.34,0,0,1,4.32-1.65,5.6,5.6,0,0,1,3.71,1.58,4.19,4.19,0,0,1,.75,5c0,.07-.09.14-.14.21a3.6,3.6,0,0,1-.94,1.72,3.29,3.29,0,0,1-1.78.89,5.8,5.8,0,0,1,2.45.84,7,7,0,0,1,3,5.7,12.4,12.4,0,0,1,0,1.93,6.18,6.18,0,0,1,2.84-.22,7.09,7.09,0,0,1,4.33,2.32,6.68,6.68,0,0,1,1.37,2.55l.19.08a11.77,11.77,0,0,1,12.46-.65h0a19.39,19.39,0,0,1,2.58-.08c-.16-.12-.61-.27-.45-.4-.94-1.08-2.18-1.83-3.16-2.88l-.2-.24c-.74-.64-1.43-1.35-2.11-2a3.29,3.29,0,0,1-.69-1.05l-.44-.12a7.41,7.41,0,0,0-2.84-.11A3.78,3.78,0,0,1,98.1,42.6a4.31,4.31,0,0,1-2.27-.5,4.23,4.23,0,0,1-1.25-1.29,3.39,3.39,0,0,1-.38-2.27,3.58,3.58,0,0,1,1-2A2.7,2.7,0,0,1,96,36h0l.16-.08a4.09,4.09,0,0,1,.56-.22A3.65,3.65,0,0,1,97,31.29c.6-.7,1.29-1.46,2-2.25a3.6,3.6,0,0,1,.91-1.94A9.09,9.09,0,0,0,101,25.53c1.93-3.57-.23-7-2.86-10a10.21,10.21,0,0,1-3.7.7,8.54,8.54,0,0,1-1.16-.09l-.1.19-2.28-.76-.1-.24c0,.06-.06,0-.1,0l0,0s0,0,0,0l0-.08A6.44,6.44,0,0,1,87.57,10c-.37.17-.74.36-1.09.55-5-3.1-12.73-3.69-16.25.63a6.18,6.18,0,0,0-.74.32,7.45,7.45,0,0,0-3.83,6.89,5.94,5.94,0,0,0-1.37.27,5,5,0,0,0-2.18,1.45,5.21,5.21,0,0,0-1,1.77,6.08,6.08,0,0,0-5.72,1.82,5.63,5.63,0,0,0-.76,1,4.18,4.18,0,0,0-1.77,3.47,13.27,13.27,0,0,0-5.37,5.15c-.4.71-.53,1.56-1.21,1.85s-2-.31-2.72-.48a22,22,0,0,0-6-.7c-4.71.14-9.28,1.76-13.67,3.35a2.1,2.1,0,0,0-1.29,2.16,25.32,25.32,0,0,1-12.27,3.47,4.54,4.54,0,0,0-1.27,2.38,4.08,4.08,0,0,0-1,.27,1.72,1.72,0,0,1-.43-.24,1.57,1.57,0,0,0-2.16-.25,3,3,0,0,1-1,.68A29,29,0,0,0,23.3,43.16Z"/><path class="cls-1" d="M90.71,15.36s.12,0,.1,0l-.05,0Z"/><path class="cls-1" d="M105.61,45c.68.69,1.37,1.4,2.11,2l.2.24c1,1,2.21,1.8,3.16,2.88a2.43,2.43,0,0,0,.83-1.45l-.26.08a2.86,2.86,0,0,0-1.49-2.12,2.62,2.62,0,0,0-1-.29,3,3,0,0,0-.76-.14,7.41,7.41,0,0,0-.73-1.74A3,3,0,0,0,105.61,45Z"/><path class="cls-1" d="M87.57,10a6.44,6.44,0,0,0,3.19,5.24,1.3,1.3,0,0,1,.17-.23C92.68,11.27,89.87,9,87.57,10Z"/><path class="cls-1" d="M94.67,14.59c.06.4-1.73-.08-1.39,1.53a8.54,8.54,0,0,0,1.16.09,10.21,10.21,0,0,0,3.7-.7C98.5,11.58,94.43,13,94.67,14.59Z"/><path class="cls-1" d="M90.92,15.06c0,.09-.07.17-.12.26l.1.24,2.28.76C93.22,14.74,91.67,14.26,90.92,15.06Z"/><path class="cls-1" d="M90.75,15.29l.05,0c0-.09.08-.17.12-.26A1.3,1.3,0,0,0,90.75,15.29Z"/><path class="cls-1" d="M98.15,15.51c2.63,3,4.79,6.44,2.86,10C103.29,21.49,102.11,16.33,98.15,15.51Z"/><path class="cls-2" d="M16.4,40.87c-3.28-.66-7.51.31-8.26,3.88a3,3,0,0,0-1.45-.53,3.1,3.1,0,0,0-1.28.14c-.44.15-.74.58-1.13.73-1,.37-1.92-.48-3,.06A2.43,2.43,0,0,0,0,47.8c0,.26.46.3.48,0a3,3,0,0,1,1.18-1.9c.57-.22,1.31.18,1.84.28a1.59,1.59,0,0,0,.82,0c.45-.14.7-.61,1.12-.81a2.11,2.11,0,0,1,2.61.65.57.57,0,0,0,.67.14.52.52,0,0,0,.89-.27c.47-3.22,4-3.75,6.7-4A.52.52,0,0,0,16.4,40.87Z"/><path class="cls-2" d="M48.69,36a15,15,0,0,0-6.79-2.58.41.41,0,0,0-.24-.57,11.54,11.54,0,0,0-8.6.58,4.3,4.3,0,0,0-1,.64.37.37,0,0,0-.44-.18,1.91,1.91,0,0,0-.55.35,4.07,4.07,0,0,1,.24-.48.47.47,0,0,0-.73-.58A8.21,8.21,0,0,0,29,35.87l0,0-.71-.6c-.47-.4-1,.33-.59.74l.14.12A8.28,8.28,0,0,0,20.4,42l0,0h0l0,.11c-.14.52.7.75.9.26a11.9,11.9,0,0,1,.52-1.09A.19.19,0,0,0,22,41.2a5.87,5.87,0,0,1,8.72-2.74.44.44,0,0,0,.57,0h0a.45.45,0,0,0,.13-.2.23.23,0,0,0,.22-.22c0-.15,0-.29,0-.42a4.52,4.52,0,0,1,3.1-2.62,16.08,16.08,0,0,1,4.46-.7,15.8,15.8,0,0,1,8.91,2.52C48.6,37.1,49.23,36.37,48.69,36ZM32.64,35a7.05,7.05,0,0,1,4.69-1.52A13.41,13.41,0,0,0,32.64,35Z"/><path class="cls-2" d="M63.65,14.39a6.59,6.59,0,0,0-5,5.65.27.27,0,0,0,.54.09h0a.41.41,0,0,0,.17.26c0,.1,0,.2.08.29a.43.43,0,0,0,.54.25c.22-.08.43-.18.64-.27a.35.35,0,0,0,.49.18l.1-.05h0a5.35,5.35,0,0,0,2.13-1.88.48.48,0,0,0-.07-.58,8.72,8.72,0,0,0,.4-.79.42.42,0,0,0-.7-.43l-.4.45c.18-.38.35-.76.5-1.16a.4.4,0,0,0,0-.23L64,15C64.17,14.77,64,14.32,63.65,14.39Zm-1,1.12-.82,1.05a.39.39,0,0,0-.21,0,4.88,4.88,0,0,0-.75.42.41.41,0,0,0-.07-.15A5.65,5.65,0,0,1,62.63,15.51Z"/><path class="cls-2" d="M121.87,51.09h0a2.34,2.34,0,0,0-.11-.32c-.56-1.5-2.11-2-3.69-1.72-.64.11-1.29.5-1.93.12-.2-.12-.37-.56-.6-.71a2.36,2.36,0,0,0-1.75-.26,2.66,2.66,0,0,0-1.19-2.35,1.86,1.86,0,0,0-1.25-.21,2,2,0,0,0-1.23-.48c-.41-.86-.79-1.74-1.79-2a2.17,2.17,0,0,0-1.86.32,3.47,3.47,0,0,0-1.37.6.47.47,0,0,0-.08.68,3.55,3.55,0,0,0-.83,1.26,5.73,5.73,0,0,0-4.9-.7A3.33,3.33,0,0,0,97.72,42a6.82,6.82,0,0,0-3.1-1,8.06,8.06,0,0,0-3,.08h-.06l-.12,0c-.54.13-.32,1,.22.94a12.15,12.15,0,0,1,3.61.06,3.87,3.87,0,0,1,3.06,4.09c0,.63.93.78,1,.15,0,0,0-.08,0-.12a.49.49,0,0,0,.21,0,4.84,4.84,0,0,1,4.66.93.48.48,0,0,0,.77-.3,2.53,2.53,0,0,1,2.18-2.09,2.56,2.56,0,0,1,1.81,1.39.49.49,0,0,0,.81.14,4.09,4.09,0,0,0,.46.68.45.45,0,0,0,.7,0l.19,0a1.91,1.91,0,0,1,.22.2,2.9,2.9,0,0,1,.23.63,2.53,2.53,0,0,1-.61,2.23c-.38.45.22.93.66.69a2.89,2.89,0,0,0,1-.94l.13,0,.13,0a2.68,2.68,0,0,1,2,.17c.41.22.69.76,1.17.83,1.3.18,4.39-1.31,5,.78.14.52,1,.32.94-.22C121.9,51.17,121.88,51.14,121.87,51.09Z"/><path class="cls-2" d="M101.09,25.76a9.67,9.67,0,0,0,2-5,.22.22,0,0,0-.44-.07,9,9,0,0,1-9.1,7.83c-.48,0-.5.8,0,.84a9.6,9.6,0,0,0,4.85-.82.52.52,0,0,0,.74,0l1-1,.26-.19a.44.44,0,0,0,.16-.27l.63-.68A.38.38,0,0,0,101.09,25.76Z"/><path class="cls-2" d="M67.44,24.05c-2.74-1.9-5.68-3.29-9.07-2.36a8,8,0,0,0-5.84,6.24.2.2,0,0,0,.38.11c1.18-2.61,2.78-4.77,5.71-5.51,3.15-.8,5.66.6,8.22,2.27C67.35,25.14,68,24.41,67.44,24.05Z"/><path class="cls-2" d="M69.85,10.5a.2.2,0,0,0-.28-.29c-2.4,1.72-4.43,4.73-4.45,7.75a5.23,5.23,0,0,0,4.14,5.36.44.44,0,0,0,.14-.86c-2.77-.6-3.9-3.37-3.3-6C66.66,14,68.43,12.44,69.85,10.5Z"/><path class="cls-1" d="M121.37,51.1a.75.75,0,0,0-.14-.3.69.69,0,0,0-.84-.23,1.63,1.63,0,0,0-1.72-.78,7.73,7.73,0,0,0-1.53.44q-.36.47-.72,0a1,1,0,0,1-.57-.51,3.6,3.6,0,0,0-.41-.36c-1-.56-2.17,0-3,.47-.39.19-.28.32-.77.38s-.58-.15-.94-.18a4.61,4.61,0,0,0-2.15.41.39.39,0,0,0,.27.73,3.16,3.16,0,0,1,2.11-.22,1.13,1.13,0,0,0,.5.27,1.67,1.67,0,0,0,.62,0c.16-.05.26-.22.4-.31.92-.55,1.31-1.22,2.43-.7.68.32,1,1.08,1.79,1.09.57,0,2.88-1.76,3.06-.24a.38.38,0,0,0,.59.26l.25.05a.23.23,0,0,0,0,.38c.36.2,1-.08,1-.53A.21.21,0,0,0,121.37,51.1Z"/></svg>