<svg id="Layer_1" data-name="Layer 1" xmlns="http://www.w3.org/2000/svg" viewBox="0 0 172.44 29.4"><defs><style>.cls-1{fill:#eaf0f3;}.cls-2{fill:#f4f7f9;}.cls-3{fill:#eef3f6;}</style></defs><title>fog-cloud-l</title><path class="cls-1" d="M79.31,8.47a3.71,3.71,0,0,1,.4-1.11,6,6,0,0,0-1.37.84A6.7,6.7,0,0,1,79.31,8.47Z"/><path class="cls-2" d="M153,21C154,21,155.09,21,156.15,21A9.16,9.16,0,0,0,151,19.31l.13.18A3.75,3.75,0,0,1,153,21Z"/><path class="cls-2" d="M135.86,14.35a4.65,4.65,0,0,1,.45.14,4.35,4.35,0,0,1,1.94,1.44c1.94-.77,4.31-.14,6.37.89a6,6,0,0,1,4.27,1.72h.84a1.47,1.47,0,0,1,.6.16s0-.09,0-.14a3.43,3.43,0,0,0-4-4.22,3.12,3.12,0,0,0-1.17.61,7.56,7.56,0,0,0-1.49-.77,8.62,8.62,0,0,0-2.9-.53c-.86-2.34-4.86-3.3-5.89-.25A5.19,5.19,0,0,1,135.86,14.35Z"/><path class="cls-1" d="M62.43,12.15a4.11,4.11,0,0,0-.25.33c-.53.84-1,1,0,.86a2.22,2.22,0,0,0,.4-.11A1.73,1.73,0,0,1,62.43,12.15Z"/><path class="cls-2" d="M28.7,17a3.92,3.92,0,0,1,.62.25c1.11-1.47,2.74-2.47,4.48-2a7.67,7.67,0,0,1,1.68-1.59,36.5,36.5,0,0,0-6.73,1.16A4.15,4.15,0,0,0,26,16.88a3.53,3.53,0,0,0-1,.56l1.16-.39A3.94,3.94,0,0,1,28.7,17Z"/><path class="cls-2" d="M40.37,12.86a5.61,5.61,0,0,1,.64.24,6,6,0,0,1,1.38-.94c.36-.26.73-.5,1.11-.72l-.17,0h0a3.73,3.73,0,0,0-3.45-.49,3.57,3.57,0,0,0-2,1.76A5.62,5.62,0,0,1,40.37,12.86Z"/><path class="cls-1" d="M157.34,25A3.31,3.31,0,0,0,155,24c-.74,0-1.49,0-2.23,0l-1.11-.08h-.25l-.3-.06a4.45,4.45,0,0,0-2.63.3,2.93,2.93,0,0,0-.66-1A3.63,3.63,0,0,0,145.32,22h-1.14a3.68,3.68,0,0,0-2.52,1,3.5,3.5,0,0,0-.51.63,3.52,3.52,0,0,1-.4.21,3.6,3.6,0,0,0-.45-1.64A5.1,5.1,0,0,0,136,20a5.38,5.38,0,0,0-3.34,1.41h0l.52-.39-.34.24-.19.15a7.26,7.26,0,0,0-2.5-2.27,6.8,6.8,0,0,0-6.32-.42A6.11,6.11,0,0,0,120.74,23a2.05,2.05,0,0,1-1.32-.7,3.58,3.58,0,0,1-.56.2,7.06,7.06,0,0,0-4-3,7.37,7.37,0,0,0-5.64.41,5.1,5.1,0,0,0-1.7,1.55h0a7.24,7.24,0,0,1-1.1.25c0-.09-.07-.18-.12-.27a7.15,7.15,0,0,0-4.46-3.52,7.44,7.44,0,0,0-7.9,2.19,5.29,5.29,0,0,1-1.6-.79l-.16,0a5.89,5.89,0,0,1-3.46,2.3,6.42,6.42,0,0,1-8-6.57,6.76,6.76,0,0,1-1,.74c-4.17-5.44-14.45-2.08-17.43,4-.25.26-.49.53-.72.81a6.14,6.14,0,0,0-4.58-3,12.45,12.45,0,0,0-9.8,3.1,3.26,3.26,0,0,0-2.36-2.44,7.14,7.14,0,0,0-6.65,1.43A2.4,2.4,0,0,0,37.3,19,5.17,5.17,0,0,0,35,18.38a5,5,0,0,0-1.1.13,4,4,0,0,0-1.07.41,4.42,4.42,0,0,0-.79.58,3.49,3.49,0,0,0-.58-.17,9.47,9.47,0,0,0-1.74-.18,3.68,3.68,0,0,0-2.52,1,3.61,3.61,0,0,0-.64.85c-1.21.2-2.86.58-3.12.59a40.09,40.09,0,0,1-5-.4l-.57,0a1.78,1.78,0,0,1-.13.32,24.3,24.3,0,0,0-3.55-.86,8.91,8.91,0,0,0-6.95,2.07c-.83.29-1.65.6-2.46,1C3,24.46,2,21.64,3.74,20.8L4,20.67a2,2,0,0,0-2,.83,2.07,2.07,0,0,0,.61,2.83,1.17,1.17,0,0,0,.78.18,3.11,3.11,0,0,0,.69.22,1,1,0,0,0,1.1-.9v-.16A1.31,1.31,0,0,0,6,24l.93,0a3.75,3.75,0,0,0,1.37.53,3.62,3.62,0,0,0,2.94-.76l.16-.15a11.61,11.61,0,0,0,6.42-.16,78,78,0,0,0,7.82.43,5.66,5.66,0,0,0,.94-.11,4.39,4.39,0,0,0,2.7.94,6.73,6.73,0,0,0,5.19-2.52h0l1,0A3.76,3.76,0,0,0,38.68,24a5.6,5.6,0,0,0,1.11,0v0L40,24a5.24,5.24,0,0,0,.57-.14l1.66-.4a4.56,4.56,0,0,0,4.26.44l2.86-1.23a5,5,0,0,0,5.51,1.84,6.32,6.32,0,0,0,1.66.9,10,10,0,0,0,4.34.43,3.78,3.78,0,0,0,2.61,1.68,46,46,0,0,0,14.62,0,6.55,6.55,0,0,1,3.24.05,16.48,16.48,0,0,0,3,1.1,5.48,5.48,0,0,0,2.57-.27,5.42,5.42,0,0,0,4.26.37c.83-.26,1.5-.94,2.3-1.17a6.7,6.7,0,0,1,3.37.33c3.24.7,8.84,2.86,11.82.35a1.34,1.34,0,0,0,.38-.44,1.69,1.69,0,0,0,.45.33,5.63,5.63,0,0,0,5.13.09c.17-.08.34-.17.51-.26l.23.12c2.92,2.91,9.43-1.22,12.57-1.64a17.48,17.48,0,0,1,4.67,0A5.6,5.6,0,0,0,135.26,28a6.65,6.65,0,0,0,3.57-.25c1,.25,2.06.48,3.11.66a16.64,16.64,0,0,0,9.82-1.36,2.39,2.39,0,0,0,1.34.28,1.69,1.69,0,0,0,1.49-1.06,2.33,2.33,0,0,0,2.09-.3c.39.07.78.12,1.16.16a5.84,5.84,0,0,0,3.87.14,1.25,1.25,0,0,0,1.86-.58l0-.08a1,1,0,0,0,.4.88,1.74,1.74,0,0,0,1.47.27,1.54,1.54,0,0,0,1.13-.37,1.66,1.66,0,0,0,.23-.25,28,28,0,0,0-7.33-1.88A2.83,2.83,0,0,0,157.34,25Z"/><path class="cls-2" d="M133.08,11c-3.38-2.56-7.29-2.09-10.53-.13-1.11-2.1-3.69-3.25-5.83-4A15.88,15.88,0,0,0,115,6.42c0-.06,0-.13,0-.19a5.31,5.31,0,0,0-.21-1,4,4,0,0,0-.48-2.14c-1.92-3.6-7.86-4-10.23-1.56l-.47-.13a10,10,0,0,0-6.3.41,13.94,13.94,0,0,0-7.22,1.68,18.59,18.59,0,0,1,4.35.66,9.08,9.08,0,0,1,2.35-.77,9,9,0,0,1,2.64-1.1l-.57-.19a9.57,9.57,0,0,1,4.63.23c0,.06-.07.1-.1.16a8.76,8.76,0,0,1,2.52,1.38,6.48,6.48,0,0,1,2.49,5.7,4.59,4.59,0,0,1,4.73,2.08,5.73,5.73,0,0,1,.88.68l.4,0a5.85,5.85,0,0,1,1.12.26,6.57,6.57,0,0,1,5.65,1.13A5.62,5.62,0,0,1,123,15.1l.11-.06a4,4,0,0,1,.4-.44,5.11,5.11,0,0,1,4.2-1.29,6.07,6.07,0,0,1,3-1.12,6.28,6.28,0,0,1,4.1,1.13A4.89,4.89,0,0,0,133.08,11Z"/><path class="cls-1" d="M36.47,17.83a4.37,4.37,0,0,1,.18.71c.44-.64.9-1.29,1.39-1.93l-.16,0A3,3,0,0,0,36.47,17.83Z"/><path class="cls-2" d="M80.51,2.81a10.76,10.76,0,0,0-7.23,1.84,5.85,5.85,0,0,1,2.18.63A10.76,10.76,0,0,1,80.51,2.81Z"/><path class="cls-2" d="M53.54,11.52a4.24,4.24,0,0,1,3.51.8A6,6,0,0,1,60.1,8.73l.31-.31a9.83,9.83,0,0,1,1.27-1,3.93,3.93,0,0,0-3.61-.35,4.41,4.41,0,0,0-2.44,3.39,5.33,5.33,0,0,0-2.32-.88,10.06,10.06,0,0,0-4.23.4h.13A8.38,8.38,0,0,1,53.54,11.52Z"/><path class="cls-2" d="M69.46,5.34A8.09,8.09,0,0,1,73,4.65a6,6,0,0,0-9.29.05h-.35A1.6,1.6,0,0,0,62.07,6.1,9,9,0,0,0,62,7.26,12,12,0,0,1,69.46,5.34Z"/><path class="cls-3" d="M170.75,23.43A48.41,48.41,0,0,0,156.15,21a9.29,9.29,0,0,1,1.34,1.12,2.21,2.21,0,0,1,.41.6h.18a4.82,4.82,0,0,1,2.45-.7,2,2,0,0,1,.78-.39c2.28-.61,2.8,1.59,2.49,3.3a3,3,0,0,1,.16-.29,1.41,1.41,0,0,1,1.3-1.18h0a1.23,1.23,0,0,1,1.25.16,1.89,1.89,0,0,1,.28,2.57c.62.26,1.24.55,1.85.89a3,3,0,0,1,.64.49C171.8,28,173.34,24.28,170.75,23.43Z"/><path class="cls-3" d="M73.28,4.66H73l.09.11Z"/><path class="cls-3" d="M49.08,10a9.9,9.9,0,0,0-5.58,1.44,3.12,3.12,0,0,1,2.06,1.1A6.06,6.06,0,0,1,49.08,10Z"/><path class="cls-3" d="M62,7.26l-.27.17.25.17C61.94,7.49,61.95,7.37,62,7.26Z"/><path class="cls-3" d="M37.54,13.64a3.87,3.87,0,0,1,.34-1,5.83,5.83,0,0,0-2.41,1A17.6,17.6,0,0,1,37.54,13.64Z"/><path class="cls-3" d="M86,6.5q.33-.37.72-.72a15.42,15.42,0,0,1,3.34-2.26,14.12,14.12,0,0,0-3.2.26,9.39,9.39,0,0,0-6.37-1A8.09,8.09,0,0,1,81.76,3,6.67,6.67,0,0,1,86,6.5Z"/><path class="cls-3" d="M5.08,21.28a1.24,1.24,0,0,1,.85-.35h1a1.64,1.64,0,0,1,.69-.12,2.22,2.22,0,0,1,.74.12H9.1a1.8,1.8,0,0,1,2.35-1.11,9.14,9.14,0,0,0,2.55.52A5,5,0,0,1,21.08,19a1.69,1.69,0,0,1,.66.94c.58.07,1.17.19,1.75.28,0-.23,0-.45.06-.68a1.92,1.92,0,0,1,.71-1.24,4.22,4.22,0,0,1,.79-.84A8.49,8.49,0,0,1,21,18c-6-.48-11.52.07-17,2.68a2.37,2.37,0,0,1,.77.28A.76.76,0,0,1,5.08,21.28Z"/><path class="cls-3" d="M102.09,4.19a5.71,5.71,0,0,1,1-.6,3.49,3.49,0,0,1,.3-1.09,7.13,7.13,0,0,0-4-.21,6.34,6.34,0,0,1,1.6.89A7.06,7.06,0,0,1,102.09,4.19Z"/><path class="cls-3" d="M151,19.31a2.24,2.24,0,0,0-.72-.59,3.15,3.15,0,0,1-.28.63A8.94,8.94,0,0,1,151,19.31Z"/><path class="cls-3" d="M134.89,13.42l-.12-.09c0,.06.05.13.07.19Z"/><path class="cls-3" d="M166.54,23.61a1.23,1.23,0,0,0-1.25-.16h0a1.41,1.41,0,0,0-1.3,1.18,3,3,0,0,0-.16.29c.31-1.71-.2-3.91-2.49-3.3a2,2,0,0,0-.78.39,4.82,4.82,0,0,0-2.45.7h-.18a2.21,2.21,0,0,0-.41-.6A9.29,9.29,0,0,0,156.15,21c-1.06,0-2.12,0-3.19.05a3.75,3.75,0,0,0-1.79-1.55l-.13-.18a8.94,8.94,0,0,0-1,0,3.15,3.15,0,0,0,.28-.63,1.47,1.47,0,0,0-.6-.16h-.84a6,6,0,0,0-4.27-1.72c-2.05-1-4.43-1.66-6.37-.89a4.35,4.35,0,0,0-1.94-1.44,4.65,4.65,0,0,0-.45-.14,5.19,5.19,0,0,0-1-.93l0,.11c0-.07-.05-.13-.07-.19a6.28,6.28,0,0,0-4.1-1.13,6.07,6.07,0,0,0-3,1.12,5.11,5.11,0,0,0-4.2,1.29,4,4,0,0,0-.4.44l-.11.06a5.62,5.62,0,0,0-1.81-1.34,6.57,6.57,0,0,0-5.65-1.13,5.85,5.85,0,0,0-1.12-.26l-.4,0a5.73,5.73,0,0,0-.88-.68,4.59,4.59,0,0,0-4.73-2.08,6.48,6.48,0,0,0-2.49-5.7,8.76,8.76,0,0,0-2.52-1.38,3.49,3.49,0,0,0-.3,1.09,5.71,5.71,0,0,0-1,.6,7.06,7.06,0,0,0-1.06-1,6.34,6.34,0,0,0-1.6-.89,9,9,0,0,0-2.64,1.1,9.08,9.08,0,0,0-2.35.77,18.59,18.59,0,0,0-4.35-.66,15.42,15.42,0,0,0-3.34,2.27q-.38.35-.72.72A6.67,6.67,0,0,0,81.76,3a8.09,8.09,0,0,0-1.25-.23,10.76,10.76,0,0,0-5.05,2.48,5.85,5.85,0,0,0-2.18-.63l-.15.1L73,4.65a8.09,8.09,0,0,0-3.57.69A12,12,0,0,0,62,7.26c0,.11,0,.23,0,.34l-.25-.17a9.83,9.83,0,0,0-1.27,1l-.31.31A6,6,0,0,0,57,12.31a4.24,4.24,0,0,0-3.51-.8A8.38,8.38,0,0,0,49.21,10h-.13a6.06,6.06,0,0,0-3.53,2.54,3.12,3.12,0,0,0-2.06-1.1c-.38.22-.75.46-1.11.72A6,6,0,0,0,41,13.1a5.68,5.68,0,0,0-3.13-.42,3.87,3.87,0,0,0-.34,1,17.6,17.6,0,0,0-2.07,0,7.67,7.67,0,0,0-1.68,1.59c-1.74-.5-3.37.49-4.48,2a3.77,3.77,0,0,0-3.1-.14l-1.16.39a4.22,4.22,0,0,0-.79.84,1.92,1.92,0,0,0-.71,1.24c0,.23,0,.45-.06.68-.58-.1-1.17-.22-1.75-.28a1.69,1.69,0,0,0-.66-.94A5,5,0,0,0,14,20.31a9.14,9.14,0,0,1-2.55-.52A1.8,1.8,0,0,0,9.1,20.9H8.37a2.22,2.22,0,0,0-.74-.12,1.64,1.64,0,0,0-.69.12h-1a1.24,1.24,0,0,0-.85.35A.76.76,0,0,0,4.79,21,2.37,2.37,0,0,0,4,20.67l-.27.13C2,21.64,3,24.46,4.81,23.65c.81-.36,1.63-.67,2.46-1a8.91,8.91,0,0,1,6.95-2.07,24.3,24.3,0,0,1,3.55.86,1.78,1.78,0,0,0,.13-.32l.57,0a40.09,40.09,0,0,0,5,.4c.25,0,1.91-.4,3.12-.59a3.61,3.61,0,0,1,.64-.85,3.68,3.68,0,0,1,2.52-1,9.47,9.47,0,0,1,1.74.18,3.49,3.49,0,0,1,.58.17,4.42,4.42,0,0,1,.79-.58,4,4,0,0,1,1.07-.41,5,5,0,0,1,1.1-.12A5.17,5.17,0,0,1,37.3,19a2.4,2.4,0,0,1,.88.74,7.14,7.14,0,0,1,6.65-1.43,3.26,3.26,0,0,1,2.36,2.44,12.45,12.45,0,0,1,9.8-3.1,6.14,6.14,0,0,1,4.58,3c.23-.28.47-.55.72-.81,2.4-4.94,9.58-8.09,14.45-6.24a.29.29,0,0,0,.13.26A7.37,7.37,0,0,1,80,20.51a.38.38,0,0,0,.75.12A8,8,0,0,0,80.67,17a.25.25,0,0,0,.28-.1,6.36,6.36,0,0,0,7.76,4.71,6,6,0,0,0,2.43-1.21.29.29,0,0,0,.17,0L92.39,20a3.35,3.35,0,0,1,1,0l-.19.29a4.42,4.42,0,0,0-.83,2.28.19.19,0,0,0,.34.1,19.68,19.68,0,0,0,.82-1.95c.11-.21.22-.41.34-.6h0a7.44,7.44,0,0,1,7.9-2.19,7.55,7.55,0,0,1,3.82,2.51,8.93,8.93,0,0,1,.53,2.89c0,.28.48.37.56.09a4.49,4.49,0,0,0,.13-1.79c.21,0,.43-.1.64-.16h0a5.1,5.1,0,0,1,1.7-1.55,7.37,7.37,0,0,1,5.64-.41,7.06,7.06,0,0,1,4,3,3.58,3.58,0,0,0,.56-.2,2.12,2.12,0,0,0,1.08.65,7.21,7.21,0,0,0-.08,1.38.17.17,0,0,0,.34,0,21.27,21.27,0,0,1,.53-2.93,5.55,5.55,0,0,1,2.6-2.73,6.8,6.8,0,0,1,6.32.42,7.26,7.26,0,0,1,2.5,2.27l.19-.15.34-.24-.52.39h0A5.38,5.38,0,0,1,136,20a5.1,5.1,0,0,1,4.25,2.29,3.6,3.6,0,0,1,.45,1.64,3.52,3.52,0,0,0,.4-.21,3.5,3.5,0,0,1,.51-.63,3.68,3.68,0,0,1,2.52-1h1.14a3.63,3.63,0,0,1,2.49,1.08,2.93,2.93,0,0,1,.66,1,4.45,4.45,0,0,1,2.63-.3l.3.06h.25l1.11.08c.74,0,1.49,0,2.23,0a3.31,3.31,0,0,1,2.36,1,2.83,2.83,0,0,1,2.15-.67,28,28,0,0,1,7.33,1.88A1.89,1.89,0,0,0,166.54,23.61ZM36.65,18.54a4.37,4.37,0,0,0-.18-.71,3,3,0,0,1,1.4-1.17l.16,0C37.55,17.25,37.09,17.9,36.65,18.54ZM62.2,13.35c-1,.14-.53,0,0-.86a4.11,4.11,0,0,1,.25-.33,1.73,1.73,0,0,0,.16,1.09A2.22,2.22,0,0,1,62.2,13.35Zm17.51-6a3.71,3.71,0,0,0-.4,1.11,6.7,6.7,0,0,0-1-.28A6,6,0,0,1,79.71,7.36Z"/><path class="cls-2" d="M29,16.21a2.36,2.36,0,0,0-2,.57,3.9,3.9,0,0,0-2.22-.57,5,5,0,0,0-3.56,1.42,3.16,3.16,0,0,0-4.54,0,4.87,4.87,0,0,0-2.6-.48c-1.07.11-1.91.75-3,.78S8,17.95,7.93,19.23a6.18,6.18,0,0,0-3,.71.39.39,0,0,0-.12-.09,1.85,1.85,0,0,0-1.79-.16,1,1,0,0,0-.49.71.67.67,0,0,0-.86.48s0,0,0,0a1.52,1.52,0,0,0-.77.19.9.9,0,0,0-.49.8,1.19,1.19,0,0,0-.3,1.49h0a.8.8,0,0,0,.44.47A2.17,2.17,0,0,0,2.25,24c.44-.13.25-.76-.15-.75A.44.44,0,0,0,2,23a.39.39,0,0,0-.08-.1c0-.21,0-.43,0-.64.48-.92,1.91-.94,2.85-1.29,1.24-.46,2.4-1.3,3.74-.6a.47.47,0,0,0,.65-.47l.39-.75a.46.46,0,0,0,.17-.31c.88-.08,2.09,0,2.43-.11,1.61-.57,2.67-1.07,4.34-.17a.48.48,0,0,0,.57-.14,2.69,2.69,0,0,1,.63-.52,3.41,3.41,0,0,1,2.62.3,2.59,2.59,0,0,1,.2.19.5.5,0,0,0,.27.16l0,0a.42.42,0,0,0,.58-.07l.2-.18a.25.25,0,0,0,.17,0c1.56-.44,3.3-.95,4.85-.25a.5.5,0,0,0,.58-.14,1.59,1.59,0,0,1,1.6-.79A.5.5,0,0,0,29,16.21Z"/><path class="cls-2" d="M97.83,5.34a10.41,10.41,0,0,0-5.16-2.22.54.54,0,0,0-.29-.5,15.89,15.89,0,0,0-18.9,1.76A.34.34,0,0,0,73,4.6L71.7,4.5l-.37-.08-.07,0-.47-.11a.19.19,0,0,0-.17,0,2.16,2.16,0,0,0-.64,0,.28.28,0,0,0,0,.52l.2.05a14.1,14.1,0,0,0-7.73,1.3A11.28,11.28,0,0,0,56.22,14c-1-2.35-4-4-6.35-4.53a9.07,9.07,0,0,0-8.17,2.42.47.47,0,0,0-.26-.32,6,6,0,0,0-5.35,0c-1.08.52-2.85,1.76-2.75,3.14a.19.19,0,0,0,.35.06l0-.06a.24.24,0,0,0,.36,0A8,8,0,0,1,36.64,13a6.68,6.68,0,0,1,2.87-.16.2.2,0,0,0,.17.2,3.35,3.35,0,0,1,.85.2c.5.18.73-.61.2-.7a2,2,0,0,0-.55,0,.4.4,0,0,0-.23-.45l-.11-.05a5.5,5.5,0,0,1,1.19.39.43.43,0,0,0,.49-.07.26.26,0,0,0,.35,0,9.72,9.72,0,0,1,7.83-2,8.63,8.63,0,0,1,3.57,1.69A19.59,19.59,0,0,1,55.8,15a.39.39,0,0,0,.31.14c0,.16,0,.32,0,.48s.35.22.4,0c1-3.91,3.18-7.16,7-8.75,4.07-1.69,8.26-.88,12.2.73a.53.53,0,0,0,.42-1c-.43-.2-.88-.39-1.33-.56A11.94,11.94,0,0,1,83,2.82c3.32,0,5.8,1.56,8.26,3.6.41.34,1-.23.68-.65a9.31,9.31,0,0,0-2.3-2h.11c.53,0,1.45.1,1.72.12a10.58,10.58,0,0,1,1.74.24,9.82,9.82,0,0,1,4,2A.46.46,0,0,0,97.83,5.34Z"/><path class="cls-2" d="M107.58,4.22A9.46,9.46,0,0,0,96,2.89c-.19.12,0,.42.18.34,3.36-1.19,7.18-1.38,10.11,1a5.92,5.92,0,0,1,2.3,4c.15,2-.81,3.27-2.24,4.46a.39.39,0,0,0,.37.69C110.55,12,109.87,6.6,107.58,4.22Z"/><path class="cls-2" d="M131.64,11.77c-2.28-.33-4.32.28-4.85,2.68a.16.16,0,0,0,.28.12,4.47,4.47,0,0,1,1.68-1.74,5.46,5.46,0,0,1,3.21,0,4.93,4.93,0,0,1,3.65,3.61c.14.51,1,.31.91-.21A5.67,5.67,0,0,0,131.64,11.77Z"/><path class="cls-2" d="M171.31,23.6a2,2,0,0,0-2.09-.88c-1.22.09-2.28-.72-3.61-.65a.44.44,0,0,0-.3.13c-.2-.13-.4-.27-.63-.39s-.55-.28-.85-.4a5.55,5.55,0,0,0-3.13-.79c-.44,0-1.5,0-1.89.38a2.6,2.6,0,0,0-2.3-1c-.79,0-2.5-.07-3.29.56a5.56,5.56,0,0,0-1.38-1.67,3.14,3.14,0,0,0-2.93-.57c-.1-.13-.21-.25-.3-.35a5.22,5.22,0,0,0-3.15-1.42.21.21,0,0,0-.2.09,4.7,4.7,0,0,0-2-1.33c-1.39-.48-3.66-.64-4.77.52-.12.12,0,.36.21.28,2.54-1.32,6.74.14,6.78,3.27,0,.52.78.42.79-.08a3.81,3.81,0,0,0-.68-2.24A5.6,5.6,0,0,1,148,18.48a4.08,4.08,0,0,1,.79,1.24,4.51,4.51,0,0,0,.41,1.14.26.26,0,0,0,.44,0,2.24,2.24,0,0,0-.41-1.91,3.37,3.37,0,0,1,2,.68c.38.3,1.38,1.41,1.31,1.95s.77.67.83.13a1.28,1.28,0,0,0,0-.17l.19-.08a.18.18,0,0,0,.24.18c2-.69,3.59,0,5.31,1a.42.42,0,0,0,.5-.12c1-1.41,2.93-.5,4.14.13l.07.06a.42.42,0,0,0,.2.1,2.35,2.35,0,0,0,2.43.88,2.83,2.83,0,0,1,.5.05,1.35,1.35,0,0,1,.27,1.05.51.51,0,0,0,.81.36c.74-.6,3-1,3,.58a.53.53,0,0,0,.92.41C172.91,25.08,172.26,24.09,171.31,23.6Z"/></svg>