<svg id="Layer_1" data-name="Layer 1" xmlns="http://www.w3.org/2000/svg" viewBox="0 0 200.74 27.87"><defs><style>.cls-1{fill:#eaf0f3;}.cls-2{fill:#f4f7f9;}.cls-3{fill:#eef3f6;}</style></defs><title>fog-cloud-j</title><path class="cls-1" d="M23.53,23.2a3.15,3.15,0,0,0,2.7-1.39c3.64,2.6,7.7,2.78,11.89,2.35,1.58,1.53,4.3,2.48,6.36,1.75a4.09,4.09,0,0,0,4.82,1.75c1.58-.5,2.41-1.91,3.92-2.2a8.58,8.58,0,0,0,2.27-.55C56.55,26.34,58,27.48,59.93,27a3.48,3.48,0,0,0,1.41-.71,3.51,3.51,0,0,0,5.06.21c3.7,1.41,9.71,1.33,12.18-.92,1.07,2.58,4.63,1.62,6.16.73.57-.33.67-.86,1.14-1.8.47-.26,1.64-1,2.09-1.26,1.56,1.58,3.49,1.48,3.7.54.22,1.37,1.29,2.77,3.73,2.79.71,0,1.38-.52,2.19-.56a4.73,4.73,0,0,0,1.52,0c.55-.2.92-.77,1.34-.9,1.3-.4,2,.13,2.89.68a2.88,2.88,0,0,0,2.12.6,3.51,3.51,0,0,0,4.5,1,2.82,2.82,0,0,0,.67-.56,3.31,3.31,0,0,0,4.8-2,.6.6,0,0,0,0-.07A12.48,12.48,0,0,0,122,27c4.83.43,6.44.21,8.11-.83a4.83,4.83,0,0,0,2.56.89,4.25,4.25,0,0,0,3.6-1.93,20.13,20.13,0,0,1,2-.55c5.82,4.47,11.72,2,14.62.82,5.15,2.15,10.3,1.72,11.59-.32,2.15,2.15,7.64.42,8.39,0h0a3,3,0,0,0,1.71.48,3.39,3.39,0,0,0,3.08-1.86l1.05.06a3,3,0,0,0,3.75.2c1.6.08,3.2.14,4.81.15a.74.74,0,0,0,.61-.29c.43,0,.87-.11,1.31-.18a2.33,2.33,0,0,0,3.88-.63,2.29,2.29,0,0,0,.33-.18.91.91,0,0,0,0,.1,1,1,0,0,0,.92,1h.13l.13,0h0a3.46,3.46,0,0,0,1.51.78,11,11,0,0,0,4.05-.78c1.27-.7,0-2-1.21-1.39a3.65,3.65,0,0,0-2.69-1,1,1,0,0,0-.48-.23c0,.06-.32,0-.33,0a.93.93,0,0,0-.56.23,1,1,0,0,0-.15.17.57.57,0,0,0-.36.23h-.2s0-.05,0-.08a2.75,2.75,0,0,0,.11-1c0-.06,0-.11,0-.16a3.41,3.41,0,0,0-1-.16,3.81,3.81,0,0,0-2.88,1.34c-2-.83-3.88-2.09-6.12-2.39a11.46,11.46,0,0,0-1.73,0c.05-.05-1.67-.32-1.42-.31a4.67,4.67,0,0,0-1.83.23,8,8,0,0,0-2-.28,3.38,3.38,0,0,0-3.14,1.89,3.12,3.12,0,0,0-1-.3,3.41,3.41,0,0,0-1.36-.3,12.7,12.7,0,0,0-2.81.09,5.26,5.26,0,0,0-3.18,2.25,2.65,2.65,0,0,0-.36.65c-2.55-.54-4.48-1.49-6.74-1.1a8,8,0,0,0-5.8-.38c-2.08-1.26-4.58-1-7.08.37a18.28,18.28,0,0,0-3.17.16,5.19,5.19,0,0,0-.65-.57,5.28,5.28,0,0,0-4.4-1,4.13,4.13,0,0,0-2.57,2.07,4,4,0,0,0-1.39-.72,5.77,5.77,0,0,0-1.47-.2,3.74,3.74,0,0,0-2,.56,3.28,3.28,0,0,0-.8-1.27l-.07-.06a4.08,4.08,0,0,0-.13-2.74A4.31,4.31,0,0,0,126.84,16a6.73,6.73,0,0,0-5.19-2.84,4.62,4.62,0,0,0-2.43.72c-.14-.11-.29-.21-.43-.3a4,4,0,0,0-3.14-.52,3.91,3.91,0,0,0-2.36,2l-.06,0a4.51,4.51,0,0,0-3.35-.59,4.16,4.16,0,0,0-1-.86l-.06,0a3.6,3.6,0,0,0-1-.89c-1.67-1-4.15-.54-5.86.49a6,6,0,0,0-2.36,2.77,6.61,6.61,0,0,0-6.81,3.24,4,4,0,0,0-.24.51,8.68,8.68,0,0,0-6.39-3.56A9.72,9.72,0,0,0,79.42,18a7.53,7.53,0,0,0-4.34-4.15,7.62,7.62,0,0,0-7.33,1.87,9.68,9.68,0,0,0-2,2.39,6.07,6.07,0,0,0-.58-.68c-1.87-1.86-4.68-2.14-7.14-1.64a8.44,8.44,0,0,0-5.51,3.63A5.52,5.52,0,0,0,51.82,23a4.16,4.16,0,0,0-.31-.49A4.26,4.26,0,0,0,49.32,21a6.89,6.89,0,0,0-3.62.1,3.57,3.57,0,0,0-2.19,1.72A3.19,3.19,0,0,0,40.2,20a3.33,3.33,0,0,0-2.47,1l-.2-.23a3.54,3.54,0,0,0-5-.09l-.29.36c-.12.09-.24.18-.36.28A3.47,3.47,0,0,0,31,22.86l-.11,0a3.14,3.14,0,0,0-.72-1.12,3.56,3.56,0,0,0-2.49-1.08,3.7,3.7,0,0,0-2.36.86c-.13,0-.33-1.21-.46-1.27-1.47,0-2.87,1.06-4.35.94a2,2,0,0,1-.61-.15c-.49.16-1,.32-1.39.44a21.74,21.74,0,0,1-4.6.73,22.52,22.52,0,0,1-7.82-1.06l0,0c-1,0-1.93-.14-2.66-.14a5.22,5.22,0,0,0-2.68.63,1,1,0,0,0,0,1.78c1.58.44,3.5-.15,5.18-.15a21,21,0,0,0,2.93-.1c2.66.4,6.8.89,7.84-.66a2.9,2.9,0,0,0,1.37.82,5.8,5.8,0,0,0,2.68.17l.93,0A2.74,2.74,0,0,0,23,23.32l.39-.12h0l-.25.08Zm83.64-9.12h0L107,14C107.34,14.07,107.38,14.1,107.17,14.08Z"/><path class="cls-2" d="M157.31,15.79c-.91-1.71-4-1.19-4.25-.87a3.42,3.42,0,0,0-3.16-1.41l-.43.07c-.05-.08-.09-.16-.15-.24-2.14-3-7-3.12-10.31-2.78a37.72,37.72,0,0,0-4.64.73,6.48,6.48,0,0,0-3-1A5.92,5.92,0,0,0,126.79,12l-.19-.17a5.71,5.71,0,0,0-1-.63,5.25,5.25,0,0,0-1.84-1.42,4.93,4.93,0,0,0-5.17.86q-.2.17-.38.36a6.2,6.2,0,0,0-2.46-1.73,6.48,6.48,0,0,0-4.76,0l-.2.1a7.33,7.33,0,0,0-.88-.23A8.59,8.59,0,0,0,108,9a.34.34,0,0,0-.1-.25l-.08-.08h0a6.54,6.54,0,0,0-5.91-2.08A16.18,16.18,0,0,0,100,4.29,13.52,13.52,0,0,0,92.58.12a11.37,11.37,0,0,0-9.71,3.39c-.11-.1-.21-.21-.32-.31-3-2.64-7.72-1.84-10.7.48a6.67,6.67,0,0,0-2,2.05,6.47,6.47,0,0,0-7.42-1.41,6.28,6.28,0,0,0-3.7,6.44l-.55.32a3.8,3.8,0,0,1,.88.94l.48.15c.26-.12.53-.22.81-.32a7.74,7.74,0,0,1,1.41-.32,5.35,5.35,0,0,1,5.09-4,4.34,4.34,0,0,1,2.77.91,6.67,6.67,0,0,1,2.46.06,6.14,6.14,0,0,1,7-2.21l.42.2a4.57,4.57,0,0,1,3.68.34,6.42,6.42,0,0,1,8.53-1.75A8.26,8.26,0,0,1,93.16,6.2a5.67,5.67,0,0,1,2,1.47,3.2,3.2,0,0,1,2.28,2l.17.13A1.93,1.93,0,0,1,98.36,11a4,4,0,0,1,4.13-3.1A4.3,4.3,0,0,1,106,9.7l.33.11a5.59,5.59,0,0,1,5.61,1.35c5.91-.23,11.87,2.58,17.86,3.48a22.84,22.84,0,0,1,.53-2.42l.29-.16a2,2,0,0,1,1.87-.19c6.34-.81,6.68,3.68,12.68,5.95,1.51.57,7.37-1.23,6.36-.35l9.75.18A7.06,7.06,0,0,1,162,17s1.36.36,1.37.35C163,15.07,159.22,14.3,157.31,15.79Z"/><path class="cls-2" d="M40.86,16.61a2.78,2.78,0,0,1,.62,0,24.45,24.45,0,0,0,2.92-.68c1.14-.33,2.21-.76,3.31-1.18a7.46,7.46,0,0,1,1.94-.43,2.16,2.16,0,0,1,.47-.57A5.53,5.53,0,0,1,51.41,13a4.08,4.08,0,0,1,2.43-2.43l-.29-.07a7.05,7.05,0,0,0-7,3,4.62,4.62,0,0,0-.45.9,5.34,5.34,0,0,0-2.84-.91,1.38,1.38,0,0,0-2,.26,4.69,4.69,0,0,0-2.56,1.85A2,2,0,0,1,40.86,16.61Z"/><path class="cls-2" d="M178,14.49a3.56,3.56,0,0,0-3.44-.75A4.25,4.25,0,0,0,172,16.06C174.24,16.06,175.85,15,178,14.49Z"/><path class="cls-2" d="M17.86,18.4c.54-.16,1-.29,1.49-.41a2,2,0,0,1,1.71-.71,50.3,50.3,0,0,0,14.71-1,16.68,16.68,0,0,1-6.23-.9,3.56,3.56,0,0,0-4.48,1.83A3.06,3.06,0,0,0,24,16.85l.13.08L24,16.84h0c0-1.48-1.38-1.62-2-.89a.84.84,0,0,0-.7-.64,2.58,2.58,0,0,0-2.52.4c-1.66.08-2.49,1.19-2.85,2.71a1.51,1.51,0,0,0-1.91-.05c-1.26-.46-1.59.18-2,.75A18.33,18.33,0,0,0,17.86,18.4Z"/><path class="cls-1" d="M107,14l.15.1C107.38,14.1,107.34,14.07,107,14Z"/><ellipse class="cls-1" cx="107.17" cy="14.08" ry="0.01" transform="translate(24.82 84.1) rotate(-47.86)"/><path class="cls-3" d="M38.74,15.56l-.31.06c-.87.24-1.74.45-2.62.64.87,0,1.75-.08,2.62-.17A4.2,4.2,0,0,1,38.74,15.56Z"/><path class="cls-3" d="M56.46,12.18a17.55,17.55,0,0,1,1.72-1.1A4.47,4.47,0,0,0,54,10.45l-.2.08A4.34,4.34,0,0,1,56,11.6,5,5,0,0,1,56.46,12.18Z"/><path class="cls-2" d="M163.1,17.81a2.7,2.7,0,0,1,1.1.88c1.26.19,2.52.4,3.78.62,0-.06,0-.11.06-.17l.06-.1c.21-1.75,2.16-2.15,3.5-1.54a5.38,5.38,0,0,1,.26-1.11c0-.12.09-.23.14-.35-.22,0-.44,0-.67,0-3.31-.31-6.14-1.07-9.06,1.06.15.07.06,0,.22.12A1.66,1.66,0,0,1,163.1,17.81Z"/><path class="cls-3" d="M190.93,18.52a8.63,8.63,0,0,0-1.76.94c-1-.14-1.61-1.43-2.89-1.5a3.29,3.29,0,0,0-1.46.23,1.36,1.36,0,0,0-1.63.79h-.12a2.38,2.38,0,0,0-.55-1.35A5.76,5.76,0,0,0,179,15.9a3.42,3.42,0,0,0-1-1.4c-2,0-4.28.1-5.76,1.34l-.39.57a5.37,5.37,0,0,0-.26,1.11c-1.34-.61-3.28-.21-3.5,1.54l-.06.1c0,.06,0,.11-.06.17-1.26-.23-2.52-.44-3.78-.62a2.7,2.7,0,0,0-1.1-.88,1.66,1.66,0,0,0-.61-.58c-.15-.08-.26-.25-2.09-.49,0,0-6-.74-8.89.73,1-.87-1.49-3.47-4.63-2.71-.93-4-8.07-3.7-14.41-2.89a2,2,0,0,0-1.87.19l-.29.16a8.1,8.1,0,0,0-.74,1.45c-4.87-2.13-11.75-2.75-17.66-2.52a5.59,5.59,0,0,0-5.61-1.35L106,9.7a4.3,4.3,0,0,0-3.49-1.8A4,4,0,0,0,98.36,11a1.93,1.93,0,0,0-.71-1.23l-.17-.13a3.2,3.2,0,0,0-2.28-2,5.67,5.67,0,0,0-2-1.47,8.26,8.26,0,0,0-1.45-1.06,6.42,6.42,0,0,0-8.53,1.75,4.57,4.57,0,0,0-3.68-.34l-.42-.2a6.14,6.14,0,0,0-7,2.21,6.67,6.67,0,0,0-2.46-.06,4.34,4.34,0,0,0-2.77-.91,5.35,5.35,0,0,0-5.09,4,7.74,7.74,0,0,0-1.41.32c-.28.09-.55.2-.81.32L59.06,12a3.8,3.8,0,0,0-.88-.94,17.55,17.55,0,0,0-1.72,1.1A5,5,0,0,0,56,11.6a4.34,4.34,0,0,0-2.11-1.08A4.08,4.08,0,0,0,51.41,13a5.53,5.53,0,0,0-1.28.79,2.16,2.16,0,0,0-.47.57,7.46,7.46,0,0,0-1.94.43c-1.1.42-2.18.85-3.31,1.18a24.45,24.45,0,0,1-2.92.68,2.78,2.78,0,0,0-.62,0,2,2,0,0,0-2.12-1,4.2,4.2,0,0,0-.31.53c-.88.09-1.75.15-2.62.17-3.18-2.28-7.63-.83-7.44,1.16-.3-2.87-8.72-1.45-9,.57-.43-.46-.89-.54-1.49.41-1.63-1.57-4.93-.47-5.8.71a2.28,2.28,0,0,0-.2.33l0,0a1.56,1.56,0,0,0-.6,1.14,1.23,1.23,0,0,0-.35-.26A4.16,4.16,0,0,0,6,21.1v0a22.52,22.52,0,0,0,7.82,1.06,21.74,21.74,0,0,0,4.6-.73c.43-.11.9-.28,1.39-.44a2,2,0,0,0,.61.15c1.49.12,1.72-.72,3.77-.18a4.62,4.62,0,0,1,1,.5,3.7,3.7,0,0,1,2.36-.86,3.56,3.56,0,0,1,2.49,1.08,3.14,3.14,0,0,1,.72,1.12H31a3.46,3.46,0,0,1,.92-1.52c.11-.1.24-.19.36-.28l.29-.36a3.54,3.54,0,0,1,5,.09l.2.23a3.33,3.33,0,0,1,2.47-1,3.19,3.19,0,0,1,3.3,2.79,3.57,3.57,0,0,1,2.19-1.72,6.89,6.89,0,0,1,3.62-.1,4.26,4.26,0,0,1,2.2,1.57,4.16,4.16,0,0,1,.31.49,5.52,5.52,0,0,1,.72-3.64,8.44,8.44,0,0,1,5.51-3.63c2.45-.5,5.26-.22,7.12,1.62l0,0,.07.08a5.23,5.23,0,0,1,1.29,3.57.32.32,0,0,0,.63.1,4.58,4.58,0,0,0-.73-4.11,9.36,9.36,0,0,1,1.27-1.37,7.62,7.62,0,0,1,7.33-1.87A7.53,7.53,0,0,1,79.42,18a9.72,9.72,0,0,1,6.77-1.91,8.68,8.68,0,0,1,6.39,3.56,4,4,0,0,1,.24-.51A6.35,6.35,0,0,1,98,15.87a6.08,6.08,0,0,0,.57,3.46c.7,1.46,2,3.32,3.79,3.2.27,0,.44-.45.18-.61-2.08-1.27-2.27-3.27-2.15-5.35a13.41,13.41,0,0,1,3.5-4.16.32.32,0,0,0,.07-.08,5.14,5.14,0,0,1,3.91.32,3.6,3.6,0,0,1,1,.89l.06,0a4.16,4.16,0,0,1,1,.86,4.51,4.51,0,0,1,3.35.59l.06,0a3.91,3.91,0,0,1,2.36-2,4,4,0,0,1,3.14.52c.15.09.29.19.43.3a4.62,4.62,0,0,1,2.43-.72A6.73,6.73,0,0,1,126.84,16a4.31,4.31,0,0,1,2.48,2.39,4.05,4.05,0,0,1,.3,1.5,4.42,4.42,0,0,1-2.13,2.59c-.35.18-.17.75.22.59a6.53,6.53,0,0,0,2.17-1.46,3.39,3.39,0,0,1,.44.85,3.74,3.74,0,0,1,2-.56,5.77,5.77,0,0,1,1.47.2,4,4,0,0,1,1.39.72,4.13,4.13,0,0,1,2.57-2.07,5.28,5.28,0,0,1,4.4,1,5.19,5.19,0,0,1,.65.57,18.28,18.28,0,0,1,3.17-.16c2.51-1.39,5-1.63,7.08-.37a8,8,0,0,1,5.8.38c2.26-.39,4.19.55,6.74,1.1a2.65,2.65,0,0,1,.36-.65,5.26,5.26,0,0,1,3.18-2.25,12.7,12.7,0,0,1,2.81-.09,3.42,3.42,0,0,1,1.11.2,3.78,3.78,0,0,1,.93,1.25.35.35,0,0,0,.19.18,3.75,3.75,0,0,0,0,.41c0,.19.33.17.31,0a3.21,3.21,0,0,1,0-.41.3.3,0,0,0,.14-.32,2.43,2.43,0,0,1,0-.49,3.31,3.31,0,0,1,1-1.66,3.42,3.42,0,0,1,1.74-.43,8,8,0,0,1,2,.28,4.67,4.67,0,0,1,1.83-.23c-.24,0,1.48.25,1.42.31a11.46,11.46,0,0,1,1.73,0c2.23.3,4.09,1.57,6.12,2.39a3.81,3.81,0,0,1,2.88-1.34,3.41,3.41,0,0,1,1,.16A2.85,2.85,0,0,0,190.93,18.52Z"/><path class="cls-2" d="M43.75,14a5.65,5.65,0,0,0-4.62-1,4.78,4.78,0,0,0-2.55,1.4,1.37,1.37,0,0,0-.49.5L36,15h0l-.12,0,0,0c-2.53-1.8-6.21-1.79-8.22.78a2.2,2.2,0,0,0-.34-.23.42.42,0,0,0-.19-.19A5.14,5.14,0,0,0,23,15.06c-1.67-2-5.86-1-6.83.87a1.79,1.79,0,0,0-1.39,1.46,6.54,6.54,0,0,0-2.53,1.11c-.77.56-1,1.15-2,1.08a5.81,5.81,0,0,0-2.31.19,17.39,17.39,0,0,1-3.15,1c-1.13.13-2.32-.25-3.42.21-.87.37-1.8,1.42-1,2.3A.28.28,0,0,0,.76,23c-.2-.54,1.13-1.3,1.59-1.35a15.44,15.44,0,0,1,1.74.08,6,6,0,0,0,1.58-.17c1.75-.44,2.93-1.23,4.79-.91.68.12.92-.08,1.41-.53a6.09,6.09,0,0,1,5-1.9c.4,0,.8-.44.49-.8l.15-.78c1.59-1,3.44-1.93,4.86-.78a.41.41,0,0,0,.15.09.46.46,0,0,0,.24,0,17.63,17.63,0,0,0,2.19.07,5.86,5.86,0,0,1,2.6.64.39.39,0,0,0,.48-.54,8.91,8.91,0,0,1,.77-.52.5.5,0,0,0,.21,0h.12a.33.33,0,0,0,.25-.11,7.43,7.43,0,0,1,6.3.51.51.51,0,0,0,.61,0,.49.49,0,0,0,.48.09,9.73,9.73,0,0,1,1-.28,6.43,6.43,0,0,1,4.47,2.42.41.41,0,0,0,.72-.39A4.29,4.29,0,0,0,40,15.41a.48.48,0,0,0-.32-.71l.66-.09a11.43,11.43,0,0,1,3.07.26A.49.49,0,0,0,43.75,14Z"/><path class="cls-2" d="M61.11,12.81a6.26,6.26,0,0,0-1.26-1.15.52.52,0,0,0,.26-.79,4.61,4.61,0,0,0-1.41-1,.46.46,0,0,0,0-.17c.57-.14,1-.54.83-1.18A.93.93,0,0,0,59,7.88a9.29,9.29,0,0,1,1.46-.13c.56,0,.57-.89,0-1a7.54,7.54,0,0,0-7.6,3.44,4.49,4.49,0,0,0-2.54,2.58.32.32,0,0,0-.34.29v.07h0a.32.32,0,0,0-.51.2,1,1,0,0,0,.66,1,.35.35,0,0,0,.28,0,1.88,1.88,0,0,0,.49,1.09c0,.06,0,.13,0,.19a.25.25,0,0,0,.12.16c0,.14,0,.29.08.43s.29.12.3,0a4.79,4.79,0,0,1,.89-3,5.52,5.52,0,0,1,8,.21C60.71,13.89,61.52,13.31,61.11,12.81Z"/><path class="cls-2" d="M94.29,5.94a.16.16,0,0,0,.09.05l.16,0c.29.05.28-.44,0-.38l-.16,0a.17.17,0,0,0-.12.25,3.74,3.74,0,0,0-.32-.35.31.31,0,0,0-.48.17,5.63,5.63,0,0,0-3.71-2.28.13.13,0,0,0-.07.24c2.88,1.63,5,4.1,4.64,7.63,0,.41.58.64.72.21l0-.09h0A5.93,5.93,0,0,0,94.29,5.94Z"/><path class="cls-2" d="M146.71,14.23a2.61,2.61,0,0,0-.65-1.83.42.42,0,0,0-.47-.14.47.47,0,0,1-.61-.19.42.42,0,0,0-.6-.08.19.19,0,0,0-.3.09,11.16,11.16,0,0,0-3.71-1,14.22,14.22,0,0,0-6.4.77.41.41,0,0,0-.14-.15.35.35,0,0,0-.31-.32,4.4,4.4,0,0,0-2.12.39,1.83,1.83,0,0,0-.83.07,1.19,1.19,0,0,0-.88,1.1A8.62,8.62,0,0,0,123,11.84a.37.37,0,0,0-.47-.35l-.33.08a.37.37,0,0,0-.35-.18,1.69,1.69,0,0,1-1.12-.32.39.39,0,0,0-.59.17,5.91,5.91,0,0,0-2.54-.39c-.77,0-1.76-.09-2.67,0a3.49,3.49,0,0,0-1.33-.24.45.45,0,0,0-.23,0,2.34,2.34,0,0,0-1.17.36,5.58,5.58,0,0,0-6.64-.79c-.26.14,0,.56.24.45a5.5,5.5,0,0,1,5.16.46,24.18,24.18,0,0,0,1.72,2.25.29.29,0,0,0,.45,0c1.44-2.08,6-1.85,7.62-.2a.46.46,0,0,0,.7-.13,15,15,0,0,1,4.95-.47,6,6,0,0,1,4.48,3.28.4.4,0,0,0,.75-.28,4.92,4.92,0,0,0-.31-.79,14,14,0,0,1,3.24-2.09,11.76,11.76,0,0,1,4.79-.72,9.93,9.93,0,0,1,5,1.39c1.87,1.21,2.15,2.73,2.74,4.68a.35.35,0,0,0,.65,0A4.31,4.31,0,0,0,146.71,14.23Z"/><path class="cls-2" d="M200.57,22.5a.51.51,0,0,0-.65-.3c-.2.09-.81-.6-1-.7a3.6,3.6,0,0,0-.68-.23,6.78,6.78,0,0,1-1.34-.48,3.81,3.81,0,0,0-.93-.43,1.6,1.6,0,0,0-1.34.29,2.75,2.75,0,0,0-3.53-2.1h0c-.62,0-1.38.46-1.92.42s-1-.68-1.46-.91a6.78,6.78,0,0,0-2-.68,2.91,2.91,0,0,0-2.26.33,5.84,5.84,0,0,0-4.1-2.14,4.19,4.19,0,0,0-.7-.94A5,5,0,0,0,175.37,13a4.28,4.28,0,0,0-3.82,1.83c-2.73-1.63-6.78-1.25-8.23,1.93-.13.28.24.46.44.26a9.86,9.86,0,0,1,1-.84.48.48,0,0,0,.34.11c1.15-.11,2.15-.48,3.14-.56l0,0a9.87,9.87,0,0,1,2.81.92.44.44,0,0,0,.29,0c0,.05,0,.11,0,.16l0,.06,0,0c-.08-.06-.16,0-.12.11s.25.45.38.66.33.09.4,0c.82-1.45,1.5-3,3.45-3,2.41-.08,2.53,2,3.66,3.44a.33.33,0,0,0,.59-.22,3.88,3.88,0,0,0-.3-1.47.8.8,0,0,0,0-.1A6.89,6.89,0,0,1,183,18.66a.48.48,0,0,0,.76,0c.81-.94,2.66-.16,3.49.3.49.27,1.08,1,1.68,1.1s1-.34,1.55-.43a2.68,2.68,0,0,1,3.14,2,.52.52,0,0,0,.94,0,.19.19,0,0,0,.19-.09c.46-.7,1.17-.22,1.72.08l.12.06,0,.08a.51.51,0,0,0,.51.7,1.93,1.93,0,0,1,1.86.69,1.16,1.16,0,0,0,.93.43A.83.83,0,0,0,200.57,22.5Z"/><path class="cls-2" d="M168.14,19.11c-2-1.4-6-.89-7.28,1.23a.34.34,0,0,0,.46.48,9.83,9.83,0,0,1,3.28-1.59,9.68,9.68,0,0,1,3.37.27A.22.22,0,0,0,168.14,19.11Z"/><path class="cls-3" d="M196.33,21.84l-.08-.1a.46.46,0,0,0-.48-.16,1.46,1.46,0,0,0-.82-.45,1.39,1.39,0,0,0-.62.08c-1.12-2.53-5.94-1.48-8-1.18-1-1.45-3.82-1.69-5.61-1l0,0a.4.4,0,0,0-.61.15c0,.09,0,.16-.06.23l-.22.17c-1.53-1.37-4.19-.75-5.46,1.12a.19.19,0,0,0,.3.24c1.52-1.62,4.61-2.32,5.39.42a.38.38,0,0,0,.72-.07,1.69,1.69,0,0,1,.1-.7,2.38,2.38,0,0,0,1-1c1.73-.23,4,.32,4,1.85a.44.44,0,0,0,.69.31,2.45,2.45,0,0,1,1.68-.63,6.59,6.59,0,0,1,1.28.44c.45.21.91-.49.46-.77l-.1-.05h0l-.06,0-.28-.15a6.38,6.38,0,0,1,3.28.41.45.45,0,0,0,.09.24l.45.62a2,2,0,0,1,.15.45.47.47,0,0,0,.72.2.46.46,0,0,0,.29-.25c.38-.15.91.29,1.22.39a.47.47,0,0,0,.6-.23l0-.1A.44.44,0,0,0,196.33,21.84Z"/></svg>