<svg id="Layer_1" data-name="Layer 1" xmlns="http://www.w3.org/2000/svg" viewBox="0 0 190.59 30.01"><defs><style>.cls-1{fill:#f4f7f9;}.cls-2{fill:#eaf0f3;}.cls-3{fill:#eef3f6;}</style></defs><title>fog-cloud-h</title><path class="cls-1" d="M3.06,17.44l.27-.21a1.74,1.74,0,0,0-1.45,0c-.69.36-.85,1.55,0,1.8a1.24,1.24,0,0,0,.75.48A1.73,1.73,0,0,1,3.06,17.44Z"/><path class="cls-2" d="M4.91,16.31l-.09,0a.88.88,0,0,0-1,.57,6,6,0,0,1,.82-.42Z"/><path class="cls-2" d="M20,19.61a2.52,2.52,0,0,1-3.75-.38A1.82,1.82,0,0,1,16,17.6a2.23,2.23,0,0,1-.41-.07,6.69,6.69,0,0,0-1.33-.13,12.88,12.88,0,0,0-2.37.08,13.22,13.22,0,0,0-1.89.39,1.72,1.72,0,0,1-1.54,1.82l-1.53,0-.43.11c1.53,2.11,6.49,1,8.88-.11,1.92,1,3.66,1.92,5.77,1.24A2.31,2.31,0,0,1,20,19.61Z"/><path class="cls-2" d="M5.66,20.08A1.53,1.53,0,0,0,6.05,20l-.51.13Z"/><path class="cls-3" d="M4.24,19.17H3.76a1.2,1.2,0,0,1-1.15.38,1.54,1.54,0,0,0,2.46.66l.47-.12A1.21,1.21,0,0,1,4.24,19.17Z"/><path class="cls-3" d="M3.76,17.45a2.5,2.5,0,0,1,0-.42,1,1,0,0,1,.05-.17,6.33,6.33,0,0,0-.52.37,1.49,1.49,0,0,1,.36.21Z"/><path class="cls-3" d="M21.16,21a1.53,1.53,0,0,0,1.82-.2,4.17,4.17,0,0,0,.36-.37c-.18-.07-.36-.15-.55-.24A6.58,6.58,0,0,1,21.16,21Z"/><path class="cls-3" d="M6.29,19.83,6.05,20l.45-.12-.07-.08A.46.46,0,0,1,6.29,19.83Z"/><path class="cls-1" d="M175.5,20h0c.06-2-2-3.32-4.09-2.93A6.42,6.42,0,0,0,168,18.75c.58,0,1.16,0,1.73.1C171.74,19.06,173.58,19.61,175.5,20Z"/><path class="cls-2" d="M113.41,20.44l.48,0-.22-.12Z"/><path class="cls-2" d="M157.75,22.42l0,0a2.29,2.29,0,0,1-3.58-.29c-.09.09-.17.18-.27.26a1.9,1.9,0,0,1-2.37,0,4.11,4.11,0,0,1-3.07,2.28,1.92,1.92,0,0,1-1.18-.24,4.25,4.25,0,0,1-4.85.88,1.87,1.87,0,0,1-1.1-1.21,2.2,2.2,0,0,1-1.33-1.7,2.7,2.7,0,0,1-.15-.25,2.4,2.4,0,0,1-3.33-.94,1.51,1.51,0,0,0-1.28-.9A2.51,2.51,0,0,1,134,21.72l-2.29,1.19c-1.32.69-2.43-.39-2.69-1.6a3.77,3.77,0,0,1-2-.63,1.79,1.79,0,0,1-.76-1.4l-.21.19a2.13,2.13,0,0,1-2.93.33,19.7,19.7,0,0,0-3.5-2.46,2.87,2.87,0,0,1-.31.68,5.11,5.11,0,0,1-2.61,2.19c1,1.72,3.7,2.21,6,2.27l1.68,0,.35.19a3.36,3.36,0,0,0,3.68.11c1,.23,1.86.58,3,.85a14.56,14.56,0,0,0,3.1.37,2.93,2.93,0,0,0,.58,1,5.7,5.7,0,0,0,.57.94A5.11,5.11,0,0,0,140,27.92a3.16,3.16,0,0,0,2.29.33,8.9,8.9,0,0,0,3.93-2.38,3.45,3.45,0,0,0,2.61.63h.06a8.22,8.22,0,0,0,2.72.23,6.06,6.06,0,0,0,3.2-1.76,2.8,2.8,0,0,0,2.44-.2,4.65,4.65,0,0,0,1.28.51,5.79,5.79,0,0,0,4.94-1.16,3.26,3.26,0,0,0,.83-1.11c-1.57.12-3.13.28-4.58.34A2.14,2.14,0,0,1,157.75,22.42Z"/><path class="cls-2" d="M164.51,23c1.31,1.46,3.45,3,4.66.88a2.67,2.67,0,0,0,.67-.19,13.27,13.27,0,0,0,6.13.23,24.68,24.68,0,0,1-5.59-.7A20.75,20.75,0,0,0,164.51,23Z"/><path class="cls-1" d="M165.15,18.58a3.7,3.7,0,0,0-.66-.67,1.71,1.71,0,0,0-1.28-2.27,1.84,1.84,0,0,0-.48,0,2.14,2.14,0,0,0-.93-.8,2.66,2.66,0,0,0-2-.19c0-.09,0-.19-.07-.28a4.27,4.27,0,0,0-5.38-2.55,4.74,4.74,0,0,0-2.86,2.33,3,3,0,0,0-.58-.18,2.25,2.25,0,0,0-1.28-.12,2.37,2.37,0,0,0-1.72,1.52,2.68,2.68,0,0,0-1.85,0,1.45,1.45,0,0,0-1.15,1.42l-.37,0A3.46,3.46,0,0,0,143,15.66l-.86-.34a2.2,2.2,0,0,0,.08-.39,2.29,2.29,0,0,0-1-2.18,3,3,0,0,0-3.81.79l-.1,0a5.29,5.29,0,0,0-2.51-2.44c-1.69-.77-3,.3-4.2,1.48a10.43,10.43,0,0,0-1.38.21A3.7,3.7,0,0,0,126,11.41a4.24,4.24,0,0,0-2.92-1.57,5,5,0,0,0-3.35,1,3.46,3.46,0,0,0-1.21,0,5.48,5.48,0,0,0-3.79-4.29,6.09,6.09,0,0,0-5.31.94,4.39,4.39,0,0,0-2,.74c-1.79-2.8-4.37-4.88-7.62-4.43a5.55,5.55,0,0,0-3.55,2.05l-.32.07C93.37,1.73,86.67-.7,82.09.75a9,9,0,0,0-5.89,3,8,8,0,0,0-6-.32,8.7,8.7,0,0,0-1.22.14,16.78,16.78,0,0,0-6-3.36,4,4,0,0,0-3.27.22,8.13,8.13,0,0,0-4.47,4.35c-.25.52-.48,1.07-.69,1.64a10.45,10.45,0,0,0-1.92.37,10,10,0,0,0-7.37-2,6.86,6.86,0,0,0-4,2.13c-2.07-.31-4-.16-5.75,1.88a5.12,5.12,0,0,0-1.13,2.35,11.6,11.6,0,0,0-1.39.49c-.53-.23-.84-1.67-3.1-.71C27.2,7.71,22,9.85,21.83,12.75a2.3,2.3,0,0,0-3.76,1.48,7.23,7.23,0,0,1,.81.38,3.6,3.6,0,0,1,2.93-.3,5.31,5.31,0,0,1,2.43-1.06,4.21,4.21,0,0,1,1.38-.72A4.28,4.28,0,0,1,30,13.72a5.28,5.28,0,0,1,4.31-.37,7.82,7.82,0,0,1,6.41-3.83,4.82,4.82,0,0,1,.69.05A5.31,5.31,0,0,1,43.1,8.9a5.32,5.32,0,0,1,7.28-1,5,5,0,0,1,1.08,1,7.4,7.4,0,0,1,.75-.08,7.57,7.57,0,0,1,4,1,5.71,5.71,0,0,1,1-3.12c2.43-3.53,7.89-3,10.49.07a7.83,7.83,0,0,1,.67.93,6.21,6.21,0,0,1,2.06-.53,6.68,6.68,0,0,1,4.88,1.75,7.23,7.23,0,0,1,2-4.69l-.15-.07A8.56,8.56,0,0,1,79,2.74l-.2.24a8,8,0,0,1,1.36-.66C83.88,1,86.58,2.77,88.42,6a6.51,6.51,0,0,1,3.1,1.7q.27.25.5.5a6.72,6.72,0,0,1,4.21,1.74c2.93-1.49,6.05-1.91,7.94.69a3.18,3.18,0,0,1,.57,1.29,11.1,11.1,0,0,1,3.71.14,2.18,2.18,0,0,1,1.72,1.62,11,11,0,0,1,2,.34,6.75,6.75,0,0,1,3.16-.49,6.28,6.28,0,0,1,1.73-.71c2.9-.72,5.41.8,7.52,2.64,2.64-1.74,6.27-2.77,7.86.73a5,5,0,0,1,.59.28,6.76,6.76,0,0,1,5.34.92,3.61,3.61,0,0,1,2.09-.32,3.71,3.71,0,0,1,2.77,2.06c1.3-1.66,3.08-2.86,5-2.55A3.74,3.74,0,0,1,152,15.53l.28.08a4,4,0,0,1,2.91-.71,4.13,4.13,0,0,1,3.4,3,3.72,3.72,0,0,1,2.11,1.21c2-.12,4.18-.32,6.25-.34A4.11,4.11,0,0,0,165.15,18.58Z"/><path class="cls-1" d="M182.59,21.46A4.66,4.66,0,0,1,181,21a1.71,1.71,0,0,1-1.16,2.53l-.73.14a3,3,0,0,0,2.26.69,1.5,1.5,0,0,0,.49-.19l.19,0a.76.76,0,0,0,1.42-.28,2.54,2.54,0,0,0,.63-.47.79.79,0,0,0,.31.1,1.49,1.49,0,0,0,.73-.06,1.45,1.45,0,0,0,1.16.94,1.32,1.32,0,0,0,1.24-.58,2.77,2.77,0,0,0,.31.11,2.81,2.81,0,0,0,.95.09,2.65,2.65,0,0,0,.48-.08c.11,0,.52-.06.21-.12a1,1,0,0,0,1.12-1.06v-.11a.84.84,0,0,0-.7-.74l-.11,0a1,1,0,0,0-1,.49,1.13,1.13,0,0,1-1.23-.52.73.73,0,0,0-1.22,0A8.56,8.56,0,0,0,182.59,21.46Z"/><path class="cls-2" d="M126.88,27a55.65,55.65,0,0,0-8.66-.61c-3.55-.06-7.55.13-10.83-1.44a3.81,3.81,0,0,0-5.15,2,2.38,2.38,0,0,1-1.28-.53,1.87,1.87,0,0,1-2-1.24,4,4,0,0,1-.15-1l-.42.17a3.94,3.94,0,0,1-1.46,1.2c-1.28.62-2.29-.37-2.54-1.51a3.61,3.61,0,0,1-2.91,0,1.74,1.74,0,0,1-1.13-1.54,3.68,3.68,0,0,1-1.94,1.21,2.18,2.18,0,0,1-2.21-.7,3.71,3.71,0,0,1-3.25,1.2,1.8,1.8,0,0,1-1.39-1,3.16,3.16,0,0,1-3.43-1.72,3.41,3.41,0,0,1-.17-.42,4.46,4.46,0,0,1-3,0,1.72,1.72,0,0,1-.48-.26,4.32,4.32,0,0,1-5.3-3.15,4.14,4.14,0,0,1-1.19-1c-.12.15-.23.3-.36.44a2,2,0,0,1-3.5-1c0-.23,0-.45-.05-.68a4.48,4.48,0,0,1-5.32,2c-2.07.57-4.52-.36-4.26-3a3.86,3.86,0,0,1,.13-.68,6.67,6.67,0,0,0-2.33-.89,5,5,0,0,1-4.13,3.76,1.87,1.87,0,0,1-1.91-1,5.28,5.28,0,0,1-.69.15,4,4,0,0,1-4.39,2.21A3.16,3.16,0,0,1,38.23,20a4.16,4.16,0,0,1-3.46-1.39,2,2,0,0,1-1.34-1.18c-.24-.63-1.73-.84-1.93,0a2.07,2.07,0,0,1-2.79,1.43,5,5,0,0,1-4.23,1.42,1.51,1.51,0,0,1-.82-.34,4.55,4.55,0,0,1-.32.42c3.61,1.45,6.47-.82,7.16-.91a1.34,1.34,0,0,0,.64,2.23q.78.16,1.55.26c1.53.65,2.68,2.31,4.6,1.92a2.69,2.69,0,0,0,1.57-.9,4.45,4.45,0,0,0,4.69-.42,3.38,3.38,0,0,0,1.13-.49,25.91,25.91,0,0,1,3.12,1.06,3.36,3.36,0,0,0,1.45.41,2,2,0,0,0,1.42-.78,5.65,5.65,0,0,0,4.57,1.88,7.21,7.21,0,0,0,4.17-2c.33-.3.64-.6.95-.86l.13-.09a2.45,2.45,0,0,0,.77.64,3,3,0,0,0,3-.17,3.16,3.16,0,0,0,1,1c1,.43,1.62-.21,2.43-.18l.06.11c2,3.08,4.23,5.25,8.05,5.53a13.21,13.21,0,0,0,5.61-.93,3.77,3.77,0,0,0,1.38-.57l.36-.17a3.27,3.27,0,0,0,1.14,1.63,3.19,3.19,0,0,0,3.89-.11c3,2.33,7.6,1.91,10.67-.78l.19-.06a2.42,2.42,0,0,0,2.4,2.29,7.65,7.65,0,0,0,5.62-2.26,2.73,2.73,0,0,0,.52.18,3.86,3.86,0,0,0,2.84,1.42,3,3,0,0,0,1.75-.5,3.94,3.94,0,0,0,.6-.86l.06,0a1.22,1.22,0,0,0,1.38-.55l.27,0a1,1,0,0,0,.51-.08l.15,0,.65.07a3.56,3.56,0,0,0,1.28.88,1.05,1.05,0,0,0,1.19-.28,7.08,7.08,0,0,0,4.57.2,1.1,1.1,0,0,0,.74.23l1.59-.1.22.07a.63.63,0,0,0,.53-.12l.85,0a4.79,4.79,0,0,0,1.37.61,4.37,4.37,0,0,0,2.44-.1,1.37,1.37,0,0,0,1.09-.36,1.26,1.26,0,0,0,.25-.32,1.16,1.16,0,0,0,.19-1.07,1.52,1.52,0,0,0-2.82-.19v0a2.18,2.18,0,0,1-.46-.07.82.82,0,0,0-.19-.23,6.46,6.46,0,0,0-1.46-.88,3,3,0,0,0-.22-.36.79.79,0,0,0-.27-.23A2.27,2.27,0,0,1,126.88,27Z"/><path class="cls-1" d="M107.89,19.08a5.91,5.91,0,0,1-5.26,1.25,2.58,2.58,0,0,1-.44-.15l-.35.16a3.33,3.33,0,0,1,1.4.24,3,3,0,0,1,1.39,1.09,9.52,9.52,0,0,1,2.83.43A56.35,56.35,0,0,0,117,24.25c-1-.53-1.87-1.29-3-1.9a5,5,0,0,0-2.38-.7,4,4,0,0,0-1.9.41,1.12,1.12,0,0,0-.19.13,1.58,1.58,0,0,0-.81-1,3.45,3.45,0,0,0-.09-.45A2.09,2.09,0,0,1,107.89,19.08Z"/><path class="cls-2" d="M15.31,13.62a9.8,9.8,0,0,1,1.92.32A3,3,0,0,0,15.31,13.62Z"/><path class="cls-3" d="M78.12,3.59c.18-.13.36-.25.54-.37L78.84,3a7.78,7.78,0,0,0-1.58,1.27l.07,0A7.72,7.72,0,0,1,78.12,3.59Z"/><path class="cls-3" d="M113.9,20.4a1.92,1.92,0,0,0,1.09.2,7.08,7.08,0,0,0,1.69-.39,2.82,2.82,0,0,1-.28-.64A4.79,4.79,0,0,1,113.9,20.4Z"/><path class="cls-3" d="M110.27,19.89c-.42-.27-1.11.78-1.61.78v0a1.88,1.88,0,0,0,1,.45,5.94,5.94,0,0,0,3.76-.73A5.64,5.64,0,0,1,110.27,19.89Z"/><path class="cls-1" d="M123,25.72a2.63,2.63,0,0,1,2.67-.71l.32-.12a.88.88,0,0,1,.72.07,1.75,1.75,0,0,0-1.78-.77,31.43,31.43,0,0,1-7.89.06,5.63,5.63,0,0,0,1.66.58A33.54,33.54,0,0,1,123,25.72Z"/><path class="cls-3" d="M168,18.75h-1.06c.28.08.57.16.85.26A2.8,2.8,0,0,1,168,18.75Z"/><path class="cls-3" d="M178.21,21.44h.17a.81.81,0,0,1,.79-.38,2.38,2.38,0,0,1,1.2-.25A2.22,2.22,0,0,1,181,21a1.45,1.45,0,0,0-.1-.17c1.12-.12.89-1.91-.3-1.91-.81,0-1,.81-.7,1.38a2.05,2.05,0,0,0-.37,0,15.44,15.44,0,0,1-4-.28,5.39,5.39,0,0,0,1.85.46A.94.94,0,0,1,178.21,21.44Z"/><path class="cls-3" d="M18.05,14.64a1.71,1.71,0,0,1,0-.41,8,8,0,0,0-.83-.28A2.32,2.32,0,0,1,18.05,14.64Z"/><path class="cls-3" d="M9.72,16.15a1.66,1.66,0,0,1,1.06.25c-.33-1.29,1.18-2.58,2.94-1.87a2.87,2.87,0,0,1,1.59-.9,19.94,19.94,0,0,0-10.4,2.69,3.55,3.55,0,0,1,1.38.55A2.41,2.41,0,0,1,9.72,16.15Z"/><path class="cls-3" d="M178.65,23.2l-1.12,0a.82.82,0,0,1-.43.4,7.2,7.2,0,0,1-1.13.37,18,18,0,0,0,3.13-.29A3,3,0,0,1,178.65,23.2Z"/><path class="cls-3" d="M164.25,23l.26,0-.16-.19Z"/><path class="cls-3" d="M116.39,19.57c.06,0,0-.07,0,0Z"/><path class="cls-3" d="M181,21a2.22,2.22,0,0,0-.62-.14,2.38,2.38,0,0,0-1.2.25.81.81,0,0,0-.79.38h-.17a.94.94,0,0,0-.86-1A5.39,5.39,0,0,1,175.5,20c-1.92-.35-3.76-.91-5.79-1.12-.57-.06-1.14-.09-1.73-.1a2.8,2.8,0,0,0-.21.26c-.28-.1-.57-.19-.85-.26-2.07,0-4.2.23-6.25.34a3.72,3.72,0,0,0-2.11-1.21,4.13,4.13,0,0,0-3.4-3,4,4,0,0,0-2.91.71l-.28-.08a3.74,3.74,0,0,0-3.75,1.06c-2-.31-3.73.89-5,2.55a3.71,3.71,0,0,0-2.77-2.06,3.61,3.61,0,0,0-2.09.32,6.76,6.76,0,0,0-5.34-.92,5,5,0,0,0-.59-.28c-1.59-3.5-5.23-2.47-7.86-.73-2.11-1.84-4.61-3.36-7.52-2.64a6.28,6.28,0,0,0-1.73.71,6.75,6.75,0,0,0-3.16.49,11,11,0,0,0-2-.34,2.18,2.18,0,0,0-1.72-1.62,11.1,11.1,0,0,0-3.71-.14,3.18,3.18,0,0,0-.57-1.29c-1.89-2.6-5-2.18-7.94-.69A6.72,6.72,0,0,0,92,8.2q-.23-.25-.5-.5A6.51,6.51,0,0,0,88.42,6c-1.84-3.23-4.54-5-8.22-3.68A8,8,0,0,0,78.84,3l-.17.23c-.18.12-.36.24-.54.37a7.72,7.72,0,0,0-.8.7l-.07,0a7.23,7.23,0,0,0-2,4.69A6.68,6.68,0,0,0,70.34,7.2a6.21,6.21,0,0,0-2.06.53,7.83,7.83,0,0,0-.67-.93c-2.6-3-8.05-3.59-10.49-.07a5.71,5.71,0,0,0-1,3.12,7.57,7.57,0,0,0-4-1,7.4,7.4,0,0,0-.75.08,5,5,0,0,0-1.08-1,5.32,5.32,0,0,0-7.28,1,5.31,5.31,0,0,0-1.67.66,4.82,4.82,0,0,0-.69-.05,7.82,7.82,0,0,0-6.41,3.83,5.28,5.28,0,0,0-4.31.37,4.28,4.28,0,0,0-4.41-1.18,4.21,4.21,0,0,0-1.38.72,5.31,5.31,0,0,0-2.43,1.06,3.6,3.6,0,0,0-2.93.3,7.23,7.23,0,0,0-.81-.38,1.71,1.71,0,0,0,0,.41,2.32,2.32,0,0,0-.82-.69,9.8,9.8,0,0,0-1.92-.32,2.87,2.87,0,0,0-1.59.9c-1.77-.7-3.27.59-2.94,1.87a1.66,1.66,0,0,0-1.06-.25,2.41,2.41,0,0,0-3.43.71,3.55,3.55,0,0,0-1.38-.55l-.23.13a6,6,0,0,0-.82.42A1,1,0,0,0,3.8,17a2.5,2.5,0,0,0,0,.42H3.69a1.49,1.49,0,0,0-.36-.21l-.27.21a1.73,1.73,0,0,0-.45,2.11,1.2,1.2,0,0,0,1.15-.38h.48a1.21,1.21,0,0,0,1.31.92L6.05,20l.24-.12a.46.46,0,0,0,.15-.08l.07.08.43-.11,1.53,0A1.72,1.72,0,0,0,10,17.87a13.22,13.22,0,0,1,1.89-.39,12.88,12.88,0,0,1,2.37-.08,6.69,6.69,0,0,1,1.33.13,2.23,2.23,0,0,0,.41.07,1.82,1.82,0,0,0,.28,1.63,2.52,2.52,0,0,0,3.75.38A2.31,2.31,0,0,0,21.16,21a6.58,6.58,0,0,0,1.63-.81c.18.09.36.17.55.24a4.55,4.55,0,0,0,.32-.42,1.51,1.51,0,0,0,.82.34,5,5,0,0,0,4.23-1.42,2.07,2.07,0,0,0,2.79-1.43c.2-.85,1.68-.65,1.93,0a2,2,0,0,0,1.34,1.18A4.16,4.16,0,0,0,38.23,20a3.16,3.16,0,0,0,2.88-2.17,4,4,0,0,0,4.39-2.21,5.28,5.28,0,0,0,.69-.15,1.87,1.87,0,0,0,1.91,1,5,5,0,0,0,4.13-3.76,6.67,6.67,0,0,1,2.33.89,3.86,3.86,0,0,0-.13.68c-.26,2.65,2.2,3.58,4.26,3a4.48,4.48,0,0,0,5.32-2c0,.23,0,.46.05.68a2,2,0,0,0,3.5,1c.13-.14.25-.29.36-.44a4.14,4.14,0,0,0,1.19,1,4.32,4.32,0,0,0,5.3,3.15,1.72,1.72,0,0,0,.48.26,4.46,4.46,0,0,0,3,0,3.41,3.41,0,0,0,.17.42,3.16,3.16,0,0,0,3.43,1.72,1.8,1.8,0,0,0,1.39,1,3.71,3.71,0,0,0,3.25-1.2,2.18,2.18,0,0,0,2.21.7,3.68,3.68,0,0,0,1.94-1.21,1.74,1.74,0,0,0,1.13,1.54,3.61,3.61,0,0,0,2.91,0c.25,1.14,1.26,2.12,2.54,1.51a3.94,3.94,0,0,0,1.46-1.2l.42-.17a4,4,0,0,0,.15,1,1.87,1.87,0,0,0,2,1.24,2.38,2.38,0,0,0,1.28.53,3.81,3.81,0,0,1,5.15-2c3.28,1.57,7.29,1.38,10.83,1.44a55.65,55.65,0,0,1,8.66.61c2.44,0,.2-1.47-.18-2.06a.88.88,0,0,0-.72-.07l-.32.12a2.63,2.63,0,0,0-2.67.71,33.54,33.54,0,0,0-4.3-.9,5.63,5.63,0,0,1-1.66-.58,56.35,56.35,0,0,1-9.57-2.15,9.52,9.52,0,0,0-2.83-.43,3,3,0,0,0-1.39-1.09c-.5-.19-1.17-.34-1.05-.4a2.58,2.58,0,0,0,.44.15,5.91,5.91,0,0,0,5.26-1.25,2.09,2.09,0,0,0,.78,1.63v0c.5,0,1.19-1,1.61-.78a5.64,5.64,0,0,0,3.14.55l.26-.16.22.12a4.79,4.79,0,0,0,2.49-.83c0-.07.06,0,0,0a2.82,2.82,0,0,0,.28.64A5.11,5.11,0,0,0,119.28,18a2.87,2.87,0,0,0,.31-.68,19.7,19.7,0,0,1,3.5,2.46,2.13,2.13,0,0,0,2.93-.33l.21-.19a1.79,1.79,0,0,0,.76,1.4,3.77,3.77,0,0,0,2,.63c.26,1.21,1.37,2.29,2.69,1.6L134,21.72a2.51,2.51,0,0,0,1.25-1.36,1.51,1.51,0,0,1,1.28.9,2.4,2.4,0,0,0,3.33.94,2.7,2.7,0,0,0,.15.25,2.2,2.2,0,0,0,1.33,1.7,1.87,1.87,0,0,0,1.1,1.21,4.25,4.25,0,0,0,4.85-.88,1.92,1.92,0,0,0,1.18.24,4.11,4.11,0,0,0,3.07-2.28,1.9,1.9,0,0,0,2.37,0c.1-.08.19-.17.27-.26a2.29,2.29,0,0,0,3.58.29l0,0a2.14,2.14,0,0,0,1.92.93c1.45-.06,3-.22,4.58-.34l.09-.2.16.19a20.75,20.75,0,0,1,5.87.22,24.68,24.68,0,0,0,5.59.7,7.2,7.2,0,0,0,1.13-.37.82.82,0,0,0,.43-.4l1.12,0a3,3,0,0,0,.45.43l.73-.14A1.71,1.71,0,0,0,181,21Z"/><path class="cls-1" d="M133,27.36a.58.58,0,0,0-.14-.21.52.52,0,0,0-.07-.35,1.5,1.5,0,0,0-1.18-.77,1.45,1.45,0,0,1-.25-.15,1.38,1.38,0,0,0-1.79,0l-.58,0h-.12a1.83,1.83,0,0,0-1.66-.63,1,1,0,0,0-.34.14,2,2,0,0,0-.33-.31,2.39,2.39,0,0,0-1.8-.92,2.9,2.9,0,0,0-1.29.3l-.17.08c-.26-.62-1.17-.79-1.78-.77s-1.51.18-1.73.94h-.06a2.21,2.21,0,0,0-1.42-1.31,3.46,3.46,0,0,0-3,.48.2.2,0,0,0-.07.23A24.21,24.21,0,0,0,111,22.67l-.68-.22a.32.32,0,0,0-.16-.44.78.78,0,0,0-.83.16l-.12,0a.38.38,0,0,0-.31-.29l-.63-.16a1.49,1.49,0,0,0,.29-1.63v0a4.86,4.86,0,0,0-1.29-1.67,3.2,3.2,0,0,0-.38-.29,2.26,2.26,0,0,0-1.46-.68.4.4,0,0,0-.17,0,1.17,1.17,0,0,0-1.34.58.23.23,0,0,0,.17.32,5.69,5.69,0,0,0,1-.13,2.08,2.08,0,0,1,1,.26,1.76,1.76,0,0,1,.72,2,.2.2,0,0,0,.36.16,2.84,2.84,0,0,0,.26-.81,1.2,1.2,0,0,1,.5,1.11,5.76,5.76,0,0,1-.11.66c-.92-.24-2-.45-2.66,0a2.55,2.55,0,0,0-.64-.63c-1.19-1.58-4.65-.78-5.66.59-.18.25.13.61.39.41,1.45-1.13,3.06-1.61,4.61-.79a.33.33,0,0,0,.1.2,6.27,6.27,0,0,1,.82.79.4.4,0,0,0,.15.26,3,3,0,0,1,.36.88.28.28,0,0,0,.56-.06,1.89,1.89,0,0,0,0-.23.27.27,0,0,0,.27,0,.16.16,0,0,0,.17.07c1.09-.22,2.75,0,3.41,1l0,0a2.32,2.32,0,0,0-.2.41c-.09.24.15.61.43.46a16.1,16.1,0,0,1,1.62-1,6.52,6.52,0,0,1,2.11.8.42.42,0,0,0,.57-.29,4.29,4.29,0,0,1,1.14.71.38.38,0,0,0,.49,0h0a1.06,1.06,0,0,0-.14.2.17.17,0,0,0,.25.2,3.28,3.28,0,0,1,3.9.35c.28.34.84-.08.55-.4l-.05-.05h0a.2.2,0,0,0,.18,0c.87-.6,1.79,0,2.41.67a.32.32,0,1,0,.46-.44l-.27-.25h.1c1.16,0,2.09-.88,2.77.47a.48.48,0,0,0,.51.26l0,.06c.12.4.66.22.68-.14a1.86,1.86,0,0,0,.3.14,4.83,4.83,0,0,0,.79.19h0a.38.38,0,0,0,.3.16c.19.26.43.26.74.35h.09a.43.43,0,0,0,.52.18c.51-.28,1.32-.56,1.81-.15l-.13.17a.41.41,0,0,0,.09.61.32.32,0,0,0,.26.3C132.58,28.21,133.21,27.93,133,27.36Z"/><path class="cls-1" d="M180.11,23.53a3,3,0,0,0-1.68,0,.16.16,0,0,0,.07.31,7.17,7.17,0,0,1,1.57-.05A.12.12,0,0,0,180.11,23.53Z"/><path class="cls-1" d="M185.24,21.85a30.43,30.43,0,0,1-2.94-1.18,5.77,5.77,0,0,1-.64-.87l0,0a.87.87,0,0,0-.21-1,.5.5,0,0,0-.85.07.91.91,0,0,0-.43.14,2,2,0,0,0-1,.05,1.53,1.53,0,0,0-.51.39,5.44,5.44,0,0,1-3.25-.28.46.46,0,0,0-.46.08,5.76,5.76,0,0,0-4.31-.55.48.48,0,0,0-.19-.29.42.42,0,0,0-.67-.33,4.07,4.07,0,0,0-.85.78,3.05,3.05,0,0,0-1.17-.66,16.29,16.29,0,0,0-1.9.14,7.45,7.45,0,0,0-.75-.08.42.42,0,0,1-.18-.13.27.27,0,0,0-.47.12,7.3,7.3,0,0,0-.84.07,2.71,2.71,0,0,0-2.09,1,6.63,6.63,0,0,0-3-1.49,3.38,3.38,0,0,0-1.47-2.44,7.22,7.22,0,0,0-2.71-.87,2,2,0,0,0-2.05.46.36.36,0,0,0,0,.57.21.21,0,0,0,.25.32,4.16,4.16,0,0,1,3.5.58,3.44,3.44,0,0,1,1.6,1.89,3.11,3.11,0,0,1-.38,1.36c-.24.44.44.83.74.45a2.28,2.28,0,0,0,.5-1.76s0-.06,0-.09a7.52,7.52,0,0,1,2.85,2,.4.4,0,0,0,.71-.27c0-1.48,4.08-.64,4.77-.37.91.36,1.58,1,2.6.8a.53.53,0,0,0,.36-.24h.16c.39,0,.48-.47.33-.74l0-.12c1.91-.3,4.64,0,5.24,2.08.13.43.68.34.86,0,.77-1.32,2.78-.46,3.57.3a.46.46,0,0,0,.53,0l.23.1c.16.32.68.14.53-.2a1,1,0,0,0-.24-.33.72.72,0,0,0,.37-.23,1.45,1.45,0,0,0,1.23.87,5.94,5.94,0,0,1,1.49.58c.57.25.49.28,1.09.16S185.82,21.75,185.24,21.85Z"/><path class="cls-1" d="M85.78,2.65c-3.27-1.57-8-.74-10,2.47-.11.18.09.45.28.29C78.62,3.28,81.94,2,85.17,3.48A7.84,7.84,0,0,1,89.4,11.9a.49.49,0,0,0,1,.15A8.63,8.63,0,0,0,85.78,2.65Z"/><path class="cls-1" d="M105.16,11.84c-.3-2.52-2.77-3.75-5-4.27-.22-.05-.31.29-.11.38,2,.85,4.34,1.86,4.36,4.37,0,2-1.37,3.52-2.87,4.6-.44.31.06,1,.49.68C103.79,16.26,105.44,14.18,105.16,11.84Z"/><path class="cls-1" d="M64.57,4c-.18-.05-.3.23-.15.33,2.84,1.86,4.76,4.76,4.12,8.35-.08.43.61.66.75.22C70.38,9.51,67.95,4.93,64.57,4Z"/><path class="cls-1" d="M144.05,17.42c-1.86,1.11-2.15,3.52-1.58,5.45.16.56,1,.24.85-.32a4.52,4.52,0,0,1,1-4.82C144.54,17.55,144.25,17.3,144.05,17.42Z"/><path class="cls-1" d="M36.38,9.78C34.65,11.24,32.9,13.68,34,16a.41.41,0,0,0,.76-.29c-.62-2.26.43-4,1.92-5.61C36.9,9.93,36.59,9.6,36.38,9.78Z"/><path class="cls-1" d="M19.43,13.25a2.61,2.61,0,0,0-1,1.25,4.1,4.1,0,0,0-4.12-1c-.82.23-.81.34-1.51.27a7.2,7.2,0,0,0-2.3.13,9.47,9.47,0,0,0-3,1.3,8,8,0,0,1-1.64.93c-.81.26-1.2,0-1.89.09-.18,0-.34.22-.49.31a5.33,5.33,0,0,1-1.78.78,2.26,2.26,0,0,0-1.54.93c-.12.18-.11.5.14.58l.92.28c.45.13.76-.54.3-.68l-.35-.11a17.83,17.83,0,0,1,2.18-.69,6.39,6.39,0,0,1,.82-.46A9,9,0,0,1,5.49,17h0a2.67,2.67,0,0,0-.33.56c-.16.39-.24.92.18,1.16a.17.17,0,0,0,.24-.17,1.72,1.72,0,0,1,.14-1.11,4.78,4.78,0,0,1,.43-.64,13.29,13.29,0,0,0,1.7-1c1-.6,3.91-2.13,5-1a.43.43,0,0,0,.51,0c1.66-1.08,3.21-.58,4.8.27a1.94,1.94,0,0,0,.12,1.65.28.28,0,0,0,.47-.05c.17-.5,0-1.07.09-1.61a5.62,5.62,0,0,1,.73-1.68C19.66,13.28,19.51,13.2,19.43,13.25Z"/></svg>