<svg id="Layer_1" data-name="Layer 1" xmlns="http://www.w3.org/2000/svg" viewBox="0 0 135.68 31.42"><defs><style>.cls-1{fill:#eaf0f3;}.cls-2{fill:#f4f7f9;}.cls-3{fill:#eef3f6;}</style></defs><title>fog-cloud-d</title><path class="cls-1" d="M9,18.39h.16a1.65,1.65,0,0,1,.33,0H10a1.24,1.24,0,0,0-1.24-.17,1.74,1.74,0,0,1,.12.21Z"/><path class="cls-2" d="M119.43,19.79a2.09,2.09,0,0,1,.13,1.51,2.91,2.91,0,0,1-.25.78,17.33,17.33,0,0,0,3.36.71,2.38,2.38,0,0,0-2.38-.82l-.45.06a4.68,4.68,0,0,0,.33-.78,1.74,1.74,0,0,0-.6-2c-.24-.15-.48-.28-.72-.4a2.93,2.93,0,0,1,.43.58A2.8,2.8,0,0,1,119.43,19.79Z"/><path class="cls-2" d="M12.41,17.71a1.22,1.22,0,0,0-1.63.64l2.59,0A4.66,4.66,0,0,0,12.41,17.71Z"/><path class="cls-1" d="M3.79,21.43A1.15,1.15,0,0,0,5.56,21l-1.9.26A1.07,1.07,0,0,0,3.79,21.43Z"/><path class="cls-2" d="M28.58,14.32a3.74,3.74,0,0,1,1.66-.06,4.26,4.26,0,0,1,3.46,2.88,4.63,4.63,0,0,1,1.33.1,4.48,4.48,0,0,1,2.08,1.06,5.54,5.54,0,0,1,.54-.25,5,5,0,0,1,3.61,0,1.67,1.67,0,0,1,.69-.45l.09,0a3.58,3.58,0,0,1,2-.55,6.21,6.21,0,0,1-.66-2,2,2,0,0,1,1-1.94l-.13,0a5.43,5.43,0,0,0-2,1.2c-.42.39-.7.65-.87.83a4.38,4.38,0,0,0-1.3.67,5,5,0,0,0-5.72-1.62l-.29.08a1.36,1.36,0,0,0-.48-.39,3,3,0,0,0-1.24-2.1c-2.17-1.52-5.83-.26-6.49,2.31A6.38,6.38,0,0,1,28.58,14.32Z"/><path class="cls-2" d="M19,18.37c1,0,1.73,0,2.35.09a5.76,5.76,0,0,1,3.49-4l-.47-.13a5,5,0,0,0-6.25,3.86l-.08,0c-1.64-1.63-3.32-1.07-4.19.18C15.52,18.3,17.24,18.32,19,18.37Z"/><path class="cls-1" d="M115.82,18h-.49l.4,0Z"/><path class="cls-1" d="M134.11,23h0a.89.89,0,0,0-.39-.29l.22.14A1.28,1.28,0,0,1,134.11,23Z"/><path class="cls-1" d="M134.38,23.37l-.11-.12.09.12Z"/><path class="cls-1" d="M128.59,26.28A20.94,20.94,0,0,1,114,23.89a2,2,0,0,1-3.59-.13l-.52.16a1.82,1.82,0,0,1-3,0c-.66,1.55-3,2.07-3.72.08a5.5,5.5,0,0,1-.16-.56l-.2-.22a1.89,1.89,0,0,1-2.4-.08,2,2,0,0,1-2.7-.52,3.86,3.86,0,0,1-.36-.62,5.38,5.38,0,0,1-3.72,1.15,1.72,1.72,0,0,1-1.14-.61,5.72,5.72,0,0,1-2.45,3.21,10.2,10.2,0,0,1-6,1.59c-2.18-.28-2.38-2-3.42-2.86h0a4.22,4.22,0,0,1-.46-.48,2.17,2.17,0,0,1-.51-1.63,4.38,4.38,0,0,1-.89-.6l-.55-.32a11.83,11.83,0,0,1-1.36-1l-.11,0a2.76,2.76,0,0,1-2.85,2,3.44,3.44,0,0,1-1.62-.42,3,3,0,0,1-2.8-2.71l-.47,0a5,5,0,0,1-5.3,1.1,1.94,1.94,0,0,1-.79.57,5.44,5.44,0,0,1-.58.55,4,4,0,0,1-5.55-.12A5.64,5.64,0,0,1,52,24a2.05,2.05,0,0,1-2.09-1.3c0-.06,0-.12,0-.19a4.16,4.16,0,0,1-.71,0l0,.19a1.93,1.93,0,0,1-1.21,2,5,5,0,0,1-3.25.3l-2.09,1.48A2,2,0,0,1,39.88,26a9.24,9.24,0,0,0-1.37-1.68h-.3a1.94,1.94,0,0,1-3.32-.37,16.15,16.15,0,0,1-2.09-.62l-.13.23c-.84,1.35-3.39.59-3.35-1a6.5,6.5,0,0,1,.09-.88,4,4,0,0,1-1.47-.05c-1.08,2.57-4.72,3.64-6.17.83a5.68,5.68,0,0,1-.41-1.08C19.75,20.75,17.75,21,16,21s-3.73,0-5.59,0l-.12.12A3.49,3.49,0,0,1,5.75,21H5.69a2.84,2.84,0,0,0,3.75,1c1.46.16,3,.69,4.11-.42a3.62,3.62,0,0,0,2.21,1.68,4.67,4.67,0,0,0,.85.17c.15.49.74,1,2,.49,1.06,2.6,3,4.1,5.92,3.26a4.87,4.87,0,0,0,2.77-2,4.38,4.38,0,0,0,2.12,2.19,3.93,3.93,0,0,0,.52.27,4.48,4.48,0,0,0,3.14,0,5.6,5.6,0,0,0,1.69-.79,1.44,1.44,0,0,0,.49-.61,6,6,0,0,0,1.24.4,6.43,6.43,0,0,0,2.25,0,12.06,12.06,0,0,0,9.46,1.42,6.45,6.45,0,0,0,2.64,1.48,5.34,5.34,0,0,0,5.43-2.07l.05,0A3.09,3.09,0,0,0,57.19,26a18.14,18.14,0,0,0,14.15,3,4.8,4.8,0,0,0,3.09-2.17c-.34,1.28,3.93,3.94,7.15,2.09,3.84,3.84,8.59,2.9,13.25-.92a8,8,0,0,0,1.45-1.53l.09,0,.16,0a5.5,5.5,0,0,0,.93,1.23,3.91,3.91,0,0,0,4.82.54,2.53,2.53,0,0,0,1.86-.24c2.27-1.29,5.94.14,8.47.18a35,35,0,0,0,8.49-.91,2.89,2.89,0,0,0,1-.41l.18.05a3.07,3.07,0,0,0,.92.9,3,3,0,0,0,3.81-.47,2.93,2.93,0,0,0,2.23-.68l-.15,0A1.58,1.58,0,0,1,128.59,26.28Z"/><path class="cls-2" d="M94.11,3.78C92.7,2.7,90.1,2.66,88,3.43A12.9,12.9,0,0,0,79.25,0,12.31,12.31,0,0,0,67.9,8a14.82,14.82,0,0,0-4.77.27,6.79,6.79,0,0,1-2.65.46c-.9-.13-1.79-.82-2.76-.93a6.26,6.26,0,0,0-5.16,1.64A7.72,7.72,0,0,0,52,10a4.53,4.53,0,0,0-6.34,1,5.41,5.41,0,0,0-.95,2,9.68,9.68,0,0,1,4.46-.15A7.15,7.15,0,0,1,52,12.27c2.88-1.75,6.8-2.66,9.4-.78a3.25,3.25,0,0,1,1.1-2.07A3.11,3.11,0,0,1,66.26,9a7,7,0,0,1,4.69-.37c-1.39-2.45,1-4.74,3.68-5.57A3.55,3.55,0,0,1,76,1.63c1.83-1.09,3.9,0,5.55,1.1a6.19,6.19,0,0,1,4.91,1.44,2.47,2.47,0,0,1,1,.54l.2-.07A5.27,5.27,0,0,1,93.3,6.45h0a3.65,3.65,0,0,1,1.5,5.15,4.39,4.39,0,0,1-.33,1.12c.11.14.22.28.32.42a4.51,4.51,0,0,1,2.07.31l.11.05c1.27-1.33,3.92-1.29,5.49-.61a3.6,3.6,0,0,1,2,4.42c.17.17.34.34.5.53A2.19,2.19,0,0,1,107.39,19a3.63,3.63,0,0,1,1.56.84,4.18,4.18,0,0,1,3.1.31,2.72,2.72,0,0,1,2.17-2.12,3.4,3.4,0,0,0-1.7.56,7.82,7.82,0,0,0-.71.35,4.1,4.1,0,0,0-2.73-.49,14,14,0,0,0-3.55-1.69,4.26,4.26,0,0,0-.51-3.67,4.7,4.7,0,0,0-1.24-1.79,3.76,3.76,0,0,0-5.17-.08h0a8.61,8.61,0,0,0-3-1.58c0-.09.1-.16.13-.25A5,5,0,0,0,94.11,3.78Z"/><path class="cls-2" d="M127.12,22.74a2.94,2.94,0,0,0-2.36.12,1.47,1.47,0,0,0-1.91-.13l-.08.06A19.33,19.33,0,0,0,127.12,22.74Z"/><path class="cls-3" d="M115.82,18a7.71,7.71,0,0,1,3,.81A2.88,2.88,0,0,0,115.82,18Z"/><path class="cls-3" d="M128.38,23.7a1.34,1.34,0,0,1,1.25,1,4.12,4.12,0,0,1,1.2-.87,3.61,3.61,0,0,1,1.15-.2,1.3,1.3,0,0,1,.38-.07,1,1,0,0,1,1.35-.82,1.85,1.85,0,0,0-1.19-.28,2,2,0,0,0-.88.36,1.51,1.51,0,0,0-.27-.15,1.88,1.88,0,0,0-1.46,0l-.16.08a1.6,1.6,0,0,0-1.21-.2c-.48.09-1,.16-1.43.22a3.68,3.68,0,0,1,.78.41A1.62,1.62,0,0,1,128.38,23.7Z"/><path class="cls-3" d="M10.61,19.4h0a1.46,1.46,0,0,1,.12-1.05l-.79,0A1.51,1.51,0,0,1,10.61,19.4Z"/><path class="cls-3" d="M122.76,22.79h-.09l0,0Z"/><path class="cls-3" d="M44.74,13h-.06a1.47,1.47,0,0,0-.27.12l.32-.1Z"/><path class="cls-3" d="M13.81,18.31h-.44l.28.25Z"/><path class="cls-3" d="M134.11,23l.16.2A1.78,1.78,0,0,0,134.11,23Z"/><path class="cls-3" d="M25.85,14.14l-.2,0a5.59,5.59,0,0,0-.86.26l1,.23A3.3,3.3,0,0,1,25.85,14.14Z"/><path class="cls-3" d="M5.61,20.94h0l0,.08.13,0h0Z"/><path class="cls-3" d="M115.33,18a4.28,4.28,0,0,0-1,0l-.08,0a3.2,3.2,0,0,1,.46,0C114.89,18,115.11,18,115.33,18Z"/><path class="cls-3" d="M135.08,24a6.2,6.2,0,0,1-.7-.63h0l-.09-.12-.16-.2a1.28,1.28,0,0,0-.17-.16l-.22-.14a1,1,0,0,0-1.35.82,1.3,1.3,0,0,0-.38.07,3.61,3.61,0,0,0-1.15.2,4.12,4.12,0,0,0-1.2.87,1.34,1.34,0,0,0-1.25-1,1.62,1.62,0,0,0-.48-.55,3.68,3.68,0,0,0-.78-.41,19.33,19.33,0,0,1-4.36.05l0,0,0,0a17.33,17.33,0,0,1-3.36-.71,2.91,2.91,0,0,0,.25-.78,2.09,2.09,0,0,0-.13-1.51,2.8,2.8,0,0,0-.16-.35,2.93,2.93,0,0,0-.43-.58,7.71,7.71,0,0,0-3-.81l-.08,0-.4,0c-.22,0-.43,0-.65,0a3.2,3.2,0,0,0-.46,0,2.72,2.72,0,0,0-2.17,2.12,4.18,4.18,0,0,0-3.1-.31,3.63,3.63,0,0,0-1.56-.84A2.19,2.19,0,0,0,105,17.85c-.16-.18-.32-.36-.5-.53a3.6,3.6,0,0,0-2-4.42c-1.56-.68-4.21-.73-5.49.61l-.11-.05a4.51,4.51,0,0,0-2.07-.31c-.1-.15-.21-.28-.32-.42a4.39,4.39,0,0,0,.33-1.12,3.65,3.65,0,0,0-1.5-5.15h0a5.27,5.27,0,0,0-5.59-1.81l-.2.07a2.47,2.47,0,0,0-1-.54,6.19,6.19,0,0,0-4.91-1.44C79.93,1.63,77.85.54,76,1.63a3.55,3.55,0,0,0-1.4,1.46c-2.71.83-5.07,3.12-3.68,5.57A7,7,0,0,0,66.26,9a3.11,3.11,0,0,0-3.75.4,3.25,3.25,0,0,0-1.1,2.07c-2.6-1.88-6.51-1-9.4.78a7.15,7.15,0,0,0-2.81.54,9.68,9.68,0,0,0-4.46.15v0l-.32.1a2,2,0,0,0-1,1.94,6.21,6.21,0,0,0,.66,2,3.58,3.58,0,0,0-2,.55l-.09,0a1.67,1.67,0,0,0-.69.45,5,5,0,0,0-3.61,0,5.54,5.54,0,0,0-.54.25A4.48,4.48,0,0,0,35,17.25a4.63,4.63,0,0,0-1.33-.1,4.26,4.26,0,0,0-3.46-2.88,3.74,3.74,0,0,0-1.66.06,6.38,6.38,0,0,0-2.73-.19,3.3,3.3,0,0,0-.09.51l-1-.23a5.76,5.76,0,0,0-3.49,4c-.63-.06-1.38-.07-2.35-.09-1.72,0-3.43-.06-5.15-.06l-.16.26-.28-.25-2.59,0a1.46,1.46,0,0,0-.12,1.05h0a1.51,1.51,0,0,0-.62-1H9.44a1.65,1.65,0,0,0-.33,0H8.87a1.74,1.74,0,0,0-.12-.21,1.33,1.33,0,0,0-.34.21L8,18.72a1.24,1.24,0,0,0-2.1-.19,3.41,3.41,0,0,0-.26.46,1.62,1.62,0,0,0-.82.34,4.46,4.46,0,0,0-1.4-.19,5.1,5.1,0,0,0-2.6.16c-.53.28-.81,1.19-.17,1.55a3.14,3.14,0,0,0,1.85.33h1a1.42,1.42,0,0,0,.1.12L5.56,21l0-.08h0l.08.05h.06a3.49,3.49,0,0,0,4.52.15l.09-.08a2.13,2.13,0,0,0,2.55.58,2,2,0,0,0,1.27-.49c.42,2,2.85,1.36,4,.13A1.73,1.73,0,0,0,20,23a3,3,0,0,0,1.77-.54h0c1.45,2.82,5.1,1.74,6.17-.83a4,4,0,0,0,1.47.05,6.5,6.5,0,0,0-.09.88c0,1.58,2.51,2.34,3.35,1l.13-.23a16.15,16.15,0,0,0,2.09.62,1.94,1.94,0,0,0,3.32.37h.3A9.24,9.24,0,0,1,39.88,26a2,2,0,0,0,2.74.43l2.09-1.48A5,5,0,0,0,48,24.6a1.93,1.93,0,0,0,1.21-2l0-.19a4.16,4.16,0,0,0,.71,0c0,.06,0,.12,0,.19A2.05,2.05,0,0,0,52,24a5.64,5.64,0,0,0,4.8-2.66,4,4,0,0,0,5.55.12,5.44,5.44,0,0,0,.58-.55,1.94,1.94,0,0,0,.79-.57A5,5,0,0,0,69,19.2l.47,0a3,3,0,0,0,2.8,2.71,3.44,3.44,0,0,0,1.62.42,2.74,2.74,0,0,0,2.62-1.48,5.48,5.48,0,0,0,.06.69.77.77,0,0,0-.11.12c0-.07,0-.15.07-.22a.17.17,0,0,0-.3-.13c0,.1-.08.21-.11.32a.35.35,0,0,0-.33.44c0,.16.09.32.14.48a3.05,3.05,0,0,0,1,2.59,3.77,3.77,0,0,0,2.48.84,4.92,4.92,0,0,0,3.13,1.82,7.35,7.35,0,0,0,4.81-.89,10.85,10.85,0,0,0,2.34-1c3.14.86,6.85.05,7.7-3.48a.38.38,0,0,0-.15-.38l.13-.09a3.86,3.86,0,0,0,.36.62,2,2,0,0,0,2.7.52,1.89,1.89,0,0,0,2.4.08l.2.22a5.5,5.5,0,0,0,.16.56c.7,2,3.06,1.47,3.72-.08a1.82,1.82,0,0,0,3,0l.52-.16a2,2,0,0,0,3.59.13,20.94,20.94,0,0,0,14.56,2.39,1.58,1.58,0,0,0,.48.31l.15,0a1.65,1.65,0,0,0,.47-.82.54.54,0,0,0,.32-.08,2.85,2.85,0,0,1,1.15-.33,1.45,1.45,0,0,0,.18.27,1.56,1.56,0,0,0,2,.25,1.66,1.66,0,0,0,.47-.41,3.72,3.72,0,0,0,.35.21C135.2,26.26,135.91,24.66,135.08,24ZM82.3,26.8a4.28,4.28,0,0,1-1.18-.5.45.45,0,0,0,.15-.14,8.15,8.15,0,0,0,1.46.73Zm11.46-1.53a4.36,4.36,0,0,0,.5-.44,9.9,9.9,0,0,0,1.56-.95A4.08,4.08,0,0,1,93.76,25.27Z"/><path class="cls-2" d="M53,14.94c-.57-1.39-2.18-3.39-3.88-3.22a.31.31,0,0,0-.26.25,3.54,3.54,0,0,0-1.26-.24.34.34,0,0,0-.32-.4H47.2a4.31,4.31,0,0,0-4.15,2.62,2.51,2.51,0,0,0-.3,2.67c.17.34.76.38.81-.08a4.2,4.2,0,0,1,2.28-3.45A5.26,5.26,0,0,1,49.38,13a6.7,6.7,0,0,1,3,2.29A.38.38,0,0,0,53,14.94Z"/><path class="cls-2" d="M135.66,25a3,3,0,0,0-1.23-1.94,2.21,2.21,0,0,0-1-.38c-.33-.14-.66-.25-1-.34-1.52-.46-3.29-1.11-4.4.2a2.18,2.18,0,0,0-1.54.24.31.31,0,0,0-.22-.1.39.39,0,0,0-.11-.06.43.43,0,0,0-.22,0l-.09,0a.21.21,0,0,0-.19,0,.31.31,0,0,0-.23.21c-1.68-.52-3.36-1-5-1.5a4.49,4.49,0,0,0-3.74-3.81c-2-.29-4.17-.12-5.16,1.9-.1.21.2.38.35.21,2-2.39,6.75-1.66,7.6,1.41a2.94,2.94,0,0,1-.11.82c-.12.4-.34,1.05-.79,1.17-.24.06-.18.44,0,.46.59.08.94-.75,1.1-1.21,0-.09,0-.18.07-.27a.63.63,0,0,0,.18.09q3.06.87,6.09,1.82a.47.47,0,0,0,.52-.13l1.86-.15a.46.46,0,0,0,.63-.07c1.12-1.23,1.68-.23,2.73,0,.21.05,1.31-.08,1.17-.13a2.12,2.12,0,0,1,1.72,1.63,1.43,1.43,0,0,1,0,.18c-.11.42.5.54.68.2A.37.37,0,0,0,135.66,25Z"/><path class="cls-2" d="M105,14.31a.18.18,0,0,0-.36,0,10.28,10.28,0,0,1,.09,2c-.06.44-.52,1.83-1.14,1.83-.29,0-.28.44,0,.49.72.13,1.12-.76,1.37-1.31A5.16,5.16,0,0,0,105,14.31Z"/><path class="cls-2" d="M96.15,15.71c-.5-.83-1.35-1.39-1.91-2.15a.33.33,0,0,0,.09-.09,5.4,5.4,0,0,0,.94-2.78,3.13,3.13,0,0,0-1.16-4,.36.36,0,0,0-.25-.06h0a5.34,5.34,0,0,0-.38-.41s0,0,0-.05c-.24-.91-1.38-1.58-2.21-1.88a4.48,4.48,0,0,0-2.91,0,.29.29,0,0,0-.07.5l-.07.1a7.9,7.9,0,0,0-2-1.65c-1.25-.75-3.11-1.47-4.49-.71,0,0,0,0,0,0a4.57,4.57,0,0,0-1.86-1.24C78.18.67,74.23.46,74.3,3.14a.09.09,0,0,0,.18,0c.79-2.08,4-1.78,5.61-.91,1.84,1,2.09,2.83,1.86,4.71a.24.24,0,0,0,.45.13A3.79,3.79,0,0,0,82,2.8c2.78-.8,5.82,2.13,6.83,4.4.21.46.95.18.74-.28a8.81,8.81,0,0,0-1-1.63A5.07,5.07,0,0,1,93.36,7a.3.3,0,0,0,.13.09,4.73,4.73,0,0,1,.45.59,5.49,5.49,0,0,1,.29,3.82A6.29,6.29,0,0,1,93,13a.4.4,0,0,0-.15.3,9.74,9.74,0,0,0-1.7-.62c-1-.27-4.89-1.28-5.44.06a.39.39,0,0,0,.71.31c.17-.3,2,0,2.33,0a13.09,13.09,0,0,1,2.73.51,6.75,6.75,0,0,1,4.81,4.78c.1.36.68.22.64-.15A6.21,6.21,0,0,0,96.15,15.71Z"/><path class="cls-2" d="M28.51,13.88l0,0c-1.95-1.6-5.84.17-6.89,2.37a2.64,2.64,0,0,0-1,1.67,3.26,3.26,0,0,0-1.6,0l.14-.19c.15-.14,0-.39-.19-.26a4.08,4.08,0,0,0-1,1,3.23,3.23,0,0,0-2.42-.7c-1,.07-1.66.7-2.58.36a3.13,3.13,0,0,0-2-.11c-.77.18-1.51,0-2.3.17a2.18,2.18,0,0,1-.79.16c-.28,0-.52-.24-.84-.23-.69,0-1.15.55-1.7.79-1.23.53-2.48.07-3.74.24A1.79,1.79,0,0,0,0,20.14c-.13.31.34.63.53.32.62-1,1.82-.65,2.79-.63a14.07,14.07,0,0,1,2.15-.25.37.37,0,0,0,.42-.1l1.83-.36a.37.37,0,0,0,.45,0c.93-.54,1.56-.12,2.48-.21a2.78,2.78,0,0,0,.58-.24,2,2,0,0,1,1.94.43.37.37,0,0,0,.45,0c1.43-1,2.63-.71,4.19-.45a.28.28,0,0,0,.37.28,3.62,3.62,0,0,1,2.64-.08.45.45,0,0,0,.62-.45A1.8,1.8,0,0,1,23,16.53c.18,0,.4-.17.4-.38,0-.75,1.22-1.41,1.77-1.61a10.24,10.24,0,0,1,1.26-.34A.31.31,0,0,0,26.7,14a3.63,3.63,0,0,1,1.2.11,3.32,3.32,0,0,0-2,2.08.33.33,0,0,0,.6.26,3.59,3.59,0,0,1,3.6-1.94,4.76,4.76,0,0,1,3.4,2.13.19.19,0,0,0,.33-.18A4.64,4.64,0,0,0,28.51,13.88Z"/></svg>