<svg id="Layer_1" data-name="Layer 1" xmlns="http://www.w3.org/2000/svg" viewBox="0 0 186.72 62.07"><defs><style>.cls-1{fill:#eaf0f3;}.cls-2{fill:#f4f7f9;}.cls-3{fill:#eef3f6;}</style></defs><title>fog-cloud-e</title><path class="cls-1" d="M36.62,36.4a.94.94,0,0,0-.17,1.48.87.87,0,0,0,1.16.07,1.19,1.19,0,0,0,.45.19l.13,0a1,1,0,0,0,1.18-.57l-.8.26A1.47,1.47,0,0,1,36.62,36.4Z"/><path class="cls-1" d="M100.45,24c.49-.17.63-.69.28-1.19A6.11,6.11,0,0,1,100.45,24Z"/><path class="cls-1" d="M84.88,19.94s0,.08,0,.13l.49.11a5.45,5.45,0,0,1,1-1.81A3.34,3.34,0,0,0,84.88,19.94Z"/><path class="cls-1" d="M85.59,40.33a10,10,0,0,1,2.57-1c0-.12,0-.24,0-.36a4.49,4.49,0,0,1-2.79-1.15,2.19,2.19,0,0,1-.65-.59,9.93,9.93,0,0,1-1.59-2.16l-.05-.1a2.19,2.19,0,0,1-2.63-2.42c0-.16,0-.32.07-.48l-.41.07a5.31,5.31,0,0,1-3.44,3.61c-1.38.45-3.21-.67-2.81-2.29.09-.37.2-.74.32-1.11l-.22,0a2.35,2.35,0,0,1-.22.38A3.23,3.23,0,0,1,70.47,34a2,2,0,0,1-1.26,2,4.6,4.6,0,0,1-5.83-3.62,3.06,3.06,0,0,0-1,.18,8.17,8.17,0,0,1,.76,1.05,2,2,0,0,1-.42,2.65,7.86,7.86,0,0,1-4,1.89,1.69,1.69,0,0,1-1.48-.51,1.78,1.78,0,0,1-1.47,0,4.13,4.13,0,0,1-1.89-2.35,2.12,2.12,0,0,1-1.37.4,38,38,0,0,0-11.73,1.45.75.75,0,0,1-.49.55,1.45,1.45,0,0,0,1.15.18,4.24,4.24,0,0,0,.77-.27l.14-.06a1.06,1.06,0,0,0,1.42.83,1.54,1.54,0,0,0,.71-.63,1,1,0,0,0,1.38.59,1.1,1.1,0,0,0,.65-1.06h0a2.2,2.2,0,0,0,1,1,3.8,3.8,0,0,0,3.71-.08,6.88,6.88,0,0,0,2.53,0,2,2,0,0,0,1.65,1.12c.38,0,1.14,1.07,1.56,1.27a3.14,3.14,0,0,0,2.37.28A3.61,3.61,0,0,0,61.94,38a4.61,4.61,0,0,0,.65-.31c2.78,3.42,10.46,3.25,13.52.37A8.31,8.31,0,0,0,80,39.9,3.73,3.73,0,0,1,82.61,39C83.57,38.92,84.71,40,85.59,40.33Z"/><path class="cls-1" d="M163.08,45.35a2.16,2.16,0,0,1-2-.88,1.39,1.39,0,0,0-1.3-.72,2.81,2.81,0,0,1-3.65,1.34,1.77,1.77,0,0,1-.5-.26,4.91,4.91,0,0,1-2.72,2,2.34,2.34,0,0,1-.64.1,5.27,5.27,0,0,1-3.12.47,4.65,4.65,0,0,1-2.56,2.15,3.67,3.67,0,0,0,.36-4,3.63,3.63,0,0,0-4.78-1.37h0c1.12-.51.33-.14,0,0a3.27,3.27,0,0,0-2.07-.72,3.66,3.66,0,0,0-2.62,1.16,3.33,3.33,0,0,1-.29-.48,2.24,2.24,0,0,1-.77.33,8.51,8.51,0,0,0,0-2.86A3.56,3.56,0,0,0,133,38.86a11.18,11.18,0,0,0-5.6,1.26A6.53,6.53,0,0,0,125,42.5a2.31,2.31,0,0,0-.27-.55,5.57,5.57,0,0,0-3.07-2.49,4,4,0,0,0-2.15,0,9.59,9.59,0,0,1,.34-1.48l-.36-.21a4.7,4.7,0,0,1-2.14.43,2.33,2.33,0,0,0,.12-.92,4.68,4.68,0,0,0-.48-1.94,3.82,3.82,0,0,0-1.34-1.4l-.31-.15c0-.07-.06-.13-.08-.2l-.33,0a4,4,0,0,0-1.26-.25,3.61,3.61,0,0,0-2.15.69h0l.06-.07a3.54,3.54,0,0,0-1.46-5.95,6.48,6.48,0,0,0-1.57-.17l-.37-.15a3.59,3.59,0,0,0-2.74.31,3.38,3.38,0,0,0-.51.36c0-.1-.09-.2-.14-.29a5.16,5.16,0,0,0-.41-.63,3.14,3.14,0,0,0-.72-1.11,3.56,3.56,0,0,0-2.49-1.08,4.06,4.06,0,0,0-.58.06,5.21,5.21,0,0,0-1.06.14,7.75,7.75,0,0,0-1.5.62,3.56,3.56,0,0,0-1.66,2.09,3.7,3.7,0,0,0,.31,2.74,4.49,4.49,0,0,0,.28.43c-1.67.17-4.13.3-5.67,1.16a3.84,3.84,0,0,1,.39.81,5.67,5.67,0,0,1,3.45,0,2.1,2.1,0,0,1,.41,4,14.09,14.09,0,0,1-3.29,1.09,1.22,1.22,0,0,0,.33,1.06,8.63,8.63,0,0,1,1.71.69,2.09,2.09,0,0,1-1.16,4,6.34,6.34,0,0,1-2.4-.75,5.35,5.35,0,0,0-2,.13A4.39,4.39,0,0,1,89,45,5.32,5.32,0,0,1,83,50a5.36,5.36,0,0,1-3.67,1.76,5.81,5.81,0,0,1-3.56,5,6.2,6.2,0,0,1-4,.13,6,6,0,0,1-3.83-1,2,2,0,0,1-2-1.79l-1.86,0c-.85,2.14-4.41,1.12-3.88-1.14l-.48-.09a3.84,3.84,0,0,1-1.42,1.76A2.07,2.07,0,0,1,55,53.24a5.67,5.67,0,0,1,.15-1.86c-.2,0-.42,0-.63,0-.29,2.29-2.7,4.25-5,2.56a5.16,5.16,0,0,1-.8.75,5.68,5.68,0,0,1-7,3,1.68,1.68,0,0,1-1-.93,2.21,2.21,0,0,1-1.64-1.27,5.6,5.6,0,0,1-.2-3.67,2.74,2.74,0,0,1-3.52.8,1.92,1.92,0,0,1-1-2.49l.13-.2-.07,0a4.63,4.63,0,0,0-1.22-.27l-1-.13a2.27,2.27,0,0,1-.36,1.56,2.53,2.53,0,0,1-2.94,1,4.77,4.77,0,0,1,.86,1.09,1.9,1.9,0,0,1-.41,2.59A4.6,4.6,0,0,1,24,55.3a7.63,7.63,0,0,1-.58,1.12c-1,1.55-3.46.34-3.27-1.31a4,4,0,0,1-4.68-2.61,3.76,3.76,0,0,1-.11-.66A3.57,3.57,0,0,1,15,51.2a1.58,1.58,0,0,1-2.09.17,10.85,10.85,0,0,0-7.67-1.85H4.91c-2-.16-6-2.95-1.46-3.51-1.62-1-4.31.8-3.18,2.71.35.6.71,1.18,1.09,1.76a2.24,2.24,0,0,0,3.12.35l1.17.11a2.24,2.24,0,0,0,3.08.37,3.92,3.92,0,0,0,.15.53,2.18,2.18,0,0,0,3,1H12c0,2.25,1.57,4.49,4.42,3.92l2-.39a19.48,19.48,0,0,0,.71,2.14,1.89,1.89,0,0,0,2.87.71L23,58.58a5.42,5.42,0,0,0,1.39-.28c1.46,1.68,3,2.95,5.55,2.52,1.1-.19,2.18-1,3.1-1.24a6.37,6.37,0,0,1,1.59-.14c2.56,2.2,6.56,1.87,10.39,1.24a6.74,6.74,0,0,0,1.63.3,4.48,4.48,0,0,0,3.43-1.14c.47-.06.93-.11,1.36-.13,4-.23,8.07-.23,12.12-.24q2.6,0,5.2-.05c.63,0,3.34-.37,3.85.2a4.07,4.07,0,0,0,6.43-.25,7.47,7.47,0,0,0,2.29,2c2.1,1.25,5.05.83,6-1.68a5.74,5.74,0,0,0,3.76.38A6.52,6.52,0,0,0,93,59.36a5.57,5.57,0,0,0,3,2.33,7,7,0,0,0,8-2.85,10.69,10.69,0,0,0,3.75,1.39,15.15,15.15,0,0,0,8.18-1.17,3.78,3.78,0,0,0,1,1.19c4.34,3.37,11.35.68,12.25-4.55a3.34,3.34,0,0,0,3.22,1.23c-.77.11.85.51,1,.55a5.53,5.53,0,0,0,1.71.15,5.32,5.32,0,0,0,4-2.27c.12-.17.22-.34.32-.52a6.26,6.26,0,0,0,2,1.09c4.15,1.31,8.62-2,7.85-6.52,0-.13-.06-.27-.1-.4a16.53,16.53,0,0,0,4.58,0,7.45,7.45,0,0,0,3-1.36l.84-.88c.1-.13.18-.23.26-.34a4.39,4.39,0,0,0,3.21-.49,3,3,0,0,0,2.82.25,4.26,4.26,0,0,0,2.89.39,5.06,5.06,0,0,0,1.16-.46l.39.08a4.78,4.78,0,0,0-.44-.2A10.77,10.77,0,0,0,163.08,45.35Z"/><path class="cls-2" d="M15.53,47.7a1.61,1.61,0,0,1,1.55-.59,8.51,8.51,0,0,1,1.61.53,4.75,4.75,0,0,1,2.79,0,4.4,4.4,0,0,1,2,1.27,5.3,5.3,0,0,1,4.22-1.63,6.67,6.67,0,0,1,4.15-1.44A11,11,0,0,1,38,47.32a4.66,4.66,0,0,1,4.28.82,4.68,4.68,0,0,1,1.94-.29c1.49-1.55,3.27-2.23,5.06-.65a5.36,5.36,0,0,1,3,.42c1.75-1.09,3.77-1.48,5.68-.11.11.08.22.17.33.26a4.37,4.37,0,0,1,1.87-.2,4.5,4.5,0,0,1,3.17,1.86l.32-.1a1.91,1.91,0,0,1,.59-.72,15.78,15.78,0,0,1,9.42-2.47,10.83,10.83,0,0,1,3.3-.72,9.53,9.53,0,0,1,2-1.14c.1-.78.06-1.74.22-2.63a24.7,24.7,0,0,0-2.52.56,8.4,8.4,0,0,0-4.52.45A7.88,7.88,0,0,0,69.06,45a8.72,8.72,0,0,0-8.19-1.91,8.54,8.54,0,0,0-2,.79A20.77,20.77,0,0,0,53,44.7l-.21,0c-1-.3-1.84-.58-2.11-.64a3,3,0,0,0-1.5.1,11,11,0,0,0-2.07-.57c-2.85-.46-4.89.71-6.79,2.35a4.46,4.46,0,0,0-1.51-1.57c-2.65-1.68-5.8-.17-8.64-.61A1.73,1.73,0,0,0,28.33,45,5.45,5.45,0,0,0,24,44.48a1.82,1.82,0,0,0-1.27-.27c-.81.16-2.18,1.38-2.8,1.37s-1.57-1-2.31-1.18c-2.89-.7-7.16.53-10,1.05A2,2,0,0,0,6.52,46a19.57,19.57,0,0,1,7.21,2.28A4.11,4.11,0,0,1,15.53,47.7Z"/><path class="cls-1" d="M73.49,52.45a5,5,0,0,1,.47.6,1,1,0,0,0,.32-.16,2.19,2.19,0,0,0,.9-1.14,1.93,1.93,0,0,1-.63.37C74.2,52.25,73.85,52.35,73.49,52.45Z"/><path class="cls-2" d="M78.75,16.62a7,7,0,0,1,2.61.58,10.94,10.94,0,0,1,1.33-1.68,9.63,9.63,0,0,1,12-1.66,7.17,7.17,0,0,1,.6.44,5.32,5.32,0,0,1,5.74-.27,8.62,8.62,0,0,1,2.46,2,6,6,0,0,1,5.75,4.16,6.42,6.42,0,0,1,7.6,3,6.33,6.33,0,0,1,.65,1.73A4.94,4.94,0,0,1,121,27.57a4.77,4.77,0,0,1,4,2,3.63,3.63,0,0,1,.23.37c2.11-4,7.6-2.71,10.43.64a12.37,12.37,0,0,1,3.64,1.3,3.73,3.73,0,0,1,4.62-.47,4,4,0,0,1,1.78,2.21,4.56,4.56,0,0,1,.53.21l.29-.12a3.86,3.86,0,0,1,3.8.76,2.34,2.34,0,0,1,3.43.31c.15.16.27.33.41.5a2.59,2.59,0,0,1,2.65.21l3.63,2.57a2,2,0,0,1,.92,1.55,5.54,5.54,0,0,1,2.4,1.35,14.69,14.69,0,0,1,4.88.68c2.61.85,4.4.68,7.12.53l2.51-.12a1.34,1.34,0,0,0-.1-.23,2.48,2.48,0,0,0-2.71-1.47A4.49,4.49,0,0,0,174,41a5.38,5.38,0,0,0-.87.59,1.08,1.08,0,0,0-.35.19,1.65,1.65,0,0,0-1.2-.9,1.93,1.93,0,0,0-2.25-.73,4.11,4.11,0,0,0-.5.21,2.23,2.23,0,0,0-.9,0,4.91,4.91,0,0,0-1.11-1.67,4.17,4.17,0,0,0-4.7-.75,4.13,4.13,0,0,0-1.83,0,4.34,4.34,0,0,0-.88-2.84A8.61,8.61,0,0,0,151.8,32a6.83,6.83,0,0,0-.35-.6c-1.29-1.95-3.27-1.9-5.2-1.32-1.43-3.78-8-4.08-11.24-1.12a5.61,5.61,0,0,0-.47-.57c-1.68-1.76-4-2-6.29-1.74a5.16,5.16,0,0,0-1.5-2,2,2,0,0,0-.83-2.05c-2.24-1.5-4.89-3-7.66-2.06a5.74,5.74,0,0,0-.64.27,8.83,8.83,0,0,0-1.3-.63c0-.1,0-.21,0-.31s0-.26-.06-.39a5.25,5.25,0,0,0-1.78-5.65,4.35,4.35,0,0,0-3.87-.78l-.3-.13a5.29,5.29,0,0,0-1.18-.31,10.08,10.08,0,0,0,.06-1.17,8.05,8.05,0,0,0-6.23-7.72C99.8-1.16,92-.75,87,2.13c-2,1.18-4.08,2.54-5.11,4.47a7.62,7.62,0,0,0-.54.69,19.66,19.66,0,0,0-1.92.65c-2.34-2.12-5.68-3-8.3-.67a9.15,9.15,0,0,0-1.55,11.48c.15.23.31.44.47.65a9.09,9.09,0,0,0-1.23,5.37c0,.15,0,.3.05.46C70.57,20.83,73.43,16.43,78.75,16.62Z"/><path class="cls-1" d="M68.18,27c.16-.47.33-.94.52-1.42a7.28,7.28,0,0,0-3.2,2A4.71,4.71,0,0,1,68.18,27Z"/><path class="cls-2" d="M64.31,28.6A7.32,7.32,0,0,0,59,30.27a4.09,4.09,0,0,0-2.06-.1,4.19,4.19,0,0,0-5.43,2.17h-.19c-.18-.39-.65-.46-1.09-.58A5.56,5.56,0,0,0,48,31.27a3.53,3.53,0,0,0-2.18,1.4c-1-.54-3-.64-3.14.64h-.12a.3.3,0,0,0-.1,0,.47.47,0,0,0-.51.23.3.3,0,0,0-.16-.19.62.62,0,0,0-.48,0c-.44-.29-1.29-.06-1.2.59a.63.63,0,0,0,.05.3q-1.34.42-2.67.93a1.35,1.35,0,0,0-.92,1.28l.09-.05.42-.19a.65.65,0,0,1,.38-.08,1.11,1.11,0,0,1,1.47,0h0a.51.51,0,0,1,.73.49.7.7,0,0,1,.49-.54c1.12-.35,2.8-1.25,3.88-.36a1.74,1.74,0,0,1,1.62.14h.09a1,1,0,0,1,.84-.53,1.79,1.79,0,0,1,1.59-.92,2.14,2.14,0,0,1,3.12-.76,4.49,4.49,0,0,1,.52.47c.61.25,2.75-.48,2.82-1,.25-1.81,3.06-2.73,3.95-1a5.51,5.51,0,0,1,2.12.38,2.1,2.1,0,0,1,.89.69l.18-.07a3.36,3.36,0,0,1,2.34-2.13,6,6,0,0,1,1.07-3c.07-.1.15-.19.23-.29A4.18,4.18,0,0,0,64.31,28.6Z"/><path class="cls-3" d="M39.72,36.77a.49.49,0,0,1-.15.24l-.08.07a1.21,1.21,0,0,1,0,.19,1.11,1.11,0,0,1-.11.34h0a1,1,0,0,0,.58.17,1,1,0,0,0,.32-.05,2.09,2.09,0,0,1-.23-.16A1,1,0,0,1,39.72,36.77Z"/><path class="cls-3" d="M68.83,25.23l-.14.35.17-.06C68.85,25.42,68.84,25.32,68.83,25.23Z"/><path class="cls-3" d="M81.22,40A9.1,9.1,0,0,1,80,39.9a3.24,3.24,0,0,0-.83,1.77l.53-.1A7.21,7.21,0,0,1,81.22,40Z"/><path class="cls-3" d="M6.26,46.33A1.79,1.79,0,0,1,6.52,46a14.27,14.27,0,0,0-2.37-.06l-.7.07a1.89,1.89,0,0,1,.38.31A4.94,4.94,0,0,1,6.26,46.33Z"/><path class="cls-3" d="M5.26,49.52h0Z"/><path class="cls-3" d="M185.93,42.68a1.65,1.65,0,0,0-1,0,3,3,0,0,0-1.16-.1c-1,.09-2.19,1.16-3.27,1.53a4.59,4.59,0,0,0,.28-.47,1,1,0,0,0-.35-1.17,2.06,2.06,0,0,0-2,0,1.19,1.19,0,0,0-.08-.37l-2.51.12c-2.73.15-4.52.32-7.12-.53a14.69,14.69,0,0,0-4.88-.68,5.54,5.54,0,0,0-2.4-1.35,2,2,0,0,0-.92-1.55l-3.63-2.57a2.59,2.59,0,0,0-2.65-.21c-.13-.17-.26-.33-.41-.5a2.34,2.34,0,0,0-3.43-.31,3.86,3.86,0,0,0-3.8-.76l-.29.12a4.56,4.56,0,0,0-.53-.21A4,4,0,0,0,144,31.45a3.73,3.73,0,0,0-4.62.47,12.37,12.37,0,0,0-3.64-1.3c-2.83-3.34-8.32-4.65-10.43-.64a3.63,3.63,0,0,0-.23-.37,4.77,4.77,0,0,0-4-2A4.94,4.94,0,0,0,117.52,25a6.33,6.33,0,0,0-.65-1.73,6.42,6.42,0,0,0-7.6-3,6,6,0,0,0-5.75-4.16,8.62,8.62,0,0,0-2.46-2,5.32,5.32,0,0,0-5.74.27,7.17,7.17,0,0,0-.6-.44,9.63,9.63,0,0,0-12,1.66,10.94,10.94,0,0,0-1.33,1.68,7,7,0,0,0-2.61-.58c-5.32-.19-8.18,4.21-9.92,8.6,0,.1,0,.2,0,.3l-.17.06c-.18.48-.36,1-.52,1.42a4.71,4.71,0,0,0-2.69.58c-.08.1-.16.19-.23.29a6,6,0,0,0-1.07,3A3.36,3.36,0,0,0,61.84,33l-.18.07a2.1,2.1,0,0,0-.89-.69A5.51,5.51,0,0,0,58.65,32c-.89-1.72-3.7-.81-3.95,1-.07.55-2.21,1.28-2.82,1a4.49,4.49,0,0,0-.52-.47,2.14,2.14,0,0,0-3.12.76,1.79,1.79,0,0,0-1.59.92,1,1,0,0,0-.84.53h-.09a1.74,1.74,0,0,0-1.62-.14c-1.08-.89-2.75,0-3.88.36a.7.7,0,0,0-.49.54.51.51,0,0,0-.73-.49h0a1.11,1.11,0,0,0-1.47,0,.65.65,0,0,0-.38.08l-.42.19,0,0a.94.94,0,0,0-.43,0c-.3.05-.37.55,0,.57l.08,0a.44.44,0,0,0,.47.37l.09,0a1.37,1.37,0,0,0,1.71.62l.8-.26a1.11,1.11,0,0,0,.11-.34,1.21,1.21,0,0,0,0-.19l.08-.07a.49.49,0,0,0,.15-.24,1,1,0,0,0,.35.8,2.09,2.09,0,0,0,.23.16.73.73,0,0,0,.32-.21A2.61,2.61,0,0,0,42.07,37a7.17,7.17,0,0,0,.66.6.42.42,0,0,0,.58-.07,1.4,1.4,0,0,0,.38-.77c.28.06.54.16.77.22.64.73,1.53.08,2.4-.55a2.19,2.19,0,0,0,3.89-.13,2.24,2.24,0,0,0,2,.35,1.6,1.6,0,0,0,.9-.16h0l.1,0a.33.33,0,0,0,.08-.54.49.49,0,0,0-.12-.47l.14-.09a4.13,4.13,0,0,0,1.89,2.35,1.78,1.78,0,0,0,1.47,0,1.69,1.69,0,0,0,1.48.51,7.86,7.86,0,0,0,4-1.89,2,2,0,0,0,.42-2.65,8.17,8.17,0,0,0-.76-1.05,3.06,3.06,0,0,1,1-.18A4.6,4.6,0,0,0,69.21,36a2,2,0,0,0,1.26-2,3.23,3.23,0,0,0,3.24-1.31,2.35,2.35,0,0,0,.22-.38l.22,0c-.12.37-.23.75-.32,1.11-.4,1.62,1.43,2.74,2.81,2.29a5.31,5.31,0,0,0,3.44-3.61l.41-.07c0,.16-.06.32-.07.48A2.19,2.19,0,0,0,83.06,35l.05.1a9.93,9.93,0,0,0,1.59,2.16,2.19,2.19,0,0,0,.65.59A4.49,4.49,0,0,0,88.14,39c0,.12,0,.24,0,.36a10,10,0,0,0-2.57,1,5.28,5.28,0,0,0-2.79-.25,4.85,4.85,0,0,0-3.86,4.2,9.53,9.53,0,0,0-2,1.14,10.83,10.83,0,0,0-3.3.72,15.78,15.78,0,0,0-9.42,2.47,1.91,1.91,0,0,0-.59.72l-.32.1a4.5,4.5,0,0,0-3.17-1.86,4.37,4.37,0,0,0-1.87.2c-.11-.09-.21-.18-.33-.26-1.91-1.37-3.93-1-5.68.11a5.36,5.36,0,0,0-3-.42c-1.79-1.59-3.57-.9-5.06.65a4.68,4.68,0,0,0-1.94.29A4.66,4.66,0,0,0,38,47.32a11,11,0,0,0-6.12-1.5,6.67,6.67,0,0,0-4.15,1.44,5.3,5.3,0,0,0-4.22,1.63,4.4,4.4,0,0,0-2-1.27,4.75,4.75,0,0,0-2.79,0,8.51,8.51,0,0,0-1.61-.53,1.61,1.61,0,0,0-1.55.59,4.11,4.11,0,0,0-1.8.59c-.32-.18-.65-.34-1-.5l-.08,0A19.61,19.61,0,0,0,6.52,46a1.79,1.79,0,0,0-.26.32,4.94,4.94,0,0,0-2.44,0A1.89,1.89,0,0,0,3.45,46a6.53,6.53,0,0,0-.91.17c-.16-.22-.45-.28-.88-.15-.65.19-1.4.66-1.28,1.44a1.16,1.16,0,0,0,1.35.91l.3.07a2,2,0,0,0,.33,0,5.7,5.7,0,0,0,2.55,1.05h.35a11.9,11.9,0,0,1,3.27.07.33.33,0,0,0,0,.25,2.22,2.22,0,0,0,.24.3,1.85,1.85,0,0,0,1.07,1.22,1.12,1.12,0,0,0,.84,0c.33-.16.49-.53.82-.67l.06,0a11.76,11.76,0,0,1,1.33.78A1.58,1.58,0,0,0,15,51.2a3.57,3.57,0,0,0,.34.63,3.76,3.76,0,0,0,.11.66,4,4,0,0,0,4.68,2.61C20,56.76,22.45,58,23.43,56.42A7.63,7.63,0,0,0,24,55.3a4.6,4.6,0,0,0,5.36.45,1.9,1.9,0,0,0,.41-2.59,4.77,4.77,0,0,0-.86-1.09,2.53,2.53,0,0,0,2.94-1,2.17,2.17,0,0,0,.21-.41,3.24,3.24,0,0,0,1.24.21,5.08,5.08,0,0,0,.9.11,2.25,2.25,0,0,0,1.15,1.65,2.74,2.74,0,0,0,3.52-.8,5.6,5.6,0,0,0,.2,3.67,2.21,2.21,0,0,0,1.64,1.27,1.68,1.68,0,0,0,1,.93,5.68,5.68,0,0,0,7-3,5.16,5.16,0,0,0,.8-.75c2.26,1.69,4.67-.27,5-2.56.22,0,.43,0,.63,0A5.67,5.67,0,0,0,55,53.24a2.07,2.07,0,0,0,3.25,1.46,3.84,3.84,0,0,0,1.42-1.76l.48.09c-.53,2.26,3,3.28,3.88,1.14l1.86,0a2,2,0,0,0,2,1.79,6,6,0,0,0,3.83,1,6.2,6.2,0,0,0,4-.13,5.81,5.81,0,0,0,3.56-5A5.36,5.36,0,0,0,83,50,5.32,5.32,0,0,0,89,45a4.39,4.39,0,0,0-.22-1.52,5.35,5.35,0,0,1,2-.13,6.34,6.34,0,0,0,2.4.75,2.09,2.09,0,0,0,1.16-4,8.63,8.63,0,0,0-1.71-.69,1.22,1.22,0,0,1-.33-1.06,14.09,14.09,0,0,0,3.29-1.09,2.1,2.1,0,0,0-.41-4,5.67,5.67,0,0,0-3.45,0c0-.11-.08-.21-.13-.31a11.53,11.53,0,0,1,2.63-.82,7.8,7.8,0,0,1,3.41.2c1.85.53,5.06,1.92,5.59,3.9.12.44.86.27.78-.18-.25-1.42-1.31-2.12-2.49-2.83A13.3,13.3,0,0,0,97,31.36h0a4.49,4.49,0,0,1-.28-.43,3.7,3.7,0,0,1-.31-2.74A3.56,3.56,0,0,1,98,26.11a7.75,7.75,0,0,1,1.5-.62,5.21,5.21,0,0,1,1.06-.14,4.06,4.06,0,0,1,.58-.06,3.56,3.56,0,0,1,2.49,1.08,3.14,3.14,0,0,1,.72,1.11,5.16,5.16,0,0,1,.41.63c.05.1.1.2.14.29a3.38,3.38,0,0,1,.51-.36,3.59,3.59,0,0,1,2.74-.31l.37.15a6.48,6.48,0,0,1,1.57.17,3.51,3.51,0,0,1,2.43,2.52,3.54,3.54,0,0,1-1,3.43l-.06.07h0a3.61,3.61,0,0,1,2.15-.69,4,4,0,0,1,1.26.25l.33,0c0,.07.05.13.08.2l.31.15a3.82,3.82,0,0,1,1.34,1.4,4.68,4.68,0,0,1,.48,1.94,2.33,2.33,0,0,1-.12.92,4.7,4.7,0,0,0,2.14-.43l.36.21a9.59,9.59,0,0,0-.34,1.48,4,4,0,0,1,2.15,0A5.57,5.57,0,0,1,124.77,42a2.31,2.31,0,0,1,.27.55,6.53,6.53,0,0,1,2.38-2.38,11.18,11.18,0,0,1,5.6-1.26,3.56,3.56,0,0,1,3.37,2.66,8.51,8.51,0,0,1,0,2.86,2.24,2.24,0,0,0,.77-.33,3.33,3.33,0,0,0,.29.48,3.66,3.66,0,0,1,2.62-1.16,3.27,3.27,0,0,1,2.07.72c.37-.11,1.16-.48,0,0h0A3.63,3.63,0,0,1,147,45.49a3.67,3.67,0,0,1-.36,4,4.65,4.65,0,0,0,2.56-2.15,5.27,5.27,0,0,0,3.12-.47,2.34,2.34,0,0,0,.64-.1,4.91,4.91,0,0,0,2.72-2,1.77,1.77,0,0,0,.5.26,2.81,2.81,0,0,0,3.65-1.34,1.39,1.39,0,0,1,1.3.72,2.16,2.16,0,0,0,2,.88,10.77,10.77,0,0,1,4.83.64,4.78,4.78,0,0,1,.44.2,5,5,0,0,0,3.64-.76,3.09,3.09,0,0,0,1.87-.34l.09.11a4,4,0,0,0,4.52.61,3,3,0,0,0,1.53.39c1,0,3.19-1.63,4.28-1.54a1.38,1.38,0,0,0,1.14.57A1.11,1.11,0,0,0,186.53,44,1,1,0,0,0,185.93,42.68ZM100.45,24a6.11,6.11,0,0,0,.28-1.19C101.08,23.28,100.94,23.8,100.45,24Z"/><path class="cls-3" d="M82.8,40.09a5.28,5.28,0,0,1,2.79.25c-.88-.32-2-1.41-3-1.37A3.73,3.73,0,0,0,80,39.9a9.1,9.1,0,0,0,1.23.15,7.21,7.21,0,0,0-1.53,1.52l-.53.1c-.16.89-.13,1.85-.22,2.63A4.85,4.85,0,0,1,82.8,40.09Z"/><path class="cls-2" d="M75.17,16.15c-2.08.57-3.55,2.32-4.69,4.12a.48.48,0,0,0-.17-.08c.11-.12.21-.24.34-.35.49-.45-.2-1.16-.62-.65a9.19,9.19,0,0,0-2.43,6.42c-.13.39-.34.58-1,.86-1.44.64-3.13,1.15-3.08,3.08,0,.27.41.26.45,0,.36-1.83,2.32-1.86,3.69-2.23a1.14,1.14,0,0,0,.58-.26,8,8,0,0,0,.55,2.21.28.28,0,0,0,.53-.2,9.61,9.61,0,0,1,1.37-7.82c1.21-1.86,2.58-3.58,4.73-4.35C76,16.73,75.67,16,75.17,16.15Z"/><path class="cls-2" d="M59.42,31.83c-1.1-1-2.32-1.47-3.68-.63a4.21,4.21,0,0,0-.81.66l.33-.41c.09-.11,0-.32-.18-.24-1.42.73-2.13,3.54-.84,4.69.14.13.31,0,.27-.2-.09-.35-.19-.67-.28-1a3.69,3.69,0,0,1,1.62-2.83c1.16-.78,2.15-.32,3.1.51C59.31,32.72,59.77,32.15,59.42,31.83Z"/><path class="cls-2" d="M94.55,12.46a.29.29,0,0,0-.41.24,9.36,9.36,0,0,0-.79-.61c-.23-.16-.5.18-.27.34A8,8,0,0,1,96.44,18,.33.33,0,0,0,97.1,18C97,16.11,96.52,13.29,94.55,12.46Z"/><path class="cls-2" d="M117,22.11c-.18-.09-.43.12-.33.31l.39.74h0a3.92,3.92,0,0,1,.56,2A11.48,11.48,0,0,1,117,28.1h0l0,.07c-.08.29.41.44.51.15C118.21,26.65,119.19,23.21,117,22.11Z"/><path class="cls-2" d="M126.22,27.73a6.29,6.29,0,0,0-.89.91,7,7,0,0,1,.5-1,.38.38,0,1,0-.64-.39,9.45,9.45,0,0,0-1.09,5.14.32.32,0,0,0,.63-.06A5.66,5.66,0,0,1,126.48,28C126.63,27.86,126.38,27.6,126.22,27.73Z"/><path class="cls-2" d="M185.07,42.39a.44.44,0,0,0-.17,0,5.94,5.94,0,0,0-3.77.51,2.06,2.06,0,0,0-1.78-1.39,7,7,0,0,0-1.45.29c-.48,0-.66-.14-1.1,0a2,2,0,0,0-1.35-.35c-1.69.06-3.35.87-4.94.11-1.27-.61-2.86-1.22-4.06-.55a.39.39,0,0,0-.33,0l0-.07a.18.18,0,0,0-.06-.1l0-.07a.28.28,0,0,0-.44,0l-.14.16a4.43,4.43,0,0,0-2.66-1.36c.06-1-.81-1.33-1.61-1a2.08,2.08,0,0,0-1.45-1.06h0q-.22-.25-.46-.47a7.9,7.9,0,0,0-2-1.8c-.58-.39-2.22-1.61-2.74-.73a.38.38,0,0,0-.17.39,2.85,2.85,0,0,0-4.19-.72.21.21,0,0,0,.19.36c2.73-1.21,4.36,1.3,4.44,3.7,0,.18,0,.36,0,.54,0,.47.71.59.73.12a12.77,12.77,0,0,0-.15-2.87,5.71,5.71,0,0,1,3.89,4.22.44.44,0,0,0,0,.07,1.64,1.64,0,0,0-.3.65.4.4,0,0,0,.62.38c.4-.34.8-.66,1.22-1a6.24,6.24,0,0,1,2.08.11,3.17,3.17,0,0,1,2.43,2.16c.17.52.87.24.8-.25l0,0c1.34-2.09,3.49.31,4.92.63a7.21,7.21,0,0,0,2.33-.24c.67-.09,2.35-.65,2.89,0a.55.55,0,0,0,.94-.25l.55.16a.37.37,0,0,0,.38.06q1.92-.78,2.17,1c0,.32.48.6.76.34a5.13,5.13,0,0,1,4-.56l.66.87c.06.66,1,.54,1-.1A1.77,1.77,0,0,0,185.07,42.39Z"/></svg>