<svg id="Layer_1" data-name="Layer 1" xmlns="http://www.w3.org/2000/svg" viewBox="0 0 148.45 39.49"><defs><style>.cls-1{fill:#eaf0f3;}.cls-2{fill:#f4f7f9;}.cls-3{fill:#eef3f6;}</style></defs><title>fog-cloud-g</title><path class="cls-1" d="M78.64,18.08a6.16,6.16,0,0,1,.58.53c.24-.34.51-.66.78-1A1.48,1.48,0,0,0,78.64,18.08Z"/><path class="cls-2" d="M103.26,0A11.59,11.59,0,0,0,92.45,5.87l-.31-.13a4.56,4.56,0,0,0-5.81,2.64c-.06.18-.1.37-.15.55-2.65-1.42-5.94-1.77-8.19,0a6.69,6.69,0,0,0-1,1,5.41,5.41,0,0,0-1.64,2.41A5.64,5.64,0,0,0,74.95,14a9.63,9.63,0,0,0-1.72-.87C67.37,10.88,62.67,15,61.7,20a8.94,8.94,0,0,0-1.7.41,6.28,6.28,0,0,0-2.46,0c-2,.45-3.67.66-4.65,2.43a2.54,2.54,0,0,0-3.28,2.43,6.15,6.15,0,0,0-2.11.4,13.1,13.1,0,0,0-2.08,1.13,4.92,4.92,0,0,0-.52.35,4,4,0,0,0-3.36,1,2.8,2.8,0,0,0-2.06-.12,1.14,1.14,0,0,0-.52.38,50.16,50.16,0,0,0,11.3.17c-.19-.66.15-.65.37-1.6s2.31-2,3.33-2c3.6.17,5.56,0,9.16.22l.38-.42c0-.15.1-.3.16-.45a5.5,5.5,0,0,1,.25-.49,13.07,13.07,0,0,1,2.2-4.53,6.92,6.92,0,0,1,6.6-2.34,5.33,5.33,0,0,1,2.17-.44C76.3,13.54,80,13,82.79,14.57c.45-.47.92-.92,1.38-1.35a2,2,0,0,1,2.36.05,5.94,5.94,0,0,1,.45.45,10.51,10.51,0,0,1,2.21-.13l.56-.19A6.57,6.57,0,0,1,92.19,12a8.1,8.1,0,0,1,.68-.92c1.73-2,4.9-3.24,7.15-1.37,1.4,1.16,2,3.17,2.18,5.19l.78.44a4.33,4.33,0,0,1,1.88,1.3,13.64,13.64,0,0,1,2,2,6.2,6.2,0,0,1,9.5-.18c.13.16.24.33.36.49a7.42,7.42,0,0,1,3,2.38,5.19,5.19,0,0,1,.64,1.21,2.21,2.21,0,0,1,1.5,1.81A6.6,6.6,0,0,1,122,25.6l.33.11a4.13,4.13,0,0,1,1.06-1.31c1.63-1.33,3-1,4.11,0a5.35,5.35,0,0,1,4,3,12.4,12.4,0,0,1,1.51.85,4.14,4.14,0,0,1,3.4-.54,4,4,0,0,1,1.2-.57,3.82,3.82,0,0,1,2.07,0,5.77,5.77,0,0,0-2.24-.84,6.8,6.8,0,0,0-2.55.13,4.73,4.73,0,0,0-2.27-3.5,5.18,5.18,0,0,0-3.15-.66,4.46,4.46,0,0,0,.24-1.15,5,5,0,0,0-3.14-4.83,7.63,7.63,0,0,0-3.8-.46,11.62,11.62,0,0,0-.85-1,8.82,8.82,0,0,0,.22-.93c.56-3.22-.93-6-4.29-6.57a10.18,10.18,0,0,0-7.7,1.83,6.54,6.54,0,0,0,.3-1.49C110.79,3.54,107.18.44,103.26,0Z"/><path class="cls-2" d="M15.38,31A6.76,6.76,0,0,0,14,31c-.33,0-.6.08-.85.13a11.74,11.74,0,0,1,1.17.9Z"/><path class="cls-2" d="M22.69,31h0a4.74,4.74,0,0,1,2.67-2.85,4,4,0,0,1,4.23-2.69,3.4,3.4,0,0,0-5.05,1.94,3.34,3.34,0,0,0-2.1,3.26l-.4-.12a1.86,1.86,0,0,0-1.52.28A8.39,8.39,0,0,0,22.69,31Z"/><path class="cls-1" d="M139,31.83c-3.25-1.59-8.57-1.4-11,.91l0-.06-.33.08a5.55,5.55,0,0,1-.62.06,6.29,6.29,0,0,0-3.13-3.69,7.22,7.22,0,0,0-8.82,1.7,2.54,2.54,0,0,1-.47-1.29,5.28,5.28,0,0,1-.56-.17,1.86,1.86,0,0,1-.85-.63l-.17,0c-2.31-1.75-5.77-2.6-8.31-1a5.76,5.76,0,0,0-.66.5l0-.05a4.66,4.66,0,0,1-1.78-.64l0,0c-2.64,2.54-6.17,4-9.43,1a6.64,6.64,0,0,1-1.25-1.53,10.74,10.74,0,0,1-4.6-1.36,4.31,4.31,0,0,1-5,.1,7.58,7.58,0,0,1-2.54.76,8.13,8.13,0,0,1-2.79,2.44c-1.68.89-2.88-1.25-2.48-2.62A11.18,11.18,0,0,1,75.8,23l-.1-.12a4.57,4.57,0,0,1-1.82,2.23,2.35,2.35,0,0,1-.09.35c-1.05,2.94-3.85,6.79-7.22,5.72a3.83,3.83,0,0,1-1.6-.78l-.31.23a6.31,6.31,0,0,0-.46-.53,5.93,5.93,0,0,0-4.41-1.84A6.17,6.17,0,0,0,55,31a4.85,4.85,0,0,0-1.31-.67,4.38,4.38,0,0,0-5.25,2.14c-.87.05-1.74.09-2.62.1A5,5,0,0,0,43.12,31a5.57,5.57,0,0,0-4.09.64,5.41,5.41,0,0,0-1.41,1.22A3.23,3.23,0,0,1,35,32l-.08.12a12.28,12.28,0,0,0-6.77-1.93,6,6,0,0,0-5.12,2.42,4.46,4.46,0,0,0-.59,1.4,11,11,0,0,1-4.95-1.15l-2.16,1.94A5.29,5.29,0,0,1,17,34.5c.74.07.83.49,1.45.76a4.78,4.78,0,0,0,4.2,0,4,4,0,0,0,4.68-.93c.29,1.36,2.94,1.68,4.29.39.58.09,2.43,1.62,5.65,1.22a13.44,13.44,0,0,0,5-1.4,5.59,5.59,0,0,0,4.93.32,9.77,9.77,0,0,0,.94-.43c.24,0,.75.68,1.54.87,3.06.72,4.39-.68,4.54-1a6.23,6.23,0,0,0,5.49,2.93,4.56,4.56,0,0,0,3.67-2.12,6.36,6.36,0,0,0,4,2.86,14.32,14.32,0,0,0,5.85-1.35,4.27,4.27,0,0,0,1.31,1.25,3.41,3.41,0,0,0,5-2c1.58,3.31,3.41,2.41,5.3.43a2.08,2.08,0,0,0,1.88,1.11c.35,1.57,2.36,1.49,4.05.28.28,1.94,3.86,2.5,5,.88a1.73,1.73,0,0,0,1.69-.19,6.22,6.22,0,0,0,3.62.8c1.22-.08,3.19-.63,3.83-1.66a4.57,4.57,0,0,0,2.91,1.67c1.5.18,4.2-.78,4.68-2.4l.08,0A3.59,3.59,0,0,0,118,35a3.23,3.23,0,0,0,.92,1.13,3.75,3.75,0,0,0,2.18.76,5.87,5.87,0,0,0,1.07.54,2.43,2.43,0,0,0,3.31-1.85h0a11.53,11.53,0,0,0,2.11.61,3.9,3.9,0,0,0,3.32-.9,2.49,2.49,0,0,0,2.46,0,2.77,2.77,0,0,0,2.08-1.43c1,.18,1.88.4,2.71.64a2.66,2.66,0,0,0,1.7-.05l.05,0a1.8,1.8,0,0,0,1.87-.27,1.66,1.66,0,0,0,.47-.38,1.18,1.18,0,0,0,.18.15,3.75,3.75,0,0,0,2.65.69,6.41,6.41,0,0,0,2.23-.74h0l.11-.06h0l.38-.22a1.62,1.62,0,0,0,.23-2.39C145.54,30.12,142,30.63,139,31.83Z"/><path class="cls-1" d="M3.39,32.78c-1.16.53-2-.67-1.7-1.64A3,3,0,0,0,.33,32.35a1.25,1.25,0,0,0,1.78,1.71c1.39-1,4.43,1,6.19.57.59-.15,1-.48,1.52-.65a10.26,10.26,0,0,0,3.63,1,1.73,1.73,0,0,1-.27-.25A8.19,8.19,0,0,0,3.39,32.78Z"/><path class="cls-2" d="M36.84,28.19l1.66.25a4.93,4.93,0,0,0-1.85-1c-1.15-1.74-3.49-2.07-5.55-1.65A6.91,6.91,0,0,1,33,26.92C34.26,26.74,35.59,27.47,36.84,28.19Z"/><path class="cls-3" d="M13.46,35a1.31,1.31,0,0,0,1.67.06l.23-.21a3.9,3.9,0,0,1-.74.15A8.35,8.35,0,0,1,13.46,35Z"/><path class="cls-3" d="M31.11,25.79a5.57,5.57,0,0,0-1.51-.35,3.68,3.68,0,0,1,.73.54C30.58,25.91,30.84,25.85,31.11,25.79Z"/><path class="cls-3" d="M39,28.49l-.46-.05c.11.09.21.17.31.27A1.59,1.59,0,0,1,39,28.49Z"/><path class="cls-3" d="M17.41,30.93a2.68,2.68,0,0,1,.93.24c.64,0,1.29-.1,1.93-.17a1.84,1.84,0,0,1,.25-.2,9.52,9.52,0,0,1-2.62-1,1.39,1.39,0,0,0-1.43.15l-1.08,1,.52.06C16.38,31,16.88,30.95,17.41,30.93Z"/><path class="cls-3" d="M137.58,27.15a4,4,0,0,0-1.2.57,4.14,4.14,0,0,0-3.4.54,12.4,12.4,0,0,0-1.51-.85,5.35,5.35,0,0,0-4-3c-1.07-1-2.48-1.36-4.11,0a4.13,4.13,0,0,0-1.06,1.31L122,25.6a6.6,6.6,0,0,0-.11-1.23,2.21,2.21,0,0,0-1.5-1.81,5.19,5.19,0,0,0-.64-1.21,7.42,7.42,0,0,0-3-2.38c-.12-.17-.23-.33-.36-.49a6.2,6.2,0,0,0-9.5.18,13.64,13.64,0,0,0-2-2,4.33,4.33,0,0,0-1.88-1.3l-.78-.44c-.21-2-.79-4-2.18-5.19-2.25-1.87-5.42-.65-7.15,1.37a8.1,8.1,0,0,0-.68.92,6.57,6.57,0,0,0-2.44,1.37l-.56.19a10.51,10.51,0,0,0-2.21.13,5.94,5.94,0,0,0-.45-.45,2,2,0,0,0-2.36-.05c-.46.42-.93.87-1.38,1.35-2.76-1.52-6.49-1-7.91,2.06a5.33,5.33,0,0,0-2.17.44,6.92,6.92,0,0,0-6.6,2.34,13.07,13.07,0,0,0-2.2,4.53,5.5,5.5,0,0,0-.25.49c-.06.15-.11.3-.16.45s-5-1.09-7.18-1.19c-1,0-5.21,1-6.05,2.58a3,3,0,0,0,0,2.4A50.16,50.16,0,0,1,39,28.49a1.59,1.59,0,0,0-.15.22c-.1-.1-.2-.18-.31-.27l-1.66-.25c-1.25-.71-2.58-1.45-3.81-1.27a6.91,6.91,0,0,0-1.93-1.12c-.27.05-.53.12-.78.2a3.68,3.68,0,0,0-.73-.54,4,4,0,0,0-4.23,2.69A4.74,4.74,0,0,0,22.69,31h0a8.39,8.39,0,0,1-2.18-.19,1.84,1.84,0,0,0-.25.2c-.65.06-1.29.12-1.93.17a2.68,2.68,0,0,0-.93-.24c-.53,0-1,.06-1.51.12L15.38,31l-1.05,1a11.74,11.74,0,0,0-1.17-.9l-.44.08a5.9,5.9,0,0,1-1.65-.53,1.44,1.44,0,0,0-1.88.42,2.85,2.85,0,0,1-.51.23c-1.59.49-2.86.08-4.45-.28a4.07,4.07,0,0,0-2.54.13c-.26,1,.55,2.18,1.7,1.64a8.19,8.19,0,0,1,9.8,2,1.73,1.73,0,0,0,.27.25,8.35,8.35,0,0,0,1.16,0,3.9,3.9,0,0,0,.74-.15l2.16-1.94A11,11,0,0,0,22.47,34a4.46,4.46,0,0,1,.59-1.4c1.3.76,3.64-.53,5.12-2.42.53,1.66,3.1,3.51,6.77,1.93L35,32a3.23,3.23,0,0,0,2.59.88A5.41,5.41,0,0,1,39,31.68,5.57,5.57,0,0,1,43.12,31a5,5,0,0,1,2.68,1.58c.87,0,1.75,0,2.62-.1a4.38,4.38,0,0,1,5.25-2.14A4.85,4.85,0,0,1,55,31a6.17,6.17,0,0,1,4.81-2.82,5.93,5.93,0,0,1,4.41,1.84,6.31,6.31,0,0,1,.46.53l.31-.23a3.83,3.83,0,0,0,1.6.78c3.37,1.08,6.17-2.78,7.22-5.72a2.35,2.35,0,0,0,.09-.35,4.57,4.57,0,0,0,1.82-2.23l.1.12a11.18,11.18,0,0,0-1.72,3.45c-.4,1.37.8,3.51,2.48,2.62a8.13,8.13,0,0,0,2.79-2.44,7.58,7.58,0,0,0,2.54-.76,4.31,4.31,0,0,0,5-.1,10.74,10.74,0,0,0,4.6,1.36,6.64,6.64,0,0,0,1.25,1.53c3.26,2.91,6.79,1.49,9.43-1l0,0a4.66,4.66,0,0,0,1.78.64l0,.05a5.76,5.76,0,0,1,.66-.5c2.54-1.65,6-.79,8.31,1l.17,0a1.86,1.86,0,0,0,.85.63,5.28,5.28,0,0,0,.56.17,2.54,2.54,0,0,0,.47,1.29,7.22,7.22,0,0,1,8.82-1.7A6.29,6.29,0,0,1,127,32.82a5.55,5.55,0,0,0,.62-.06l.33-.08,0,.06c2.43-2.31,7.76-2.5,11-.91,3-1.2,6.57-1.71,9.06-.52a1.48,1.48,0,0,0-1.56-.62l-.27.05a1.11,1.11,0,0,0-1-.72c-.29,0-.58,0-.87,0,0,0,0,0,0,0,.36-.31-.27-.81-.46-.62a1.8,1.8,0,0,0-2-1.13l-.1,0a2.39,2.39,0,0,0-.62.26,5.33,5.33,0,0,0-1.52-1.44A3,3,0,0,0,137.58,27.15Z"/><path class="cls-2" d="M53.48,23c-1.84,0-4.11,3.07-3.66,5.07a6.49,6.49,0,0,0-2.41-.46,6.39,6.39,0,0,0-2,.29c-.39.12-.72.31-1.09.47a8.49,8.49,0,0,1-1.25.38.27.27,0,0,0-.24-.18h-.09a.28.28,0,0,0-.22-.1l-.36,0a3.4,3.4,0,0,0,1.49-.79l.38.06c.39.08.54-.39.33-.64a3.81,3.81,0,0,1,1.42.38c.43.21.78-.41.43-.7a4.42,4.42,0,0,0-4-.87,3.28,3.28,0,0,0-1.49,1l-.37-.24a4,4,0,0,0-2.68-2.76,2.19,2.19,0,0,0-.24-.13,4.55,4.55,0,0,0-2.66-.18,4.79,4.79,0,0,0-2.56,1.22,5.36,5.36,0,0,0-.55-.27,4.73,4.73,0,0,0-6.52,1.82.4.4,0,0,0,.16.5l-.12.15c-.46.51-1.33.75-1.89,1.25s-.78,1.16-1.26,1.64c-1.41,1.4-2,.26-3.3-.3a2.74,2.74,0,0,0-3.25.71,2.77,2.77,0,0,1-3,.59,8.26,8.26,0,0,0-3.05,0,15.13,15.13,0,0,1-3.74.26,11.45,11.45,0,0,0-3.45-.29A2.56,2.56,0,0,0,0,33.14a.22.22,0,0,0,.43.07C.93,30.66,4,31.73,5.62,32a14.56,14.56,0,0,0,4-.18,8,8,0,0,1,2.55,0c.46.09.89.34,1.35.41a2.47,2.47,0,0,0,2-.59,13.93,13.93,0,0,1,1.12-1c.91-.56,1.64-.17,2.45.31a4.17,4.17,0,0,0,1.88.8,2,2,0,0,0,1.71-.93c1-1.22,1.46-2.21,3.11-2.68a.5.5,0,0,0,.32-.4c.38-3.05,6.36-1.52,6.37,1.1,0,.56.86.55.95,0a2.7,2.7,0,0,0-1.36-2.72l.22-.09.39,0a.43.43,0,0,0,.42-.22.37.37,0,0,0,.4.27,7.74,7.74,0,0,1,1.46,0,8.42,8.42,0,0,0,.79.45.24.24,0,0,0,.14.38h0a.18.18,0,0,0,0,.28A16.49,16.49,0,0,0,37.7,28.4a7.15,7.15,0,0,0,.66.45,4.81,4.81,0,0,1,1.51,1.57c.2.37.84.11.77-.29a1.12,1.12,0,0,0-.38-.72l.05-.05a.36.36,0,0,0,.25.15l3.08.35a.46.46,0,0,0,.5-.52,12.28,12.28,0,0,1,2.66-.81,8.12,8.12,0,0,1,3.85,1,.38.38,0,0,0,.38-.64l-.17-.15a3.11,3.11,0,0,1,.5-3.28c.67-.87,1.67-1.22,2.37-2C53.88,23.23,53.69,23,53.48,23Z"/><path class="cls-2" d="M100.48,9.36a.25.25,0,0,0-.2,0,4.29,4.29,0,0,0-4.46-.67.16.16,0,0,0,.11.31c2.91-1,5.26,1.56,5.84,4.18A8,8,0,0,1,102,15a5,5,0,0,1-1.6,2.65,7.28,7.28,0,0,0-1.51,1c-.28.28.11.76.45.61a5.6,5.6,0,0,0,1.74-1.19,2.92,2.92,0,0,0,1.46-1.53,4.38,4.38,0,0,0,.22-1.41A5,5,0,0,0,100.48,9.36Z"/><path class="cls-2" d="M109.77,16.13a5.71,5.71,0,0,0-3.09,2.81,14.14,14.14,0,0,1,1.81-4.54c.18-.31-.29-.54-.5-.3a10,10,0,0,0-2,8.35.35.35,0,0,0,.69-.07A6.1,6.1,0,0,1,110,16.48C110.16,16.36,110,16,109.77,16.13Z"/><path class="cls-2" d="M146.21,30.1a2,2,0,0,0-.43,0,5.29,5.29,0,0,0-.82-.14c-.73-.26-.35-.41-.91-.8a2,2,0,0,0-.83-.42,1.68,1.68,0,0,0-.61-.5,3.64,3.64,0,0,0-1.45-.22c-.77-.1-1-.48-1.62-.85a3.18,3.18,0,0,0-3.46.1.2.2,0,0,0,.19.36,3.39,3.39,0,0,1,2.62,0c.55.26.79.78,1.29,1,.68.35,1.53.14,2.16.36a.45.45,0,0,0,.53.66.23.23,0,0,1,.15,0,2.37,2.37,0,0,1,.14.58.37.37,0,0,0,.31.33c.26,0,.54,0,.82.06a1.43,1.43,0,0,0,.41.24c.55.15,1.11.21,1.58.35a2.28,2.28,0,0,1,1.14,1.8.44.44,0,0,0,.87-.09A2.8,2.8,0,0,0,146.21,30.1Z"/></svg>