<svg xmlns="http://www.w3.org/2000/svg" viewBox="0 0 611.61 617.453"><defs><style>.a{isolation:isolate;}.b{fill:#566471;}.c{fill:#35495e;}.d{fill:#2c3e50;}.e{fill:#c82128;}.f{fill:#e5272e;}.g{fill:#f15c52;}.h{fill:#231f20;opacity:0.15;mix-blend-mode:multiply;}.i{fill:#ba2627;}.j{fill:#ffdcae;}.k{fill:#fdbe68;}.l{opacity:0.5;}.m{fill:#fff;}</style></defs><title>gas-canister</title><g class="a"><path class="b" d="M276.386,102.872,264.861,88.864l-6.292-7.647-.4-.49-.1-.123-.343-.456-.052-.06-.207-.242-.831-.97L255.4,77.443l-1.443-1.625c-1.738-1.829-3.538-3.625-5.473-5.3a75.658,75.658,0,0,0-27.022-15.276l-1.9-.566c-.632-.184-1.325-.386-1.7-.469l-2.7-.675-5.415-1.356L198.871,49.45,90.8,22.385l-8.622,27.65,103.854,40,10.47,4.032,5.21,2.006,2.594,1a8.916,8.916,0,0,1,.932.4l.715.332a28.891,28.891,0,0,1,9.417,7.384c.626.72,1.168,1.5,1.705,2.25l.2.362c.088.148.053.1.365.568l.707,1.064.176.265.044.066c-.57-.768-.134-.174-.25-.328l.085.134.34.535,5.313,8.358,9.731,15.308,20.09,31.6,46.311-33.58Z" transform="translate(-48.991 -18.983)"/><path class="c" d="M84.81,18.983,74.573,48.214l8.351,2.872,9.97-29.71Z" transform="translate(-48.991 -18.983)"/><rect class="d" x="240.479" y="144.274" width="80.149" height="17.887" transform="translate(-85.337 176.196) rotate(-36.183)"/><rect class="d" x="257.02" y="158.711" width="68.187" height="17.887" transform="translate(-91.823 185.214) rotate(-36.183)"/><path class="e" d="M396.158,170.312,363.4,149.83l44.449-71.09a57.376,57.376,0,0,1,57.507-26.309L627.88,77.64l-5.922,38.179L459.433,90.61a18.784,18.784,0,0,0-18.826,8.613Z" transform="translate(-48.991 -18.983)"/><path class="f" d="M636.364,78.956l-19.8-3.071-47.771,76.4A28.62,28.62,0,0,1,540.144,165.4l-177.06-27.464a40.067,40.067,0,0,0-29.8,7.254l-74.479,54.476a40.068,40.068,0,0,0-15.939,26.2l-50.536,325.8a28.619,28.619,0,0,0,23.894,32.668l333.717,51.764A28.619,28.619,0,0,0,582.612,612.2l77.646-500.575A28.619,28.619,0,0,0,636.364,78.956Z" transform="translate(-48.991 -18.983)"/><path class="g" d="M207.888,554.075l50.536-325.8a40.067,40.067,0,0,1,15.939-26.2L348.843,147.6a40.067,40.067,0,0,1,29.8-7.254l-15.555-2.413a40.067,40.067,0,0,0-29.8,7.254l-74.479,54.477a40.067,40.067,0,0,0-15.939,26.2l-50.536,325.8a28.619,28.619,0,0,0,23.894,32.668l15.555,2.413A28.619,28.619,0,0,1,207.888,554.075Z" transform="translate(-48.991 -18.983)"/><path class="h" d="M636.364,78.956,619.4,76.324a28.619,28.619,0,0,1,23.894,32.668L565.644,609.567a28.619,28.619,0,0,1-32.668,23.894l16.969,2.632A28.619,28.619,0,0,0,582.612,612.2l77.646-500.575A28.619,28.619,0,0,0,636.364,78.956Z" transform="translate(-48.991 -18.983)"/><path class="i" d="M534.234,530.333l-30.057-35.942a34.059,34.059,0,0,1-7.529-27.069l19.67-126.81A34.058,34.058,0,0,1,531.7,316.99l39.639-25.2c7.576-4.816,10.864-14.554,7.033-22.673A17.66,17.66,0,0,0,552.9,261.68l-43.487,27.646a34.059,34.059,0,0,1-23.493,4.914L380.713,277.921a34.059,34.059,0,0,1-20.908-11.809l-33.032-39.5a17.654,17.654,0,0,0-25.27-1.869c-7.231,6.417-7.543,17.663-1.342,25.079l30.074,35.967a34.059,34.059,0,0,1,7.528,27.068L318.1,439.607a34.059,34.059,0,0,1-15.375,23.516l-39.564,25.17c-8.124,5.168-11.244,15.919-6.361,24.218a17.654,17.654,0,0,0,24.7,5.959l43.465-27.652a34.059,34.059,0,0,1,23.5-4.92l105.2,16.318a34.059,34.059,0,0,1,20.906,11.807l33.05,39.521a17.651,17.651,0,0,0,25.342,1.8C540.133,548.913,540.412,537.72,534.234,530.333Zm-69.193-89.56a27.156,27.156,0,0,1-31,22.673L378.937,454.9a27.156,27.156,0,0,1-22.673-31l13.112-84.531a27.156,27.156,0,0,1,31-22.673l55.107,8.548a27.156,27.156,0,0,1,22.673,31Z" transform="translate(-48.991 -18.983)"/><path class="h" d="M326.358,229.292l33.032,39.5A34.059,34.059,0,0,0,380.3,280.6l105.208,16.319A34.059,34.059,0,0,0,509,292.01l43.487-27.646a17.66,17.66,0,0,1,25.473,7.437,16.833,16.833,0,0,1,1.533,8.58,17.019,17.019,0,0,0-1.117-11.264A17.66,17.66,0,0,0,552.9,261.68l-43.487,27.646a34.059,34.059,0,0,1-23.493,4.914L380.713,277.921a34.059,34.059,0,0,1-20.908-11.809l-33.032-39.5a17.654,17.654,0,0,0-25.27-1.869,17.087,17.087,0,0,0-5.641,11.44,16.914,16.914,0,0,1,5.225-8.757A17.654,17.654,0,0,1,326.358,229.292Z" transform="translate(-48.991 -18.983)"/><path class="h" d="M434.044,463.446,378.937,454.9a27.156,27.156,0,0,1-22.673-31l-.416,2.684a27.156,27.156,0,0,0,22.673,31l55.107,8.548a27.156,27.156,0,0,0,31-22.673l.416-2.684A27.156,27.156,0,0,1,434.044,463.446Z" transform="translate(-48.991 -18.983)"/><path class="g" d="M455.481,325.244,400.374,316.7a27.156,27.156,0,0,0-31,22.673l-.416,2.684a27.156,27.156,0,0,1,31-22.673l55.107,8.548a27.156,27.156,0,0,1,22.673,31l.416-2.684A27.156,27.156,0,0,0,455.481,325.244Z" transform="translate(-48.991 -18.983)"/><path class="g" d="M518.453,559.662a17.582,17.582,0,0,1-10.828-6.118l-33.05-39.521a34.059,34.059,0,0,0-20.906-11.807L348.469,485.9a34.059,34.059,0,0,0-23.5,4.92L281.5,518.469a17.654,17.654,0,0,1-24.7-5.959,16.913,16.913,0,0,1-2.278-9.858,17.087,17.087,0,0,0,1.861,12.542,17.654,17.654,0,0,0,24.7,5.958L324.551,493.5a34.059,34.059,0,0,1,23.5-4.92l105.2,16.318a34.058,34.058,0,0,1,20.906,11.807l33.05,39.521a17.651,17.651,0,0,0,25.342,1.8,17.089,17.089,0,0,0,5.57-11.388,16.914,16.914,0,0,1-5.154,8.7A17.609,17.609,0,0,1,518.453,559.662Z" transform="translate(-48.991 -18.983)"/><path class="j" d="M93.255,94.491,72.664,55.8,51.82,94.355a23.51,23.51,0,0,0,4,27.75h0a23.51,23.51,0,0,0,33.248.109h0A23.51,23.51,0,0,0,93.255,94.491Z" transform="translate(-48.991 -18.983)"/><path class="k" d="M89.086,117.559h0a23.51,23.51,0,0,1-33.248-.109h0a23.483,23.483,0,0,1-6.723-14.325,23.507,23.507,0,0,0,6.708,18.98h0a23.51,23.51,0,0,0,33.248.109h0A23.507,23.507,0,0,0,95.9,103.279,23.482,23.482,0,0,1,89.086,117.559Z" transform="translate(-48.991 -18.983)"/><g class="l"><path class="m" d="M62.427,99.106q-2.6-.73-5.183-1.46a50.79,50.79,0,0,1,4.506-9.869l4.837,1.416A49.952,49.952,0,0,0,62.427,99.106Z" transform="translate(-48.991 -18.983)"/><path class="m" d="M69.269,101.013q-2.637-.73-5.248-1.461a49.707,49.707,0,0,1,4.054-9.923q2.439.712,4.9,1.429A48.837,48.837,0,0,0,69.269,101.013Z" transform="translate(-48.991 -18.983)"/><path class="m" d="M60.615,110.51q-2.8-.713-5.581-1.431a43.868,43.868,0,0,1,1.749-9.961q2.6.73,5.234,1.461A42.979,42.979,0,0,0,60.615,110.51Z" transform="translate(-48.991 -18.983)"/><path class="m" d="M67.976,112.365q-2.835-.707-5.646-1.419a42.707,42.707,0,0,1,1.3-9.921q2.637.73,5.3,1.46A41.835,41.835,0,0,0,67.976,112.365Z" transform="translate(-48.991 -18.983)"/></g></g></svg>