<svg xmlns="http://www.w3.org/2000/svg" viewBox="0 0 1147.542 1051.312"><defs><style>.a{fill:#5d916c;}.b{fill:#162739;}.c{fill:#b3b3b3;}.d{fill:#f2bf91;}.e,.f{fill:#e0a97e;}.e{opacity:0.54;}.g{fill:#f6e2ca;}.h,.k{fill:#fff;}.h{opacity:0.39;}.i{fill:#81a38d;}.j{fill:#e6e6e6;}.l{fill:#a7d6b8;}.m{opacity:0.11;}.n{fill:#91b39d;}</style></defs><title>hand</title><path class="a" d="M814.757,640.722c-45.81,25.55-100.85,53.59-116.55,50.44,0,.01-2.6,2-9.32,3.86-7.45,26.1-7.79,32.26-3.44,69.01,3.93,33.2.41,36.25.41,37.53-2.64,7.93-87.23,130.36-130.1,146.74-29.71,11.27-65.08,23.37-65.1,23.38h-.01c-.01.01-.02.01-.03.02-12.98,5.66-34.58,12.96-53.87,19.07a.01.01,0,0,0-.01-.01c-.03.01-2.6.82-2.62.82a15.033,15.033,0,0,1-12.38-1.39c-1-.99-5.11-2.55-9.13-10.26,0,0-139.45,53.99-171.19,63.75-.02,0-.04.01-.06.01-53.48,16.01-89.92,9.33-76.44-44.59-13.06,5.79-34.45,14.55-47.61,19.88-35.12,14.24-56.58,1.44-64.03-27.13-9.55-2.29-16.77-9.75-22.67-17.65-5.67-7.61-7.78-16.21-4.89-27.78v.03c4.8-17.89,21.72-35.33,34.5-46.41,0-1.956.06-50.03,2.32-52.29,5.44-19.43,23.55-38.27,45.18-54.71-2.72,2.34,75.87-42.56,102.27-58.46v-32.04s94.47-80.11,98.95-82.7l505.82-284.56,316.262-210.539,16.523,319.469Z"/><path class="b" d="M558.163,381.52c0,57.322,40.385,127.272,90.03,155.927,13.435,7.756,26.691,11.853,38.353,11.853,27.724,0,44.942-22.965,44.942-59.938,0-57.322-40.385-127.271-90.029-155.938-13.424-7.756-26.691-11.853-38.342-11.853C575.392,321.571,558.163,344.547,558.163,381.52Z"/><path class="c" d="M536.185,402.755c0,51.72,36.434,114.845,81.236,140.705,12.12,6.993,24.08,10.692,34.6,10.692,25.018,0,40.559-20.722,40.559-54.086,0-51.72-36.445-114.835-81.236-140.705-12.12-6.993-24.09-10.691-34.6-10.691C551.726,348.669,536.185,369.391,536.185,402.755Z"/><path class="d" d="M6.206,837.759c7.632,10.212,14.859,15.84,22.673,17.642C32.993,871.187,47.021,901.13,92.9,882.54c18.174-7.376,33.9-13.857,47.616-19.88-18.91,76.386,62.06,55.376,133.148,22.513a173.307,173.307,0,0,1,20.029-7.728l.011-.011,94.507-33.94c4.7,8.869,12.269,14.476,21.511,11.651,1.194-.4,39.824-12.3,58.307-20.69,30.252-13.719,35.507-12.013,63.328-22.6,27.853-10.585,38.118-19.933,60.034-52.935s60.876-79.605,67.005-87.909,5.564-18.409,1.162-56.74c-2.878-24.911-1.247-34.053,4.989-55.884,4.264-14.934,22.537-30.856,53.993-47.868-14.222-26.986-15.022-56.458-22.814-77.336-30.742-82.372-30.868-113.032-58.982-114.767-2.236-.138-68.221,35.532-135.124,60.432-53.23,19.812-89.473,28.68-177.738,110.527-51.916,48.141-54.886,59.159-146.131,113.458C155.972,615.786,42.193,664.617,36.66,718.917c-.48,4.765-.682,26.457,14.326,32.735C50.987,751.652-21.189,801.08,6.206,837.759Z"/><path class="e" d="M452,823.049c30.252-13.719,35.507-12.013,63.328-22.6,27.853-10.585,38.118-19.933,60.034-52.935s60.876-79.605,67.006-87.909c5.961-8.065,5.589-17.862,1.515-53.649h0c-.064-.6-3.582-43.437.949-67.954,4.637-25.124,7.685-128.2-108.673-172.9,53.415-22.492,98.749-46.806,100.593-46.689,28.109,1.738,28.237,32.394,58.979,114.771,7.792,20.871,8.591,50.345,22.811,77.335-31.456,17.012-49.726,32.927-53.99,47.861-6.236,21.831-7.867,30.976-4.989,55.888.015.13.011.259.018.389l.028.015c4.359,37.993,4.9,48.074-1.208,56.338-6.129,8.3-45.079,54.9-67.005,87.909s-32.181,42.35-60.034,52.935c-27.821,10.585-33.076,8.879-63.328,22.6-17.94,8.144-54.843,19.582-58.1,20.626A41.776,41.776,0,0,1,397.281,842.6C407.472,839.379,436.668,830.01,452,823.049Z"/><path class="e" d="M514.514,610.967c-20.237-89.506-117.928-122.041-206.79-94.258-40.78,12.75-72.693,72.227-53.3,110.3l34.643,56.5c43.073,58.939,89.436,69.824,153.674,52.087l40.684-19.639,25.494-26.922S520.531,637.579,514.514,610.967Z"/><path class="e" d="M464.374,535.022a123.669,123.669,0,0,1,43.65,55.12c-10.14-37.32-24.97-101.25,19.68-161.85C511.334,437.462,481.594,463.462,464.374,535.022Z"/><path class="e" d="M44.294,746.952c3.955-1.783,8.941-4.118,14.427-6.746-11.162-8.034-10.948-26.286-10.509-30.61,1.875-18.489,16.17-36.675,35.111-53-24.451,18.584-44.408,40.224-46.659,62.321C36.264,722.829,36.063,738.118,44.294,746.952Z"/><path class="e" d="M6.212,837.756c7.629,10.208,14.858,15.836,22.674,17.652,4.122,15.776,18.149,45.724,64.026,27.132,17.124-6.946,32.081-13.108,45.213-18.829a88.194,88.194,0,0,1,2.745-18.168c-13.712,6.028-29.44,12.509-47.608,19.879-45.877,18.592-59.9-11.356-64.026-27.132-7.816-1.817-15.045-7.444-22.674-17.652a30.677,30.677,0,0,1-5.246-10.653C-1.2,819.4-.363,828.956,6.212,837.756Z"/><path class="f" d="M22.626,853.05a25.311,25.311,0,0,0,6.26,2.358s-15.88-32.074,57.214-68.19,91.581-33.413,106.339-41.538c13.982-7.7,47.225-33.661,79.646-45.045a4.723,4.723,0,0,0-3.142-8.907c-32.845,11.328-66.773,38.356-80.919,46.295-14.7,8.254-32.821,6.45-105.991,42.438C19.225,811.355,20.269,842.855,22.626,853.05Z"/><path class="f" d="M132.693,866.054c2.684-1.14,5.288-2.281,7.827-3.393,0,0,2.732-26.882,73.032-56.509,66.472-28.013,109.613-46.89,131.91-62.976a4.425,4.425,0,0,0-5.191-7.168c-22.226,16.124-65.439,35.036-132.152,63.15-33.68,14.206-52.374,27.842-62.7,38.209C136.847,845.971,133.48,855.6,132.693,866.054Z"/><path class="f" d="M44.294,746.952a19,19,0,0,0,6.69,4.693S120.1,719.812,152.1,703.739c28.637-14.377,62-35.03,88.274-47.379a4.086,4.086,0,1,0-3.754-7.251c-22.6,12.91-104.786,57.946-125.694,66.533C97.208,721.271,61.289,739.287,44.294,746.952Z"/><path class="g" d="M412.348,854.328c20.219-6.4,42.982-14.112,55.684-19.873,6.995-3.17,12.65-5.524,17.563-7.383.647-12.189-3.021-36.128-43.943-27.677C399.866,808.034,401.869,835.507,412.348,854.328Z"/><path class="h" d="M469.051,834c6.534-2.942,11.875-5.159,16.544-6.929.362-6.758-.608-17.13-8.528-23.589C473.571,808.382,468.433,817.559,469.051,834Z"/><path class="e" d="M273.663,885.172a174.491,174.491,0,0,1,20.029-7.728l.011-.011,94.6-33.971c-4.658-33.62,7.948-59.8,8.161-61.175-10.581,22.025-26.787,35.837-36.637,45.836-23.832,24.149-84.254,39-124.905,53.716-47.485,17.188-90.463,22.127-96.151-10.736C127.873,937.4,205.336,916.767,273.663,885.172Z"/><path class="f" d="M409.934,855.081c-9.636-6.044-17.45-16.927-17.471-27.128-.117-50.878,51.816-93.334,98.067-108.108,8.719.49,28.866,2.281,38.1,8.613-.8-.714-13.985-12.056-28.781-15.062,3.976-9.114,13.921-30.635,23.238-39.994,4.083-4.115-8.922-22.9-9.668-23.931.288.97,4.839,16.469,2.931,19.763-1.972,3.39-17.236,26.254-22.459,33.865s-29.09,15.062-40.751,23.014c-11.011,7.515-57.7,32.778-69.148,85.638C379.247,832.312,391.164,861.053,409.934,855.081Z"/><path class="f" d="M293.692,877.444c1.055-.341,2.121-.672,3.187-.991-1.066.309-2.121.64-3.177.981Z"/><path class="f" d="M409.721,855.145c-.213.064-.426.139-.64.2l.736-.224C409.785,855.134,409.753,855.134,409.721,855.145Z"/><path class="f" d="M392.548,849.762c.128.149.245.3.373.437a2.881,2.881,0,0,0,.245.266C392.953,850.231,392.751,850,392.548,849.762Z"/><path class="i" d="M563.089,351.024a38.9,38.9,0,0,1,13.655-2.356c10.51,0,22.481,3.7,34.6,10.691,44.791,25.871,81.236,88.986,81.236,140.705,0,22.4-7,39.1-19.176,47.659a58.835,58.835,0,0,0,13.143,1.578c27.725,0,44.94-22.971,44.94-59.938,0-57.327-40.389-127.274-90.03-155.937-13.42-7.76-26.691-11.853-38.342-11.853C584.131,321.572,570.061,332.349,563.089,351.024Z"/><path class="j" d="M539.351,363.752q5.916-2.51,11.661-5.031c6.673-6.513,15.392-10.052,25.732-10.052,10.51,0,22.481,3.7,34.6,10.691,44.791,25.871,81.236,88.986,81.236,140.705,0,25.636-9.178,43.81-24.773,50.846a32.58,32.58,0,0,0-3.262,7.472c-.021.064-.043.139-.064.2,20.733-5.756,34.174-26.446,34.174-58.521,0-53.745-37.735-119.088-84.274-145.96C581.669,335.216,553.3,340.365,539.351,363.752Z"/><path class="k" d="M559.61,345.842c14.72-6.07,33.86-3.81,54.76,8.26,46.55,26.87,84.29,92.22,84.29,145.97,0,26.56-9.21,45.3-24.15,54.24v.01l152.05-87.8-140.4-194.07Z"/><path class="l" d="M857.75,465.016l-146.28,84.476v-.011c16.554-9.9,26.755-30.678,26.755-60.12,0-59.554-41.817-131.986-93.409-161.768-23.152-13.378-44.365-15.883-60.684-9.146l273.618-158.7L1118.319,0l20.245,277.452L857.75,465.012"/><path class="m" d="M857.75,465.012l-146.28,84.48v-.01c9.98-5.97,17.66-15.9,22.18-29.31l-59.14,34.15v-.01c14.94-8.94,24.15-27.68,24.15-54.24a127.228,127.228,0,0,0-1.44-18.77l16.125-8.858c-11.451-51.213-47.214-104.406-89.575-128.862-13.69-7.9-26.7-12.01-38.43-12.66l16.08-9.32c.56-.02,1.13-.03,1.7-.03,11.65,0,24.91,4.1,38.34,11.85,42.45,24.518,78.131,79.223,87.578,130.4l128.712-70.7,277.119-177.081,3.695,61.411Z"/><path class="n" d="M557.467,346.792c.73-.359,1.482-.685,2.234-.988l.034-.022L567.973,341c7.778-12.448,19.867-19.429,35.143-19.429,11.651,0,24.918,4.1,38.342,11.853,49.645,28.667,90.029,98.616,90.029,155.938,0,36.973-17.218,59.938-44.942,59.938-1.044,0-2.1-.034-3.165-.112h-.011l-8.867,5.13c-.224.135-.46.269-.7.4,37.4,7.509,64.416-17.487,64.416-65.359,0-59.556-41.81-131.986-93.4-161.763C604.9,304.544,570.824,313.793,557.467,346.792Z"/></svg>