<svg xmlns="http://www.w3.org/2000/svg" viewBox="0 0 792.66 425.283">
  <defs>
    <style>
      .a {
        fill: #19171c;
      }

      .b {
        fill: #313233;
      }

      .aa, .ab, .ac, .ad, .c, .d, .e, .f, .g, .k, .l, .m, .n, .o, .p, .r, .s, .t, .u, .v, .y, .z {
        fill: none;
        stroke-miterlimit: 10;
      }

      .c, .d, .e, .f, .g, .k, .l, .m, .n, .o, .p {
        stroke: #505457;
        stroke-width: 1.595px;
      }

      .d {
        stroke-dasharray: 7.016 3.508;
      }

      .e {
        stroke-dasharray: 7.158 3.579;
      }

      .f {
        stroke-dasharray: 7.239 3.619;
      }

      .g {
        stroke-dasharray: 7.223 3.611;
      }

      .h {
        fill: #fff;
      }

      .i {
        fill: #d7dadb;
      }

      .j {
        fill: #414344;
      }

      .k {
        stroke-dasharray: 7.095 3.547;
      }

      .l {
        stroke-dasharray: 7.11 3.555;
      }

      .m {
        stroke-dasharray: 7.154 3.577;
      }

      .n {
        stroke-dasharray: 7.364 3.682;
      }

      .o {
        stroke-dasharray: 7.446 3.723;
      }

      .p {
        stroke-dasharray: 7.381 3.69;
      }

      .q {
        fill: #c9ced1;
      }

      .aa, .ab, .ac, .ad, .r, .s, .t, .u, .v, .y, .z {
        stroke: #a6aaad;
        stroke-width: 1.494px;
      }

      .s {
        stroke-dasharray: 6.571 3.286;
      }

      .t {
        stroke-dasharray: 6.704 3.352;
      }

      .u {
        stroke-dasharray: 6.78 3.39;
      }

      .v {
        stroke-dasharray: 6.766 3.383;
      }

      .w {
        fill: #f9f9fa;
      }

      .x {
        fill: #e2e4e5;
      }

      .y {
        stroke-dasharray: 6.646 3.323;
      }

      .z {
        stroke-dasharray: 6.659 3.33;
      }

      .aa {
        stroke-dasharray: 6.701 3.35;
      }

      .ab {
        stroke-dasharray: 6.898 3.449;
      }

      .ac {
        stroke-dasharray: 6.975 3.487;
      }

      .ad {
        stroke-dasharray: 6.913 3.457;
      }

      .ae {
        fill: #ed1c24;
      }

      .af {
        fill: #333;
      }

      .ag {
        fill: #d62229;
      }

      .ah {
        fill: #ebebeb;
      }
    </style>
  </defs>
  <title>hats</title>
  <g>
    <path class="a" d="M397.853,14.845C403.09,3.083,392.379,1.454,382.829.639c-10.193-.869-19.213-2.8-18.283,10.132.2,2.756,6.772,9.315,16.421,9.315S396.732,17.371,397.853,14.845Z" transform="translate(0 0)"/>
    <path class="b" d="M395.124,11.337c3.786-7.442-3.956-8.474-10.852-8.992C376.9,1.8,370.379.577,371.052,8.757c.135,1.743,4.894,5.9,11.866,5.9S394.311,12.935,395.124,11.337Z" transform="translate(0 0)"/>
    <path class="a" d="M4.015,331.822c0,4.657,8.62,13.041,10.482,13.742s4.192,7.685,36.335-13.277,57.525-35.867,70.1-50.537-26.782-4.66-37.259-3.263-64.048,24.226-69.407,31.443S4.015,331.822,4.015,331.822Z" transform="translate(0 0)"/>
    <path class="b" d="M154.235,198.372c-28.038,10.717-9.047,20.815-29.338,34.467-8.364,5.627-67.088,43.775-87.11,54.965C6.115,305.5,1.691,320.876.524,326c-.724,3.212-.932,6.985.935,9.781s11.176,9.783,13.038,9.783-6.752-10.947,2.329-21.426C28.054,311.185,48.5,293.159,79.713,291.3c27.93-1.666,53.942,3.039,149.988,40.293,76.854,29.81,122.966,14.9,142.535,8.85s101.545-47.046,114.58-92.23S227.369,170.423,154.235,198.372Z" transform="translate(0 0)"/>
    <path class="a" d="M285.426,189.338a11.12,11.12,0,0,1,.171,6.7c-13.044,45.184-95.027,86.174-114.589,92.23-8.642,2.674-22.469,7.07-41.833,8.578,22,5.627,52.51,16.116,100.526,34.742,76.854,29.81,122.966,14.9,142.535,8.85s101.545-47.046,114.58-92.23C495.242,219.034,384.577,195.1,285.426,189.338Z" transform="translate(0 0)"/>
    <g>
      <path class="c" d="M68.531,270.686q1.577-.717,3.263-1.4" transform="translate(0 0)"/>
      <path class="d" d="M75.067,268.07c21.217-7.32,56.942-8.23,143.452,25.324,76.854,29.813,122.974,14.9,142.535,8.85,17.8-5.512,39.463-18.351,54.449-29.393" transform="translate(0 0)"/>
      <path class="c" d="M416.923,271.8q1.459-1.1,2.821-2.159" transform="translate(0 0)"/>
    </g>
    <g>
      <path class="c" d="M75.054,265.795a33.642,33.642,0,0,1,3.214-1.5" transform="translate(0 0)"/>
      <path class="e" d="M81.619,263.075c16.666-5.413,56.79-9.651,134.423,19.45,77.187,28.938,122.809,14.359,142.527,8.85,13.073-3.649,27.8-12.521,41.527-22.808" transform="translate(0 0)"/>
      <path class="c" d="M401.558,267.462q1.418-1.078,2.819-2.174" transform="translate(0 0)"/>
    </g>
    <g>
      <path class="c" d="M86,258.925a19.411,19.411,0,0,1,3.323-1.241" transform="translate(0 0)"/>
      <path class="f" d="M92.815,256.805c17.53-3.815,61.837-6.12,113.752,13.764,76.981,29.487,120.79,17.619,140.517,12.11,13.025-3.637,24.35-10.192,37.386-19.99" transform="translate(0 0)"/>
      <path class="c" d="M385.944,261.573q1.4-1.066,2.824-2.181" transform="translate(0 0)"/>
    </g>
    <g>
      <path class="c" d="M92.635,254.616a26.457,26.457,0,0,1,3.271-1.368" transform="translate(0 0)"/>
      <path class="g" d="M99.339,252.17c15.464-4.338,51.489-8.42,99.848,8.384C279.846,288.582,318.969,279.5,338.7,273.986c12.973-3.624,19.936-6.691,32.032-15.726" transform="translate(0 0)"/>
      <path class="c" d="M372.21,257.142q1.364-1.037,2.82-2.175" transform="translate(0 0)"/>
    </g>
    <path class="h" d="M373.163,327.4c-19.561,6.056-65.681,20.96-142.53-8.85-96.048-37.253-122.058-41.959-149.993-40.292-31.208,1.862-58.379,23.214-67.072,33.149-9.134,10.437-9.936,17.7-8.228,27.172.092.512,7.3,6.988,9.158,6.988s-2.791-15.256,2.329-21.426C29.181,309.258,48.5,293.159,79.713,291.3c27.93-1.666,53.942,3.039,149.988,40.293,76.854,29.81,122.966,14.9,142.535,8.85s101.545-47.046,114.58-92.23a11.36,11.36,0,0,0-.741-8.219C468.906,283.234,392.03,321.56,373.163,327.4Z" transform="translate(0 0)"/>
    <path class="i" d="M373.163,327.4c-19.561,6.056-65.681,20.96-142.53-8.85,11.641,9.317,3.724,10.715-.932,13.044,76.854,29.81,122.966,14.9,142.535,8.85s101.545-47.046,114.58-92.23a11.36,11.36,0,0,0-.741-8.219C468.906,283.234,392.03,321.56,373.163,327.4Z" transform="translate(0 0)"/>
    <path class="b" d="M372.852,336.094c-19.562,6.055-65.675,20.96-142.53-8.85-96.051-37.253-122.058-41.958-149.988-40.292-31.214,1.862-54.188,18.243-63.659,32.062A31.347,31.347,0,0,0,11.5,344.146a8.5,8.5,0,0,0,2.994,1.417c1.859,0-2.735-9.854,3.61-20.614,8.385-14.2,30.392-31.791,61.606-33.652,27.93-1.666,53.942,3.039,149.988,40.293,76.854,29.81,122.966,14.9,142.535,8.85s101.545-47.046,114.58-92.23a10.888,10.888,0,0,0,.4-3.69C473.581,289.442,392.325,330.068,372.852,336.094Z" transform="translate(0 0)"/>
    <path class="j" d="M574.547,176.79c3.724,37.889-.621,117.383-6.212,137.256-98.127-14.288-388.166-152.164-437.855-85.089-1.862-4.346,8.077-32.294,17.237-85.082C158.146,83.759,241.256,12.049,357.8,12.049S567.838,108.521,574.547,176.79Z" transform="translate(0 0)"/>
    <path class="b" d="M574.547,176.79c3.724,37.889-.621,117.383-6.212,137.256C470.209,299.758,328.914,226.475,197.1,211.025c2.329-7.919,14.751-43.8,32.14-94.48C249.262,58.164,284.2,11.586,357.8,12.049,474.327,12.788,567.838,108.521,574.547,176.79Z" transform="translate(0 0)"/>
    <path class="a" d="M574.547,176.79c3.724,37.889-.621,117.383-6.212,137.256-59-9.94-217.682-68.476-246.874-76.548,2.329-7.919,123.062-53.907,127.629-107.291C455.3,57.543,435.425,19.661,357.8,12.049,474.327,12.788,567.838,108.521,574.547,176.79Z" transform="translate(0 0)"/>
    <path class="b" d="M432.318,274.452c2.332-7.919,15.935-90.86,20.5-144.244,6.175-72.2-13.438-110.049-89.836-117.993-1.732-.052-3.448-.153-5.183-.165,77.63,7.612,97.5,45.494,91.295,118.158-4.567,53.384-17.818,136.286-20.145,144.2,28.063,9.2,80.386,29.694,139.39,39.634.057-.2.108-.442.165-.651C511.029,303.149,460.889,283.455,432.318,274.452Z" transform="translate(0 0)"/>
    <ellipse class="a" cx="358.258" cy="46.752" rx="5.279" ry="1.787"/>
    <path class="a" d="M492.515,87.881c-.511.476-2.54-.874-4.521-3.005s-3.181-4.252-2.673-4.725,2.532.874,4.516,3S493.018,87.409,492.515,87.881Z" transform="translate(0 0)"/>
    <g>
      <path class="c" d="M569.267,307.057q-1.713-.249-3.5-.549" transform="translate(0 0)"/>
      <path class="k" d="M562.278,305.894C460.34,287.026,192.013,162.046,134.914,217.957" transform="translate(0 0)"/>
      <path class="c" d="M133.673,219.237a33.329,33.329,0,0,0-2.258,2.732" transform="translate(0 0)"/>
    </g>
    <g>
      <path class="c" d="M188.046,210.117c.247-.838.6-1.97,1.057-3.386" transform="translate(0 0)"/>
      <path class="l" d="M190.2,203.363c4.628-14,15.212-44.534,29.48-86.119C239.222,60.3,272.935,14.587,342.873,12.8" transform="translate(0 0)"/>
      <path class="c" d="M344.677,12.763q1.767-.026,3.566-.015" transform="translate(0 0)"/>
    </g>
    <g>
      <path class="c" d="M206.489,211.723c.244-.828.6-1.961,1.056-3.385" transform="translate(0 0)"/>
      <path class="m" d="M208.652,204.948c4.728-14.332,15.666-46.008,29.972-87.7C258.161,60.306,291.874,14.592,361.807,12.8" transform="translate(0 0)"/>
      <path class="c" d="M363.622,12.763q1.767-.026,3.566-.015" transform="translate(0 0)"/>
    </g>
    <g>
      <path class="c" d="M418.969,268.4c.2-.683.486-1.911.842-3.618" transform="translate(0 0)"/>
      <path class="n" d="M420.531,261.186c4.378-22.576,15.141-89.058,19.709-135,7.188-72.24-24.269-103-57.738-111.276" transform="translate(0 0)"/>
      <path class="c" d="M380.693,14.483q-1.819-.405-3.641-.724" transform="translate(0 0)"/>
    </g>
    <g>
      <path class="c" d="M441.016,276.471c.2-.692.483-1.92.828-3.622" transform="translate(0 0)"/>
      <path class="o" d="M442.546,269.211c4.127-22.2,13.852-86.452,18.429-132.262,7.237-72.38-17.29-108.982-55.78-118.335" transform="translate(0 0)"/>
      <path class="c" d="M403.36,18.191q-1.8-.393-3.642-.709" transform="translate(0 0)"/>
    </g>
    <g>
      <path class="c" d="M416.8,20.278q1.786.543,3.558,1.111" transform="translate(0 0)"/>
      <path class="p" d="M423.861,22.539c78.053,26.245,134.852,87.5,141.369,153.786,3.451,35.06-.019,105.734-4.981,131.845" transform="translate(0 0)"/>
      <path class="c" d="M559.889,309.974c-.286,1.357-.575,2.564-.868,3.608" transform="translate(0 0)"/>
    </g>
    <path class="a" d="M358.411,40.541c-6.818,0-12.341,2.815-12.341,6.286s5.523,6.291,12.341,6.291,12.346-2.818,12.346-6.291S365.223,40.541,358.411,40.541Zm0,8.074c-2.913,0-5.28-.8-5.28-1.789s2.367-1.785,5.28-1.785,5.286.8,5.286,1.785S361.325,48.616,358.411,48.616Z" transform="translate(0 0)"/>
    <g>
      <path class="b" d="M359.233,49.547c2.913,0,5.277-.8,5.277-1.785,0-.328-.281-.631-.735-.9a.523.523,0,0,1,.036.121c0,.984-2.362,1.785-5.28,1.785a9.877,9.877,0,0,1-4.545-.891C354.166,48.808,356.436,49.547,359.233,49.547Z" transform="translate(0 0)"/>
      <path class="b" d="M346.889,47.762c0-3.472,5.523-6.291,12.344-6.291,4.718,0,8.763,1.364,10.847,3.345-1.743-2.4-6.237-4.117-11.549-4.117-6.812,0-12.341,2.814-12.341,6.287a4.166,4.166,0,0,0,1.5,2.943A3.716,3.716,0,0,1,346.889,47.762Z" transform="translate(0 0)"/>
    </g>
    <path class="b" d="M492.153,81c-4.645-4.994-9.863-7.688-11.647-6.025s.527,7.062,5.172,12.051,9.863,7.687,11.647,6.023S496.8,85.991,492.153,81Zm.362,6.877c-.511.476-2.54-.874-4.521-3.005s-3.181-4.252-2.673-4.725,2.532.874,4.516,3S493.018,87.409,492.515,87.881Z" transform="translate(0 0)"/>
    <g>
      <path class="a" d="M489.313,86.254a1.151,1.151,0,0,0,.079.093c1.986,2.133,4.013,3.48,4.515,3.008s-.684-2.589-2.67-4.725c-.211-.22-.413-.4-.624-.6,1.938,2.1,3.1,4.165,2.6,4.629C492.759,89.078,491.078,88.005,489.313,86.254Z" transform="translate(0 0)"/>
      <path class="a" d="M481.9,76.453c1.562-1.454,5.75.428,9.888,4.262-4.353-4.283-8.936-6.494-10.587-4.96-1.789,1.664.527,7.062,5.172,12.051.232.246.47.46.694.7C482.431,83.513,480.118,78.118,481.9,76.453Z" transform="translate(0 0)"/>
    </g>
    <path class="a" d="M574.418,177.189c-.038-.4-.124-.817-.162-1.219,3.659,38.031-.681,117.071-6.248,136.879-98.126-14.286-388.171-152.164-437.855-85.09v0a4.531,4.531,0,0,0,.2,1.6c49.689-67.075,339.729,70.8,437.855,85.09C573.8,294.571,578.141,215.079,574.418,177.189Z" transform="translate(0 0)"/>
  </g>
  <g>
    <path class="q" d="M625.855,111.766c4.9-11.017-5.129-12.542-14.073-13.306-9.547-.813-18-2.619-17.124,9.49.189,2.582,6.342,8.725,15.381,8.725S624.8,114.134,625.855,111.766Z" transform="translate(0 0)"/>
    <path class="i" d="M623.3,108.482c3.545-6.97-3.7-7.938-10.166-8.423-6.907-.514-13.011-1.656-12.382,6.006.127,1.632,4.583,5.522,11.114,5.522S622.537,109.979,623.3,108.482Z" transform="translate(0 0)"/>
    <path class="q" d="M256.959,408.67c0,4.363,8.074,12.215,9.817,12.872s3.927,7.2,34.035-12.437,53.883-33.594,65.659-47.336-25.085-4.365-34.9-3.056S271.579,381.4,266.56,388.164,256.959,408.67,256.959,408.67Z" transform="translate(0 0)"/>
    <path class="i" d="M397.665,283.671c-26.263,10.039-8.472,19.5-27.479,32.285-7.834,5.271-62.84,41-81.594,51.483-29.665,16.581-33.81,30.979-34.9,35.778-.678,3.009-.873,6.543.876,9.162s10.468,9.164,12.211,9.164-6.323-10.254,2.184-20.07c10.517-12.132,29.665-29.016,58.9-30.759,26.16-1.561,50.526,2.845,140.489,37.74,71.988,27.923,115.177,13.961,133.507,8.289s95.116-44.067,107.325-86.389S466.169,257.493,397.665,283.671Z" transform="translate(0 0)"/>
    <path class="q" d="M520.549,275.21a10.41,10.41,0,0,1,.159,6.278C508.492,323.812,431.7,362.2,413.375,367.878a167.835,167.835,0,0,1-39.182,8.035c20.6,5.271,49.183,15.094,94.16,32.54,71.988,27.923,115.177,13.961,133.507,8.289s95.116-44.067,107.325-86.389C717.078,303.026,613.42,280.608,520.549,275.21Z" transform="translate(0 0)"/>
    <g>
      <path class="r" d="M317.389,351.407q1.474-.67,3.049-1.305" transform="translate(0 0)"/>
      <path class="s" d="M323.5,348.958c19.873-6.86,53.334-7.716,134.375,23.718,71.988,27.925,115.186,13.961,133.507,8.291,16.668-5.162,36.949-17.181,50.986-27.52" transform="translate(0 0)"/>
      <path class="r" d="M643.718,352.446q1.367-1.026,2.642-2.022" transform="translate(0 0)"/>
    </g>
    <g>
      <path class="r" d="M323.5,346.825a31.466,31.466,0,0,1,3.005-1.4" transform="translate(0 0)"/>
      <path class="t" d="M329.642,344.279c15.607-5.072,53.191-9.045,125.916,18.216,72.3,27.105,115.032,13.45,133.5,8.29,12.242-3.418,26.034-11.726,38.891-21.36" transform="translate(0 0)"/>
      <path class="r" d="M629.325,348.386q1.328-1.01,2.64-2.036" transform="translate(0 0)"/>
    </g>
    <g>
      <path class="r" d="M333.751,340.39a18.15,18.15,0,0,1,3.112-1.163" transform="translate(0 0)"/>
      <path class="u" d="M340.136,338.4c16.42-3.573,57.92-5.732,106.547,12.893,72.107,27.619,113.14,16.5,131.618,11.344,12.2-3.408,22.806-9.548,35.018-18.726" transform="translate(0 0)"/>
      <path class="r" d="M614.7,342.87q1.309-1,2.645-2.042" transform="translate(0 0)"/>
    </g>
    <g>
      <path class="r" d="M339.966,336.354a24.805,24.805,0,0,1,3.064-1.282" transform="translate(0 0)"/>
      <path class="v" d="M346.245,334.062c14.485-4.063,48.23-7.886,93.526,7.854,75.552,26.252,112.2,17.743,130.672,12.58,12.152-3.394,18.674-6.267,30-14.731" transform="translate(0 0)"/>
      <path class="r" d="M601.837,338.719q1.277-.971,2.642-2.037" transform="translate(0 0)"/>
    </g>
    <path class="b" d="M602.73,404.526c-18.324,5.672-61.522,19.632-133.5-8.289C379.26,361.343,354.9,356.934,328.731,358.5c-29.23,1.745-54.682,21.744-62.824,31.049-8.555,9.777-9.307,16.58-7.707,25.453.087.479,6.834,6.545,8.577,6.545s-2.613-14.289,2.184-20.07c11.571-13.937,29.665-29.016,58.9-30.759,26.16-1.561,50.526,2.845,140.489,37.74,71.988,27.923,115.177,13.961,133.507,8.289s95.116-44.067,107.325-86.389a10.652,10.652,0,0,0-.692-7.7C692.409,363.16,620.4,399.058,602.73,404.526Z" transform="translate(0 0)"/>
    <path class="a" d="M602.73,404.526c-18.324,5.672-61.522,19.632-133.5-8.289,10.9,8.727,3.489,10.035-.873,12.216,71.988,27.923,115.177,13.961,133.507,8.289s95.116-44.067,107.325-86.389a10.652,10.652,0,0,0-.692-7.7C692.409,363.16,620.4,399.058,602.73,404.526Z" transform="translate(0 0)"/>
    <path class="i" d="M602.438,412.672c-18.321,5.672-61.516,19.633-133.5-8.289-89.968-34.894-114.326-39.3-140.489-37.741-29.236,1.744-50.756,17.088-59.628,30.033a29.366,29.366,0,0,0-4.845,23.541,7.993,7.993,0,0,0,2.8,1.327c1.743,0-2.562-9.229,3.383-19.309,7.853-13.3,28.465-29.777,57.7-31.52,26.16-1.561,50.526,2.845,140.489,37.74,71.988,27.923,115.177,13.961,133.507,8.289s95.116-44.067,107.325-86.389a10.2,10.2,0,0,0,.378-3.456C696.79,368.975,620.678,407.027,602.438,412.672Z" transform="translate(0 0)"/>
    <path class="w" d="M791.359,263.457c3.489,35.49-.58,109.949-5.818,128.563-91.914-13.383-363.584-142.528-410.127-79.7-1.743-4.072,7.566-30.25,16.146-79.694,9.769-56.31,87.615-123.477,196.774-123.477S785.077,199.511,791.359,263.457Z" transform="translate(0 0)"/>
    <path class="x" d="M791.359,263.457c3.489,35.49-.58,109.949-5.818,128.563-91.914-13.383-224.259-82.025-347.729-96.5,2.181-7.418,13.816-41.024,30.106-88.5,18.756-54.683,51.48-98.312,120.417-97.878C697.486,109.841,785.077,199.511,791.359,263.457Z" transform="translate(0 0)"/>
    <path class="q" d="M791.359,263.457c3.489,35.49-.58,109.949-5.818,128.563-55.266-9.311-203.9-64.139-231.242-71.7,2.184-7.417,115.27-50.492,119.547-100.5,5.815-68.063-12.8-103.544-85.512-110.676C697.486,109.841,785.077,199.511,791.359,263.457Z" transform="translate(0 0)"/>
    <path class="i" d="M658.137,354.933c2.186-7.418,14.927-85.106,19.2-135.109,5.783-67.626-12.587-103.08-84.145-110.522-1.624-.047-3.232-.142-4.856-.154,72.715,7.131,91.328,42.613,85.512,110.676-4.277,50-16.689,127.655-18.867,135.073,26.285,8.616,75.3,27.813,130.561,37.123.054-.188.1-.413.154-.609C731.864,381.814,684.9,363.367,658.137,354.933Z" transform="translate(0 0)"/>
    <ellipse class="a" cx="588.768" cy="141.654" rx="4.944" ry="1.674"/>
    <path class="a" d="M714.524,180.178c-.478.446-2.381-.819-4.234-2.814s-2.981-3.984-2.505-4.427,2.373.819,4.229,2.814S714.994,179.736,714.524,180.178Z" transform="translate(0 0)"/>
    <g>
      <path class="r" d="M786.414,385.474q-1.6-.234-3.282-.514" transform="translate(0 0)"/>
      <path class="y" d="M779.868,384.385c-95.482-17.673-346.817-134.738-400.3-82.368" transform="translate(0 0)"/>
      <path class="r" d="M378.406,303.215a31.218,31.218,0,0,0-2.115,2.558" transform="translate(0 0)"/>
    </g>
    <g>
      <path class="r" d="M429.335,294.673c.231-.785.562-1.845.989-3.171" transform="translate(0 0)"/>
      <path class="z" d="M431.356,288.347c4.335-13.111,14.249-41.714,27.615-80.666,18.3-53.335,49.879-96.156,115.387-97.829" transform="translate(0 0)"/>
      <path class="r" d="M576.047,109.818q1.656-.024,3.34-.014" transform="translate(0 0)"/>
    </g>
    <g>
      <path class="r" d="M446.611,296.177c.228-.776.56-1.838.989-3.172" transform="translate(0 0)"/>
      <path class="aa" d="M448.636,289.83c4.428-13.424,14.674-43.094,28.074-82.149,18.3-53.332,49.878-96.151,115.382-97.829" transform="translate(0 0)"/>
      <path class="r" d="M593.793,109.818q1.656-.024,3.34-.014" transform="translate(0 0)"/>
    </g>
    <g>
      <path class="r" d="M645.634,349.262c.188-.64.455-1.79.789-3.389" transform="translate(0 0)"/>
      <path class="ab" d="M647.1,342.509c4.1-21.147,14.182-83.417,18.462-126.453,6.731-67.665-22.732-96.481-54.081-104.23" transform="translate(0 0)"/>
      <path class="r" d="M609.783,111.428q-1.7-.379-3.41-.679" transform="translate(0 0)"/>
    </g>
    <g>
      <path class="r" d="M666.287,356.826c.19-.647.452-1.8.774-3.385" transform="translate(0 0)"/>
      <path class="ac" d="M667.718,350.032c3.864-20.79,12.976-80.98,17.263-123.894,6.777-67.791-16.193-102.075-52.242-110.839" transform="translate(0 0)"/>
      <path class="r" d="M631.013,114.9q-1.687-.368-3.411-.664" transform="translate(0 0)"/>
    </g>
    <g>
      <path class="r" d="M643.6,116.856q1.673.509,3.333,1.041" transform="translate(0 0)"/>
      <path class="ad" d="M650.216,118.975c73.11,24.582,126.313,81.957,132.418,144.047,3.231,32.839-.019,99.037-4.667,123.494" transform="translate(0 0)"/>
      <path class="r" d="M777.63,388.206c-.267,1.271-.539,2.4-.813,3.379" transform="translate(0 0)"/>
    </g>
    <path class="q" d="M588.91,135.837c-6.385,0-11.557,2.636-11.557,5.887s5.172,5.892,11.557,5.892,11.566-2.639,11.566-5.892S595.293,135.837,588.91,135.837Zm0,7.562c-2.726,0-4.945-.75-4.945-1.675s2.219-1.671,4.945-1.671,4.953.75,4.953,1.671S591.64,143.4,588.91,143.4Z" transform="translate(0 0)"/>
    <g>
      <path class="i" d="M589.681,144.272c2.729,0,4.942-.751,4.942-1.673,0-.307-.262-.591-.686-.841a.5.5,0,0,1,.033.115c0,.922-2.213,1.671-4.945,1.671a9.263,9.263,0,0,1-4.259-.834C584.936,143.579,587.062,144.272,589.681,144.272Z" transform="translate(0 0)"/>
      <path class="i" d="M578.118,142.6c0-3.252,5.175-5.892,11.563-5.892,4.421,0,8.209,1.278,10.16,3.133-1.632-2.244-5.842-3.856-10.817-3.856-6.383,0-11.56,2.637-11.56,5.889a3.9,3.9,0,0,0,1.4,2.756A3.474,3.474,0,0,1,578.118,142.6Z" transform="translate(0 0)"/>
    </g>
    <path class="i" d="M714.184,173.736c-4.351-4.678-9.239-7.2-10.909-5.642s.495,6.615,4.846,11.287,9.239,7.2,10.909,5.642S718.534,178.408,714.184,173.736Zm.341,6.442c-.478.446-2.381-.819-4.234-2.814s-2.981-3.984-2.505-4.427,2.373.819,4.229,2.814S714.994,179.736,714.524,180.178Z" transform="translate(0 0)"/>
    <g>
      <path class="q" d="M711.525,178.654c.024.032.046.058.073.088,1.86,2,3.759,3.26,4.229,2.817s-.64-2.425-2.5-4.426c-.2-.206-.389-.37-.586-.563,1.816,1.968,2.9,3.9,2.432,4.335C714.751,181.3,713.176,180.294,711.525,178.654Z" transform="translate(0 0)"/>
      <path class="q" d="M704.583,169.474c1.464-1.362,5.388.4,9.263,3.991-4.078-4.012-8.372-6.083-9.917-4.646-1.675,1.559.492,6.615,4.845,11.287.217.231.441.432.649.655C705.077,176.087,702.91,171.034,704.583,169.474Z" transform="translate(0 0)"/>
    </g>
    <path class="q" d="M791.238,263.83c-.035-.376-.116-.766-.151-1.142,3.426,35.623-.638,109.657-5.853,128.212-91.911-13.382-363.586-142.529-410.124-79.7v0a4.266,4.266,0,0,0,.184,1.5c46.543-62.827,318.216,66.317,410.127,79.7C790.657,373.779,794.727,299.321,791.238,263.83Z" transform="translate(0 0)"/>
  </g>
  <g>
    <polygon class="ae" points="508.886 233.67 501.963 225.066 483.726 239.166 471.448 222.505 461.985 229.529 474.026 246.665 454.506 261.758 460.817 271.664 480.603 256.025 494.219 275.402 504.292 267.072 490.427 248.259 508.886 233.67"/>
    <path class="af" d="M431.172,268.362c-13.148-1.471-20.081-14.044-15.837-27.4,4.034-12.7,16.876-21.76,28.951-20.747a18.729,18.729,0,0,1,14.151,7.9l-9.674,7.136a9.7,9.7,0,0,0-7.407-4.283c-6.426-.579-13.2,4.3-15.2,11.042-2.048,6.918,1.672,13.253,8.39,13.956a13.8,13.8,0,0,0,9.672-2.931l5.96,9.512C444.4,267,437.613,269.083,431.172,268.362Z" transform="translate(0 0)"/>
  </g>
  <g>
    <polygon class="ag" points="266.538 151.255 259.615 142.652 241.378 156.752 229.1 140.091 219.638 147.115 231.679 164.251 212.158 179.344 218.469 189.25 238.255 173.61 251.871 192.988 261.944 184.658 248.079 165.845 266.538 151.255"/>
    <path class="ah" d="M188.824,185.948c-13.148-1.471-20.081-14.044-15.837-27.4,4.034-12.7,16.876-21.76,28.951-20.747a18.729,18.729,0,0,1,14.151,7.9l-9.674,7.136a9.7,9.7,0,0,0-7.407-4.283c-6.426-.579-13.2,4.3-15.2,11.042-2.048,6.918,1.672,13.253,8.39,13.956a13.8,13.8,0,0,0,9.672-2.931l5.96,9.512C202.05,184.59,195.265,186.669,188.824,185.948Z" transform="translate(0 0)"/>
  </g>
</svg>
