<svg xmlns="http://www.w3.org/2000/svg" xmlns:xlink="http://www.w3.org/1999/xlink" viewBox="0 0 148.652 103.453"><defs><style>.a{fill:none;}.b{fill:#bd2329;}.c{fill:#d61e25;}.d{fill:#e02930;}.e{fill:#f0cbb0;}.f{fill:#fcf1e8;}.g{fill:#742019;}.h{fill:#f0b0b2;}.i{clip-path:url(#a);}.j{fill:#f7e0d9;}.k{fill:#ffedec;}.l{fill:#f6e8dd;}.m{fill:#c9a8a1;}.n{clip-path:url(#b);}</style><clipPath id="a" transform="translate(0 -1.318)"><path class="a" d="M42.251.993c14.836-3.28,28.7,2.361,29.363,5.381l1.7,7.672c.668,3.02-10.815,8.128-25.651,11.408s-27.4,3.49-28.071.47l-1.7-7.672C17.225,15.232,27.416,4.273,42.251.993Z"/></clipPath><clipPath id="b" transform="translate(0 -1.318)"><path class="a" d="M102.837,13.875c-15.032-2.217-28.455,4.4-28.906,7.456L72.785,29.1c-.451,3.06,11.366,7.338,26.4,9.555s27.582,1.532,28.034-1.528l1.146-7.773C128.813,26.3,117.868,16.092,102.837,13.875Z"/></clipPath></defs><title>hot-chocolate</title><path class="b" d="M16.5,28.253c.165,4.3-2.476,5.92-4.16,7.2S-5.771,42.539,2.144,61.462s27.264,14.392,28.4,14.094,6.258.3,7.56,3S36.587,61.3,32.995,64.086s-1.811,5.4-3.593,5.425S14.169,73.6,8.369,58.436,13.53,41.6,14.9,41.783s5.124.128,6.36,2.488S22.915,24.1,16.5,28.253Z" transform="translate(0 -1.318)"/><path class="c" d="M36.63,73.429c-.552-3.175-1.6-7.3-2.573-8.715a4.257,4.257,0,0,0-1.381,2.637,3.154,3.154,0,0,1-1.583,2.492,2.925,2.925,0,0,1-1.235.28c-.148.008-.4.052-.734.1C18.266,71.9,10.85,67.738,7.074,57.861c-4.722-12.354,1.119-16.773,3.849-18.1a9.524,9.524,0,0,1,4.643-1.041c.173.022.389.04.634.064a13.351,13.351,0,0,1,4.436.95c.077-3.79-.677-9.867-1.92-11.165-.423,3.835-2.9,5.686-4.461,6.845l-.372.278a10.413,10.413,0,0,1-1.341.786c-4,2.139-14.632,7.821-8.266,23.039,7.4,17.7,25.468,13.222,26.233,13.021A11.613,11.613,0,0,1,36.63,73.429Z" transform="translate(0 -1.318)"/><path class="b" d="M15.892,27.7,77.415,14.1c3.292,16.2,1.428,57.238,1.911,59.422.918,4.153-7.319,9.506-18.4,11.955s-20.8,1.068-21.72-3.085C38.727,80.208,19.736,43.782,15.892,27.7Z" transform="translate(0 -1.318)"/><path class="c" d="M79.242,70.543a13.535,13.535,0,0,1-7.486,4.88c-13.106,2.9-28.737-17.4-34.914-45.334-.5-2.27-.918-4.518-1.267-6.738L77.415,14.1C80.253,28.065,79.261,60.459,79.242,70.543Z" transform="translate(0 -1.318)"/><path class="d" d="M78.145,37.209C77.924,54.126,75.1,65.79,70.364,66.135,63.975,66.6,56.351,46.285,52.539,19.6L75.81,14.456C76.954,20.008,77.673,28.439,78.145,37.209Z" transform="translate(0 -1.318)"/><path class="e" d="M42.309,61.618c-1.448-1.3-2.277-1.161-1.835-1.388a3.537,3.537,0,0,1,3.463.256c1.436-.976,3.522-2.338,6.514-4.642a66.2,66.2,0,0,1-8.624-3.26c-1.051,1.038-2.894.387-3.481.111-.6-.286.354-.028,1.152-1.267-2.1-1.131-2.452-1.584-2.348-1.825s.643-.216,2.891.555c.355-1.456-.459-2.016.151-1.763.592.247,2.3,1.133,2.292,2.617,2.077.73,4.951,1.741,8.76,2.777-.762-3.439-1.251-5.913-1.541-7.687a2.767,2.767,0,0,1-2.531-2.119c-.122-.514.315.233,2.248.044-.188-1.9.052-2.322.4-2.4s.747.209,1.377,2.006c1.833-.643,1.914-1.5,2.02-.987a2.764,2.764,0,0,1-1.4,2.989c.488,1.73,1.086,4.178,1.845,7.618,3.016-2.545,5.2-4.672,6.772-6.208-.633-1.341.543-2.867.974-3.339s-.055.362.879,1.532c1.715-1.647,2.19-1.895,2.388-1.722s.073.732-1.358,2.645c1.247.787,2,.152,1.579.666s-1.815,1.863-3.205,1.365a66.287,66.287,0,0,1-6.446,6.592c3.683.827,6.15,1.183,7.864,1.463a3.537,3.537,0,0,1,3.031-1.692c.5.019-.31.245-1.077,2.03,1.731.343,1.962.641,1.857.978s-.525.654-2.4.71c-.384,1.8.279,2.1-.223,2.048a1.978,1.978,0,0,1-1.845-2.094,46.546,46.546,0,0,1-8-1.294c.726,3.449,1.194,5.927,1.475,7.708a2.461,2.461,0,0,1,2.279,2.019c.107.518-.261-.147-2,.064.2,1.9,0,2.328-.311,2.4s-.667-.235-1.289-2.042c-1.663.539-1.717,1.3-1.839.784a2.464,2.464,0,0,1,1.217-2.791c-.493-1.734-1.116-4.181-1.913-7.614a46.51,46.51,0,0,1-6.709,4.547,1.975,1.975,0,0,1-.79,2.675c-.434.258.041-.3-1.066-1.763-1.724.74-2.24.629-2.478.369S40.885,62.66,42.309,61.618Z" transform="translate(0 -1.318)"/><path class="f" d="M45.294,54.06c-.419-.815-.831-1.645-1.234-2.5,1.886.65,4.257,1.431,7.186,2.228-.762-3.439-1.251-5.913-1.541-7.687a2.767,2.767,0,0,1-2.531-2.119c-.122-.514.315.233,2.248.044-.188-1.9.052-2.322.4-2.4s.747.209,1.377,2.006c1.833-.643,1.914-1.5,2.02-.987a2.764,2.764,0,0,1-1.4,2.989c.488,1.73,1.086,4.178,1.845,7.618,3.016-2.545,5.2-4.672,6.772-6.208-.633-1.341.543-2.867.974-3.339s-.055.362.879,1.532c1.715-1.647,2.19-1.895,2.388-1.722s.073.732-1.358,2.645c1.247.787,2,.152,1.579.666s-1.815,1.863-3.205,1.365a66.287,66.287,0,0,1-6.446,6.592c3.683.827,6.15,1.183,7.864,1.463a3.537,3.537,0,0,1,3.031-1.692c.5.019-.31.245-1.077,2.03,1.731.343,1.962.641,1.857.978s-.525.654-2.4.71c-.384,1.8.279,2.1-.223,2.048a1.978,1.978,0,0,1-1.845-2.094,46.546,46.546,0,0,1-8-1.294c.726,3.449,1.194,5.927,1.475,7.708a2.461,2.461,0,0,1,2.279,2.019c.107.518-.261-.147-2,.064.188,1.808.016,2.278-.267,2.379-.3-.29-.6-.584-.893-.891-.131-.289-.276-.655-.44-1.134-.175.057-.322.116-.461.175-.375-.411-.745-.84-1.113-1.278a2.274,2.274,0,0,1,.952-.9c-.493-1.734-1.116-4.181-1.913-7.614-1.284,1.019-2.408,1.835-3.406,2.514q-.6-.942-1.185-1.928c.874-.623,1.857-1.346,2.964-2.2C48.474,55.243,46.767,54.636,45.294,54.06Z" transform="translate(0 -1.318)"/><ellipse class="c" cx="46.654" cy="20.903" rx="31.504" ry="7.491" transform="translate(-3.412 9.247) rotate(-12.467)"/><ellipse class="g" cx="46.45" cy="19.985" rx="27.51" ry="5.602" transform="translate(-3.219 9.181) rotate(-12.467)"/><path class="h" d="M57.355,26.268c.3.611,6.708-.1,12.128-2.724s5.01-4.184,4.709-4.8.515.411-4.9,3.039S57.051,25.655,57.355,26.268Z" transform="translate(0 -1.318)"/><g class="i"><path class="j" d="M48.279,2.232c2.836,1.176,4.759,3.04,4.295,4.159l-3.059,7.376c-.465,1.12-3.141,1.074-5.978-.1s-4.758-3.039-4.3-4.158L42.3,2.129C42.766,1.009,45.442,1.054,48.279,2.232Z" transform="translate(0 -1.318)"/><path class="f" d="M48.213,2.205c.021.01.045.017.066.026,2.836,1.176,4.759,3.04,4.295,4.159l-3.059,7.376c-.465,1.12-3.141,1.074-5.978-.1l-.065-.029C41.062,12.793,46.046,1.441,48.213,2.205Z" transform="translate(0 -1.318)"/><ellipse class="f" cx="47.437" cy="4.26" rx="2.196" ry="5.561" transform="translate(25.326 45.127) rotate(-67.47)"/><ellipse class="k" cx="47.561" cy="3.963" rx="1.52" ry="4.662" transform="translate(25.674 45.057) rotate(-67.466)"/><path class="l" d="M33.34,8.568c2.463-1.976,5.092-2.788,5.87-1.816l5.137,6.4c.78.972-.583,3.362-3.047,5.337s-5.091,2.788-5.87,1.816l-5.137-6.4C29.513,12.932,30.877,10.543,33.34,8.568Z" transform="translate(0 -1.318)"/><path class="k" d="M33.283,8.614c.02-.015.039-.031.057-.046,2.463-1.976,5.092-2.788,5.87-1.816l5.137,6.4c.78.972-.583,3.362-3.047,5.337a.639.639,0,0,1-.056.044C39.292,20.294,31.523,10.189,33.283,8.614Z" transform="translate(0 -1.318)"/><ellipse class="f" cx="34.752" cy="10.329" rx="5.716" ry="2.257" transform="translate(1.181 22.699) rotate(-38.735)"/><ellipse class="k" cx="34.545" cy="10.071" rx="4.792" ry="1.562" transform="translate(1.294 22.507) rotate(-38.725)"/><path class="f" d="M50.659,7.59c.831-2.967,2.451-5.107,3.622-4.778l7.712,2.155c1.173.328,1.45,3,.621,5.963s-2.451,5.1-3.621,4.778L51.28,13.551C50.107,13.224,49.83,10.554,50.659,7.59Z" transform="translate(0 -1.318)"/><path class="k" d="M50.642,7.657c.006-.023.011-.046.017-.067.831-2.967,2.451-5.107,3.622-4.778l7.712,2.155c1.173.328,1.45,3,.621,5.963-.006.023-.013.045-.02.067C62.045,13.5,50.142,9.909,50.642,7.657Z" transform="translate(0 -1.318)"/><ellipse class="f" cx="52.78" cy="8.182" rx="5.575" ry="2.203" transform="translate(30.693 55.495) rotate(-74.385)"/><ellipse class="j" cx="52.47" cy="8.095" rx="4.675" ry="1.524" transform="translate(30.543 55.128) rotate(-74.377)"/><path class="j" d="M47.445,6.448c3.1-.2,5.669.631,5.748,1.852l.518,8.05c.08,1.223-2.366,2.376-5.462,2.575S42.58,18.3,42.5,17.072l-.519-8.05C41.905,7.8,44.351,6.648,47.445,6.448Z" transform="translate(0 -1.318)"/><path class="k" d="M47.375,6.453l.07,0c3.1-.2,5.669.631,5.748,1.852l.518,8.05c.08,1.223-2.366,2.376-5.462,2.575l-.07,0C45.618,19.239,45.07,6.729,47.375,6.453Z" transform="translate(0 -1.318)"/><ellipse class="f" cx="47.588" cy="8.662" rx="5.617" ry="2.218" transform="translate(-0.458 1.758) rotate(-3.684)"/><ellipse class="k" cx="47.568" cy="8.338" rx="4.709" ry="1.535" transform="translate(-0.437 1.749) rotate(-3.676)"/><path class="j" d="M25.86,23.932c-2.879-1.134-4.852-2.974-4.405-4.111L24.4,12.332c.448-1.138,3.145-1.141,6.025-.009s4.852,2.973,4.4,4.111l-2.945,7.49C31.438,25.06,28.74,25.065,25.86,23.932Z" transform="translate(0 -1.318)"/><path class="k" d="M25.927,23.957c-.022-.01-.044-.017-.067-.025-2.879-1.134-4.852-2.974-4.405-4.111L24.4,12.332c.448-1.138,3.145-1.141,6.025-.009l.065.027C32.937,13.155,28.125,24.687,25.927,23.957Z" transform="translate(0 -1.318)"/><ellipse class="f" cx="26.67" cy="21.872" rx="2.214" ry="5.604" transform="translate(-3.446 37.368) rotate(-68.53)"/><ellipse class="k" cx="26.552" cy="22.173" rx="1.532" ry="4.698" transform="translate(-3.801 37.45) rotate(-68.531)"/><path class="m" d="M64.707,6.2c3.074-.624,5.765-.148,6.011,1.067l1.625,7.991c.247,1.214-2.043,2.7-5.117,3.329s-5.765.148-6.01-1.065L59.59,9.527C59.343,8.312,61.633,6.823,64.707,6.2Z" transform="translate(0 -1.318)"/><path class="k" d="M64.636,6.212l.07-.016c3.074-.624,5.765-.148,6.011,1.067l1.625,7.991c.247,1.214-2.043,2.7-5.117,3.329a.682.682,0,0,1-.07.012C64.632,19.259,62.365,6.8,64.636,6.212Z" transform="translate(0 -1.318)"/><ellipse class="f" cx="65.154" cy="8.395" rx="5.678" ry="2.242" transform="translate(-0.366 11.836) rotate(-11.496)"/><ellipse class="k" cx="65.088" cy="8.073" rx="4.761" ry="1.551" transform="translate(-0.303 11.815) rotate(-11.495)"/><path class="f" d="M41.3,19.187c1.407,2.625,1.707,5.2.671,5.759l-6.825,3.66c-1.037.556-3.018-1.121-4.426-3.746s-1.707-5.2-.669-5.76l6.824-3.66C37.906,14.886,39.888,16.562,41.3,19.187Z" transform="translate(0 -1.318)"/><path class="m" d="M41.262,19.128c.012.019.023.04.034.059,1.407,2.625,1.707,5.2.671,5.759l-6.825,3.66c-1.037.556-3.018-1.121-4.426-3.746a.526.526,0,0,0-.03-.061C29.394,22.687,40.1,17.222,41.262,19.128Z" transform="translate(0 -1.318)"/><ellipse class="f" cx="39.42" cy="20.193" rx="2.129" ry="5.393" transform="translate(-4.863 19.704) rotate(-28.197)"/><ellipse class="k" cx="39.694" cy="20.046" rx="1.474" ry="4.521" transform="translate(-4.761 19.82) rotate(-28.201)"/><path class="k" d="M63.905,20.007c-1.482,2.622-3.521,4.27-4.555,3.685L52.537,19.84c-1.034-.586-.673-3.183.808-5.8s3.522-4.269,4.557-3.684l6.812,3.854C65.749,14.79,65.387,17.388,63.905,20.007Z" transform="translate(0 -1.318)"/><path class="j" d="M63.94,19.947c-.012.021-.022.042-.034.061-1.482,2.622-3.521,4.27-4.555,3.685L52.537,19.84c-1.034-.586-.673-3.183.808-5.8.011-.02.023-.04.035-.058C54.488,11.732,64.939,17.93,63.94,19.947Z" transform="translate(0 -1.318)"/><ellipse class="k" cx="62.032" cy="18.949" rx="5.449" ry="2.152" transform="translate(15.003 62.299) rotate(-60.511)"/><ellipse class="f" cx="62.306" cy="19.104" rx="4.569" ry="1.489" transform="translate(15.006 62.616) rotate(-60.51)"/><path class="f" d="M55.735,17.333c.849,2.947.386,5.641-1.035,6.02l-9.358,2.493c-1.421.378-3.262-1.7-4.113-4.648s-.385-5.641,1.036-6.021l9.359-2.493C53.044,12.306,54.885,14.387,55.735,17.333Z" transform="translate(0 -1.318)"/><path class="m" d="M55.713,17.266c.007.021.016.044.022.067.849,2.947.386,5.641-1.035,6.02l-9.358,2.493c-1.421.378-3.262-1.7-4.113-4.648-.006-.023-.011-.046-.017-.068C40.337,18.729,54.933,15.1,55.713,17.266Z" transform="translate(0 -1.318)"/><path class="f" d="M51.624,12.684c-1.423.38-1.886,3.074-1.037,6.021s2.692,5.026,4.113,4.648,1.884-3.073,1.035-6.02S53.044,12.306,51.624,12.684Z" transform="translate(0 -1.318)"/><path class="k" d="M52.249,13.446c-.984.262-1.2,2.475-.491,4.946s2.087,4.26,3.071,4,1.2-2.477.491-4.948S53.233,13.185,52.249,13.446Z" transform="translate(0 -1.318)"/><path class="f" d="M20.214,27.325c-.57-3.093-.046-5.783,1.177-6.009l8.042-1.489c1.221-.226,2.676,2.1,3.248,5.191s.046,5.782-1.176,6.009l-8.042,1.488C22.242,32.742,20.788,30.418,20.214,27.325Z" transform="translate(0 -1.318)"/><path class="k" d="M20.229,27.4c0-.024-.01-.047-.015-.071-.57-3.093-.046-5.783,1.177-6.009l8.042-1.489c1.221-.226,2.676,2.1,3.248,5.191l.012.07C33.313,27.63,20.783,29.688,20.229,27.4Z" transform="translate(0 -1.318)"/><ellipse class="f" cx="22.427" cy="26.916" rx="2.25" ry="5.695" transform="translate(-4.522 3.211) rotate(-10.482)"/><ellipse class="m" cx="22.103" cy="26.976" rx="1.556" ry="4.775" transform="translate(-4.541 3.156) rotate(-10.487)"/><path class="f" d="M37.557,29.107c-1.892-2.585-2.6-5.288-1.575-6.034l6.724-4.917c1.021-.747,3.382.744,5.272,3.33s2.6,5.288,1.575,6.033l-6.725,4.918C41.807,33.184,39.447,31.693,37.557,29.107Z" transform="translate(0 -1.318)"/><path class="k" d="M37.6,29.165c-.015-.019-.031-.038-.045-.058-1.892-2.585-2.6-5.288-1.575-6.034l6.724-4.917c1.021-.747,3.382.744,5.272,3.33l.043.059C49.713,23.6,39.119,31.023,37.6,29.165Z" transform="translate(0 -1.318)"/><ellipse class="f" cx="39.405" cy="27.755" rx="2.29" ry="5.8" transform="translate(-8.786 27.288) rotate(-36.17)"/><ellipse class="m" cx="39.134" cy="27.952" rx="1.585" ry="4.862" transform="translate(-8.955 27.171) rotate(-36.176)"/><path class="k" d="M71.1,13.678c2.619,1.4,4.293,3.373,3.741,4.408L71.2,24.9c-.551,1.034-3.123.739-5.744-.661s-4.294-3.371-3.741-4.406l3.639-6.811C65.91,11.984,68.48,12.279,71.1,13.678Z" transform="translate(0 -1.318)"/><path class="m" d="M71.04,13.648a.639.639,0,0,0,.061.03c2.619,1.4,4.293,3.373,3.741,4.408L71.2,24.9c-.551,1.034-3.123.739-5.744-.661L65.4,24.2C63.16,23.165,69.024,12.707,71.04,13.648Z" transform="translate(0 -1.318)"/><ellipse class="f" cx="70.099" cy="15.552" rx="2.125" ry="5.377" transform="translate(23.351 68.735) rotate(-61.887)"/><ellipse class="k" cx="70.246" cy="15.277" rx="1.469" ry="4.508" transform="translate(23.673 68.721) rotate(-61.89)"/></g><path class="b" d="M130.464,39.234c.141,4.3,2.89,5.729,4.662,6.89s18.567,5.776,12.017,25.214-26.171,16.295-27.327,16.078-6.221.74-7.328,3.526.287-17.32,4.069-14.792,2.19,5.255,3.97,5.155,15.485,3,20.191-12.543-6.345-16.423-7.7-16.146-5.1.492-6.167,2.934S123.768,35.552,130.464,39.234Z" transform="translate(0 -1.318)"/><path class="c" d="M113.6,85.728c.325-3.207,1.077-7.391,1.947-8.875a4.257,4.257,0,0,1,1.565,2.532,3.154,3.154,0,0,0,1.756,2.373,2.925,2.925,0,0,0,1.252.192c.148,0,.405.023.74.05,10.948.9,18.05-3.782,21.114-13.9,3.831-12.658-2.309-16.651-5.127-17.781a9.524,9.524,0,0,0-4.7-.708c-.171.035-.385.068-.628.109a13.351,13.351,0,0,0-4.357,1.263c-.347-3.775-.026-9.89,1.122-11.273.7,3.8,3.3,5.465,4.937,6.511l.39.251a10.413,10.413,0,0,0,1.394.689c4.144,1.849,15.151,6.761,9.884,22.393-6.127,18.185-24.463,15-25.241,14.854A11.613,11.613,0,0,0,113.6,85.728Z" transform="translate(0 -1.318)"/><path class="b" d="M131.029,38.643,68.695,29.45c-2.131,16.394,2.646,57.194,2.32,59.407-.621,4.208,7.976,8.961,19.2,10.616s20.825-.414,21.446-4.622C111.987,92.639,128.339,54.954,131.029,38.643Z" transform="translate(0 -1.318)"/><path class="c" d="M70.887,85.879A13.535,13.535,0,0,0,78.7,90.215c13.279,1.958,27.427-19.4,31.6-47.7.339-2.3.594-4.572.784-6.811L68.695,29.45C66.857,43.581,70.15,75.823,70.887,85.879Z" transform="translate(0 -1.318)"/><path class="d" d="M69.61,52.552c1.424,16.858,5.073,28.292,9.818,28.3,6.406.01,12.566-20.8,14.471-47.684L70.321,29.69C69.575,35.31,69.457,43.771,69.61,52.552Z" transform="translate(0 -1.318)"/><path class="e" d="M107.091,74.351c1.352-1.4,2.189-1.32,1.732-1.515a3.537,3.537,0,0,0-3.436.5c-1.5-.871-3.679-2.081-6.827-4.167a66.2,66.2,0,0,0,8.37-3.865c1.122.96,2.914.181,3.48-.137.582-.329-.355,0-1.239-1.182,2.019-1.278,2.333-1.755,2.212-1.987s-.657-.17-2.844.76c-.458-1.427.314-2.043-.276-1.747-.573.288-2.215,1.294-2.1,2.774-2.019.875-4.814,2.088-8.541,3.393.516-3.485.828-5.987.99-7.777a2.767,2.767,0,0,0,2.374-2.294c.085-.522-.3.255-2.239.2.053-1.9-.217-2.313-.569-2.365s-.73.261-1.231,2.1c-1.874-.511-2.016-1.365-2.085-.841a2.764,2.764,0,0,0,1.611,2.882c-.364,1.76-.786,4.245-1.3,7.73-3.189-2.325-5.516-4.291-7.2-5.711.536-1.382-.745-2.821-1.209-3.262s.081.357-.768,1.591c-1.828-1.521-2.32-1.734-2.5-1.548s-.021.735,1.543,2.541c-1.188.874-1.988.294-1.528.776s1.942,1.729,3.294,1.134a66.287,66.287,0,0,0,6.9,6.117c-3.615,1.087-6.05,1.618-7.74,2.018A3.537,3.537,0,0,0,82.819,69c-.495.055.327.222,1.218,1.949-1.7.466-1.911.779-1.783,1.107s.57.615,2.445.538c.511,1.764-.129,2.115.368,2.027a1.978,1.978,0,0,0,1.691-2.22,46.546,46.546,0,0,0,7.885-1.859c-.478,3.492-.769,6-.923,7.794a2.461,2.461,0,0,0-2.129,2.176c-.069.524.25-.165,2-.078-.063,1.91.168,2.322.481,2.368s.649-.282,1.14-2.129c1.7.419,1.805,1.173,1.89.651a2.464,2.464,0,0,0-1.413-2.7c.369-1.764.815-4.25,1.366-7.731a46.51,46.51,0,0,0,7.015,4.059,1.975,1.975,0,0,0,.978,2.613c.451.227-.062-.292.938-1.834,1.772.616,2.279.468,2.5.192S108.586,75.289,107.091,74.351Z" transform="translate(0 -1.318)"/><path class="f" d="M103.576,67.023c.36-.843.712-1.7,1.053-2.578-1.835.783-4.144,1.73-7.009,2.734.516-3.485.828-5.987.99-7.777a2.767,2.767,0,0,0,2.374-2.294c.085-.522-.3.255-2.239.2.053-1.9-.217-2.313-.569-2.365s-.73.261-1.231,2.1c-1.874-.511-2.016-1.365-2.085-.841a2.764,2.764,0,0,0,1.611,2.882c-.364,1.76-.786,4.245-1.3,7.73-3.189-2.325-5.516-4.291-7.2-5.711.536-1.382-.745-2.821-1.209-3.262s.081.357-.768,1.591c-1.828-1.521-2.32-1.734-2.5-1.548s-.021.735,1.543,2.541c-1.188.874-1.988.294-1.528.776s1.942,1.729,3.294,1.134a66.287,66.287,0,0,0,6.9,6.117c-3.615,1.087-6.05,1.618-7.74,2.018A3.537,3.537,0,0,0,82.819,69c-.495.055.327.222,1.218,1.949-1.7.466-1.911.779-1.783,1.107s.57.615,2.445.538c.511,1.764-.129,2.115.368,2.027a1.978,1.978,0,0,0,1.691-2.22,46.546,46.546,0,0,0,7.885-1.859c-.478,3.492-.769,6-.923,7.794a2.461,2.461,0,0,0-2.129,2.176c-.069.524.25-.165,2-.078-.059,1.817.147,2.273.436,2.354.276-.311.552-.625.827-.952.11-.3.229-.673.358-1.162.179.044.33.093.473.142.345-.436.683-.891,1.019-1.354a2.274,2.274,0,0,0-1.014-.834c.369-1.764.815-4.25,1.366-7.731,1.353.925,2.532,1.659,3.576,2.266q.53-.982,1.044-2.008c-.916-.56-1.948-1.211-3.113-1.983C100.489,68.43,102.149,67.7,103.576,67.023Z" transform="translate(0 -1.318)"/><ellipse class="c" cx="99.862" cy="34.047" rx="7.491" ry="31.504" transform="translate(51.61 126.556) rotate(-81.611)"/><ellipse class="g" cx="100" cy="33.118" rx="5.602" ry="27.51" transform="translate(52.647 125.898) rotate(-81.611)"/><path class="h" d="M89.569,40.16c-.253.631-6.7.38-12.291-1.855s-5.3-3.817-5.038-4.449-.484.446,5.108,2.682S89.83,39.527,89.569,40.16Z" transform="translate(0 -1.318)"/><g class="n"><path class="j" d="M96.913,15.539c-2.746,1.375-4.53,3.371-3.988,4.454l3.576,7.14c.544,1.084,3.21.847,5.955-.528s4.53-3.369,3.989-4.453l-3.577-7.141C102.325,13.927,99.659,14.163,96.913,15.539Z" transform="translate(0 -1.318)"/><path class="f" d="M96.977,15.508c-.021.012-.043.02-.064.031-2.746,1.375-4.53,3.371-3.988,4.454l3.576,7.14c.544,1.084,3.21.847,5.955-.528l.063-.033C104.863,25.56,99.084,14.592,96.977,15.508Z" transform="translate(0 -1.318)"/><ellipse class="f" cx="97.897" cy="17.503" rx="5.561" ry="2.196" transform="translate(2.529 44.383) rotate(-26.609)"/><ellipse class="k" cx="97.752" cy="17.215" rx="4.662" ry="1.52" transform="translate(2.644 44.294) rotate(-26.612)"/><path class="l" d="M112.265,20.8c-2.6-1.8-5.277-2.418-5.985-1.393l-4.668,6.754c-.709,1.025.82,3.312,3.418,5.107s5.277,2.419,5.985,1.394l4.668-6.754C116.393,24.878,114.862,22.592,112.265,20.8Z" transform="translate(0 -1.318)"/><path class="k" d="M112.325,20.839c-.021-.013-.041-.028-.06-.042-2.6-1.8-5.277-2.418-5.985-1.393l-4.668,6.754c-.709,1.025.82,3.312,3.418,5.107a.639.639,0,0,0,.059.04C107.162,32.917,114.193,22.285,112.325,20.839Z" transform="translate(0 -1.318)"/><ellipse class="f" cx="110.982" cy="22.654" rx="2.257" ry="5.716" transform="translate(29.237 99.745) rotate(-55.343)"/><ellipse class="k" cx="111.17" cy="22.382" rx="1.562" ry="4.792" transform="translate(29.556 99.797) rotate(-55.354)"/><path class="f" d="M94.92,21.053c-1.04-2.9-2.808-4.919-3.953-4.508l-7.539,2.7c-1.147.411-1.234,3.093-.2,5.992s2.808,4.918,3.952,4.508l7.54-2.7C95.871,26.634,95.958,23.951,94.92,21.053Z" transform="translate(0 -1.318)"/><path class="k" d="M94.942,21.119c-.008-.022-.015-.045-.022-.066-1.04-2.9-2.808-4.919-3.953-4.508l-7.539,2.7c-1.147.411-1.234,3.093-.2,5.992.008.023.016.044.025.066C83.984,27.758,95.6,23.329,94.942,21.119Z" transform="translate(0 -1.318)"/><ellipse class="f" cx="92.846" cy="21.795" rx="2.203" ry="5.575" transform="translate(-1.914 31.244) rotate(-19.693)"/><ellipse class="j" cx="93.15" cy="21.685" rx="1.524" ry="4.675" transform="translate(-1.858 31.354) rotate(-19.701)"/><path class="j" d="M98.045,19.686c-3.1.022-5.61,1.032-5.6,2.256l.056,8.066c.007,1.225,2.529,2.2,5.631,2.18s5.61-1.032,5.6-2.257l-.055-8.066C103.667,20.641,101.145,19.665,98.045,19.686Z" transform="translate(0 -1.318)"/><path class="k" d="M98.115,19.686h-.07c-3.1.022-5.61,1.032-5.6,2.256l.056,8.066c.007,1.225,2.529,2.2,5.631,2.18h.07C100.776,32.314,100.434,19.8,98.115,19.686Z" transform="translate(0 -1.318)"/><ellipse class="f" cx="98.059" cy="21.904" rx="5.617" ry="2.218" transform="translate(-0.148 -0.643) rotate(-0.394)"/><ellipse class="k" cx="98.056" cy="21.579" rx="4.709" ry="1.535" transform="translate(-0.149 -0.629) rotate(-0.402)"/><path class="j" d="M120.819,35.59c2.791-1.336,4.628-3.311,4.1-4.414l-3.472-7.261c-.527-1.1-3.218-.915-6.01.42s-4.628,3.311-4.1,4.413l3.47,7.261C115.335,37.112,118.027,36.925,120.819,35.59Z" transform="translate(0 -1.318)"/><path class="k" d="M120.754,35.62c.021-.011.043-.02.065-.03,2.791-1.336,4.628-3.311,4.1-4.414l-3.472-7.261c-.527-1.1-3.218-.915-6.01.42l-.063.031C112.993,25.344,118.613,36.5,120.754,35.62Z" transform="translate(0 -1.318)"/><ellipse class="f" cx="119.864" cy="33.593" rx="5.604" ry="2.214" transform="translate(-2.768 53.66) rotate(-25.548)"/><ellipse class="k" cx="120.003" cy="33.885" rx="4.698" ry="1.532" transform="translate(-2.88 53.747) rotate(-25.547)"/><path class="m" d="M80.809,20.662c-3.111-.4-5.76.262-5.92,1.492L73.837,30.24c-.16,1.228,2.23,2.551,5.341,2.956s5.76-.262,5.919-1.49l1.052-8.086C86.309,22.391,83.919,21.068,80.809,20.662Z" transform="translate(0 -1.318)"/><path class="k" d="M80.88,20.673l-.071-.01c-3.111-.4-5.76.262-5.92,1.492L73.837,30.24c-.16,1.228,2.23,2.551,5.341,2.956a.682.682,0,0,0,.071.007C81.813,33.686,83.188,21.1,80.88,20.673Z" transform="translate(0 -1.318)"/><ellipse class="f" cx="80.519" cy="22.887" rx="2.242" ry="5.678" transform="translate(47.428 98.459) rotate(-82.582)"/><ellipse class="k" cx="80.562" cy="22.561" rx="1.551" ry="4.761" transform="translate(47.79 98.218) rotate(-82.583)"/><path class="f" d="M105.084,31.955c-1.217,2.718-1.333,5.311-.26,5.792l7.068,3.165c1.074.481,2.931-1.333,4.148-4.051s1.332-5.312.258-5.793L109.231,27.9C108.16,27.424,106.3,29.236,105.084,31.955Z" transform="translate(0 -1.318)"/><path class="m" d="M105.114,31.893c-.011.02-.02.041-.03.062-1.217,2.718-1.333,5.311-.26,5.792l7.068,3.165c1.074.481,2.931-1.333,4.148-4.051a.526.526,0,0,1,.026-.063C117.2,34.6,106.133,29.91,105.114,31.893Z" transform="translate(0 -1.318)"/><ellipse class="f" cx="107.027" cy="32.825" rx="5.393" ry="2.129" transform="translate(33.334 115.778) rotate(-65.882)"/><ellipse class="k" cx="106.743" cy="32.698" rx="4.521" ry="1.474" transform="translate(33.275 115.437) rotate(-65.877)"/><path class="k" d="M82.59,34.381c1.664,2.51,3.816,4.009,4.806,3.352l6.522-4.327c.989-.658.445-3.223-1.219-5.731s-3.817-4.008-4.807-3.351l-6.521,4.328C80.38,29.309,80.926,31.874,82.59,34.381Z" transform="translate(0 -1.318)"/><path class="j" d="M82.552,34.323c.014.02.025.04.038.058,1.664,2.51,3.816,4.009,4.806,3.352l6.522-4.327c.989-.658.445-3.223-1.219-5.731-.013-.019-.026-.038-.039-.056C91.4,25.457,81.411,32.383,82.552,34.323Z" transform="translate(0 -1.318)"/><ellipse class="k" cx="84.383" cy="33.192" rx="2.152" ry="5.449" transform="translate(-4.28 50.874) rotate(-33.567)"/><ellipse class="f" cx="84.121" cy="33.366" rx="1.489" ry="4.569" transform="translate(-4.42 50.759) rotate(-33.568)"/><path class="f" d="M90.55,31.132c-.637,3,.016,5.655,1.46,5.931l9.512,1.821c1.444.276,3.132-1.93,3.772-4.929s-.017-5.654-1.462-5.932L94.32,26.2C92.877,25.927,91.188,28.134,90.55,31.132Z" transform="translate(0 -1.318)"/><path class="m" d="M90.567,31.064c-.005.022-.013.045-.017.068-.637,3,.016,5.655,1.46,5.931l9.512,1.821c1.444.276,3.132-1.93,3.772-4.929,0-.023.008-.047.012-.069C106.008,31.43,91.191,28.851,90.567,31.064Z" transform="translate(0 -1.318)"/><path class="f" d="M94.32,26.2c1.446.277,2.1,2.933,1.462,5.932s-2.328,5.2-3.772,4.929-2.1-2.932-1.46-5.931S92.877,25.927,94.32,26.2Z" transform="translate(0 -1.318)"/><path class="k" d="M93.75,27.008c1,.191,1.377,2.383.842,4.9s-1.779,4.4-2.779,4.206-1.376-2.386-.841-4.9S92.751,26.817,93.75,27.008Z" transform="translate(0 -1.318)"/><path class="f" d="M126.691,38.573c.348-3.125-.366-5.772-1.6-5.91l-8.128-.913c-1.234-.139-2.52,2.282-2.871,5.409s.365,5.771,1.6,5.91l8.128.912C125.054,44.12,126.339,41.7,126.691,38.573Z" transform="translate(0 -1.318)"/><path class="k" d="M126.682,38.645c0-.024.007-.047.01-.072.348-3.125-.366-5.772-1.6-5.91l-8.128-.913c-1.234-.139-2.52,2.282-2.871,5.409l-.007.071C113.648,39.809,126.292,40.97,126.682,38.645Z" transform="translate(0 -1.318)"/><ellipse class="f" cx="124.455" cy="38.322" rx="5.695" ry="2.25" transform="translate(72.491 156.409) rotate(-83.596)"/><ellipse class="m" cx="124.783" cy="38.359" rx="4.775" ry="1.556" transform="translate(72.736 156.763) rotate(-83.592)"/><path class="f" d="M109.52,41.584c1.7-2.713,2.213-5.459,1.142-6.13L103.6,31.027c-1.072-.672-3.321.983-5.022,3.7s-2.213,5.459-1.142,6.13l7.058,4.427C105.569,45.953,107.818,44.3,109.52,41.584Z" transform="translate(0 -1.318)"/><path class="k" d="M109.479,41.645c.014-.02.029-.04.041-.061,1.7-2.713,2.213-5.459,1.142-6.13L103.6,31.027c-1.072-.672-3.321.983-5.022,3.7l-.039.062C97,36.959,108.1,43.606,109.479,41.645Z" transform="translate(0 -1.318)"/><ellipse class="f" cx="107.58" cy="40.367" rx="5.8" ry="2.29" transform="translate(16.226 108.744) rotate(-57.908)"/><ellipse class="m" cx="107.864" cy="40.544" rx="4.862" ry="1.585" transform="matrix(0.531, -0.847, 0.847, 0.531, 16.202, 109.059)"/><path class="k" d="M74.963,28.579c-2.513,1.583-4.042,3.67-3.418,4.663l4.114,6.535c.624.992,3.168.515,5.682-1.068s4.044-3.667,3.418-4.661l-4.114-6.535C80.021,26.521,77.478,27,74.963,28.579Z" transform="translate(0 -1.318)"/><path class="m" d="M75.022,28.545a.639.639,0,0,1-.059.034c-2.513,1.583-4.042,3.67-3.418,4.663l4.114,6.535c.624.992,3.168.515,5.682-1.068l.056-.037C83.558,37.478,76.966,27.463,75.022,28.545Z" transform="translate(0 -1.318)"/><ellipse class="f" cx="76.095" cy="30.377" rx="5.377" ry="2.125" transform="matrix(0.846, -0.533, 0.533, 0.846, -4.486, 43.891)"/><ellipse class="k" cx="75.929" cy="30.114" rx="4.508" ry="1.469" transform="translate(-4.372 43.759) rotate(-32.188)"/></g><path class="e" d="M61.991,90.54c.707-2.892,2.208-5.009,3.348-4.73l7.52,1.838c1.143.279,1.495,2.85.788,5.741S71.439,98.4,70.3,98.119l-7.52-1.839C61.636,96,61.283,93.432,61.991,90.54Z" transform="translate(0 -1.318)"/><path class="f" d="M61.976,90.607c0-.023.009-.045.014-.067.707-2.892,2.208-5.009,3.348-4.73l7.52,1.838c1.143.279,1.495,2.85.788,5.741-.007.023-.012.045-.018.066C73.179,95.889,61.565,92.8,61.976,90.607Z" transform="translate(0 -1.318)"/><ellipse class="f" cx="64.058" cy="91.045" rx="5.39" ry="2.128" transform="translate(-39.596 130.327) rotate(-76.26)"/><ellipse class="k" cx="63.757" cy="90.97" rx="4.519" ry="1.474" transform="translate(-39.752 129.983) rotate(-76.263)"/><path class="f" d="M82.357,99.386c.244-3.072-.539-5.639-1.752-5.734l-7.981-.636c-1.214-.1-2.4,2.313-2.64,5.383s.54,5.637,1.752,5.733l7.983.635C80.933,104.865,82.115,102.454,82.357,99.386Z" transform="translate(0 -1.318)"/><path class="k" d="M82.351,99.456c0-.024.005-.048.006-.069.244-3.072-.539-5.639-1.752-5.734l-7.981-.636c-1.214-.1-2.4,2.313-2.64,5.383,0,.024,0,.047,0,.07C69.633,101.007,82.044,101.741,82.351,99.456Z" transform="translate(0 -1.318)"/><ellipse class="f" cx="80.162" cy="99.21" rx="5.575" ry="2.202" transform="translate(-25.101 169.922) rotate(-85.445)"/><ellipse class="e" cx="80.484" cy="99.235" rx="4.675" ry="1.524" transform="translate(-24.823 170.275) rotate(-85.45)"/></svg>