<svg xmlns="http://www.w3.org/2000/svg" viewBox="0 0 46.315 37.272"><defs><style>.a{fill:#d3d4d5;}.b{fill:#dcdedf;}.c{fill:#e5e6e6;}.d{fill:#fff;}</style></defs><title>isometric-cloud</title><path class="a" d="M33.835,4.681l.123-.111.346-.156.151-.058.251-.085.187-.051.208-.046.108.011,0-.028.22-.028.278-.013c.1,0,.168,0,.234.009l.156.018.127.021.275.073.2.078a2.435,2.435,0,0,1,.229.114L44.958,9.1a.228.228,0,0,1-.05.005.334.334,0,0,1-.146-.043l-.176-.073-.146-.079-.008.027-.1-.056-.007.028-.188-.038-.174-.021c-.07-.006-.141-.009-.212-.01l-.2.006-.2.02-.108-.013,0,.028-.191.007.006.028-.111,0,.007.027-.158.043-.238.076-.2.077-.205.089-.271.133Z"/><path class="a" d="M44.6,8.958l-.08-.028-.076-.024-.089-.023-.079-.019c-.044-.009-.087-.017-.132-.024l-.021,0c-.051-.007-.1-.013-.155-.017-.07-.006-.141-.01-.214-.01h-.036c-.056,0-.113,0-.171.006l-.087.008-.114.012-.1.016-.093.015-.115.024-.085.019c-.053.013-.106.028-.159.043l-.039.011q-.1.03-.2.066l-.052.019c-.05.018-.1.037-.15.058l-.073.031-.133.059-.078.037c-.06.029-.12.058-.181.09L33.85,4.656l.121-.062.06-.028.078-.037.048-.023.084-.036.074-.031.028-.012.122-.046.052-.019.01,0q.094-.033.187-.061h0l.039-.011c.048-.014.1-.028.143-.04l.016,0L35,4.224,35.1,4.2l.021,0,.093-.015.082-.014.022,0,.113-.012L35.5,4.15h.016c.058,0,.114-.005.171-.006h.036c.072,0,.143,0,.214.01h.017c.046,0,.092.01.138.016l.021,0,.1.018.028.007.079.019.089.023.076.024.053.017.027.011c.041.015.082.032.122.049l.056.024c.058.027.114.056.169.088l8.03,4.666c-.055-.032-.111-.061-.169-.088l-.056-.024C44.678,8.99,44.638,8.973,44.6,8.958Z"/><path class="b" d="M27.05,2.93l.213-.221.43-.319.281-.188.247-.152.227-.128.427-.211c.107-.049.183-.081.257-.111l.226-.085.225-.073.28-.075.241-.05.144-.024.257-.028.259-.011.373.017c.146.019.209.028.272.041l.222.054.172.053c.078.03.129.051.178.072a2.779,2.779,0,0,1,.286.141L40.294,6.3h-.032a.467.467,0,0,1-.205-.061c-.119-.051-.169-.072-.219-.09l-.117-.04L39.5,6.05A2.561,2.561,0,0,0,39.239,6l-.182-.018-.266-.009-.254.011-.254.028L38.172,6l0,.028-.144.027-.107-.005.007.028-.152.038h-.105l.008.027-.169.052c-.163.055-.247.085-.33.12s-.171.071-.257.11l-.352.173c-.081.042-.162.086-.243.133-.1.058-.2.119-.3.183l-.278.187-.112.045.017.023-.285.213c-.088.068-.276.223-.276.223Z"/><path class="b" d="M35.739,7.08l-.1.068q-.094.068-.188.139l-.1.075c-.088.069-.176.138-.262.21l-8.03-4.666q.107-.089.215-.175l.047-.036.1-.076.1-.079.084-.06.1-.068.063-.044c.052-.036.1-.07.157-.1l.06-.039.018-.012q.114-.073.23-.141l.052-.031q.089-.051.177-.1l.067-.035.091-.047.071-.037.112-.053.08-.038.033-.016q.112-.05.223-.094t.225-.085l.029-.009.081-.026.114-.037.056-.016.1-.027.076-.021.078-.017.1-.022.053-.012.092-.015.107-.018.039-.006L30.38,1.3l.125-.013.036,0,.08,0c.047,0,.095,0,.142,0h.04l.063,0c.055,0,.11,0,.164.008l.052,0,.08.009.052.006c.064.008.127.018.189.03l.01,0,.066.015c.048.011.1.022.144.035l.078.024c.03.01.062.018.092.028l.027.011c.051.018.1.039.149.06l.072.03c.072.034.142.07.21.109l8.03,4.666c-.068-.04-.139-.076-.21-.109L40,6.182c-.049-.021-.1-.042-.149-.06s-.079-.027-.119-.039l-.079-.024c-.047-.013-.1-.024-.144-.035l-.066-.015c-.065-.013-.132-.024-.2-.033l-.052-.006c-.043,0-.088-.008-.132-.012s-.109-.006-.164-.008l-.1,0c-.047,0-.094,0-.142,0l-.115.006-.125.013c-.043,0-.086.009-.13.016L38.173,6c-.048.008-.1.017-.145.027l-.1.022-.153.038-.1.027c-.056.016-.113.034-.17.053l-.081.026c-.083.029-.167.06-.252.093h0c-.085.034-.171.071-.256.11l-.08.038q-.091.043-.183.089l-.091.047c-.081.043-.162.087-.244.134-.1.058-.2.119-.3.183l-.059.039Q35.848,7,35.739,7.08Z"/><path class="c" d="M13.487,10.131l.076-.334.1-.3.193-.55.225-.577.044-.1.078-.109-.026-.011.268-.589.167-.34.2-.378q.145-.272.3-.538s.221-.37.306-.507c.112-.179.207-.322.3-.464l.061-.089c.116-.17.234-.338.356-.5l.349-.459.245-.3.356-.413.282-.31.255-.265.294-.29.241-.224c.167-.151.265-.237.364-.321l.382-.31.3-.229L19.5,1.4l.281-.186.3-.186.3-.169.295-.153.249-.117c.139-.063.235-.1.33-.142s.195-.075.29-.109l.292-.1.294-.081.373-.079.311-.047.315-.028L23.361,0l.25,0,.269.023c.152.019.234.032.315.047l.286.069.225.07.1.037c.077.03.154.063.229.1.112.054.19.094.266.138l8.03,4.666h-.021a.521.521,0,0,1-.236-.072c-.106-.051-.182-.083-.258-.112L32.6,4.9l-.1-.062-.008.027-.185-.045c-.168-.037-.254-.05-.34-.062-.145-.017-.224-.024-.3-.029l-.213-.006-.393.014-.324.036-.325.058-.328.078-.13.007.008.027-.217.067-.116.008.009.027c-.106.037-.215.076-.323.12s-.22.092-.33.142l-.114.022.012.025-.352.176c-.1.055-.208.111-.312.172l-.331.2-.14.057.016.024-.468.321-.415.315-.2.162-.118.061.019.021c-.1.083-.2.169-.294.256L26,7.389l-.12.077.02.021-.185.183-.126.087.021.02-.173.181-.12.087.021.019-.182.2-.1.073.021.019c-.087.1-.173.2-.257.3l-.255.315-.09.069.022.018-.217.285-.092.076.023.017q-.182.248-.355.5l-.083.073.023.016c-.1.142-.189.284-.28.429-.107.17-.19.309-.272.447l-.079.078.024.014q-.154.266-.3.536l-.195.375-.085.105.025.013-.288.611-.287.681-.115.3-.076.121.027.01-.124.354-.115.358-.106.357Z"/><path class="c" d="M27.747,5.959l-.171.113-.124.086-.174.124-.121.089q-.093.069-.185.141l-.111.087c-.074.059-.148.12-.222.181l-.076.063q-.148.126-.294.257l-.069.064q-.112.1-.222.207l-.1.1q-.093.091-.185.183l-.105.107q-.087.09-.173.181l-.1.106c-.061.066-.122.134-.182.2l-.082.092q-.13.148-.257.3l-.018.022q-.12.145-.237.293l-.067.087q-.11.141-.218.285l-.07.094q-.182.247-.355.5l-.06.089c-.1.142-.189.285-.281.429l-.021.034q-.129.205-.251.414l-.054.092q-.155.266-.3.537l-.057.107q-.071.135-.139.271l-.059.116c-.037.074-.072.149-.108.223-.02.043-.041.085-.061.128-.032.069-.063.138-.094.206-.021.046-.042.092-.062.138s-.05.117-.075.176-.047.109-.07.164-.053.131-.079.2c-.019.049-.04.1-.059.146-.03.078-.059.156-.088.235-.014.038-.029.075-.042.113q-.064.177-.124.354c-.009.026-.017.052-.025.078-.031.094-.061.188-.09.282s-.065.215-.1.322L13.5,10.107q.043-.151.089-.3l.006-.02c.029-.093.059-.186.089-.279.008-.025.016-.05.024-.075l0-.006q.059-.177.123-.354l0,0c.013-.037.028-.073.041-.11.029-.078.057-.155.087-.233l0-.01c.018-.046.037-.092.056-.138.026-.065.052-.13.078-.2l.005-.014c.021-.051.044-.1.065-.152s.049-.116.075-.174l.006-.015c.018-.042.038-.083.057-.125.031-.068.061-.137.093-.2l.01-.021c.017-.036.034-.071.051-.106.036-.075.071-.149.108-.224l.017-.035.042-.081q.069-.136.139-.27l.033-.063.024-.044q.145-.271.3-.537l.02-.036.035-.057q.123-.209.251-.414l.021-.034c.091-.145.185-.288.281-.43l.033-.05.028-.039q.174-.255.355-.5l.025-.035.045-.059q.107-.144.217-.285l.046-.061.021-.026q.118-.149.239-.295l.015-.019,0,0q.127-.153.257-.3l.015-.018L17.1,3.58c.06-.068.121-.135.182-.2l.033-.036.067-.07q.086-.092.173-.181l.051-.053.055-.054q.092-.093.186-.184l.065-.065.035-.033q.111-.106.223-.208l.056-.052.012-.01q.146-.131.295-.257l.013-.011.062-.051c.074-.061.148-.122.222-.182l.036-.03.075-.057q.092-.072.185-.141l.055-.042.065-.046.174-.124.071-.05.053-.035.171-.113.083-.055.042-.026.166-.1.094-.057.07-.041q.115-.066.229-.128l.086-.045L20.6.778,20.7.731c.049-.024.1-.046.145-.068l.1-.048.042-.02q.144-.065.287-.122h0q.144-.058.287-.108L21.6.352l.108-.035c.048-.016.1-.033.145-.047l.072-.02.123-.034.1-.027.1-.023.129-.029.067-.015c.04-.008.079-.013.119-.02L22.7.079l.05-.008c.04-.005.079-.008.119-.012s.105-.012.157-.016l.045,0c.035,0,.069,0,.1,0,.061,0,.122-.006.183-.006l.051,0c.067,0,.132,0,.2.006l.028,0,.139.009.1.012.067.008c.083.011.165.024.245.039l.012,0,.084.02c.063.014.126.029.187.046.034.01.068.021.1.032s.081.024.121.038l.052.02.043.016c.078.03.154.062.228.1l.033.016c.078.038.155.078.23.121l8.03,4.666c-.075-.043-.152-.083-.23-.121l-.033-.016c-.075-.035-.151-.067-.229-.1l-.043-.016c-.057-.021-.115-.039-.174-.058-.034-.011-.067-.022-.1-.032-.061-.017-.124-.032-.187-.046l-.084-.02c-.084-.017-.17-.031-.257-.042l-.067-.008c-.079-.009-.158-.017-.239-.021l-.029,0c-.082,0-.165,0-.249,0-.06,0-.122,0-.183.006s-.1,0-.149.008-.1.01-.157.016-.113.012-.17.021l-.141.023c-.062.011-.124.022-.186.035l-.129.029q-.1.023-.2.049l-.123.034c-.072.021-.145.044-.217.067l-.108.035c-.108.037-.216.077-.325.121h0c-.109.044-.219.092-.33.142l-.1.048q-.118.055-.236.116l-.117.061c-.1.055-.209.112-.315.173-.055.032-.11.065-.164.1l-.166.1Z"/><path class="b" d="M5.3,20.293a2.05,2.05,0,0,1,.01-.33l.046-.388.044-.106-.028,0,.108-.6.121-.511.131-.463.2-.589.166-.431.069-.095-.026-.011.235-.534.161-.335.121-.233.084-.1-.025-.013c.085-.16.171-.312.259-.462l.279-.459.213-.326c.1-.15.2-.292.3-.43l.308-.405.189-.233.392-.448L9,12.434l.4-.388.357-.31.108-.052-.018-.022.333-.259.262-.187.253-.168.243-.148.342-.189.1-.022-.013-.025.273-.131.23-.1.325-.118.114-.037c.1-.032.181-.054.258-.073l.24-.054.247-.041.2-.02.242-.015,8.044,4.67a.534.534,0,0,1-.252.067l-.283.034-.305.06c-.158.037-.25.063-.343.091-.137.044-.212.07-.287.1-.168.064-.255.1-.342.139-.122.054-.219.1-.315.149-.173.09-.268.141-.363.2l-.228.138c-.148.093-.235.15-.322.21l-.111.043.017.023-.166.119-.124.059.017.022-.411.331-.378.339-.379.372-.131.1.021.019-.463.519-.336.416-.216.286c-.1.139-.2.279-.3.422l-.089.083.023.016-.231.361-.2.33c-.087.15-.172.3-.254.454l-.076.085.025.013-.123.238-.149.308-.141.313-.067.084.026.012-.214.53-.07.105.027.01-.079.223-.06.086.027.009-.1.309-.1.336-.055.1L13.7,23l-.056.219-.056.116.028.006-.044.2-.054.122.028.006-.037.2-.049.12.028,0-.047.315-.027.23c-.019.187-.037.444-.037.444Z"/><path class="b" d="M18.489,15.906l-.072.051c-.063.044-.126.089-.189.135l-.107.082c-.051.039-.1.078-.154.119l-.117.1c-.047.039-.095.078-.142.118l-.124.108-.134.119-.121.113-.132.125-.116.115-.131.132-.109.114-.13.14-.1.115-.128.145-.1.121L16.254,18l-.108.133-.108.138-.131.172-.085.115q-.153.208-.3.423l-.065.1c-.051.077-.1.155-.152.233l-.08.129q-.066.107-.131.215l-.068.116c-.088.15-.173.3-.255.454-.017.032-.034.065-.051.1-.041.079-.083.158-.123.238q-.077.154-.15.309l-.019.042q-.063.135-.122.27l-.041.1q-.046.108-.091.216l-.045.111q-.041.1-.08.205l-.043.115c-.027.074-.053.148-.079.223-.011.032-.022.063-.033.1q-.052.154-.1.309l0,.013q-.049.161-.094.323c-.01.035-.018.071-.028.106-.019.073-.038.145-.056.218-.01.041-.019.082-.029.123-.015.067-.031.134-.045.2-.009.043-.018.086-.026.128q-.02.1-.037.2-.011.062-.022.124c-.011.067-.021.134-.031.2-.006.039-.011.077-.016.116-.01.077-.019.154-.027.231,0,.027-.006.054-.009.08-.01.107-.019.213-.025.319l-8.03-4.666v-.024q.009-.139.022-.279l0-.017c0-.027.006-.054.009-.081.007-.061.013-.123.02-.184l.007-.047c.005-.039.011-.078.017-.116s.011-.083.018-.124c0-.025.009-.051.013-.076q.01-.063.022-.125c.005-.03.01-.06.015-.089s.014-.07.021-.106.017-.086.026-.129l.013-.063c.01-.045.021-.091.032-.137s.019-.083.029-.124l.009-.04c.015-.059.031-.118.046-.177.009-.036.018-.071.028-.107l.005-.02q.042-.151.088-.3h0l.006-.018q.043-.14.09-.281l.008-.024c.011-.032.023-.064.034-.1.019-.056.038-.112.058-.167l.02-.054.044-.116c.014-.038.028-.077.043-.115l.036-.09.045-.111.029-.073c.02-.048.041-.095.061-.142l.041-.1.015-.034c.035-.079.071-.157.107-.236l.019-.042,0-.005q.068-.144.139-.287l.008-.016c.041-.081.083-.162.125-.242.016-.03.03-.06.046-.089l0-.005c.082-.153.168-.3.255-.455l.03-.053.037-.061q.065-.109.132-.216l.08-.128c.05-.078.1-.156.152-.233l.055-.084.01-.015q.145-.215.3-.423l.032-.045.053-.069.131-.172.057-.075.051-.063.108-.133.064-.079.058-.068.1-.121.06-.07.068-.075.1-.115.052-.058.078-.082.109-.114.045-.047.086-.085.116-.115.041-.04.091-.085.121-.113.038-.036.1-.084.124-.108.036-.031.106-.087.117-.1.03-.025c.041-.032.082-.063.123-.094l.107-.082.022-.017c.055-.041.111-.08.167-.119l.072-.051.009-.006q.121-.083.244-.161l.009-.006.061-.037c.057-.036.114-.071.172-.105l.056-.033q.092-.053.183-.1l.1-.053.08-.041.053-.027q.116-.057.231-.109l.006,0,.026-.011c.066-.029.132-.057.2-.084l.065-.025.082-.031.082-.031c.048-.017.1-.032.144-.047l.063-.021.024-.008q.118-.036.233-.064l.02,0,.068-.015c.05-.011.1-.024.15-.033l.058-.01.1-.016.088-.015.086-.009.111-.011.058-.006q.092-.006.182-.008l8.03,4.666c-.079,0-.16.007-.24.014l-.111.011q-.086.01-.174.023l-.1.016c-.069.012-.138.027-.208.043l-.068.015q-.137.034-.278.077l-.063.021q-.112.036-.226.078l-.082.031c-.087.034-.174.069-.263.108l-.026.011c-.1.043-.193.09-.291.139l-.079.041c-.094.049-.189.1-.285.155-.077.044-.153.091-.228.138l-.061.037Q18.619,15.816,18.489,15.906Z"/><path class="a" d="M1.468,32.267c-.051-.029-.1-.062-.15-.1l-.147-.109-.159-.139c-.062-.06-.1-.1-.145-.149l-.12-.145-.123-.171c-.064-.1-.1-.153-.129-.211s-.062-.116-.091-.178c-.042-.09-.078-.175-.111-.264l-.083-.243L.145,30.32l-.07-.34-.051-.4-.013-.185L0,29.06l.014-.482L.057,28.4l-.028,0,.014-.147.043-.132-.028,0L.1,27.838l.1-.514.117-.474.083-.291.09-.284.181-.5.189-.455.122-.269.282-.562c.081-.151.153-.279.228-.407l.237-.389.184-.279q.138-.207.284-.4c.072-.1.142-.189.213-.279l.168-.209.3-.346.2-.218.1-.064-.021-.02.259-.259.379-.343L4.118,21l.115-.053-.017-.022.165-.121.123-.052-.017-.023.234-.155.212-.13.173-.1.2-.1,8.06,4.665-.179.143-.142.078c-.081.047-.162.1-.242.147l-.249.164-.108.043.016.022-.141.1-.112.049.018.022-.239.19-.333.29-.106.06.02.021L11.4,26.4l-.114.072.02.021-.215.224-.147.161-.264.306-.2.246c-.07.089-.139.18-.207.271-.1.139-.2.273-.288.409l-.249.383-.072.119-.077.072.024.015c-.121.2-.192.331-.261.461l-.151.289-.107.221-.155.338-.156.375-.078.2-.125.349-.1.309-.083.291-.057.1.027.007-.045.183-.053.1.028.007-.041.188-.048.095.028.006-.044.247-.045.317-.029.28-.019.284c-.008.181-.01.27-.009.357s0,.184.007.273l.028.357.034.259.047.254.093.358.045.139.009.111.026-.01c.033.086.068.169.106.251.029.061.059.121.091.18s.068.12.1.176l.107.154.121.15c.073.083.113.126.156.167s.093.085.131.118l.143.11c.091.063.139.095.189.124l-.028.049Z"/><path class="a" d="M.031,28.82l0-.043c0-.03,0-.061,0-.091s0-.071.005-.107,0-.055.007-.083,0-.064.008-.1,0-.042.005-.064c0-.046.01-.092.015-.138,0-.027.006-.053.009-.08l0-.027q.016-.125.036-.25v-.005L.132,27.8c.011-.07.023-.141.037-.212l.008-.038c.006-.033.014-.067.02-.1s.016-.082.025-.122c0-.023.011-.045.016-.068s.017-.073.025-.109.013-.056.02-.084.018-.067.026-.1.019-.073.029-.11L.351,26.8c.013-.048.028-.1.042-.144.009-.031.018-.062.027-.093l.008-.027q.04-.129.083-.258v0l.008-.022c.026-.076.052-.153.08-.229l.013-.036.032-.086c.015-.041.03-.082.046-.123l.031-.078.038-.095.028-.07c.019-.045.039-.091.058-.136l.032-.076L.891,25.3q.054-.121.11-.241l0-.009.03-.063c.03-.064.061-.127.092-.19l.015-.028c.025-.05.051-.1.077-.149s.041-.081.063-.121l.012-.021q.1-.194.215-.384l.018-.033c.019-.032.039-.064.058-.1.031-.052.062-.1.094-.155l.086-.136c.032-.051.065-.1.1-.151l.032-.05.033-.046c.092-.136.186-.271.283-.4h0l0,0q.1-.139.209-.275l.009-.012c.052-.066.105-.132.159-.2l.031-.039,0,0q.1-.114.193-.225l.01-.011.061-.067c.041-.046.082-.092.124-.137l.024-.025.086-.09.094-.1.036-.035.094-.093.08-.079.046-.043.1-.095.071-.066.056-.049.1-.09.062-.054.068-.056.1-.083.052-.043.086-.066.094-.072.038-.029c.039-.028.078-.055.117-.083l.08-.057.021-.015q.105-.072.212-.14h0l.015-.009c.064-.041.129-.081.194-.119L5,20.44l.123-.069.02-.01.175-.091,0,0,8.03,4.666-.178.093c-.047.025-.1.051-.143.079-.082.047-.163.1-.243.147l-.015.009c-.079.05-.157.1-.234.156l-.08.057c-.052.037-.1.074-.155.112l-.094.072-.138.108-.1.083-.131.11-.1.09-.127.115-.1.095-.127.123-.094.093c-.044.044-.087.089-.13.134l-.086.09c-.05.053-.1.108-.148.163l-.06.066q-.1.118-.2.239l-.029.036q-.086.1-.17.211-.105.134-.207.272l-.005.007c-.1.132-.191.266-.283.4l-.065.1c-.033.05-.065.1-.1.151l-.087.137c-.032.051-.063.1-.094.154l-.077.129q-.111.19-.215.384c-.026.048-.05.1-.075.144s-.051.1-.076.147q-.055.11-.108.22l-.029.061q-.065.138-.126.278l-.032.075q-.044.1-.087.207l-.038.094q-.04.1-.077.2l-.032.085q-.048.132-.093.265l-.008.022q-.048.143-.091.287c-.009.031-.018.062-.027.093-.019.066-.038.132-.056.2-.01.036-.019.073-.029.109q-.024.093-.046.185c-.009.036-.017.073-.025.109-.014.063-.028.127-.041.19-.007.034-.014.067-.02.1q-.024.124-.044.247l-.006.037q-.022.142-.04.282c0,.027-.006.053-.009.08-.008.067-.015.134-.02.2,0,.032-.005.064-.008.1q-.007.1-.012.19c0,.03,0,.061,0,.091,0,.09-.005.179-.005.268s0,.184.007.274c0,.026,0,.05,0,.076,0,.061.008.122.013.182,0,.035.007.069.011.1.006.051.011.1.018.151s.011.073.016.109.015.091.023.136.016.08.024.119.018.08.027.119.023.091.035.136.02.07.03.1c.016.054.034.106.052.158.01.028.019.057.03.084.033.087.068.172.107.253.029.062.06.123.092.182v0c.033.06.068.119.1.175l.023.033q.042.063.085.122l.036.047q.042.054.086.1l.033.039c.04.045.082.089.124.13l.018.017q.056.053.114.1l.043.035q.05.04.1.077l.043.031c.048.033.1.065.148.094l-8.03-4.666c-.05-.029-.1-.061-.148-.094l-.043-.031q-.052-.037-.1-.077L1.146,32q-.059-.049-.115-.1l-.018-.017c-.043-.041-.084-.085-.124-.13l-.033-.039q-.044-.051-.086-.1l-.036-.047Q.69,31.5.648,31.442l-.023-.033L.619,31.4q-.051-.08-.1-.165h0q-.047-.085-.09-.175l0-.009c-.038-.081-.074-.166-.107-.253l-.009-.022C.3,30.754.3,30.733.291,30.712c-.018-.052-.036-.1-.053-.158,0-.014-.01-.028-.014-.042S.214,30.47.208,30.45C.2,30.4.184,30.359.173,30.313c0-.019-.01-.037-.015-.056s-.008-.043-.013-.064q-.013-.059-.024-.119c0-.021-.009-.04-.012-.061S.1,29.964.1,29.939s-.011-.072-.016-.108c0-.019-.006-.037-.008-.055s-.006-.064-.01-.1-.008-.068-.011-.1l0-.041c0-.046-.006-.094-.009-.142,0-.025,0-.05,0-.075V29.3q-.005-.119-.006-.241v-.014Q.028,28.933.031,28.82Z"/><path class="d" d="M10.822,37.272c-1.716,0-2.786-1.364-2.792-3.562a11,11,0,0,1,4.982-8.629q.162-.092.322-.173a12.715,12.715,0,0,1,5.692-9.376,5.28,5.28,0,0,1,2.5-.788,15.738,15.738,0,0,1,6.658-9.091,6.542,6.542,0,0,1,3.236-.989,3.772,3.772,0,0,1,3.7,2.9A5.865,5.865,0,0,1,36.3,6.685a5.078,5.078,0,0,1,2.512-.768c1.728,0,2.912,1.3,3.093,3.4a3.575,3.575,0,0,1,1.824-.54c1.587,0,2.576,1.262,2.582,3.294a10.165,10.165,0,0,1-4.6,7.978L13.072,36.585A4.55,4.55,0,0,1,10.822,37.272Z"/><path class="d" d="M28.2,5.678a15.956,15.956,0,0,0-6.671,9.095,5.28,5.28,0,0,0-2.491.784,12.691,12.691,0,0,0-5.693,9.378c-.106.054-.213.11-.321.172a10.948,10.948,0,0,0-4.968,8.6c.009,3.163,2.247,4.439,5,2.85L41.7,20.027a10.121,10.121,0,0,0,4.592-7.953c-.008-2.841-1.962-4.034-4.407-2.752-.267-3.112-2.658-4.29-5.562-2.613a8.733,8.733,0,0,0-1.223.863C34.193,4.694,31.446,3.805,28.2,5.678Z"/></svg>