<svg xmlns="http://www.w3.org/2000/svg" xmlns:xlink="http://www.w3.org/1999/xlink" viewBox="0 0 168 168">
  <defs>
    <clipPath id="a">
      <rect width="168" height="168" style="fill: none"/>
    </clipPath>
    <linearGradient id="b" x1="86.662" y1="153.497" x2="86.269" y2="131.689" gradientUnits="userSpaceOnUse">
      <stop offset="0" stop-color="#f5ba89"/>
      <stop offset="0.272" stop-color="#f2b685"/>
      <stop offset="0.563" stop-color="#eba978"/>
      <stop offset="0.861" stop-color="#de9463"/>
      <stop offset="1" stop-color="#d68756"/>
    </linearGradient>
    <linearGradient id="c" x1="86.61" y1="120.695" x2="86.61" y2="137.125" gradientUnits="userSpaceOnUse">
      <stop offset="0" stop-color="#4c3c2e"/>
      <stop offset="1" stop-color="#33281f"/>
    </linearGradient>
    <clipPath id="d">
      <path d="M81.1,81.578s1.125,3.878.859,6.141c-4.191,2.1-8.073.956-12.44.234a13.971,13.971,0,0,1-.205-3.765A15.748,15.748,0,0,1,81.1,81.578Z" style="fill: none"/>
    </clipPath>
    <linearGradient id="e" x1="186.721" y1="75.007" x2="186.721" y2="63.575" gradientTransform="translate(-110.521 15.715)" gradientUnits="userSpaceOnUse">
      <stop offset="0" stop-color="#3d3025"/>
      <stop offset="0.995" stop-color="#614027"/>
    </linearGradient>
    <clipPath id="f">
      <path d="M93.388,82.051s3.621-1.565,5.979-1.269,5.43,3.111,5.43,3.111l-.4,3.219s-1.622,1.132-5.983,1.3a14.214,14.214,0,0,1-5.73-.719Z" style="fill: none"/>
    </clipPath>
    <linearGradient id="g" x1="-109.632" y1="148.968" x2="-109.632" y2="137.536" gradientTransform="translate(240.905 194.647) rotate(90)" xlink:href="#e"/>
    <linearGradient id="h" x1="87.851" y1="106.966" x2="87.851" y2="82.642" gradientUnits="userSpaceOnUse">
      <stop offset="0" stop-color="#e6945e"/>
      <stop offset="0.799" stop-color="#f5ba89"/>
    </linearGradient>
  </defs>
  <title>jonathan</title>
  <g style="clip-path: url(#a)">
    <g>
      <path d="M62.07,137.6s15.031-2.309,47.943-.611c.916,6.181-23.437,13.433-23.437,13.433S64.363,144.055,62.07,137.6Z" style="fill: #a3272b"/>
      <path d="M18.477,172.607s19.581-26.854,69.374-26.854,63.633,28.259,63.633,28.259-35.9,11.141-64.637,11.141S18.477,172.607,18.477,172.607Z" style="fill: #333"/>
      <path d="M65.857,125.374l-1.9,23.368s6.572,9.647,23.027,9.647,22.215-9.647,22.215-9.647l-2.718-23.368Z" style="fill: url(#b)"/>
      <path d="M66.2,46.983s-8.908,27.819-6.312,64.8c0,12.839,14.667,28.13,27.709,28.13s27.137-15.6,27.137-27.625c1.673-.182-5.29-64.261-6.964-64.08-1.215.132-14.876-5.3-19.971-5.3C74.348,42.908,66.2,46.983,66.2,46.983Z" style="fill: #f5ba89"/>
      <path d="M59.572,82.014s-4.479-1.712-8.453.428c-2.955,3.363.1,13.858.508,16.813a12.2,12.2,0,0,0,6.623,3.261Z" style="fill: #f2b887"/>
      <polygon points="53.824 97.147 53.096 96.065 59.266 91.912 53.069 87.243 53.853 86.202 61.513 91.971 53.824 97.147" style="fill: #d48856"/>
      <path d="M112.882,81.366s5.793-1.674,7.933-.655c2.547,2.955-.636,16-1.247,17.423a11.53,11.53,0,0,1-4.869,1.936Z" style="fill: #f2b887"/>
      <polygon points="119.001 95.071 111.784 91.606 118.51 84.647 119.448 85.553 113.978 91.213 119.567 93.896 119.001 95.071" style="fill: #d48856"/>
      <path d="M83.01,67.113c.566.506.579,4.165,0,5.341-4.143,1.685-18.441,2.373-17.933,2.348l-1.121-3.844,15.386-3.246,1.528,2.532.714-2.832Z" style="fill: #3d2d21"/>
      <path d="M84.742,67.113s-.153,4.075-.713,5.272C85.812,71.049,86.22,68.218,84.742,67.113Z" style="fill: #3d2d21"/>
      <path d="M93.4,67.412s-.023.019-.065.056c-.391.35-2.453,2.289-2.636,4.456A17.823,17.823,0,0,0,93.4,67.412Z" style="fill: #3d2d21"/>
      <path d="M95.492,67.412s-3.261,3.131-3.974,5c3.006,1.657,16.655,1.986,17.832,2.026a15.774,15.774,0,0,0,.6-3.022s-6.157-.937-8.806-1.743A46.927,46.927,0,0,1,95.492,67.412Z" style="fill: #3d2d21"/>
      <path d="M114.733,113.767c.555-5.717,1.482-19.869-1.979-34.112l-.635-.329-.129,13.655a28.546,28.546,0,0,0-7.064,4.483c-2.582,2.514-7.676,11.514-16.915,11.514S73.067,101.471,69.6,97.327a15.377,15.377,0,0,0-7.947-5.041L60.468,81.51l-.932.211c-.537,4.653-1.593,7.845-1.593,14.585s.662,12.157,1.121,19.165c0,12.839,15.633,24.584,28.676,24.584S114.733,125.79,114.733,113.767Z" style="fill: #f5ba89"/>
      <path d="M102.582,109.691l1.367,2.964A2.818,2.818,0,0,0,102.582,109.691Z" style="fill: #b37847"/>
      <path d="M66.834,109.7a4.572,4.572,0,0,1,.585-1.809,3.864,3.864,0,0,1,1.58-.662Z" style="fill: #b37847"/>
      <path d="M114.733,113.767c.555-5.717,1.482-19.869-1.979-34.112l-.635-.329-.129,13.655a28.546,28.546,0,0,0-7.064,4.483c-2.582,2.514-7.676,11.514-16.915,11.514S73.067,101.471,69.6,97.327a15.377,15.377,0,0,0-7.947-5.041L60.468,81.51l-.932.211c-.537,4.653-1.593,7.845-1.593,14.585s.662,12.157,1.121,19.165c0,12.839,15.633,24.584,28.676,24.584S114.733,125.79,114.733,113.767Z" style="opacity: 0.30000000000000004;fill: url(#c)"/>
      <g style="opacity: 0.4">
        <rect x="60.407" y="97.431" width="3.327" height="1.305" transform="translate(-53.557 108.255) rotate(-62.7)" style="fill: #423228"/>
        <rect x="62.448" y="103.597" width="2.949" height="1.304" transform="translate(-58.238 109.806) rotate(-61.089)" style="fill: #423228"/>
        <rect x="68.625" y="101.661" width="2.768" height="1.304" transform="translate(-48.185 139.719) rotate(-73.179)" style="fill: #423228"/>
        <rect x="73.374" y="107.498" width="2.949" height="1.304" transform="translate(-51.187 70.55) rotate(-38.702)" style="fill: #423228"/>
        <rect x="80.308" y="109.588" width="1.941" height="1.305" transform="translate(-47.354 157.282) rotate(-73.687)" style="fill: #423228"/>
        <rect x="86.33" y="110.241" width="1.305" height="2.414" style="fill: #423228"/>
        <rect x="93.057" y="109.095" width="1.305" height="1.957" transform="matrix(0.781, -0.625, 0.625, 0.781, -48.228, 82.66)" style="fill: #423228"/>
        <rect x="100.497" y="105.926" width="1.304" height="2.789" transform="translate(-45.292 124.751) rotate(-53.484)" style="fill: #423228"/>
        <rect x="105.216" y="101.469" width="1.305" height="3.317" transform="translate(-41.691 111.483) rotate(-47.49)" style="fill: #423228"/>
        <rect x="63.875" y="114.194" width="2.882" height="1.303" transform="translate(-62.07 79.795) rotate(-44.987)" style="fill: #423228"/>
        <rect x="60.589" y="111.103" width="2.911" height="1.304" transform="translate(-65.025 97.904) rotate(-54.741)" style="fill: #423228"/>
        <rect x="64.759" y="122.447" width="3.713" height="1.305" transform="translate(-67.915 84.465) rotate(-45.557)" style="fill: #423228"/>
        <rect x="72.327" y="121.137" width="2.211" height="1.304" transform="translate(-68.319 110.331) rotate(-54.291)" style="fill: #423228"/>
        <rect x="73.095" y="128.594" width="3.867" height="1.304" transform="translate(-71.31 159.559) rotate(-71.567)" style="fill: #423228"/>
        <rect x="80.505" y="125.402" width="2.81" height="1.304" transform="translate(-60.939 172.885) rotate(-75.136)" style="fill: #423228"/>
        <rect x="83.751" y="133.595" width="1.304" height="3.396" style="fill: #423228"/>
        <rect x="88.812" y="129.24" width="1.305" height="4.361" transform="translate(-9.971 7.373) rotate(-4.47)" style="fill: #423228"/>
        <rect x="93.94" y="123.067" width="1.305" height="2.645" transform="translate(-58.873 94.915) rotate(-41.877)" style="fill: #423228"/>
        <rect x="101.362" y="126.709" width="1.304" height="2.833" transform="translate(-57.055 89.136) rotate(-37.701)" style="fill: #423228"/>
        <rect x="96.651" y="132.747" width="1.304" height="2.441" transform="translate(-66.619 110.628) rotate(-45.905)" style="fill: #423228"/>
        <rect x="103.111" y="115.779" width="1.304" height="2.074" transform="translate(-50.107 143.959) rotate(-58.391)" style="fill: #423228"/>
        <rect x="110.176" y="115.097" width="1.304" height="3.437" transform="matrix(0.316, -0.949, 0.949, 0.316, -35.035, 185.027)" style="fill: #423228"/>
        <rect x="107.493" y="121.918" width="1.304" height="3.177" transform="translate(-54.702 102.766) rotate(-41.536)" style="fill: #423228"/>
        <rect x="109.36" y="107.73" width="1.305" height="2" transform="translate(-42.349 135.395) rotate(-54.591)" style="fill: #423228"/>
        <rect x="111.498" y="98.554" width="1.304" height="2.251" transform="translate(-20.247 170.283) rotate(-69.701)" style="fill: #423228"/>
      </g>
      <path d="M68.1,108.256s4.668,12.968,15.468,14.327c10.991,1.382,19.856-11.482,19.856-11.482S92.35,116.342,85.591,116,68.1,108.256,68.1,108.256Z" style="fill: #996d50"/>
      <path d="M67.76,108.256s10.393,5.775,18.341,5.775,17.322-3.193,17.322-3.193S96.7,120.28,85.591,120.28,67.76,108.256,67.76,108.256Z" style="fill: #fff"/>
      <path d="M59.05,84.658a118.534,118.534,0,0,1-1.107-37.653l5.978-5.638s7.2-6.215,22.416-8.118c16.1-.713,27.676,15.182,27.676,15.182l.5,7.6s1.158,16.351-1.56,25.86c-2.989-7.2-5.66-23.257-6.341-32.682-3.159.684-10.665,2.994-18.647,3.741-9.85-1.257-21.295-3.593-21.295-3.593l-5.5,29.826Z" style="fill: #3d2d21"/>
      <g>
        <path d="M81.1,81.578s1.125,3.878.859,6.141c-4.191,2.1-8.073.956-12.44.234a13.971,13.971,0,0,1-.205-3.765A15.748,15.748,0,0,1,81.1,81.578Z" style="fill: #fff"/>
        <g style="clip-path: url(#d)">
          <circle cx="76.2" cy="85.373" r="4.645" transform="translate(-5.18 4.922) rotate(-3.578)" style="fill: url(#e)"/>
        </g>
        <path d="M69.313,84.188a10.908,10.908,0,0,1,7.16-3.919c3.945-.6,5.149.335,5.149.335l-.371,1.618s-1.444-.886-4.593-.638S69.313,84.188,69.313,84.188Z" style="fill: #523c2a"/>
      </g>
      <g>
        <path d="M93.388,82.051s3.621-1.565,5.979-1.269,5.43,3.111,5.43,3.111l-.4,3.219s-1.622,1.132-5.983,1.3a14.214,14.214,0,0,1-5.73-.719Z" style="fill: #fff"/>
        <g style="clip-path: url(#f)">
          <circle cx="97.992" cy="85.015" r="4.644" transform="translate(1.443 171.666) rotate(-82.851)" style="fill: url(#g)"/>
        </g>
        <path d="M93.388,82.051l-.537-1.376a12.713,12.713,0,0,1,6.479-.959c3.572.448,5.467,4.176,5.467,4.176a10.9,10.9,0,0,0-5.472-2.774A12.524,12.524,0,0,0,93.388,82.051Z" style="fill: #523c2a"/>
      </g>
      <path d="M90.7,80.168l.535,22.012s6.242-2.041,6.141,1.118-6.013,6.012-9.172,6.012-9.883-2.445-9.883-5.3,5.706-1.321,5.706-1.321L84.02,79.658Z" style="fill: url(#h)"/>
      <g>
        <path d="M62.387,72.787l-4.722,2.679c.091.463.064.977.16,1.408l4.244-2.408Z" style="fill: #2e231c"/>
        <path d="M56.959,60.621c2.925-.293,5.023-.6,7.877-.713l.249-1.314c-2.885.1-5.1.321-8.079.617C56.961,59.656,56.994,60.183,56.959,60.621Z" style="fill: #2e231c"/>
        <path d="M65.623,48.914l-.362.024,1.116,1.778.265-1.394.417.027-.756-1.2C65.866,48.632,65.623,48.914,65.623,48.914Z" style="fill: #2e231c"/>
        <path d="M98.148,51.261a79.609,79.609,0,0,0,7.788-10.9c-.086-.232-1.006-.771-1.006-.771A59.393,59.393,0,0,1,96.4,51.646,12.9,12.9,0,0,0,98.148,51.261Z" style="fill: #2e231c"/>
        <path d="M79.515,51.538c4.135-8.19,4.106-12.481,5.057-18.051l-1.291.221S81.957,43.779,78.1,51.458Z" style="fill: #2e231c"/>
        <path d="M114.015,62.163c-.033-.455-.067-.895-.1-1.311l-5.74,1.188q.1.642.209,1.288Z" style="fill: #2e231c"/>
      </g>
      <path d="M71.155,64.305s1.837-.725,4.652-1.61c1.409-.441,3.058-.933,4.844-1.4.891-.237,1.817-.473,2.766-.683.94-.229,1.922-.406,2.9-.591a12.032,12.032,0,0,1,1.538-.177l.393-.03.2-.014.049,0a.546.546,0,0,1,.066,0l.01,0,.023,0,.09.014.719.11a9.816,9.816,0,0,1,1.442.322c.476.131.963.247,1.4.394,1.774.55,3.394,1.143,4.765,1.692,2.749,1.082,4.515,1.966,4.515,1.966s-1.918-.473-4.752-1.256l-2.288-.623c-1.128-.324-.485-.1-2.549-.673-.788-.225-.326-.079-1.318-.307a12.457,12.457,0,0,0-1.363-.264l-.72-.1-.09-.013-.023,0-.011,0c-.015,0,.093.008.042,0l-.042,0-.168.018-.336.035a11.3,11.3,0,0,0-1.377.181c-.952.166-1.9.321-2.845.534l-2.767.568-2.592.536c-.824.178-1.606.33-2.328.47C73.108,64,71.155,64.305,71.155,64.305Z" style="fill: #eda779"/>
      <path d="M73.358,59.109s1.84-.565,4.648-1.192c.7-.154,1.461-.334,2.272-.482s1.661-.339,2.552-.47,1.8-.313,2.756-.4c.476-.049.945-.116,1.436-.151l1.5-.068,2.87.306c.935.076,1.86.271,2.751.409,1.785.3,3.446.6,4.845.919,2.813.6,4.663,1.13,4.663,1.13s-1.922-.1-4.778-.391c-1.431-.152-3.086-.31-4.851-.517-.884-.1-1.787-.22-2.73-.3l-2.81-.258-1.368.043c-.459.024-.932.084-1.392.124-.923.081-1.843.188-2.728.287l-4.861.551C75.278,58.972,73.358,59.109,73.358,59.109Z" style="fill: #eda779"/>
      <path d="M84.836,72.787s.173-.583.5-1.371.786-1.81,1.252-2.8c.228-.5.457-.993.672-1.46.093-.236.2-.46.3-.677.079-.219.17-.425.256-.617.131-.389.282-.72.347-.962.083-.241.142-.387.142-.387s.051.139.117.4a2.55,2.55,0,0,1,.089.47c.017.182.037.392.04.619a7.308,7.308,0,0,1-.194,1.527,9.329,9.329,0,0,1-.586,1.641,10.249,10.249,0,0,1-.861,1.495,9.935,9.935,0,0,1-.949,1.165A6.2,6.2,0,0,1,84.836,72.787Z" style="fill: #eda779"/>
      <path d="M67.76,84.658a3.26,3.26,0,0,1-.861.026,5.294,5.294,0,0,1-1.678-.435,5.23,5.23,0,0,1-1.452-.945,3.266,3.266,0,0,1-.56-.657,3.262,3.262,0,0,1,.863-.028A5.39,5.39,0,0,1,67.2,84,3.262,3.262,0,0,1,67.76,84.658Z" style="fill: #eda779"/>
      <path d="M67.76,87.537a2.406,2.406,0,0,1-.535.463,3.265,3.265,0,0,1-1.264.486,3.221,3.221,0,0,1-1.352-.064,2.375,2.375,0,0,1-.654-.274,2.377,2.377,0,0,1,.534-.465,3.294,3.294,0,0,1,2.617-.419A2.39,2.39,0,0,1,67.76,87.537Z" style="fill: #eda779"/>
      <path d="M105.869,83.122a3.415,3.415,0,0,1,.685-.554,5.678,5.678,0,0,1,3.409-.849,3.387,3.387,0,0,1,.866.171,3.347,3.347,0,0,1-.685.556,5.486,5.486,0,0,1-1.638.693,5.543,5.543,0,0,1-1.772.153A3.421,3.421,0,0,1,105.869,83.122Z" style="fill: #eda779"/>
      <path d="M106.242,86.046a2.348,2.348,0,0,1,.647-.261,3.167,3.167,0,0,1,2.551.463,2.332,2.332,0,0,1,.513.474,2.327,2.327,0,0,1-.647.263,3.1,3.1,0,0,1-1.325.04,3.141,3.141,0,0,1-1.225-.506A2.341,2.341,0,0,1,106.242,86.046Z" style="fill: #eda779"/>
      <path d="M62.07,137.6l-4.636,10.869s.144,4.075,6.521,8.864a36.761,36.761,0,0,0,12.635,5.91l6.657-15.181A53.163,53.163,0,0,1,62.07,137.6Z" style="fill: #eb343a"/>
      <path d="M92.758,145.85l9.825,13.014s10.38-6.929,12.523-10.936c-1.7-7.609-5.093-10.937-5.093-10.937Z" style="fill: #eb343a"/>
      <path d="M83.248,148.064l4.6,10.314,4.907-12.528,7.508,9.946s-4.314,3.068-12.416,3.068c-6.844,0-8.772-1.292-8.772-1.292Z" style="fill: #b32d31"/>
    </g>
  </g>
</svg>
