<svg xmlns="http://www.w3.org/2000/svg" xmlns:xlink="http://www.w3.org/1999/xlink" viewBox="0 0 168 168">
  <defs>
    <clipPath id="a">
      <rect width="168" height="168" style="fill: none"/>
    </clipPath>
    <linearGradient id="b" x1="81.49" y1="87.146" x2="87.253" y2="100.401" gradientUnits="userSpaceOnUse">
      <stop offset="0" stop-color="#fff"/>
      <stop offset="1" stop-color="#e6ba9c"/>
    </linearGradient>
  </defs>
  <title>larry</title>
  <g style="isolation: isolate">
    <g style="clip-path: url(#a)">
      <g>
        <g>
          <path d="M145.206,186.618c-2.287-10.159-6.77-24.756-6.77-24.756.137-1.414-40.968-15.537-53.939-13.393-18.623.807-54.2,10.544-53.95,12.525a91.588,91.588,0,0,0-8.419,25.624Z" style="fill: #38291f"/>
          <path d="M71.151,118.523l.084,32.543s8.391,7.961,13.674,7.961c4.414,0,12.848-10.5,12.848-10.5v-30.88Z" style="fill: #cf8953"/>
          <polygon points="71.235 151.066 75.052 173.698 93.501 171.351 97.757 146.89 85.606 151.625 71.235 151.066" style="fill: #e3e3e3"/>
          <polygon points="71.235 142.946 84.453 146.89 97.757 142.224 101.596 150.163 84.461 157.91 69.294 151.619 71.235 142.946" style="fill: #ededed"/>
          <polygon points="84.453 146.89 80.835 155.395 83.865 160.702 77.866 190.385 90.3 189.744 86.025 160.702 88.958 154.276 84.453 146.89" style="fill: #ff3339"/>
          <polygon points="62.669 179.778 65.543 153.403 66.637 153.511 63.881 178.68 62.669 179.778" style="fill: #120802"/>
          <polygon points="104.597 180.647 105.591 151.495 106.69 151.532 105.67 181.432 104.597 180.647" style="fill: #120802"/>
        </g>
        <g>
          <path d="M58.436,90.775c0,5.484-.7,9.928-3.257,9.928s-5.993-4.444-5.993-9.928,2.4-9.928,4.95-9.928S58.436,85.292,58.436,90.775Z" style="fill: #e09767"/>
          <path d="M54.753,94.175a3.582,3.582,0,0,1-1.2-1.826,4.774,4.774,0,0,1-.2-1.112,5.046,5.046,0,0,1-.01-.568,4.956,4.956,0,0,1,.04-.567,6.055,6.055,0,0,1,.208-1.126,4.4,4.4,0,0,1,.469-1.107,3.176,3.176,0,0,1,.882-.943,2.617,2.617,0,0,1,.61-.315,2.245,2.245,0,0,1,.742-.142h.022l-.622.906a7.878,7.878,0,0,0-.435-.891,5.791,5.791,0,0,0-.556-.816,2.335,2.335,0,0,0-.324-.343,1.421,1.421,0,0,0-.355-.264c-.122-.1-.248-.092-.377-.147a1.556,1.556,0,0,0-.391.023,2.564,2.564,0,0,0-.391.2l-.365.321a6.256,6.256,0,0,0-.591.848,9.354,9.354,0,0,0-.478.952l-.406,1,.257-1.051a9.57,9.57,0,0,1,.343-1.037,6.61,6.61,0,0,1,.5-1l.383-.453a2.881,2.881,0,0,1,.519-.365,2.1,2.1,0,0,1,.661-.143,1.975,1.975,0,0,1,.654.134,2.183,2.183,0,0,1,.561.294,3.154,3.154,0,0,1,.477.373,6.746,6.746,0,0,1,.794.858,8.988,8.988,0,0,1,.659.963l-.622.906h0a1.027,1.027,0,0,0-.327.016,1.474,1.474,0,0,0-.377.127,2.134,2.134,0,0,0-.677.541,3.526,3.526,0,0,0-.5.827,5.245,5.245,0,0,0-.33.972,4.242,4.242,0,0,0-.112.507,4.5,4.5,0,0,0-.067.515,4.384,4.384,0,0,0,.034,1.04A3.426,3.426,0,0,0,54.753,94.175Z" style="fill: #c97843"/>
          <path d="M107.289,90.624c0,5.484.633,9.929,2.935,9.929s5.4-4.445,5.4-9.929-2.158-9.927-4.459-9.927S107.289,85.142,107.289,90.624Z" style="fill: #e09767"/>
          <path d="M110.607,94.024a3.4,3.4,0,0,0,.455-.932,4.274,4.274,0,0,0,.195-.986,4.915,4.915,0,0,0,0-.99c-.024-.165-.028-.328-.061-.491a4.608,4.608,0,0,0-.094-.483c-.043-.165-.072-.359-.126-.5s-.08-.3-.14-.451a3.691,3.691,0,0,0-.4-.829,2.072,2.072,0,0,0-.548-.6,1.284,1.284,0,0,0-.322-.161,1.177,1.177,0,0,0-.267-.052l-.933-.137.328-.7a9.179,9.179,0,0,1,.533-.979,6.031,6.031,0,0,1,.675-.906,3.206,3.206,0,0,1,.983-.755,1.526,1.526,0,0,1,1.432.028,1.8,1.8,0,0,1,.511.422,2.534,2.534,0,0,1,.343.487,5.469,5.469,0,0,1,.423,1.018,9.618,9.618,0,0,1,.369,2.08c-.3-.634-.572-1.269-.907-1.85a5.205,5.205,0,0,0-.534-.812,2.714,2.714,0,0,0-.306-.316.905.905,0,0,0-.311-.194.6.6,0,0,0-.552.075,2.2,2.2,0,0,0-.6.559,7.131,7.131,0,0,0-.529.773,8.1,8.1,0,0,0-.434.848l-.6-.837a1.909,1.909,0,0,1,.768.125,2.466,2.466,0,0,1,.611.326,2.952,2.952,0,0,1,.484.452,2.9,2.9,0,0,1,.36.518,4.783,4.783,0,0,1,.433,1.106c.057.184.085.382.125.571s.04.358.062.539.031.39.033.565a4.55,4.55,0,0,1-.016.564,5.409,5.409,0,0,1-.211,1.108A3.374,3.374,0,0,1,110.607,94.024Z" style="fill: #c97843"/>
        </g>
        <path d="M55.084,45.8c-.9-.5.818,59.6,8.758,78.428,18.2,21.767,29.2,10.989,39.992-2.743,2.42.185,8.3-76.974,5.882-77.159,0,0-7.289-15.568-25.451-15.568C65.9,28.758,55.084,45.8,55.084,45.8Z" style="fill: #f5ba89"/>
        <g>
          <g style="mix-blend-mode: multiply">
            <path d="M64.313,56.615s.581-.145,1.606-.364,2.49-.531,4.261-.831,3.838-.654,6.066-.945l3.441-.4c1.175-.111,2.365-.258,3.562-.343,2.393-.162,4.791-.287,7.044-.286.563,0,1.116-.018,1.658,0l1.588.078c1.032.031,2.005.128,2.9.228.448.05.879.08,1.285.142l1.148.22a13.8,13.8,0,0,1,1.849.418l1.574.489-1.61-.335a13.675,13.675,0,0,0-1.859-.272c-.72-.093-1.532-.172-2.426-.2-.891-.057-1.855-.108-2.881-.09-1.023-.014-2.1,0-3.218.037-2.233.032-4.614.2-6.991.391-1.191.066-2.378.194-3.549.286l-3.433.349c-2.224.259-4.306.461-6.083.7Z" style="fill: #e8d7cc"/>
          </g>
          <g style="mix-blend-mode: multiply">
            <path d="M64.313,48.587s.549-.087,1.514-.206,2.344-.292,4.006-.425,3.6-.3,5.682-.391,4.306-.144,6.532-.155c1.113.029,2.226.03,3.321.086s2.173.081,3.214.178c1.042.074,2.048.163,3,.31.95.124,1.848.246,2.668.425a16.634,16.634,0,0,1,2.224.52,13.691,13.691,0,0,1,1.676.539l1.4.615L98.1,49.62a13.523,13.523,0,0,0-1.7-.394c-.653-.157-1.409-.246-2.228-.362-.816-.135-1.711-.211-2.657-.286-.943-.1-1.946-.124-2.979-.2s-2.105-.084-3.193-.124-2.2-.018-3.3-.033c-2.213-.026-4.428-.006-6.5.046l-5.679.141Z" style="fill: #e8d7cc"/>
          </g>
          <g style="mix-blend-mode: multiply">
            <path d="M63.4,77.93a6.97,6.97,0,0,1-.9-.1,10.683,10.683,0,0,1-3.578-1.4,6.854,6.854,0,0,1-.728-.536,6.858,6.858,0,0,1,.9.1,10.677,10.677,0,0,1,3.577,1.4A6.964,6.964,0,0,1,63.4,77.93Z" style="fill: #e8d7cc"/>
          </g>
          <g style="mix-blend-mode: multiply">
            <path d="M63.4,80.285a8.292,8.292,0,0,1-.935.32,12.923,12.923,0,0,1-4.21.387,8.153,8.153,0,0,1-.978-.146,8.141,8.141,0,0,1,.936-.321,12.923,12.923,0,0,1,4.21-.385A8.289,8.289,0,0,1,63.4,80.285Z" style="fill: #e8d7cc"/>
          </g>
          <g style="mix-blend-mode: multiply">
            <path d="M103.854,77.93a3.127,3.127,0,0,1,.388-.441,4.13,4.13,0,0,1,2.145-1.014,3.1,3.1,0,0,1,.588-.018,3.1,3.1,0,0,1-.387.442,4.128,4.128,0,0,1-2.146,1.012A3.138,3.138,0,0,1,103.854,77.93Z" style="fill: #e8d7cc"/>
          </g>
          <g style="mix-blend-mode: multiply">
            <path d="M104.31,80.285a3.01,3.01,0,0,1,.555-.142,3.9,3.9,0,0,1,2.272.385,2.967,2.967,0,0,1,.477.319,2.958,2.958,0,0,1-.556.143,3.9,3.9,0,0,1-2.272-.387A3.008,3.008,0,0,1,104.31,80.285Z" style="fill: #e8d7cc"/>
          </g>
          <g style="mix-blend-mode: multiply">
            <path d="M85.265,66.05a7.71,7.71,0,0,1-.119-.947,11.988,11.988,0,0,1,.5-4.042,7.62,7.62,0,0,1,.346-.89,7.633,7.633,0,0,1,.12.947c.035.564-.076,2.042-.076,2.042s-.251,1.461-.422,2A7.734,7.734,0,0,1,85.265,66.05Z" style="fill: #e8d7cc"/>
          </g>
          <g style="mix-blend-mode: multiply">
            <path d="M80.882,75.606a.965.965,0,0,1,.168-.212,2.4,2.4,0,0,1,.58-.42,4.121,4.121,0,0,1,2.1-.4,5.367,5.367,0,0,1,2.639.845,2.51,2.51,0,0,1,.219.149s-.1.008-.266,0l-.677-.034c-.277-.012-.591-.05-.925-.074s-.685-.064-1.034-.075a10.533,10.533,0,0,0-1.91.025A3.561,3.561,0,0,0,80.882,75.606Z" style="fill: #e8d7cc"/>
          </g>
        </g>
        <g>
          <path d="M63.9,78.551s6.377-5.408,12.754-2.04C73.7,77.735,63.9,78.551,63.9,78.551Z" style="fill: #59341b"/>
          <circle cx="71.864" cy="80.697" r="4.654" style="fill: #59341b"/>
          <path d="M103.392,78.551s-6.377-5.408-12.754-2.04C93.6,77.735,103.392,78.551,103.392,78.551Z" style="fill: #59341b"/>
          <circle cx="95.433" cy="80.697" r="4.654" style="fill: #59341b"/>
        </g>
        <path d="M85.025,79.062S83.3,98.447,87.451,95.284s4.869,4.591,4.869,4.591a10.311,10.311,0,0,1-5.222,2.374,28.42,28.42,0,0,1-6.091,0V84.4Z" style="mix-blend-mode: multiply;fill: url(#b)"/>
        <g>
          <path d="M76.947,62.682a28.354,28.354,0,0,1,4.571.613l-.568,2.381c-.112-.027-11.27-2.585-18.274,3.273L61.106,67.07C66.083,62.908,72.624,62.427,76.947,62.682Z" style="fill: #d8d8d8"/>
          <path d="M90.165,62.575c8.209-.386,15.392,4.921,15.741,5.183l-1.47,1.959c-.089-.068-9-6.629-17.527-4.138l-.687-2.351A16.824,16.824,0,0,1,90.165,62.575Z" style="fill: #d8d8d8"/>
        </g>
        <g>
          <path d="M109.861,80.892l-1.47.746-1.808,13.2S93.1,102.249,86.07,102.249c-14.206,0-27.374-7.408-27.374-7.408L56.559,82.459H55.433s0,.11-.015.308c2.017,16.147,4.915,33.332,7.191,41.461,18.2,21.767,31.217,13.332,42-.4C104.831,123.322,108.338,101.713,109.861,80.892Z" style="fill: #f5ba89"/>
          <path d="M109.861,80.892l-1.47.746-1.808,13.2S93.1,102.249,86.07,102.249c-14.206,0-27.374-7.408-27.374-7.408L56.559,82.459H55.433s0,.11-.015.308c.487,3.9-.488,8.686.081,12.567,1.786,12.179,5.383,22.73,7.109,28.894,18.2,21.767,31.217,13.332,42-.4a205,205,0,0,0,5.137-28.672C110.25,90.522,109.508,85.713,109.861,80.892Z" style="fill: #f5ba89"/>
          <path d="M109.861,80.892l-1.47.746-1.808,13.2S93.1,102.249,86.07,102.249c-14.206,0-27.374-7.408-27.374-7.408L56.559,82.459H55.433s0,.11-.015.308c.487,3.9-.488,8.686.081,12.567,1.786,12.179,5.383,22.73,7.109,28.894,18.2,21.767,31.217,13.332,42-.4a205,205,0,0,0,5.137-28.672C110.25,90.522,109.508,85.713,109.861,80.892Z" style="fill: #dcdcdc;mix-blend-mode: multiply"/>
          <rect x="58.65" y="97.387" width="0.817" height="3.207" transform="translate(-20.55 15.626) rotate(-12.859)" style="fill: #dbdbdb;mix-blend-mode: multiply"/>
          <rect x="60.996" y="102.814" width="0.817" height="3.75" transform="translate(-23.771 18.228) rotate(-14.177)" style="fill: #dbdbdb;mix-blend-mode: multiply"/>
          <rect x="64.415" y="100.524" width="0.816" height="3.157" transform="translate(-18.557 14.497) rotate(-11.174)" style="fill: #dbdbdb;mix-blend-mode: multiply"/>
          <rect x="60.248" y="111.377" width="0.816" height="2.915" transform="translate(-21.186 14.282) rotate(-11.446)" style="fill: #dbdbdb;mix-blend-mode: multiply"/>
          <rect x="63.956" y="112.18" width="0.815" height="5.084" transform="translate(-19.672 13.52) rotate(-10.411)" style="fill: #dbdbdb;mix-blend-mode: multiply"/>
          <rect x="66.425" y="108.959" width="0.816" height="2.505" transform="translate(-30.038 25.187) rotate(-17.493)" style="fill: #dbdbdb;mix-blend-mode: multiply"/>
          <rect x="73.375" y="102.724" width="2.181" height="0.815" transform="translate(-47.346 139.781) rotate(-70.914)" style="fill: #dbdbdb;mix-blend-mode: multiply"/>
          <rect x="68.992" y="101.305" width="3.144" height="0.816" transform="translate(-52.108 85.089) rotate(-47.531)" style="fill: #dbdbdb;mix-blend-mode: multiply"/>
          <rect x="77.038" y="104.281" width="3.667" height="0.817" transform="translate(-35.161 169.32) rotate(-82.55)" style="fill: #dbdbdb;mix-blend-mode: multiply"/>
          <rect x="82.986" y="103.651" width="0.816" height="3.355" style="fill: #dbdbdb;mix-blend-mode: multiply"/>
          <polygon points="88.897 106.156 87.034 103.358 87.712 102.905 89.576 105.703 88.897 106.156" style="fill: #dbdbdb;mix-blend-mode: multiply"/>
          <rect x="92.505" y="101.962" width="0.815" height="2.577" transform="translate(-36.615 53.091) rotate(-26.848)" style="fill: #dbdbdb;mix-blend-mode: multiply"/>
          <rect x="95.773" y="100.187" width="0.816" height="1.893" transform="translate(-42.666 115.286) rotate(-52.258)" style="fill: #dbdbdb;mix-blend-mode: multiply"/>
          <rect x="101.555" y="98.039" width="0.816" height="3.673" style="fill: #dbdbdb;mix-blend-mode: multiply"/>
          <rect x="106.624" y="94.111" width="3.006" height="0.817" transform="translate(-3.881 184.406) rotate(-79.905)" style="fill: #dbdbdb;mix-blend-mode: multiply"/>
          <rect x="103.57" y="100.211" width="3.317" height="0.816" transform="translate(-13.118 185.42) rotate(-79.341)" style="fill: #dbdbdb;mix-blend-mode: multiply"/>
          <rect x="106.759" y="104.689" width="0.816" height="3.757" style="fill: #dbdbdb;mix-blend-mode: multiply"/>
          <rect x="101.043" y="107.48" width="3.983" height="0.817" transform="translate(-21.634 189.826) rotate(-79.633)" style="fill: #dbdbdb;mix-blend-mode: multiply"/>
          <rect x="72.476" y="114.205" width="0.816" height="4.603" transform="translate(-23.995 19.037) rotate(-12.796)" style="fill: #dbdbdb;mix-blend-mode: multiply"/>
          <rect x="69.484" y="117.792" width="0.816" height="3.756" transform="matrix(0.978, -0.208, 0.208, 0.978, -23.368, 17.16)" style="fill: #dbdbdb;mix-blend-mode: multiply"/>
          <rect x="64.109" y="120.494" width="0.816" height="4.066" transform="matrix(0.954, -0.301, 0.301, 0.954, -33.903, 25.116)" style="fill: #dbdbdb;mix-blend-mode: multiply"/>
          <rect x="69.437" y="124.925" width="0.815" height="3.876" transform="translate(-26.906 19.105) rotate(-13.084)" style="fill: #dbdbdb;mix-blend-mode: multiply"/>
          <rect x="78.227" y="116.099" width="0.816" height="3.571" style="fill: #dbdbdb;mix-blend-mode: multiply"/>
          <rect x="74.644" y="110.864" width="0.816" height="2.716" transform="translate(-41.125 43.452) rotate(-25.603)" style="fill: #dbdbdb;mix-blend-mode: multiply"/>
          <rect x="93.663" y="110.517" width="4.152" height="0.817" transform="translate(-43.92 155.262) rotate(-66.815)" style="fill: #dbdbdb;mix-blend-mode: multiply"/>
          <rect x="82.609" y="114.678" width="0.816" height="3.251" transform="translate(-24.677 22.387) rotate(-13.39)" style="fill: #dbdbdb;mix-blend-mode: multiply"/>
          <rect x="87.895" y="114.263" width="0.816" height="5.407" style="fill: #dbdbdb;mix-blend-mode: multiply"/>
          <rect x="90.813" y="117.476" width="3.618" height="0.817" transform="translate(-38.63 190.331) rotate(-80.741)" style="fill: #dbdbdb;mix-blend-mode: multiply"/>
          <rect x="97.186" y="115.334" width="3.115" height="0.815" transform="translate(-42.068 173.348) rotate(-71.781)" style="fill: #dbdbdb;mix-blend-mode: multiply"/>
          <rect x="101.72" y="116.558" width="5.484" height="0.816" transform="translate(-28.42 200.246) rotate(-80.308)" style="fill: #dbdbdb;mix-blend-mode: multiply"/>
          <polygon points="99.147 125.636 98.338 125.54 98.826 121.459 99.636 121.555 99.147 125.636" style="fill: #dbdbdb;mix-blend-mode: multiply"/>
          <rect x="91.912" y="125.128" width="4.084" height="0.817" transform="translate(-49.54 188.751) rotate(-76.964)" style="fill: #dbdbdb;mix-blend-mode: multiply"/>
          <rect x="86.607" y="122.475" width="0.817" height="2.551" transform="translate(-31.184 29.332) rotate(-16.269)" style="fill: #dbdbdb;mix-blend-mode: multiply"/>
          <rect x="80.078" y="123.527" width="0.815" height="3.356" transform="translate(-18.088 13.682) rotate(-8.739)" style="fill: #dbdbdb;mix-blend-mode: multiply"/>
          <rect x="76.099" y="125.473" width="0.816" height="3.342" transform="translate(-31.97 25.893) rotate(-15.936)" style="fill: #dbdbdb;mix-blend-mode: multiply"/>
          <rect x="82.239" y="129.465" width="3.183" height="0.816" transform="translate(-64.047 174.892) rotate(-74.09)" style="fill: #dbdbdb;mix-blend-mode: multiply"/>
          <rect x="77.399" y="132.383" width="0.817" height="3.245" transform="translate(-76.136 116.315) rotate(-53.304)" style="fill: #dbdbdb;mix-blend-mode: multiply"/>
          <polygon points="89.632 133.649 88.842 133.443 89.937 129.259 90.727 129.465 89.632 133.649" style="fill: #dbdbdb;mix-blend-mode: multiply"/>
          <rect x="94.973" y="129.16" width="2.723" height="0.816" transform="translate(-62.325 159.485) rotate(-64.047)" style="fill: #dbdbdb;mix-blend-mode: multiply"/>
          <rect x="102.001" y="123.114" width="4.311" height="0.816" transform="translate(-48.331 176.941) rotate(-69.168)" style="fill: #dbdbdb;mix-blend-mode: multiply"/>
        </g>
        <g>
          <path d="M84.282,110.632A27.256,27.256,0,0,1,69.8,106.043l.965-1.317c.579.424,14.37,10.27,26.942-1.169l1.1,1.208A21.075,21.075,0,0,1,84.282,110.632Z" style="fill: #26160c"/>
          <path d="M69.448,107.006s-.544-2.778,2.178-2.538A18.1,18.1,0,0,1,69.448,107.006Z" style="fill: #26160c"/>
          <path d="M96.93,102.971l2.109,2.959a2.8,2.8,0,0,0-.2-2.416A1.7,1.7,0,0,0,96.93,102.971Z" style="fill: #26160c"/>
        </g>
        <g>
          <path d="M58.3,72.472l-3.6,9.052.827,1.387,3.418-3.391S59.061,73.034,58.3,72.472Z" style="fill: #d9030a"/>
          <path d="M80.944,73.779C78.005,73,58.8,72.769,58.8,72.769s.974,11.941,1.85,13.7c.485.1,15.792.663,18.156.077C79.22,86.251,81.345,78.074,80.944,73.779Z" style="opacity: 0.1"/>
          <path d="M59.9,83.117s12.582-6.582,21.1-7.39a8.644,8.644,0,0,1-.055-1.948l-21.78-.816Z" style="fill: #fff;opacity: 0.1"/>
          <path d="M81.447,73.493C78.374,72.676,58.3,72.472,58.3,72.472S59.314,84.92,60.23,86.757c.508.1,16.511.693,18.983.082C79.644,86.532,81.866,77.982,81.447,73.493ZM78.363,86.214c-.408.2-16.8.339-17.312,0-.782-3.2-.915-13.118-.915-13.118s20.131,1.078,20.2,1.281C80.539,75.4,78.5,85.873,78.363,86.214Z" style="fill: #d9030a"/>
          <path d="M108.524,72.37l2.1,8.537-.716,1.7-2.084-3.085S107.759,72.932,108.524,72.37Z" style="fill: #d9030a"/>
          <path d="M87.959,86.544c2.364.586,17.672.019,18.157-.077.877-1.757,1.9-13.8,1.9-13.8s-19.257.334-22.2,1.113C85.422,78.074,87.547,86.251,87.959,86.544Z" style="opacity: 0.1"/>
          <path d="M87.372,83.294s12.067-7.59,19.9-8.4a8.505,8.505,0,0,1,0-2.04l-21.449,1.1Z" style="fill: #fff;opacity: 0.1"/>
          <path d="M87.553,86.838c2.472.612,18.477.02,18.984-.082.917-1.836,1.987-14.386,1.987-14.386s-20.132.306-23.2,1.122C84.9,77.982,87.123,86.532,87.553,86.838ZM86.431,74.377c.069-.2,20.252-1.383,20.252-1.383s-.184,10.022-.966,13.22c-.51.339-16.9.2-17.312,0C88.268,85.873,86.227,75.4,86.431,74.377Z" style="fill: #d9030a"/>
          <path d="M81.447,73.493a35.424,35.424,0,0,1,3.873,0c.364.365,0,2.225,0,2.225s-2.532-.5-3.873.292A4.974,4.974,0,0,1,81.447,73.493Z" style="fill: #d9030a"/>
        </g>
        <g>
          <path d="M110.583,43.337a39.662,39.662,0,0,0-5.762-6.849,35.311,35.311,0,0,1-13.189,2.325c-7.767,0-16.6-1.955-25.758-5.831a35.339,35.339,0,0,0-2.954,2.26C74.389,40.521,100.059,50.873,110.583,43.337Z" style="fill: #d3d3d3"/>
          <path d="M62.048,36.011A37.475,37.475,0,0,0,56.1,42.889c-.088.133-.84-1.911-.91-1.8-.287.45.243,2.873.243,2.873a8.958,8.958,0,0,0-2.547,2.721c-.191.715.065,5.325.478,11.012-.129,1.6-.821,7.668-.821,7.668L53.824,63.7c.736,9.234,1.609,18.76,1.609,18.76h1.126s.713-25.6,1.194-34.593c0,0,.874,1.52,4.888,2.974,0,0-3.449-3.19-2.781-3.255,13.787-1.343,17.257-1.612,32.086,1.005a26.827,26.827,0,0,1,8.211,6.011l-1.47-5.853,6.846,8.314-2.058-8.625,3.8,8.281S107.167,75.6,108.391,83.7l1.479-.751,1.6-38.173s-.11-.2-.319-.546C108.333,46.2,104.551,47,100.285,47,87.574,47,70.572,39.956,62.048,36.011Z" style="fill: #d3d3d3"/>
          <path d="M103.919,35.661a30.231,30.231,0,0,0-36.965-3.387C80.942,38.023,94.394,39.2,103.919,35.661Z" style="fill: #d3d3d3"/>
          <path d="M62.92,35.243c-.3.256-.59.512-.872.768C70.572,39.956,87.574,47,100.285,47c4.266,0,8.048-.8,10.864-2.767-.141-.234-.33-.535-.566-.9C100.059,50.873,74.389,40.521,62.92,35.243Z" style="fill: silver"/>
          <path d="M104.821,36.488q-.437-.414-.9-.827c-9.525,3.54-22.977,2.362-36.965-3.387q-.553.349-1.08.709c9.157,3.876,17.992,5.831,25.758,5.831A35.311,35.311,0,0,0,104.821,36.488Z" style="fill: silver"/>
        </g>
      </g>
    </g>
  </g>
</svg>
