<svg xmlns="http://www.w3.org/2000/svg" viewBox="0 0 164.715 111.016">
  <defs>
    <style>
      .a {
        isolation: isolate;
      }

      .b {
        fill: #f2d186;
      }

      .c {
        fill: #edebf0;
      }

      .d {
        fill: #ff5257;
      }

      .e {
        fill: #ffe565;
      }

      .f, .s {
        fill: #0f0f0f;
      }

      .f, .g, .q, .z {
        opacity: 0.5;
      }

      .f {
        mix-blend-mode: overlay;
      }

      .g {
        fill: #ffff5c;
      }

      .g, .t, .z {
        mix-blend-mode: color-dodge;
      }

      .h {
        fill: #fff26d;
      }

      .i {
        fill: #cc0f36;
      }

      .j {
        fill: #efe2c7;
      }

      .k {
        fill: #ff5459;
      }

      .l {
        fill: #d90f31;
      }

      .m {
        fill: #ff9d3e;
      }

      .n {
        fill: #ffbc6b;
      }

      .o {
        fill: #fff8cc;
      }

      .p {
        fill: #fbddb0;
      }

      .q {
        fill: #9ad3ed;
      }

      .r {
        fill: #bfefed;
        opacity: 0.2;
      }

      .s {
        opacity: 0.1;
        mix-blend-mode: multiply;
      }

      .t {
        fill: #ffffc2;
        opacity: 0.8;
      }

      .u {
        fill: #eb2f38;
      }

      .v {
        fill: #ffffeb;
      }

      .w {
        fill: #afb8b5;
      }

      .x {
        fill: #e3f6f4;
      }

      .y {
        fill: #d7e0dc;
      }

      .z {
        fill: #ffffe0;
      }

      .aa {
        fill: #851316;
        opacity: 0.3;
      }

      .ab {
        fill: #ebffff;
      }
    </style>
  </defs>
  <title>lunch</title>
  <g class="a">
    <g>
      <g>
        <rect class="b" x="271.002" y="251.346" width="72.981" height="97.308" transform="translate(-203.901 -263.657) rotate(2.661)"/>
        <rect class="c" x="271.002" y="255.769" width="72.981" height="88.461" transform="translate(-203.901 -263.657) rotate(2.661)"/>
        <path class="d" d="M326.415,300.738c-10.532.3-17.106,8.476-26.561,11.875-10.782,3.875-20.99,1-29.235-5.211l-1.631,35.087,72.9,3.388,1.771-38.1C339.622,302.9,332.782,300.555,326.415,300.738Z" transform="translate(-218.161 -249.704)"/>
        <polygon class="d" points="106.088 30.844 110.007 36.214 116.496 34.768 116.509 41.416 122.609 44.061 118.712 49.447 122.092 55.172 115.774 57.239 115.144 63.857 108.817 61.816 104.417 66.799 100.498 61.429 94.009 62.875 93.996 56.227 87.896 53.582 91.793 48.196 88.413 42.471 94.731 40.404 95.361 33.786 101.688 35.827 106.088 30.844"/>
        <polygon class="e" points="101.991 57.472 97.539 58.464 97.529 53.902 93.345 52.087 96.018 48.392 93.699 44.466 98.034 43.046 98.466 38.505 102.807 39.906 105.826 36.487 108.513 40.171 112.966 39.179 112.976 43.741 117.16 45.556 114.487 49.251 116.806 53.178 112.471 54.597 112.039 59.138 107.697 57.737 104.68 61.157 101.991 57.472"/>
        <g>
          <path class="d" d="M315.088,262.782c.032-.691-.717-3.022-1.9-3.077-1.214-.056-2.1,2.365-2.149,3.386a5.281,5.281,0,0,0,.622,2.684A3.107,3.107,0,0,0,315.088,262.782Z" transform="translate(-218.161 -249.704)"/>
          <path class="d" d="M340.156,272.19c.068-1.463-1.1-2.568-3.527-2.681s-4.847,1.324-4.974,4.057c-.146,3.147,3.236,4.162,4.016,7.019-5.078-.236-3.276-4.495-5.016-4.576-.749-.035-1.643.984-2.017,2.252a7.815,7.815,0,0,1-5.182,2.061l-.331-.015a8.029,8.029,0,0,0,4.991-6.8c.106-2.291-1.048-4.253-4.112-4.4a4.624,4.624,0,0,0-3.747,1.459c-.264-.871-1.029-2.261-1.913-2.3a1.136,1.136,0,0,0-1.112.723,51.08,51.08,0,0,0-2.992,7.778c-.939.89-2.046,1.92-2.658,1.891a.873.873,0,0,1-.926-.9c.069-1.491,1.486-4.578,1.656-7.061.03-.635-.346-2.672-1.5-2.726-1.8-.084-3.094,4.144-3.457,7.388-.929.722-2.9,2.967-3.8,2.926-.22-.01-.3-.18-.282-.483.05-1.077,1.336-3.755,1.46-6.433.091-1.96-1.177-3.236-3.662-3.351a4.967,4.967,0,0,0-4.483,2.419l.507-1.968c1.142-1.967,2.391-3.236,2.483-5.224.03-.635-.426-2.731-1.558-2.783a1.23,1.23,0,0,0-1.139.694,34.662,34.662,0,0,0-4.832,13.356,3.177,3.177,0,0,0-.6.583,7.838,7.838,0,0,1-6.067,2.567c-2.733-.127-3.945-2.037-3.8-5.239a14.413,14.413,0,0,1,2.284-6.893,11.776,11.776,0,0,0,4.293,1.084c2.954.137,4.846-1.3,4.935-3.228.123-2.649-1.8-3.486-4.065-3.591a9.257,9.257,0,0,0-6.209,2.034c-.938-.652-1.65-1.985-2.341-2.017a.587.587,0,0,0-.58.582,5.459,5.459,0,0,0,1.244,2.99,16.512,16.512,0,0,0-3.945,9.886c-.205,4.417,2.6,7.23,7.565,7.461,2.7.126,5.489-.776,6.98-2.556-.006.13-.013.261-.019.39-.078,1.684.483,2.705,1.256,2.741a3.63,3.63,0,0,0,1.744-.61,2.11,2.11,0,0,0,1.061-2c.033-.718-.009-1.6-.052-2.464.464-2.247,2.381-5.394,3.9-5.324.967.045,1.224.471,1.2,1.051-.076,1.629-.991,2.887-1.126,5.785-.086,1.85.3,3.555,2.043,3.636a6.909,6.909,0,0,0,5.538-3.1c.16,1.952.829,3.4,2.5,3.474a5.933,5.933,0,0,0,3.456-1.074,39.833,39.833,0,0,0-.9,6.118,2,2,0,0,0,.458,1.459c.261.344.886,1.175,1.658,1.211a1.339,1.339,0,0,0,1.03-.726c.33-.565,1.292-6.358,2.272-10.794a11.992,11.992,0,0,1,1.61-3.687,4.075,4.075,0,0,1,3.2-2.258,1.591,1.591,0,0,1,1.5,1.647c-.144,3.091-1.649,5.732-4.713,5.59a3.308,3.308,0,0,0-.3,1.093c-.073,1.574,1.585,2.2,3.49,2.293a11.532,11.532,0,0,0,3.945-.37,8.5,8.5,0,0,0,2.434-1.282c.664,1.06,2.073,1.906,4.5,2.019,3.562.166,5.67-1.147,5.784-3.6.058-1.243-.939-2.423-1.937-3.576A3.791,3.791,0,0,0,340.156,272.19Zm-51.447-9.667c.911.042,1.338.395,1.3,1.14-.029.634-.65.882-1.534.841a10.883,10.883,0,0,1-3.207-.619A4.727,4.727,0,0,1,288.709,262.524Zm46.361,9.569a6.421,6.421,0,0,1,1.339-.214c.8.037,1.057.464,1.036.906a3.7,3.7,0,0,1-1.193,1.853A3.925,3.925,0,0,1,335.07,272.093Z" transform="translate(-218.161 -249.704)"/>
        </g>
        <path class="f" d="M332.55,289.594l-1.073,23.091a50.635,50.635,0,0,0,7.211,28.418l-2.53-3.773a20.889,20.889,0,0,0-16.38-9.233l-27.126-1.261a20.889,20.889,0,0,0-17.166,7.674l-5.631,6.913A50.644,50.644,0,0,0,281.5,311.438l1.173-25.237a50.666,50.666,0,0,0-9.28-31.657l-.3-.421-4.107,88.366,72.9,3.388L346,257.511A50.666,50.666,0,0,0,332.55,289.594Z" transform="translate(-218.161 -249.704)"/>
        <rect class="g" x="297.599" y="271.244" width="33.394" height="7.667" rx="3.428" ry="3.428" transform="translate(-205.05 -264) rotate(2.661)"/>
        <path class="g" d="M288.492,277.716h0a3.428,3.428,0,0,0,3.583-3.265l.038-.81a3.428,3.428,0,0,0-3.265-3.583h0a3.428,3.428,0,0,0-3.583,3.265l-.038.81A3.428,3.428,0,0,0,288.492,277.716Z" transform="translate(-218.161 -249.704)"/>
      </g>
      <g>
        <g>
          <rect class="h" x="221.463" y="280.868" width="60.574" height="51.069" rx="1.976" ry="1.976" transform="translate(299.619 -237.39) rotate(81.54)"/>
          <g>
            <circle class="i" cx="251.903" cy="341.432" r="9.453" transform="translate(-265.652 -208.929) rotate(-8.46)"/>
            <circle class="j" cx="258.442" cy="339.41" r="2.221" transform="translate(-265.283 -207.989) rotate(-8.46)"/>
            <circle class="j" cx="256.381" cy="344.62" r="1.578" transform="translate(-266.072 -208.235) rotate(-8.46)"/>
            <circle class="j" cx="248.766" cy="339.254" r="1.578" transform="translate(-265.365 -209.414) rotate(-8.46)"/>
            <path class="j" d="M248.842,350.371a2.652,2.652,0,1,0-4.192-2.891A9.484,9.484,0,0,0,248.842,350.371Z" transform="translate(-218.161 -249.704)"/>
          </g>
          <g>
            <circle class="i" cx="243.449" cy="274.671" r="9.453" transform="translate(-340.339 57.03) rotate(-53.46)"/>
            <circle class="j" cx="237.395" cy="271.477" r="2.221" transform="translate(-340.223 50.874) rotate(-53.46)"/>
            <circle class="j" cx="242.537" cy="269.25" r="1.578" transform="translate(-336.352 54.112) rotate(-53.462)"/>
            <circle class="j" cx="249.563" cy="273.761" r="1.578" transform="translate(-337.134 61.574) rotate(-53.46)"/>
            <circle class="j" cx="242.879" cy="280.764" r="1.578" transform="translate(-345.465 59.037) rotate(-53.46)"/>
          </g>
          <g>
            <circle class="k" cx="264.831" cy="286.564" r="14.959" transform="translate(-342.333 67.368) rotate(-51.742)"/>
            <g>
              <path class="l" d="M268.522,281.883a5.935,5.935,0,0,1,2.26,4.466,2.461,2.461,0,0,0,.97,1.817l.941.742a3.213,3.213,0,0,0,5.218-2.472,13.064,13.064,0,0,0-16.005-12.621,3.213,3.213,0,0,0-1.187,5.65l.941.742a2.461,2.461,0,0,0,1.993.52A5.935,5.935,0,0,1,268.522,281.883Z" transform="translate(-218.161 -249.704)"/>
              <path class="l" d="M268.374,299.163a3.226,3.226,0,0,0,1.116-5.636l-.955-.753a2.5,2.5,0,0,0-2.188-.452,5.945,5.945,0,0,1-7.469-5.89,2.5,2.5,0,0,0-.95-2.023l-.955-.753a3.226,3.226,0,0,0-5.221,2.4,13.087,13.087,0,0,0,16.621,13.107Z" transform="translate(-218.161 -249.704)"/>
            </g>
            <g>
              <path class="m" d="M273.153,285.367c-.711.149-1.359-.075-1.449-.5s.414-.893,1.124-1.042,1.359.075,1.449.5S273.864,285.218,273.153,285.367Zm-15.745,2.5c-.09-.426-.738-.651-1.449-.5s-1.214.616-1.124,1.042.738.651,1.449.5S257.5,288.3,257.408,287.87Z" transform="translate(-218.161 -249.704)"/>
              <path class="m" d="M272.3,282.474c-.617.383-1.3.394-1.533.024s.083-.981.7-1.364,1.3-.394,1.533-.024S272.915,282.09,272.3,282.474Zm-13.94,7.737c-.23-.37-.916-.359-1.533.024s-.93.994-.7,1.364.916.359,1.533-.024S258.588,290.581,258.358,290.211Z" transform="translate(-218.161 -249.704)"/>
              <path class="m" d="M270.5,280.047c-.448.571-1.09.816-1.432.547s-.257-.95.191-1.521,1.09-.816,1.432-.547S270.953,279.476,270.5,280.047Zm-10.453,12.038c-.343-.269-.984-.024-1.432.547s-.534,1.252-.191,1.521.984.024,1.432-.547S260.395,292.355,260.052,292.086Z" transform="translate(-218.161 -249.704)"/>
              <path class="m" d="M267.99,278.381c-.226.69-.745,1.14-1.159,1s-.566-.8-.341-1.495.745-1.14,1.159-1S268.216,277.691,267.99,278.381Zm-5.706,14.887c-.414-.136-.933.314-1.159,1s-.074,1.359.34,1.5.933-.314,1.159-1S262.7,293.4,262.285,293.268Z" transform="translate(-218.161 -249.704)"/>
              <path class="m" d="M265.057,277.674c.024.726-.31,1.326-.746,1.34s-.808-.563-.831-1.288.31-1.326.746-1.34S265.033,276.949,265.057,277.674Zm-.27,15.941c-.435.014-.769.614-.746,1.34s.4,1.3.831,1.288.769-.614.746-1.34S265.223,293.6,264.788,293.615Z" transform="translate(-218.161 -249.704)"/>
            </g>
          </g>
          <g>
            <circle class="k" cx="264.54" cy="327.506" r="14.959" transform="translate(-374.592 82.73) rotate(-51.742)"/>
            <g>
              <path class="l" d="M268.231,322.825a5.935,5.935,0,0,1,2.26,4.466,2.461,2.461,0,0,0,.97,1.817l.941.742a3.213,3.213,0,0,0,5.218-2.472,13.064,13.064,0,0,0-16.005-12.621,3.213,3.213,0,0,0-1.187,5.65l.941.742a2.461,2.461,0,0,0,1.993.52A5.935,5.935,0,0,1,268.231,322.825Z" transform="translate(-218.161 -249.704)"/>
              <path class="l" d="M268.083,340.106a3.226,3.226,0,0,0,1.116-5.636l-.955-.753a2.5,2.5,0,0,0-2.188-.452,5.945,5.945,0,0,1-7.469-5.89,2.5,2.5,0,0,0-.95-2.023l-.955-.753a3.226,3.226,0,0,0-5.221,2.4,13.087,13.087,0,0,0,16.621,13.107Z" transform="translate(-218.161 -249.704)"/>
            </g>
            <g>
              <path class="m" d="M272.862,326.309c-.711.149-1.359-.075-1.449-.5s.414-.893,1.124-1.042,1.359.075,1.449.5S273.573,326.16,272.862,326.309Zm-15.746,2.5c-.09-.426-.738-.651-1.449-.5s-1.214.616-1.124,1.042.738.651,1.449.5S257.206,329.238,257.117,328.812Z" transform="translate(-218.161 -249.704)"/>
              <path class="m" d="M272.007,323.416c-.617.383-1.3.394-1.533.024s.083-.981.7-1.364,1.3-.394,1.533-.024S272.624,323.033,272.007,323.416Zm-13.94,7.737c-.23-.37-.916-.359-1.533.024s-.93.994-.7,1.364.916.359,1.533-.024S258.3,331.523,258.067,331.153Z" transform="translate(-218.161 -249.704)"/>
              <path class="m" d="M270.214,320.99c-.448.571-1.09.816-1.432.547s-.257-.95.191-1.521,1.09-.816,1.432-.547S270.663,320.418,270.214,320.99Zm-10.453,12.038c-.343-.269-.984-.024-1.432.547s-.534,1.252-.191,1.521.984.024,1.432-.547S260.1,333.3,259.761,333.028Z" transform="translate(-218.161 -249.704)"/>
              <path class="m" d="M267.7,319.323c-.226.69-.745,1.139-1.159,1s-.566-.8-.341-1.495.745-1.14,1.159-1S267.926,318.633,267.7,319.323Zm-5.706,14.887c-.414-.136-.933.314-1.159,1s-.074,1.359.341,1.5.933-.314,1.159-1S262.408,334.346,261.994,334.21Z" transform="translate(-218.161 -249.704)"/>
              <path class="m" d="M264.766,318.617c.024.726-.31,1.326-.746,1.34s-.808-.563-.831-1.288.31-1.326.746-1.34S264.743,317.891,264.766,318.617Zm-.27,15.941c-.435.014-.769.614-.746,1.34s.4,1.3.831,1.288.769-.614.746-1.34S264.932,334.543,264.5,334.557Z" transform="translate(-218.161 -249.704)"/>
            </g>
          </g>
          <path class="n" d="M225.841,283.028l7.808,52.494a8.532,8.532,0,0,0,9.694,7.184l7.277-1.082a35.067,35.067,0,0,0,29.526-39.845h0A35.067,35.067,0,0,0,240.3,272.252l-7.277,1.082A8.532,8.532,0,0,0,225.841,283.028Z" transform="translate(-218.161 -249.704)"/>
          <path class="n" d="M225.841,283.028l7.808,52.494a8.532,8.532,0,0,0,9.694,7.184l7.277-1.082a35.067,35.067,0,0,0,29.526-39.845h0A35.067,35.067,0,0,0,240.3,272.252l-7.277,1.082A8.532,8.532,0,0,0,225.841,283.028Z" transform="translate(-218.161 -249.704)"/>
          <path class="o" d="M228.616,282.616a5.733,5.733,0,0,1,4.822-6.507l7.277-1.082a32.262,32.262,0,1,1,9.493,63.822l-7.277,1.082a5.733,5.733,0,0,1-6.507-4.822Z" transform="translate(-218.161 -249.704)"/>
          <g>
            <circle class="p" cx="249.574" cy="288.077" r="3.155" transform="translate(-257.827 -209.852) rotate(-8.46)"/>
            <path class="p" d="M234.537,322.424l.928,6.242a3.156,3.156,0,0,0-.928-6.242Z" transform="translate(-218.161 -249.704)"/>
            <circle class="p" cx="237.736" cy="313.764" r="3.155" transform="translate(-261.735 -211.314) rotate(-8.46)"/>
            <circle class="p" cx="266.766" cy="321.021" r="3.155" transform="translate(-262.487 -206.964) rotate(-8.46)"/>
            <circle class="p" cx="264.516" cy="296.362" r="4.558" transform="translate(-258.884 -207.563) rotate(-8.46)"/>
          </g>
        </g>
        <g>
          <rect class="q" x="218.146" y="258.099" width="59.886" height="4.232" transform="matrix(0.989, -0.147, 0.147, 0.989, -253.744, -210.374)"/>
          <rect class="q" x="232.11" y="351.851" width="59.886" height="4.488" transform="translate(-267.404 -207.298) rotate(-8.46)"/>
          <path class="r" d="M232.232,357.13l59.234-8.811c.044-24.053-6.276-67.2-13.537-91.013l-59.234,8.811C219.145,290.513,225.562,333.66,232.232,357.13Z" transform="translate(-218.161 -249.704)"/>
          <path class="s" d="M272.18,285.267l5.649,37.976a41.549,41.549,0,0,0,10.3,21.74l-2.634-2.637a17.141,17.141,0,0,0-14.65-4.842l-22.04,3.278a17.141,17.141,0,0,0-12.607,8.9l-3.44,6.458a41.557,41.557,0,0,0,4.63-25.987l-5.908-39.719A41.575,41.575,0,0,0,219,266.409l-.307-.292c.457,24.655,6.936,67.788,13.537,91.013l59.234-8.811c.032-24.212-6.313-67.364-13.537-91.013A41.575,41.575,0,0,0,272.18,285.267Z" transform="translate(-218.161 -249.704)"/>
          <rect class="t" x="241.121" y="270.882" width="27.402" height="6.291" rx="2.813" ry="2.813" transform="translate(-255.703 -209.233) rotate(-8.46)"/>
          <path class="t" d="M234.463,280.236h0a2.813,2.813,0,0,0,2.368-3.2l-.1-.658a2.813,2.813,0,0,0-3.2-2.368h0a2.813,2.813,0,0,0-2.368,3.2l.1.658A2.813,2.813,0,0,0,234.463,280.236Z" transform="translate(-218.161 -249.704)"/>
        </g>
      </g>
      <g>
        <rect class="u" x="114.286" y="22.133" width="50.43" height="73.495"/>
        <path class="v" d="M378.789,309.109a15.615,15.615,0,0,1-1.021,1.246q-.217.235-.458.455a5.356,5.356,0,0,1-.485.394,2.8,2.8,0,0,1-.479.281,1.106,1.106,0,0,1-.454.108.359.359,0,0,1-.376-.267,2.451,2.451,0,0,1-.088-.738,6.8,6.8,0,0,1,.17-1.36q.17-.806.3-1.437t.236-1.231a6.548,6.548,0,0,0,.1-1.093,1.821,1.821,0,0,0-.057-.51.693.693,0,0,0-.16-.292.485.485,0,0,0-.238-.135,1.272,1.272,0,0,0-.29-.031c-.076,0-.154,0-.233.005s-.157,0-.233,0a2.162,2.162,0,0,1-.265-.016.954.954,0,0,1-.254-.067.481.481,0,0,1-.207-.167c-.056-.076-.112-.154-.172-.234a.94.94,0,0,0-.223-.213.647.647,0,0,0-.373-.094,3.457,3.457,0,0,0-1.405.3,5.592,5.592,0,0,0-1.312.816,7.25,7.25,0,0,0-1.146,1.2,9.5,9.5,0,0,0-.979,1.634,10.113,10.113,0,0,0-.675,1.756,6.23,6.23,0,0,0-.2,1.283c-.107.067-.211.135-.322.2q-.306.182-.6.322a4.38,4.38,0,0,1-.549.224,1.521,1.521,0,0,1-.46.083c-.055,0-.113-.04-.176-.119a1.43,1.43,0,0,1-.176-.322,2.956,2.956,0,0,1-.14-.458,2.387,2.387,0,0,1-.057-.525v-.145c.021-.139.049-.281.083-.426s.069-.282.1-.411.07-.248.108-.358a2.365,2.365,0,0,1,.108-.27q.476-.935,1.039-1.915t1.119-1.99q.558-1.011,1.072-2.037t.905-2.047a14.951,14.951,0,0,0,.622-2.032,8.931,8.931,0,0,0,.23-1.985,4.135,4.135,0,0,0-.072-.771,2.08,2.08,0,0,0-.25-.677,1.349,1.349,0,0,0-.488-.481,1.538,1.538,0,0,0-.788-.182,2.507,2.507,0,0,0-1.291.375,5.161,5.161,0,0,0-1.219,1.034,10.368,10.368,0,0,0-1.114,1.543,17.663,17.663,0,0,0-.983,1.9,18.9,18.9,0,0,0-.9,2.706q-.45,1.688-.45,1.687s-.1.563-.3,1.689c-.033.188-.059.361-.087.536a6.651,6.651,0,0,0-1.061-.935,6.958,6.958,0,0,0-1.6-.814,5.446,5.446,0,0,0-1.835-.3,4.926,4.926,0,0,0-2.062.417,4.509,4.509,0,0,0-1.551,1.144,5.107,5.107,0,0,0-.975,1.711,7.159,7.159,0,0,0-.334,2.262c-.474.308-.944.622-1.4.956q-.8.582-1.6,1.159a14.706,14.706,0,0,1-1.654,1.035,9.621,9.621,0,0,1-1.8.742,7.06,7.06,0,0,1-2.036.283,4.389,4.389,0,0,1-1.577-.268,2.975,2.975,0,0,1-1.186-.812,3.733,3.733,0,0,1-.748-1.36,6.275,6.275,0,0,1-.263-1.917,9.936,9.936,0,0,1,.149-1.638,15.806,15.806,0,0,1,.428-1.835,18.462,18.462,0,0,1,.675-1.9,17.389,17.389,0,0,1,.892-1.83,14.6,14.6,0,0,1,1.078-1.648,8.662,8.662,0,0,1,1.231-1.331,5.819,5.819,0,0,1,1.356-.889,3.41,3.41,0,0,1,1.448-.328,2.674,2.674,0,0,1,1.067.191,2.007,2.007,0,0,1,.716.5,1.9,1.9,0,0,1,.4.732,3.068,3.068,0,0,1,.124.881,3.682,3.682,0,0,1-.346,1.6,4.285,4.285,0,0,1-.887,1.252,3.967,3.967,0,0,1-1.216.814,3.379,3.379,0,0,1-1.335.289,1.911,1.911,0,0,1-.407-.036,2.249,2.249,0,0,1-.273-.078c-.076-.027-.145-.053-.206-.077a.6.6,0,0,0-.217-.036.478.478,0,0,0-.324.1.653.653,0,0,0-.181.268,1.47,1.47,0,0,0-.082.366,3.677,3.677,0,0,0-.021.387q0,.124.005.237c0,.076,0,.141,0,.2a.791.791,0,0,0,.464.727,3.027,3.027,0,0,0,1.4.253,4.006,4.006,0,0,0,1.422-.268,6.244,6.244,0,0,0,1.371-.727,7.282,7.282,0,0,0,1.232-1.087,8.141,8.141,0,0,0,.994-1.345,7.031,7.031,0,0,0,.665-1.495,5.147,5.147,0,0,0,.242-1.541,4.646,4.646,0,0,0-.387-1.969,4.187,4.187,0,0,0-.994-1.381,3.965,3.965,0,0,0-1.371-.809,4.6,4.6,0,0,0-1.5-.263,6.6,6.6,0,0,0-2.206.374,8.578,8.578,0,0,0-2.021,1.033,11.464,11.464,0,0,0-1.8,1.546,15.117,15.117,0,0,0-1.551,1.926,17.893,17.893,0,0,0-1.263,2.169,18.973,18.973,0,0,0-.943,2.268,16.254,16.254,0,0,0-.593,2.231,11.093,11.093,0,0,0-.206,2.05,8,8,0,0,0,.428,2.618,6.744,6.744,0,0,0,1.222,2.187,5.883,5.883,0,0,0,1.912,1.5,5.569,5.569,0,0,0,2.51.555,14.33,14.33,0,0,0,2.293-.169,12.411,12.411,0,0,0,1.9-.456,10.188,10.188,0,0,0,1.572-.667,13.52,13.52,0,0,0,1.315-.8,9.934,9.934,0,0,0,1.123-.9q.522-.485,1.006-.924c.117-.106.231-.192.347-.292a4.394,4.394,0,0,0,.4.8,3.3,3.3,0,0,0,1.057,1.036,2.9,2.9,0,0,0,1.551.4,3.239,3.239,0,0,0,1.185-.217,3.954,3.954,0,0,0,1.026-.587,4.433,4.433,0,0,0,.835-.877,5.853,5.853,0,0,0,.618-1.082,6.381,6.381,0,0,0,.387-1.2,5.816,5.816,0,0,0,.134-1.227,6.868,6.868,0,0,0-.149-1.5,5.518,5.518,0,0,0-.448-1.263l.082-.114q.372.247.887.614a8.474,8.474,0,0,1,1.047.892c.079.079.148.14.226.215-.008.152-.015.3-.015.435a12.192,12.192,0,0,0,.2,2.248,8.733,8.733,0,0,0,.555,1.882,4.229,4.229,0,0,0,.832,1.294,1.436,1.436,0,0,0,1.032.481,3.564,3.564,0,0,0,.774-.093,7.176,7.176,0,0,0,.85-.25q.435-.157.865-.358c.237-.111.465-.224.691-.337a2.625,2.625,0,0,0,.211.273,2.506,2.506,0,0,0,.83.582,2.4,2.4,0,0,0,.964.2,2.985,2.985,0,0,0,.936-.153,5.061,5.061,0,0,0,.9-.393,5.413,5.413,0,0,0,.8-.535,4.944,4.944,0,0,0,.613-.582,3.529,3.529,0,0,0,.79,1.261,1.594,1.594,0,0,0,1.142.434,2.532,2.532,0,0,0,1.134-.281,5.6,5.6,0,0,0,1.063-.689,7.741,7.741,0,0,0,.892-.854,9.642,9.642,0,0,0,.634-.782Zm-19.962.282a5.864,5.864,0,0,1-.4,1.31,3.38,3.38,0,0,1-.577.9.942.942,0,0,1-.681.356,1.292,1.292,0,0,1-1.154-.623,2.091,2.091,0,0,1-.258-.666,3.793,3.793,0,0,1-.083-.813,6.57,6.57,0,0,1,.165-1.536,5.607,5.607,0,0,1,.454-1.242,3.369,3.369,0,0,1,.67-.923,1.162,1.162,0,0,1,.8-.361.87.87,0,0,1,.547.175,1.314,1.314,0,0,1,.371.475,2.722,2.722,0,0,1,.216.706,4.991,4.991,0,0,1,.072.881A7.242,7.242,0,0,1,358.827,309.391Zm6.717-6.084q.278-1.4.277-1.4s.151-.5.455-1.506a15.845,15.845,0,0,1,.781-2.174,5.318,5.318,0,0,1,.654-1.06.875.875,0,0,1,.61-.391c.053,0,.083.071.093.213s.015.313.015.515a10.338,10.338,0,0,1-.434,2.042q-.341,1.1-.807,2.2t-.988,2.141q-.522,1.04-.987,1.871A17.266,17.266,0,0,1,365.544,303.308Zm7.478,5.739a5.9,5.9,0,0,1-.181.83,5.725,5.725,0,0,1-.366.965,3.232,3.232,0,0,1-.537.8.93.93,0,0,1-.692.332.607.607,0,0,1-.392-.122.863.863,0,0,1-.248-.318,1.533,1.533,0,0,1-.129-.447,3.529,3.529,0,0,1-.036-.516,4.259,4.259,0,0,1,.118-.96,7.272,7.272,0,0,1,.407-1.185,7.555,7.555,0,0,1,.588-1.135,5.057,5.057,0,0,1,.654-.817,3.076,3.076,0,0,1,.758-.567,1.765,1.765,0,0,1,.824-.21Z" transform="translate(-218.161 -249.704)"/>
        <polygon class="w" points="118.171 103.722 160.83 103.722 164.715 95.628 114.286 95.628 118.171 103.722"/>
        <polygon class="x" points="118.171 14.039 160.83 14.039 164.715 22.133 114.286 22.133 118.171 14.039"/>
        <rect class="y" x="116.104" y="12.318" width="46.793" height="4.63" rx="1.455" ry="1.455"/>
        <path class="z" d="M339.78,278.994h0a3.879,3.879,0,0,1,3.879-3.879h0a3.879,3.879,0,0,1,3.879,3.879h0a3.879,3.879,0,0,1-3.879,3.879h0A3.879,3.879,0,0,1,339.78,278.994Zm3.879,57.125h0a3.879,3.879,0,0,0,3.879-3.879V294.026a3.879,3.879,0,0,0-3.879-3.879h0a3.879,3.879,0,0,0-3.879,3.879V332.24A3.879,3.879,0,0,0,343.659,336.119Z" transform="translate(-218.161 -249.704)"/>
        <rect class="aa" x="148.714" y="22.138" width="16.002" height="73.49"/>
        <path class="ab" d="M356.205,265.793H344.568a1.455,1.455,0,1,1,0-2.909h11.638a1.455,1.455,0,0,1,0,2.909Z" transform="translate(-218.161 -249.704)"/>
      </g>
    </g>
  </g>
</svg>
