<?xml version="1.0" encoding="utf-8"?>
<!-- Generator: Adobe Illustrator 21.1.0, SVG Export Plug-In . SVG Version: 6.00 Build 0)  -->
<svg version="1.1" id="Ñëîé_1" xmlns="http://www.w3.org/2000/svg" xmlns:xlink="http://www.w3.org/1999/xlink" x="0px" y="0px"
	 viewBox="0 0 941 769.063" enable-background="new 0 0 941 769.063" xml:space="preserve">
<g>
	<g>
		<polygon fill="#FFFFFF" points="263.837,97.073 263.837,722.335 57.175,685.894 57.175,60.633 		"/>
		<g>
			<polygon fill="#E9E5DC" points="263.837,113.656 263.837,705.752 73.757,672.236 73.757,80.14 			"/>
			<g>
				<polygon fill="#FFFFFF" points="263.837,510.283 263.837,545.877 263.191,540.241 262.22,531.787 255.057,469.45 
					254.584,465.362 258.705,465.599 259.202,469.924 				"/>
			</g>
			<g>
				<polygon fill="#FFFFFF" points="189.791,610.121 186.319,535.953 194.602,537.023 198.073,611.192 				"/>
			</g>
			<g>
				<polygon fill="#FFFFFF" points="191.279,304.565 263.837,295.959 263.837,304.598 189.182,313.456 73.757,409.755 
					73.757,397.973 182.889,306.924 184.796,305.337 				"/>
			</g>
			<g>
				<polygon fill="#FFFFFF" points="196.636,101.806 191.13,310.234 182.847,308.558 188.336,100.342 				"/>
			</g>
			<g>
				<path fill="#FFFFFF" d="M262.22,531.787l-188.463,8.922v8.49l112.937-5.342l8.208-0.393l68.288-3.224l0.647-0.035v-8.49
					L262.22,531.787z M198.087,454.604l-1.136-0.126l-55.196,27.836l-67.998,27.112v9.568l72.268-28.822l0.133-0.051l53.579-27.018
					l55.32,6.347l4.146,0.474l4.635,0.535v-8.308L198.087,454.604z"/>
			</g>
			<path fill="#94D3F6" d="M227.247,322.88c3.258-1.457,19.302-3.909,36.59-6.018v111.527c-17.702-1.67-36.034-4.256-52.269-2.376
				c-23.514,2.727-84.265,42.385-96.022,54.748c-6.31,6.632-25.305,17.336-41.789,25.548v-72.077
				c23.448-15.649,53.479-35.94,58.446-40.529C140.528,386.009,219.901,326.17,227.247,322.88z"/>
			<path fill="#B3D98E" d="M263.837,565.37v140.381l-100.906-17.793c2.081-47.076,4.544-104.483,4.544-104.483l21.3,5.083
				l8.333,1.983l1.069,0.255l12.412-27.569L263.837,565.37z"/>
			<g>
				<path fill="#FFFFFF" d="M193.361,225.948c30.612-2.488,57.725-4.564,70.477-5.192v8.449c-1.119,0.06-2.346,0.133-3.681,0.213
					c-0.29,0.023-0.589,0.037-0.896,0.058c-0.605,0.034-1.227,0.082-1.874,0.126c-0.323,0.018-0.655,0.042-0.987,0.067
					c-4.328,0.281-9.469,0.652-15.264,1.081c-0.871,0.07-1.758,0.138-2.662,0.202c-0.912,0.063-1.849,0.138-2.802,0.211
					c-0.63,0.046-1.26,0.093-1.907,0.145c-3.706,0.275-7.628,0.579-11.732,0.908c-1.542,0.126-3.118,0.246-4.718,0.37
					c-1.161,0.094-2.33,0.186-3.516,0.284c-0.008-0.001-0.017-0.003-0.017-0.003c-6.55,0.52-13.465,1.083-20.654,1.673
					c-2.744,0.221-5.53,0.451-8.349,0.692c-35.479,2.914-76.248,6.405-111.022,9.444v-8.573c24.924-2.18,70.261-6.117,111.245-9.471
					C187.814,226.396,190.6,226.166,193.361,225.948z"/>
			</g>
			<path fill="#B3D98E" d="M260.156,229.418c1.335-0.08,2.562-0.154,3.681-0.213v66.754l-72.558,8.606l1.849-70.026v-0.008
				c7.189-0.581,14.104-1.145,20.654-1.665c0,0,0.008,0.001,0.017,0.003c1.186-0.098,2.355-0.19,3.516-0.284
				c1.6-0.124,3.176-0.253,4.718-0.37c4.104-0.329,8.026-0.633,11.732-0.908c0.647-0.052,1.277-0.098,1.907-0.145
				c0.953-0.072,1.89-0.148,2.802-0.211c0.904-0.065,1.791-0.132,2.662-0.202c5.796-0.429,10.936-0.799,15.264-1.081
				c0.332-0.024,0.663-0.049,0.987-0.067c0.647-0.043,1.269-0.091,1.874-0.126C259.567,229.455,259.866,229.441,260.156,229.418z"/>
		</g>
	</g>
	<g>
		<polygon fill="#FFFFFF" points="470.5,60.633 470.5,685.894 263.837,722.335 263.837,97.073 		"/>
		<g>
			<polygon fill="#E9E5DC" points="470.5,77.216 470.5,669.312 263.837,705.752 263.837,113.656 			"/>
			<g>
				<polygon fill="#FFFFFF" points="370.473,686.949 362.14,688.419 342.174,504.214 334.339,449.861 342.547,447.261 
					350.408,501.817 				"/>
			</g>
			<g>
				<polygon fill="#FFFFFF" points="273.397,590.143 269.285,591.357 266.084,564.676 263.837,545.877 263.837,510.283 
					266.283,530.737 267.253,538.841 270.197,563.387 				"/>
			</g>
			<g>
				<polygon fill="#FFFFFF" points="363.831,441.793 470.5,451.755 470.5,456.05 363.309,446.047 358.989,445.64 360.067,441.445 
									"/>
			</g>
			<g>
				<polygon fill="#FFFFFF" points="462.598,670.705 458.403,671.445 427.053,478.452 431.141,477.085 				"/>
			</g>
			<g>
				<polygon fill="#FFFFFF" points="470.019,669.398 470.5,668.998 470.5,669.313 				"/>
			</g>
			<g>
				<polygon fill="#FFFFFF" points="470.5,216.952 470.5,219.124 469.555,218.735 				"/>
			</g>
			<g>
				<polygon fill="#FFFFFF" points="470.5,252.066 470.5,260.365 307.151,284.185 263.837,304.599 263.837,295.96 306.082,276.049 
					350.018,269.637 354.595,268.971 				"/>
			</g>
			<g>
				<polygon fill="#FFFFFF" points="399.128,173.254 351.079,276.53 347.381,275.308 394.402,174.253 344.347,99.46 349.18,98.608 
									"/>
			</g>
			<g>
				<path fill="#FFFFFF" d="M349.819,497.725l-4.055,1.237l-0.191,0.058l-3.922,1.57l-75.369,30.146l-2.446,0.978v8.49l3.416-1.365
					l75.402-30.16l4.353-1.738l3.831-1.165l76.853-23.401l4.104-1.254L470.5,469.34v-8.366L349.819,497.725z M359.818,407.601
					l-3.98,32.665l-92.001,21.885v8.308l71.032-16.903l8.3-1.969l20.049-4.77l0.091-0.771l0.522-4.254l3.25-26.658L470.5,404.087
					v-8.308L359.818,407.601z"/>
			</g>
			<path fill="#94D3F6" d="M470.5,275.041v102.282c-17.362,2.746-35.446,5.703-51.199,8.746
				c-33.804,6.533-47.029,6.576-70.07,12.355c-23.034,5.778-38.207,14.174-62.21,22.992c-7.429,2.728-15.24,4.918-23.183,6.973
				V316.862c21.74-10.326,45.445-20.79,48.173-20.633c4.892,0.282,121.991-12.929,121.991-12.929L470.5,275.041z"/>
			<path fill="#B3D98E" d="M362.14,688.419l-98.303,17.333V565.372l2.247-0.695l4.112-1.289l14.212-4.438
				c0,0,32.66-3.072,34.293-1.022c1.633,2.05,14.046,28.484,16.657,29.167c2.612,0.684,15.314-4.441,15.314-4.441L362.14,688.419z"
				/>
			<g>
				<path fill="#FFFFFF" d="M470.5,150.057v86.537l-12.421-126.857c-26.69,15.037-64.598,36.687-73.13,42.329
					c-0.705,0.464-1.211,0.819-1.492,1.051c-0.357,0.312-1.078,0.87-2.106,1.632l-0.008,0.001c-0.042,0.032-0.083,0.064-0.133,0.098
					c-0.141,0.108-0.282,0.207-0.431,0.316c-0.589,0.435-1.269,0.92-2.023,1.46c-0.191,0.133-0.381,0.274-0.58,0.409
					c-0.987,0.705-2.089,1.48-3.292,2.322c-0.232,0.165-0.473,0.332-0.713,0.499c-2.487,1.74-5.356,3.73-8.507,5.895
					c-0.315,0.213-0.63,0.434-0.953,0.657c-5.472,3.759-11.716,8.011-18.133,12.343c-0.987,0.671-1.982,1.344-2.977,2.009
					c-4.975,3.356-10.008,6.731-14.825,9.944c-50.909,33.925-55.602,35.242-57.327,35.563c-0.108,0.027-0.249,0.069-0.406,0.13
					c-0.083,0.023-0.174,0.056-0.265,0.088c-0.207,0.07-0.456,0.155-0.73,0.261c-0.1,0.034-0.207,0.078-0.323,0.115
					c-0.721,0.268-1.617,0.617-2.678,1.044c-0.207,0.078-0.414,0.164-0.638,0.254c-0.323,0.132-0.655,0.265-1.012,0.41
					c-0.489,0.194-1.012,0.411-1.559,0.64v-8.449c3.772-1.519,6.285-2.46,7.263-2.715c2.661-0.901,18.639-10.542,55.005-34.797
					c25.098-16.747,45.113-30.557,50.984-34.851c0.821-0.601,1.368-1.021,1.609-1.229c0.365-0.321,1.045-0.814,1.998-1.455
					c12.072-8.098,67.699-39.423,79.489-46.054l5.099-2.864L470.5,150.057z"/>
			</g>
			<path fill="#B3D98E" d="M394.402,174.254l-44.384,95.383l-43.936,6.412l-42.245,19.911v-66.754
				c0.547-0.229,1.069-0.446,1.559-0.64c0.357-0.146,0.688-0.279,1.012-0.41c0.216-0.088,0.431-0.167,0.638-0.254
				c1.061-0.428,1.957-0.776,2.678-1.044c0.108-0.036,0.216-0.079,0.323-0.115c0.274-0.106,0.522-0.192,0.73-0.261
				c0.091-0.033,0.182-0.065,0.265-0.088c0.158-0.061,0.298-0.102,0.406-0.13c1.725-0.321,6.418-1.637,57.327-35.563
				c4.817-3.212,9.85-6.587,14.825-9.944c0.995-0.665,1.99-1.338,2.977-2.009c6.418-4.332,12.661-8.584,18.133-12.343
				c0.323-0.223,0.638-0.444,0.953-0.657c3.151-2.164,6.02-4.154,8.507-5.895c0.24-0.167,0.481-0.333,0.713-0.499
				c1.202-0.842,2.305-1.617,3.292-2.322c0.199-0.135,0.39-0.276,0.58-0.409c0.754-0.539,1.434-1.024,2.023-1.46
				c0.149-0.109,0.298-0.21,0.431-0.316c0.05-0.034,0.091-0.066,0.133-0.098l0.008-0.001L394.402,174.254z"/>
		</g>
	</g>
	<g>
		<polygon fill="#FFFFFF" points="677.163,97.073 677.163,722.335 470.5,685.894 470.5,60.633 		"/>
		<g>
			<polygon fill="#E9E5DC" points="677.163,113.656 677.163,705.752 470.5,669.312 470.5,77.216 			"/>
			<g>
				<polygon fill="#FFFFFF" points="501.495,520.376 501.017,516.174 665.337,526.107 665.815,530.309 				"/>
			</g>
			<g>
				<polygon fill="#FFFFFF" points="498.844,492.989 498.484,488.796 578.841,495.966 579.201,500.159 				"/>
			</g>
			<g>
				<polygon fill="#FFFFFF" points="499.205,464.56 498.127,468.374 492.182,465.726 482.879,461.573 470.5,456.049 470.5,451.754 
					491.759,461.24 493.674,462.092 				"/>
			</g>
			<g>
				<polygon fill="#FFFFFF" points="677.163,592.442 677.163,617.697 670.969,579.443 670.231,574.861 662.993,530.138 
					662.313,525.922 654.079,475.02 653.4,470.846 657.495,470.888 658.184,475.139 674.029,573.068 674.766,577.65 				"/>
			</g>
			<g>
				<polygon fill="#FFFFFF" points="654.726,701.795 645.548,700.176 578.868,547.897 586.355,545.66 				"/>
			</g>
			<g>
				<polygon fill="#FFFFFF" points="677.163,571.589 677.163,576.522 674.766,577.65 670.969,579.443 613.095,606.724 
					606.072,610.029 519.461,650.865 511.675,654.533 477.647,670.572 470.5,669.312 470.5,668.997 511.169,649.834 
					518.946,646.164 604.281,605.941 611.304,602.635 670.231,574.861 674.029,573.068 				"/>
			</g>
			<g>
				<path fill="#FFFFFF" d="M661.036,262.13l-39.674,1.752l-1.094-1.354l0.638,5.618l41.109-1.814L661.036,262.13z M661.036,262.13
					l-39.674,1.752l-1.094-1.354l0.638,5.618l41.109-1.814L661.036,262.13z M665.961,259.516l-10.149-27.004l-1.584-4.226
					l-3.366-3.305l-27.411-26.93L617,191.716l-73.943-72.637l-2.106,2.249L559.5,92.909l-4.809-0.848l-33.796,51.799l-0.788,1.204
					l4.453,5.486l43.09,53.134l8.98,11.077l37.278,45.966l0.622,0.773l4.626,5.699l0.813,0.989l0.937-0.042l41.109-1.814
					l6.401-0.281L665.961,259.516z M661.036,262.13l-39.674,1.752l-1.094-1.354l-0.008-0.018l-0.58-0.708l-25.106-30.951
					l-5.771-7.112l-63.545-78.357l15.298-23.445l73.934,72.635l6.451,6.336l29.849,29.325l11.309,30.127l0.638,1.696L661.036,262.13
					z M661.036,262.13l-39.674,1.752l-1.094-1.354l0.638,5.618l41.109-1.814L661.036,262.13z"/>
			</g>
			<g>
				<polygon fill="#FFFFFF" points="526.259,147.948 524.56,150.55 524.552,150.557 477.39,222.809 477.39,222.817 476.71,223.85 
					470.5,219.123 470.5,216.951 476.03,208.482 519.104,142.499 520.895,143.86 				"/>
			</g>
			<g>
				<polygon fill="#FFFFFF" points="621.146,270.237 481.088,261.916 476.752,261.657 476.445,261.595 472.797,260.844 
					470.5,260.364 470.5,252.064 471.992,252.377 476.395,253.286 480.292,253.517 614.53,261.5 619.678,261.803 620.184,261.834 
					620.259,262.51 620.267,262.528 620.906,268.146 				"/>
			</g>
			<g>
				<polygon fill="#FFFFFF" points="677.163,123.39 677.163,137.063 654.03,163.338 651.144,166.619 623.451,198.052 
					620.939,200.909 594.572,230.851 593.71,231.835 587.118,225.648 588.801,223.74 614.488,194.573 617,191.716 647.405,157.195 
					647.405,157.187 650.29,153.915 675.388,125.407 				"/>
			</g>
			<g>
				<polygon fill="#FFFFFF" points="677.163,114.245 677.163,128.091 675.388,125.407 666.375,111.754 676.723,113.579 				"/>
			</g>
			<g>
				<polygon fill="#FFFFFF" points="677.163,221.602 677.163,232.156 673.025,221.743 669.642,213.228 669.642,213.22 
					651.144,166.619 647.405,157.195 647.405,157.187 626.577,104.736 631.079,105.53 650.29,153.915 654.03,163.338 				"/>
			</g>
			<g>
				<polygon fill="#FFFFFF" points="655.104,232.95 649.917,225.567 670.157,212.905 675.344,220.288 				"/>
			</g>
			<g>
				<path fill="#FFFFFF" d="M580.386,464.571l-3.126-40.615l-0.613-7.927l-84.033-14.817l-6.691-1.644l-15.422-3.789v8.308
					l16.226,3.989l5.456,1.344l0.141,0.033l76.654,13.516l3.192,41.373l-72.11-2.027l-4.237-0.117l-2.148-0.105l-1.841-0.084
					l-8.955-0.435l-12.379-0.599v8.366l22.13,1.066l4.328,0.208l3.897,0.107l71.953,2.016l1.758,22.846l0.323,4.186l1.617,20.972
					l0.323,4.186l1.443,18.769l0.207,2.682l4.121,0.403l0.008,0.001l0.912,0.086l3.225,0.32l-0.058-0.773l-1.617-20.989
					l-0.323-4.186l-3.714-48.272l73.047,2.052l4.104,0.118l18.979,0.536v-8.391L580.386,464.571z"/>
			</g>
			<g>
				<polygon fill="#FFFFFF" points="503.759,544.1 503.243,539.896 583.157,543.945 583.674,548.15 				"/>
			</g>
			<path fill="#94D3F6" d="M677.163,275.62v126.866c-25.803,4.148-63.354-0.475-86.744-2.013
				c-25.844-1.697-42.75-8.682-67.741-13.089c-8.291-1.462-18.747-3.496-30.255-5.749c-2.728-0.539-5.514-1.088-8.349-1.646
				c-4.436-0.873-8.98-1.766-13.573-2.667V275.04l3.681,0.458l8.291,1.047l47.551,6.005l96.031,2.439l38.663-7.087l7.844-1.444
				L677.163,275.62z"/>
			<g>
				<polygon fill="#FFFFFF" points="522.47,678.475 514.129,677.005 511.675,654.533 511.169,649.834 499.379,541.733 
					492.63,470.406 492.182,465.726 491.834,462.008 491.759,461.24 486.726,408.076 485.922,399.568 484.073,379.989 
					474.181,275.498 472.797,260.844 471.992,252.377 470.5,236.593 470.5,150.056 476.03,208.482 477.39,222.809 477.39,222.817 
					480.292,253.518 481.088,261.916 482.473,276.546 492.422,381.636 494.305,401.51 495.1,409.942 500.059,462.314 
					500.855,470.721 502.596,489.161 502.994,493.36 505.175,516.43 505.572,520.621 507.421,540.109 507.629,542.326 
					507.844,544.304 518.946,646.164 519.461,650.865 				"/>
			</g>
			<g>
				<polygon fill="#FFFFFF" points="656.849,420.744 677.163,413.945 677.163,423.256 659.278,429.248 577.26,423.956 
					573.272,423.701 572.351,415.305 572.65,415.325 				"/>
				<polygon fill="#FFFFFF" points="677.163,265.969 670.455,267.439 672.561,276.458 677.163,296.174 677.163,331.222 
					664.717,277.903 662.014,266.332 661.036,262.13 660.696,260.669 662.097,260.361 665.961,259.516 677.163,257.064 				"/>
			</g>
			<polygon fill="#B3D98E" points="476.709,223.849 524.556,150.555 613.914,260.727 480.292,253.516 			"/>
		</g>
	</g>
	<g>
		<polygon fill="#FFFFFF" points="883.825,60.633 883.825,685.894 677.163,722.335 677.163,97.073 		"/>
		<g>
			<polygon fill="#E9E5DC" points="867.242,80.14 867.242,672.236 677.163,705.752 677.163,113.656 			"/>
			<g>
				<g>
					<polygon fill="#FFFFFF" points="867.242,482.462 743.154,453.068 685.537,472.953 684.161,465.012 744.124,444.324 
						867.242,473.49 					"/>
				</g>
			</g>
			<g>
				<polygon fill="#FFFFFF" points="696.034,702.424 691.83,703.166 677.163,617.697 677.163,592.442 				"/>
			</g>
			<g>
				<polygon fill="#FFFFFF" points="706.033,552.735 701.821,556.205 677.163,576.522 677.163,571.589 700.81,552.105 
					703.778,549.658 				"/>
			</g>
			<g>
				<polygon fill="#FFFFFF" points="867.242,596.327 867.242,601.236 805.555,572.895 738.668,694.906 733.818,695.761 
					804.203,567.362 				"/>
			</g>
			<g>
				<polygon fill="#FFFFFF" points="743.938,401.015 741.38,393.58 832.997,347.712 835.555,355.148 				"/>
			</g>
			<g>
				<polygon fill="#FFFFFF" points="695.006,110.51 685.777,124.251 680.545,132.03 677.163,137.063 677.163,123.39 
					680.612,118.255 684.583,112.348 				"/>
			</g>
			<g>
				<polygon fill="#FFFFFF" points="787.007,94.288 765.366,132.877 760.823,140.992 732.193,192.04 731.529,191.27 726.48,185.411 
					726.48,185.403 680.545,132.03 677.163,128.091 677.163,114.245 680.612,118.255 685.777,124.251 731.571,177.458 
					755.01,135.649 759.562,127.533 777.24,96.01 				"/>
			</g>
			<g>
				<polygon fill="#FFFFFF" points="690.709,273.447 680.14,243.329 728.847,182.456 734.913,187.038 689.554,243.729 
					698.581,269.457 				"/>
			</g>
			<g>
				<polygon fill="#FFFFFF" points="814.086,182.118 807.437,188.249 789.453,167.317 722.417,105.676 733.635,103.697 
					795.854,160.898 				"/>
			</g>
			<g>
				<polygon fill="#FFFFFF" points="867.242,114.789 867.242,119.341 793.516,165.838 791.799,162.368 				"/>
			</g>
			<g>
				<polygon fill="#FFFFFF" points="686.756,242.38 682.942,244.677 681.524,241.602 677.163,232.157 677.163,221.602 
					684.617,237.741 				"/>
			</g>
			<g>
				<path fill="#FFFFFF" d="M742.888,687.214v-0.008l-1.36-5.515l-51.63-210.244l-1.89-7.685l-3.59,1.164l-0.182,0.057l-0.075,0.03
					l-6.998,2.27v8.391l4.519-1.468l19.128,77.899l1.011,4.1l33.564,136.694l0.614,2.479l8.523-1.503L742.888,687.214z"/>
			</g>
			<path fill="#94D3F6" d="M867.242,154.688v162.155c-8.698,1.683-19.518,4.163-32.469,7.773c-2.222,0.624-4.51,1.276-6.865,1.965
				c-0.464,0.14-0.92,0.27-1.376,0.409c-40.744,12.093-40.13,18.17-71.132,38.353c-24.12,15.703-37.8,17.369-54.425,24.463
				c-2.57,1.092-5.207,2.311-7.96,3.742c-2.604,1.346-5.315,2.869-8.167,4.632c-2.413,1.487-4.983,2.927-7.686,4.307V275.62
				l12.047-6.461l7.802-4.178l13.797-7.399l96.885-63.722l7.852-5.165L867.242,154.688z"/>
			<g>
				<polygon fill="#FFFFFF" points="700.975,389.805 704.673,404.343 677.163,423.256 677.163,413.945 695.072,401.633 
					693.016,393.547 677.163,331.222 677.163,296.174 				"/>
				<polygon fill="#FFFFFF" points="867.242,350.489 867.242,359.087 834.367,355.738 830.545,355.351 829.699,349.364 
					826.532,326.989 807.694,193.859 807.37,191.578 693.986,256.361 686.258,260.775 677.163,265.969 677.163,257.064 
					683.655,253.357 691.382,248.943 804.195,184.477 812.188,179.909 814.144,178.792 815.546,188.694 834.773,324.615 
					838.007,347.51 				"/>
			</g>
			<polygon fill="#B3D98E" points="867.242,482.462 867.242,596.327 804.203,567.362 741.529,681.691 689.898,471.446 
				743.154,453.068 			"/>
		</g>
	</g>
	<g>
		<g>
			<path fill="#EC6F63" d="M693.923,673.198c0.952,0.784,2.219,1.004,3.465,0.721c0.523-0.119,1.031-0.004,1.402,0.302l5.347,4.404
				c0.049-0.046,0.292-0.264,0.604-0.544c0.587-0.528,1.475-1.326,1.719-1.554c0.162-0.151,0.745-0.828,1.339-1.569l-5.546-4.568
				c-0.391-0.322-0.6-0.826-0.551-1.385c0.117-1.354-0.343-2.646-1.372-3.458c-1.367-1.079-3.354-1.028-5.004-0.017
				c-0.173,0.106-0.183,0.349-0.018,0.411l2.087,0.785c0.532,0.2,0.725,0.835,0.431,1.419l-1.287,2.557
				c-0.294,0.584-0.963,0.895-1.495,0.695l-2.066-0.777c-0.167-0.063-0.365,0.113-0.335,0.295
				C692.788,671.807,693.215,672.615,693.923,673.198z"/>
			<path fill="#EC6F63" d="M718.43,682.946c-0.495,0.088-0.968-0.029-1.318-0.318l-6.155-5.07c-0.636,0.707-1.21,1.391-1.332,1.574
				c-0.215,0.322-1.043,1.617-1.441,2.24l-0.245,0.383l5.977,4.923c0.327,0.27,0.526,0.671,0.547,1.13
				c0.043,0.95,0.43,1.826,1.161,2.428c1.577,1.299,4.149,0.823,5.697-1.073c1.457-1.784,1.458-4.218,0.003-5.49
				C720.536,682.985,719.483,682.758,718.43,682.946z M721.077,686.654l-0.427,0.465c-0.049,0.054-0.068,0.126-0.048,0.186
				l0.175,0.52c0.031,0.091-0.028,0.202-0.126,0.241l-0.565,0.223c-0.065,0.026-0.116,0.086-0.13,0.153l-0.124,0.587
				c-0.021,0.102-0.123,0.178-0.219,0.165l-0.551-0.078c-0.064-0.009-0.133,0.022-0.178,0.079l-0.389,0.496
				c-0.068,0.086-0.185,0.107-0.253,0.044l-0.389-0.359c-0.045-0.041-0.115-0.048-0.178-0.016l-0.551,0.273
				c-0.096,0.047-0.197,0.007-0.219-0.088l-0.124-0.543c-0.014-0.063-0.065-0.105-0.13-0.107l-0.565-0.024
				c-0.098-0.004-0.157-0.095-0.126-0.196l0.175-0.582c0.02-0.067,0.002-0.134-0.048-0.17l-0.427-0.314
				c-0.074-0.055-0.074-0.172,0-0.253l0.427-0.465c0.049-0.054,0.068-0.126,0.048-0.186l-0.175-0.52
				c-0.031-0.091,0.028-0.202,0.126-0.241l0.565-0.223c0.065-0.026,0.116-0.086,0.13-0.153l0.124-0.587
				c0.021-0.102,0.123-0.178,0.219-0.165l0.551,0.078c0.064,0.009,0.133-0.022,0.178-0.079l0.389-0.496
				c0.068-0.086,0.185-0.107,0.253-0.045l0.389,0.359c0.045,0.041,0.114,0.048,0.178,0.016l0.551-0.273
				c0.096-0.047,0.197-0.007,0.219,0.088l0.124,0.543c0.014,0.063,0.065,0.105,0.13,0.107l0.565,0.024
				c0.098,0.004,0.157,0.095,0.126,0.196l-0.175,0.582c-0.02,0.067-0.002,0.133,0.048,0.17l0.427,0.314
				C721.152,686.457,721.152,686.574,721.077,686.654z"/>
		</g>
		<path fill="#EC6F63" d="M721.152,662.408c-1.514-1.244-3.735,0.572-3.973,0.754c-0.002,0-0.002-0.002-0.002-0.002
			c-1.449,1.05-3.148,2.519-4.503,4.457c-0.893,1.276-1.502,2.481-1.957,3.488c-0.469,1.038-0.777,1.868-1.066,2.349
			c-0.046,0.078-0.337,0.509-0.436,0.645c-0.773,1.068-2.053,2.591-2.361,2.878c-0.378,0.353-2.168,1.956-2.337,2.111
			c-0.171,0.153-0.344,0.405-0.351,0.502c-0.01,0.122,0.238,0.29,0.219,0.428c-0.019,0.131-0.101,0.437-0.166,0.655
			c-0.067,0.221-0.113,0.314,0.032,0.478l-6.62,7.94l-0.094,0.057c-1.608,0.988-2.016,1.394-2.102,1.495
			c-0.507,0.589-1.667,2.225-2.211,2.999l1.618,1.333c0.679-0.664,2.11-2.076,2.61-2.671c0.085-0.102,0.419-0.568,1.124-2.301
			l0.041-0.101l6.771-7.812c0.191,0.109,0.277,0.049,0.484-0.055c0.207-0.102,0.498-0.235,0.626-0.276
			c0.135-0.043,0.347,0.167,0.467,0.137c0.096-0.024,0.318-0.237,0.443-0.427c0.123-0.19,1.41-2.21,1.697-2.638
			c0.233-0.349,1.531-1.858,2.462-2.795c0.118-0.119,0.498-0.478,0.57-0.536c0.428-0.364,1.203-0.809,2.159-1.444
			c0.927-0.621,2.026-1.423,3.143-2.513c1.699-1.655,2.869-3.56,3.663-5.149c0,0-0.002,0-0.002-0.002
			C721.236,666.126,722.637,663.634,721.152,662.408z M720.711,664.37c-0.363,0.427-0.979,0.507-1.379,0.178
			c-0.399-0.329-0.428-0.94-0.065-1.367c0.363-0.427,0.979-0.507,1.379-0.178C721.046,663.332,721.075,663.943,720.711,664.37z"/>
	</g>
	<g>
		<path fill="#EC6F63" d="M809.682,124.049c0.009,0.109,0.013,0.219,0.013,0.33v-0.332L809.682,124.049z M787.322,127.992v0.332
			c0-0.111,0.004-0.222,0.013-0.334L787.322,127.992z"/>
		<path fill="#EC6F63" d="M786.671,149.84v2.566c0,0.76,0.618,1.268,1.377,1.135l2.066-0.364c0.76-0.134,1.377-0.861,1.377-1.62
			v-2.566L786.671,149.84z"/>
		<path fill="#EC6F63" d="M811.988,142.208v1.747c0,0.54-0.438,1.056-0.979,1.151l-25.002,4.409
			c-0.54,0.095-0.979-0.266-0.979-0.806v-1.747c0-0.518,0.403-1.014,0.914-1.138c0.02-0.006,0.042-0.01,0.064-0.014l25.002-4.408
			c0.022-0.004,0.044-0.008,0.066-0.01C811.585,141.338,811.988,141.69,811.988,142.208z"/>
		<path fill="#EC6F63" d="M809.682,124.049l-22.347,3.94c-0.009,0.112-0.013,0.224-0.013,0.334v8.297l22.373-3.945v-8.297
			C809.696,124.269,809.691,124.159,809.682,124.049z M787.987,128.539l10.301-1.816v7.301l-10.301,1.816V128.539z M809.031,132.129
			l-10.301,1.816v-7.3l10.301-1.816V132.129z"/>
		<g>
			<path fill="#EC6F63" d="M812.495,126.031v3.999c0,0.678-0.549,1.324-1.224,1.443l-0.002,0c-0.675,0.119-1.224-0.333-1.224-1.011
				v-3.999c0-0.675,0.549-1.321,1.224-1.44C811.945,124.904,812.495,125.356,812.495,126.031z"/>
		</g>
		<g>
			<path fill="#EC6F63" d="M786.933,130.539v3.999c0,0.678-0.549,1.324-1.224,1.443l-0.002,0c-0.675,0.119-1.225-0.333-1.225-1.011
				v-3.999c0-0.675,0.549-1.321,1.225-1.44C786.383,129.411,786.933,129.863,786.933,130.539z"/>
		</g>
		<path fill="#EC6F63" d="M805.145,120.633l-13.275,2.341c-2.396,0.422-4.367,2.632-4.535,5.016l22.347-3.94
			C809.514,121.725,807.543,120.211,805.145,120.633z M803.068,124.208c0,0.188-0.197,0.376-0.441,0.419l-8.24,1.453
			c-0.241,0.043-0.441-0.075-0.441-0.263v-1.539c0-0.186,0.199-0.374,0.441-0.417l8.24-1.453c0.243-0.043,0.441,0.075,0.441,0.261
			V124.208z"/>
		<path fill="#EC6F63" d="M809.693,136.95c-0.204-0.148-0.427-0.27-0.664-0.368c-0.618-0.259-1.34-0.342-2.108-0.206l-0.62,0.109
			c-0.164,0.029-0.321,0.092-0.461,0.181c-0.372,0.232-0.638,0.642-0.664,1.072c-0.004,0.027-0.004,0.052-0.004,0.078v4.615
			l5.837-1.029c0.022-0.004,0.044-0.008,0.066-0.009v-1.594C811.075,138.571,810.542,137.563,809.693,136.95z M808,141.162
			c-0.846,0.149-1.534-0.416-1.534-1.264c0-0.25,0.06-0.495,0.166-0.725c0.1-0.212,0.241-0.41,0.412-0.573
			c0.263-0.259,0.596-0.442,0.957-0.505c0.21-0.037,0.412-0.031,0.596,0.014c0.177,0.044,0.341,0.124,0.476,0.233
			c0.009,0.007,0.02,0.014,0.027,0.024c0.206,0.174,0.352,0.416,0.407,0.705c0.02,0.092,0.029,0.185,0.029,0.285
			C809.534,140.205,808.845,141.013,808,141.162z"/>
		<path fill="#EC6F63" d="M787.322,136.621v3.705c0.141-0.132,0.287-0.259,0.44-0.376c0.702-0.542,1.509-0.905,2.333-1.05
			l0.62-0.109c0.234-0.041,0.459-0.031,0.667,0.032c0.55,0.161,0.908,0.658,0.908,1.265v4.615l12.44-2.194v-4.615
			c0-0.043,0.001-0.082,0.006-0.124c0.043-0.582,0.396-1.146,0.924-1.476c0.195-0.124,0.418-0.212,0.641-0.251l0.62-0.109
			c0.823-0.145,1.63-0.066,2.334,0.229c0.153,0.063,0.298,0.138,0.438,0.219v-3.704L787.322,136.621z M804.678,140.569
			c0,0.029,0,0.058-0.002,0.085c-0.027,0.421-0.244,0.82-0.56,1.084c-0.186,0.159-0.405,0.268-0.642,0.31l-9.913,1.748
			c-0.241,0.043-0.467,0.007-0.655-0.088c-0.33-0.168-0.551-0.521-0.551-0.966v-3.955c0-0.697,0.54-1.362,1.207-1.479l9.913-1.748
			c0.664-0.117,1.205,0.357,1.205,1.054V140.569z"/>
		<path fill="#EC6F63" d="M791.191,139.256c-0.144-0.043-0.306-0.053-0.476-0.022l-0.62,0.109c-0.768,0.135-1.49,0.473-2.108,0.95
			c-0.237,0.181-0.461,0.385-0.664,0.604c-0.846,0.911-1.38,2.108-1.38,3.332v1.594c0.02-0.006,0.042-0.01,0.064-0.014l5.839-1.03
			v-4.615C791.846,139.714,791.578,139.37,791.191,139.256z M789.083,144.497c-0.848,0.15-1.535-0.416-1.535-1.264
			c0-0.25,0.06-0.495,0.166-0.725c0.1-0.212,0.241-0.41,0.412-0.573c0.263-0.259,0.596-0.442,0.957-0.505
			c0.21-0.037,0.412-0.031,0.596,0.015c0.177,0.044,0.339,0.124,0.476,0.233c0.009,0.007,0.02,0.014,0.027,0.024
			c0.206,0.174,0.35,0.417,0.407,0.705c0.018,0.092,0.029,0.185,0.029,0.285C790.617,143.54,789.928,144.348,789.083,144.497z"/>
		<path fill="#EC6F63" d="M793.56,143.354c-0.144,0.025-0.284,0.006-0.406-0.055c-0.224-0.114-0.358-0.351-0.358-0.634v-3.955
			c0-0.454,0.342-0.884,0.764-0.958l9.914-1.748c0.42-0.074,0.762,0.235,0.762,0.69v3.955c0,0.016,0.001,0.033-0.001,0.048
			c-0.018,0.276-0.153,0.541-0.362,0.715c-0.124,0.106-0.256,0.17-0.399,0.195L793.56,143.354z"/>
		<path fill="#EC6F63" d="M805.524,146.516v2.566c0,0.76,0.618,1.268,1.377,1.134l2.066-0.364c0.76-0.134,1.377-0.861,1.377-1.62
			v-2.566L805.524,146.516z"/>
	</g>
	<g>
		<path fill="#EC6F63" d="M330.317,477.312c0.009,0.109,0.013,0.219,0.013,0.33v-0.332L330.317,477.312z M307.957,481.254v0.332
			c0-0.111,0.004-0.222,0.013-0.335L307.957,481.254z"/>
		<path fill="#EC6F63" d="M307.306,503.103v2.566c0,0.759,0.618,1.268,1.377,1.134l2.066-0.364c0.759-0.134,1.377-0.861,1.377-1.62
			v-2.566L307.306,503.103z"/>
		<path fill="#EC6F63" d="M332.623,495.47v1.747c0,0.54-0.439,1.056-0.979,1.151l-25.002,4.409c-0.54,0.095-0.979-0.266-0.979-0.806
			v-1.747c0-0.518,0.403-1.014,0.914-1.138c0.02-0.006,0.042-0.01,0.064-0.014l25.002-4.408c0.022-0.004,0.044-0.008,0.066-0.01
			C332.219,494.6,332.623,494.952,332.623,495.47z"/>
		<path fill="#EC6F63" d="M330.317,477.312l-22.347,3.94c-0.009,0.112-0.013,0.224-0.013,0.335v8.297l22.373-3.945v-8.297
			C330.331,477.531,330.326,477.421,330.317,477.312z M308.622,481.801l10.301-1.816v7.301l-10.301,1.816V481.801z M329.666,485.391
			l-10.301,1.816v-7.301l10.301-1.816V485.391z"/>
		<g>
			<path fill="#EC6F63" d="M333.13,479.294v3.999c0,0.678-0.549,1.324-1.224,1.443l-0.002,0c-0.675,0.119-1.224-0.333-1.224-1.011
				v-3.999c0-0.675,0.549-1.321,1.224-1.44C332.581,478.166,333.13,478.618,333.13,479.294z"/>
		</g>
		<g>
			<path fill="#EC6F63" d="M307.568,483.801v3.999c0,0.678-0.549,1.324-1.225,1.443l-0.002,0c-0.675,0.119-1.225-0.333-1.225-1.011
				v-3.999c0-0.675,0.549-1.321,1.225-1.441C307.018,482.673,307.568,483.125,307.568,483.801z"/>
		</g>
		<path fill="#EC6F63" d="M325.78,473.896l-13.275,2.341c-2.396,0.423-4.367,2.632-4.535,5.016l22.347-3.94
			C330.149,474.987,328.178,473.473,325.78,473.896z M323.703,477.47c0,0.188-0.197,0.376-0.441,0.419l-8.24,1.453
			c-0.241,0.042-0.441-0.075-0.441-0.263v-1.539c0-0.186,0.199-0.374,0.441-0.417l8.24-1.453c0.243-0.043,0.441,0.075,0.441,0.261
			V477.47z"/>
		<path fill="#EC6F63" d="M330.328,490.212c-0.204-0.148-0.427-0.27-0.664-0.368c-0.618-0.259-1.34-0.342-2.108-0.206l-0.62,0.109
			c-0.164,0.029-0.321,0.092-0.461,0.181c-0.372,0.232-0.638,0.642-0.664,1.072c-0.004,0.027-0.004,0.052-0.004,0.078v4.615
			l5.837-1.029c0.022-0.004,0.044-0.008,0.066-0.01v-1.594C331.71,491.833,331.177,490.825,330.328,490.212z M328.635,494.424
			c-0.846,0.149-1.534-0.416-1.534-1.264c0-0.25,0.06-0.496,0.166-0.725c0.1-0.212,0.241-0.41,0.412-0.573
			c0.263-0.259,0.596-0.442,0.957-0.505c0.21-0.037,0.412-0.03,0.596,0.015c0.177,0.044,0.341,0.124,0.476,0.233
			c0.009,0.007,0.02,0.014,0.027,0.024c0.206,0.174,0.352,0.416,0.407,0.705c0.02,0.092,0.029,0.185,0.029,0.285
			C330.169,493.467,329.48,494.275,328.635,494.424z"/>
		<path fill="#EC6F63" d="M307.957,489.883v3.705c0.141-0.132,0.287-0.259,0.44-0.376c0.702-0.542,1.51-0.905,2.333-1.05l0.62-0.109
			c0.234-0.041,0.459-0.031,0.667,0.032c0.551,0.161,0.908,0.658,0.908,1.265v4.615l12.44-2.193v-4.615
			c0-0.043,0.001-0.082,0.006-0.124c0.043-0.582,0.396-1.146,0.925-1.476c0.195-0.124,0.418-0.212,0.641-0.251l0.62-0.109
			c0.823-0.145,1.63-0.066,2.334,0.228c0.153,0.063,0.298,0.138,0.438,0.219v-3.704L307.957,489.883z M325.313,493.831
			c0,0.029,0,0.058-0.002,0.085c-0.027,0.421-0.244,0.82-0.56,1.084c-0.186,0.159-0.405,0.268-0.642,0.31l-9.913,1.748
			c-0.241,0.043-0.467,0.007-0.655-0.088c-0.33-0.168-0.551-0.521-0.551-0.966v-3.955c0-0.697,0.54-1.362,1.207-1.479l9.913-1.748
			c0.664-0.117,1.205,0.357,1.205,1.054V493.831z"/>
		<path fill="#EC6F63" d="M311.826,492.518c-0.144-0.043-0.306-0.052-0.476-0.022l-0.62,0.109c-0.768,0.135-1.49,0.473-2.108,0.95
			c-0.237,0.181-0.461,0.384-0.664,0.604c-0.846,0.911-1.38,2.108-1.38,3.332v1.594c0.02-0.006,0.042-0.01,0.064-0.014l5.839-1.03
			v-4.615C312.481,492.976,312.213,492.632,311.826,492.518z M309.718,497.759c-0.848,0.15-1.534-0.416-1.534-1.264
			c0-0.25,0.06-0.496,0.166-0.725c0.1-0.212,0.241-0.41,0.412-0.573c0.264-0.259,0.596-0.442,0.957-0.505
			c0.21-0.037,0.412-0.031,0.596,0.015c0.177,0.044,0.339,0.124,0.476,0.233c0.009,0.007,0.02,0.014,0.027,0.024
			c0.206,0.174,0.35,0.417,0.407,0.705c0.018,0.092,0.029,0.185,0.029,0.285C311.252,496.802,310.563,497.61,309.718,497.759z"/>
		<path fill="#EC6F63" d="M314.195,496.616c-0.144,0.025-0.284,0.006-0.406-0.055c-0.224-0.114-0.358-0.351-0.358-0.634v-3.955
			c0-0.454,0.342-0.884,0.764-0.959l9.914-1.748c0.42-0.074,0.762,0.235,0.762,0.69v3.955c0,0.016,0.001,0.033-0.001,0.048
			c-0.017,0.276-0.153,0.541-0.362,0.715c-0.124,0.106-0.256,0.17-0.399,0.195L314.195,496.616z"/>
		<path fill="#EC6F63" d="M326.159,499.778v2.566c0,0.76,0.618,1.268,1.377,1.135l2.066-0.364c0.759-0.134,1.377-0.861,1.377-1.62
			v-2.566L326.159,499.778z"/>
	</g>
	<g>
		<polygon fill="#EC6F63" points="415.158,653.463 401.131,655.937 401.131,641.91 415.158,639.437 		"/>
		<polygon fill="#EC6F63" points="429.184,665.017 415.158,667.49 415.158,653.463 429.184,650.99 		"/>
		<polygon fill="#EC6F63" points="443.211,648.517 429.184,650.99 429.184,636.963 443.211,634.49 		"/>
	</g>
	<g>
		<polygon fill="#EC6F63" points="442.764,469.083 441.732,469.265 441.732,468.964 441.732,468.964 441.732,467.799 
			441.732,467.799 441.732,467.799 440.57,468.003 440.57,467.729 440.57,466.564 409.143,472.105 409.143,473.271 409.143,473.545 
			407.981,473.75 407.981,473.75 407.981,473.75 407.981,474.915 407.981,474.915 407.981,475.216 406.948,475.398 406.948,476.564 
			442.764,470.249 442.764,470.249 442.764,469.083 		"/>
		<g>
			<path fill="#EC6F63" d="M438.026,452.157v12.203l0.261-0.046c0.297-0.052,0.535,0.146,0.535,0.442v1.053
				c0,0.296-0.238,0.577-0.535,0.629l-1.234,0.218v0.001l-1.771,0.312v-0.001l-1.234,0.218c-0.296,0.052-0.536-0.145-0.536-0.44
				v-1.053c0-0.296,0.241-0.579,0.536-0.631l0.26-0.046v-12.203l-0.26,0.046c-0.296,0.052-0.536-0.145-0.536-0.44v-1.053
				c0-0.295,0.241-0.579,0.536-0.631l1.234-0.218v0.001l1.769-0.312v-0.001l1.235-0.218c0.297-0.052,0.535,0.146,0.535,0.442v1.053
				c0,0.296-0.238,0.577-0.535,0.629L438.026,452.157z"/>
		</g>
		<g>
			<path fill="#EC6F63" d="M426.685,454.157v12.203l0.261-0.046c0.297-0.052,0.535,0.146,0.535,0.442v1.053
				c0,0.296-0.238,0.577-0.535,0.629l-1.234,0.218v0.001l-1.771,0.312v-0.001l-1.234,0.218c-0.296,0.052-0.536-0.145-0.536-0.44
				v-1.053c0-0.296,0.241-0.579,0.536-0.631l0.26-0.046v-12.203l-0.26,0.046c-0.296,0.052-0.536-0.145-0.536-0.44v-1.053
				c0-0.295,0.241-0.579,0.536-0.631l1.234-0.218v0.001l1.769-0.312v-0.001l1.235-0.218c0.297-0.052,0.535,0.146,0.535,0.442v1.053
				c0,0.296-0.238,0.577-0.535,0.629L426.685,454.157z"/>
		</g>
		<g>
			<path fill="#EC6F63" d="M415.346,456.157v12.203l0.261-0.046c0.297-0.052,0.535,0.146,0.535,0.442v1.053
				c0,0.296-0.238,0.577-0.535,0.629l-1.234,0.218v0.001l-1.771,0.312v-0.001l-1.234,0.218c-0.296,0.052-0.536-0.145-0.536-0.44
				v-1.053c0-0.296,0.241-0.579,0.536-0.631l0.26-0.046v-12.203l-0.26,0.046c-0.296,0.052-0.536-0.145-0.536-0.44v-1.053
				c0-0.296,0.241-0.579,0.536-0.631l1.234-0.218v0.001l1.769-0.312v-0.001l1.236-0.218c0.297-0.052,0.535,0.146,0.535,0.442v1.053
				c0,0.296-0.238,0.577-0.535,0.629L415.346,456.157z"/>
		</g>
		<path fill="#EC6F63" d="M408.635,454.186l16.191-10.622l16.191,4.912c0.274,0.083,0.181,0.511-0.123,0.565l-32.135,5.666
			C408.455,454.761,408.361,454.366,408.635,454.186z"/>
	</g>
	<g>
		<g>
			<g>
				<g>
					<path fill="#EC6F63" d="M179.992,198.183c0.009,0.112,0.013,0.224,0.013,0.335v-0.332L179.992,198.183z M157.632,194.241v0.332
						c0-0.111,0.004-0.221,0.013-0.33L157.632,194.241z"/>
				</g>
			</g>
			<g>
				<path fill="#EC6F63" d="M156.981,215.859v2.566c0,0.76,0.618,1.486,1.377,1.62l2.066,0.364c0.76,0.134,1.377-0.375,1.377-1.135
					v-2.566L156.981,215.859z"/>
			</g>
			<g>
				<path fill="#EC6F63" d="M182.297,217.155v1.747c0,0.54-0.438,0.901-0.979,0.806l-25.002-4.408
					c-0.54-0.095-0.979-0.611-0.979-1.151v-1.747c0-0.518,0.403-0.872,0.915-0.815c0.02,0.001,0.042,0.005,0.064,0.009l25.002,4.408
					c0.022,0.004,0.044,0.008,0.066,0.014C181.894,216.143,182.297,216.637,182.297,217.155z"/>
			</g>
			<g>
				<g>
					<path fill="#EC6F63" d="M179.992,198.183l-22.347-3.94c-0.009,0.109-0.013,0.219-0.013,0.33v8.297l22.373,3.945v-8.297
						C180.005,198.407,180.001,198.296,179.992,198.183z M158.296,195.022l10.301,1.816v7.301l-10.301-1.816V195.022z
						 M179.341,206.033l-10.301-1.816v-7.301l10.301,1.816V206.033z"/>
				</g>
			</g>
			<g>
				<g>
					<path fill="#EC6F63" d="M182.804,201.157v3.999c0,0.678-0.549,1.13-1.225,1.011l-0.002,0c-0.675-0.119-1.225-0.765-1.225-1.443
						v-3.999c0-0.675,0.549-1.128,1.225-1.009C182.255,199.836,182.804,200.482,182.804,201.157z"/>
				</g>
			</g>
			<g>
				<g>
					<path fill="#EC6F63" d="M157.242,196.65v3.999c0,0.678-0.549,1.13-1.225,1.011l-0.002,0c-0.675-0.119-1.225-0.765-1.225-1.443
						v-3.999c0-0.675,0.549-1.128,1.225-1.009C156.693,195.328,157.242,195.974,157.242,196.65z"/>
				</g>
			</g>
			<g>
				<g>
					<path fill="#EC6F63" d="M175.455,193.167l-13.275-2.341c-2.396-0.423-4.367,1.092-4.535,3.416l22.347,3.94
						C179.824,195.8,177.853,193.59,175.455,193.167z M173.378,196.01c0,0.188-0.197,0.306-0.441,0.263l-8.239-1.453
						c-0.241-0.043-0.441-0.23-0.441-0.419v-1.539c0-0.186,0.199-0.304,0.441-0.261l8.239,1.453c0.244,0.043,0.441,0.23,0.441,0.417
						V196.01z"/>
				</g>
			</g>
			<g>
				<g>
					<path fill="#EC6F63" d="M180.003,211.088c-0.204-0.22-0.427-0.421-0.664-0.602c-0.618-0.477-1.34-0.814-2.108-0.95l-0.62-0.109
						c-0.164-0.029-0.321-0.021-0.461,0.018c-0.372,0.101-0.638,0.417-0.664,0.837c-0.004,0.026-0.004,0.05-0.004,0.077v4.615
						l5.837,1.029c0.022,0.004,0.044,0.008,0.066,0.014v-1.594C181.385,213.196,180.851,211.999,180.003,211.088z M178.309,214.702
						c-0.846-0.149-1.535-0.957-1.535-1.805c0-0.25,0.06-0.474,0.166-0.666c0.1-0.177,0.241-0.325,0.412-0.428
						c0.263-0.166,0.596-0.232,0.957-0.168c0.21,0.037,0.412,0.115,0.596,0.225c0.177,0.106,0.341,0.244,0.476,0.401
						c0.009,0.01,0.02,0.021,0.027,0.033c0.206,0.247,0.352,0.54,0.407,0.849c0.02,0.099,0.029,0.195,0.029,0.295
						C179.844,214.286,179.155,214.851,178.309,214.702z"/>
				</g>
			</g>
			<g>
				<g>
					<path fill="#EC6F63" d="M157.632,202.87v3.705c0.141-0.082,0.287-0.158,0.44-0.221c0.702-0.294,1.51-0.373,2.333-0.228
						l0.62,0.109c0.234,0.041,0.459,0.131,0.666,0.267c0.551,0.355,0.908,0.978,0.908,1.585v4.615l12.44,2.193v-4.615
						c0-0.043,0.001-0.081,0.007-0.122c0.043-0.567,0.395-1.007,0.924-1.15c0.195-0.055,0.418-0.064,0.641-0.025l0.62,0.109
						c0.823,0.145,1.63,0.509,2.334,1.052c0.153,0.117,0.298,0.243,0.438,0.373v-3.704L157.632,202.87z M174.988,212.938
						c0,0.029,0,0.058-0.002,0.084c-0.027,0.412-0.244,0.734-0.56,0.887c-0.186,0.093-0.405,0.126-0.642,0.084l-9.914-1.748
						c-0.241-0.043-0.467-0.158-0.655-0.319c-0.33-0.284-0.551-0.715-0.551-1.16v-3.955c0-0.698,0.54-1.171,1.207-1.054l9.914,1.748
						c0.664,0.117,1.205,0.781,1.205,1.479V212.938z"/>
				</g>
			</g>
			<g>
				<g>
					<path fill="#EC6F63" d="M161.5,206.869c-0.144-0.094-0.305-0.16-0.476-0.19l-0.62-0.109c-0.768-0.135-1.49-0.052-2.108,0.206
						c-0.237,0.098-0.461,0.222-0.664,0.37c-0.846,0.613-1.38,1.621-1.38,2.846v1.594c0.02,0.001,0.042,0.005,0.064,0.009
						l5.839,1.03v-4.615C162.156,207.558,161.888,207.119,161.5,206.869z M159.392,211.367c-0.848-0.15-1.535-0.957-1.535-1.805
						c0-0.25,0.06-0.474,0.166-0.666c0.1-0.177,0.241-0.325,0.412-0.428c0.264-0.166,0.596-0.232,0.957-0.168
						c0.21,0.037,0.412,0.115,0.596,0.225c0.177,0.106,0.339,0.243,0.476,0.401c0.009,0.01,0.02,0.021,0.027,0.034
						c0.206,0.247,0.35,0.54,0.407,0.849c0.018,0.098,0.029,0.195,0.029,0.295C160.927,210.951,160.238,211.516,159.392,211.367z"/>
				</g>
			</g>
			<g>
				<path fill="#EC6F63" d="M163.869,211.802c-0.144-0.025-0.284-0.094-0.406-0.199c-0.224-0.193-0.358-0.477-0.358-0.76v-3.955
					c0-0.454,0.342-0.763,0.764-0.689l9.914,1.748c0.42,0.074,0.762,0.504,0.762,0.958v3.955c0,0.017,0.001,0.033-0.001,0.048
					c-0.018,0.27-0.153,0.487-0.362,0.588c-0.124,0.062-0.256,0.079-0.399,0.054L163.869,211.802z"/>
			</g>
			<g>
				<path fill="#EC6F63" d="M175.833,219.184v2.566c0,0.76,0.618,1.486,1.377,1.62l2.066,0.364c0.76,0.134,1.377-0.375,1.377-1.134
					v-2.566L175.833,219.184z"/>
			</g>
		</g>
	</g>
	<g>
		<g>
			<g>
				<polygon fill="#EC6F63" points="565.338,119.923 551.311,117.449 551.311,103.423 565.338,105.896 				"/>
			</g>
			<g>
				<polygon fill="#EC6F63" points="579.365,136.423 565.338,133.949 565.338,119.923 579.365,122.396 				"/>
			</g>
			<g>
				<polygon fill="#EC6F63" points="593.391,124.869 579.365,122.396 579.365,108.369 593.391,110.843 				"/>
			</g>
		</g>
	</g>
	<polygon opacity="0.12" fill="#231F20" points="470.5,60.633 677.163,97.073 677.163,722.335 470.5,685.894 	"/>
	<polygon opacity="0.12" fill="#231F20" points="57.175,60.633 263.837,97.073 263.837,722.335 57.175,685.894 	"/>
</g>
<linearGradient id="SVGID_1_" gradientUnits="userSpaceOnUse" x1="740.1605" y1="155.7158" x2="740.1605" y2="66.6507">
	<stop  offset="0.0775" style="stop-color:#C80F0A"/>
	<stop  offset="1" style="stop-color:#EE504C"/>
</linearGradient>
<path fill="url(#SVGID_1_)" d="M788.145,94.714c0-26.502-21.483-47.985-47.984-47.985c-26.503,0-47.985,21.483-47.985,47.985
	c0,4.106,0.514,8.09,1.485,11.894c1.145,4.49,2.926,8.723,5.236,12.607h-0.003l0.018,0.028c0.397,0.666,0.809,1.319,1.238,1.964
	l40.011,53.362l39.961-53.294c0.436-0.656,0.855-1.324,1.261-2.002l0.038-0.059h-0.003
	C785.685,112.045,788.145,103.667,788.145,94.714z M740.161,120.101c-14.191,0-25.695-11.504-25.695-25.695
	c0-14.191,11.504-25.695,25.695-25.695c14.191,0,25.695,11.504,25.695,25.695C765.856,108.597,754.352,120.101,740.161,120.101z"/>
<linearGradient id="SVGID_2_" gradientUnits="userSpaceOnUse" x1="716.1455" y1="149.7041" x2="716.1455" y2="62.6131">
	<stop  offset="0.4031" style="stop-color:#EE504C"/>
	<stop  offset="1" style="stop-color:#EE504C"/>
</linearGradient>
<path fill="url(#SVGID_2_)" d="M740.115,120.1c-14.17-0.025-25.649-11.518-25.649-25.694s11.479-25.669,25.649-25.694V46.729
	c-26.482,0.025-47.939,21.498-47.939,47.985c0,4.106,0.514,8.09,1.485,11.894c1.145,4.49,2.926,8.723,5.236,12.607h-0.003
	l0.018,0.028c0.397,0.666,0.809,1.319,1.238,1.964l39.965,53.301V120.1z"/>
<linearGradient id="SVGID_3_" gradientUnits="userSpaceOnUse" x1="740.2652" y1="123.7862" x2="740.2652" y2="65.29">
	<stop  offset="0.186" style="stop-color:#FA6662"/>
	<stop  offset="0.6589" style="stop-color:#C60D08"/>
	<stop  offset="1" style="stop-color:#B70D08"/>
</linearGradient>
<path fill="url(#SVGID_3_)" d="M740.265,65.29c-16.153,0-29.248,13.095-29.248,29.248s13.095,29.248,29.248,29.248
	c16.153,0,29.248-13.095,29.248-29.248S756.418,65.29,740.265,65.29z M740.265,114.468c-11.007,0-19.93-8.923-19.93-19.93
	s8.923-19.93,19.93-19.93c11.007,0,19.93,8.923,19.93,19.93S751.272,114.468,740.265,114.468z"/>
</svg>
