<svg xmlns="http://www.w3.org/2000/svg" viewBox="0 0 74.248 148.14"><defs><style>.a{isolation:isolate;}.b{fill:#a9c9d9;}.c{fill:#dfecf2;}.d,.h{fill:#fff;}.d,.k{opacity:0.5;}.e,.g{fill:#f9a;}.e{opacity:0.4;mix-blend-mode:multiply;}.f{fill:#81a7ba;}.i{fill:#401a1a;}.j{fill:#fec;}.k{fill:#f2cb79;}.l{fill:#e83339;}</style></defs><title>milkshake</title><g class="a"><path class="b" d="M31.414,145.332c.488-2.7-5.02-12.365-13.688-13.933S.513,136.958.025,139.656s6.143,6.15,14.812,7.718S30.927,148.026,31.414,145.332Z"/><path class="c" d="M29.147,144.564c.433-2.4-4.2-10.942-11.582-12.277S2.851,137.334,2.417,139.73s7.071-4.931,14.452-3.6S28.714,146.959,29.147,144.564Z"/><path class="c" d="M23.291,144.429c.249-1.375-2.411-6.282-6.647-7.048s-8.446,2.9-8.694,4.274,2.985,3.112,7.22,3.878S23.043,145.8,23.291,144.429Z"/><path class="d" d="M2.462,139.907c-.339,1.875,2.6,4.071,7.1,5.629.01-.062.014-.12.025-.179.638-3.528,5.057-14.072,8.062-13.528C10.307,130.5,2.923,137.36,2.462,139.907Z"/><path class="e" d="M17.648,131.829c3,.543,3.454,11.968,2.816,15.5-.011.06-.027.115-.04.176,4.76.115,8.281-.912,8.62-2.787C29.5,142.167,24.989,133.156,17.648,131.829Z"/><ellipse class="b" cx="18.407" cy="127.63" rx="5.428" ry="8.179" transform="matrix(0.178, -0.984, 0.984, 0.178, -110.462, 123.033)"/><ellipse class="c" cx="18.355" cy="127.919" rx="3.536" ry="6.907" transform="translate(-110.788 123.219) rotate(-79.75)"/><ellipse class="f" cx="18.601" cy="126.557" rx="1.385" ry="3.733" transform="translate(-109.245 122.341) rotate(-79.75)"/><path class="d" d="M16.173,127.226c.533-2.949,1.966-5.16,3.2-4.937-3.754-.679-7.229,1.163-7.762,4.112s2.076,5.892,5.831,6.571C16.208,132.749,15.64,130.175,16.173,127.226Z"/><path class="e" d="M19.373,122.289c1.234.223,1.8,2.8,1.269,5.745s-1.967,5.161-3.2,4.938c3.755.679,7.23-1.164,7.763-4.113S23.129,122.968,19.373,122.289Z"/><path class="b" d="M8.527,42.449C.572,86.486,5.077,124.153,18.594,126.6S49.522,95.338,57.494,51.3Z"/><path class="g" d="M8.782,42.5c-7.644,42.32-3,78.574,10.374,80.993S49.578,93.575,57.239,51.258Z"/><path class="d" d="M22.917,45.051l-12.24-2.213c-7.954,44.037-4.413,81.53,7.918,83.759C13.022,125.589,14.957,89.088,22.917,45.051Z"/><path class="e" d="M43.1,48.7c-7.967,44.035-18.937,78.9-24.51,77.9,12.33,2.23,28.78-31.648,36.75-75.682Z"/><ellipse class="b" cx="33.02" cy="46.824" rx="6.313" ry="24.88" transform="translate(-18.932 70.985) rotate(-79.75)"/><ellipse class="h" cx="13.397" cy="62.894" rx="11.127" ry="2.96" transform="translate(-50.714 67.895) rotate(-82.436)"/><ellipse class="h" cx="13.744" cy="127.087" rx="1.02" ry="2.712" transform="translate(-102.459 73.825) rotate(-59.203)"/><ellipse class="h" cx="9.499" cy="136.141" rx="4.846" ry="1.824" transform="translate(-88.725 41.396) rotate(-42.042)"/><ellipse class="h" cx="11.457" cy="102.294" rx="1.747" ry="5.163" transform="translate(-2.361 0.292) rotate(-1.324)"/><path class="i" d="M50.507,52.938a.489.489,0,0,1,.166-.027L74.248,20.175l-2.763-1.836L46.29,53.372A11.123,11.123,0,0,0,50.507,52.938Z"/><path class="j" d="M14.261,33.3C9.906,33.188,12.683,35.87,12,37.315s-4.458.744-4.363,2.833c.156,3.525,3.459,6.338,10.136,6.475,1.379,5.027,7.268,5.647,11.011,6.147s6.551.108,8.458-1.309c2.948,1.787,8.035,3.821,15.278,1.681s7.6-11.306,3.57-13.889c1.826-1.7,1.913-2.892.967-5.129s-4.393-4.282-4.967-7.774-1.374-11.6-2.893-13.708-3.944-2.3-5.233-1.266-1.72,1.865-1.391,4.492c-1.826,1.7-7.481,5.572-8.962,4-2.623-2.781-3.58-.6-4.926.015s-2.45-.063-4.012.239a2.687,2.687,0,0,0-1.523,4.459c-1.181,1.191-4.51-.024-6.454,2.311C15.435,28.412,17.951,33.4,14.261,33.3Z"/><path class="h" d="M20.747,39.3c-2.47.094-7.161.51-9.775-1.206-1.346.494-3.4.51-3.332,2.057a5.512,5.512,0,0,0,.178,1.165c1.7,5.62,13.29,1.656,21.82,2.259C25.039,42.819,23.558,39.19,20.747,39.3Z"/><path class="h" d="M16.7,26.9a2.034,2.034,0,0,0-.375,1.149c1.787,1.179,5.762,2.1,14.482,1.43,3.432-.265,5.193-1.792,10.072-1.68-3.034-.824-9.36-.652-12.073-.773s-6.136.4-9.861-1.487A4.163,4.163,0,0,0,16.7,26.9Z"/><path class="h" d="M25.132,38.3a14.761,14.761,0,0,0,6.606,3.655c3.855.843,11.483-3.839,13.682-4.383A21.286,21.286,0,0,0,53.5,33.889c-1.866.713-6.027.512-8.755.476S31.328,38.812,25.132,38.3Z"/><path class="h" d="M44.311,14.233a8.175,8.175,0,0,0-.57-2.668c-1.111.951-1.472,1.837-1.166,4.3-.189.174-.42.374-.682.592-.62,1.65-2.006,3.473-4.771,5.243C39.513,21.479,44.712,19.692,44.311,14.233Z"/><path class="h" d="M19.848,36.035c2.143,1.145,8.952.378,16.911-2.168s9.07-3.711,11.323-3.163c-2.825-1.4-11.6-.124-15.515.807S23.569,36.132,19.848,36.035Z"/><path class="h" d="M43.967,11.378l-.061.051c1.555,1.68,1.587,3.791,1.331,5.8-.387,3.069-2.4,7.916-4.1,9.2,1.89-.643,4.2-3.258,4.705-6.1-.066,3.741-2.341,6.138-3.138,7.468,5.851-2.519,5.743-11.307,4.986-13.9a5.022,5.022,0,0,0-2.482-3.062A2.863,2.863,0,0,0,43.967,11.378Z"/><path class="h" d="M37.245,24.329c-1.741-.575-2.686-1.914-3.347-4.245a1.132,1.132,0,0,1-.285-.21c-2.623-2.781-3.58-.6-4.926.015a2.912,2.912,0,0,1-.971.252C30.9,25.11,35.182,24.156,37.245,24.329Z"/><path class="h" d="M26.319,32.1c-1.777-.518-5.618.266-7.251.412a21.848,21.848,0,0,1-3.307.353,2.059,2.059,0,0,1-1.5.438c-2.432-.065-2.64.744-2.467,1.724,1.155.789,3.518,1.074,8.3-.283C22.19,34.147,23.371,32.464,26.319,32.1Z"/><path class="h" d="M25.862,20.055a4.955,4.955,0,0,0-1.187.072,2.875,2.875,0,0,0-2.252,2.586,29.877,29.877,0,0,0,7.751,2.568C27.682,24.326,27.458,23.352,25.862,20.055Z"/><path class="h" d="M17.776,46.623c3.546.909,16.89,1.771,21.147-1.347C36.467,48.5,19.866,55.055,17.776,46.623Z"/><path class="k" d="M40.978,25.074c-2.264.031-5.48-1.824-5.711-3.817,3.9,2.758,7.338-.821,8.473-2.624C42.3,23.385,37.5,22.958,40.978,25.074ZM43.723,41.9c3.221.169,6.127,0,12.37-2.651,1.4-1.31,1.776-2.317,1.443-3.729C55.663,37.542,51.262,40.517,43.723,41.9Zm4.927-8.527c1.9-.289,4.311-.8,4.767-2.079C53.3,33.013,53.435,34.475,48.65,33.378ZM38.05,50.854c3.172-.175,9.349,1.522,14.473-2.806C50.831,50.859,48.524,54.122,38.05,50.854ZM42.4,47.3c3.444.116,10.584-1.2,14.171-4.89C53.608,46.88,50.007,49.048,42.4,47.3Zm9.1-18.931c-1.3,1.232-3.133.818-6.87.805,5.474-.984,5.269-7.413,4.706-10.956C50.967,23.6,48.258,27.744,51.5,28.371Z"/><path class="l" d="M41.27.005C41.7.15,38.135,2.711,36.5,7.654s-.727,10.374-1.151,10.232-1.586-5.662.051-10.6S40.842-.133,41.27.005Z"/><circle class="l" cx="37.342" cy="19.085" r="3.986" transform="translate(-2.433 5.796) rotate(-8.597)"/><ellipse class="l" cx="35.29" cy="19.394" rx="3.064" ry="3.987" transform="translate(-4.601 24.888) rotate(-36.633)"/><ellipse class="h" cx="33.354" cy="18.189" rx="0.779" ry="1.016" transform="translate(-4.26 23.533) rotate(-36.691)"/><ellipse class="h" cx="37.049" cy="17.15" rx="0.78" ry="1.015" transform="translate(-2.927 25.437) rotate(-36.55)"/></g></svg>