<svg xmlns="http://www.w3.org/2000/svg" viewBox="0 0 340 540.028">
  <title>pdf-icon</title>
  <g>
    <rect x="285.667" y="482" width="148.667" height="148.667" transform="translate(308.829 -213.041) rotate(45)" style="fill: #ed1c24"/>
    <g>
      <polygon points="270.214 0 240 0 0 0 0 440 340 440 340 100 340 69.786 270.214 69.786 270.214 0" style="fill: #fff"/>
      <rect x="270.214" width="69.786" style="fill: #ed1c24"/>
    </g>
    <rect x="116" y="38.571" width="108" height="24" style="fill: #e8e8e8"/>
    <rect x="50" y="86.571" width="240" height="24" style="fill: #e8e8e8"/>
    <rect x="50" y="300.571" width="240" height="24" style="fill: #e8e8e8"/>
    <rect x="50" y="348.571" width="240" height="24" style="fill: #e8e8e8"/>
    <rect y="134.571" width="340" height="142" style="fill: #f7f7f7"/>
    <rect y="146.571" width="340" height="118" style="fill: #ed1c24"/>
    <g>
      <path d="M285.859,341.132V365H267.175V292.963h29.809c6.265,0,12.744,1.188,18.253,6.48,5.615,5.4,6.7,11.448,6.7,17.5,0,5.724-.756,12.42-6.372,17.928s-12.312,6.264-17.928,6.264Zm0-15.121h6.264c1.944,0,5.616-.216,7.885-2.268,2.268-1.944,2.376-4.86,2.376-6.588,0-1.944-.216-4.536-2.16-6.48-2.16-2.268-5.616-2.592-7.992-2.592h-6.372Z" transform="translate(-190 -121.429)" style="fill: #fff"/>
      <path d="M336.187,365V292.963H360.7c7.236,0,19.332.972,28.62,9.936,8.425,8.1,10.045,18.468,10.045,26.245,0,9.5-2.376,17.928-9.4,24.948A39.12,39.12,0,0,1,362.323,365Zm18.685-15.876h3.78c4.536,0,10.908-.432,15.768-5.184,2.377-2.268,5.509-6.8,5.509-14.8,0-6.7-2.053-12.42-5.616-15.769-4.428-4.1-10.261-4.536-14.9-4.536h-4.536Z" transform="translate(-190 -121.429)" style="fill: #fff"/>
      <path d="M456.822,308.839H434.25v11.988h20.521V336.7H434.25V365H415.566V292.963h41.256Z" transform="translate(-190 -121.429)" style="fill: #fff"/>
    </g>
    <rect x="134" y="348.571" width="72" height="91.429" style="fill: #ed1c24"/>
    <polygon points="270.214 0 270.214 69.786 340 69.786 270.214 0" style="fill: #e0e0e0"/>
  </g>
</svg>
