<svg xmlns="http://www.w3.org/2000/svg" xmlns:xlink="http://www.w3.org/1999/xlink" viewBox="0 0 168 168">
  <defs>
    <clipPath id="a">
      <rect width="168" height="168" style="fill: none"/>
    </clipPath>
    <linearGradient id="b" x1="82.938" y1="119.474" x2="82.938" y2="137.05" gradientUnits="userSpaceOnUse">
      <stop offset="0" stop-color="#de9c64"/>
      <stop offset="1" stop-color="#c27f46"/>
    </linearGradient>
    <clipPath id="c">
      <path d="M88.915,76.317l.765,8.994s10.011-.323,12.706-1.374c.022-2.291-.289-7.413-.289-7.413Z" style="fill: none"/>
    </clipPath>
    <linearGradient id="d" x1="95.678" y1="84.489" x2="95.678" y2="76.324" gradientUnits="userSpaceOnUse">
      <stop offset="0" stop-color="#3a8cc2"/>
      <stop offset="1" stop-color="#1e4661"/>
    </linearGradient>
    <clipPath id="e">
      <path d="M64.509,84.177l.54-4.964,12.6-3.372s.764,6.3,0,9.45C74.69,85.482,64.509,84.177,64.509,84.177Z" style="fill: none"/>
    </clipPath>
    <linearGradient id="f" x1="71.83" y1="84.422" x2="71.83" y2="76.322" xlink:href="#d"/>
    <linearGradient id="g" x1="85.479" y1="175.208" x2="85.785" y2="180.566" gradientUnits="userSpaceOnUse">
      <stop offset="0" stop-color="#f23038"/>
      <stop offset="1" stop-color="#ed2127"/>
    </linearGradient>
  </defs>
  <title>philip</title>
  <g style="clip-path: url(#a)">
    <g>
      <polygon points="67.481 121.784 67.481 148.921 84.644 155.327 100.896 148.109 100.896 120.466 67.481 121.784" style="fill: #f5ba89"/>
      <g>
        <path d="M56.249,100.65h-4.39s-6.684-8.977-4.2-19.477a10.674,10.674,0,0,1,8.592-2.1Z" style="fill: #eda972"/>
        <path d="M110.648,100.661h2.681s5.846-10.5,4.126-19.858c-4.39-2.292-7.358-1.915-7.358-1.915Z" style="fill: #eda972"/>
        <path d="M55.144,56.051s3.065,47.011,3.7,58.8c6.619,12.983,19.985,10.284,19.985,10.284l12.729,2.888s14.538-4.517,18.865-11.9c-.547,0-.32-60.334.226-60.332,0,0-11.966-17.06-27.239-17.06S55.144,56.051,55.144,56.051Z" style="fill: #f5ba89"/>
        <path d="M92.023,91.027v12.438l-9.912,3.9-.566-1.824,8.569-3.482v-8.5c-1.31.314-1.156.851-5.545,1.615l-.758.132-.291-.712c-4.349-10.676-1.606-30.922-1.487-31.863l1.894.462c-.027.221-2.674,19.456,1.088,29.964" style="fill: #d98750"/>
        <path d="M64.509,84.177l.54-4.964,12.6-3.372s.764,6.3,0,9.45C74.69,85.482,64.509,84.177,64.509,84.177Z" style="fill: #fff"/>
        <path d="M88.915,76.317l.765,8.994s10.011-.323,12.706-1.374c.022-2.291-.289-7.413-.289-7.413Z" style="fill: #fff"/>
        <path d="M111.811,80.453l-.062-4.761-2.119,3.329.383,20.747s-11.329,6.617-23.764,6.617S58.209,100.4,58.209,100.4L56.935,82.459l-3,.826c.815,12.789,4.281,27.078,4.276,32.776,9.181,11.654,20.806,23.62,20.806,23.62l11.712-.619,19.509-22.178S112.507,92.672,111.811,80.453Z" style="fill: url(#b)"/>
        <path d="M83.919,116.886A34.922,34.922,0,0,1,64.035,110.1l.948-1.2c.081.066,8.3,6.453,18.936,6.453,11.372,0,15.85-3.132,15.893-3.163l.9,1.233C100.522,113.569,95.869,116.886,83.919,116.886Z" style="fill: #a16735"/>
        <path d="M58.209,72.526s21.925-9.166,25.106-11.2c1.528,2.419.6,5.92.6,5.92L58.973,75.706Z" style="fill: #6b3f1c"/>
        <polygon points="89.683 62.922 88.41 68.395 111.495 76.352 111.284 72.265 89.683 62.922" style="fill: #6b3f1c"/>
        <path d="M116.493,68.853l1.864,1.085s-.877-2.725.164-7.758c-1.017-5.159-1.891-10.33-1.891-10.33l2.418-.383S105.557,32.561,95.5,24.667c-9.074,1.368-23.724,4.584-31.629,11.45-8.283,7.195-9.611,14.143-9.611,14.143s-4.593,6.2-5.642,12.694l4.214,18.3,4.408,4.69-.992-25.074s8.2-9.787,14.815-14.37c11.581,7.762,31.323,8.491,31.323,8.491l-3.193-5.307,9.672,10.562.763,19.4" style="fill: #6b3f1c"/>
        <path d="M62.854,111.522a5.267,5.267,0,0,1,4.439-4.058C65.336,109.47,62.854,111.522,62.854,111.522Z" style="fill: #a16735"/>
        <path d="M98.8,111.188l2.244,3.625S101.9,112.332,98.8,111.188Z" style="fill: #a16735"/>
        <g style="clip-path: url(#c)">
          <circle cx="95.678" cy="80.574" r="5.105" style="fill: url(#d)"/>
        </g>
        <g style="clip-path: url(#e)">
          <circle cx="71.831" cy="81.176" r="5.065" style="fill: url(#f)"/>
        </g>
        <path d="M65.049,79.213l-1.177-.349s9.653-3.98,14.117-3.023C74.629,77.622,65.049,79.213,65.049,79.213Z" style="fill: #543216"/>
        <path d="M88.915,76.317,102.261,77.5l.522-1.73S93.72,74.442,88.915,76.317Z" style="fill: #543216"/>
        <path d="M61.421,83.666s9.737.573,15.083,2.2C71.444,86.148,61.421,83.666,61.421,83.666Z" style="fill: #f5a360"/>
        <path d="M90.726,85.887s10.788-3.079,15.656-2.221C104.377,84.623,90.726,85.887,90.726,85.887Z" style="fill: #f5a360"/>
        <path d="M66.1,58.847s.561-.223,1.558-.571c1-.33,2.423-.837,4.166-1.325s3.778-1.059,6.005-1.507a35.125,35.125,0,0,1,7.127-.833,9.2,9.2,0,0,1,1.921.261c.664.143,1.157.388,1.734.559l3.283,1.094,5.845,1.94c3.422,1.146,5.685,1.982,5.685,1.982l-1.625-.334c-1.025-.24-2.5-.535-4.252-.986s-3.8-.946-5.97-1.572c-1.085-.318-2.206-.628-3.344-1-.559-.159-1.156-.428-1.671-.517a8.22,8.22,0,0,0-1.642-.2,41.127,41.127,0,0,0-6.9.668c-2.208.367-4.276.737-6.034,1.116Z" style="fill: #e6a36a"/>
        <path d="M61.421,79.213a1.729,1.729,0,0,1-.532.166,1.87,1.87,0,0,1-1.772-.7,1.756,1.756,0,0,1-.274-.485,1.7,1.7,0,0,1,.532-.168,1.947,1.947,0,0,1,.982.108,1.967,1.967,0,0,1,.789.593A1.763,1.763,0,0,1,61.421,79.213Z" style="fill: #e6a36a"/>
        <path d="M104.919,78.864a1.853,1.853,0,0,1,.259-.524,2.167,2.167,0,0,1,1.837-.936,1.836,1.836,0,0,1,.576.1,1.832,1.832,0,0,1-.258.525,2.165,2.165,0,0,1-1.839.933A1.845,1.845,0,0,1,104.919,78.864Z" style="fill: #e6a36a"/>
        <g>
          <path d="M107.859,43.181a37.246,37.246,0,0,0,4.476-.549c-.247-.371-.589-.659-.848-1.045-15.095,2.335-34.6-1.988-44.359-4.314-.379.34-.751.673-1.118,1.007,8.5,2.1,26.718,5.96,41.849,4.9" style="fill: #543216"/>
          <path d="M56.038,61.082l.338-.427s-2.562,1.848-5.33,4.014a20.831,20.831,0,0,1-.914,2.291c2.882-2.331,5.9-4.574,5.9-4.574Z" style="fill: #543216"/>
          <path d="M117.9,59.036a47.126,47.126,0,0,1-13.99-4.2l2.038,2.227a45.5,45.5,0,0,0,12.2,3.224C118.072,59.872,117.989,59.45,117.9,59.036Z" style="fill: #543216"/>
          <path d="M66.765,50c.311-.285.625-.566.944-.845a41.589,41.589,0,0,1-6.628-6.167c-.3.3-.592.593-.874.88A42.378,42.378,0,0,0,66.765,50Z" style="fill: #543216"/>
          <path d="M109.087,65.428l4.039,8.447.81-1.062s-4.971-10.468-4.981-10.494h0Z" style="fill: #543216"/>
        </g>
      </g>
      <path d="M122.319,181.2a200.315,200.315,0,0,0,29.6-2.974c-7.368-13.856-9.149-21.278-9.149-21.278s-13.1-6.834-37.69-10.607c-5.123.089-9.944,3.286-15.148,4.046-2.389.347-3.359,4.936-5.743,4.936-.994,0-3.435-4.431-4.457-4.5a69.863,69.863,0,0,1-14.469-2.767c-17.353-.429-38.8,10.494-38.8,10.494L19,171.454C51.285,183.632,88.545,182.813,122.319,181.2Z" style="fill: url(#g)"/>
      <polygon points="79.54 146.912 67.481 137.866 60.414 148.747 75.301 157.276 79.54 146.912" style="fill: #f5feff"/>
      <polygon points="107.256 146.376 100.896 138.011 89.668 147.57 97.581 157.276 107.256 146.376" style="fill: #f5feff"/>
      <polygon points="79.54 146.912 84.644 155.327 76.69 153.876 79.54 146.912" style="fill: #d7dfe0"/>
      <polygon points="89.668 147.57 84.644 155.327 94.522 153.556 89.668 147.57" style="fill: #d7dfe0"/>
      <path d="M84.943,155.328l-1.507,0c0,.92-.027,14.368.263,26.7q.758.017,1.515.029C84.916,169.437,84.942,155.556,84.943,155.328Z" style="fill: #d1151b"/>
      <g>
        <path d="M111.91,153.41l-1.5-.192c-.132,1.027-.247,2.071-.343,3.123l1.5.136Q111.713,154.927,111.91,153.41Z" style="fill: #d1151b"/>
        <path d="M112.911,147.753l-1.476-.3c-.235,1.007-.357,1.6-.543,2.654l1.484.263C112.557,149.344,112.68,148.736,112.911,147.753Z" style="fill: #d1151b"/>
        <path d="M111.343,159.559l-1.505-.087c-.06,1.041-.1,2.087-.134,3.132l1.506.043C111.24,161.615,111.285,160.584,111.343,159.559Z" style="fill: #d1151b"/>
        <path d="M111.19,168.837q-.027-1.362-.027-2.741v-.355l-1.508-.008,0,.363c0,.928.011,1.852.029,2.771Z" style="fill: #d1151b"/>
      </g>
      <path d="M56.059,157.871l1.491-.219q-.22-1.5-.495-3l-1.484.272Q55.843,156.4,56.059,157.871Z" style="fill: #d1151b"/>
      <path d="M56.735,163.81l1.5-.122q-.122-1.5-.294-3.023l-1.5.171Q56.615,162.332,56.735,163.81Z" style="fill: #d1151b"/>
      <path d="M54.979,152l1.472-.327c-.219-.985-.458-1.973-.718-2.957l-1.458.386Q54.656,150.547,54.979,152Z" style="fill: #d1151b"/>
      <path d="M57.043,169.788l1.509-.035q-.035-1.5-.113-3.034l-1.505.079Q57.011,168.309,57.043,169.788Z" style="fill: #d1151b"/>
    </g>
  </g>
</svg>
