<svg xmlns="http://www.w3.org/2000/svg" viewBox="0 0 146.621 450"><defs><style>.a{isolation:isolate;}.b,.l{fill:#eff0f0;}.c,.d,.e,.k{fill:#e9e9ea;}.c,.e,.g,.i,.l,.m,.o{mix-blend-mode:multiply;}.d,.e{opacity:0.41;}.d,.j,.k,.p{mix-blend-mode:screen;}.f,.g,.m{fill:#e5e5e6;}.g{opacity:0.48;}.h{fill:#f2f3f3;}.i,.j{fill:#e4e4e5;}.i{opacity:0.74;}.k{opacity:0.88;}.l{opacity:0.43;}.n,.o{fill:#ccc;}.q{fill:#e6e7e7;}</style></defs><title>pipe</title><g class="a"><path class="b" d="M.119,424.913C.119,438.766,32.889,450,73.313,450S146.5,438.766,146.5,424.913V409.87c0-13.853-32.77-25.087-73.191-25.087S.119,396.018.119,409.87Z"/><path class="c" d="M61.954,385.081C26.928,386.96.119,397.343.119,409.87v15.043c0,12.527,26.809,22.911,61.835,24.784Z"/><path class="d" d="M105.3,447.474V415.167H93.021v33.9C97.281,448.664,101.392,448.132,105.3,447.474Z"/><path class="e" d="M134.559,438.636V407.22H122.641v36.221A71.511,71.511,0,0,0,134.559,438.636Z"/><ellipse class="f" cx="73.312" cy="409.871" rx="73.192" ry="25.087"/><path class="g" d="M95.911,401.982c0,12.976-9.194,24.674-23.918,32.96.441.011.877.016,1.32.016,40.421,0,73.191-11.234,73.191-25.087,0-11.8-23.785-21.69-55.811-24.366A29.8,29.8,0,0,1,95.911,401.982Z"/><path class="h" d="M129.6,411.117h.023V25.081H14.99V409.74a4.454,4.454,0,0,0-.156,1.106c0,8.541,25.695,15.465,57.395,15.465C103.594,426.312,129.07,419.529,129.6,411.117Z"/><path class="i" d="M59.784,425.936V25.081H14.99V411.952C16.805,418.845,35.37,424.485,59.784,425.936Z"/><path class="j" d="M28,420.7V25.081H14.99V411.952C15.867,415.271,20.594,418.292,28,420.7Z"/><path class="k" d="M107.228,423.1V25.081H96.391v399.79C100.26,424.391,103.886,423.791,107.228,423.1Z"/><path class="e" d="M129.6,411.117h.023V25.081H118.788v394.8C125.409,417.405,129.4,414.384,129.6,411.117Z"/><path class="l" d="M14.99,25.081V60.838c13.368,6.032,34.515,9.929,58.323,9.929,22.645,0,42.887-3.527,56.312-9.068V25.081Z"/><path class="b" d="M.119,40.129c0,13.848,32.77,25.087,73.194,25.087S146.5,53.977,146.5,40.129V25.081C146.5,11.234,113.735,0,73.313,0S.119,11.234.119,25.081Z"/><path class="c" d="M61.954.3C26.928,2.176.119,12.559.119,25.081V40.129c0,12.527,26.809,22.911,61.835,24.784Z"/><path class="d" d="M105.3,62.69V30.383H93.021v33.9C97.281,63.88,101.392,63.348,105.3,62.69Z"/><path class="e" d="M134.559,53.852V22.436H122.641V58.657A72.072,72.072,0,0,0,134.559,53.852Z"/><path class="f" d="M73.313,50.173C32.889,50.173.119,38.939.119,25.081S32.889,0,73.313,0,146.5,11.234,146.5,25.081,113.735,50.173,73.313,50.173Z"/><path class="m" d="M95.911,17.192c0,12.982-9.194,24.68-23.918,32.965.441.005.877.016,1.32.016,40.421,0,73.191-11.234,73.191-25.092C146.5,13.289,122.72,3.4,90.693.714A29.816,29.816,0,0,1,95.911,17.192Z"/><ellipse class="n" cx="73.311" cy="25.084" rx="56.316" ry="15.46"/><path class="o" d="M94.466,10.759v28.65c20.615-2.3,35.16-7.837,35.16-14.327S115.081,13.054,94.466,10.759Z"/><g class="p"><path class="f" d="M146.612,25.092c.169,3.527-1.91,6.793-4.36,9.2a37.692,37.692,0,0,1-8.486,6.063,91.68,91.68,0,0,1-19.47,7.075,142.1,142.1,0,0,1-20.367,3.517A206.039,206.039,0,0,1,73.3,52.119c-13.736-.182-27.565-1.341-40.975-4.685a91.552,91.552,0,0,1-19.467-7.086A37.222,37.222,0,0,1,4.372,34.29C1.925,31.88-.162,28.624.01,25.081H.224c0,3.449,2.129,6.47,4.612,8.713a36.277,36.277,0,0,0,8.526,5.531A90.859,90.859,0,0,0,32.7,45.79a185.95,185.95,0,0,0,40.609,4.169,185.936,185.936,0,0,0,40.6-4.169,90.992,90.992,0,0,0,19.347-6.465,36.386,36.386,0,0,0,8.526-5.531c2.479-2.243,4.607-5.259,4.6-8.713Z"/></g><g class="p"><path class="f" d="M146.612,409.876c.169,3.527-1.91,6.794-4.36,9.2a37.355,37.355,0,0,1-8.486,6.058,91.707,91.707,0,0,1-19.47,7.085,142.64,142.64,0,0,1-20.367,3.517q-10.28,1.1-20.625,1.164c-13.736-.177-27.565-1.346-40.975-4.685a91.6,91.6,0,0,1-19.467-7.086,37.369,37.369,0,0,1-8.489-6.052c-2.447-2.416-4.534-5.672-4.362-9.21H.224c0,3.449,2.129,6.465,4.607,8.708a36.25,36.25,0,0,0,8.531,5.531A90.83,90.83,0,0,0,32.7,430.574a185.249,185.249,0,0,0,40.609,4.164,185.234,185.234,0,0,0,40.6-4.164,90.962,90.962,0,0,0,19.347-6.464,36.218,36.218,0,0,0,8.526-5.531c2.479-2.243,4.607-5.26,4.6-8.713Z"/></g><g class="p"><path class="q" d="M16.889,25.081a5.761,5.761,0,0,1,1.226-3.7,13.7,13.7,0,0,1,2.854-2.723A35.491,35.491,0,0,1,27.81,14.9a88.819,88.819,0,0,1,14.85-4.331,163.677,163.677,0,0,1,61.3.01,88.573,88.573,0,0,1,14.852,4.331,35.186,35.186,0,0,1,6.835,3.747,13.837,13.837,0,0,1,2.857,2.723,5.755,5.755,0,0,1,1.226,3.7h-.216c-.055-2.578-2.225-4.477-4.26-5.828a33.9,33.9,0,0,0-6.84-3.282,88.9,88.9,0,0,0-14.745-3.746A179.285,179.285,0,0,0,73.313,9.84a178.78,178.78,0,0,0-30.362,2.39A89.013,89.013,0,0,0,28.2,15.971a34.037,34.037,0,0,0-6.835,3.282c-2.035,1.357-4.206,3.24-4.263,5.838Z"/></g></g></svg>