<svg xmlns="http://www.w3.org/2000/svg" xmlns:xlink="http://www.w3.org/1999/xlink" viewBox="0 0 55.468 186.175">
  <defs>
    <linearGradient id="a" data-name="Áåçûìÿííûé ãðàäèåíò 38" x1="268.891" y1="282.836" x2="268.814" y2="272.087" gradientUnits="userSpaceOnUse">
      <stop offset="0" stop-color="#ffc09c"/>
      <stop offset="1" stop-color="#d4804e"/>
    </linearGradient>
    <linearGradient id="b" x1="289.796" y1="281.616" x2="289.717" y2="270.579" xlink:href="#a"/>
    <linearGradient id="c" x1="299.234" y1="329.782" x2="299.234" y2="329.78" gradientUnits="userSpaceOnUse">
      <stop offset="0" stop-color="#404040"/>
      <stop offset="1" stop-color="#525252"/>
    </linearGradient>
    <linearGradient id="d" x1="274.267" y1="249.894" x2="274.267" y2="249.894" xlink:href="#c"/>
    <linearGradient id="e" x1="272.443" y1="329.782" x2="272.443" y2="329.781" xlink:href="#c"/>
    <linearGradient id="f" x1="274.262" y1="235.247" x2="274.202" y2="226.617" xlink:href="#c"/>
    <linearGradient id="g" x1="272.432" y1="186.333" x2="271.447" y2="179.004" xlink:href="#a"/>
    <linearGradient id="h" data-name="Áåçûìÿííûé ãðàäèåíò 35" x1="271.059" y1="153.416" x2="271.306" y2="158.097" gradientUnits="userSpaceOnUse">
      <stop offset="0" stop-color="#ff9c63"/>
      <stop offset="1" stop-color="#ffb991"/>
    </linearGradient>
    <radialGradient id="i" cx="-11489.046" cy="46.471" r="2.663" gradientTransform="matrix(-0.504, 0.22, 0.306, 0.701, -5518.233, 2664.857)" xlink:href="#h"/>
    <radialGradient id="j" data-name="Áåçûìÿííûé ãðàäèåíò 34" cx="283.418" cy="169.796" r="3.816" gradientUnits="userSpaceOnUse">
      <stop offset="0" stop-color="#eb874d"/>
      <stop offset="1" stop-color="#ffb991"/>
    </radialGradient>
    <clipPath id="k" transform="translate(-250.635 -147.758)">
      <path d="M274.793,167.579a6.045,6.045,0,0,0-.035-3.952,7.215,7.215,0,0,0-6.05,1.853,4.133,4.133,0,0,1,0,1.009S271.789,169.04,274.793,167.579Z" style="fill: none"/>
    </clipPath>
    <linearGradient id="l" data-name="Áåçûìÿííûé ãðàäèåíò 67" x1="20.825" y1="19.935" x2="20.825" y2="15.587" gradientUnits="userSpaceOnUse">
      <stop offset="0" stop-color="#ed9247"/>
      <stop offset="0.18" stop-color="#cc7c3a"/>
      <stop offset="0.423" stop-color="#a7642c"/>
      <stop offset="0.648" stop-color="#8c5222"/>
      <stop offset="0.847" stop-color="#7c471b"/>
      <stop offset="1" stop-color="#764319"/>
    </linearGradient>
    <clipPath id="m" transform="translate(-250.635 -147.758)">
      <path d="M279.723,167.524s-1.232-1.65-.7-2.669,2.715-2.253,3.99-1.644a4.007,4.007,0,0,1,.119,3A3.4,3.4,0,0,1,279.723,167.524Z" style="fill: none"/>
    </clipPath>
    <linearGradient id="n" x1="29.903" y1="20.125" x2="29.903" y2="15.777" xlink:href="#l"/>
    <radialGradient id="o" cx="-4692.538" cy="170.152" r="3.036" gradientTransform="matrix(-1, 0, 0, 1, -4420.276, 0)" xlink:href="#h"/>
    <linearGradient id="p" x1="274.89" y1="186.002" x2="273.905" y2="178.673" xlink:href="#a"/>
    <linearGradient id="q" x1="258.203" y1="166.458" x2="264.43" y2="166.458" xlink:href="#h"/>
  </defs>
  <title>producer-f-a</title>
  <g style="isolation: isolate">
    <g>
      <path d="M257.511,162.371s-11.581,1.3-4.683,8.416,17.161.573,14.864-3.194S257.511,162.371,257.511,162.371Z" transform="translate(-250.635 -147.758)" style="fill: #d15000"/>
      <path d="M260.785,163.238c-.212-.069-.42-.135-.62-.2-3.5,2.235-5.409,4.568-5.692,6.951a5.288,5.288,0,0,0,.269,2.378q.349.228.7.421a4.95,4.95,0,0,1-.483-2.741C255.236,167.743,257.2,165.456,260.785,163.238Z" transform="translate(-250.635 -147.758)" style="fill: #b54601"/>
      <path d="M271.766,329.785a2.8,2.8,0,0,0-.178,1.581c.217.616.9,2.552,1.21,2.552.232,0,2.737.014,2.737.014.062,0-.045-.471-.319-.574a3.52,3.52,0,0,1-1.385-1.7C273.6,330.874,271.766,329.785,271.766,329.785Z" transform="translate(-250.635 -147.758)" style="fill: #424242"/>
      <path d="M264.212,270.293c1.558,4.063,2.8,7.045,2.546,9.539-4.008,8.835-2.546,19.668,5.008,49.954h1.355s-.766-10.721-.986-20.58c-.1-4.345.616-23.594,1.253-39.174" transform="translate(-250.635 -147.758)" style="fill: url(#a)"/>
      <path d="M279.875,269.274c1.8,7.228,3.245,13.657,3.594,14.734-.843,5.617-1.52,6.617,1.407,15.981s9.557,22.033,13.62,29.8h1.478s-8.5-34.828-9.977-46.041c-.642-4.868-.248-9.513-.214-15.244" transform="translate(-250.635 -147.758)" style="fill: url(#b)"/>
      <path d="M298.495,329.785h1.478" transform="translate(-250.635 -147.758)" style="fill: url(#c)"/>
      <path d="M274.267,249.894" transform="translate(-250.635 -147.758)" style="fill: url(#d)"/>
      <path d="M271.766,329.785h1.355" transform="translate(-250.635 -147.758)" style="fill: url(#e)"/>
      <path d="M289.771,269.6c.1-7.654-.3-17.184-4.775-31.943l-.105-.349-.655-9.391s-.27.123-7.592-.246-7.8-2.639-7.8-2.639c-.174.189-5.569,6.4-5.81,6.692-1.5,1.8-4,5.631-4,12.248,0,13.58,3.59,22.142,5.888,28.151C271.816,274.212,280.676,272.155,289.771,269.6Z" transform="translate(-250.635 -147.758)" style="fill: url(#f)"/>
      <path d="M282.808,230.367c-1.656,0-4.477-.051-7.833-.317-5.454-.433-7.911-2.788-8.013-2.888l.345-.352c.024.023,2.447,2.331,7.707,2.749a93.25,93.25,0,0,0,9.366.3l.017.492C284.381,230.348,283.806,230.367,282.808,230.367Z" transform="translate(-250.635 -147.758)" style="fill: #d1d1d1;mix-blend-mode: multiply"/>
      <path d="M280.388,185.225s3.053,1.207,1.6,9.687-2.731,18.128-2.731,18.128l2.24,1.914-2.24,4.28s-5.189-2.436-6.866-4.5S278.384,185.86,280.388,185.225Z" transform="translate(-250.635 -147.758)" style="fill: #a2d8eb"/>
      <polygon points="38.415 73.17 32.337 72.63 31.796 67.323 38.114 70.794 38.415 73.17" style="fill: #9bd7eb"/>
      <path d="M287.332,216.1s-.838-1.366-1.485-.941l-.347.232a19.448,19.448,0,0,1,2.1,3.976c.362.954.609,1.018.609,1.018Z" transform="translate(-250.635 -147.758)" style="fill: #f5ba89"/>
      <path d="M293.628,216.828l-1.014.4.726.25-.652,1.39-.692.18.856.252-.74,1.353s-.643-.153-.116.278-1.383-.264-1.383-.264l1.179-4.629Z" transform="translate(-250.635 -147.758)" style="fill: #dba67b"/>
      <polygon points="42.327 66.154 40.581 75.433 37.754 75.433 36.37 66.154 42.327 66.154" style="fill: #6f4327"/>
      <polygon points="42.992 66.584 35.596 66.979 36.069 64.478 42.327 64.736 42.992 66.584" style="fill: #dec8ba"/>
      <path d="M293.607,215.53a24.778,24.778,0,0,0-2.97.073c-.213.125-.3,1.053,1.673,1.369S294.186,215.875,293.607,215.53Z" transform="translate(-250.635 -147.758)" style="fill: #f5ba89"/>
      <path d="M293.34,217.476a31.955,31.955,0,0,0-3.308-.321c-.223.095-.038,1,1.87,1.575S293.872,217.9,293.34,217.476Z" transform="translate(-250.635 -147.758)" style="fill: #f5ba89"/>
      <path d="M292.852,219.3a28.032,28.032,0,0,0-3.066-.42c-.206.088-.026.991,1.746,1.626S293.348,219.731,292.852,219.3Z" transform="translate(-250.635 -147.758)" style="fill: #f5ba89"/>
      <path d="M292.334,220.8a22.3,22.3,0,0,0-2.542-.408c-.169.074-.154.73,1.319,1.308S292.749,221.19,292.334,220.8Z" transform="translate(-250.635 -147.758)" style="fill: #f5ba89"/>
      <path d="M260.852,246.291l-.07-.488a6.28,6.28,0,0,0,5.029-5.8l.489.062A6.871,6.871,0,0,1,260.852,246.291Z" transform="translate(-250.635 -147.758)" style="fill: #d1d1d1;mix-blend-mode: multiply"/>
      <path d="M280.388,185.225l-5.487-2.742-6.962,1.253-5.659,4.3s.452,6.442,1.519,8.9,7.19,19.049,7.288,23a6.3,6.3,0,0,1-.773,3.058c-.206.393-1.674.475-1.883.766-.452.629.408,1.262.408,1.262s-.155,1.781,5.458,2.431a68.892,68.892,0,0,0,9.938.454,1.138,1.138,0,0,0,.579-1.273c-.042-.462-.816-1.369-.871-1.979-.5-5.568-1.485-16.532-1.667-18.614,1.725-1.143,3.367-3.078,3.449-3.957C283.262,197.783,281.291,187.38,280.388,185.225Z" transform="translate(-250.635 -147.758)" style="fill: #baeeff"/>
      <path d="M262.28,188.035s-10.964,16.4-9.855,28.408c2.094,12.4,9.855,21.793,9.855,21.793s1.765.528,1.683,0-2.3-5.052-2.627-8.99-1.068-8.934-3.778-13.067c1.725-4.837,7.521-14.981,7.847-17.5S265.113,189.948,262.28,188.035Z" transform="translate(-250.635 -147.758)" style="fill: #baeeff"/>
      <path d="M265.226,200.378l-.462-.171s.127-.347.271-.921l.478.119A10.017,10.017,0,0,1,265.226,200.378Zm.5-1.953-.485-.086c.056-.315.1-.638.139-.96l.489.054C265.827,197.766,265.779,198.1,265.721,198.425Zm.218-1.991-.492-.02q.01-.256.01-.523,0-.219-.008-.444l.493-.018q.008.233.008.461Q265.951,196.167,265.939,196.434Zm-.562-1.949c-.038-.324-.09-.644-.154-.951l.483-.1c.067.321.121.656.161.994Zm-.394-1.882a9.475,9.475,0,0,0-.331-.9l.453-.194a9.743,9.743,0,0,1,.349.948Zm-.756-1.76a8.821,8.821,0,0,0-.514-.808l.4-.287a9.3,9.3,0,0,1,.543.854Zm-1.113-1.556a9.324,9.324,0,0,0-.675-.681l.332-.364a9.719,9.719,0,0,1,.711.718Z" transform="translate(-250.635 -147.758)" style="fill: #8ad2eb"/>
      <path d="M263.806,237.857a4.8,4.8,0,0,1,1.512.951c.452.528,1.191,1.847,1.93,2.154a7.937,7.937,0,0,0,1.519.44,1.862,1.862,0,0,1-2.135.879c-1.519-.351-1.314-.571-1.314-.571s-1.109,3.077-3.038,3.341a26.254,26.254,0,0,1,0-6.815Z" transform="translate(-250.635 -147.758)" style="fill: #ffb991"/>
      <path d="M266.831,174.581c.067.185,1.676,10.452,1.676,10.452s3.326,2.217,5.3,1.848,1.665-3.018,1.665-3.018l-.487-8.481Z" transform="translate(-250.635 -147.758)" style="fill: url(#g)"/>
      <path d="M281.591,153.6s1.647,3.592,2.057,4.823c-.328,2.956-1.15,8.212,2.053,10.84-2.135,4.763-7.318,10.87-7.318,10.87s-12.1-2.576-14.422-3.725c-1.335-2.464-1.828-10.538-1.828-10.538s-4.872-4.737-4.612-7.857c.424-3.942,4.448-8.376,5.1-8.541C277.792,147.34,281.591,153.6,281.591,153.6Z" transform="translate(-250.635 -147.758)" style="fill: url(#h)"/>
      <path d="M280.341,169.354a1.947,1.947,0,0,0,2.627.678c1.081-.472.671-1.542.3-2.389s-.561-1.15-1.642-.678A1.947,1.947,0,0,0,280.341,169.354Z" transform="translate(-250.635 -147.758)" style="fill: url(#i)"/>
      <path d="M279.132,170.9a1,1,0,0,0,.8,1.435c1.293.228,4.041-1.028,3.56-3-1.444.527-2.2,1.092-3.3.221a3.445,3.445,0,0,1-1.281-1.7Z" transform="translate(-250.635 -147.758)" style="fill: url(#j)"/>
      <path d="M268.778,160.92a14.164,14.164,0,0,1,7.507-1.952,1.922,1.922,0,0,1-.717,1.428,13.155,13.155,0,0,0-6.506.8C268.939,161.074,268.778,160.92,268.778,160.92Z" transform="translate(-250.635 -147.758)" style="fill: #a33f00"/>
      <path d="M271.8,173.334c.039-.111.155-.973.928-1.035C272.3,172.761,271.8,173.334,271.8,173.334Z" transform="translate(-250.635 -147.758)" style="fill: #d66c3e"/>
      <g>
        <path d="M274.793,167.579a6.045,6.045,0,0,0-.035-3.952,7.454,7.454,0,0,0-6.05,1.853,4.133,4.133,0,0,1,0,1.009S271.987,168.917,274.793,167.579Z" transform="translate(-250.635 -147.758)" style="fill: #fff"/>
        <g style="clip-path: url(#k)">
          <ellipse cx="20.825" cy="17.721" rx="2.135" ry="2.273" style="fill: url(#l)"/>
        </g>
        <path d="M268.709,165.479s.542-1.466,3.307-2.272a7.546,7.546,0,0,1,3.959-.152l-1.047,1.121-.169-.55A8.064,8.064,0,0,0,268.709,165.479Z" transform="translate(-250.635 -147.758)" style="fill: #542c08"/>
      </g>
      <g>
        <path d="M279.723,167.524s-1.117-1.871-.526-2.868c.487-.822,2.543-2.054,3.818-1.446a4.007,4.007,0,0,1,.119,3S281.4,168.013,279.723,167.524Z" transform="translate(-250.635 -147.758)" style="fill: #fff"/>
        <g style="clip-path: url(#m)">
          <ellipse cx="29.903" cy="17.583" rx="1.453" ry="2.273" style="fill: url(#n)"/>
        </g>
        <path d="M279.085,164.706a4.569,4.569,0,0,1,2.551-2.2,3.15,3.15,0,0,1,2.446.173,1.265,1.265,0,0,1-1.015.633C282.11,163,280.75,163.228,279.085,164.706Z" transform="translate(-250.635 -147.758)" style="fill: #542c08"/>
      </g>
      <path d="M279.8,159.776a3.259,3.259,0,0,0-.52.705,4.988,4.988,0,0,0-.356.8,7.41,7.41,0,0,0-.231.837,6.962,6.962,0,0,0-.135.857c-.036.287-.041.578-.05.867s.008.58.027.869.031.568.078.863a8.281,8.281,0,0,0,.139.86c.048.28.135.553.208.829a6.277,6.277,0,0,0,.316.785,3.894,3.894,0,0,0,.438.706,2.9,2.9,0,0,0,.581.569,2.391,2.391,0,0,0,.713.367c.064.02.129.039.2.054l.1.024.027.006h.007l-.024,0h.017l.055,0a1.882,1.882,0,0,0,.349-.065,12.825,12.825,0,0,0,1.619-.607l.213-.093.076.2a1.851,1.851,0,0,1,.107.478,1.894,1.894,0,0,1-.012.475,1.959,1.959,0,0,1-.356.869,3.127,3.127,0,0,1-1.461,1.023c-.135.051-.28.1-.416.138a3.625,3.625,0,0,1-.421.11c-.143.036-.288.055-.432.077a3.186,3.186,0,0,1-.439.026,1.971,1.971,0,0,1-.44-.049,1.106,1.106,0,0,1-.408-.181.722.722,0,0,1-.267-.786.682.682,0,0,0,.317.713,1,1,0,0,0,.382.134,1.832,1.832,0,0,0,.412.012,3.013,3.013,0,0,0,.412-.058c.136-.032.273-.061.4-.106a7.8,7.8,0,0,0,.792-.285,2.818,2.818,0,0,0,1.268-.971,1.573,1.573,0,0,0,.253-.715,1.746,1.746,0,0,0-.006-.38,1.485,1.485,0,0,0-.086-.355l.289.111a12.579,12.579,0,0,1-1.675.672,1.877,1.877,0,0,1-.52.084l-.055,0h-.014l-.041-.006-.027-.006-.112-.024c-.077-.017-.154-.039-.231-.062a2.873,2.873,0,0,1-.856-.43,3.17,3.17,0,0,1-.68-.661,4.377,4.377,0,0,1-.486-.8,6.759,6.759,0,0,1-.336-.856,7.941,7.941,0,0,1-.208-.889,8.743,8.743,0,0,1-.121-.889l-.023-.22-.012-.231-.019-.449c0-.3.008-.6.024-.9s.049-.6.1-.894a7.265,7.265,0,0,1,.191-.879,5.544,5.544,0,0,1,.311-.844A3.789,3.789,0,0,1,279.8,159.776Z" transform="translate(-250.635 -147.758)" style="fill: #de8857"/>
      <path d="M279.025,160.5l.7-1.29s3.843-1.1,3.826.722a1.83,1.83,0,0,0-.171.568S283.011,159.16,279.025,160.5Z" transform="translate(-250.635 -147.758)" style="fill: #a33f00"/>
      <path d="M268.375,169.788c0,1.209,1.74,2.188,3.886,2.188s3.886-.98,3.886-2.188-1.74-1.461-3.886-1.461S268.375,168.579,268.375,169.788Z" transform="translate(-250.635 -147.758)" style="fill: url(#o)"/>
      <ellipse cx="20.536" cy="21.723" rx="0.323" ry="0.154" style="fill: #e38734"/>
      <ellipse cx="274.045" cy="171.237" rx="0.323" ry="0.154" transform="translate(-277.795 -93.563) rotate(-10.764)" style="fill: #e38734"/>
      <ellipse cx="275.38" cy="169.635" rx="0.323" ry="0.154" transform="matrix(0.982, -0.187, 0.187, 0.982, -277.472, -93.341)" style="fill: #e38734"/>
      <ellipse cx="281.425" cy="168.164" rx="0.323" ry="0.154" transform="translate(-277.091 -92.238) rotate(-10.764)" style="fill: #e38734"/>
      <path d="M277.652,175.187a7.627,7.627,0,0,1-5.58-2.34l.378-.315a7.211,7.211,0,0,0,7.285,1.9l.119.478A9.127,9.127,0,0,1,277.652,175.187Z" transform="translate(-250.635 -147.758)" style="fill: #d66c3e"/>
      <path d="M268.709,166.488s.317.18.8.416c.243.12.532.246.845.373a10.361,10.361,0,0,0,.993.351,7.959,7.959,0,0,0,1.021.237c.166.015.326.044.479.055s.3.013.433.012.256-.018.366-.023a2.065,2.065,0,0,0,.281-.042l.247-.041-.237.082a2.126,2.126,0,0,1-.278.081c-.11.021-.234.045-.371.065a5.123,5.123,0,0,1-.944,0,6.259,6.259,0,0,1-1.059-.218,7.592,7.592,0,0,1-1.007-.384,8.79,8.79,0,0,1-.827-.441A6.242,6.242,0,0,1,268.709,166.488Z" transform="translate(-250.635 -147.758)" style="fill: #b05c11"/>
      <path d="M279.723,167.524a3.672,3.672,0,0,0,.559.007,3.777,3.777,0,0,0,.56-.067,4.147,4.147,0,0,0,.621-.161,4.857,4.857,0,0,0,.593-.247l.262-.141c.086-.042.157-.1.228-.141.142-.088.256-.17.335-.228l.129-.088-.1.119a2.446,2.446,0,0,1-.29.294,3.468,3.468,0,0,1-.472.352,3.412,3.412,0,0,1-.616.285,3.1,3.1,0,0,1-.664.144,2.9,2.9,0,0,1-.59,0A1.976,1.976,0,0,1,279.723,167.524Z" transform="translate(-250.635 -147.758)" style="fill: #b05c11"/>
      <path d="M264.43,164.968c3.262-2.752,3.369-12.606,3.369-12.606l16.012,7.352s2.685-9.116-4.921-11.757c-9.177-.493-14.1-.227-19.311,2.627-1.392,4.435-6.094,8.685-2.645,13.589C261.725,167.212,264.43,164.968,264.43,164.968Z" transform="translate(-250.635 -147.758)" style="fill: #e05600"/>
      <path d="M259.58,150.584c-.029.092-.061.184-.093.276.534.019,1.246.06,2.062.148a20.386,20.386,0,0,0-5.258,12.061,7.252,7.252,0,0,0,.43.779,20.018,20.018,0,0,1,5.435-12.768,20.288,20.288,0,0,1,3.593.778c-.814,1.48-4.592,8.616-4.795,13.865.169.019.333.032.49.039.2-5.177,4.1-12.5,4.778-13.74a10.384,10.384,0,0,1,1.568.716c.008-.238.009-.375.009-.375l1.058.486c-2.494-1.888-6.619-2.357-8.887-2.465C259.84,150.45,259.71,150.513,259.58,150.584Z" transform="translate(-250.635 -147.758)" style="fill: #b54601"/>
      <path d="M278.468,150.883a16.946,16.946,0,0,0-7.319-3.1c-.755.021-1.479.057-2.173.113a18.189,18.189,0,0,1,9.217,3.336,11.262,11.262,0,0,1,4.169,7.818l.482.221A11.751,11.751,0,0,0,278.468,150.883Z" transform="translate(-250.635 -147.758)" style="fill: #b54601"/>
      <path d="M298.413,329.579l1.41-.411s2.611,3.2,3.476,3.49a24.389,24.389,0,0,0,2.5.555c.193.048-.241.816-.723.625a21.22,21.22,0,0,0-2.457.021c-.482-.1-.915-1.245-1.782-1.706S297.864,331.9,298.413,329.579Z" transform="translate(-250.635 -147.758)" style="fill: #ffb991"/>
      <path d="M298.351,329.907a1.091,1.091,0,0,0-.377.892,24.977,24.977,0,0,0,4.649,3.059,16.464,16.464,0,0,0,3.283-.066l.2-.521-2.228-.545a5.086,5.086,0,0,1-2.505-.241A12.532,12.532,0,0,1,298.351,329.907Z" transform="translate(-250.635 -147.758)" style="fill: #525252"/>
      <path d="M297.974,330.8a13.4,13.4,0,0,1,.349,3.078h.494s.074-1.568.747-1.685c.938.5,2.866,1.741,2.866,1.741h3.419l.086-.214-3.436.031Z" transform="translate(-250.635 -147.758)" style="fill: #333"/>
      <path d="M271.766,329.785s.514,1.478.87,2.413a1.883,1.883,0,0,0,.917.9c1.7.293.735-.447.462-1.211a21.388,21.388,0,0,0-.894-2.1Z" transform="translate(-250.635 -147.758)" style="fill: #ffb991"/>
      <path d="M271.53,331.079c-.019-.059.624,2.854.624,2.854h.373l-.01-.31.205.3h2.83l-.023-.155-2.731-.006A11.08,11.08,0,0,1,271.53,331.079Z" transform="translate(-250.635 -147.758)" style="fill: #333"/>
      <polygon points="15.617 37.259 17.388 34.202 22.09 36.633 20.808 40.277 15.617 37.259" style="fill: #dbf6ff"/>
      <path d="M276.387,182.893l-.689,3.9-.431-1.293a22.411,22.411,0,0,0,.112-3.174Z" transform="translate(-250.635 -147.758)" style="fill: #a2d8eb"/>
      <polygon points="25.752 35.134 26.808 39.426 25.292 37.742 25.752 35.134" style="fill: #86b2c2"/>
      <path d="M272.725,184.391s1.885,2.751,1.824,2.751a9.035,9.035,0,0,1-2.792,0Z" transform="translate(-250.635 -147.758)" style="fill: #a2d8eb"/>
      <path d="M275.7,186.793s.408,2.135.367,2.074-1.54-1.725-1.54-1.725l-.354-.575,1.073-1.068Z" transform="translate(-250.635 -147.758)" style="fill: url(#p)"/>
      <path d="M276.065,188.867c.344,1.041.695,2.08,1.06,3.113s.752,2.058,1.141,3.08c.2.508.4,1.018.614,1.521s.435,1,.66,1.5.476.979.742,1.45c.126.24.278.46.415.692s.314.424.468.639l.056.078,0,.06a5.564,5.564,0,0,1-.055.759,3.492,3.492,0,0,1-.064.373l-.09.367a7.08,7.08,0,0,1-.248.709c-.09.234-.2.456-.312.68s-.237.437-.372.646-.271.416-.416.617a10.324,10.324,0,0,1-.959,1.145l.072-.191.9,10.9c.142,1.817.285,3.636.458,5.449.043.453.083.908.14,1.355.027.22.083.446.091.683a3.641,3.641,0,0,1-.042.7,10.478,10.478,0,0,1-.821,2.614,13.611,13.611,0,0,0,.419-1.3,8.17,8.17,0,0,0,.265-1.331,3.53,3.53,0,0,0,.012-.665c-.016-.218-.08-.437-.119-.667-.077-.455-.142-.906-.2-1.36-.222-1.812-.412-3.626-.6-5.441s-.344-3.632-.511-5.448-.336-3.632-.47-5.451l-.008-.111.08-.08a9.91,9.91,0,0,0,.917-1.077c.14-.191.278-.385.4-.586s.244-.405.36-.612.214-.421.3-.639a6.652,6.652,0,0,0,.238-.661l.086-.339a3.1,3.1,0,0,0,.062-.343,5.144,5.144,0,0,0,.057-.691l.053.138c-.165-.231-.355-.451-.5-.691s-.3-.474-.422-.723c-.26-.491-.493-.992-.717-1.5s-.432-1.014-.626-1.528-.388-1.029-.577-1.544c-.37-1.034-.709-2.079-1.031-3.128S276.342,189.928,276.065,188.867Z" transform="translate(-250.635 -147.758)" style="fill: #96c7d9"/>
      <path d="M280.174,194.821l2.489-.625s1.995,5.06.491,5.491S280.174,194.821,280.174,194.821Z" transform="translate(-250.635 -147.758)" style="fill: #96c7d9"/>
      <path d="M275.591,226.778l-2.321-.288.114-1.029,2.385.2Zm-1.94-.588,1.652.2.067-.422-1.68-.14Z" transform="translate(-250.635 -147.758)" style="fill: #9e9e9e"/>
      <path d="M283.473,227.293l-1.921-.167.154-1,2.065.113Zm-1.524-.479,1.27.111.1-.364L282,226.489Z" transform="translate(-250.635 -147.758)" style="fill: #9e9e9e"/>
      <polygon points="23.367 78.412 22.949 81.152 24.211 81.353 24.211 78.473 23.367 78.412" style="fill: #9e9e9e"/>
      <polygon points="31.679 78.951 31.741 81.353 32.603 81.353 32.264 78.951 31.679 78.951" style="fill: #9e9e9e"/>
      <path d="M263.992,186.735s8.168,9.054,10.04,14.934c.722,5.47-.306,24.357-.306,24.357h1.654s.817-23.569.547-24.882c-.926-3.613-10.733-15.322-10.733-15.322Z" transform="translate(-250.635 -147.758)" style="fill: #854a02"/>
      <path d="M277.444,183.754s5.854,17.061,5.934,17.636-1.432,25.211-1.432,25.211h1.432s.966-24.39.893-25.129-5.72-17.165-5.72-17.165Z" transform="translate(-250.635 -147.758)" style="fill: #854a02"/>
      <path d="M263.98,169.712s-7.556.294-5.385-5.413c1.184-2.814,5.834.669,5.834.669Z" transform="translate(-250.635 -147.758)" style="fill: url(#q)"/>
      <path d="M259.377,165.811l.072-.281a1.113,1.113,0,0,1,.094-.276c.044-.09.092-.181.142-.272a2.657,2.657,0,0,1,.2-.237,1.321,1.321,0,0,1,.549-.317.948.948,0,0,1,.316-.058,1.19,1.19,0,0,1,.318.005,1.716,1.716,0,0,1,.309.05,2.467,2.467,0,0,1,.3.083,4.808,4.808,0,0,1,.558.243,5.475,5.475,0,0,1,.516.308c.165.116.322.229.483.367l.594.509-.794-.058a5,5,0,0,0-.622,0,2.816,2.816,0,0,0-.606.1,2.016,2.016,0,0,0-.276.1,1.312,1.312,0,0,0-.243.138.892.892,0,0,0-.184.189.35.35,0,0,0-.068.112c-.014.031-.052.1-.049.1l-.038.163a.394.394,0,0,1,.007.093.572.572,0,0,0,.095.225.945.945,0,0,0,.193.211,1.9,1.9,0,0,0,.252.181,5.689,5.689,0,0,0,1.215.51,3.927,3.927,0,0,1-1.338-.267,2.208,2.208,0,0,1-.318-.168,1.229,1.229,0,0,1-.291-.246.948.948,0,0,1-.2-.37,1.852,1.852,0,0,1-.025-.24l.021-.166a.951.951,0,0,1,.067-.212.683.683,0,0,1,.094-.179,1.357,1.357,0,0,1,.263-.305,1.793,1.793,0,0,1,.325-.214,1.849,1.849,0,0,1,.348-.139,3.326,3.326,0,0,1,.71-.132,3.792,3.792,0,0,1,.716,0l-.2.451c-.129-.115-.281-.23-.428-.338s-.3-.208-.459-.3a4.35,4.35,0,0,0-.484-.246,2.452,2.452,0,0,0-.249-.1,1.352,1.352,0,0,0-.253-.067.879.879,0,0,0-.255-.03.706.706,0,0,0-.252.012.635.635,0,0,0-.242.066.805.805,0,0,0-.226.121,2.629,2.629,0,0,0-.205.169l-.17.213a1.163,1.163,0,0,0-.148.244Z" transform="translate(-250.635 -147.758)" style="fill: #de7c43"/>
      <path d="M272.157,242.615s.485-.065,1.206-.128,1.68-.13,2.637-.2l2.636-.162.875-.049.335-.011-.318.107c-.2.068-.5.152-.852.233s-.774.164-1.225.226-.935.11-1.419.147-.97.045-1.425.038-.879-.022-1.243-.053A10.376,10.376,0,0,1,272.157,242.615Z" transform="translate(-250.635 -147.758)" style="fill: #d1d1d1;mix-blend-mode: multiply"/>
      <polygon points="24.298 95.893 23.664 115.197 24.66 95.91 24.298 95.893" style="fill: #d1d1d1;mix-blend-mode: multiply"/>
    </g>
  </g>
</svg>
