<svg xmlns="http://www.w3.org/2000/svg" xmlns:xlink="http://www.w3.org/1999/xlink" viewBox="0 0 360 240">
  <defs>
    <clipPath id="a">
      <rect x="90.354" y="56.793" width="192.914" height="108.77" style="fill: none"/>
    </clipPath>
  </defs>
  <title>product-icon-b</title>
  <g>
    <g>
      <line x1="70.137" y1="91.773" x2="281.842" y2="91.773" style="fill: none;stroke: #000;stroke-miterlimit: 2;stroke-width: 2px;stroke-dasharray: 4"/>
      <line x1="82.932" y1="181.34" x2="198.09" y2="23.143" style="fill: none;stroke: #000;stroke-miterlimit: 2;stroke-width: 2px;stroke-dasharray: 4"/>
      <line x1="81.769" y1="184.83" x2="301.617" y2="92.936" style="fill: none;stroke: #000;stroke-miterlimit: 2;stroke-width: 2px;stroke-dasharray: 4"/>
      <line x1="269.741" y1="199.954" x2="297.432" y2="108.058" style="fill: none;stroke: #000;stroke-miterlimit: 2;stroke-width: 2px;stroke-dasharray: 4"/>
      <circle cx="201.517" cy="14.241" r="7.851" style="fill: none;stroke: #000;stroke-width: 3px"/>
      <circle cx="57.284" cy="87.81" r="12.758" style="fill: none;stroke: #000;stroke-width: 3px"/>
      <circle cx="57.284" cy="87.81" r="6.977" style="fill: #ed1c24"/>
      <circle cx="266.72" cy="212.748" r="12.758" style="fill: none;stroke: #000;stroke-width: 3px"/>
      <circle cx="266.72" cy="212.747" r="6.977" style="fill: #ddb2b3"/>
      <g>
        <g>
          <path d="M82.245,201.222a19.084,19.084,0,1,1,19.084-19.084A19.105,19.105,0,0,1,82.245,201.222Z" style="fill: #fff"/>
          <path d="M82.245,164.8a17.339,17.339,0,1,1-17.339,17.339A17.358,17.358,0,0,1,82.245,164.8m0-3.49a20.829,20.829,0,1,0,20.829,20.829,20.831,20.831,0,0,0-20.829-20.829Z"/>
        </g>
        <circle cx="82.245" cy="179.699" r="7.317" style="fill: #ccc;stroke: #000;stroke-width: 3px"/>
        <path d="M76.757,187.829H87.731a7.318,7.318,0,0,1,7.319,7.316v.6a18.635,18.635,0,0,1-25.609,0v-.6A7.316,7.316,0,0,1,76.757,187.829Z" style="fill: #ccc;stroke: #000;stroke-width: 3px"/>
      </g>
      <g>
        <g>
          <path d="M300.125,110.982A19.084,19.084,0,1,1,319.209,91.9,19.105,19.105,0,0,1,300.125,110.982Z" style="fill: #fff"/>
          <path d="M300.125,74.558A17.339,17.339,0,1,1,282.786,91.9a17.359,17.359,0,0,1,17.339-17.339m0-3.49A20.829,20.829,0,1,0,320.954,91.9a20.831,20.831,0,0,0-20.829-20.829Z"/>
        </g>
        <circle cx="300.126" cy="89.46" r="7.316" style="fill: #ed1c24;stroke: #000;stroke-width: 3px"/>
        <path d="M294.637,97.589h10.974a7.319,7.319,0,0,1,7.319,7.318v.593a18.635,18.635,0,0,1-25.609,0v-.593A7.316,7.316,0,0,1,294.637,97.589Z" style="fill: #ed1c24;stroke: #000;stroke-width: 3px"/>
      </g>
      <line x1="66.647" y1="80.409" x2="196.85" y2="18.49" style="fill: none;stroke: #000;stroke-miterlimit: 2;stroke-width: 2px;stroke-dasharray: 4"/>
      <line x1="285.332" y1="79.141" x2="208.559" y2="19.653" style="fill: none;stroke: #000;stroke-miterlimit: 2;stroke-width: 2px;stroke-dasharray: 4"/>
      <line x1="76.183" y1="160.984" x2="57.789" y2="98.752" style="fill: none;stroke: #000;stroke-miterlimit: 2;stroke-width: 2px;stroke-dasharray: 4"/>
      <line x1="101.544" y1="188.32" x2="255.088" y2="210.421" style="fill: none;stroke: #000;stroke-miterlimit: 2;stroke-width: 2px;stroke-dasharray: 4"/>
    </g>
    <g>
      <g>
        <path d="M164.71,198.728v20.938A11.632,11.632,0,0,1,153.078,231.3H222.87a11.632,11.632,0,0,1-11.632-11.632V198.728Z" style="fill: #ccc;stroke: #000;stroke-width: 3px"/>
        <g>
          <path d="M294.883,177.352V51.054a5.923,5.923,0,0,0-5.918-5.914H84.877a5.919,5.919,0,0,0-5.911,5.914v126.3Z" style="stroke: #000;stroke-width: 3px"/>
          <rect x="90.354" y="56.793" width="192.914" height="108.77" style="fill: #fff"/>
          <path d="M78.84,177.225v18.212c0,3.492,3.58,7.384,7.07,7.384H289.505c3.5,0,5.581-3.59,5.581-7.084V177.225Z" style="fill: #fff;stroke: #000;stroke-width: 3px"/>
        </g>
      </g>
      <g>
        <line x1="125.883" y1="89.387" x2="125.883" y2="160.343" style="fill: none;stroke: #ccc"/>
        <line x1="136.934" y1="89.387" x2="136.934" y2="160.343" style="fill: none;stroke: #ccc"/>
        <line x1="147.984" y1="89.387" x2="147.984" y2="160.343" style="fill: none;stroke: #ccc"/>
        <line x1="159.035" y1="89.387" x2="159.035" y2="160.343" style="fill: none;stroke: #ccc"/>
        <line x1="170.085" y1="89.387" x2="170.085" y2="160.343" style="fill: none;stroke: #ccc"/>
        <line x1="181.136" y1="89.387" x2="181.136" y2="160.343" style="fill: none;stroke: #ccc"/>
        <line x1="192.186" y1="89.387" x2="192.186" y2="160.343" style="fill: none;stroke: #ccc"/>
        <line x1="203.237" y1="89.387" x2="203.237" y2="160.343" style="fill: none;stroke: #ccc"/>
        <line x1="214.287" y1="89.387" x2="214.287" y2="160.343" style="fill: none;stroke: #ccc"/>
        <line x1="225.338" y1="89.387" x2="225.338" y2="160.343" style="fill: none;stroke: #ccc"/>
        <line x1="236.389" y1="89.387" x2="236.389" y2="160.343" style="fill: none;stroke: #ccc"/>
        <line x1="247.439" y1="89.387" x2="247.439" y2="160.343" style="fill: none;stroke: #ccc"/>
        <line x1="258.49" y1="89.387" x2="258.49" y2="160.343" style="fill: none;stroke: #ccc"/>
        <line x1="269.54" y1="89.387" x2="269.54" y2="160.343" style="fill: none;stroke: #ccc"/>
      </g>
      <g>
        <line x1="131.699" y1="88.751" x2="131.699" y2="92.35" style="fill: none;stroke: #ccc;stroke-width: 3px"/>
        <line x1="142.75" y1="88.751" x2="142.75" y2="92.35" style="fill: none;stroke: #ccc;stroke-width: 3px"/>
        <line x1="153.8" y1="88.751" x2="153.8" y2="92.35" style="fill: none;stroke: #ccc;stroke-width: 3px"/>
        <line x1="164.851" y1="88.751" x2="164.851" y2="92.35" style="fill: none;stroke: #ccc;stroke-width: 3px"/>
        <line x1="175.901" y1="88.751" x2="175.901" y2="92.35" style="fill: none;stroke: #ccc;stroke-width: 3px"/>
        <line x1="186.952" y1="88.751" x2="186.952" y2="92.35" style="fill: none;stroke: #ccc;stroke-width: 3px"/>
        <line x1="198.002" y1="88.751" x2="198.002" y2="92.35" style="fill: none;stroke: #ccc;stroke-width: 3px"/>
        <line x1="209.053" y1="88.751" x2="209.053" y2="92.35" style="fill: none;stroke: #ccc;stroke-width: 3px"/>
        <line x1="220.104" y1="88.751" x2="220.104" y2="92.35" style="fill: none;stroke: #ccc;stroke-width: 3px"/>
        <line x1="231.154" y1="88.751" x2="231.154" y2="92.35" style="fill: none;stroke: #ccc;stroke-width: 3px"/>
        <line x1="242.205" y1="88.751" x2="242.205" y2="92.35" style="fill: none;stroke: #ccc;stroke-width: 3px"/>
        <line x1="253.255" y1="88.751" x2="253.255" y2="92.35" style="fill: none;stroke: #ccc;stroke-width: 3px"/>
        <line x1="264.306" y1="88.751" x2="264.306" y2="92.35" style="fill: none;stroke: #ccc;stroke-width: 3px"/>
        <line x1="275.356" y1="88.751" x2="275.356" y2="92.35" style="fill: none;stroke: #ccc;stroke-width: 3px"/>
      </g>
      <g>
        <g>
          <path d="M115.531,82.292V80.2a4.188,4.188,0,0,0-4.188-4.189h-7.327A4.187,4.187,0,0,0,99.829,80.2v2.093Z" style="fill: #ed1c24"/>
          <circle cx="107.68" cy="69.206" r="3.663" style="fill: #ed1c24"/>
        </g>
        <line x1="122.788" y1="70.76" x2="172.009" y2="70.76" style="fill: #ccc;stroke: #ed1c24;stroke-width: 2px"/>
        <line x1="99.829" y1="89.371" x2="113.213" y2="89.371" style="fill: none;stroke: #ccc;stroke-width: 2px"/>
        <line x1="99.829" y1="95.187" x2="117.365" y2="95.187" style="fill: none;stroke: #ccc;stroke-width: 2px"/>
        <line x1="99.829" y1="101.003" x2="113.213" y2="101.003" style="fill: none;stroke: #ccc;stroke-width: 2px"/>
        <line x1="99.829" y1="106.82" x2="115.039" y2="106.82" style="fill: none;stroke: #ccc;stroke-width: 2px"/>
        <line x1="99.829" y1="112.636" x2="110.386" y2="112.636" style="fill: none;stroke: #ccc;stroke-width: 2px"/>
        <line x1="122.788" y1="77.017" x2="155.738" y2="77.017" style="fill: #ccc;stroke: #ed1c24;stroke-width: 2px"/>
      </g>
      <g>
        <line x1="192.768" y1="101.215" x2="246.276" y2="101.215" style="fill: none;stroke: #ed1c24;stroke-width: 4px"/>
        <line x1="137.71" y1="113.622" x2="191.218" y2="113.622" style="fill: none;stroke: #f5babc;stroke-width: 4px"/>
        <line x1="175.708" y1="113.622" x2="201.298" y2="113.622" style="fill: none;stroke: #e9c9ca;stroke-width: 4px"/>
        <line x1="165.627" y1="126.029" x2="246.276" y2="126.029" style="fill: none;stroke: #e9c9ca;stroke-width: 4px"/>
        <line x1="148.178" y1="118.468" x2="236.389" y2="118.468" style="fill: none;stroke: #ed1c24;stroke-width: 4px"/>
        <line x1="126.659" y1="155.109" x2="202.074" y2="155.109" style="fill: none;stroke: #ed1c24;stroke-width: 4px"/>
        <line x1="151.668" y1="138.435" x2="176.483" y2="138.435" style="fill: none;stroke: #ed1c24;stroke-width: 4px"/>
        <line x1="175.708" y1="138.435" x2="232.318" y2="138.435" style="fill: none;stroke: #ddb2b3;stroke-width: 4px"/>
        <line x1="192.768" y1="150.842" x2="246.276" y2="150.842" style="fill: none;stroke: #f5babc;stroke-width: 4px"/>
      </g>
      <g style="clip-path: url(#a)">
        <g>
          <path d="M147.25,186.037V157.909c0-6.175,5.657-11.181,12.634-11.181h55.439c6.977,0,12.631,5.005,12.631,11.181v28.129" style="fill: #fff;stroke: #000;stroke-width: 3px"/>
          <polygon points="197.967 146.843 187.354 152.971 176.74 146.843 176.74 123.67 187.354 123.67 197.967 123.67 197.967 146.843" style="fill: #fff;stroke: #000;stroke-width: 3px"/>
          <polygon points="174.92 161.834 187.309 153.644 175.897 147.054 174.92 161.834" style="fill: #fff;stroke: #000;stroke-width: 3px"/>
          <polygon points="199.767 161.834 187.376 154.75 198.788 147.054 199.767 161.834" style="fill: #fff;stroke: #000;stroke-width: 3px"/>
          <path d="M212.864,101.993h.408a4.9,4.9,0,0,1,4.9,4.9v8.985a4.9,4.9,0,0,1-4.9,4.9h-.408a4.9,4.9,0,0,1-4.9-4.9v-8.982A4.9,4.9,0,0,1,212.864,101.993Z" style="fill: #fff;stroke: #000;stroke-width: 3px"/>
          <path d="M212.421,116.7A24.817,24.817,0,0,1,187.6,141.518h0a24.817,24.817,0,0,1-24.82-24.816V96.848A24.818,24.818,0,0,1,187.6,72.032h0a24.817,24.817,0,0,1,24.818,24.816Z" style="fill: #fff;stroke: #000;stroke-width: 3px"/>
          <path d="M178.741,70.685a11.469,11.469,0,0,0-9.6,5.192H165.2a8.9,8.9,0,0,0-8.9,8.9v42.786h6.261V97.819a6.262,6.262,0,0,1,6.263-6.262H209a11.48,11.48,0,0,0,11.48-11.481V70.685Z" style="fill: #ccc;stroke: #000;stroke-width: 3px"/>
          <path d="M162.783,102.045c-2.463.255-6.48,2.315-6.48,4.849v8.982c0,2.534,4.017,4.594,6.48,4.85Z" style="fill: #fff;stroke: #000;stroke-width: 3px"/>
          <path d="M182.354,126.166a5.891,5.891,0,0,0,10.7,0" style="fill: #fff;stroke: #000;stroke-width: 3px"/>
          <path d="M163.352,102.112v3.982a10.27,10.27,0,1,0,20.541,0v-3.982Z" style="fill: #fff;stroke: #000;stroke-width: 3px"/>
          <path d="M191.86,102.112v3.982a10.27,10.27,0,1,0,20.54,0v-3.982Z" style="fill: #fff;stroke: #000;stroke-width: 3px"/>
          <line x1="177.055" y1="107.67" x2="173.262" y2="107.67" style="fill: #fff;stroke: #000;stroke-width: 3px"/>
          <line x1="201.886" y1="107.67" x2="198.266" y2="107.67" style="fill: #fff;stroke: #000;stroke-width: 3px"/>
          <line x1="183.875" y1="102.112" x2="193.267" y2="102.112" style="fill: #fff;stroke: #000;stroke-width: 3px"/>
          <line x1="186.541" y1="159.496" x2="186.541" y2="185.409" style="fill: #fff;stroke: #000;stroke-width: 3px"/>
        </g>
      </g>
    </g>
    <g>
      <path d="M121.007,216.8h15.659a5.078,5.078,0,0,0,5.079-5.081V188.64a5.079,5.079,0,0,0-5.079-5.079H121.007" style="fill: none;stroke: #000;stroke-linejoin: round;stroke-width: 3px"/>
      <path d="M127.6,170.353v52.172a8.773,8.773,0,0,1-8.774,8.773H78.193a8.773,8.773,0,0,1-8.773-8.773V170.353Z" style="fill: #ed1c24;stroke: #000;stroke-linecap: round;stroke-width: 3px"/>
      <g>
        <path d="M88.814,144.346c4.817,5.95-4.82,11.9,0,17.856" style="fill: none;stroke: #000;stroke-width: 3px"/>
        <path d="M98.509,162.2c-4.82-5.953,4.816-11.906,0-17.856" style="fill: none;stroke: #000;stroke-width: 3px"/>
        <path d="M108.2,162.2c-4.82-5.953,4.819-11.906,0-17.856" style="fill: none;stroke: #000;stroke-width: 3px"/>
      </g>
      <line x1="127.439" y1="221.176" x2="103.549" y2="221.176" style="fill: none;stroke: #000;stroke-linejoin: round;stroke-width: 3px"/>
      <line x1="100.59" y1="221.176" x2="97.404" y2="221.176" style="fill: none;stroke: #000;stroke-linejoin: round;stroke-width: 3px"/>
      <polygon points="112.762 189.214 102.574 183.333 92.386 189.214 92.386 204.744 102.574 204.744 112.762 204.744 112.762 189.214" style="fill: #fff;stroke: #000;stroke-width: 3px"/>
      <line x1="102.574" y1="169.834" x2="102.574" y2="189.403" style="fill: none;stroke: #000;stroke-width: 3px"/>
    </g>
    <line x1="133.832" y1="231.298" x2="254.806" y2="231.298" style="fill: none;stroke: #000;stroke-width: 3px"/>
  </g>
</svg>
