<svg xmlns="http://www.w3.org/2000/svg" xmlns:xlink="http://www.w3.org/1999/xlink" viewBox="0 0 95.836 280.961">
  <defs>
    <linearGradient id="a" x1="369.029" y1="409.652" x2="369.029" y2="385.026" gradientUnits="userSpaceOnUse">
      <stop offset="0" stop-color="#0c4a76"/>
      <stop offset="1" stop-color="#0a3e61"/>
    </linearGradient>
    <linearGradient id="b" x1="13520.607" y1="286.071" x2="13520.607" y2="266.776" gradientTransform="matrix(-1, 0, 0, 1, 13881.43, 0)" gradientUnits="userSpaceOnUse">
      <stop offset="0" stop-color="#f5ba89"/>
      <stop offset="1" stop-color="#d68756"/>
    </linearGradient>
    <linearGradient id="c" x1="13507.56" y1="267.578" x2="13511.987" y2="261.546" gradientTransform="matrix(-1, 0, 0, 1, 13881.43, 0)" gradientUnits="userSpaceOnUse">
      <stop offset="0" stop-color="#e6945e"/>
      <stop offset="0.311" stop-color="#eda571"/>
      <stop offset="0.711" stop-color="#f3b483"/>
      <stop offset="1" stop-color="#f5ba89"/>
    </linearGradient>
    <linearGradient id="d" x1="13517.385" y1="260.05" x2="13517.385" y2="255.62" gradientTransform="matrix(-1, 0, 0, 1, 13569.459, -226.11)" gradientUnits="userSpaceOnUse">
      <stop offset="0" stop-color="#34a5ad"/>
      <stop offset="1" stop-color="#194e52"/>
    </linearGradient>
    <linearGradient id="e" x1="13505.374" y1="260.05" x2="13505.374" y2="255.62" xlink:href="#d"/>
    <clipPath id="f" transform="translate(-311.971 -226.11)">
      <polygon points="353.25 291.976 360.609 335.61 368.624 289.555 360.91 289.455 353.25 291.976" style="fill: none"/>
    </clipPath>
    <linearGradient id="g" x1="827.444" y1="327.443" x2="799.921" y2="346.694" gradientTransform="translate(-438.528)" gradientUnits="userSpaceOnUse">
      <stop offset="0" stop-color="#02385e"/>
      <stop offset="0.38" stop-color="#023e68"/>
      <stop offset="1" stop-color="#024575"/>
    </linearGradient>
  </defs>
  <title>producer-a</title>
  <g>
    <g>
      <path d="M342.233,373.657c0,24.159,8.261,63.83,9.715,72.742-13.35,24.679,9.011,58.4,9.011,58.4h2.457l-.3-101.517s12.3,35.944,10.848,47.714c-7.938,30.565,19.265,53.8,19.265,53.8h2.594s-5.788-29.744-10.263-58.055c-.146-1.1.86-8.668.115-14.089-4.383-31.83-7.176-45.16-7.176-45.16S354.781,378.967,342.233,373.657Z" transform="translate(-311.971 -226.11)" style="fill: url(#a)"/>
      <path d="M362.784,403.3c-.005-.134-.532-13.4-.791-17.477l.669-.042c.258,4.085.786,17.359.791,17.492Z" transform="translate(-311.971 -226.11)" style="fill: #01325c"/>
      <path d="M363.146,400.221l-.055-.668a1.924,1.924,0,0,0,1.411-.8c2.118-2.719.769-10.993.754-11.077l.662-.11c.058.351,1.41,8.65-.887,11.6A2.593,2.593,0,0,1,363.146,400.221Z" transform="translate(-311.971 -226.11)" style="fill: #01325c"/>
      <path d="M345.567,398.193l-.393-.543c4.415-3.2,1.837-11.663,1.811-11.749l.64-.2C347.739,386.068,350.368,394.715,345.567,398.193Z" transform="translate(-311.971 -226.11)" style="fill: #01325c"/>
      <path d="M370.255,426.449l1.154,3.392c.712,2.166,1.742,5.256,2.883,8.995.573,1.869,1.184,3.9,1.8,6.048s1.267,4.425,1.875,6.794,1.212,4.823,1.719,7.346c.547,2.526.8,5.121,1.469,7.616,1.252,5.034,2.909,9.978,4.507,14.586,1.614,4.605,3.162,8.891,4.541,12.546l3.353,8.826,1.293,3.341-1.414-3.291c-.879-2.1-2.149-5.1-3.585-8.739s-3.1-7.882-4.738-12.488c-.819-2.3-1.642-4.691-2.429-7.136s-1.543-4.945-2.178-7.484c-.669-2.548-.905-5.164-1.431-7.653-.489-2.508-1.078-4.959-1.669-7.325s-1.189-4.648-1.78-6.806-1.157-4.2-1.7-6.073c-1.081-3.753-1.987-6.881-2.647-9.062Z" transform="translate(-311.971 -226.11)" style="fill: #01325c"/>
      <polygon points="81.261 278.694 80.13 280.961 95.836 280.961 94.701 279.828 83.855 278.694 81.261 278.694" style="fill: #854a02"/>
      <polygon points="48.988 278.694 46.332 279.828 45.967 280.961 52.93 280.961 52.93 279.828 51.445 278.694 48.988 278.694" style="fill: #854a02"/>
    </g>
    <g>
      <path d="M338.6,297.375s24.932-14.014,43.066-2.2c12.724,45-2.525,26.739-1.731,99.921,0,0-25.234-3.173-32.117-5.769a68.462,68.462,0,0,1-6.837-2.879l3.5-34.128-5.883-19.4Z" transform="translate(-311.971 -226.11)" style="fill: #02385e"/>
      <path d="M353.343,259.711s.166,29.282,0,29.115,2.269,2.427,7.47,2.427,7.5-2.427,7.5-2.427v-6.04s-4.027-.645-8.53-8.522A74.366,74.366,0,0,1,353.343,259.711Z" transform="translate(-311.971 -226.11)" style="fill: url(#b)"/>
      <polygon points="41.28 65.866 48.639 109.5 56.653 63.445 49.611 66.189 41.28 65.866" style="fill: #ededed"/>
      <polygon points="41.28 62.106 48.942 63.445 56.653 59.794 57.787 63.518 48.947 69.832 40.155 66.186 41.28 62.106" style="fill: #f7f7f7"/>
      <g>
        <path d="M369.776,235.4s8.117,7.305,11.51,12.544c-1.253,1.624-1.474,1.918-1.474,1.918a75.709,75.709,0,0,1,1.844,13.8c0,5.829-3.764,14.093-3.764,14.093s2.51,1.937,2.582,4.426c-2.009,1.826-7.009,4.944-11.436,4.944s-9.887-4.131-16.6-25.824S355.02,226.33,369.776,235.4Z" transform="translate(-311.971 -226.11)" style="fill: #f5ba89"/>
        <path d="M374.825,260.311s1.463,5.807,1.224,7.892a43.2,43.2,0,0,1-7.793.3l-1.136-2.508,2.657-.96.886-5.008Z" transform="translate(-311.971 -226.11)" style="fill: url(#c)"/>
        <path d="M365.937,245.44s1.627,4.206,1.683,6.032c-3.818.94-9.961,1.937-9.961,1.937l-2.767-4.759A36.291,36.291,0,0,1,365.937,245.44Z" transform="translate(-311.971 -226.11)" style="fill: #b56022"/>
        <path d="M368.256,251.416a57.258,57.258,0,0,1-1.135-6.281C368.283,246.381,368.256,251.416,368.256,251.416Z" transform="translate(-311.971 -226.11)" style="fill: #b56022"/>
        <path d="M351.318,255.758a18.24,18.24,0,0,0-4.782,1.635c-.553,2.545,3.929,8.855,3.929,8.855s2.269.638,3.542-.124C354.394,263.2,351.318,255.758,351.318,255.758Z" transform="translate(-311.971 -226.11)" style="fill: #f5ba89"/>
        <path d="M351.166,256.441l1.456-1.261c0,.166.056,13.614,18.152,13.614a19.45,19.45,0,0,0,10.757-3.158c2.225,4.782-.378,11.572-.378,11.572s1.267,7.071-1.794,9.71c-1.469,1.267-6.544.317-6.544.317s-4.75,2.851-7.052,2.851c-2.017,0-6.13-.227-8.78-3.484-1.112-1.368-1.267-6.544-1.267-6.544s-3.166-3.4-3.694-6.122c-.575-2.966.055-6.937-.027-10.954A45.789,45.789,0,0,0,351.166,256.441Z" transform="translate(-311.971 -226.11)" style="fill: #e0792c"/>
        <g>
          <path d="M377.255,277.247l-.037.085.011.092c.385,3.177.5,6.382-1.45,10.138.252.011.508.015.762.013a16.643,16.643,0,0,0,1.37-10.141c1.335-3.119.972-7.35.524-10.16-.206.087-.419.172-.644.257C378.22,270.289,378.541,274.332,377.255,277.247Z" transform="translate(-311.971 -226.11)" style="fill: #c46825"/>
          <path d="M367.495,268.632a38.929,38.929,0,0,1-3.085,11l-.035.079.007.086a11.64,11.64,0,0,1-3.55,9.507c.235.087.47.167.7.236a12.315,12.315,0,0,0,3.527-9.71,39.641,39.641,0,0,0,3.1-11.138C367.939,268.674,367.715,268.654,367.495,268.632Z" transform="translate(-311.971 -226.11)" style="fill: #c46825"/>
          <path d="M356.969,264.429a34.544,34.544,0,0,1-4.124,11.652c.12.226.249.449.382.669a33.607,33.607,0,0,0,4.344-11.8Q357.258,264.692,356.969,264.429Z" transform="translate(-311.971 -226.11)" style="fill: #c46825"/>
        </g>
        <path d="M368.256,259.644s.82-4.1-3.939-4.1a7.366,7.366,0,0,0-4.537,1.549,4.91,4.91,0,0,0,4.265,3.652C366.075,260.982,368.256,260.344,368.256,259.644Z" transform="translate(-311.971 -226.11)" style="fill: #fff"/>
        <path d="M373.946,257.652s1.079-2.2,2.776-2.2,2.572.618,2.572,1.466c0,1.586-1,3.885-3.282,3.885C374.831,260.8,373.946,257.652,373.946,257.652Z" transform="translate(-311.971 -226.11)" style="fill: #fff"/>
        <path d="M370.22,274.205c-5.442,0-11.123-4.648-11.363-4.846l.48-.58c.057.047,5.715,4.673,10.883,4.673,5.147,0,7.438-1.729,7.46-1.746l.464.593C378.046,272.376,375.656,274.205,370.22,274.205Z" transform="translate(-311.971 -226.11)" style="fill: #7a4623"/>
        <rect x="358.447" y="268.703" width="1.483" height="0.753" transform="translate(-386.774 157.296) rotate(-51.596)" style="fill: #7a4623"/>
        <circle cx="52.075" cy="32.064" r="2.625" style="fill: url(#d)"/>
        <ellipse cx="64.085" cy="32.064" rx="1.787" ry="2.625" style="fill: url(#e)"/>
        <path d="M379.294,256.914s1.169-1.519-.829-1.928A3.961,3.961,0,0,0,374.1,257.2a4.3,4.3,0,0,1,3.739-1.568A1.818,1.818,0,0,1,379.294,256.914Z" transform="translate(-311.971 -226.11)" style="fill: #593418"/>
        <path d="M352.057,260.022s2.637-9.224,2.667-17.195c0,0,2.141,2.244,3.063,1.728s-1.661-3.247-1.661-3.247,7.267,3.5,9.333,2.1-5.2-3.431-5.2-3.431,13.317,3.542,14.277,2.029-2.693-3.247-2.693-3.247,18.113-2.435,18.113-5.939-23.72-2.878-23.72-2.878,6.051-2.657,5.238-3.69-13.8,3.763-13.8,3.763,1.7-1.7.886-2.14-10.035,5.829-12.4,12.1C346.314,248.1,352.057,260.022,352.057,260.022Z" transform="translate(-311.971 -226.11)" style="fill: #e0792c"/>
        <path d="M371,269.008a25.262,25.262,0,0,1-2.794-.137l-.21-.026-1.387-3.065,2.291-.881.27.7-1.547.595.882,1.948a29.852,29.852,0,0,0,7.17-.261c-.017-3.84-3.381-16.241-3.416-16.369l-.041-.15.076-.135c.261-.461.566-1.033.6-1.153a.348.348,0,0,0,.061.29l.3-.219v-.382l.33.19c.11.189.146.25-.563,1.51.417,1.545,3.57,13.356,3.395,16.755l-.016.3-.294.053A29.446,29.446,0,0,1,371,269.008Z" transform="translate(-311.971 -226.11)" style="fill: #d98750"/>
        <path d="M372.433,245.136c.02,1.181.194,6.281.194,6.281,5.93-.738,6.67-.277,7.64.609.691-1.937,1.39-5.063,1.39-5.063S380.32,244.444,372.433,245.136Z" transform="translate(-311.971 -226.11)" style="fill: #b56022"/>
        <path d="M368.206,259.82s1.2-2.94-.42-4c-1.791-1.179-4.746-1.26-8.006,1.281,2.168-1.31,4.989-1.918,7.106-.826C368.305,257,368.206,259.82,368.206,259.82Z" transform="translate(-311.971 -226.11)" style="fill: #593418"/>
        <path d="M351.872,263.338c-.308-.107-3.012-1.091-3.1-2.569-.041-.649.407-1.242,1.33-1.768l-.22-.456-1.686.5-.214-.721,2.3-.682.816,1.694-.334.165c-.583.289-1.273.736-1.243,1.221.048.771,1.773,1.617,2.6,1.9Z" transform="translate(-311.971 -226.11)" style="fill: #e09765"/>
        <rect x="353.538" y="252.553" width="0.753" height="7.23" transform="translate(-230.942 371.248) rotate(-87.245)" style="fill: #3b2b20"/>
        <path d="M372.241,256.3l-.446-.606a2.921,2.921,0,0,1,2.178-.624,1.249,1.249,0,0,1,.8.879l-.717.227c-.091-.286-.225-.36-.318-.39C373.334,255.65,372.606,256.028,372.241,256.3Z" transform="translate(-311.971 -226.11)" style="fill: #3b2b20"/>
        <path d="M383.563,256.951a36.19,36.19,0,0,1-8.817.686c.245,1.177.9,4.294.9,4.294l7.525-1.131Z" transform="translate(-311.971 -226.11)" style="fill: #fff;opacity: 0.32"/>
        <path d="M372.018,257.637s-10.255,1.083-14.493.457c.293,2.02.742,4.224.742,4.224s4.247.9,13.779,0C372.109,259.313,372.018,257.637,372.018,257.637Z" transform="translate(-311.971 -226.11)" style="fill: #fff;opacity: 0.32"/>
        <path d="M375.345,262.335l-1.85-8.841.4-.054a62.743,62.743,0,0,1,7.139-.473c.774,0,1.5.023,2.159.067l.289.02.055.284c.037.189.892,4.669-.01,7.574l-.061.2-.2.055a57.5,57.5,0,0,1-7.592,1.143Zm-.946-8.2,1.545,7.388a56.885,56.885,0,0,0,6.923-1.034,18.463,18.463,0,0,0-.017-6.724c-.562-.031-1.171-.047-1.814-.047A61.391,61.391,0,0,0,374.4,254.136Z" transform="translate(-311.971 -226.11)" style="fill: #3b2b20"/>
        <path d="M362.839,263.173c-3.588,0-4.45-.312-4.786-.546l-.11-.077-.037-.129a30.559,30.559,0,0,1-.735-8.144l.016-.338.338-.02c.08,0,8.048-.482,12.5-.482.8,0,1.455.016,1.939.046l.337.021.015.338c.056,1.293.323,7.786.1,8.579l-.069.242-.249.029C370.345,262.894,366.159,263.173,362.839,263.173Zm-4.251-1.109c.3.127,1.268.356,4.251.356,3.122,0,7.012-.249,8.878-.444.086-1.089-.031-5.067-.143-7.759-.422-.018-.942-.027-1.554-.027-3.9,0-10.532.369-12.108.461A29.733,29.733,0,0,0,358.588,262.064Z" transform="translate(-311.971 -226.11)" style="fill: #3b2b20"/>
        <g>
          <path d="M346.166,239.98c.08-.212.169-.424.264-.636,2.345.11,6.58.8,8.919,4.076-.369-.327-.624-.593-.624-.593,0,.322-.008.646-.018.971-2.219-3.032-6.394-3.613-8.536-3.7C346.17,240.058,346.167,240.018,346.166,239.98Z" transform="translate(-311.971 -226.11)" style="fill: #c46825"/>
          <path d="M366.237,229.946s1.9-.05,4.62-.043c-7.3.73-14.723,1.481-18.319,1.863q.518-.453,1.026-.865c3.171-.332,8.24-.846,13.6-1.384C366.612,229.78,366.237,229.946,366.237,229.946Z" transform="translate(-311.971 -226.11)" style="fill: #c46825"/>
          <path d="M350.308,233.9c.195-.2.39-.405.589-.6,5.13,1.626,14.923,4.5,22.216,5.283-.794.122-1.27.186-1.27.186a10.646,10.646,0,0,1,.956.534C365.272,238.448,355.3,235.487,350.308,233.9Z" transform="translate(-311.971 -226.11)" style="fill: #c46825"/>
        </g>
      </g>
      <g style="clip-path: url(#f)">
        <g>
          <polygon points="48.939 63.321 45.722 68.066 48.305 70.714 44.345 113.298 49.053 121.342 52.776 113.574 49.38 70.749 51.653 67.843 48.939 63.321" style="fill: #98541f"/>
          <polygon points="47.76 76.567 49.652 74.18 49.718 75.01 47.735 77.349 47.76 76.567" style="fill: #80461b"/>
          <polygon points="47.383 80.627 49.953 77.98 50.013 78.733 47.274 81.796 47.383 80.627" style="fill: #80461b"/>
          <polygon points="46.93 85.496 46.803 86.863 50.406 83.688 50.354 83.04 46.93 85.496" style="fill: #80461b"/>
          <polygon points="46.303 92.243 50.823 88.944 50.863 89.454 46.175 93.62 46.303 92.243" style="fill: #80461b"/>
          <polygon points="45.673 99.016 51.289 94.989 51.331 95.354 45.574 100.076 45.673 99.016" style="fill: #80461b"/>
          <polygon points="45.158 104.554 51.722 100.277 51.768 100.868 44.998 106.277 45.158 104.554" style="fill: #80461b"/>
          <polygon points="44.345 113.298 44.452 112.142 52.163 105.839 52.194 106.514 44.345 113.298" style="fill: #80461b"/>
        </g>
      </g>
      <polygon points="48.607 166.281 48.304 109.604 37.703 93.991 40.284 88.685 35.867 88.685 37.455 67.031 38.124 67.08 36.588 88.014 41.356 88.014 38.476 93.934 48.973 109.395 48.974 109.498 49.278 166.277 48.607 166.281" style="fill: #061e36"/>
      <polygon points="49.055 114.214 48.445 113.936 60.419 87.641 56.314 84.533 60.584 83.005 59.923 65.526 60.593 65.5 61.273 83.472 57.707 84.747 61.252 87.43 49.055 114.214" style="fill: #061e36"/>
      <path d="M346.79,364.268l10.463,1.781s-1.943,6.314-6.962,5.667S346.79,364.268,346.79,364.268Z" transform="translate(-311.971 -226.11)" style="fill: #03467a"/>
      <path d="M366.544,367.336l10.352.976s-2.027,6.926-6.325,6.132S366.544,367.336,366.544,367.336Z" transform="translate(-311.971 -226.11)" style="fill: #03467a"/>
    </g>
    <g>
      <polygon points="44.211 126.135 41.784 113.934 49.622 113.934 48.233 126.135 44.211 126.135" style="fill: #ebdabc"/>
      <polygon points="50.185 114.399 40.889 114.149 41.254 110.777 50.185 113.203 50.185 114.399" style="fill: #595248"/>
      <path d="M364.278,350.9s-7.032.591-9.043-.236c-.71-1.182-1.481-5.676-1.481-5.676l7.1.65a11.619,11.619,0,0,1-.237-1.686c0-.562,0-2.394.987-2.631a7.44,7.44,0,0,0,2.672,4.317Z" transform="translate(-311.971 -226.11)" style="fill: #edaf7b"/>
      <path d="M381.663,295.179s23.763,18.277,22.5,54.75c-5.994,21.867-39.89,1.527-39.89,1.527l.034-6.308,17.348-1.652A458.05,458.05,0,0,1,381.663,295.179Z" transform="translate(-311.971 -226.11)" style="fill: url(#g)"/>
      <path d="M344.48,384.131l3.119,3.492s1.274,7.407-1.155,8.865c-2.914-2.347-4.063-8.509-4.063-8.509Z" transform="translate(-311.971 -226.11)" style="fill: #edaf7b"/>
      <path d="M338.6,297.375s-21.685,16.546-26.627,54.338c2.912,16.765,25.054,32.233,28.015,39.4,4.7-1.943,4.494-6.984,4.494-6.984l-8.923-33.084,4.784-12.887S341.189,303.367,338.6,297.375Z" transform="translate(-311.971 -226.11)" style="fill: #02385e"/>
    </g>
  </g>
</svg>
