<svg xmlns="http://www.w3.org/2000/svg" viewBox="0 0 360 240">
  <title>product-icon-c</title>
  <g>
    <g>
      <path d="M257.713,65.91c-18.427-22.646-43.64-35.355-72.856-36.774-1.8-.084-3.619-.139-5.453-.147h-.02a96.724,96.724,0,0,0-31.346,4.968c-.285.1-.554.209-.839.295.279-.086.543-.192.823-.284l9.671,29.766a69.941,69.941,0,0,1,21.692-3.439h0a70.076,70.076,0,0,1,56.779,28.943L261.5,70.83Q259.658,68.3,257.713,65.91Z" style="fill: #fff;stroke: #000;stroke-width: 3px"/>
      <path d="M78.7,143.126c-.07-.583-.16-1.164-.22-1.749C78.54,141.958,78.62,142.543,78.7,143.126Z" style="fill: #ccc;stroke: #000;stroke-width: 3px"/>
      <path d="M79.235,146.948c-.01-.071-.026-.132-.04-.2C79.208,146.816,79.225,146.878,79.235,146.948Z" style="fill: #ccc;stroke: #000;stroke-width: 3px"/>
      <path d="M179.4,28.988h0Z" style="fill: #ccc;stroke: #000;stroke-width: 3px"/>
      <path d="M78.285,139.177c-.09-1.054-.185-2.1-.24-3.155C78.1,137.069,78.2,138.123,78.285,139.177Z" style="fill: #ccc;stroke: #000;stroke-width: 3px"/>
      <path d="M77.916,129.231c.01-.964.014-1.923.055-2.885C77.93,127.308,77.926,128.276,77.916,129.231Z" style="fill: #ccc;stroke: #000;stroke-width: 3px"/>
      <path d="M78,134.807c-.056-1.351-.1-2.7-.1-4.066C77.9,132.1,77.94,133.451,78,134.807Z" style="fill: #ccc;stroke: #000;stroke-width: 3px"/>
      <path d="M142.441,35.974c.355-.139.7-.279,1.05-.414C143.139,35.694,142.79,35.835,142.441,35.974Z" style="fill: #ccc;stroke: #000;stroke-width: 3px"/>
      <path d="M87.921,174.551a99.247,99.247,0,0,0,80.848,56.894A101.57,101.57,0,0,1,87.921,174.551Z" style="fill: #ccc;stroke: #000;stroke-width: 3px"/>
      <path d="M87.881,174.468c-.45-.946-.87-1.908-1.3-2.86C87.006,172.562,87.437,173.522,87.881,174.468Z" style="fill: #ccc;stroke: #000;stroke-width: 3px"/>
      <path d="M280.413,140.387c-.015.185-.03.372-.045.559C280.383,140.759,280.392,140.572,280.413,140.387Z" style="fill: #ccc;stroke: #000;stroke-width: 3px"/>
      <path d="M184.857,29.135c-1.8-.092-3.619-.147-5.453-.147h0C181.238,29,183.052,29.052,184.857,29.135Z" style="fill: #ccc;stroke: #000;stroke-width: 3px"/>
      <path d="M236.167,89.238a69.845,69.845,0,0,1,13.42,41.254h31.3v.011c0,1.833-.055,3.648-.15,5.457-.006.068-.006.152-.01.231q.165-2.829.169-5.708a101,101,0,0,0-18.636-58.63c-1.444-2.04-1.989-2.709-.76-1.023Z" style="fill: #ccc;stroke: #000;stroke-width: 3px"/>
      <path d="M239.066,212.584c1.59-1.157,3.154-2.35,4.674-3.591C242.225,210.217,240.67,211.422,239.066,212.584Z" style="fill: #ccc;stroke: #000;stroke-width: 3px"/>
      <path d="M280.887,130.5c0,1.837-.065,3.648-.15,5.457.095-1.809.15-3.624.15-5.457Z" style="fill: #ccc;stroke: #000;stroke-width: 3px"/>
      <path d="M220.645,187.276A70.193,70.193,0,1,1,157.692,63.734l-9.671-29.766c-.279.092-.543.2-.823.284q-1.875.627-3.709,1.309c-.351.134-.694.275-1.05.414-38.163,14.753-62.906,49.334-64.47,90.372-.041.962-.045,1.921-.055,2.885-.006.427-.025.845-.025,1.272,0,.079.01.159.01.238,0,1.362.04,2.715.1,4.066.024.407.024.81.05,1.215.055,1.056.15,2.1.24,3.155.059.732.11,1.47.195,2.2.06.585.15,1.166.22,1.749.155,1.212.3,2.423.5,3.622.013.068.03.13.04.2a100.87,100.87,0,0,0,7.347,24.659c.429.953.849,1.914,1.3,2.86.009.024.03.053.04.084a101.57,101.57,0,0,0,80.848,56.894c.2.022.4.035.609.055,1.195.119,2.4.207,3.609.284.619.031,1.23.073,1.849.1.81.035,1.624.044,2.444.059.705.015,1.4.055,2.115.055a101.008,101.008,0,0,0,59.648-19.4Z" style="fill: #fff;stroke: #000;stroke-width: 3px"/>
      <path d="M243.74,208.993c21.48-17.392,34.069-40.86,36.628-68.048.015-.187.03-.374.045-.559.123-1.391.244-2.786.315-4.2,0-.079,0-.163.01-.231.085-1.809.15-3.619.15-5.457v-.011h-31.3v0a70.092,70.092,0,0,1-28.942,56.78l18.4,25.328h0l.024-.02C240.67,211.422,242.225,210.217,243.74,208.993Z" style="fill: #ed1c24;stroke: #000;stroke-width: 3px"/>
    </g>
    <g>
      <g>
        <path d="M234.2,115.687l-4.563,8.468-8.547,17.43-5.436-10.7-7.788,5.255-5.193-9.27-4.259,5.422-2.539-.63-6.592-2.554,1.245,6.645,5.7,2.247-9.791,24.194-4.717,3.029-4.11-9.241-2.535-14.5-7.173-.293-3.322-5.8,4.2-11.652,6.429-1.507,3.775,2.477,7.825-1.919-8.987-4.921-8.352-1.407-.516-3,7.789-4.519-3.327-5.111,8.44-7.666,8.669,3.034L204.579,94.8s5.746-3.067,12.2-6.464A56.959,56.959,0,0,1,234.2,115.687Z" style="fill: #fff"/>
        <path d="M122.668,131.218A56.768,56.768,0,0,1,144.634,86.38l-3.722,6.411-5.6,10.278a.5.5,0,0,0,.012.5l3.951,6.306a.515.515,0,0,0,.421.23.5.5,0,0,0,.419-.237l3.579-5.929,7.3,8.846-13.351,11.947-7.476.713a.488.488,0,0,0-.419.328l-1.574,4.5a.488.488,0,0,0,.078.47l5.887,7.495L124.7,133.9l-2.025-2.457C122.673,131.369,122.668,131.294,122.668,131.218Z" style="fill: #fff"/>
        <path d="M141.915,156.736l-5.14-9.951,5.533-12.477,16.061,14.5L145,176.343c-.1-.078-.2-.161-.307-.24l-2.831-6.433.1-12.7A.46.46,0,0,0,141.915,156.736Z" style="fill: #fff"/>
        <path d="M179.521,188.065a56.539,56.539,0,0,1-33.716-11.114l13.611-28.044a.492.492,0,0,0-.116-.582l-16.839-15.2a.491.491,0,0,0-.779.164l-5.9,13.319a.48.48,0,0,0,.012.425l5.19,10.053-.1,12.688a.525.525,0,0,0,.04.2l2.113,4.794a56.731,56.731,0,0,1-20.324-41.721l1.3,1.573a.5.5,0,0,0,.176.134l11.4,5.239a.468.468,0,0,0,.206.044.476.476,0,0,0,.382-.186.486.486,0,0,0,.005-.61l-6.983-8.892,1.377-3.949,7.327-.7a.474.474,0,0,0,.28-.122L152.006,113.2a.5.5,0,0,0,.049-.684l-8.049-9.747a.5.5,0,0,0-.418-.178.482.482,0,0,0-.384.239l-3.524,5.835-3.371-5.38,5.465-10.016,2.751-4.745a.086.086,0,0,0,.022.061.045.045,0,0,0,.039.015c.08,0,.229-.131.141-.232a.039.039,0,0,0-.031-.014.156.156,0,0,0-.1.046l2.041-3.521a56.675,56.675,0,0,1,69.342,2.758c-6.28,3.3-11.789,6.243-11.783,6.249l-13.655,4.263-8.917-3.12-9.494,8.624,3.216,4.947-7.48,4.34.749,4.369,8.8,1.454,6.689,3.662-4.947,1.212-3.765-2.474-7.366,1.729L163.5,135.479l3.823,6.67,6.919.282,2.411,13.777,4.638,10.466,5.945-3.823,10.28-25.408-6.116-2.412-.823-4.367,5,1.933,3.216.8,3.739-4.763,5,8.917,7.749-5.231,5.823,11.47,9.413-19.186,4.069-7.556a56.871,56.871,0,0,1-55.063,71.014Z" style="fill: #f5babc"/>
        <path d="M151.005,107.116c-.078,0-.246.144-.166.236a.051.051,0,0,0,.036.014c.088,0,.246-.139.166-.233A.038.038,0,0,0,151.005,107.116Z"/>
        <path d="M168.336,82.615l.123-.6h-.616c-.313,0-7.8.073-20.378,6.639l-.423.221,7.749,16.166,10.447-8.453Z" style="fill: #fff"/>
      </g>
      <g>
        <path d="M179.513,75.335a55.879,55.879,0,1,1-55.882,55.882,55.944,55.944,0,0,1,55.882-55.882m0-3.55a59.429,59.429,0,1,0,59.431,59.432,59.5,59.5,0,0,0-59.431-59.432Z"/>
        <path d="M145.281,89.09c-.076,0-.231.137-.144.226a.041.041,0,0,0,.036.016c.08,0,.229-.131.139-.23a.036.036,0,0,0-.031-.013Z"/>
        <path d="M151.485,107.528c-.079,0-.244.14-.166.23a.05.05,0,0,0,.037.014c.085,0,.242-.136.16-.231a.036.036,0,0,0-.031-.013Z"/>
        <g>
          <polygon points="142.761 133.445 136.962 146.537 142.117 156.524 142.015 169.113 145.461 176.943 159.314 148.391 142.761 133.445" style="fill: none;stroke: #000;stroke-linecap: round;stroke-linejoin: round;stroke-width: 2px"/>
          <polyline points="147.495 84.188 141.99 93.678 136.476 103.781 140.361 109.977 144.232 103.567 152.143 113.15 138.554 125.307 131.047 126.024 129.496 130.453 136.525 139.399 125.323 134.25 122.298 130.577" style="fill: none;stroke: #000;stroke-linejoin: round;stroke-width: 2px"/>
          <path d="M148.231,89.808l7.146,14.915,9.659-7.817,3.009-13.568S160.76,83.273,148.231,89.808Z" style="fill: none;stroke: #000;stroke-miterlimit: 10;stroke-width: 2px"/>
          <path d="M217.737,87.684c-7.054,3.7-13.824,7.306-13.824,7.306l-13.575,4.237L181.7,96.2l-8.814,8,3.215,4.943-7.506,4.354.625,3.623,8.4,1.385,7.74,4.239-6.28,1.539-3.706-2.433-6.781,1.591L164.3,135.36l3.512,6.129,6.927.281,2.435,13.929,4.3,9.656,5.236-3.367,9.868-24.377-5.809-2.29-1.017-5.415,5.663,2.2,2.86.713,3.935-5,5.008,8.938,7.633-5.154,5.532,10.9,8.833-18.005,5.531-10.269" style="fill: none;stroke: #000;stroke-miterlimit: 10;stroke-width: 2px"/>
        </g>
      </g>
    </g>
    <g>
      <rect x="238.06" y="46.718" width="45.161" height="40.307" style="fill: #fff"/>
      <rect x="236.167" y="87.684" width="48.921" height="4.074" style="fill: #fff"/>
      <g>
        <path d="M285.228,89.031H236.054V44.711h49.174ZM238.06,87.025h45.161V46.718H238.06Z"/>
        <g>
          <rect x="240.167" y="49.155" width="6.036" height="6.977" style="fill: #f5babc"/>
          <rect x="248.895" y="49.155" width="6.036" height="6.977" style="fill: #f5babc"/>
          <rect x="257.622" y="49.155" width="6.036" height="6.977" style="fill: #f5babc"/>
          <rect x="266.351" y="49.155" width="6.036" height="6.977" style="fill: #f5babc"/>
          <rect x="275.079" y="49.155" width="6.036" height="6.977" style="fill: #f5babc"/>
        </g>
        <polygon points="245.454 84.493 246.477 84.493 254.145 84.493 254.145 73.635 246.477 73.635 245.454 73.635 239.763 73.635 239.763 84.493 245.454 84.493" style="fill: #f5babc"/>
        <rect x="239.715" y="82.988" width="14.48" height="2.006"/>
        <polygon points="272.423 84.493 273.445 84.493 281.616 84.493 281.616 73.635 273.445 73.635 272.423 73.635 267.234 73.635 267.234 84.493 272.423 84.493" style="fill: #f5babc"/>
        <rect x="267.186" y="82.988" width="14.48" height="2.006"/>
        <g>
          <rect x="257.153" y="74.638" width="6.976" height="13.399" style="fill: #fff"/>
          <path d="M265.132,89.04H256.15v-15.4h8.982Zm-6.976-2.006h4.97V75.641h-4.97Z"/>
        </g>
        <rect x="234.278" y="91.003" width="52.726" height="2.006"/>
        <rect x="234.779" y="44.711" width="51.723" height="2.006"/>
        <g>
          <rect x="285.088" y="48.637" width="1.808" height="2.006"/>
          <rect x="285.088" y="57.927" width="1.808" height="2.006"/>
        </g>
        <polygon points="289.481 48.1 289.149 48.1 286.502 48.1 286.502 60.47 289.149 60.47 289.481 60.47 291.325 60.47 291.325 48.1 289.481 48.1" style="fill: #ed1c24"/>
      </g>
      <g>
        <polyline points="234.589 65.17 240.608 59.403 280.48 59.403 286.499 65.17" style="fill: #ed1c24"/>
        <polygon points="285.805 65.894 280.077 60.406 241.011 60.406 235.283 65.894 233.895 64.446 240.205 58.399 280.883 58.399 287.193 64.446 285.805 65.894"/>
      </g>
      <g>
        <path d="M281.9,71.122a4.258,4.258,0,0,1-3.053-1.275,4.292,4.292,0,0,1-6.1,0,4.292,4.292,0,0,1-6.1,0,4.292,4.292,0,0,1-6.1,0,4.293,4.293,0,0,1-6.105,0,4.291,4.291,0,0,1-6.1,0,4.292,4.292,0,0,1-6.1,0,4.287,4.287,0,0,1-7.337-3.009v-1.5h51.3v1.5A4.288,4.288,0,0,1,281.9,71.122Z" style="fill: #ed1c24"/>
        <path d="M285.183,66.342v.5a3.279,3.279,0,0,1-6.332,1.2,3.278,3.278,0,0,1-6.105,0,3.278,3.278,0,0,1-6.1,0,3.277,3.277,0,0,1-6.1,0,3.278,3.278,0,0,1-6.105,0,3.278,3.278,0,0,1-6.105,0,3.276,3.276,0,0,1-6.1,0,3.28,3.28,0,0,1-6.334-1.2v-.5h49.294m2.006-2.006H233.883v2.5a5.294,5.294,0,0,0,8.34,4.323,5.315,5.315,0,0,0,6.1,0,5.315,5.315,0,0,0,6.1,0,5.315,5.315,0,0,0,6.1,0,5.314,5.314,0,0,0,6.1,0,5.314,5.314,0,0,0,6.1,0,5.313,5.313,0,0,0,6.1,0,5.294,5.294,0,0,0,8.34-4.323v-2.5Z"/>
      </g>
    </g>
    <polyline points="148.199 157.025 85.487 157.025 85.487 132.768" style="fill: none;stroke: #000;stroke-linejoin: round;stroke-width: 2px"/>
    <polyline points="225.111 121.527 262.186 121.527 262.186 97.271" style="fill: none;stroke: #000;stroke-linejoin: round;stroke-width: 2px"/>
    <g>
      <g>
        <path d="M84.1,127.505c-8.785-2.565-20.464-7.738-20.464-22.975V84.83l5.709.89a14.9,14.9,0,0,0,2.278.169,17.864,17.864,0,0,0,3.26-.308,14.331,14.331,0,0,0,7.143-3.269l3.463-3.391,3.461,3.391a14.319,14.319,0,0,0,7.142,3.269,17.893,17.893,0,0,0,3.26.307,14.9,14.9,0,0,0,2.278-.169l5.709-.889v19.7c0,15.236-11.679,20.409-20.464,22.975l-1.387.4Z" style="fill: #fff"/>
        <path d="M85.487,129l-1.681-.491c-9.109-2.66-21.219-8.04-21.219-23.981V83.6l6.919,1.078a15.676,15.676,0,0,0,5.184-.133,13.273,13.273,0,0,0,6.6-2.987l4.2-4.11,4.195,4.11a13.254,13.254,0,0,0,6.6,2.987,15.723,15.723,0,0,0,5.185.133l6.919-1.077v20.925c0,15.941-12.11,21.321-21.218,23.981Zm-20.8-42.948v18.476c0,14.532,11.248,19.5,19.709,21.968l1.093.319,1.093-.319c17.666-5.159,19.709-15.008,19.709-21.968V86.055l-4.5.7a17.819,17.819,0,0,1-5.892-.143,15.384,15.384,0,0,1-7.683-3.551l-2.728-2.672-2.728,2.672a15.4,15.4,0,0,1-7.685,3.551,17.785,17.785,0,0,1-5.89.144Z"/>
      </g>
      <path d="M84.982,124.485c-16.131-4.711-18.2-13.138-18.2-19.954V88.5l2.078.324a18.067,18.067,0,0,0,2.762.207,21.045,21.045,0,0,0,3.835-.361,17.291,17.291,0,0,0,8.769-4.114l1.26-1.234,1.259,1.234a17.281,17.281,0,0,0,8.769,4.115,21.117,21.117,0,0,0,3.835.36,18.068,18.068,0,0,0,2.763-.207l2.078-.324v16.026c0,12.976-9.726,17.48-18.2,19.954l-.5.148Z" style="fill: #ed1c24"/>
      <circle cx="85.487" cy="104.531" r="12.947" style="fill: #fff"/>
      <g>
        <circle cx="85.487" cy="104.531" r="9.801" style="fill: #fff"/>
        <path d="M85.487,115.38a10.849,10.849,0,1,1,10.849-10.849A10.862,10.862,0,0,1,85.487,115.38Zm0-19.6a8.752,8.752,0,1,0,8.752,8.752A8.762,8.762,0,0,0,85.487,95.78Z"/>
      </g>
      <g>
        <path d="M86.279,105.961l-2.769-1.082a2.615,2.615,0,0,1-1.446-2.206V101.52a2.746,2.746,0,0,1,2.742-2.743h1.361a2.746,2.746,0,0,1,2.742,2.743v.538h-2.1v-.538a.645.645,0,0,0-.644-.645H84.806a.646.646,0,0,0-.645.645v1.153h0s.047.148.39.382l2.477.948Z"/>
        <path d="M86.167,110.316H84.806a2.745,2.745,0,0,1-2.742-2.742v-.54h2.1v.54a.645.645,0,0,0,.645.644h1.361a.645.645,0,0,0,.644-.644V106.42a1.158,1.158,0,0,0-.42-.41l-2.359-.909.754-1.957,2.648,1.042a2.655,2.655,0,0,1,1.474,2.234v1.154A2.745,2.745,0,0,1,86.167,110.316Z"/>
        <rect x="84.541" y="97.506" width="2.098" height="2.53"/>
        <rect x="84.541" y="108.859" width="2.098" height="2.53"/>
      </g>
      <rect x="84.541" y="88.575" width="2.098" height="6.287"/>
      <rect x="84.541" y="114.271" width="2.098" height="6.287"/>
    </g>
    <g>
      <g>
        <g>
          <circle cx="184.209" cy="37.043" r="19.36" style="fill: #fff"/>
          <path d="M184.209,57.367a20.324,20.324,0,1,1,20.324-20.324A20.347,20.347,0,0,1,184.209,57.367Zm0-38.72a18.4,18.4,0,1,0,18.4,18.4A18.417,18.417,0,0,0,184.209,18.647Z"/>
        </g>
        <g>
          <path d="M188.1,12.826a.84.84,0,0,1-.842.838h-6.109a.836.836,0,0,1-.837-.838l0-3.971a.843.843,0,0,1,.838-.842l6.109,0a.837.837,0,0,1,.84.84Z" style="fill: #fff"/>
          <path d="M187.262,14.628h-6.109a1.8,1.8,0,0,1-1.8-1.806l0-3.966a1.81,1.81,0,0,1,1.8-1.806l6.11,0a1.8,1.8,0,0,1,1.8,1.807l0,3.966A1.81,1.81,0,0,1,187.262,14.628ZM181.279,12.7h5.861V8.979l-5.861,0Z"/>
        </g>
        <g>
          <g>
            <path d="M170.5,20.019l-1.39-2.045a.521.521,0,0,1,.139-.725l3.146-2.138a.525.525,0,0,1,.727.139l1.388,2.044"/>
            <path d="M169.7,20.56l-1.39-2.045a1.485,1.485,0,0,1,.4-2.065l3.145-2.136a1.491,1.491,0,0,1,2.062.39l1.391,2.048-1.595,1.083-1.141-1.68L170.157,17.8l1.141,1.68Z"/>
          </g>
          <g>
            <path d="M197.917,20.019l1.39-2.045a.521.521,0,0,0-.139-.725l-3.146-2.138a.525.525,0,0,0-.727.139l-1.388,2.044"/>
            <path d="M198.714,20.56l-1.594-1.083,1.142-1.68-2.417-1.642-1.14,1.68-1.595-1.083,1.388-2.044a1.491,1.491,0,0,1,2.065-.4l3.147,2.138a1.484,1.484,0,0,1,.394,2.065Z"/>
          </g>
        </g>
        <circle cx="184.209" cy="37.043" r="17.044" style="fill: #ed1c24"/>
        <circle cx="184.209" cy="37.043" r="11.503" style="fill: #fff"/>
        <g>
          <rect x="183.093" y="21.072" width="1.927" height="2.686"/>
          <g>
            <line x1="176.092" y1="23.288" x2="177.434" y2="25.613"/>
            <rect x="175.8" y="23.108" width="1.927" height="2.684" transform="translate(11.45 91.641) rotate(-29.994)"/>
          </g>
          <g>
            <line x1="170.301" y1="29.189" x2="172.628" y2="30.534"/>
            <rect x="170.501" y="28.517" width="1.927" height="2.688" transform="translate(59.802 163.365) rotate(-59.97)"/>
          </g>
          <rect x="168.238" y="36.232" width="2.686" height="1.927"/>
          <g>
            <line x1="170.453" y1="45.162" x2="172.78" y2="43.818"/>
            <rect x="170.273" y="43.527" width="2.687" height="1.927" transform="translate(0.741 91.747) rotate(-29.993)"/>
          </g>
          <g>
            <line x1="176.355" y1="50.951" x2="177.7" y2="48.626"/>
            <rect x="175.684" y="48.824" width="2.686" height="1.927" transform="translate(45.294 178.099) rotate(-59.954)"/>
          </g>
          <g>
            <line x1="184.361" y1="53.015" x2="184.362" y2="50.329"/>
            <rect x="183.398" y="50.329" width="1.927" height="2.686"/>
          </g>
          <g>
            <line x1="192.327" y1="50.799" x2="190.986" y2="48.472"/>
            <rect x="190.693" y="48.293" width="1.927" height="2.685" transform="translate(0.819 102.333) rotate(-29.957)"/>
          </g>
          <g>
            <line x1="198.116" y1="44.898" x2="195.792" y2="43.553"/>
            <rect x="195.991" y="42.882" width="1.927" height="2.686" transform="translate(60.023 192.538) rotate(-59.94)"/>
          </g>
          <g>
            <line x1="200.181" y1="36.893" x2="197.494" y2="36.89"/>
            <rect x="197.874" y="35.548" width="1.927" height="2.687" transform="translate(161.718 235.687) rotate(-89.934)"/>
          </g>
          <g>
            <line x1="197.965" y1="28.927" x2="195.637" y2="30.268"/>
            <rect x="195.458" y="28.634" width="2.686" height="1.927" transform="translate(11.504 102.204) rotate(-29.95)"/>
          </g>
          <g>
            <line x1="192.064" y1="23.136" x2="190.719" y2="25.461"/>
            <rect x="190.049" y="23.335" width="2.685" height="1.927" transform="translate(74.494 177.779) rotate(-59.941)"/>
          </g>
        </g>
        <rect x="183.245" y="13.556" width="1.927" height="3.405"/>
      </g>
      <g>
        <path d="M185.091,38.115,182.2,36.989a2.619,2.619,0,0,1-1.453-2.2V33.578a2.746,2.746,0,0,1,2.742-2.744h1.43a2.746,2.746,0,0,1,2.742,2.744v.566h-1.927v-.566a.816.816,0,0,0-.815-.816h-1.43a.816.816,0,0,0-.815.816v1.211c0,.071.1.267.484.524l2.616,1Z"/>
        <path d="M184.924,42.68h-1.43a2.746,2.746,0,0,1-2.742-2.742v-.567h1.927v.567a.816.816,0,0,0,.815.815h1.43a.816.816,0,0,0,.815-.815V38.725c0-.07-.127-.292-.515-.554l-2.493-.96.693-1.8,2.758,1.082a2.66,2.66,0,0,1,1.484,2.23v1.213A2.745,2.745,0,0,1,184.924,42.68Z"/>
        <rect x="183.354" y="29.361" width="1.927" height="2.657"/>
        <rect x="183.354" y="41.287" width="1.927" height="2.657"/>
      </g>
    </g>
    <line x1="184.427" y1="59.61" x2="184.427" y2="107.795" style="fill: none;stroke: #000;stroke-linejoin: round;stroke-width: 2px"/>
  </g>
</svg>
