<svg xmlns="http://www.w3.org/2000/svg" viewBox="0 0 34.385 41.407"><defs><style>.a{isolation:isolate;}.b{fill:#e0a35e;}.c{fill:#f5f2d6;}.d{fill:#99bf51;}.e{fill:#ea9a55;}.f{fill:#f5b962;}.g{fill:#f59946;}.h{fill:#c26864;}.i{fill:#94504f;}.j{fill:#ef4a41;}.k{fill:#f58488;}.l{fill:#5e5048;opacity:0.3;mix-blend-mode:multiply;}.m{fill:#f5eac2;}</style></defs><title>sandwich</title><g class="a"><path class="b" d="M64.7,35.123,40.75,34.039a4.1,4.1,0,0,0-4.076,3.775l-.119,2.563c-.139,3.064,1.549,4.478,3.225,5L38.85,65.91c-.056,1.228,1.321,2.219,2.552,2.274l19.568.885a2.547,2.547,0,0,0,2.669-2.1l.927-20.532c1.368.063,3.6-1.962,3.721-4.671L68.4,39.2A4.033,4.033,0,0,0,64.7,35.123Z" transform="translate(-34.02 -28.21)"/><path class="c" d="M63.993,36.169,41.342,35.143a3.507,3.507,0,0,0-3.661,3.343l-.065,1.421a3.505,3.505,0,0,0,3.316,3.656l-.9,19.9a2.1,2.1,0,0,0,2.007,2.2l18.5.838a2.1,2.1,0,0,0,2.194-2.007l.9-19.9a3.5,3.5,0,0,0,3.634-3.341l.064-1.421A3.506,3.506,0,0,0,63.993,36.169Z" transform="translate(-34.02 -28.21)"/><path class="d" d="M37.809,32.523s.449-2.349,1.035-2.539a.635.635,0,0,1,.811.34s.452-.872,1.084-.72.451.91.451.91a2.181,2.181,0,0,1,.722.114c.223.114-.094.986-.094.986s1.4-1.214,1.85-1.214.452.836.452.836a4.2,4.2,0,0,1,1.171-.114c.317.074-.179,1.137-.179,1.137Z" transform="translate(-34.02 -28.21)"/><path class="d" d="M37.706,52.843s-2.306-.63-2.452-1.231a.638.638,0,0,1,.4-.783s-.836-.516-.632-1.138.941-.377.941-.377a2.219,2.219,0,0,1,.17-.711c.132-.215.977.168.977.168s-1.1-1.489-1.066-1.937.867-.387.867-.387a4.2,4.2,0,0,1-.02-1.173c.1-.31,1.118.266,1.118.266Z" transform="translate(-34.02 -28.21)"/><circle class="e" cx="23.56" cy="4.271" r="4.272"/><circle class="f" cx="23.559" cy="4.271" r="3.762"/><circle class="g" cx="24.399" cy="2.116" r="0.805"/><circle class="g" cx="21.662" cy="3.102" r="0.805"/><circle class="e" cx="60.732" cy="57.263" r="4.271" transform="matrix(0.997, -0.081, 0.081, 0.997, -38.474, -23.085)"/><circle class="f" cx="60.733" cy="57.263" r="3.762" transform="translate(-38.48 -23.077) rotate(-4.669)"/><circle class="g" cx="62.948" cy="57.926" r="0.805" transform="translate(-38.557 -22.856) rotate(-4.702)"/><circle class="g" cx="61.744" cy="55.276" r="0.805" transform="translate(-38.346 -22.96) rotate(-4.704)"/><circle class="h" cx="55.025" cy="65.032" r="3.762" transform="translate(-61.516 57.972) rotate(-64.14)"/><circle class="i" cx="39.253" cy="55.918" r="4.274" transform="translate(-40.423 -23.117) rotate(-6.865)"/><circle class="h" cx="39.253" cy="55.917" r="3.763" transform="translate(-40.434 -23.107) rotate(-6.878)"/><path class="j" d="M65.578,36.51c-.018-.011-.038-.018-.056-.029L58.2,47.1c.016.014.029.029.047.043a6.458,6.458,0,0,0,7.33-10.634Z" transform="translate(-34.02 -28.21)"/><path class="k" d="M66.371,44.9c1.569-2.271.892-5.484-1.466-7.525l-.737,1.071a4.4,4.4,0,0,1,1.086,5.685,4.4,4.4,0,0,1-5.7,1l-.742,1.075C61.533,47.691,64.8,47.186,66.371,44.9Z" transform="translate(-34.02 -28.21)"/><path class="j" d="M38.98,65.789a.379.379,0,0,0-.014.06L51.3,69.617a.585.585,0,0,0,.024-.058,6.456,6.456,0,1,0-12.35-3.77Z" transform="translate(-34.02 -28.21)"/><path class="k" d="M46.734,62.493c-2.64-.808-5.5.81-6.727,3.674l1.243.38a4.4,4.4,0,0,1,5.089-2.756,4.4,4.4,0,0,1,2.684,5.129l1.249.38C50.857,66.261,49.389,63.3,46.734,62.493Z" transform="translate(-34.02 -28.21)"/><path class="j" d="M53.494,29.333c-.007-.02-.02-.036-.024-.052L42.15,32.763c.007.018.007.036.014.058a5.927,5.927,0,0,0,11.33-3.488Z" transform="translate(-34.02 -28.21)"/><path class="k" d="M49.291,35.829c2.42-.745,3.764-3.446,3.225-6.258l-1.14.353a4.046,4.046,0,0,1-2.454,4.713,4.041,4.041,0,0,1-4.677-2.521l-1.144.355C44.222,35.085,46.859,36.58,49.291,35.829Z" transform="translate(-34.02 -28.21)"/><path class="d" d="M62.715,60.825s1.185-.264.928.392l-.257.657s1.093-.839,1.386-.474-.329,1.242-.329,1.242.841.29.841.69-1.021.366-1.021.366,1.06.988.985,1.353-.985.073-.985.073.147.51,0,.728-1.242-.583-1.242-.583,0,.692-.182.8-1.095-.548-1.095-.548a5.864,5.864,0,0,1,.181,1.5c-.071.435-.728-.038-.728-.038s.767.911.657,1.24-.73.145-.73.145-.109.477-.255.586-.73-.512-.73-.512.219.586.071.876-.95.145-.95.145l-.8-.765.438-5.989Z" transform="translate(-34.02 -28.21)"/><path class="d" d="M61.913,47.627s1.182-.266.928.391l-.258.657s1.093-.84,1.386-.474-.328,1.24-.328,1.24.84.291.84.7-1.022.364-1.022.364,1.06.986.986,1.352-.986.072-.986.072.148.512,0,.73-1.242-.583-1.242-.583,0,.692-.181.8-1.1-.548-1.1-.548a5.891,5.891,0,0,1,.182,1.5c-.071.438-.732-.038-.732-.038s.767.914.66,1.242-.733.145-.733.145-.107.476-.255.586-.73-.513-.73-.513.221.584.073.877-.949.145-.949.145l-.8-.764.438-5.99Z" transform="translate(-34.02 -28.21)"/><path class="l" d="M62.5,33.083H38.4A4.087,4.087,0,0,0,34.474,37v2.534a4.51,4.51,0,0,0,3.462,4.8V64.651c0,1.214,1.43,2.13,2.666,2.13H60.288a2.542,2.542,0,0,0,2.584-2.2V44.263c1.376,0,3.523-2.1,3.523-4.78V36.949A4.024,4.024,0,0,0,62.5,33.083Z" transform="translate(-34.02 -28.21)"/><path class="b" d="M61.9,32H37.922a4.1,4.1,0,0,0-3.9,3.96v2.563c0,3.066,1.748,4.4,3.446,4.852V63.932c0,1.23,1.421,2.157,2.653,2.157H59.707a2.546,2.546,0,0,0,2.57-2.224V43.313c1.367,0,3.5-2.123,3.5-4.834V35.914A4.037,4.037,0,0,0,61.9,32Z" transform="translate(-34.02 -28.21)"/><path class="c" d="M61.238,33.085H38.566a3.5,3.5,0,0,0-3.506,3.5v1.426a3.506,3.506,0,0,0,3.477,3.5V61.434a2.1,2.1,0,0,0,2.1,2.1H59.162a2.1,2.1,0,0,0,2.105-2.1V41.517a3.5,3.5,0,0,0,3.477-3.5V36.589A3.5,3.5,0,0,0,61.238,33.085Z" transform="translate(-34.02 -28.21)"/><circle class="m" cx="6.77" cy="9.074" r="1.369"/><circle class="m" cx="11.518" cy="23.16" r="1.368"/><circle class="m" cx="24.235" cy="18.893" r="1.369"/><circle class="m" cx="18.6" cy="19.457" r="0.644"/><circle class="m" cx="13.65" cy="8.792" r="0.523"/><circle class="m" cx="12.081" cy="16.64" r="0.644"/><circle class="m" cx="25.844" cy="8.592" r="0.644"/><circle class="m" cx="8.459" cy="32.335" r="0.644"/><circle class="m" cx="6.608" cy="21.469" r="0.644"/><circle class="m" cx="15.944" cy="26.139" r="0.644"/><circle class="m" cx="14.898" cy="32.335" r="0.644"/><circle class="m" cx="24.718" cy="32.979" r="0.644"/><circle class="m" cx="18.923" cy="11.73" r="1.369"/><circle class="m" cx="21.096" cy="28.311" r="1.368"/></g></svg>