<svg xmlns="http://www.w3.org/2000/svg" xmlns:xlink="http://www.w3.org/1999/xlink" viewBox="0 0 61.862 127.392"><defs><style>.a{isolation:isolate;}.b{fill:#e0363b;}.c,.d{fill:#e01b22;}.d,.h,.k,.q{opacity:0.5;}.d,.h,.l{mix-blend-mode:multiply;}.e{fill:#f5e5e7;}.f,.p,.r{fill:#fff;}.f{opacity:0.3;}.g,.h,.l{fill:#e6dbc4;}.i{fill:#f2ede0;}.j{fill:#e6e2cf;}.k{mix-blend-mode:screen;fill:url(#a);}.l{opacity:0.7;}.m{fill:#af0704;}.n{fill:#f2ecce;}.o{fill:#fec;}.q{fill:#f2cb79;}.r{opacity:0.4;}</style><linearGradient id="a" x1="-1.111" y1="47.828" x2="60.065" y2="47.828" gradientTransform="translate(79.164 18.461) rotate(90)" gradientUnits="userSpaceOnUse"><stop offset="0" stop-color="#fff"/><stop offset="1"/></linearGradient></defs><title>shake</title><g class="a"><path class="b" d="M55.709,55.722l-49.9-6.057L5.134,117.54c-.021.095-.059.189-.071.285-.478,3.935,6.983,8.079,16.668,9.255s17.918-1.063,18.4-5c.012-.1,0-.2,0-.293Z"/><path class="c" d="M29.535,62.79C19.477,60.664,9.5,57.16,5.768,53.952l-.61,61.139c2,2.583,4.311,4.151,6.887,4.464,10.071,1.223,20.9-17.011,25.866-42.409C39.886,67.04,33.142,63.553,29.535,62.79Z"/><path class="d" d="M37.087,125.479,51.968,55.268l-9.28-1.127L31.181,127.113A18.815,18.815,0,0,0,37.087,125.479Z"/><polygon class="e" points="40.754 73.94 38.797 71.316 33.822 75.075 30.016 69.973 27.458 71.906 31.264 77.008 26.289 80.766 28.246 83.39 33.221 79.632 37.027 84.734 39.585 82.801 35.779 77.699 40.754 73.94"/><path class="e" d="M21.52,71.956a3.539,3.539,0,0,1,2.311,1.4L26.39,71.42a6.806,6.806,0,0,0-4.444-2.686,6.591,6.591,0,0,0-7.538,5.695,6.929,6.929,0,0,0,5.767,7.73,6.528,6.528,0,0,0,4.963-1.246L23.18,78.289a3.394,3.394,0,0,1-2.581.648,3.6,3.6,0,0,1-3-4.02A3.427,3.427,0,0,1,21.52,71.956Z"/><path class="f" d="M17.778,126.405,24.14,51.89,9.551,50.119,7.2,121.851C9.423,123.747,13.2,125.406,17.778,126.405Z"/><path class="g" d="M61.781,54.077l-.134-2.01c.581-4.79-12.542-10.322-29.31-12.357S1.5,39.9.917,44.695l-.609,1.92a2.692,2.692,0,0,0-.29.91C-.573,52.4,12.788,58.035,29.861,60.108s31.392-.2,31.984-5.077A2.69,2.69,0,0,0,61.781,54.077Z"/><path class="h" d="M61.844,55.03a2.69,2.69,0,0,0-.063-.953l-.134-2.01c.581-4.79-12.542-10.322-29.31-12.357a81.44,81.44,0,0,0-22.09-.01l3.371,13.029c10.945,3.6,27.667,5.466,28.615,8.141C53.353,60.844,61.4,58.659,61.844,55.03Z"/><ellipse class="i" cx="31.337" cy="47.939" rx="8.291" ry="30.588" transform="translate(-20.029 73.271) rotate(-83.079)"/><path class="j" d="M57.243,48.559A25.864,25.864,0,0,0,6.036,42.341a1.574,1.574,0,0,0-.234.61c-.423,3.485,10.767,7.716,25,9.443s26.1.3,26.528-3.189A1.565,1.565,0,0,0,57.243,48.559Z"/><ellipse class="k" cx="31.337" cy="47.939" rx="8.291" ry="30.588" transform="translate(-20.029 73.271) rotate(-83.079)"/><path class="h" d="M59.5,49.584A28.237,28.237,0,0,0,3.6,42.8a1.7,1.7,0,0,0-.256.663c-.46,3.793,11.754,8.4,27.285,10.286s28.493.334,28.953-3.459A1.688,1.688,0,0,0,59.5,49.584Z"/><path class="l" d="M3.681,42.454c-.024.116-.054.229-.077.343a1.7,1.7,0,0,0-.256.663c-.46,3.793,11.754,8.4,27.285,10.286s28.493.334,28.953-3.459a1.688,1.688,0,0,0-.091-.7c.006-.118,0-.234.006-.351-4.289-3.5-14.785-6.856-27.3-8.376S8.684,40.088,3.681,42.454Z"/><rect class="m" x="4.54" y="25.295" width="52.597" height="2.771" transform="translate(2.84 56.329) rotate(-87.504)"/><rect class="n" x="4.54" y="25.764" width="52.597" height="1.834" transform="translate(2.842 56.33) rotate(-87.508)"/><rect class="m" x="9.473" y="25.599" width="54.827" height="2.772" transform="translate(2.069 56.591) rotate(-76.564)"/><rect class="n" x="8.799" y="26.13" width="54.827" height="1.387" transform="matrix(0.232, -0.973, 0.973, 0.232, 1.712, 55.816)"/><rect class="n" x="10.484" y="26.88" width="54.826" height="0.693" transform="translate(2.584 57.73) rotate(-76.515)"/><path class="o" d="M7.9,47.413a1.228,1.228,0,0,1,.27-.171A1.177,1.177,0,0,0,7.9,47.413Z"/><path class="o" d="M15.342,39.018c.055-.029.11-.06.166-.088C15.452,38.957,15.4,38.987,15.342,39.018Z"/><path class="o" d="M37.683,29.628c.054-.04.11-.081.169-.123C37.793,29.547,37.736,29.588,37.683,29.628Z"/><path class="o" d="M38.113,29.328a2.341,2.341,0,0,1,.483-.219A2.4,2.4,0,0,0,38.113,29.328Z"/><path class="o" d="M14.588,39.731a.719.719,0,0,1,.175-.3A.729.729,0,0,0,14.588,39.731Z"/><path class="o" d="M16.141,38.679c.049-.014.1-.023.149-.036C16.24,38.656,16.19,38.665,16.141,38.679Z"/><path class="o" d="M37.2,30.14c.028-.047.062-.091.1-.137C37.265,30.05,37.231,30.095,37.2,30.14Z"/><path class="o" d="M37.407,29.876c.041-.043.087-.086.134-.128C37.495,29.79,37.448,29.833,37.407,29.876Z"/><path class="o" d="M13.105,43.564a4.086,4.086,0,0,0,.506-.024A4.086,4.086,0,0,1,13.105,43.564Z"/><path class="o" d="M52.464,44.809c.027.061.046.121.07.181C52.511,44.93,52.491,44.87,52.464,44.809Z"/><path class="o" d="M38.673,29.09a3.143,3.143,0,0,1,.5-.115A3.143,3.143,0,0,0,38.673,29.09Z"/><path class="o" d="M14.136,43.418a1.2,1.2,0,0,0,.235-.114A1.2,1.2,0,0,1,14.136,43.418Z"/><path class="o" d="M13.745,43.516a2.107,2.107,0,0,0,.276-.06A2.107,2.107,0,0,1,13.745,43.516Z"/><path class="o" d="M37.009,31.187c-.007-.071,0-.132-.006-.2C37,31.055,37,31.116,37.009,31.187Z"/><path class="o" d="M52.6,45.193a1.414,1.414,0,0,1,.032.167A1.414,1.414,0,0,0,52.6,45.193Z"/><path class="o" d="M20.771,35.222c.078-.032.158-.061.239-.085C20.929,35.161,20.849,35.19,20.771,35.222Z"/><path class="o" d="M21.1,35.111a2.75,2.75,0,0,1,.306-.068A2.75,2.75,0,0,0,21.1,35.111Z"/><path class="o" d="M37.066,30.441a1.089,1.089,0,0,1,.063-.153A1.125,1.125,0,0,0,37.066,30.441Z"/><path class="o" d="M37,30.784a1.442,1.442,0,0,1,.029-.174A1.442,1.442,0,0,0,37,30.784Z"/><path class="o" d="M37.087,31.665c-.015-.077-.023-.144-.036-.215C37.064,31.521,37.072,31.588,37.087,31.665Z"/><path class="o" d="M21.4,35.043a5.385,5.385,0,0,1,.537-.048C21.766,35,21.588,35.018,21.4,35.043Z"/><path class="o" d="M19.585,36.715A1.117,1.117,0,0,1,19.6,36.4,1.046,1.046,0,0,0,19.585,36.715Z"/><path class="o" d="M19.6,36.393a1.1,1.1,0,0,1,.094-.266A1.1,1.1,0,0,0,19.6,36.393Z"/><path class="o" d="M20.149,35.583a1.939,1.939,0,0,1,.225-.159A1.844,1.844,0,0,0,20.149,35.583Z"/><path class="o" d="M19.712,36.1a1.591,1.591,0,0,1,.387-.473A1.591,1.591,0,0,0,19.712,36.1Z"/><path class="o" d="M20.416,35.395a2.911,2.911,0,0,1,.286-.146A2.911,2.911,0,0,0,20.416,35.395Z"/><path class="o" d="M10.066,46.769h0Z"/><path class="o" d="M11.019,44.677a1.332,1.332,0,0,1-.063-.206A1.332,1.332,0,0,0,11.019,44.677Z"/><path class="o" d="M22.035,34.993c.147,0,.293,0,.435,0C22.328,34.987,22.182,34.99,22.035,34.993Z"/><path class="o" d="M10.946,44.4a.654.654,0,0,1-.011-.138A.654.654,0,0,0,10.946,44.4Z"/><path class="o" d="M10.949,44.191a.5.5,0,0,1,.032-.111A.507.507,0,0,0,10.949,44.191Z"/><path class="o" d="M51.47,47.2c-5.422,1.732-8.037,1.854-10.967,1.763,6.7-.928,10.43-2.861,11.954-4.169a5.469,5.469,0,0,0-.55-.9c-1.048-1.436-4.34-2.732-5.16-4.975s-2.234-7.453-3.788-8.8A4.876,4.876,0,0,0,39.2,28.972a4.5,4.5,0,0,1,2.5,1.955c.907,1.667,1.757,7.317-3.323,8.964.606-.857,2.461-2.411,2.2-4.815a5.261,5.261,0,0,1-3.736,3.947c1.429-.837,2.836-3.962,2.924-5.938a3.859,3.859,0,0,0-1.7-3.722c-.048.031-.091.06-.136.091a4.531,4.531,0,0,1,.742,1.71C39.5,34.675,34.948,35.845,32.8,36c2.35-1.149,3.448-2.33,3.869-3.394.021-.013.033-.023.054-.036-1.871,1.2-5.92,3.176-7.255,2.269a1.181,1.181,0,0,0,.276.132,4.743,4.743,0,0,0,3.391,2.716c-1.882-.1-5.674.532-8.982-2.648-.545.037-1.091-.032-1.685-.048,1.726,2.113,2.013,2.738,4.348,3.34a38.339,38.339,0,0,1-7.234-1.615,1.851,1.851,0,0,0,.819,1.2c-.647.515-2.248.355-3.707.635,3.524,1.185,6.572.843,9.032.907s8.176-.074,10.993.441c-4.427-.05-5.889.941-8.973,1.126-7.834.471-11.51-.1-13.228-.853a1.463,1.463,0,0,1,.042-.367c-.245.976.853,2.772-.143,3.469l0,0a26.588,26.588,0,0,0,2.964-.241c1.465-.1,4.874-.622,6.528-.3-2.637.246-3.563,1.336-5.41,1.728-4.21.893-6.372.72-7.486.218.19.5.6,1.06.386,1.473a1.348,1.348,0,0,1-.867.5c2.512,1.091,6.723.8,8.95.731,2.533-.081,4.184,2.244,8.41,2.711-4.138-.187-8.941.457-12.84.562,2.41.7,5.111,1.348,8.015,1.9,4.832.164,10.992-.067,13.374-1.413-.709.759-3.079,1.808-5.93,2.578l.116.014a102.906,102.906,0,0,0,14.012.788,11.6,11.6,0,0,0,4.347-1.659,6.3,6.3,0,0,1-1.457,1.551,44.777,44.777,0,0,0,6.012-.715A4.362,4.362,0,0,0,51.47,47.2Zm-3.1-5.1c.039,1.1.287,2.044-4.137,1.357C45.929,43.262,48.066,42.919,48.37,42.1ZM43.557,33.7c1.936,3.454-.161,6.132,2.827,6.519-1.067.8-2.765.539-6.148.548C45.106,40.114,44.37,35.98,43.557,33.7ZM36.58,38.152c-2.047.028-5.115-1.15-5.5-2.43A6.027,6.027,0,0,0,38.53,34C37.631,37.059,33.252,36.807,36.58,38.152ZM18.395,45.3c3.376.044,7.66-2.35,11.124-2.967s11.3-1.479,13.972-.59c-2.087-.344-2.995.41-9.978,2.084S20.432,46.024,18.395,45.3Zm11.266,3.75a17.328,17.328,0,0,1-6.291-2.319c5.65.3,14.942-2.628,17.415-2.619s6.255.12,7.882-.346a21.3,21.3,0,0,1-7,2.4C39.725,46.525,33.222,49.572,29.661,49.047Zm10.11,3.391c3.127.061,9.475-.816,12.407-3.209C49.875,52.117,46.8,53.529,39.771,52.438Z"/><path class="o" d="M8.261,47.2a2.848,2.848,0,0,1,.3-.107A2.848,2.848,0,0,0,8.261,47.2Z"/><path class="o" d="M7.737,47.637a.6.6,0,0,1,.149-.21A.6.6,0,0,0,7.737,47.637Z"/><path class="o" d="M8.621,47.072c.123-.034.256-.066.39-.1C8.877,47.006,8.745,47.038,8.621,47.072Z"/><path class="o" d="M12.41,43.577c.207-.011.434-.016.7-.013C12.844,43.561,12.616,43.565,12.41,43.577Z"/><path class="o" d="M9.216,46.935c.058-.014.118-.024.177-.036C9.334,46.911,9.273,46.921,9.216,46.935Z"/><path class="o" d="M11.472,43.723c.063-.02.141-.038.218-.055C11.612,43.685,11.535,43.7,11.472,43.723Z"/><path class="o" d="M52.353,46.37c-.028.04-.064.081-.1.121C52.289,46.451,52.324,46.41,52.353,46.37Z"/><path class="o" d="M52.553,46.031c-.013.032-.036.063-.052.093C52.516,46.094,52.54,46.063,52.553,46.031Z"/><path class="o" d="M7.693,47.889l.01,0a.649.649,0,0,1,.01-.192A.614.614,0,0,0,7.693,47.889Z"/><path class="o" d="M52.641,45.57a1.346,1.346,0,0,1,0,.137A1.318,1.318,0,0,0,52.641,45.57Z"/><path class="o" d="M11.872,43.63c.1-.016.213-.024.33-.035C12.085,43.606,11.969,43.615,11.872,43.63Z"/><path class="o" d="M11.194,43.852a.849.849,0,0,1,.145-.075A.849.849,0,0,0,11.194,43.852Z"/><path class="o" d="M11.026,44.008a.459.459,0,0,1,.084-.093A.459.459,0,0,0,11.026,44.008Z"/><path class="o" d="M52.032,46.73c-.038.037-.074.075-.117.111C51.958,46.8,51.994,46.766,52.032,46.73Z"/><path class="p" d="M19.488,47.39c-2.227.071-6.438.36-8.95-.731h0c-.147.04-.3.075-.467.109h-.005c-.219.045-.448.088-.673.131-.06.012-.12.022-.177.036s-.136.028-.2.042c-.134.029-.267.061-.39.1-.022.006-.041.014-.061.02a2.848,2.848,0,0,0-.3.107l-.094.043a1.228,1.228,0,0,0-.27.171.035.035,0,0,0-.011.013.6.6,0,0,0-.149.21.566.566,0,0,0-.024.065.649.649,0,0,0-.01.192,44.341,44.341,0,0,0,7.355,2.77c3.9-.105,8.7-.749,12.84-.562C23.672,49.634,22.021,47.309,19.488,47.39Z"/><path class="p" d="M27.749,41.029c3.084-.185,4.546-1.177,8.973-1.126-2.817-.515-8.527-.376-10.993-.441s-5.507.279-9.032-.907a.045.045,0,0,1-.019-.005c-.132.025-.26.06-.388.094-.05.013-.1.022-.149.036a3.952,3.952,0,0,0-.633.251c-.056.028-.111.059-.166.088a2.773,2.773,0,0,0-.58.418.719.719,0,0,0-.175.3.78.78,0,0,0-.025.078,1.463,1.463,0,0,0-.042.367C16.239,40.925,19.916,41.5,27.749,41.029Z"/><path class="p" d="M48.668,43.764c-1.628.465-5.409.356-7.882.346s-11.765,2.92-17.415,2.619a17.328,17.328,0,0,0,6.291,2.319c3.561.525,10.064-2.522,12.008-2.881A21.3,21.3,0,0,0,48.668,43.764Z"/><path class="p" d="M32.8,36c2.145-.157,6.7-1.327,5.867-4.838a4.531,4.531,0,0,0-.742-1.71l0,0-.073.054c-.059.042-.115.083-.169.123s-.1.08-.141.12-.093.085-.134.128-.072.085-.108.128-.068.09-.1.137a1.575,1.575,0,0,0-.074.147,1.089,1.089,0,0,0-.063.153,1.226,1.226,0,0,0-.035.17,1.442,1.442,0,0,0-.029.174c0,.064,0,.137,0,.206s0,.127.006.2.026.174.042.263c.013.071.021.138.036.215.039.172.089.357.151.559-.141.1-.319.222-.512.347-.021.012-.033.023-.054.036C36.25,33.671,35.153,34.852,32.8,36Z"/><path class="p" d="M43.491,41.739c-2.676-.889-10.51-.027-13.972.59S21.771,45.341,18.395,45.3c2.037.727,8.134.2,15.118-1.473S41.4,41.4,43.491,41.739Z"/><path class="p" d="M39.764,33.085c-.088,1.976-1.5,5.1-2.924,5.938a5.261,5.261,0,0,0,3.736-3.947c.26,2.4-1.595,3.958-2.2,4.815,5.08-1.647,4.23-7.3,3.323-8.964a4.5,4.5,0,0,0-2.5-1.955l-.007,0a.084.084,0,0,1-.019.006,3.143,3.143,0,0,0-.5.115c-.025.007-.052.011-.076.019a2.341,2.341,0,0,0-.483.219.56.56,0,0,1-.05.033h0A3.859,3.859,0,0,1,39.764,33.085Z"/><path class="p" d="M33.138,37.688a4.743,4.743,0,0,1-3.391-2.716,1.181,1.181,0,0,1-.276-.132c-2.611-1.778-3.291-.369-4.458.033a3.282,3.282,0,0,1-.857.165h0C27.464,38.22,31.256,37.587,33.138,37.688Z"/><path class="p" d="M18.5,44.465c1.847-.392,2.773-1.482,5.41-1.728-1.653-.326-5.062.2-6.528.3a26.588,26.588,0,0,1-2.964.241l0,0c-.014.009-.033.016-.049.027a1.2,1.2,0,0,1-.235.114c-.036.013-.077.026-.116.038a2.107,2.107,0,0,1-.276.06c-.043.009-.087.017-.134.023a4.086,4.086,0,0,1-.506.024c-.261,0-.488,0-.7.013-.077,0-.137.013-.209.019-.116.01-.232.019-.33.035-.067.011-.122.025-.182.038-.077.017-.155.035-.218.055s-.091.035-.132.054a.849.849,0,0,0-.145.075.668.668,0,0,0-.084.063.459.459,0,0,0-.084.093.546.546,0,0,0-.045.072.5.5,0,0,0-.032.111.4.4,0,0,0-.013.074.654.654,0,0,0,.011.138c0,.022,0,.044.009.067a1.332,1.332,0,0,0,.063.206v.006h0C12.132,45.185,14.3,45.358,18.5,44.465Z"/><path class="p" d="M22.471,34.992h0c-.142,0-.288,0-.435,0h-.1a5.385,5.385,0,0,0-.537.048,2.75,2.75,0,0,0-.306.068c-.03.008-.058.016-.087.026-.081.025-.161.053-.239.085-.023.009-.046.017-.068.027a2.911,2.911,0,0,0-.286.146l-.043.029a1.939,1.939,0,0,0-.225.159l-.05.039a1.591,1.591,0,0,0-.387.473.227.227,0,0,0-.016.032,1.1,1.1,0,0,0-.094.266l0,.011a1.117,1.117,0,0,0-.014.311v0h0a38.339,38.339,0,0,0,7.234,1.615C24.484,37.73,24.2,37.105,22.471,34.992Z"/><path class="p" d="M36.447,51.154C34.064,52.5,27.9,52.731,23.072,52.567c2.36.454,4.854.848,7.444,1.164C33.368,52.962,35.738,51.913,36.447,51.154Z"/><path class="q" d="M52.63,45.36a1.421,1.421,0,0,1,.011.21A1.421,1.421,0,0,0,52.63,45.36Z"/><path class="q" d="M52.533,44.99a1.785,1.785,0,0,1,.065.2A1.785,1.785,0,0,0,52.533,44.99Z"/><path class="q" d="M51.915,46.841c-.132.117-.274.236-.445.361A5.468,5.468,0,0,0,51.915,46.841Z"/><path class="q" d="M52.459,44.8h0l.007.014Z"/><path class="q" d="M52.5,46.124a1.626,1.626,0,0,1-.148.247A1.665,1.665,0,0,0,52.5,46.124Z"/><path class="q" d="M52.256,46.491a2.826,2.826,0,0,1-.224.238A2.826,2.826,0,0,0,52.256,46.491Z"/><path class="q" d="M52.638,45.708a1.244,1.244,0,0,1-.085.323A1.282,1.282,0,0,0,52.638,45.708Z"/><path class="o" d="M48.992,52.874a11.6,11.6,0,0,1-4.347,1.659c1-.018,1.966-.053,2.89-.108A6.3,6.3,0,0,0,48.992,52.874Z"/><path class="q" d="M48.992,52.874a11.6,11.6,0,0,1-4.347,1.659c1-.018,1.966-.053,2.89-.108A6.3,6.3,0,0,0,48.992,52.874Z"/><path class="o" d="M31.085,35.722c.38,1.28,3.449,2.458,5.5,2.43-3.328-1.345,1.051-1.093,1.95-4.156A6.027,6.027,0,0,1,31.085,35.722Z"/><path class="q" d="M31.085,35.722c.38,1.28,3.449,2.458,5.5,2.43-3.328-1.345,1.051-1.093,1.95-4.156A6.027,6.027,0,0,1,31.085,35.722Z"/><path class="o" d="M52.178,49.23c-2.932,2.393-9.28,3.27-12.407,3.209C46.8,53.529,49.875,52.117,52.178,49.23Z"/><path class="q" d="M52.178,49.23c-2.932,2.393-9.28,3.27-12.407,3.209C46.8,53.529,49.875,52.117,52.178,49.23Z"/><path class="o" d="M40.5,48.964c2.93.091,5.545-.03,10.967-1.763.172-.125.313-.244.445-.361.043-.036.079-.074.117-.111a2.826,2.826,0,0,0,.224-.238c.033-.04.069-.081.1-.121a1.626,1.626,0,0,0,.148-.247c.015-.03.039-.061.052-.093a1.244,1.244,0,0,0,.085-.323,1.346,1.346,0,0,0,0-.137,1.392,1.392,0,0,0-.043-.377,1.785,1.785,0,0,0-.065-.2c-.023-.06-.043-.119-.07-.181l-.007-.014C50.932,46.1,47.205,48.037,40.5,48.964Z"/><path class="q" d="M40.5,48.964c2.93.091,5.545-.03,10.967-1.763.172-.125.313-.244.445-.361.043-.036.079-.074.117-.111a2.826,2.826,0,0,0,.224-.238c.033-.04.069-.081.1-.121a1.626,1.626,0,0,0,.148-.247c.015-.03.039-.061.052-.093a1.244,1.244,0,0,0,.085-.323,1.346,1.346,0,0,0,0-.137,1.392,1.392,0,0,0-.043-.377,1.785,1.785,0,0,0-.065-.2c-.023-.06-.043-.119-.07-.181l-.007-.014C50.932,46.1,47.205,48.037,40.5,48.964Z"/><path class="o" d="M48.37,42.1c-.3.822-2.441,1.164-4.137,1.357C48.657,44.141,48.409,43.2,48.37,42.1Z"/><path class="q" d="M48.37,42.1c-.3.822-2.441,1.164-4.137,1.357C48.657,44.141,48.409,43.2,48.37,42.1Z"/><path class="o" d="M43.557,33.7c.813,2.276,1.549,6.409-3.321,7.067,3.383-.009,5.081.252,6.148-.548C43.4,39.836,45.493,37.158,43.557,33.7Z"/><path class="q" d="M43.557,33.7c.813,2.276,1.549,6.409-3.321,7.067,3.383-.009,5.081.252,6.148-.548C43.4,39.836,45.493,37.158,43.557,33.7Z"/><path class="r" d="M34.687,20.348c-.6-.072-1.183-.1-1.775-.135C20.505,19.73,9.3,29.968,6.6,44.2a2.021,2.021,0,0,0-.24.692,2.319,2.319,0,0,0,.019.614c4.459,2.644,13.661,5.195,24.463,6.506,1.976.24,3.906.425,5.776.561C47.73,44.743,48.737,22.053,34.687,20.348Zm-.408,3.363c-2.737-.332-4.878-1.229-4.784-2s2.387-1.133,5.124-.8,4.877,1.229,4.783,2S37.015,24.043,34.279,23.711Z"/><path class="h" d="M56.03,53.07c.643-11.9-3.774-22.578-11.077-28.354,3.361,6.817,4.957,17.044,4.008,28.38a4.439,4.439,0,0,1,0,.93c-.012.1-.045.2-.065.3A32.01,32.01,0,0,0,56.03,53.07Z"/><ellipse class="p" cx="23.364" cy="27.629" rx="4.397" ry="3.45" transform="translate(-12.712 24.842) rotate(-45.364)"/><ellipse class="p" cx="16.475" cy="35.827" rx="3.407" ry="1.825" transform="translate(-22.839 32.755) rotate(-60.837)"/></g></svg>