<svg xmlns="http://www.w3.org/2000/svg" viewBox="0 0 3194.772 438.205">
  <defs>
    <style>
      .a {
        fill: #fafdff;
      }
    </style>
  </defs>
  <title>sky-layer-a</title>
  <path class="a" d="M3138.637,298.166a54.9,54.9,0,0,0-5.872.321,47.715,47.715,0,0,0,6.277-23.707,48.324,48.324,0,0,0-.552-7.3c17.668-9.84,29.728-29.489,29.728-52.139,0-1.965-.095-3.907-.272-5.823.15,0,.3.012.449.012,17.455,0,31.6-15.021,31.6-33.551,0-14.947-9.21-27.605-21.932-31.944a62.043,62.043,0,0,0,2.863-18.664c0-32.5-24.822-58.854-55.442-58.854a53.063,53.063,0,0,0-32.559,11.23c.042-.99.071-1.983.071-2.983,0-36.231-27.668-65.6-61.8-65.6-25.774,0-47.854,16.754-57.125,40.559-.906-.042-1.815-.073-2.731-.073-20.507,0-38.671,10.612-49.912,26.936-10.719-19.47-30.6-32.559-53.379-32.559-32.915,0-59.81,27.319-61.684,61.761a29.935,29.935,0,0,0-12.473-2.719,30.5,30.5,0,0,0-21.284,8.75c-6.507-24.826-27.943-43.05-53.4-43.05-27.961,0-51.075,21.977-54.881,50.543-14.361,1.251-26,12.688-28.486,27.5a46.473,46.473,0,0,0-25.381,20.6,58.707,58.707,0,0,0-11.779-2.394c-2.123-15.391-14.165-27.623-29.37-28.6a30.158,30.158,0,0,0-20.124,6.087c-1.962-32.544-26.482-59.2-57.938-61.215-31.22-2-58.4,20.98-64.313,52.666a58.946,58.946,0,0,0-7.079-.9,58.315,58.315,0,0,0-17.581,1.54,88.058,88.058,0,0,0-58.833-7.363,58.668,58.668,0,0,0-51.96-.394,87.837,87.837,0,0,0-119.865,4.685c-7.141-21.722-25.993-37.88-48.98-39.372a52.746,52.746,0,0,0-33.144,9.1c.1-.985.185-1.974.242-2.973,2.083-36.164-23.845-67.272-57.912-69.483-25.726-1.67-48.727,13.623-59.35,36.783-.9-.1-1.807-.191-2.722-.25-20.469-1.328-39.209,8.087-51.368,23.652-9.579-20.128-28.674-34.48-51.407-35.956-26.806-1.74-50.652,14.937-60.616,39.743a56.674,56.674,0,0,0-34.791-2.085,77.847,77.847,0,0,0-81.653-31.013,77.953,77.953,0,0,0-58.252-41.121,77.9,77.9,0,0,0-93.728-.507,77.935,77.935,0,0,0-105.716,41.614,77.821,77.821,0,0,0-76.57,24.632,78.413,78.413,0,0,0-81.024,12.728,56.869,56.869,0,0,0-78.6,24.637,28.423,28.423,0,0,0-41.781,25.1c0,.445.046.879.067,1.319h-.023a95.394,95.394,0,0,0-29.9,4.789,69.286,69.286,0,0,0-81.11-20.331A78.4,78.4,0,0,0,939.97,83.712a39.409,39.409,0,0,0-15.464,7.576,77.255,77.255,0,0,0-153.19-.858,77.975,77.975,0,0,0-8.9-.526,77.111,77.111,0,0,0-59.838,28.388,77.188,77.188,0,0,0-63-34.985A78.433,78.433,0,0,0,572.992,88.6a65.1,65.1,0,0,0-21.073,4.376,56.578,56.578,0,0,0-15.9-3.022,65.249,65.249,0,0,0-38.374-16.6,65.466,65.466,0,0,0-52.449-31.454A47.491,47.491,0,0,0,352.41,57.537a23.633,23.633,0,0,0-17.078,20.51,73.871,73.871,0,0,0-21.34,12.72,53.575,53.575,0,0,0-74.048,23.209A26.75,26.75,0,0,0,202.136,128.7a103.986,103.986,0,0,0-36.927,20.329A75.574,75.574,0,0,0,60.755,181.764a37.782,37.782,0,1,0-31.864,68.4,45.219,45.219,0,0,0,66.435,38.065,90.523,90.523,0,0,0,7.966,13.189,94.674,94.674,0,0,0,147.2,76.69,123.715,123.715,0,0,0,23.133,7.713,123.456,123.456,0,0,0,134.6-6.551A88.484,88.484,0,0,0,430.086,382c2.533,0,5.038-.119,7.518-.328a89.813,89.813,0,0,0,49.772-1.749,124.7,124.7,0,0,0,147.014,6.712q4.41.85,8.929,1.379a64.227,64.227,0,0,0,52.724,9.444A88.445,88.445,0,0,0,848.8,383.467a124.174,124.174,0,0,0,56.3,22.742,77.263,77.263,0,0,0,130.811-6.725c.277,0,.553.016.831.016a64.278,64.278,0,0,0,16.113-2.043,88.445,88.445,0,0,0,152.761-13.99,124.728,124.728,0,0,0,142.4,3.167q4.41.85,8.929,1.379a64.228,64.228,0,0,0,52.724,9.444,88.445,88.445,0,0,0,152.761-13.99,124.681,124.681,0,0,0,146.17.545,64.2,64.2,0,0,0,57.883,13.445,88.432,88.432,0,0,0,156.231-22.816,59.148,59.148,0,0,0,31.333-11.4,114.519,114.519,0,0,0,41.526-11.749,35,35,0,0,0,18.278,8.471,49.384,49.384,0,0,0,90.7,34.245,28.131,28.131,0,0,0,44.134,2.026,55.04,55.04,0,0,0,77.539,9.944,45.25,45.25,0,0,0,42.34-5.137,45.233,45.233,0,0,0,38,20.669c1.145,0,2.276-.057,3.4-.14a55.047,55.047,0,0,0,94.623-20.216c.6-.113,1.193-.244,1.782-.387a55.026,55.026,0,0,0,82.53-11.052,58.7,58.7,0,0,0,21.138,5.411c.915.059,1.823.085,2.731.1,7.906,24.354,29,42.487,54.723,44.133,34.069,2.179,63.35-25.372,65.4-61.538.056-1,.083-1.992.1-2.982a53.431,53.431,0,0,0,31.864,13.288c18.637,1.192,35.666-7.544,46.545-21.892a74.722,74.722,0,0,0,119.41,33.319,54.234,54.234,0,0,0,47.1,2.644,74.736,74.736,0,0,0,81.313,5.929,57.3,57.3,0,0,0,48.032-2.605,53.786,53.786,0,0,0,11.428-3.324,74.693,74.693,0,0,0,93.677-2.644,54.191,54.191,0,1,0,26.274-101.586Z" transform="translate(-5.228 -2.619)"/>
</svg>
