<svg xmlns="http://www.w3.org/2000/svg" viewBox="0 0 3191.262 436.224">
  <defs>
    <style>
      .a {
        fill: #ddf3fd;
      }
    </style>
  </defs>
  <title>sky-layer-c</title>
  <path class="a" d="M3180.893,177.622a48.292,48.292,0,0,0-74.171-54.4c.036-.812.062-1.627.062-2.448a53.841,53.841,0,0,0-103.6-20.552c-.79-.034-1.581-.06-2.38-.06a53.667,53.667,0,0,0-18.914,3.423,49.716,49.716,0,0,0-41.207-2.626,49.683,49.683,0,0,0-76.135,7.236,49.67,49.67,0,0,0-58.76,14.413,48.308,48.308,0,0,0-45.223-2.151,58.752,58.752,0,0,0-52.1,5.37,58.638,58.638,0,0,0-41.544-19.663A58.724,58.724,0,0,0,2618.7,80.012a42.593,42.593,0,0,0-82.532,17.611,21.193,21.193,0,0,0-14.508,19.04,66.19,66.19,0,0,0-18.629,12.224,47.785,47.785,0,0,0-23.534-5.013,48.43,48.43,0,0,0-6.9.8,67.85,67.85,0,0,0-67.406-20.3,93.453,93.453,0,0,0-132.685-20.916,66.262,66.262,0,0,0-74.437-4.123,93.4,93.4,0,0,0-121.988-10.777A93.432,93.432,0,0,0,1942.186,94.5a86.366,86.366,0,0,0-98.132,9.723,62.589,62.589,0,0,0-78.633,14.89,93.225,93.225,0,0,0-70.312,16.158,48.091,48.091,0,0,0-43.36-10.07,66.251,66.251,0,0,0-76.188-24.406,60.042,60.042,0,0,0-40.312-3.682,82.507,82.507,0,0,0-86.541-32.87,82.62,82.62,0,0,0-61.74-43.583,82.565,82.565,0,0,0-99.34-.537,82.6,82.6,0,0,0-112.044,44.105A82.5,82.5,0,0,0,1089.7,96.277a94.878,94.878,0,0,0-33.093-11.082,95.526,95.526,0,0,0-114.935-.622,95.512,95.512,0,0,0-99.728,11.143,85.31,85.31,0,0,0-110.554-50.4,85.328,85.328,0,0,0-130.76,12.428A85.329,85.329,0,0,0,490.14,97.346a94.915,94.915,0,0,0-34.975-12.151,95.526,95.526,0,0,0-114.935-.622A95.567,95.567,0,0,0,210.6,135.6a95.483,95.483,0,0,0-101.712,40.464A73.254,73.254,0,0,0,54.25,312c-.13,1.6-.215,3.217-.215,4.852a59.079,59.079,0,0,0,95.619,46.44,77.018,77.018,0,0,0,99.538-.377,55.887,55.887,0,0,0,77.243-24.207,27.943,27.943,0,0,0,39.2-14.63c.326.01.653.014.979.02,1.34.1,2.694.156,4.06.156a53.288,53.288,0,0,0,8.435-.695c1.722-.188,3.432-.414,5.125-.693a73.155,73.155,0,0,0,76.521,28.844A73.265,73.265,0,0,0,515.5,390.361a73.216,73.216,0,0,0,88.091.476A73.2,73.2,0,0,0,680.03,382.3a65.385,65.385,0,0,0,84.733,38.633,65.4,65.4,0,0,0,100.22-9.525,65.4,65.4,0,0,0,84.687-30.356,72.748,72.748,0,0,0,26.807,9.313,73.216,73.216,0,0,0,88.091.476,73.247,73.247,0,0,0,99.357-39.111,73.183,73.183,0,0,0,77.957-31.013q2.535,1,5.187,1.756a64.521,64.521,0,0,0,77.559,3.328,27.337,27.337,0,0,0,40.134,22.393,54.766,54.766,0,0,0,62.83,28.817,75.426,75.426,0,0,0,107.09,16.882,53.48,53.48,0,0,0,60.078,3.328,75.381,75.381,0,0,0,98.456,8.7,75.409,75.409,0,0,0,108.066-20.937,69.706,69.706,0,0,0,79.2-7.847,50.55,50.55,0,0,0,57.587-5.979,58.692,58.692,0,0,0,72.094,10.763,58.721,58.721,0,0,0,83.655,7.609A42.6,42.6,0,0,0,2152.7,371.07a21.279,21.279,0,0,0,31.118-16.168,42.473,42.473,0,0,0,16.594-5.547,71.363,71.363,0,0,0,17.116-6.415,67.266,67.266,0,0,0,14.293-4.155,93.385,93.385,0,0,0,114.541-1.172A48.257,48.257,0,0,0,2412,345.746a93.408,93.408,0,0,0,48.669-.389,53.83,53.83,0,0,0,75.535,32.059,75.446,75.446,0,0,0,67.179,11.676,53.832,53.832,0,0,0,96.521,2.275,75.327,75.327,0,0,0,85.307-2.128A75.409,75.409,0,0,0,2893.281,368.3a69.728,69.728,0,0,0,66.957.532,77.057,77.057,0,0,0,106.471-22.189,59.091,59.091,0,0,0,79.43-67.575,48.285,48.285,0,0,0,26.173-42.929c0-1.613-.083-3.206-.237-4.778.131,0,.26.01.391.01a27.536,27.536,0,0,0,8.427-53.75Z" transform="translate(-8.738 -3.776)"/>
</svg>
