<svg xmlns="http://www.w3.org/2000/svg" viewBox="0 0 3200 429.945">
  <defs>
    <style>
      .a {
        fill: #ecf8fe;
      }
    </style>
  </defs>
  <title>sky-layer-b</title>
  <path class="a" d="M3168.631,167.326A31.214,31.214,0,0,0,3153.9,171a62.807,62.807,0,0,0-72.057-33.043,86.453,86.453,0,0,0-90.679-34.441,86.571,86.571,0,0,0-64.692-45.667,86.513,86.513,0,0,0-104.09-.563,86.55,86.55,0,0,0-117.4,46.214,87.271,87.271,0,0,0-12.945-2.028c-9.5-5.819-21.762-7.643-32.7-2.872a36.846,36.846,0,0,0-59.094-21.209,72.043,72.043,0,0,0-142.854-.8,72.706,72.706,0,0,0-8.3-.49,71.909,71.909,0,0,0-55.8,26.473,72.017,72.017,0,0,0-110.243-12.523c-16.708-25.428-43.566-41.944-73.883-41.944-20.722,0-39.833,7.713-55.194,20.709a60.358,60.358,0,0,0-39.494-15,59.562,59.562,0,0,0-33.573,10.464c-16.684-19.365-40.062-31.423-65.963-31.423-19.952,0-38.4,7.167-53.457,19.3a44.11,44.11,0,0,0-30.714-12.774,42.389,42.389,0,0,0-11.846,1.685c-11.773-18.749-31.205-31.008-53.2-31.008-31.988,0-58.564,25.91-64.008,60.041a76.322,76.322,0,0,0-13.286-1.17c-21,0-40.2,8.577-55.017,22.755a55.653,55.653,0,0,0-55.3-2.467,112.115,112.115,0,0,0-137.792,41.413,85.915,85.915,0,0,0-80.082,9.013c-1.768-1.12-3.592-2.189-5.442-3.234a43.806,43.806,0,0,0-54.595-17.429c-.478-.057-.954-.118-1.433-.171a62.84,62.84,0,0,0-111.027-43.053c-.689-.061-1.382-.107-2.078-.132A62.855,62.855,0,0,0,1175.363,69c-1.283.1-2.57.228-3.862.424a51.649,51.649,0,0,0-39.362,29.839,51.668,51.668,0,0,0-48.679,1.448,62.83,62.83,0,0,0-67.707,3.953A80.3,80.3,0,0,0,940.91,83.755a80.458,80.458,0,0,0-60.124-42.442,80.4,80.4,0,0,0-96.739-.523A80.438,80.438,0,0,0,674.935,83.74a80.312,80.312,0,0,0-75.255,21.382,44.325,44.325,0,0,0-39.624,2.619,48.437,48.437,0,0,0-94.4,7.277,47.924,47.924,0,0,0-16.769.987,60.942,60.942,0,0,0-36.911-24.484,43.409,43.409,0,0,0-23.586-.443,60.443,60.443,0,0,0-10.092,2.7,48.229,48.229,0,0,0-30.661-12.252A24.775,24.775,0,0,0,307.9,67.271a48.441,48.441,0,0,0-96.055-.538,48.878,48.878,0,0,0-5.58-.33,48.351,48.351,0,0,0-37.52,17.8,48.437,48.437,0,0,0-88.972,25.089,35.87,35.87,0,0,0-22.959,10.682,35.991,35.991,0,1,0-31.364,63.77,24.782,24.782,0,0,0,22.334,20.308,43.514,43.514,0,0,0,25.334,33.568,45.329,45.329,0,0,0,31.105,52.362,31.174,31.174,0,0,0,28.094,25.546,54.675,54.675,0,0,0,106.8,6.962,31.186,31.186,0,0,0,33.293,5.6,60.938,60.938,0,0,0,113.48,27.13,60.853,60.853,0,0,0,49.226,25.025c.9,0,1.8-.029,2.694-.068a60.952,60.952,0,0,0,117.287-23.266c0-.929-.029-1.852-.07-2.771a54.653,54.653,0,0,0,66.773-1.959,78.575,78.575,0,0,0,31.088-.046,78.979,78.979,0,0,0,131.942,12.516,78.946,78.946,0,0,0,107.4,1.852,57.379,57.379,0,0,0,31.727,4.166c1.111-.168,2.206-.376,3.29-.6a100.356,100.356,0,0,0,125.727,35.371A100.316,100.316,0,0,0,1214.726,391.3q3.674-.461,7.228-1.115c22.265,16.251,52.578,26.27,86.012,26.27,30.458,0,58.325-8.315,79.88-22.079,1.131.585,2.287,1.145,3.457,1.694a86.088,86.088,0,0,0,66.605,9.712A113.464,113.464,0,0,0,1494.89,394.7a111.952,111.952,0,0,0,139-5.047,81.376,81.376,0,0,0,65.468,5.915,85.866,85.866,0,0,0,98.611-5.366,112.008,112.008,0,0,0,144.758-.549,80.878,80.878,0,0,0,39.4,10.192c2.437,0,4.843-.127,7.225-.337a122.053,122.053,0,0,0,42.166,7.314c20.122,0,38.717-4.624,53.842-12.445,21.555,13.763,49.422,22.079,79.88,22.079,33.435,0,63.748-10.018,86.012-26.27a127.041,127.041,0,0,0,23.206,2.114c20.142,0,38.558-4.591,52.757-12.177q1.932.122,3.894.124c.9,0,1.8-.029,2.694-.068A60.95,60.95,0,0,0,2450.733,363.5c.068,0,.134,0,.2,0a72.247,72.247,0,0,0,15.24-1.625,54.692,54.692,0,0,0,61.06-19.671,71.7,71.7,0,0,0,44.14,15.119c1.068,0,2.128-.034,3.185-.081a72.338,72.338,0,0,0,31.559,35.449,47.819,47.819,0,0,0,82.639,2.16,27.238,27.238,0,0,0,42.733,1.962,53.292,53.292,0,0,0,75.077,9.628,43.812,43.812,0,0,0,41-4.974,43.8,43.8,0,0,0,36.793,20.012c1.109,0,2.2-.055,3.292-.136a53.3,53.3,0,0,0,91.617-19.573c.581-.11,1.156-.236,1.725-.375a53.308,53.308,0,0,0,87.489-50.868,37.248,37.248,0,0,0,26.9-69.188,48.787,48.787,0,0,0,3.086-17.118c0-.946-.034-1.884-.087-2.816a62.724,62.724,0,0,0,55.52-35.028,31.368,31.368,0,1,0,14.732-59.062Z" transform="translate(0 -10.055)"/>
</svg>
