<?xml version="1.0" encoding="utf-8"?>
<!-- Generator: Adobe Illustrator 21.0.2, SVG Export Plug-In . SVG Version: 6.00 Build 0)  -->
<svg version="1.1" id="Layer_1" xmlns="http://www.w3.org/2000/svg" xmlns:xlink="http://www.w3.org/1999/xlink" x="0px" y="0px"
	 viewBox="0 0 200 200" style="enable-background:new 0 0 200 200;" xml:space="preserve">
<style type="text/css">
	.st0{fill:#666666;}
	.st1{fill:#1A1A1A;}
</style>
<g>
	<path class="st0" d="M69.1,159.2c-7.8,7.8-20.5,7.8-28.3,0c-7.8-7.8-7.8-20.5,0-28.3c3.8-3.8,8.8-5.9,14.1-5.9v9.6
		c-2.8,0-5.4,1.1-7.4,3c-4.1,4.1-4.1,10.7,0,14.7c4.1,4.1,10.7,4.1,14.7,0c2-2,3-4.6,3-7.4l9.6,0C75,150.4,72.9,155.4,69.1,159.2z"
		/>
	<path class="st0" d="M85.6,122.6l-4.4,4.4l10,10l-6,6l-28.3-28.3l13.2-13.2c5.9-5.9,13.4-5.6,18.6-0.4c5,5,4.5,10.8,2.2,14.6
		l17.1,4.4l-6.9,6.9L85.6,122.6z M74.6,107.8l-6.3,6.3l7.6,7.6l6.3-6.3c2.4-2.4,2.8-5.7,0.4-8.1C80.2,105,77,105.3,74.6,107.8z"/>
	<path class="st0" d="M126.8,101.5c-4.9,4.9-11,6.3-17.2,4.1c-4.3-1.5-7.1-4.3-7.5-4.6L86.5,85.2l6.8-6.8l15.7,15.7
		c0.1,0.1,1.8,1.7,4.1,2.5c2.6,0.9,4.7,0.3,7-1.9c2.3-2.3,2.8-4.5,1.9-7.2c-0.8-2.2-2.4-3.9-2.4-3.9l-15.7-15.7l6.8-6.8l15.7,15.7
		c0.3,0.3,3.1,3.2,4.6,7.4C133.2,90.5,131.7,96.6,126.8,101.5z"/>
	<g>
		<rect x="121.6" y="50.2" class="st1" width="46.9" height="9.6"/>
		<rect x="140.2" y="31.5" class="st1" width="9.6" height="46.9"/>
	</g>
</g>
</svg>
