<?xml version="1.0" encoding="utf-8"?>
<!-- Generator: Adobe Illustrator 21.0.2, SVG Export Plug-In . SVG Version: 6.00 Build 0)  -->
<svg version="1.1" xmlns="http://www.w3.org/2000/svg" xmlns:xlink="http://www.w3.org/1999/xlink" x="0px" y="0px"
	 viewBox="0 0 1600 900" style="enable-background:new 0 0 1600 900;" xml:space="preserve">
<style type="text/css">
	.st0{fill:#eaeaea;}
	.st1{fill:#FFFFFF;}
</style>
<g id="Layer_1">
	<rect x="-100" y="-70" class="st0" width="140" height="140"/>
	<rect x="52" y="-70" class="st0" width="140" height="140"/>
	<rect x="204" y="-70" class="st0" width="140" height="140"/>
	<rect x="356" y="-70" class="st0" width="140" height="140"/>
	<rect x="508" y="-70" class="st0" width="140" height="140"/>
	<rect x="660" y="-70" class="st0" width="140" height="140"/>
	<rect x="812" y="-70" class="st0" width="140" height="140"/>
	<rect x="964" y="-70" class="st0" width="140" height="140"/>
	<rect x="1116" y="-70" class="st0" width="140" height="140"/>
	<rect x="1268" y="-70" class="st0" width="140" height="140"/>
	<rect x="1420" y="-70" class="st0" width="140" height="140"/>
	<rect x="1572" y="-70" class="st0" width="140" height="140"/>
	<rect x="-100" y="112" class="st0" width="140" height="140"/>
	<rect x="52" y="112" class="st0" width="140" height="140"/>
	<rect x="204" y="112" class="st0" width="140" height="140"/>
	<rect x="356" y="112" class="st0" width="140" height="140"/>
	<rect x="508" y="112" class="st0" width="140" height="140"/>
	<rect x="660" y="112" class="st0" width="140" height="140"/>
	<rect x="812" y="112" class="st0" width="140" height="140"/>
	<rect x="964" y="112" class="st0" width="140" height="140"/>
	<rect x="1116" y="112" class="st0" width="140" height="140"/>
	<rect x="1268" y="112" class="st1" width="140" height="140"/>
	<rect x="1420" y="112" class="st0" width="140" height="140"/>
	<rect x="1572" y="112" class="st0" width="140" height="140"/>
	<rect x="-100" y="294" class="st0" width="140" height="140"/>
	<rect x="52" y="294" class="st0" width="140" height="140"/>
	<rect x="204" y="294" class="st0" width="140" height="140"/>
	<rect x="356" y="294" class="st0" width="140" height="140"/>
	<rect x="508" y="294" class="st0" width="140" height="140"/>
	<rect x="660" y="294" class="st0" width="140" height="140"/>
	<rect x="812" y="294" class="st0" width="140" height="140"/>
	<rect x="964" y="294" class="st0" width="140" height="140"/>
	<rect x="1116" y="294" class="st0" width="140" height="140"/>
	<rect x="1268" y="294" class="st0" width="140" height="140"/>
	<rect x="1420" y="294" class="st0" width="140" height="140"/>
	<rect x="1572" y="294" class="st0" width="140" height="140"/>
	<rect x="-100" y="476" class="st0" width="140" height="140"/>
	<rect x="52" y="476" class="st0" width="140" height="140"/>
	<rect x="204" y="476" class="st0" width="140" height="140"/>
	<rect x="356" y="476" class="st0" width="140" height="140"/>
	<rect x="508" y="476" class="st0" width="140" height="140"/>
	<rect x="660" y="476" class="st0" width="140" height="140"/>
	<rect x="812" y="476" class="st0" width="140" height="140"/>
	<rect x="964" y="476" class="st0" width="140" height="140"/>
	<rect x="1116" y="476" class="st0" width="140" height="140"/>
	<rect x="1268" y="476" class="st0" width="140" height="140"/>
	<rect x="1420" y="476" class="st0" width="140" height="140"/>
	<rect x="1572" y="476" class="st0" width="140" height="140"/>
	<rect x="-102" y="658" class="st0" width="140" height="140"/>
	<rect x="50" y="658" class="st0" width="140" height="140"/>
	<rect x="202" y="658" class="st0" width="140" height="140"/>
	<rect x="354" y="658" class="st0" width="140" height="140"/>
	<rect x="506" y="658" class="st0" width="140" height="140"/>
	<rect x="658" y="658" class="st0" width="140" height="140"/>
	<rect x="810" y="658" class="st0" width="140" height="140"/>
	<rect x="962" y="658" class="st0" width="140" height="140"/>
	<rect x="1114" y="658" class="st0" width="140" height="140"/>
	<rect x="1266" y="658" class="st0" width="140" height="140"/>
	<rect x="1418" y="658" class="st0" width="140" height="140"/>
	<rect x="1570" y="658" class="st0" width="140" height="140"/>
	<rect x="-100" y="840" class="st0" width="140" height="140"/>
	<rect x="52" y="840" class="st0" width="140" height="140"/>
	<rect x="204" y="840" class="st0" width="140" height="140"/>
	<rect x="356" y="840" class="st0" width="140" height="140"/>
	<rect x="508" y="840" class="st0" width="140" height="140"/>
	<rect x="660" y="840" class="st0" width="140" height="140"/>
	<rect x="812" y="840" class="st0" width="140" height="140"/>
	<rect x="964" y="840" class="st0" width="140" height="140"/>
	<rect x="1116" y="840" class="st0" width="140" height="140"/>
	<rect x="1268" y="840" class="st0" width="140" height="140"/>
	<rect x="1420" y="840" class="st0" width="140" height="140"/>
	<rect x="1572" y="840" class="st0" width="140" height="140"/>
</g>
<g id="Layer_2">
</g>
</svg>
