<svg xmlns="http://www.w3.org/2000/svg" viewBox="0 0 237.949 153.149">
  <defs>
    <style>
      .a {
        isolation: isolate;
      }

      .b {
        fill: #474647;
      }

      .c {
        fill: #ffe4a8;
      }

      .d {
        fill: #ca4713;
      }

      .e {
        fill: #0a0a0a;
        mix-blend-mode: overlay;
      }

      .e, .g {
        opacity: 0.5;
      }

      .f {
        opacity: 0.7;
      }

      .f, .g, .m {
        mix-blend-mode: color-dodge;
      }

      .g {
        fill: #ffff57;
      }

      .h {
        fill: #c2bad4;
      }

      .i {
        fill: #ff6063;
      }

      .j {
        fill: #ffff75;
      }

      .k {
        fill: #a483b5;
      }

      .l {
        fill: #ffd89f;
      }

      .m {
        opacity: 0.8;
      }

      .n {
        fill: #e5e3e8;
      }

      .o {
        fill: #e04247;
      }

      .p {
        fill: #c22429;
      }

      .q {
        fill: #ffde88;
      }

      .r {
        fill: #e68722;
      }

      .s {
        fill: #682a0a;
      }

      .t {
        fill: #efa247;
      }

      .u {
        fill: #7e340a;
      }

      .v {
        fill: #20c7e0;
      }

      .w {
        fill: #fff;
      }

      .x {
        fill: #7c4534;
      }

      .y {
        fill: #f9a2a4;
      }

      .z {
        fill: #9c5e46;
      }

      .aa {
        fill: #ffb9a7;
      }

      .ab {
        fill: #e8dfe8;
      }

      .ac {
        fill: #ca1319;
      }
    </style>
  </defs>
  <title>snacks</title>
  <g class="a">
    <g>
      <g>
        <polygon class="b" points="226.323 43.148 230.121 41.362 94.304 0 96.462 3.6 92.664 5.385 94.822 8.985 91.024 10.77 93.182 14.37 89.384 16.156 91.542 19.755 87.744 21.541 89.902 25.14 86.121 26.922 221.909 68.276 219.763 64.689 223.561 62.903 221.403 59.304 225.201 57.518 223.043 53.918 226.841 52.133 224.683 48.533 228.481 46.748 226.323 43.148"/>
        <rect class="c" x="210.143" y="117.517" width="123.627" height="28.138" transform="matrix(0.957, 0.291, -0.291, 0.957, -63.711, -170.968)"/>
        <polygon class="d" points="184.697 56.943 213.147 65.607 221.345 38.69 208.214 34.691 184.697 56.943"/>
        <g>
          <path class="d" d="M226.932,109.961l-2.615-.8c-2.195-.668-3.652-.153-4.155,1.5l-2.737,8.986c-.5,1.65.421,2.89,2.615,3.558l2.615.8c2.172.661,3.629.146,4.132-1.5l.577-1.9c.053-.175-.054-.323-.288-.395l-2.335-.711c-.257-.078-.406-.008-.459.167l-.428,1.4c-.144.474-.541.6-1.148.418l-1.215-.37c-.607-.185-.864-.513-.72-.987l2.437-8c.139-.456.517-.61,1.147-.418l1.215.37c.607.185.859.53.72.987l-.428,1.4c-.053.176.031.316.288.395l2.335.711c.234.071.406.008.459-.167l.577-1.9C230.027,111.862,229.1,110.622,226.932,109.961Z" transform="translate(-113.843 -97.446)"/>
          <path class="d" d="M240.407,114.065,238,113.332c-.233-.071-.406-.008-.459.167l-1.7,5.581-2.989-.91,1.7-5.581c.053-.175-.055-.323-.288-.395l-2.405-.732c-.28-.085-.429-.015-.482.16l-4.1,13.479c-.053.176.031.316.311.4l2.405.732c.233.071.406.008.459-.167l1.7-5.581,2.989.91-1.7,5.581c-.053.176.055.323.288.395l2.405.732c.28.085.429.016.482-.16l4.1-13.479C240.772,114.291,240.688,114.15,240.407,114.065Z" transform="translate(-113.843 -97.446)"/>
          <path class="d" d="M247.952,116.362l-2.615-.8c-2.2-.668-3.629-.146-4.132,1.5l-2.737,8.986c-.5,1.65.4,2.883,2.593,3.551l2.615.8c2.195.668,3.629.146,4.132-1.5l2.737-8.986C251.047,118.264,250.146,117.03,247.952,116.362Zm-3.023,11.181c-.144.474-.541.6-1.148.417l-1.354-.412c-.607-.185-.864-.512-.72-.986l2.469-8.108c.139-.456.54-.6,1.147-.417l1.354.412c.607.185.859.53.72.986Z" transform="translate(-113.843 -97.446)"/>
          <path class="d" d="M258.485,119.57l-2.615-.8c-2.195-.668-3.652-.153-4.155,1.5l-2.737,8.986c-.5,1.65.421,2.89,2.615,3.558l2.615.8c2.172.661,3.629.146,4.132-1.5l.577-1.9c.053-.175-.054-.323-.288-.395l-2.335-.711c-.257-.078-.406-.008-.459.167l-.428,1.4c-.144.474-.54.6-1.147.418l-1.215-.37c-.607-.185-.864-.513-.72-.987l2.437-8c.139-.456.517-.61,1.147-.418l1.215.37c.607.185.859.53.72.987l-.428,1.4c-.053.176.031.316.288.395l2.335.711c.234.071.406.008.459-.167l.577-1.9C261.58,121.472,260.657,120.231,258.485,119.57Z" transform="translate(-113.843 -97.446)"/>
          <path class="d" d="M268.995,122.771l-2.615-.8c-2.2-.669-3.629-.146-4.132,1.5l-2.737,8.986c-.5,1.65.4,2.883,2.593,3.551l2.615.8c2.195.668,3.629.146,4.132-1.5l2.737-8.986C272.09,124.672,271.19,123.439,268.995,122.771Zm-3.022,11.181c-.144.474-.541.6-1.148.417l-1.354-.412c-.607-.185-.864-.512-.72-.986l2.469-8.108c.139-.456.54-.6,1.147-.417l1.354.412c.607.185.859.53.72.986Z" transform="translate(-113.843 -97.446)"/>
          <path class="d" d="M278.689,138.534l-5.557-1.692,3.485-11.443c.053-.175-.031-.316-.288-.395l-2.428-.739c-.233-.071-.406-.008-.459.167l-4.1,13.479c-.059.193.055.323.288.395l8.358,2.545c.257.078.4.026.46-.167l.534-1.755C279.031,138.753,278.946,138.612,278.689,138.534Z" transform="translate(-113.843 -97.446)"/>
          <path class="d" d="M290.967,129.73c.007-.19-.112-.3-.322-.366l-3.246-.988a.368.368,0,0,0-.472.125l-7.986,12.316c-.129.172-.044.313.213.391l2.5.761a.356.356,0,0,0,.448-.132l1.411-2.37,4.156,1.266-.126,2.762a.356.356,0,0,0,.3.359l2.475.754c.28.085.406.008.418-.2Zm-6.252,7.877,3.36-5.67-.371,6.58Z" transform="translate(-113.843 -97.446)"/>
          <path class="d" d="M302.485,132.97l-8.592-2.617c-.233-.071-.406-.008-.459.167l-.534,1.755c-.053.175.055.323.288.395l2.709.825-3.485,11.443c-.059.193.054.323.288.395l2.428.739c.257.078.4.026.459-.167l3.485-11.443,2.708.825c.257.078.406.008.459-.167l.534-1.755C302.827,133.189,302.742,133.048,302.485,132.97Z" transform="translate(-113.843 -97.446)"/>
          <path class="d" d="M311.56,138.284c.28.085.411-.009.465-.185l.534-1.755c.053-.175-.008-.309-.288-.395l-8.592-2.617c-.21-.064-.382,0-.436.174l-4.1,13.479c-.053.176.055.323.265.387L308,149.99c.28.085.406.009.459-.167l.534-1.755c.059-.193-.008-.309-.288-.395l-5.837-1.778,1.08-3.545,4.459,1.358c.233.071.406.008.464-.185l.529-1.738c.059-.193-.049-.341-.283-.412l-4.459-1.358,1.069-3.51Z" transform="translate(-113.843 -97.446)"/>
        </g>
        <path class="e" d="M213.329,126.271l-4.6.765L326.99,163.053l-3.4-3.2a37.563,37.563,0,0,0-14.761-8.4l-78.566-23.927A37.563,37.563,0,0,0,213.329,126.271Z" transform="translate(-113.843 -97.446)"/>
        <path class="e" d="M217.743,101.053l-.82-.935-8.2,26.918,1.2-.319c6.058-1.609,10.442-5.416,11.954-10.382h0C223.394,111.37,221.876,105.765,217.743,101.053Z" transform="translate(-113.843 -97.446)"/>
        <path class="e" d="M322.356,146.765l-.094.31c-1.485,4.877-.049,10.375,3.929,15.04l.8.938,8.2-26.918-1.187.333C328.1,138.124,323.841,141.889,322.356,146.765Z" transform="translate(-113.843 -97.446)"/>
        <g class="f">
          <path class="g" d="M318.06,135.6l-73.919-22.511c-1.941-.591-3.875.112-4.319,1.571s.769,3.121,2.71,3.712l73.919,22.511c1.941.591,3.875-.112,4.319-1.571S320,136.188,318.06,135.6Z" transform="translate(-113.843 -97.446)"/>
          <ellipse class="g" cx="230.639" cy="111.86" rx="2.761" ry="3.674" transform="translate(-57.405 202.461) rotate(-73.062)"/>
        </g>
      </g>
      <g>
        <rect class="h" x="121.249" y="135.744" width="107.615" height="77.401" transform="translate(-149.005 -52.94) rotate(-13.179)"/>
        <polygon class="i" points="104.781 27.05 60.17 37.496 60.564 38.083 55.017 41.088 59.382 44.086 55.107 48.097 60.719 49.794 58.139 54.419 64.443 54.648 63.809 59.436 70.194 58.174 71.567 62.655 77.405 60.025 80.653 63.758 85.371 60.021 90.174 62.644 93.311 58.161 99.198 59.416 100.45 54.629 106.849 54.393 106.091 49.769 109.861 48.746 104.781 27.05"/>
        <g>
          <path class="j" d="M189.232,136.484l-1.769.414a.249.249,0,0,0-.209.336l1.681,7.179-.1.024-4.279-6.624a.3.3,0,0,0-.358-.149l-1.684.394a.257.257,0,0,0-.209.336l3.059,13.065a.257.257,0,0,0,.336.209l1.769-.414a.249.249,0,0,0,.208-.336l-1.689-7.213.085-.02,4.3,6.654a.3.3,0,0,0,.358.149l1.684-.394a.257.257,0,0,0,.209-.336l-3.059-13.065A.257.257,0,0,0,189.232,136.484Z" transform="translate(-113.843 -97.446)"/>
          <path class="j" d="M197.72,134.5l-6.26,1.466a.253.253,0,0,0-.192.332l3.059,13.065a.253.253,0,0,0,.319.213l6.26-1.466a.243.243,0,0,0,.209-.336l-.4-1.7c-.044-.187-.132-.256-.336-.208l-4.253,1-.8-3.436,3.249-.761a.263.263,0,0,0,.2-.353l-.394-1.684a.263.263,0,0,0-.34-.225l-3.249.761-.8-3.4,4.253-1a.255.255,0,0,0,.2-.353l-.4-1.7A.242.242,0,0,0,197.72,134.5Z" transform="translate(-113.843 -97.446)"/>
          <path class="j" d="M210.1,131.6l-1.616.378a.34.34,0,0,0-.281.407l1.167,8.124-.085.02-3.535-7.588a.363.363,0,0,0-.446-.218l-1.021.239a.363.363,0,0,0-.3.394l.184,8.372-.085.02-2.527-7.806a.34.34,0,0,0-.433-.24l-1.616.378a.307.307,0,0,0-.24.433l4.422,12.6a.322.322,0,0,0,.433.24l1.7-.4a.364.364,0,0,0,.306-.377l-.018-8.124,3.569,7.275a.363.363,0,0,0,.446.219l1.667-.39a.322.322,0,0,0,.281-.407l-1.564-13.271A.307.307,0,0,0,210.1,131.6Z" transform="translate(-113.843 -97.446)"/>
          <path class="j" d="M215.371,142.195h1.59a.35.35,0,0,1,.35.35v1.607a.35.35,0,0,1-.35.35h-1.59a.349.349,0,0,1-.349-.349v-1.608A.349.349,0,0,1,215.371,142.195Z" transform="matrix(0.974, -0.228, 0.228, 0.974, -140.832, -44.386)"/>
          <path class="j" d="M214.733,140.866l1.616-.378a.257.257,0,0,0,.209-.336l-2.052-9.3a.257.257,0,0,0-.336-.208l-1.854.434a.249.249,0,0,0-.209.336l2.29,9.243A.249.249,0,0,0,214.733,140.866Z" transform="translate(-113.843 -97.446)"/>
        </g>
        <path class="k" d="M140.4,204.474a9.084,9.084,0,0,1-4.171.039,9.5,9.5,0,0,1-3.522-1.632,10.518,10.518,0,0,1-2.621-2.865,12.028,12.028,0,0,1-1.518-3.666,15.747,15.747,0,0,1-.38-2.891,21.993,21.993,0,0,1,.091-3.106,25.259,25.259,0,0,1,.532-3.213,23.97,23.97,0,0,1,.98-3.2,20.6,20.6,0,0,1,1.454-3.024,16.214,16.214,0,0,1,1.977-2.7,12.719,12.719,0,0,1,2.559-2.164,9.031,9.031,0,0,1,5.828-1.507,7.159,7.159,0,0,1,2.728.852,7.427,7.427,0,0,1,2.272,1.964,7.95,7.95,0,0,1,1.433,3.118,8.607,8.607,0,0,1,.2,2.582c0,.071-.011.142-.017.213a3.125,3.125,0,0,1,1.1-.75,6,6,0,0,1,1.72-.4,2.856,2.856,0,0,1,1.354.249,4.247,4.247,0,0,1,3.373-1.194,3.565,3.565,0,0,1,1.285.4,3.479,3.479,0,0,1,1.59,1.816,10.775,10.775,0,0,1,.9-1.393,9.087,9.087,0,0,1,1.774-1.775,6.533,6.533,0,0,1,2.445-1.153,3.1,3.1,0,0,1,1.883.112,3.6,3.6,0,0,1,.558.28,3.591,3.591,0,0,1,.946-.121,3.006,3.006,0,0,1,2.254,1.024,8.015,8.015,0,0,1,.6-1.035,7,7,0,0,1,1.581-1.64,6.658,6.658,0,0,1,4.477-1.21,6,6,0,0,1,1.2.24l-.047-.957c-.027-.561-.028-1.168,0-1.8l.074-1.791a15.9,15.9,0,0,1,.237-2.168,16.185,16.185,0,0,1,.51-2.058,9.4,9.4,0,0,1,.936-2.062,7.009,7.009,0,0,1,1.532-1.763,5.528,5.528,0,0,1,4.486-1.175,3.988,3.988,0,0,1,1.844.986,4.749,4.749,0,0,1,1.069,1.524,8.13,8.13,0,0,1,.494,1.48,13.16,13.16,0,0,1,.323,2.786,26.15,26.15,0,0,1-.109,2.791q-.036.391-.079.781a3.783,3.783,0,0,1,1.584.067,4,4,0,0,1,1.325.613,6.911,6.911,0,0,1,1.2-1.129,6.4,6.4,0,0,1,4.459-1.168,5.551,5.551,0,0,1,2.01.656q.134.075.264.158c.018-.064.037-.127.058-.189a3.213,3.213,0,0,1,.636-1.116,3.106,3.106,0,0,1,1.161-.821,6,6,0,0,1,1.72-.4,2.857,2.857,0,0,1,1.354.249,4.247,4.247,0,0,1,3.373-1.194,3.565,3.565,0,0,1,1.285.4,3.458,3.458,0,0,1,1.1.934,3.524,3.524,0,0,1,.642,1.367,6.052,6.052,0,0,1,.131.967q.013.2.023.459.06-.076.119-.153a2.382,2.382,0,0,1,1.2-.832l.242-.558q.333-.774.881-1.941a6.69,6.69,0,0,1,.36-.725,5.124,5.124,0,0,1,.637-.881,4.663,4.663,0,0,1,.917-.787,4.29,4.29,0,0,1,1.375-.581,4.765,4.765,0,0,1,1.836-.115,3.467,3.467,0,0,1,1.644.693,3.166,3.166,0,0,1,1.012,1.39,5.408,5.408,0,0,1,.187.615,3.576,3.576,0,0,1-.156,2.049,9.383,9.383,0,0,1-.465,1.075l-.107.208.33.572q.106.187.217.4a7.41,7.41,0,0,0,.54-.587,2.383,2.383,0,0,1,4.153.967l.65,2.724a2.383,2.383,0,0,1-.494,2.087,14.008,14.008,0,0,1-1.788,1.752,20.152,20.152,0,0,1-2.115,1.525,19.463,19.463,0,0,1-2.337,1.253,11.442,11.442,0,0,1-4.306,1.1,6.044,6.044,0,0,1-1.935-.249,4.679,4.679,0,0,1-1.857-1.08l-.033-.031a2.955,2.955,0,0,1-1.058-.178,2.86,2.86,0,0,1-1.165-.8,4.474,4.474,0,0,1-1.514-.275l-.106-.041-.14,1.218a10.4,10.4,0,0,1-.182,1.112,5.043,5.043,0,0,1-.369,1.079,3.278,3.278,0,0,1-1,1.226,3.383,3.383,0,0,1-1.253.576,3.724,3.724,0,0,1-2.272-.132,3.79,3.79,0,0,1-.476-.23q-.155.12-.313.236a11.136,11.136,0,0,1-1.6.974,7.724,7.724,0,0,1-5.061.735,6.813,6.813,0,0,1-.832-.25q-.147.128-.3.249a9.951,9.951,0,0,1-1.668,1.085,7.56,7.56,0,0,1-4.162.888,4.736,4.736,0,0,1-1.772-.546,3.871,3.871,0,0,1-.671.912,3.686,3.686,0,0,1-1.773.972,3.772,3.772,0,0,1-2.291-.124,3.675,3.675,0,0,1-.793-.434c-.1.1-.2.191-.3.283a9.158,9.158,0,0,1-1.451,1.08,6.958,6.958,0,0,1-5.016.824,7.033,7.033,0,0,1-.906-.27,9.023,9.023,0,0,1-.872.825,4.8,4.8,0,0,1-5.2.786l-.022.02a8.6,8.6,0,0,1-1.307.977,5.555,5.555,0,0,1-3.895.771,5.392,5.392,0,0,1-2.013-.806,5.79,5.79,0,0,1-1.575-1.554l-.039-.056a4.74,4.74,0,0,1-2.284-.229l-.106-.041-.14,1.218a10.4,10.4,0,0,1-.182,1.112,5.032,5.032,0,0,1-.369,1.079,3.282,3.282,0,0,1-1,1.226,3.383,3.383,0,0,1-1.253.576,3.724,3.724,0,0,1-2.272-.132,3.8,3.8,0,0,1-.65-.336q-.293.369-.611.722a18.635,18.635,0,0,1-1.511,1.485,14.6,14.6,0,0,1-1.979,1.45,17.122,17.122,0,0,1-2.43,1.224A19.632,19.632,0,0,1,140.4,204.474ZM136.47,191.48c-.017.531-.01,1.045.021,1.534a9.626,9.626,0,0,0,.216,1.562,5.228,5.228,0,0,0,.553,1.481,2.17,2.17,0,0,0,.577.667,1.194,1.194,0,0,0,.552.21,2.956,2.956,0,0,0,1.055-.078,6.153,6.153,0,0,0,1.658-.633,9.306,9.306,0,0,0,1.51-1.081,15.449,15.449,0,0,0,1.427-1.439l1.543-1.783c.54-.626,1.1-1.239,1.671-1.823q-.041-.8-.041-1.7,0-.837.01-1.442-.2.445-.443.874a11.182,11.182,0,0,1-1.453,2.042,9.93,9.93,0,0,1-1.846,1.608,7.193,7.193,0,0,1-2.372,1.043,5.82,5.82,0,0,1-2.883.065A3.418,3.418,0,0,1,136.47,191.48Zm46.326-6.3.059.063.24-.8c-.039-.014-.079-.03-.117-.046A2.392,2.392,0,0,1,182.8,185.181Zm-44.95.081a3.079,3.079,0,0,1,1.139-.056l.215.028a1.89,1.89,0,0,0,.608-.31,2.381,2.381,0,0,0,.6-.651,2.781,2.781,0,0,0,.37-.925,2.056,2.056,0,0,0-.026-.918,1.339,1.339,0,0,0-.137-.361c0,.027-.1.017-.33.072a1.722,1.722,0,0,0-.676.334,4.654,4.654,0,0,0-.881.933,8.079,8.079,0,0,0-.827,1.46c-.062.139-.122.281-.18.425Z" transform="translate(-113.843 -97.446)"/>
        <path class="l" d="M223.176,173.363a9.3,9.3,0,0,1-.975,1.018q-.5.444-.982.827l-.926.737a7.355,7.355,0,0,0-.809.748q-.183-.779-.3-1.562a4.507,4.507,0,0,0-.307-1.2q-.192-.417-.369-.729t-.339-.588a5.179,5.179,0,0,1-.29-.574,4.034,4.034,0,0,1-.216-.675,1.3,1.3,0,0,1,.188-.474q.183-.332.383-.725a6.938,6.938,0,0,0,.346-.8,1.245,1.245,0,0,0,.078-.7,3.036,3.036,0,0,0-.106-.341.778.778,0,0,0-.259-.344,1.125,1.125,0,0,0-.53-.2,2.519,2.519,0,0,0-.922.081,1.893,1.893,0,0,0-.608.251,2.3,2.3,0,0,0-.455.389,2.734,2.734,0,0,0-.341.472,4.352,4.352,0,0,0-.249.508q-.543,1.155-.872,1.919t-.561,1.293l-.4.916q-.171.387-.47,1c-.019.039-.04.073-.059.112l-.24-1.432a10.354,10.354,0,0,1-.922,1.054,7.472,7.472,0,0,1-.933.79,2.981,2.981,0,0,1-1.064.5.982.982,0,0,1-.384.014.808.808,0,0,1-.371-.174,1.375,1.375,0,0,1-.332-.411,2.7,2.7,0,0,1-.253-.7,4.3,4.3,0,0,1-.088-.646q-.028-.394-.034-1.015t-.032-1a3.918,3.918,0,0,0-.074-.587,1.162,1.162,0,0,0-.208-.453,1.085,1.085,0,0,0-.342-.295,1.191,1.191,0,0,0-.432-.134,1.334,1.334,0,0,0-.464.026,2.035,2.035,0,0,0-1.085.629,4.242,4.242,0,0,0-.7,1.085,7.013,7.013,0,0,0-.454,1.478q-.178.868-.306,1.406l-.132.031a13.184,13.184,0,0,1-.3-1.442q-.131-.833-.236-1.279-.087-.373-.156-.586a.665.665,0,0,0-.18-.307.4.4,0,0,0-.293-.084,3.14,3.14,0,0,0-.495.084,3.079,3.079,0,0,0-.457.139.757.757,0,0,0-.285.194.857.857,0,0,0-.165.3,2.393,2.393,0,0,0-.094.467,8.887,8.887,0,0,0-.076,1.085q-.013.651-.014,1.623t.051,1.818q.052.845.133,1.652c.008.077.019.143.027.219-.135.174-.275.352-.433.538a13.652,13.652,0,0,1-1.217,1.26,10.342,10.342,0,0,1-1.394,1.072,4.694,4.694,0,0,1-1.457.639,1.891,1.891,0,0,1-.44.054,1.235,1.235,0,0,1-.419-.075,1.652,1.652,0,0,1-.434-.246,3.824,3.824,0,0,1-.481-.447,8.613,8.613,0,0,0,1.764-1.246,7.379,7.379,0,0,0,1.281-1.517,6.735,6.735,0,0,0,.777-1.822,3.607,3.607,0,0,0,.106-1.751,3.154,3.154,0,0,0-.531-1.183,2.822,2.822,0,0,0-.89-.787,3.158,3.158,0,0,0-1.149-.372,3.654,3.654,0,0,0-1.3.077,3.87,3.87,0,0,0-1.435.643,4.523,4.523,0,0,0-1.038,1.071,5.576,5.576,0,0,0-.685,1.364,7.764,7.764,0,0,0-.358,1.52q-.1.776-.138,1.757a6.331,6.331,0,0,0,.12,1.645,7.127,7.127,0,0,0,.224.723l-.11.225q-.2.409-.433.812t-.467.743a3.742,3.742,0,0,1-.482.572,1.08,1.08,0,0,1-.485.288.984.984,0,0,1-.7-.036.838.838,0,0,1-.359-.582,2.477,2.477,0,0,1,0-1.086,7.283,7.283,0,0,1,.36-1.176q.239-.606.54-1.219t.542-1.213a8.7,8.7,0,0,0,.41-1.37,2.944,2.944,0,0,0,.051-1.273,3.165,3.165,0,0,0-.35-.9,2.332,2.332,0,0,0-.528-.626,1.668,1.668,0,0,0-.642-.328,1.413,1.413,0,0,0-.682-.009,3.747,3.747,0,0,0-1.968,1.146,4.672,4.672,0,0,0-.551,1.009q-.351.78-.708,1.51t-.716,1.526l-.662,1.461-.332-.116.928-2.494q.063-.219.248-.922t.405-1.713q.221-1.011.426-2.248t.323-2.525a23.668,23.668,0,0,0,.1-2.536,10.74,10.74,0,0,0-.26-2.279,5.71,5.71,0,0,0-.346-1.044,2.375,2.375,0,0,0-.529-.768,1.635,1.635,0,0,0-.762-.4,2.323,2.323,0,0,0-1.058.039,3.333,3.333,0,0,0-1.37.663,4.615,4.615,0,0,0-1.011,1.168,6.981,6.981,0,0,0-.7,1.537,13.794,13.794,0,0,0-.434,1.755,13.476,13.476,0,0,0-.2,1.845q-.039.938-.074,1.79t0,1.59q.036.738.061,1.246.1,1.473.293,3.018t.416,2.943c.079.488.157.951.235,1.4-.17.328-.356.668-.578,1.031a13.312,13.312,0,0,1-1.064,1.507,9.267,9.267,0,0,1-1.193,1.226,2.934,2.934,0,0,1-1.193.654,1.683,1.683,0,0,1-1.02-.034,2.142,2.142,0,0,1-.758-.509,2.51,2.51,0,0,1-.513-.788,5.686,5.686,0,0,1-.289-.885q-.068-.289-.144-.722a5.885,5.885,0,0,1-.084-.927,10.791,10.791,0,0,1,.069-1.242,5.232,5.232,0,0,1,.235-1.186,2.174,2.174,0,0,1,.45-.753,1.5,1.5,0,0,1,.784-.431.259.259,0,0,1,.309.131,1.692,1.692,0,0,1,.173.468,2.1,2.1,0,0,1,.09.436q-.017.741-.007.942a1.05,1.05,0,0,0,.379.788.871.871,0,0,0,.857.117,1.41,1.41,0,0,0,.678-.362,2.276,2.276,0,0,0,.487-.883,3.992,3.992,0,0,0,.238-1.04,2.923,2.923,0,0,0-.072-.835,2.549,2.549,0,0,0-.508-1.043,2.785,2.785,0,0,0-.9-.723,3.328,3.328,0,0,0-1.2-.335,4.291,4.291,0,0,0-1.4.105,3.788,3.788,0,0,0-1.42.644,4.6,4.6,0,0,0-1.043,1.083,5.731,5.731,0,0,0-.7,1.389,8.381,8.381,0,0,0-.376,1.555,14.4,14.4,0,0,0-.128,1.827,7.321,7.321,0,0,0,.15,1.731,6.42,6.42,0,0,0,.215.68c-.022.04-.043.085-.065.125q-.189.334-.411.656a6.411,6.411,0,0,1-.459.592,3.4,3.4,0,0,1-.483.46,1.319,1.319,0,0,1-.5.249.432.432,0,0,1-.512-.208,2.939,2.939,0,0,1-.3-.839,8.165,8.165,0,0,1-.173-1.635q-.022-.989-.038-1.762t-.061-1.5a7.811,7.811,0,0,0-.179-1.306,2.2,2.2,0,0,0-.206-.581.825.825,0,0,0-.267-.3.579.579,0,0,0-.315-.093,1.548,1.548,0,0,0-.348.043c-.088.021-.179.044-.271.07s-.182.049-.271.07a2.6,2.6,0,0,1-.313.054,1.134,1.134,0,0,1-.316-.009.578.578,0,0,1-.288-.138l-.264-.227a1.128,1.128,0,0,0-.319-.189.775.775,0,0,0-.462-.007,4.157,4.157,0,0,0-1.559.739,6.694,6.694,0,0,0-1.309,1.313,8.642,8.642,0,0,0-1.01,1.717,11.465,11.465,0,0,0-.7,2.176c-.053.237-.084.455-.124.679-.165.142-.314.289-.5.424a2.981,2.981,0,0,1-1.064.5.982.982,0,0,1-.384.014.809.809,0,0,1-.371-.174,1.375,1.375,0,0,1-.332-.411,2.7,2.7,0,0,1-.253-.7,4.3,4.3,0,0,1-.088-.646q-.028-.394-.034-1.015t-.032-1a3.918,3.918,0,0,0-.074-.587,1.162,1.162,0,0,0-.208-.453,1.085,1.085,0,0,0-.342-.295,1.191,1.191,0,0,0-.431-.134,1.335,1.335,0,0,0-.464.026,2.035,2.035,0,0,0-1.085.629,4.242,4.242,0,0,0-.7,1.085,7.013,7.013,0,0,0-.454,1.478q-.178.868-.306,1.406l-.132.031a13.184,13.184,0,0,1-.3-1.442q-.131-.833-.236-1.279-.087-.373-.156-.586a.665.665,0,0,0-.18-.307.4.4,0,0,0-.293-.084,3.139,3.139,0,0,0-.495.084,3.079,3.079,0,0,0-.457.139.756.756,0,0,0-.285.194.858.858,0,0,0-.165.3,2.392,2.392,0,0,0-.094.467,8.887,8.887,0,0,0-.076,1.085q-.013.651-.014,1.623t.051,1.818c.018.288.045.563.068.845-.25.217-.5.439-.728.676q-.825.845-1.6,1.743t-1.55,1.791a17.715,17.715,0,0,1-1.649,1.662,11.63,11.63,0,0,1-1.9,1.359,8.473,8.473,0,0,1-2.3.887,5.289,5.289,0,0,1-1.916.12,3.576,3.576,0,0,1-1.607-.624,4.487,4.487,0,0,1-1.245-1.386,7.52,7.52,0,0,1-.831-2.167,11.9,11.9,0,0,1-.274-1.954,18.939,18.939,0,0,1,0-2.261,21.978,21.978,0,0,1,.27-2.4,20.653,20.653,0,0,1,.541-2.382,17.529,17.529,0,0,1,.808-2.22,10.391,10.391,0,0,1,1.076-1.892,6.985,6.985,0,0,1,1.34-1.41,4.084,4.084,0,0,1,1.6-.779,3.2,3.2,0,0,1,1.3-.069,2.409,2.409,0,0,1,.975.394,2.288,2.288,0,0,1,.67.745,3.713,3.713,0,0,1,.386,1,4.423,4.423,0,0,1,.035,1.967,5.173,5.173,0,0,1-.693,1.706,4.785,4.785,0,0,1-1.2,1.284,4.05,4.05,0,0,1-1.48.7,2.284,2.284,0,0,1-.486.07,2.75,2.75,0,0,1-.34-.016l-.262-.034a.716.716,0,0,0-.263.017.575.575,0,0,0-.351.209.78.78,0,0,0-.137.363,1.75,1.75,0,0,0,0,.45,4.525,4.525,0,0,0,.082.457q.034.145.071.276c.025.088.045.163.06.227a.949.949,0,0,0,.741.722,3.63,3.63,0,0,0,1.707-.088,4.8,4.8,0,0,0,1.589-.7,7.514,7.514,0,0,0,1.4-1.224,8.743,8.743,0,0,0,1.142-1.607,9.769,9.769,0,0,0,.794-1.844,8.492,8.492,0,0,0,.368-1.929,6.193,6.193,0,0,0-.139-1.867,5.573,5.573,0,0,0-.99-2.194,5.037,5.037,0,0,0-1.54-1.342,4.768,4.768,0,0,0-1.824-.57,5.527,5.527,0,0,0-1.83.1,7.916,7.916,0,0,0-2.475,1.04,10.3,10.3,0,0,0-2.078,1.759,13.777,13.777,0,0,0-1.684,2.3,18.1,18.1,0,0,0-1.285,2.675,21.445,21.445,0,0,0-.882,2.88,22.8,22.8,0,0,0-.482,2.908,19.557,19.557,0,0,0-.082,2.77,13.328,13.328,0,0,0,.32,2.452,9.6,9.6,0,0,0,1.216,2.942,8.105,8.105,0,0,0,2.025,2.22,7.088,7.088,0,0,0,2.643,1.224,6.694,6.694,0,0,0,3.084-.039,17.167,17.167,0,0,0,2.634-.825,14.748,14.748,0,0,0,2.091-1.051,12.131,12.131,0,0,0,1.654-1.21,16.243,16.243,0,0,0,1.317-1.293,11.965,11.965,0,0,0,1.065-1.364q.476-.709.922-1.354c.191-.276.385-.521.578-.774.024.121.048.247.073.356a8.051,8.051,0,0,0,.273.921,2.776,2.776,0,0,0,.406.756,1.3,1.3,0,0,0,1.44.482,1.014,1.014,0,0,0,.379-.172.923.923,0,0,0,.274-.35,2.707,2.707,0,0,0,.19-.572,8.01,8.01,0,0,0,.138-.852l.748-6.515.193-.045q.274.736.6,1.44a5.024,5.024,0,0,0,.8,1.224,2.741,2.741,0,0,0,1.1.757,2.663,2.663,0,0,0,1.543.026,3.427,3.427,0,0,0,.958-.383c.106-.062.2-.141.3-.209.02.113.029.231.055.342a3.991,3.991,0,0,0,.59,1.381,3.421,3.421,0,0,0,.928.923,3.01,3.01,0,0,0,1.129.453,2.883,2.883,0,0,0,1.182-.026,3.584,3.584,0,0,0,1.051-.435,6.193,6.193,0,0,0,.943-.7,6.593,6.593,0,0,0,.782-.844,5.983,5.983,0,0,0,.557-.847,4.238,4.238,0,0,0,1.268,1.256,1.913,1.913,0,0,0,1.453.194,3.038,3.038,0,0,0,1.247-.639,6.683,6.683,0,0,0,1.053-1.095,9.453,9.453,0,0,0,.709-1.076,4.665,4.665,0,0,0,.391.361,4.3,4.3,0,0,0,1.669.766,4.553,4.553,0,0,0,2.054-.049,4.2,4.2,0,0,0,1.21-.493,6.765,6.765,0,0,0,1.071-.8,8.834,8.834,0,0,0,.925-.985,12.238,12.238,0,0,0,.772-1.07c.187-.29.354-.6.524-.911.033.154.066.3.1.43q.125.533.277.993a2.7,2.7,0,0,0,.392.781,1.35,1.35,0,0,0,.591.46,1.45,1.45,0,0,0,.868.018,1.284,1.284,0,0,0,.632-.338,2.072,2.072,0,0,0,.434-.752l2.092-7.015a3.551,3.551,0,0,1,.489-1.11.968.968,0,0,1,.467-.394.292.292,0,0,1,.3.1.868.868,0,0,1,.188.4.516.516,0,0,1-.012.275,1.566,1.566,0,0,1-.143.311c-.066.115-.146.245-.239.392s-.194.31-.3.491a10.893,10.893,0,0,0-.568,1.536,8.622,8.622,0,0,0-.258,1.257,5.316,5.316,0,0,0-.036.984,4.589,4.589,0,0,0,.1.708,3.232,3.232,0,0,0,.313.821,1.76,1.76,0,0,0,.6.635,2.259,2.259,0,0,0,.983.32,4.388,4.388,0,0,0,1.461-.135,5.818,5.818,0,0,0,1.337-.5,7.53,7.53,0,0,0,1.268-.825,7.422,7.422,0,0,0,1.064-1.044c.1-.121.182-.245.268-.369.057.05.1.111.164.158a4.2,4.2,0,0,0,1.668.792,4.509,4.509,0,0,0,2.066-.044,6.312,6.312,0,0,0,1.388-.5,8.748,8.748,0,0,0,1.257-.765,10.2,10.2,0,0,0,1.1-.932c.317-.308.6-.615.874-.92.035.113.062.234.1.343a2.776,2.776,0,0,0,.406.756,1.3,1.3,0,0,0,1.44.482,1.014,1.014,0,0,0,.379-.172.924.924,0,0,0,.274-.35,2.707,2.707,0,0,0,.19-.572,8.034,8.034,0,0,0,.138-.852l.748-6.515.193-.045q.274.736.6,1.44a5.024,5.024,0,0,0,.8,1.224,2.743,2.743,0,0,0,1.1.757,2.663,2.663,0,0,0,1.543.026,3.416,3.416,0,0,0,.715-.264c0,.013-.012.024-.016.037a1.09,1.09,0,0,0-.018.576,1.421,1.421,0,0,0,.191.488.547.547,0,0,0,.252.211.612.612,0,0,0,.31.024q.172-.027.364-.072.157-.037.317-.087a2.412,2.412,0,0,0,.319-.126,2.358,2.358,0,0,0,.6.978,2.306,2.306,0,0,0,.919.533,3.648,3.648,0,0,0,1.171.145,6.749,6.749,0,0,0,1.354-.184,11.244,11.244,0,0,0,2.04-.7,16.9,16.9,0,0,0,2.047-1.1,17.619,17.619,0,0,0,1.863-1.343,11.557,11.557,0,0,0,1.483-1.45Zm-58.293,13.246a6.993,6.993,0,0,1,.016,1.019,6.837,6.837,0,0,1-.164,1.228,3.891,3.891,0,0,1-.408,1.081,1.117,1.117,0,0,1-.717.577.736.736,0,0,1-.492-.036,1.049,1.049,0,0,1-.376-.3,1.881,1.881,0,0,1-.273-.487,4.335,4.335,0,0,1-.183-.593,5.119,5.119,0,0,1-.124-1.155,8.687,8.687,0,0,1,.152-1.5,9.018,9.018,0,0,1,.376-1.486,6.083,6.083,0,0,1,.541-1.134,3.686,3.686,0,0,1,.73-.87,2.119,2.119,0,0,1,.906-.471Zm17.455-6.7q-.235-1.494-.41-3.054-.051-.636-.109-1.366t-.118-1.482q-.06-.753-.052-1.538t.015-1.527q.135-.855.236-1.55a9.044,9.044,0,0,1,.248-1.2,2.6,2.6,0,0,1,.371-.809,1.031,1.031,0,0,1,.616-.4q.257-.06.347.325a3.008,3.008,0,0,1,.06.7q0,.421-.049.914t-.112,1.03q-.067.537-.142,1.037l-.141.935q-.065.435-.088.719-.05.61-.134,1.486T182.7,176q-.095,1-.189,2.017T182.338,179.909Zm11.967-.878a3.751,3.751,0,0,1,.006-.982q.067-.612.129-1.03a2.565,2.565,0,0,1,.239-.777,1.9,1.9,0,0,1,1.347-1.029.589.589,0,0,1,.57.227,1.76,1.76,0,0,1,.4.825,1.819,1.819,0,0,1-.2,1.053,4.673,4.673,0,0,1-.649,1.121,4.405,4.405,0,0,1-.824.783,2.51,2.51,0,0,1-.9.44C194.387,179.488,194.346,179.279,194.305,179.031Zm22.4-1.707a1.692,1.692,0,0,1-.11.668,1.336,1.336,0,0,1-.389.534,1.733,1.733,0,0,1-.74.34,1.332,1.332,0,0,1-.729-.022,3.118,3.118,0,0,1-.624-.278q-.28-.165-.5-.307a.49.49,0,0,0-.362-.108l2.515-4.287q.105.181.248.436a2.2,2.2,0,0,1,.207.773,3.888,3.888,0,0,0,.186.849,5.622,5.622,0,0,1,.2.659A3.651,3.651,0,0,1,216.709,177.324Z" transform="translate(-113.843 -97.446)"/>
        <path class="e" d="M134.4,217.856l-2.908,6.538,104.781-24.535-5.508-4.567c-6.478-5.371-13.093-7.495-19.022-6.106L148.731,203.94C142.8,205.328,137.818,210.167,134.4,217.856Z" transform="translate(-113.843 -97.446)"/>
        <path class="e" d="M115.318,150.537l-1.474-1.506,17.647,75.363.652-2c3.29-10.1,3.309-24.007.054-37.909h0C128.941,170.579,122.751,158.13,115.318,150.537Z" transform="translate(-113.843 -97.446)"/>
        <path class="e" d="M218.107,163.907l.2.867c3.2,13.653,9.228,25.918,16.5,33.551l1.461,1.534L218.624,124.5,218,126.52C214.869,136.587,214.91,150.254,218.107,163.907Z" transform="translate(-113.843 -97.446)"/>
        <g class="m">
          <path class="g" d="M204.339,138.5,146.22,152.106a3.8,3.8,0,0,0,1.732,7.4l58.119-13.609a3.8,3.8,0,1,0-1.732-7.4Z" transform="translate(-113.843 -97.446)"/>
          <circle class="g" cx="135.78" cy="158.451" r="3.798" transform="translate(-146.393 -62.316) rotate(-13.179)"/>
        </g>
      </g>
      <g>
        <polygon class="n" points="65.027 27.057 61.444 23.847 61.444 111.559 65.027 108.348 68.615 111.567 72.204 108.348 75.792 111.567 79.38 108.348 82.968 111.567 86.557 108.348 90.145 111.567 93.733 108.348 97.316 111.559 97.316 23.846 93.733 27.057 90.145 23.839 86.557 27.057 82.968 23.839 79.38 27.057 75.792 23.839 72.204 27.057 68.615 23.839 65.027 27.057"/>
        <polygon class="n" points="100.899 27.057 97.316 23.847 97.316 111.559 100.899 108.348 104.487 111.567 108.075 108.348 111.664 111.567 115.252 108.348 118.84 111.567 122.428 108.348 126.017 111.567 129.605 108.348 133.188 111.559 133.188 23.846 129.605 27.057 126.017 23.839 122.428 27.057 118.84 23.839 115.252 27.057 111.664 23.839 108.075 27.057 104.487 23.839 100.899 27.057"/>
        <polygon class="n" points="136.77 27.057 133.188 23.847 133.188 111.559 136.77 108.348 140.359 111.567 143.947 108.348 147.535 111.567 151.124 108.348 154.712 111.567 158.3 108.348 161.888 111.567 165.477 108.348 169.06 111.559 169.06 23.846 165.477 27.057 161.888 23.839 158.3 27.057 154.712 23.839 151.124 27.057 147.535 23.839 143.947 27.057 140.359 23.839 136.77 27.057"/>
        <rect class="o" x="61.444" y="29.53" width="107.615" height="77.401"/>
        <path class="p" d="M282.9,174.379c-11.229-13.792-31.123-22.969-53.808-22.969s-42.579,9.176-53.808,22.968v30H282.9Z" transform="translate(-113.843 -97.446)"/>
        <g>
          <path class="q" d="M256.263,140.194c0-.693-.858-2.993-2.051-2.993-1.219,0-1.994,2.466-1.994,3.491a5.3,5.3,0,0,0,.748,2.66A3.116,3.116,0,0,0,256.263,140.194Z" transform="translate(-113.843 -97.446)"/>
          <path class="q" d="M269.148,152.913c-.638,0-2.467,3.436-6.124,3.436-1.025,0-2.66-.333-2.66-1.856V153.8c2.936-1.358,6.483-1.8,6.483-5.071,0-1.552-1.136-2.66-3.214-2.66-3.533,0-6.754,3.245-7.265,7.866-.951.986-2.192,2.331-2.876,2.331a.875.875,0,0,1-.97-.859c0-1.5,1.274-4.655,1.33-7.149,0-.637-.472-2.66-1.635-2.66-1.8,0-2.893,4.24-3.115,7.5-.873.695-2.115,3.169-4.116,3.169-1.635,0-2.217-1.8-2.521-2.965,1.939,0,4.933-1.441,4.933-4.018,0-1.967-1.3-3.187-3.658-3.187a4.767,4.767,0,0,0-4.406,2.965l.277-2.328c1.247-2.023,2.66-3.353,2.66-5.348,0-.637-.97-2.715-2.105-2.715a1.349,1.349,0,0,0-1.108.748c-2.04,3.1-3.423,8.925-3.985,13.58-.548.368-1.094,1.578-2.858,1.578h-.167a7.428,7.428,0,0,0,.638-2.882c0-1.718-.887-3.021-2.687-3.021a3.571,3.571,0,0,0-3.658,3.547,4.5,4.5,0,0,0,1.968,3.852,3.878,3.878,0,0,1-2.078.554,2.742,2.742,0,0,1-2.966-2.937,5.313,5.313,0,0,1,5.487-5.542c1.606,0,2.161-.194,2.161-.443,0-.8-2.078-1.635-4.129-1.635-4.551,0-7.42,3.666-7.578,7.714a2.82,2.82,0,0,1-2.037.793H217a7.43,7.43,0,0,0,.638-2.882c0-1.718-.887-3.021-2.688-3.021a3.571,3.571,0,0,0-3.658,3.547,4.5,4.5,0,0,0,1.968,3.852,3.88,3.88,0,0,1-2.079.554,2.741,2.741,0,0,1-2.965-2.937,5.312,5.312,0,0,1,5.487-5.542c1.607,0,2.161-.194,2.161-.443,0-.8-2.078-1.635-4.129-1.635-4.535,0-7.4,3.64-7.575,7.671a7.875,7.875,0,0,1-5.863,2.748c-2.743,0-4.045-1.856-4.045-5.071a14.445,14.445,0,0,1,1.967-7.011,11.812,11.812,0,0,0,4.351.887c2.965,0,4.793-1.524,4.793-3.464,0-2.66-1.967-3.408-4.239-3.408A9.277,9.277,0,0,0,195,140.748c-.97-.609-1.746-1.912-2.438-1.912a.588.588,0,0,0-.554.61,5.476,5.476,0,0,0,1.385,2.937,16.558,16.558,0,0,0-3.491,10.086c0,4.434,2.937,7.122,7.925,7.122,2.724,0,5.483-1.042,6.888-2.907.825,1.671,2.573,2.907,5.442,2.907a7.044,7.044,0,0,0,5.32-2.577,8.961,8.961,0,0,0,1.774.167,3.688,3.688,0,0,0,2.379-.793c.76,1.82,2.537,3.2,5.573,3.2a7.045,7.045,0,0,0,5.32-2.577,8.961,8.961,0,0,0,1.773.167,3.618,3.618,0,0,0,2.509-.915c-.01.289-.017.569-.017.831,0,1.69.388,2.688,1.3,2.688a3.564,3.564,0,0,0,2.3-.942c.415-.333.415-1.108.415-1.8,0-1.108.167-2.632.194-3.8,1.164,2.993,2.577,6.207,5.043,6.207a6.419,6.419,0,0,0,5.134-3.273c.262,1.9,1,3.273,2.651,3.273a6.683,6.683,0,0,0,4.8-2.525,4.669,4.669,0,0,0,4.569,2.608c6.346,0,8.341-4.1,8.341-5.652C269.535,153.245,269.424,152.913,269.148,152.913Zm-6.6-4.378c.582,0,.859.277.859.693,0,1.136-1.3,1.635-2.854,2.66C260.834,150.142,261.444,148.535,262.552,148.535Zm-61.621-7.371c.915,0,1.358.333,1.358,1.081,0,.638-.609.915-1.5.915a10.912,10.912,0,0,1-3.242-.471A4.74,4.74,0,0,1,200.931,141.164Zm14.3,12.636a2.529,2.529,0,0,1-.721-1.829c0-.443.25-1.053.582-1.053.443,0,.61.443.61.915A4.713,4.713,0,0,1,215.228,153.8Zm15.045,0a2.531,2.531,0,0,1-.72-1.829c0-.443.249-1.053.582-1.053.443,0,.609.443.609.915A4.707,4.707,0,0,1,230.274,153.8Zm8.977-1.247c.776-1.8,2.078-3.492,3.186-3.492.832,0,1.081.416,1.081,1C243.518,151.389,241.717,152.386,239.25,152.553Z" transform="translate(-113.843 -97.446)"/>
        </g>
        <g>
          <ellipse class="r" cx="244.141" cy="180.397" rx="19.865" ry="14.107" transform="translate(-135.259 -64.11) rotate(-7.484)"/>
          <ellipse class="s" cx="233.283" cy="173.237" rx="2.392" ry="1.794" transform="translate(-134.418 -65.589) rotate(-7.483)"/>
          <ellipse class="s" cx="253.068" cy="182.553" rx="2.392" ry="1.794" transform="translate(-135.466 -62.927) rotate(-7.484)"/>
          <ellipse class="s" cx="254.184" cy="175.236" rx="4.451" ry="3.123" transform="translate(-134.502 -62.846) rotate(-7.484)"/>
          <ellipse class="s" cx="243.295" cy="168.861" rx="1.927" ry="1.097" transform="translate(-133.764 -64.319) rotate(-7.484)"/>
          <ellipse class="s" cx="237.283" cy="185.329" rx="1.927" ry="1.097" transform="translate(-135.96 -64.961) rotate(-7.484)"/>
        </g>
        <g>
          <path class="t" d="M232.668,171.326c-2.822-7.262-13.4-9.927-23.627-5.952-8.907,3.462-14.6,10.819-14.061,17.458,8.545-3.144,21.34.709,22.225,9.544.686-.207,1.372-.439,2.057-.7C229.488,187.7,235.49,178.588,232.668,171.326Z" transform="translate(-113.843 -97.446)"/>
          <ellipse class="u" cx="201.902" cy="174.15" rx="2.392" ry="1.794" transform="translate(-163.218 -12.472) rotate(-21.24)"/>
          <ellipse class="u" cx="223.336" cy="178.494" rx="2.392" ry="1.794" transform="translate(-163.334 -4.417) rotate(-21.239)"/>
          <ellipse class="u" cx="222.68" cy="171.122" rx="4.451" ry="3.123" transform="translate(-160.71 -5.151) rotate(-21.24)"/>
          <ellipse class="u" cx="210.587" cy="167.519" rx="1.927" ry="1.097" transform="translate(-160.225 -9.779) rotate(-21.239)"/>
        </g>
        <path class="e" d="M179.61,198.674l-4.322,5.7H282.9l-4.322-5.7c-5.083-6.707-11.039-10.282-17.129-10.282H196.738C190.649,188.392,184.693,191.967,179.61,198.674Z" transform="translate(-113.843 -97.446)"/>
        <path class="e" d="M176.38,128.778l-1.092-1.8v77.4l1.092-1.8c5.506-9.088,8.7-22.62,8.7-36.9h0C185.075,151.4,181.886,137.865,176.38,128.778Z" transform="translate(-113.843 -97.446)"/>
        <path class="e" d="M273.414,165.231v.89c0,14.023,3.076,27.339,8.415,36.429l1.073,1.827v-77.4l-1.073,1.827C276.49,137.891,273.414,151.208,273.414,165.231Z" transform="translate(-113.843 -97.446)"/>
        <g class="m">
          <path class="g" d="M265.8,137.35H206.11a3.8,3.8,0,1,0,0,7.6H265.8a3.8,3.8,0,0,0,0-7.6Z" transform="translate(-113.843 -97.446)"/>
          <circle class="g" cx="80.656" cy="43.703" r="3.798"/>
        </g>
      </g>
      <g>
        <polygon class="n" points="233.558 67.119 237.949 64.677 123.721 20.341 125.316 25.106 120.914 27.551 122.514 32.324 118.113 34.769 119.713 39.542 115.311 41.987 116.911 46.76 112.51 49.204 114.109 53.978 109.718 56.42 223.946 100.756 222.352 95.991 226.753 93.546 225.153 88.773 229.554 86.328 227.955 81.555 232.356 79.11 230.756 74.337 235.157 71.893 233.558 67.119"/>
        <polygon class="n" points="219.554 103.198 223.946 100.756 109.718 56.42 111.312 61.185 106.911 63.629 108.511 68.403 104.109 70.847 105.709 75.621 101.308 78.065 102.908 82.839 98.506 85.283 100.106 90.056 95.714 92.498 209.942 136.834 208.348 132.069 212.749 129.625 211.15 124.851 215.551 122.407 213.951 117.633 218.352 115.189 216.753 110.416 221.154 107.971 219.554 103.198"/>
        <rect class="v" x="226.867" y="137.333" width="107.615" height="77.402" transform="translate(-31.129 -187.076) rotate(21.213)"/>
        <g>
          <path class="w" d="M267.827,146.121a3.49,3.49,0,0,0,.141-2,6.789,6.789,0,0,0-.9-2.181,13.235,13.235,0,0,0-1.748-2.224,20.3,20.3,0,0,0-2.4-2.125,25.647,25.647,0,0,0-2.878-1.881,24.368,24.368,0,0,0-3.159-1.5,20.761,20.761,0,0,0-2.778-.864,15.177,15.177,0,0,0-2.724-.39,11.338,11.338,0,0,0-2.565.158,7.413,7.413,0,0,0-2.29.808,6.953,6.953,0,0,0-1.894,1.547,7.979,7.979,0,0,0-1.379,2.365q-.561,1.446.069,1.691.458.178,1.518-.388a16.43,16.43,0,0,0,2.649-1.9,4.426,4.426,0,0,1,1.769-.588,9.687,9.687,0,0,1,2.328-.015,17.108,17.108,0,0,1,2.632.5,25.708,25.708,0,0,1,2.736.929q1.075.417,2.083.916a19,19,0,0,1,1.879,1.06,13.722,13.722,0,0,1,1.56,1.16,7.381,7.381,0,0,1,1.136,1.21,3.408,3.408,0,0,1,.589,1.221,1.966,1.966,0,0,1-.081,1.184,3.6,3.6,0,0,1-1.061,1.482,4.445,4.445,0,0,1-1.724.877,6.651,6.651,0,0,1-2.244.179,9.142,9.142,0,0,1-2.615-.627q-.587-.228-1.076-.475t-1.1-.486a3.087,3.087,0,0,0-.751-.209.912.912,0,0,0-.485.059.723.723,0,0,0-.313.3,3.475,3.475,0,0,0-.239.509,1.751,1.751,0,0,0-.088,1.161,2.724,2.724,0,0,0,.564.988,5.929,5.929,0,0,0,.988.894l1.192.874q.609.446,1.173.926a4.579,4.579,0,0,1,.924,1.058,3.2,3.2,0,0,1,.457,1.263,3.069,3.069,0,0,1-.233,1.534,5.946,5.946,0,0,1-1.545,2.389,5.183,5.183,0,0,1-2.072,1.115,6.379,6.379,0,0,1-2.4.162,9.949,9.949,0,0,1-2.479-.617,10.75,10.75,0,0,1-1.925-.982,17.052,17.052,0,0,1-1.682-1.226.563.563,0,0,1-.067-.337,3.112,3.112,0,0,1,.063-.438,2.852,2.852,0,0,1,.129-.438l.125-.322q.281-.725.61-1.509t.681-1.564q.354-.781.727-1.6t.711-1.469q.582-1.161,1.265-2.348a18.959,18.959,0,0,1,1.259-1.949,18.71,18.71,0,0,1,1.469-1.685,10.623,10.623,0,0,1,1.9-1.566,2.181,2.181,0,0,0-1.29-1.857,3.585,3.585,0,0,0-2.12-.013,16.407,16.407,0,0,0-3.167,2.857,26.128,26.128,0,0,0-2.67,3.908,52.969,52.969,0,0,0-2.432,4.8q-1.1,2.475-2.035,4.881a.759.759,0,0,0,.051.78,2.613,2.613,0,0,0,.6.553q.785.654,1.7,1.313t1.892,1.259q.978.6,1.965,1.113a19.516,19.516,0,0,0,1.918.874,11.629,11.629,0,0,0,2.829.733,9.864,9.864,0,0,0,2.548-.008,8.192,8.192,0,0,0,2.212-.625,8.392,8.392,0,0,0,1.832-1.113,7.811,7.811,0,0,0,1.414-1.477,7.443,7.443,0,0,0,1.446-4.065,5.457,5.457,0,0,0-.347-2.29,5.522,5.522,0,0,0-1.292-1.933,6.619,6.619,0,0,0-2.3-1.422,13.238,13.238,0,0,0,4.064.883,8.8,8.8,0,0,0,3.175-.411,5.886,5.886,0,0,0,2.259-1.361A5.707,5.707,0,0,0,267.827,146.121Z" transform="translate(-113.843 -97.446)"/>
          <path class="w" d="M271.622,150.265a3.4,3.4,0,0,0,1.34.262,2.768,2.768,0,0,0,1.094-.249,2.376,2.376,0,0,0,.821-.63,3.134,3.134,0,0,0,.528-.893,2.207,2.207,0,0,0,.166-1,1.808,1.808,0,0,0-.279-.832,2.449,2.449,0,0,0-.635-.654,4.011,4.011,0,0,0-.9-.482,3.368,3.368,0,0,0-1.437-.267,2.764,2.764,0,0,0-1.1.289,2.52,2.52,0,0,0-.772.607,2.553,2.553,0,0,0-.435.7,2.309,2.309,0,0,0-.018,1.83A2.724,2.724,0,0,0,271.622,150.265Z" transform="translate(-113.843 -97.446)"/>
          <path class="w" d="M316.352,167.626a3.4,3.4,0,0,0,1.34.262,2.768,2.768,0,0,0,1.094-.249,2.376,2.376,0,0,0,.82-.63,3.132,3.132,0,0,0,.528-.892,2.205,2.205,0,0,0,.166-1,1.808,1.808,0,0,0-.278-.832,2.449,2.449,0,0,0-.635-.654,4.012,4.012,0,0,0-.9-.482,3.368,3.368,0,0,0-1.437-.267,2.763,2.763,0,0,0-1.1.289,2.516,2.516,0,0,0-.772.607,2.55,2.55,0,0,0-.435.7,2.309,2.309,0,0,0-.018,1.83A2.724,2.724,0,0,0,316.352,167.626Z" transform="translate(-113.843 -97.446)"/>
          <path class="w" d="M324.926,183.368q-.739.183-1.466.3t-1.363.155a9.012,9.012,0,0,1-1.141.01,2.777,2.777,0,0,1-.808-.149,2.654,2.654,0,0,1-.826-.493,1.68,1.68,0,0,1-.479-.746,2.48,2.48,0,0,1-.081-1.028,5.423,5.423,0,0,1,.362-1.359q.117-.3.263-.656t.311-.736l.331-.77q.166-.388.326-.755.376-.843.778-1.708.531-.3,1.17-.691t1.277-.8l5.5,2.136a.883.883,0,0,0,.76-.091,1.391,1.391,0,0,0,.625-.76,2.116,2.116,0,0,0,.169-.815.5.5,0,0,0-.291-.48q-.239-.109-.6-.268l-.791-.34q-.425-.181-.878-.37l-.843-.353q-.39-.165-.679-.31a1.159,1.159,0,0,0-.438-.149q.826-.6,1.607-1.23a17.445,17.445,0,0,0,1.432-1.29,11.667,11.667,0,0,0,1.148-1.343,6.118,6.118,0,0,0,.763-1.372,6.992,6.992,0,0,0,.426-1.67,5.016,5.016,0,0,0-.033-1.552,3.247,3.247,0,0,0-.511-1.252,2.113,2.113,0,0,0-.992-.78,2.8,2.8,0,0,0-2.159.139,9.5,9.5,0,0,0-2.484,1.632,22.8,22.8,0,0,0-2.576,2.7,34.715,34.715,0,0,0-2.428,3.354,3.083,3.083,0,0,1-.534-.182c-.252-.1-.538-.222-.856-.357s-.653-.267-1-.4a8.692,8.692,0,0,0-.991-.308,3.092,3.092,0,0,0-.788-.1.407.407,0,0,0-.414.236q-.056.143-.119.348a1.159,1.159,0,0,0-.047.422.9.9,0,0,0,.114.323,1.962,1.962,0,0,0-.481-.257,4.008,4.008,0,0,0-.756-.2,3.91,3.91,0,0,0-.869-.055,2.8,2.8,0,0,0-.834.168,1.257,1.257,0,0,0-.647.5q-.327.467-1.535,1.966-1.4,1.87-1.832,2.407-.238.261-1.616,2.589c-.034.057-.057.107-.09.164-.283.075-.563.154-.856.213q-.661.132-1.272.2a7.814,7.814,0,0,1-1.124.052,2.559,2.559,0,0,1-.827-.139.532.532,0,0,1-.325-.283.9.9,0,0,1-.041-.463,3.088,3.088,0,0,1,.154-.618q.119-.342.275-.745a5.247,5.247,0,0,1,.412-.758q.314-.51.735-1.188l1.062-1.716q.642-1.038,1.095-1.768a10.947,10.947,0,0,0,.736-1.387q.284-.656.434-1.043a.816.816,0,0,0-.159-.819,2.264,2.264,0,0,0-1.02-.693,2.718,2.718,0,0,0-1.205-.2.96.96,0,0,0-.785.363l-4.607,7.19a4.216,4.216,0,0,1-.752.916,2.892,2.892,0,0,1-.825.552,2.291,2.291,0,0,1-.808.248,1.525,1.525,0,0,1-.712-.084.652.652,0,0,1-.328-.263.97.97,0,0,1-.138-.411,1.772,1.772,0,0,1,.018-.494,2.76,2.76,0,0,1,.148-.53q.006-.014.239-.4l.613-1,1.008-1.65q.628-1.03,1.142-1.87t1.019-1.67q.507-.828,1.01-1.743a.652.652,0,0,0-.127-.647,2.5,2.5,0,0,0-.993-.669,1.734,1.734,0,0,0-.918-.076,2.579,2.579,0,0,0-.865.34,4.44,4.44,0,0,0-.784.618,8.4,8.4,0,0,0-.675.743,6.977,6.977,0,0,0-.513.717l-.331.536a37.74,37.74,0,0,1-2.144,3.562c-.369.194-.757.388-1.187.582a16.369,16.369,0,0,1-2.147.8,11.446,11.446,0,0,1-2.082.42,3.637,3.637,0,0,1-1.682-.167,2.091,2.091,0,0,1-1.021-.751,2.669,2.669,0,0,1-.42-1.052,3.126,3.126,0,0,1,.027-1.168,7.121,7.121,0,0,1,.325-1.11q.133-.343.359-.841a7.437,7.437,0,0,1,.563-1.009,13.374,13.374,0,0,1,.943-1.224,6.449,6.449,0,0,1,1.072-1.051,2.7,2.7,0,0,1,.989-.456,1.867,1.867,0,0,1,1.106.108.32.32,0,0,1,.224.35,2.07,2.07,0,0,1-.15.6,2.621,2.621,0,0,1-.215.51q-.537.748-.668.96a1.3,1.3,0,0,0-.164,1.073q.071.44.8.721a1.746,1.746,0,0,0,.948.1,2.827,2.827,0,0,0,1.119-.562,4.922,4.922,0,0,0,.972-.9,3.589,3.589,0,0,0,.513-.905,3.157,3.157,0,0,0,.211-1.426,3.433,3.433,0,0,0-.414-1.371,4.146,4.146,0,0,0-1-1.185,5.339,5.339,0,0,0-1.51-.875,4.7,4.7,0,0,0-1.906-.336,5.724,5.724,0,0,0-1.828.378,7.1,7.1,0,0,0-1.688.935,10.525,10.525,0,0,0-1.477,1.33,17.858,17.858,0,0,0-1.412,1.783,9.067,9.067,0,0,0-1.06,1.878,8,8,0,0,0-.3.985c-.147.013-.3.035-.447.045l-1.465.105a9.213,9.213,0,0,0-1.354.2q.359-.926.792-1.808a5.586,5.586,0,0,0,.528-1.444q.094-.562.133-1.006t.065-.84a6.693,6.693,0,0,1,.105-.792,5.037,5.037,0,0,1,.252-.843,1.628,1.628,0,0,1,.526-.354c.279-.141.58-.3.9-.475a8.6,8.6,0,0,0,.916-.577,1.547,1.547,0,0,0,.57-.661,3.779,3.779,0,0,0,.132-.424.974.974,0,0,0-.023-.533,1.411,1.411,0,0,0-.4-.58,3.129,3.129,0,0,0-1-.564,2.343,2.343,0,0,0-.8-.169,2.88,2.88,0,0,0-.74.079,3.461,3.461,0,0,0-.679.244,5.419,5.419,0,0,0-.612.346q-1.366.8-2.239,1.354t-1.482.932l-1.054.656q-.446.277-1.185.7a11.256,11.256,0,0,1-1.421.689q-.681.268-1.752.652c-.1.038-.253.085-.45.142a4.621,4.621,0,0,0-.616.227,2.823,2.823,0,0,0-.606.373,1.347,1.347,0,0,0-.366.475,10.356,10.356,0,0,1-1.061.223,2.527,2.527,0,0,1-1.284-.086.608.608,0,0,1-.44-.607,3.188,3.188,0,0,1,.254-1.079,6.379,6.379,0,0,1,.774-1.384q.519-.725.971-1.488a15.4,15.4,0,0,1,1.27-1.776q.818-1.014,1.292-1.676l.844-1.181a4.193,4.193,0,0,0,.492-.833.886.886,0,0,0,.02-.676,1.184,1.184,0,0,0-.715-.533,4.008,4.008,0,0,0-.756-.2,3.911,3.911,0,0,0-.869-.055,2.8,2.8,0,0,0-.834.168,1.257,1.257,0,0,0-.647.5q-.327.467-1.535,1.966-1.4,1.87-1.832,2.407-.238.261-1.616,2.589a13.931,13.931,0,0,0-1.017,2.027,5.14,5.14,0,0,0-.323,1.234,2.4,2.4,0,0,0,.1,1.084,2.235,2.235,0,0,0,.6.9,3.563,3.563,0,0,0,1.172.694,6.079,6.079,0,0,0,1.871.38,13.49,13.49,0,0,0,2.1-.049,14.627,14.627,0,0,0,2.038-.346c.187-.046.35-.1.522-.143a2.815,2.815,0,0,0-.027,1.145,2.861,2.861,0,0,0,.568,1.189,4.494,4.494,0,0,0,1.1.97,8.34,8.34,0,0,0,1.517.762,13.945,13.945,0,0,0,2.583.709,20.867,20.867,0,0,0,2.868.311,21.792,21.792,0,0,0,2.851-.069c.3-.028.583-.073.868-.114a5.74,5.74,0,0,0,.128.565,5.338,5.338,0,0,0,1.174,1.955,5.645,5.645,0,0,0,2.139,1.39,5.223,5.223,0,0,0,1.585.343,8.324,8.324,0,0,0,1.657-.066,10.763,10.763,0,0,0,1.639-.361,15.063,15.063,0,0,0,1.541-.555c.209-.088.415-.2.624-.3l-.018.042a5.624,5.624,0,0,0-.4,1.582,2.862,2.862,0,0,0,.126,1.177,1.952,1.952,0,0,0,.529.815,2.633,2.633,0,0,0,.823.5,3.551,3.551,0,0,0,1.273.226,6.144,6.144,0,0,0,1.453-.176,9.651,9.651,0,0,0,1.545-.514,12.765,12.765,0,0,0,1.564-.8,10.04,10.04,0,0,0-.127,1.307,3.937,3.937,0,0,0,.111,1.091,2.166,2.166,0,0,0,.424.847,1.986,1.986,0,0,0,.833.566,5.246,5.246,0,0,0,1.2.294,11.041,11.041,0,0,0,1.413.093,14.443,14.443,0,0,0,1.5-.075c.451-.046.88-.112,1.3-.187-.01.058-.027.118-.034.176a2.4,2.4,0,0,0,.1,1.084,2.234,2.234,0,0,0,.6.9,3.563,3.563,0,0,0,1.172.694,6.079,6.079,0,0,0,1.871.38,13.494,13.494,0,0,0,2.1-.049,14.643,14.643,0,0,0,2.038-.346,13.693,13.693,0,0,0,1.673-.512l.468-1.206a10.994,10.994,0,0,0-.094,1.92,5.326,5.326,0,0,0,.646,2.434,3.186,3.186,0,0,0,1.652,1.4,4.354,4.354,0,0,0,1.26.259,11.885,11.885,0,0,0,1.725-.022q.994-.075,2.3-.26t3-.452l1.423-3.665a11.166,11.166,0,0,1-1.319.551Q325.665,183.185,324.926,183.368Zm-.454-14.9q.783-1.1,1.531-1.982a10.315,10.315,0,0,1,1.381-1.386q.635-.506,1.009-.361a.743.743,0,0,1,.38.279.731.731,0,0,1,.111.372,1.392,1.392,0,0,1-.047.4,3.358,3.358,0,0,1-.114.358,4,4,0,0,1-.7,1.065q-.519.612-1.208,1.281t-1.483,1.329q-.794.66-1.505,1.214-.223-.111-.432-.21c-.139-.066-.279-.134-.416-.2Q323.688,169.569,324.472,168.466Zm-49.207-2.627a2.1,2.1,0,0,1-.582.606,1.655,1.655,0,0,1-.774.274,2.147,2.147,0,0,1-1-.17,1.649,1.649,0,0,1-.732-.533,3.84,3.84,0,0,1-.444-.722c-.115-.244-.212-.465-.294-.664a.61.61,0,0,0-.3-.364l5.584-2.629c-.012.173-.029.38-.052.621a2.746,2.746,0,0,1-.33.938,4.765,4.765,0,0,0-.405,1,6.882,6.882,0,0,1-.259.815A4.518,4.518,0,0,1,275.265,165.839Zm38.055,14.31a10.89,10.89,0,0,1-1.611.372,2.527,2.527,0,0,1-1.284-.086.608.608,0,0,1-.44-.607,3.186,3.186,0,0,1,.254-1.079,6.379,6.379,0,0,1,.774-1.384q.519-.725.971-1.488a15.366,15.366,0,0,1,1.27-1.776q.818-1.014,1.292-1.676t.844-1.181a4.192,4.192,0,0,0,.492-.833.893.893,0,0,0,.027-.634,1.763,1.763,0,0,0,.257.174q.741.4,1.127.621t.631.383q.245.159.461.307t.624.379q-.5.91-.949,1.856t-.782,1.805a27.832,27.832,0,0,0-1.221,3.906c-.325.111-.672.233-1.067.378Q314.161,179.891,313.32,180.148Z" transform="translate(-113.843 -97.446)"/>
        </g>
        <g>
          <ellipse class="x" cx="294.272" cy="203.067" rx="16.038" ry="11.551" transform="translate(-175.528 72.046) rotate(-29.22)"/>
          <ellipse class="y" cx="293.144" cy="201.051" rx="14.167" ry="10.203" transform="translate(-174.687 71.238) rotate(-29.22)"/>
          <ellipse class="x" cx="290.795" cy="196.851" rx="16.038" ry="11.551" transform="translate(-172.935 69.557) rotate(-29.22)"/>
        </g>
        <g>
          <ellipse class="z" cx="279.156" cy="189.25" rx="18.164" ry="13.082" transform="translate(-129.855 254.959) rotate(-63.066)"/>
          <ellipse class="aa" cx="276.824" cy="188.065" rx="16.045" ry="11.556" transform="translate(-130.074 252.232) rotate(-63.067)"/>
          <ellipse class="z" cx="271.964" cy="185.596" rx="18.164" ry="13.082" transform="translate(-130.532 246.548) rotate(-63.066)"/>
        </g>
        <path class="e" d="M222.6,188.89l-6.093,3.752,100.323,38.939-1.966-6.88c-2.312-8.092-6.571-13.58-12.248-15.783L242.291,185.5C236.614,183.3,229.768,184.477,222.6,188.89Z" transform="translate(-113.843 -97.446)"/>
        <path class="e" d="M244.883,122.561l-.366-2.076L216.51,192.642l1.671-1.285c8.422-6.479,16.291-17.941,21.457-31.252h0C244.8,146.795,246.728,133.026,244.883,122.561Z" transform="translate(-113.843 -97.446)"/>
        <path class="e" d="M322.152,191.655l-.322.83c-5.074,13.073-7.025,26.6-5.336,37.005l.339,2.092,28.007-72.157-1.662,1.315C334.912,167.281,327.226,178.582,322.152,191.655Z" transform="translate(-113.843 -97.446)"/>
        <g class="m">
          <path class="g" d="M325.143,162.909l-55.647-21.6a3.8,3.8,0,1,0-2.748,7.081l55.647,21.6a3.8,3.8,0,1,0,2.748-7.081Z" transform="translate(-113.843 -97.446)"/>
          <circle class="g" cx="257.298" cy="140.65" r="3.798" transform="translate(-80.765 232.175) rotate(-68.787)"/>
        </g>
      </g>
      <g>
        <polygon class="n" points="215.732 93.484 217.787 89.188 105.18 117.582 109.026 120.39 106.966 124.694 110.82 127.506 108.76 131.809 112.615 134.621 110.554 138.925 114.409 141.737 112.348 146.04 116.203 148.852 114.148 153.149 226.755 124.755 222.909 121.946 224.97 117.643 221.115 114.831 223.176 110.527 219.321 107.715 221.381 103.412 217.527 100.6 219.587 96.296 215.732 93.484"/>
        <rect class="ab" x="228.813" y="200.274" width="101.995" height="36.68" transform="translate(-158.801 -22.398) rotate(-14.152)"/>
        <g>
          <polygon class="ac" points="191.646 133.608 219.902 126.483 210.934 90.916 197.893 94.205 191.646 133.608"/>
          <polygon class="ac" points="176.646 137.39 189.687 134.101 195.934 94.699 182.893 97.987 176.646 137.39"/>
          <polygon class="ac" points="157.781 142.147 170.822 138.858 177.068 99.456 164.027 102.744 157.781 142.147"/>
          <polygon class="ac" points="131.492 148.775 144.533 145.487 150.78 106.084 137.739 109.372 131.492 148.775"/>
        </g>
        <g>
          <path class="ac" d="M284.182,232.714a5.135,5.135,0,0,1-6.394-3.384,4.191,4.191,0,0,1-.122-.762,5.481,5.481,0,0,1-1.015.369,3.309,3.309,0,0,1-2.027-.149,6.509,6.509,0,0,1-2.872,1.488,5.407,5.407,0,0,1-3.485-.23,6.329,6.329,0,0,1-2.9,1.736,3.631,3.631,0,0,1-3-.578,6.179,6.179,0,0,1-1.832,1.815,3.5,3.5,0,0,1-1.145.543,2.754,2.754,0,0,1-2.3-.4,6.173,6.173,0,0,1-2.473,1.327,3.2,3.2,0,0,1-2.027-.153,6.474,6.474,0,0,1-2.872,1.493,5.437,5.437,0,0,1-3.5-.234,9.538,9.538,0,0,1-4.086,2.147c-4.684,1.181-8.417-.859-9.511-5.2a14.491,14.491,0,0,1,.234-7.733,4.74,4.74,0,0,1-1.071-1.9,2.573,2.573,0,0,1,1.839-3.135,2.966,2.966,0,0,1,2.109.313,8.8,8.8,0,0,1,3.9-2.143c3.754-.947,5.678,1.041,6.226,3.217a4.265,4.265,0,0,1,.07,1.736,6.883,6.883,0,0,1,3.829-1.592,2.72,2.72,0,0,1,1.2-.666,4.479,4.479,0,0,1,3.9,1.176c.074-.269.16-.539.256-.814a2.93,2.93,0,0,1,4.157-1.888,5.6,5.6,0,0,1,1.733-.756,4.711,4.711,0,0,1,5.035,1.366,7.48,7.48,0,0,1,4.583-3.77l.047-.011c.075-3.837,1-5.866,2.856-6.334,2.205-.556,4.2,1.674,4.556,3.073a6.571,6.571,0,0,1,.16,1.3,5.9,5.9,0,0,1,1.066-.385,2.945,2.945,0,0,1,2.858.715,2.956,2.956,0,0,1,2.177-2.257,2.917,2.917,0,0,1,1.623.068,2.432,2.432,0,0,1-.1-.314c-.521-2.066,1.936-5.945,6.4-7.07,7.173-1.809,8.892,2.657,9.248,4.068a5.438,5.438,0,0,1-.137,3.221,6.137,6.137,0,0,1,2.293,3.671c.952,3.774-1.724,7.254-6.508,8.46a15.713,15.713,0,0,1-6.246.039,12.584,12.584,0,0,1-2.038,2.535C288.706,228.885,288.073,231.733,284.182,232.714ZM295.3,216.728c.007.1.015.182.023.232l.214,1.159c.762-.283.677-.619.642-.758a6.8,6.8,0,0,0-.218-.722A6.181,6.181,0,0,1,295.3,216.728Zm-55.8,10.654a8.238,8.238,0,0,0,.179,2.592c.385,1.525.771,1.427,1.181,1.324a3.763,3.763,0,0,0,2.077-1.5,8.929,8.929,0,0,1,.589-3.527A8.735,8.735,0,0,1,239.5,227.383ZM288.051,213.6a5.444,5.444,0,0,1,.4.525c.011-.183.026-.366.042-.547A2.506,2.506,0,0,1,288.051,213.6Z" transform="translate(-113.843 -97.446)"/>
          <path class="ac" d="M317.37,218.942a2.757,2.757,0,0,1-2.3-.4,6.168,6.168,0,0,1-2.472,1.326,3.2,3.2,0,0,1-2.027-.153,6.474,6.474,0,0,1-2.872,1.493,5.167,5.167,0,0,1-6.479-3.886,9.32,9.32,0,0,1,.5-6.159,7.633,7.633,0,0,1,4.841-4.268,8.457,8.457,0,0,1,1.182-.206,2.717,2.717,0,0,1,1.2-.666,4.119,4.119,0,0,1,2.809.418,3.52,3.52,0,0,1,2.612-2.266,3.857,3.857,0,0,1,3.6,1.06,3.768,3.768,0,0,1,1.57-.918c1.375-.347,2.675.439,3.864,2.336a2.136,2.136,0,0,1,.325,1.05c.892-.186,2.434.078,2.967,2.193a6.544,6.544,0,0,1-4.475,7.549,3.716,3.716,0,0,1-2.3-.14A4.409,4.409,0,0,1,317.37,218.942Z" transform="translate(-113.843 -97.446)"/>
        </g>
        <g>
          <path class="q" d="M298.228,212.907a3.452,3.452,0,0,0,1.2-3.568c-.516-2.048-2.352-3.6-6.645-2.514-3.466.874-5.017,3.778-4.843,4.468.035.138.153.192.311.152,1.221-.308,1.681-1.89,4.517-2.6,2.008-.506,3.236-.041,3.628,1.515a2.674,2.674,0,0,1-.153,2.133,3.511,3.511,0,0,0-.853.11c-.788.2-1.811.541-1.6,1.368.2.788,1.287.7,2.095.5a3.872,3.872,0,0,0,.743-.292,3.76,3.76,0,0,1,1.636,2.666c.258,1.024.04,2.818-2.6,3.483a7.887,7.887,0,0,1-1.872.137l-.553-3.023c-.209-.827-.024-4.5-.5-6.388-.134-.532-.347-1.043-.524-1-1.97.5-1.955,7.28-1.21,10.233l0,.019c-.3,0-.574,0-.815.009a3.07,3.07,0,0,0,.008-1.209c-.114-.453-.252-.669-.449-.619-.492.124-.966,2.317-2.819,4.606a42.323,42.323,0,0,0-.059-7.379c-.119-.473-1.221-1.765-2.009-1.567a.836.836,0,0,0-.629.745c-.082.586-.208,3.739-.175,5.616-.092,1.134-.341,2.055-1.365,2.313-.689.174-.961-.072-1.065-.485-.467-1.851.116-3.443-.276-5-.253-1-.6-1.881-1.525-1.647a3.011,3.011,0,0,0-1.535.89l.6,4.758c-.5.7-1.47,2.792-2.151,2.964-.315.079-.587-.418-.8-1.245a31.315,31.315,0,0,1-.579-6.2,5.794,5.794,0,0,0,.633-3.637c-.114-.453-1.126-1.727-1.953-1.518-.985.248-1.354,2.939-1.209,6.169l-.482,0a5.171,5.171,0,0,0-1.212.18,5.571,5.571,0,0,0-3.427,3.105,6.868,6.868,0,0,0-.543,3.664c-.51.879-1.2,2.2-1.718,2.331-.158.04-.247-.064-.3-.281-.194-.768.142-2.926-.34-4.836-.353-1.4-1.516-2.026-3.289-1.579a3.2,3.2,0,0,0-2.08,1.551c-.405-.526-1.13-1.16-1.682-1.021-.256.065-.473.286-.629.745a9.317,9.317,0,0,0-.284,5.172c-.5.707-1.469,2.79-2.149,2.961-.3.074-.592-.605-.821-1.511a14.712,14.712,0,0,1-.488-2.6,13.154,13.154,0,0,0,.415-1.759,2.4,2.4,0,0,0-2.328-1.257c-.276.07-.438.341-.525.74a2.355,2.355,0,0,0-.641-.048,6.5,6.5,0,0,0-1.212.18,5.572,5.572,0,0,0-3.427,3.105,6.844,6.844,0,0,0-.56,3.564l-.006.013a5.759,5.759,0,0,1-3.722,3.1c-1.95.492-3.208-.595-3.784-2.879a10.591,10.591,0,0,1,.142-5.335,8.652,8.652,0,0,0,3.251-.149c2.107-.531,3.134-1.942,2.786-3.321-.477-1.891-2.009-2.07-3.624-1.662a6.8,6.8,0,0,0-3.935,2.752c-.8-.259-1.584-1.046-2.075-.922a.431.431,0,0,0-.285.532,4.014,4.014,0,0,0,1.511,1.839,12.133,12.133,0,0,0-.673,7.794c.795,3.151,3.364,4.535,6.908,3.641a6.6,6.6,0,0,0,4.248-3.033,2.992,2.992,0,0,0,3.336,1.121,3.917,3.917,0,0,0,3.038-2.819c.49,1.028,1.112,1.667,1.86,1.479a5.485,5.485,0,0,0,3.286-3.184c.045.181.087.352.134.541.3,1.2.7,1.876,1.353,1.712a1.4,1.4,0,0,0,.428-.213c1.19-.845,1.445-1.328,1.321-1.821a19.783,19.783,0,0,1-.989-2.18l-.035-.138c-.087-1.674.5-4.084,1.542-4.347.689-.174.961.072,1.065.485.293,1.162-.084,2.241.438,4.309.333,1.319.97,2.436,2.211,2.124a4.919,4.919,0,0,0,2.99-2.736,2.979,2.979,0,0,0,3.4,1.23,3.941,3.941,0,0,0,3.034-2.755c.489,1.029,1.116,1.6,1.865,1.415a5.263,5.263,0,0,0,2.974-2.542c.6.969,1.752,1.2,3.2.84a3.189,3.189,0,0,0,2.3-2.024c.045.6.051,1.2.053,1.788-2.815,1.464-5.207,2.193-4.78,3.886a3,3,0,0,0,3.791,1.83c2.856-.72,3.02-2.647,3.118-4.912a10.235,10.235,0,0,0,3.069-4.19c1.437.979,5.068.986,6.781.554,3.191-.8,5.689-2.943,4.954-5.857A4.111,4.111,0,0,0,298.228,212.907Zm-57.72,9.109c.65-.164,1.024-.007,1.159.525.114.453-.269.759-.9.918a8.012,8.012,0,0,1-2.389.246A3.474,3.474,0,0,1,240.508,222.016Zm10.926,6.44c-.051,1.793-.945,2.731-1.851,2.959-.886.223-1.311-.465-1.5-1.233a4.857,4.857,0,0,1,2.8-5.606A21.711,21.711,0,0,0,251.434,228.456Zm22.03-5.429c-.09,1.719-.955,2.608-1.841,2.831s-1.311-.465-1.5-1.233a4.857,4.857,0,0,1,2.777-5.6A25.833,25.833,0,0,0,273.464,223.026Zm9.792,6.1c-.492.124-1.374.032-1.518-.539-.119-.473,1.008-.652,2.785-1.5C284.333,228.161,283.946,228.95,283.256,229.124Z" transform="translate(-113.843 -97.446)"/>
          <path class="q" d="M324.156,209.8c-.374.094-1.526,2.919-2.294,3.113-.157.04-.247-.064-.3-.281-.179-.709.059-2.675.015-4.842-.42-.669-1.092-1.5-1.524-1.4-.552.139-1.092,1.071-2.038,1.309a2.219,2.219,0,0,1-.773.09c-.3-.6-1.255-1.82-2.358-1.542-.985.248-1.293.85-1.1,1.618a2.484,2.484,0,0,0,1.3,1.327,8.418,8.418,0,0,0-.177,2.971c-.474.588-1.508,2.879-2.222,3.059-.3.074-.593-.6-.821-1.511a14.758,14.758,0,0,1-.488-2.6,13.1,13.1,0,0,0,.415-1.759,2.4,2.4,0,0,0-2.327-1.257c-.277.07-.438.341-.525.74a2.355,2.355,0,0,0-.641-.048,6.5,6.5,0,0,0-1.212.18,5.571,5.571,0,0,0-3.427,3.105,7.162,7.162,0,0,0-.36,4.72,3.022,3.022,0,0,0,3.876,2.332,3.916,3.916,0,0,0,3.038-2.819c.49,1.028,1.112,1.667,1.86,1.479a5.486,5.486,0,0,0,3.288-3.189c.043.181.083.353.132.547.3,1.2.7,1.876,1.353,1.712,1.32-.333,1.633-1.25,1.558-1.545-.139-.552-.53-1.6-.8-2.668a15.9,15.9,0,0,1-.164-2.891,4.238,4.238,0,0,0,.5-.084,5,5,0,0,0,1.216-.5,9.386,9.386,0,0,0,.057,4.133c.333,1.319,1.227,2.372,2.468,2.059a4.429,4.429,0,0,0,2.92-4.947C324.491,209.972,324.353,209.755,324.156,209.8Zm-14.736,4.03c-.05,1.793-.945,2.73-1.851,2.959-.886.223-1.311-.465-1.5-1.233a4.857,4.857,0,0,1,2.8-5.606A21.717,21.717,0,0,0,309.42,213.835Z" transform="translate(-113.843 -97.446)"/>
        </g>
        <path class="e" d="M238.156,245.244l-3.311,3.622,98.9-24.938-4.633-1.619a29.481,29.481,0,0,0-16.933-.755l-59.472,15A29.481,29.481,0,0,0,238.156,245.244Z" transform="translate(-113.843 -97.446)"/>
        <path class="e" d="M227.09,213.875l-1.213-.575,8.968,35.567.8-1.082a22.67,22.67,0,0,0,3.716-18.97h0A22.67,22.67,0,0,0,227.09,213.875Z" transform="translate(-113.843 -97.446)"/>
        <path class="e" d="M320.489,208.14l.1.409a22.67,22.67,0,0,0,11.955,14.789l1.2.591-8.968-35.567L324,189.45A22.67,22.67,0,0,0,320.489,208.14Z" transform="translate(-113.843 -97.446)"/>
        <g class="f">
          <path class="g" d="M310.487,197.981,255.63,211.813a3.6,3.6,0,0,0,1.76,6.981l54.857-13.832a3.6,3.6,0,0,0-1.76-6.981Z" transform="translate(-113.843 -97.446)"/>
          <circle class="g" cx="243.899" cy="218.484" r="3.6" transform="translate(-159.859 -31.182) rotate(-14.152)"/>
        </g>
      </g>
    </g>
  </g>
</svg>
