<svg xmlns="http://www.w3.org/2000/svg" viewBox="0 0 40 40">
  <title>social-icon-linkedin</title>
  <g>
    <rect width="40" height="40" style="fill: #fff"/>
    <g>
      <rect x="8.817" y="15.043" width="4.861" height="14.524"/>
      <path d="M261.249,352.351h-.033a2.776,2.776,0,1,1,.033,0Z" transform="translate(-250 -339.292)"/>
      <path d="M281.2,368.859H276.34v-7.772c0-1.953-.705-3.285-2.461-3.285a2.655,2.655,0,0,0-2.494,1.767,3.265,3.265,0,0,0-.16,1.176v8.114h-4.859s.064-13.163,0-14.524h4.859v2.059a4.826,4.826,0,0,1,4.379-2.4c3.2,0,5.595,2.075,5.595,6.538Z" transform="translate(-250 -339.292)"/>
    </g>
  </g>
</svg>
