<svg xmlns="http://www.w3.org/2000/svg" viewBox="0 0 40 40">
  <title>social-icon-github</title>
  <g>
    <rect width="40" height="40" style="fill: #fff"/>
    <g>
      <path d="M450.244,371.028m4.543-.883c-.733.142-.993-.749-.993-1.134,0-.476.017-2.034.017-3.969a3.457,3.457,0,0,0-.981-2.678c3.221-.358,6.6-1.581,6.6-7.136a5.586,5.586,0,0,0-1.488-3.882,5.191,5.191,0,0,0-.142-3.827s-1.213-.388-3.973,1.483a13.714,13.714,0,0,0-7.243,0c-2.764-1.871-3.978-1.483-3.978-1.483a5.2,5.2,0,0,0-.14,3.827,5.6,5.6,0,0,0-1.49,3.882c0,5.542,3.377,6.782,6.589,7.147a3.08,3.08,0,0,0-.918,1.934,3.079,3.079,0,0,1-4.209-1.2,3.04,3.04,0,0,0-2.217-1.491s-1.411-.018-.1.879a3.83,3.83,0,0,1,1.606,2.116s.849,2.581,4.872,1.706c.006,1.208.02,2.348.02,2.693,0,.382-.265,1.269-.988,1.136,0,0,.938,1.338,4.676,1.338S454.787,370.145,454.787,370.145Z" transform="translate(-430 -339.292)"/>
      <path d="M441.222,362.286c-.032.072-.145.094-.248.044s-.164-.145-.13-.217.144-.094.249-.045.165.146.129.218Zm-.178-.132" transform="translate(-430 -339.292)" style="fill: #fff"/>
      <path d="M441.808,362.94c-.069.064-.2.034-.3-.067a.221.221,0,0,1-.042-.3c.071-.064.2-.034.3.067s.113.236.041.3Zm-.138-.148" transform="translate(-430 -339.292)" style="fill: #fff"/>
      <path d="M442.378,363.772c-.089.062-.234,0-.323-.125s-.089-.283,0-.345.232-.006.323.121.088.285,0,.348Zm0,0" transform="translate(-430 -339.292)" style="fill: #fff"/>
      <path d="M443.159,364.577c-.079.087-.248.064-.372-.055a.278.278,0,0,1-.082-.37c.08-.087.25-.063.375.055s.164.283.079.37Zm0,0" transform="translate(-430 -339.292)" style="fill: #fff"/>
      <path d="M444.237,365.044c-.035.113-.2.165-.361.116s-.271-.182-.238-.3.2-.168.362-.116.271.181.237.3Zm0,0" transform="translate(-430 -339.292)" style="fill: #fff"/>
      <path d="M445.421,365.131c0,.119-.135.218-.307.22s-.313-.093-.315-.21.136-.218.309-.221.313.093.313.211Zm0,0" transform="translate(-430 -339.292)" style="fill: #fff"/>
      <path d="M446.522,364.944c.021.116-.1.236-.27.268s-.323-.041-.345-.156.1-.239.268-.27.324.04.346.159Zm0,0" transform="translate(-430 -339.292)" style="fill: #fff"/>
    </g>
  </g>
</svg>
