<svg xmlns="http://www.w3.org/2000/svg" viewBox="0 0 40 40">
  <title>social-icon-twitter</title>
  <g>
    <rect width="40" height="40" style="fill: #fff"/>
    <path d="M339.552,354.594c.008.212.012.428.012.645a14.121,14.121,0,0,1-21.738,11.892,9.982,9.982,0,0,0,7.352-2.054,4.972,4.972,0,0,1-4.637-3.449,4.772,4.772,0,0,0,.933.089,4.907,4.907,0,0,0,1.307-.174,4.966,4.966,0,0,1-3.984-4.866.321.321,0,0,1,0-.064,4.9,4.9,0,0,0,2.249.619,4.967,4.967,0,0,1-1.54-6.626,14.1,14.1,0,0,0,10.232,5.188,4.969,4.969,0,0,1,8.46-4.531,9.812,9.812,0,0,0,3.157-1.2,4.987,4.987,0,0,1-2.185,2.749,9.84,9.84,0,0,0,2.851-.78,10.1,10.1,0,0,1-2.473,2.566Z" transform="translate(-310 -339.292)"/>
  </g>
</svg>
