<svg xmlns="http://www.w3.org/2000/svg" viewBox="0 0 40 40">
  <title>social-icon-google-plus</title>
  <g>
    <rect width="40" height="40" style="fill: #fff"/>
    <g>
      <path d="M375.416,359.475a9.13,9.13,0,0,0,6.161,8.638,9.01,9.01,0,0,0,9.851-2.625,10.331,10.331,0,0,0,1.85-7.307c-2.914-.027-5.829-.017-8.738-.014-.006,1.038,0,2.072,0,3.11,1.744.048,3.49.027,5.235.062a5.05,5.05,0,0,1-2.967,3.461,5.772,5.772,0,1,1-3.887-10.86c1.871-.658,3.8.083,5.4,1.055.81-.758,1.57-1.57,2.316-2.39a9.186,9.186,0,0,0-15.227,6.871Zm0,0" transform="translate(-370 -339.292)"/>
      <path d="M398.95,355.548c-.007.87-.017,1.742-.021,2.61-.873.008-1.742.013-2.61.017v2.6c.868,0,1.742.007,2.61.017.008.868.008,1.736.017,2.61.864,0,1.732-.006,2.6,0,0-.874.008-1.742.017-2.614l2.608-.013v-2.6c-.868,0-1.74-.008-2.608-.017-.006-.868-.013-1.74-.017-2.608q-1.3,0-2.6,0Zm0,0" transform="translate(-370 -339.292)" style="fill: #fff"/>
      <path d="M398.95,355.548h2.6c0,.87.011,1.742.017,2.61.868.008,1.74.013,2.608.017v2.6c-.868,0-1.74.007-2.608.013-.009.872-.013,1.74-.017,2.612-.868,0-1.738,0-2.6,0-.009-.872-.009-1.74-.017-2.608-.868-.01-1.742-.013-2.61-.017v-2.6c.868-.006,1.736-.009,2.61-.017,0-.868.012-1.74.021-2.61Zm0,0" transform="translate(-370 -339.292)"/>
    </g>
  </g>
</svg>
