<svg xmlns="http://www.w3.org/2000/svg" viewBox="0 0 122.928 135.23"><defs><style>.a{isolation:isolate;}.b{fill:#a9c9d9;}.c{fill:#dfecf2;}.d,.i,.q{fill:#fff;}.e{fill:#663726;}.f,.g{fill:#2b0a0b;}.g{opacity:0.7;}.h{fill:#cdab7e;}.i{opacity:0.3;}.j,.k{fill:#ecddb7;}.j{mix-blend-mode:multiply;}.l{fill:#f2ecce;}.m{fill:#f7f6eb;}.n{fill:#d9b788;}.o{fill:#e6d3ac;}.p{fill:#81a7ba;}.q{opacity:0.5;}.r{fill:#e60008;}</style></defs><title>sodas</title><g class="a"><path class="b" d="M7.435,100.282c4.644,8.548,16.574,2.245,21.24.371s-11.1-44.368-11.1-44.368C12.433,56.757-.93,57.825.051,66S2.794,91.738,7.435,100.282Zm.391-30.746a6.132,6.132,0,0,1,4.141-4.4c2.154-.7,5.429,1.379,7.667.972C24.649,79.7,26.009,85.24,26.3,91.114c-1.619.647-2.616,3.976-4.474,4.58-8.269,2.7-8.769-.289-9.241-1.053C8.358,87.8,8.295,77.854,7.826,69.537Z"/><path class="c" d="M21.68,100.551c1.939-.63,3.775-1.42,5.251-2.055.472-.2.908-.39,1.3-.553.289-.967.04-3.2-.613-6.305l-.056.021a6.9,6.9,0,0,0-1.213,1.495c-.846,1.227-1.807,2.617-3.373,3.128-5.49,1.788-10,2.463-11.136-.964a.532.532,0,0,0-.027-.072c-3.7-7.9-5.823-14.461-5.229-26.759a3.918,3.918,0,0,1,.025-.433,7.976,7.976,0,0,1,5.374-5.813c1.667-.543,3.492-.032,5.1.42a16.525,16.525,0,0,0,2.01.477c-.711-2.032-1.437-4.058-2.169-6.054a42.925,42.925,0,0,0-8.81,1.607c-5.5,1.79-5.867,4.249-5.664,5.943L2.687,66.6C3.669,75.009,5.5,90.653,9.631,98.257c1.233,2.267,3.821,4.975,12.049,2.293Z"/><ellipse class="d" cx="7.595" cy="60.662" rx="2.74" ry="1.42" transform="translate(-18.999 5.613) rotate(-18.649)"/><path class="d" d="M6.329,73.647c-.216-3.568-.794-6.429-1.295-6.395s-.733,2.945-.518,6.5.795,6.425,1.3,6.392S6.545,77.206,6.329,73.647Z"/><path class="b" d="M65.644,43.588,70.4,111.76c.488,3.973-8.288,8.318-19.6,9.708s-20.883-.7-21.371-4.676l-11.877-67.3Z"/><ellipse class="c" cx="49.707" cy="112.562" rx="16.446" ry="5.935" transform="translate(-13.35 6.898) rotate(-7.002)"/><path class="b" d="M67.06,36.3l4.425,68.214c.488,3.97-9.16,8.423-21.545,9.944s-22.823-.465-23.311-4.435L14.415,42.765Z"/><path class="e" d="M65.6,36.479l4.432,66.474c.476,3.872-8.625,8.173-20.324,9.61s-21.57-.534-22.045-4.406L15.875,42.586Z"/><path class="f" d="M54.166,37.883l5.468,60.94c.437,3.56-4.33,7.074-10.65,7.85s-11.8-1.479-12.235-5.039l-9.44-60.452Z"/><path class="g" d="M30.349,111.036c-.014-.069-.036-.14-.045-.211L18.551,42.257l10.984-1.349,10.423,72.065A25.748,25.748,0,0,1,30.349,111.036Z"/><path class="h" d="M66.713,53.183c-3.9,2.56-12.866,5.111-23.51,6.418s-19.965,1-24.366-.538L15.875,42.586,65.6,36.479Z"/><circle class="e" cx="40.119" cy="101.508" r="2.025" transform="translate(-12.074 5.647) rotate(-7.002)"/><circle class="e" cx="41.982" cy="71.206" r="1.171" transform="translate(-8.367 5.649) rotate(-7.002)"/><circle class="e" cx="57.283" cy="99.946" r="1.172" transform="translate(-11.756 7.728) rotate(-7.002)"/><circle class="e" cx="52.503" cy="95.811" r="1.172" transform="translate(-11.287 7.114) rotate(-7.002)"/><circle class="e" cx="33.353" cy="63.034" r="1.172" transform="translate(-7.435 4.536) rotate(-7.002)"/><circle class="e" cx="44.756" cy="84.181" r="1.415" transform="translate(-9.928 6.083) rotate(-7.002)"/><circle class="e" cx="37.483" cy="80.57" r="1.415" transform="translate(-9.542 5.17) rotate(-7.002)"/><circle class="e" cx="54.402" cy="59.333" r="1.106" transform="translate(-6.827 7.074) rotate(-7.002)"/><circle class="e" cx="52.665" cy="74.699" r="1.505" transform="translate(-8.713 6.977) rotate(-7.002)"/><path class="i" d="M55.536,104.733,46.311,38.848l15.545-1.909,4.983,66.406C67.315,107.217,56.24,110.973,55.536,104.733Z"/><path class="j" d="M21.549,59.746l-3-17.49,10.984-1.349L32.355,60.4A56.042,56.042,0,0,1,21.549,59.746Z"/><ellipse class="b" cx="40.738" cy="39.532" rx="26.52" ry="5.984" transform="translate(-4.515 5.261) rotate(-7.002)"/><path class="j" d="M15.875,42.586,65.6,36.479l.278,4.159c-1.967,1.273-6.637.713-9.342-.044-2.458,7.346-22.354,10.85-21.857,4.615-6.148,2.977-17.125,4.285-18.437-.6Z"/><ellipse class="d" cx="61.818" cy="51.343" rx="1.898" ry="6.909" transform="translate(-3.689 4.799) rotate(-4.317)"/><ellipse class="d" cx="62.986" cy="66.825" rx="1.594" ry="4.187" transform="matrix(0.997, -0.076, 0.076, 0.997, -4.888, 4.971)"/><ellipse class="d" cx="65.034" cy="93.946" rx="0.993" ry="5.68" transform="translate(-6.896 5.169) rotate(-4.323)"/><path class="k" d="M60.933,25.793c4.627.141,1.519,2.818,2.154,4.391s4.682,1.058,4.456,3.267c-.377,3.728-4.048,6.509-11.134,6.254-1.765,5.248-8.048,5.549-12.044,5.855s-6.951-.279-8.887-1.9c-3.235,1.717-8.75,3.567-16.3.862S11.8,32.084,16.229,29.587c-1.834-1.917-1.855-3.18-.718-5.5s4.915-4.273,5.734-7.941S23.4,3.936,25.136,1.79s4.32-2.2,5.626-1.027,1.71,2.08,1.2,4.845c1.833,1.918,7.6,6.358,9.261,4.784,2.949-2.789,3.832-.418,5.223.314s2.6.08,4.239.493a2.853,2.853,0,0,1,1.346,4.82c1.181,1.333,4.783.246,6.7,2.838C59.984,20.54,57.017,25.673,60.933,25.793Z"/><path class="l" d="M32.658,33.714c-2.446-1.812-7.331-8.54,4.851-12.047C26.294,20.715,24.812,7.032,27.229.254a3.511,3.511,0,0,1,3.532.509c1.3,1.169,1.71,2.08,1.2,4.845,1.833,1.918,7.6,6.358,9.261,4.784,2.949-2.789,3.832-.418,5.223.314s2.6.08,4.239.493a2.853,2.853,0,0,1,1.346,4.82c1.181,1.333,4.783.246,6.7,2.838,1.247,1.682-1.72,6.816,2.2,6.935,4.627.141,1.519,2.818,2.154,4.391s4.682,1.058,4.456,3.267c-.377,3.728-4.048,6.509-11.134,6.254-1.765,5.248-8.046,5.609-12.044,5.855C37.361,45.994,26.866,38.341,32.658,33.714Z"/><path class="m" d="M53.7,31.759c2.613.248,7.562.971,10.437-.691,1.4.6,3.578.745,3.41,2.383a5.832,5.832,0,0,1-.26,1.224c-2.136,5.855-14.19.955-23.267,1.081C48.937,35.234,50.724,31.477,53.7,31.759Z"/><path class="m" d="M58.737,18.858a2.143,2.143,0,0,1,.328,1.242c-1.963,1.141-6.235,1.877-15.438.643-3.623-.487-5.4-2.213-10.579-2.386,3.268-.69,9.963-.129,12.847-.093s6.481.787,10.544-.983A4.406,4.406,0,0,1,58.737,18.858Z"/><path class="m" d="M49.109,30.437a15.672,15.672,0,0,1-7.224,3.476c-4.138.661-11.943-4.763-14.243-5.469A22.633,22.633,0,0,1,19.3,24.056c1.936.867,6.359.9,9.253,1.033S42.509,30.608,49.109,30.437Z"/><path class="m" d="M30.224,3.769A8.657,8.657,0,0,1,30.989.975c1.121,1.076,1.45,2.037.976,4.634.191.2.423.424.688.668.559,1.787,1.918,3.8,4.741,5.847C34.874,11.739,29.471,9.534,30.224,3.769Z"/><path class="m" d="M54.846,28.356c-2.339,1.085-9.513-.14-17.8-3.318S27.657,20.559,25.235,21c3.079-1.312,12.306.569,16.4,1.791S50.9,28.234,54.846,28.356Z"/><path class="m" d="M30.761.763l.061.056c-1.75,1.689-1.909,3.924-1.76,6.068.225,3.278,2.068,8.536,3.794,10-1.967-.8-4.26-3.708-4.621-6.755-.155,3.968,2.112,6.649,2.877,8.106C25.059,15.219,25.7,5.908,26.663,3.2A5.329,5.329,0,0,1,29.479.107,3.007,3.007,0,0,1,30.761.763Z"/><path class="m" d="M37.107,14.9c1.881-.5,2.963-1.867,3.8-4.3a1.132,1.132,0,0,0,.315-.2c2.949-2.789,3.832-.418,5.223.314a3.093,3.093,0,0,0,1.012.326C43.787,16.106,39.306,14.84,37.107,14.9Z"/><path class="m" d="M48.224,23.795c1.915-.444,5.939.619,7.661.872a23.365,23.365,0,0,0,3.486.571,2.192,2.192,0,0,0,1.561.555c2.584.078,2.756.949,2.512,1.975-1.27.768-3.794.928-8.779-.8C52.479,26.214,51.327,24.357,48.224,23.795Z"/><path class="m" d="M49.432,11.051a5.185,5.185,0,0,1,1.256.148,3.053,3.053,0,0,1,2.232,2.877,31.671,31.671,0,0,1-8.373,2.255C47.245,15.472,47.543,14.45,49.432,11.051Z"/><path class="m" d="M56.408,39.7c-3.816.753-18.014.86-22.34-2.7C36.479,40.57,53.683,48.518,56.408,39.7Z"/><path class="n" d="M29.183,33.142c-3.426-.018-6.5-.372-12.954-3.555-1.411-1.474-1.745-2.563-1.307-4.042C16.787,27.8,21.274,31.217,29.183,33.142Z"/><path class="n" d="M24.472,23.8c-2-.42-4.522-1.108-4.931-2.489C19.565,23.139,19.333,24.68,24.472,23.8Z"/><path class="o" d="M30.563,8.468c1.1,1.981,4.53,5.981,8.825,3.291-.364,2.1-3.886,3.873-6.284,3.7C36.918,13.43,31.808,13.593,30.563,8.468Z"/><path class="n" d="M34.658,42.968c-3.351-.373-10,1.052-15.173-3.843C21.107,42.205,23.357,45.8,34.658,42.968Z"/><path class="n" d="M30.255,38.941c-3.657-.083-11.149-1.9-14.728-6.036C18.4,37.821,22.091,40.336,30.255,38.941Z"/><path class="n" d="M24.656,7.694c-.81,3.721-1.414,10.525,4.33,11.9-3.962-.21-5.935.121-7.235-1.266C25.227,17.857,22.6,13.3,24.656,7.694Z"/><path class="b" d="M116.272,51.47c1.888-10.683,1.767-15.348,1.767-15.348l-26.8-4.737L64.43,26.65s-1.713,4.34-3.6,15.024c-4.243,24.011,3.035,54.55-5.3,81.713-.764,4.325,7.056,9.322,17.47,11.163s19.474-.175,20.238-4.5C94.727,101.677,112.029,75.481,116.272,51.47Z"/><path class="c" d="M113.3,50.56c1.842-10.422,1.8-14.957,1.8-14.957L91.234,31.386,67.368,27.169s-1.592,4.247-3.434,14.668c-4.138,23.416,1.917,53.016-5.916,79.557-.746,4.22,6.165,8.967,15.437,10.606s17.392-.453,18.138-4.673C93.33,99.708,109.162,73.976,113.3,50.56Z"/><ellipse class="p" cx="75.037" cy="123.045" rx="4.742" ry="14.174" transform="translate(-59.188 175.526) rotate(-79.979)"/><path class="e" d="M86.961,55.569c-12.715-2.247-23.014-6.048-25.312-9.112-2.093,20.364,2.6,42.371-1.252,65.663-.655,3.965,4.427,11.014,14.316,12.761s17.07-3.134,17.822-7.082c4.415-23.193,16.325-42.265,21.329-62.118C110.659,57.776,99.68,57.817,86.961,55.569Z"/><path class="f" d="M86.961,55.569A97.2,97.2,0,0,1,68.872,50.74c-1.564,17.32.649,35.762-2.655,55.467-.6,3.546,2.83,9.653,9.869,10.9s12.343-3.321,13.007-6.855c3.681-19.639,12.056-36.209,16.516-53.018A97.206,97.206,0,0,1,86.961,55.569Z"/><circle class="e" cx="85.922" cy="102.373" r="2.797" transform="translate(-29.841 169.17) rotate(-79.979)"/><circle class="e" cx="85.708" cy="77.695" r="1.619" transform="translate(-5.716 148.575) rotate(-79.979)"/><circle class="e" cx="72.057" cy="100.37" r="1.617" transform="translate(-39.321 153.862) rotate(-79.979)"/><circle class="e" cx="76.114" cy="97.219" r="1.618" transform="translate(-32.866 155.254) rotate(-79.979)"/><circle class="e" cx="96.005" cy="62.96" r="1.955" transform="translate(17.3 146.545) rotate(-79.979)"/><circle class="e" cx="88.96" cy="85.489" r="1.955" transform="translate(-10.705 158.215) rotate(-79.979)"/><circle class="e" cx="75.563" cy="65.597" r="1.53" transform="translate(-2.182 128.593) rotate(-79.979)"/><circle class="e" cx="76.887" cy="80.074" r="2.082" transform="translate(-15.345 141.854) rotate(-79.979)"/><ellipse class="e" cx="87.902" cy="50.24" rx="5.412" ry="26.669" transform="translate(23.133 128.059) rotate(-79.979)"/><ellipse class="i" cx="87.902" cy="50.24" rx="5.412" ry="26.669" transform="translate(23.133 128.059) rotate(-79.979)"/><path class="g" d="M101.542,57.2c-4.714,20.759-13.294,43.6-16.716,67.139l.012,0a15.149,15.149,0,0,0,4.93-2.565.065.065,0,0,0,.02-.016c.244-.2.469-.4.679-.6l.055-.048c.208-.2.4-.41.582-.619.011-.013.023-.028.032-.04a7.561,7.561,0,0,0,.5-.648c3.839-22.345,14.477-43.5,19.226-63.08A42.891,42.891,0,0,1,101.542,57.2Z"/><path class="i" d="M70.749,116.078c4.348-24.607,5.926-49.72,9.676-70.943C82.313,34.453,83.379,30,83.379,30L68.757,27.414s-1.545,4.253-3.386,14.669c-3.614,20.449,1.454,44-2.736,67.705C61.682,115.185,69.475,123.311,70.749,116.078Z"/><ellipse class="d" cx="66.252" cy="46.96" rx="8.473" ry="2.102" transform="translate(9.457 105.001) rotate(-80.951)"/><ellipse class="d" cx="63.542" cy="111.36" rx="2.991" ry="1.613" transform="translate(-59.043 148.93) rotate(-77.33)"/><ellipse class="d" cx="64.45" cy="62.177" rx="3.416" ry="1.122" transform="translate(-1.02 123.278) rotate(-86.994)"/><ellipse class="b" cx="91.234" cy="31.386" rx="5.906" ry="27.219" transform="matrix(0.174, -0.985, 0.985, 0.174, 44.451, 115.767)"/><ellipse class="c" cx="91.368" cy="30.627" rx="4.67" ry="25.071" transform="translate(45.308 115.272) rotate(-79.979)"/><path class="q" d="M95.21,35.963a85.331,85.331,0,0,0,14.346.967c.493-1.955.953-3.936,1.355-5.87A83.872,83.872,0,0,0,96.74,26.918C96.283,29.912,95.759,33.047,95.21,35.963Z"/><path class="r" d="M107.511,36.964l11.222-20.926,4.2,2.236L113.1,36.583A31.477,31.477,0,0,1,107.511,36.964Zm-3.229,16.17,7.706-14.461a48.275,48.275,0,0,1-5.5.207L99.356,52.264C98.69,53.482,103.864,53.914,104.282,53.134Z"/></g></svg>