<svg xmlns="http://www.w3.org/2000/svg" viewBox="0 0 75.37 72.154"><defs><style>.a{fill:#fffaea;fill-rule:evenodd;}</style></defs><title>star</title><path class="a" d="M41.856,2.523,52.234,19.4l19.541,4.71a4.73,4.73,0,0,1,3.468,5.668,4.644,4.644,0,0,1-1.009,1.941h0l-13.019,15.3L62.768,67.1a4.684,4.684,0,0,1-6.781,4.554l-18.3-7.532L19.078,71.783a4.695,4.695,0,0,1-6.47-4.684h0l1.553-20.084L1.143,31.718a4.664,4.664,0,0,1,.518-6.626,4.531,4.531,0,0,1,2.122-1.036L23.143,19.4,33.677,2.239A4.729,4.729,0,0,1,40.147.685a4.831,4.831,0,0,1,1.709,1.838Z" transform="translate(0 0)"/></svg>