<svg xmlns="http://www.w3.org/2000/svg" xmlns:xlink="http://www.w3.org/1999/xlink" viewBox="0 0 29.004 17.576"><defs><style>.a,.aa,.ab,.ac,.ad,.ae,.ag,.ah,.ai,.aj,.ak,.al,.am,.an,.ao,.ap,.aq,.ar,.as,.at,.au,.av,.aw,.ax,.ay,.az,.b,.ba,.bb,.bc,.bd,.be,.bf,.bg,.bh,.bi,.bj,.bk,.bl,.bm,.bn,.bo,.bp,.bq,.br,.bs,.bt,.bu,.bv,.bw,.bx,.by,.bz,.c,.ca,.cb,.cc,.cd,.ce,.cf,.cg,.ch,.ci,.cj,.ck,.cl,.cm,.cn,.co,.cp,.cq,.cr,.cs,.ct,.cu,.cv,.cw,.cx,.cy,.cz,.d,.da,.db,.dc,.dd,.de,.df,.dg,.dh,.di,.dj,.dk,.dl,.dm,.dn,.do,.dp,.dq,.dr,.ds,.dt,.du,.dv,.dw,.dx,.dy,.dz,.e,.ea,.eb,.ec,.ed,.ee,.ef,.eg,.eh,.ei,.ej,.ek,.el,.em,.en,.eo,.ep,.eq,.er,.es,.et,.eu,.ev,.ew,.ex,.ey,.ez,.f,.fa,.fb,.fc,.fd,.fe,.ff,.fg,.fh,.fi,.fj,.fk,.fl,.fm,.fn,.fo,.fp,.fq,.fr,.fs,.ft,.fu,.fv,.fw,.fx,.fy,.fz,.g,.ga,.gb,.gc,.gd,.ge,.gf,.gg,.gh,.gi,.gj,.gk,.gl,.gm,.gn,.go,.gp,.gq,.gr,.gs,.gt,.gu,.gv,.gw,.gx,.gy,.gz,.h,.hb,.hc,.hd,.he,.hf,.hg,.i,.j,.k,.l,.m,.n,.o,.p,.q,.r,.s,.t,.u,.v,.w,.x,.y,.z{fill-rule:evenodd;}.a{opacity:0.2;}.b{fill:#3f3746;}.c{fill:#413a49;}.d{fill:url(#a);}.e{fill:url(#b);}.f{fill:url(#c);}.g{fill:url(#d);}.h{fill:url(#e);}.i{fill:url(#f);}.j{fill:url(#g);}.k{fill:url(#h);}.l{fill:url(#i);}.m{fill:url(#j);}.n{fill:url(#k);}.o{fill:url(#l);}.p{fill:url(#m);}.q{fill:url(#n);}.r{fill:url(#o);}.s{fill:url(#p);}.t{fill:url(#q);}.u{fill:url(#r);}.v{fill:url(#s);}.w{fill:url(#t);}.x{fill:url(#u);}.y{fill:url(#v);}.z{fill:url(#w);}.aa{fill:#433025;}.ab{fill:#8c8d91;}.ac{fill:url(#x);}.ad{fill:url(#y);}.ae,.af{fill:#4c4442;}.ag{fill:#b3a9b0;}.ah{fill:url(#z);}.ai{fill:url(#aa);}.aj{fill:url(#ab);}.ak{fill:url(#ac);}.al{fill:url(#ad);}.am{fill:url(#ae);}.an{fill:url(#af);}.ao{fill:url(#ag);}.ap{fill:url(#ah);}.aq{fill:url(#ai);}.ar{fill:url(#aj);}.as{fill:url(#ak);}.at{fill:url(#al);}.au{fill:url(#am);}.av{fill:url(#an);}.aw{fill:url(#ao);}.ax{fill:url(#ap);}.ay{fill:url(#aq);}.az{fill:url(#ar);}.ba{fill:url(#as);}.bb{fill:url(#at);}.bc{fill:url(#au);}.bd{fill:url(#av);}.be{fill:url(#aw);}.bf{fill:#4b3c3a;}.bg{fill:url(#ax);}.bh{fill:url(#ay);}.bi{fill:#fffff9;}.bj{fill:url(#az);}.bk{fill:url(#ba);}.bl{fill:url(#bb);}.bm{fill:url(#bc);}.bn{fill:#fff;}.bo{fill:#8e8186;}.bp{fill:#8c7b79;}.bq{fill:#72656e;}.br{fill:#dee2e8;}.bs{fill:#a9a6a8;}.bt{fill:#de5850;}.bu{fill:url(#bd);}.bv{fill:url(#be);}.bw{fill:#675e63;}.bx{fill:url(#bf);}.by{fill:#a8a8ac;}.bz{fill:url(#bg);}.ca{fill:url(#bh);}.cb{fill:url(#bi);}.cc{fill:url(#bj);}.cd{fill:url(#bk);}.ce{fill:#d9dfe4;}.cf{fill:url(#bl);}.cg{fill:url(#bm);}.ch,.ha{fill:#484047;}.ci{fill:url(#bn);}.cj{fill:url(#bo);}.ck{fill:url(#bp);}.cl{fill:url(#bq);}.cm{fill:url(#br);}.cn{fill:url(#bs);}.co{fill:url(#bt);}.cp{fill:url(#bu);}.cq{fill:url(#bv);}.cr{fill:url(#bw);}.cs{fill:url(#bx);}.ct{fill:url(#by);}.cu{fill:url(#bz);}.cv{fill:url(#ca);}.cw{fill:url(#cb);}.cx{fill:url(#cc);}.cy{fill:url(#cd);}.cz{fill:url(#ce);}.da{fill:url(#cf);}.db{fill:url(#cg);}.dc{fill:url(#ch);}.dd{fill:url(#ci);}.de{fill:url(#cj);}.df{fill:url(#ck);}.dg{fill:url(#cl);}.dh{fill:url(#cm);}.di{fill:url(#cn);}.dj{fill:url(#co);}.dk{fill:url(#cp);}.dl{fill:url(#cq);}.dm{fill:url(#cr);}.dn{fill:url(#cs);}.do{fill:url(#ct);}.dp{fill:url(#cu);}.dq{fill:url(#cv);}.dr{fill:url(#cw);}.ds{fill:url(#cx);}.dt{fill:url(#cy);}.du{fill:url(#cz);}.dv{fill:url(#da);}.dw{fill:url(#db);}.dx{fill:url(#dc);}.dy{fill:url(#dd);}.dz{fill:url(#de);}.ea{fill:url(#df);}.eb{fill:url(#dg);}.ec{fill:url(#dh);}.ed{fill:url(#di);}.ee{fill:url(#dj);}.ef{fill:url(#dk);}.eg{fill:url(#dl);}.eh{fill:url(#dm);}.ei{fill:url(#dn);}.ej{fill:url(#do);}.ek{fill:url(#dp);}.el{fill:url(#dq);}.em{fill:url(#dr);}.en{fill:url(#ds);}.eo{fill:url(#dt);}.ep{fill:url(#du);}.eq{fill:url(#dv);}.er{fill:url(#dw);}.es{fill:url(#dx);}.et{fill:url(#dy);}.eu{fill:url(#dz);}.ev{fill:url(#ea);}.ew{fill:url(#eb);}.ex{fill:url(#ec);}.ey{fill:url(#ed);}.ez{fill:url(#ee);}.fa{fill:url(#ef);}.fb{fill:url(#eg);}.fc{fill:url(#eh);}.fd{fill:#195f94;}.fe{fill:#194b72;}.ff{fill:url(#ei);}.fg{fill:#1978c0;}.fh{fill:#19639b;}.fi{fill:url(#ej);}.fj{fill:#e1dce0;}.fk{fill:url(#ek);}.fl{fill:url(#el);}.fm{fill:url(#em);}.fn{fill:url(#en);}.fo{fill:url(#eo);}.fp{fill:url(#ep);}.fq{fill:url(#eq);}.fr{fill:url(#er);}.fs{fill:url(#es);}.ft{fill:url(#et);}.fu{fill:url(#eu);}.fv{fill:#bb7354;}.fw{fill:url(#ev);}.fx{fill:url(#ew);}.fy{fill:url(#ex);}.fz{fill:url(#ey);}.ga{fill:url(#ez);}.gb{fill:url(#fa);}.gc{fill:url(#fb);}.gd{fill:url(#fc);}.ge{fill:url(#fd);}.gf{fill:url(#fe);}.gg{fill:url(#ff);}.gh{fill:url(#fg);}.gi{fill:#e48741;}.gj{fill:url(#fh);}.gk{fill:#ff9a39;}.gl{fill:url(#fi);}.gm{fill:url(#fj);}.gn{fill:url(#fk);}.go{fill:url(#fl);}.gp{fill:url(#fm);}.gq{fill:url(#fn);}.gr{fill:url(#fo);}.gs{fill:url(#fp);}.gt{fill:url(#fq);}.gu{fill:url(#fr);}.gv{fill:url(#fs);}.gw{fill:url(#ft);}.gx{fill:url(#fu);}.gy{fill:url(#fv);}.gz{fill:url(#fw);}.hb{fill:url(#fx);}.hc{fill:#194464;}.hd{fill:url(#fy);}.he{fill:#ac9993;}.hf{fill:#e3dbdb;}.hg{fill:#b7b0b1;}</style><linearGradient id="a" x1="19.002" y1="9.1" x2="19.002" y2="7.477" gradientUnits="userSpaceOnUse"><stop offset="0" stop-color="#413a49"/><stop offset="1" stop-color="#52494a"/></linearGradient><linearGradient id="b" x1="19.236" y1="9.143" x2="19.262" y2="7.65" gradientUnits="userSpaceOnUse"><stop offset="0" stop-color="#413a49"/><stop offset="1" stop-color="#5b5757"/></linearGradient><linearGradient id="c" x1="19.343" y1="9.086" x2="19.159" y2="7.702" gradientUnits="userSpaceOnUse"><stop offset="0" stop-color="#413a48"/><stop offset="1" stop-color="#5a5656"/></linearGradient><linearGradient id="d" x1="19.431" y1="9.009" x2="19.073" y2="7.772" gradientUnits="userSpaceOnUse"><stop offset="0" stop-color="#423a47"/><stop offset="1" stop-color="#595456"/></linearGradient><linearGradient id="e" x1="19.497" y1="8.922" x2="19.005" y2="7.855" gradientUnits="userSpaceOnUse"><stop offset="0" stop-color="#423945"/><stop offset="1" stop-color="#575355"/></linearGradient><linearGradient id="f" x1="19.542" y1="8.832" x2="18.957" y2="7.94" gradientUnits="userSpaceOnUse"><stop offset="0" stop-color="#423944"/><stop offset="1" stop-color="#565154"/></linearGradient><linearGradient id="g" x1="19.572" y1="8.748" x2="18.922" y2="8.023" gradientUnits="userSpaceOnUse"><stop offset="0" stop-color="#433943"/><stop offset="1" stop-color="#555054"/></linearGradient><linearGradient id="h" x1="19.593" y1="8.673" x2="18.896" y2="8.096" gradientUnits="userSpaceOnUse"><stop offset="0" stop-color="#433942"/><stop offset="1" stop-color="#544f53"/></linearGradient><linearGradient id="i" x1="19.615" y1="8.61" x2="18.868" y2="8.161" gradientUnits="userSpaceOnUse"><stop offset="0" stop-color="#433941"/><stop offset="1" stop-color="#524d52"/></linearGradient><linearGradient id="j" x1="19.644" y1="8.553" x2="18.834" y2="8.219" gradientUnits="userSpaceOnUse"><stop offset="0" stop-color="#44383f"/><stop offset="1" stop-color="#514c52"/></linearGradient><linearGradient id="k" x1="19.68" y1="8.497" x2="18.791" y2="8.278" gradientUnits="userSpaceOnUse"><stop offset="0" stop-color="#44383e"/><stop offset="1" stop-color="#504b51"/></linearGradient><linearGradient id="l" x1="19.719" y1="8.434" x2="18.745" y2="8.344" gradientUnits="userSpaceOnUse"><stop offset="0" stop-color="#44383d"/><stop offset="1" stop-color="#4f4950"/></linearGradient><linearGradient id="m" x1="19.754" y1="8.361" x2="18.702" y2="8.422" gradientUnits="userSpaceOnUse"><stop offset="0" stop-color="#45383c"/><stop offset="1" stop-color="#4d4850"/></linearGradient><linearGradient id="n" x1="19.778" y1="8.278" x2="18.67" y2="8.511" gradientUnits="userSpaceOnUse"><stop offset="0" stop-color="#45383b"/><stop offset="1" stop-color="#4c464f"/></linearGradient><linearGradient id="o" x1="19.784" y1="8.188" x2="18.656" y2="8.608" gradientUnits="userSpaceOnUse"><stop offset="0" stop-color="#45383a"/><stop offset="1" stop-color="#4b454e"/></linearGradient><linearGradient id="p" x1="19.768" y1="8.097" x2="18.664" y2="8.709" gradientUnits="userSpaceOnUse"><stop offset="0" stop-color="#463738"/><stop offset="1" stop-color="#4a444e"/></linearGradient><linearGradient id="q" x1="19.731" y1="8.01" x2="18.695" y2="8.807" gradientUnits="userSpaceOnUse"><stop offset="0" stop-color="#463737"/><stop offset="1" stop-color="#48424d"/></linearGradient><linearGradient id="r" x1="19.672" y1="7.934" x2="18.749" y2="8.894" gradientUnits="userSpaceOnUse"><stop offset="0" stop-color="#463736"/><stop offset="1" stop-color="#47414c"/></linearGradient><linearGradient id="s" x1="19.595" y1="7.874" x2="18.822" y2="8.966" gradientUnits="userSpaceOnUse"><stop offset="0" stop-color="#473735"/><stop offset="1" stop-color="#46404c"/></linearGradient><linearGradient id="t" x1="19.506" y1="7.835" x2="18.911" y2="9.017" gradientUnits="userSpaceOnUse"><stop offset="0" stop-color="#473734"/><stop offset="1" stop-color="#453e4b"/></linearGradient><linearGradient id="u" x1="19.41" y1="7.819" x2="19.008" y2="9.044" gradientUnits="userSpaceOnUse"><stop offset="0" stop-color="#473632"/><stop offset="1" stop-color="#433d4a"/></linearGradient><linearGradient id="v" x1="19.313" y1="7.826" x2="19.107" y2="9.046" gradientUnits="userSpaceOnUse"><stop offset="0" stop-color="#483631"/><stop offset="1" stop-color="#423b4a"/></linearGradient><linearGradient id="w" x1="19.222" y1="7.854" x2="19.202" y2="9.025" gradientUnits="userSpaceOnUse"><stop offset="0" stop-color="#483630"/><stop offset="1" stop-color="#413a49"/></linearGradient><linearGradient id="x" x1="19.168" y1="8.747" x2="19.352" y2="7.88" gradientUnits="userSpaceOnUse"><stop offset="0" stop-color="#8c8d91"/><stop offset="1" stop-color="#676a6c"/></linearGradient><linearGradient id="y" x1="19.241" y1="8.192" x2="19.164" y2="8.919" xlink:href="#x"/><linearGradient id="z" x1="25.642" y1="5.231" x2="25.642" y2="3.608" xlink:href="#a"/><linearGradient id="aa" x1="25.876" y1="5.274" x2="25.902" y2="3.781" xlink:href="#b"/><linearGradient id="ab" x1="25.983" y1="5.217" x2="25.799" y2="3.833" xlink:href="#c"/><linearGradient id="ac" x1="26.071" y1="5.141" x2="25.713" y2="3.904" xlink:href="#d"/><linearGradient id="ad" x1="26.137" y1="5.053" x2="25.645" y2="3.986" xlink:href="#e"/><linearGradient id="ae" x1="26.182" y1="4.963" x2="25.597" y2="4.072" xlink:href="#f"/><linearGradient id="af" x1="26.212" y1="4.879" x2="25.562" y2="4.154" xlink:href="#g"/><linearGradient id="ag" x1="26.233" y1="4.804" x2="25.536" y2="4.228" xlink:href="#h"/><linearGradient id="ah" x1="26.255" y1="4.741" x2="25.508" y2="4.292" xlink:href="#i"/><linearGradient id="ai" x1="26.284" y1="4.684" x2="25.474" y2="4.35" xlink:href="#j"/><linearGradient id="aj" x1="26.32" y1="4.628" x2="25.431" y2="4.409" xlink:href="#k"/><linearGradient id="ak" x1="26.359" y1="4.565" x2="25.385" y2="4.475" xlink:href="#l"/><linearGradient id="al" x1="26.394" y1="4.493" x2="25.342" y2="4.553" xlink:href="#m"/><linearGradient id="am" x1="26.418" y1="4.409" x2="25.31" y2="4.642" xlink:href="#n"/><linearGradient id="an" x1="26.424" y1="4.32" x2="25.296" y2="4.74" xlink:href="#o"/><linearGradient id="ao" x1="26.408" y1="4.228" x2="25.304" y2="4.84" xlink:href="#p"/><linearGradient id="ap" x1="26.371" y1="4.141" x2="25.335" y2="4.938" xlink:href="#q"/><linearGradient id="aq" x1="26.312" y1="4.065" x2="25.389" y2="5.025" xlink:href="#r"/><linearGradient id="ar" x1="26.235" y1="4.005" x2="25.463" y2="5.097" xlink:href="#s"/><linearGradient id="as" x1="26.146" y1="3.966" x2="25.551" y2="5.148" xlink:href="#t"/><linearGradient id="at" x1="26.05" y1="3.95" x2="25.648" y2="5.175" xlink:href="#u"/><linearGradient id="au" x1="25.953" y1="3.957" x2="25.747" y2="5.177" xlink:href="#v"/><linearGradient id="av" x1="25.862" y1="3.985" x2="25.842" y2="5.156" xlink:href="#w"/><linearGradient id="aw" x1="25.854" y1="4.061" x2="25.836" y2="5.092" xlink:href="#w"/><linearGradient id="ax" x1="25.808" y1="4.878" x2="25.992" y2="4.011" xlink:href="#x"/><linearGradient id="ay" x1="25.881" y1="4.324" x2="25.804" y2="5.05" xlink:href="#x"/><linearGradient id="az" x1="23.917" y1="1.87" x2="22.661" y2="3.264" gradientUnits="userSpaceOnUse"><stop offset="0" stop-color="#ddcccd"/><stop offset="1" stop-color="#cfbdb4"/></linearGradient><linearGradient id="ba" x1="22.262" y1="4.834" x2="23.282" y2="6.601" gradientUnits="userSpaceOnUse"><stop offset="0" stop-color="#bca49a"/><stop offset="1" stop-color="#8c7b79"/></linearGradient><linearGradient id="bb" x1="20.827" y1="3.995" x2="21.81" y2="5.698" gradientUnits="userSpaceOnUse"><stop offset="0" stop-color="#ccb7b8"/><stop offset="1" stop-color="#bca49a"/></linearGradient><linearGradient id="bc" x1="16.335" y1="7.1" x2="15.985" y2="7.682" gradientUnits="userSpaceOnUse"><stop offset="0" stop-color="#ebddda"/><stop offset="1" stop-color="#c9b4b1"/></linearGradient><linearGradient id="bd" x1="26.707" y1="3.39" x2="26.115" y2="3.242" gradientUnits="userSpaceOnUse"><stop offset="0" stop-color="#9f9d9f"/><stop offset="1" stop-color="#72656e"/></linearGradient><linearGradient id="be" x1="27.026" y1="3.869" x2="27.54" y2="3.869" gradientUnits="userSpaceOnUse"><stop offset="0" stop-color="#72656e"/><stop offset="1" stop-color="#9f9d9f"/></linearGradient><linearGradient id="bf" x1="18.895" y1="1.88" x2="18.599" y2="1.347" gradientUnits="userSpaceOnUse"><stop offset="0" stop-color="#c2a6cc"/><stop offset="1" stop-color="#96867f"/></linearGradient><linearGradient id="bg" x1="18.473" y1="1.233" x2="18.91" y2="1.99" gradientUnits="userSpaceOnUse"><stop offset="0" stop-color="#bab8bd"/><stop offset="1" stop-color="#b299ad"/></linearGradient><linearGradient id="bh" x1="21.387" y1="3.32" x2="21.092" y2="2.787" xlink:href="#bf"/><linearGradient id="bi" x1="20.966" y1="2.672" x2="21.403" y2="3.429" xlink:href="#bg"/><linearGradient id="bj" x1="22.326" y1="4.539" x2="23.403" y2="6.481" gradientUnits="userSpaceOnUse"><stop offset="0" stop-color="#7f5b32"/><stop offset="1" stop-color="#5f4925"/></linearGradient><linearGradient id="bk" x1="25.905" y1="3.688" x2="24.524" y2="3.519" xlink:href="#bd"/><linearGradient id="bl" x1="13.531" y1="8.768" x2="16.304" y2="8.817" gradientUnits="userSpaceOnUse"><stop offset="0" stop-color="#473839"/><stop offset="1" stop-color="#4b444d"/></linearGradient><linearGradient id="bm" x1="16.388" y1="8.226" x2="15.421" y2="8.763" xlink:href="#bl"/><linearGradient id="bn" x1="10.896" y1="14.143" x2="10.896" y2="12.52" xlink:href="#a"/><linearGradient id="bo" x1="11.13" y1="14.186" x2="11.156" y2="12.693" xlink:href="#b"/><linearGradient id="bp" x1="11.237" y1="14.129" x2="11.053" y2="12.745" xlink:href="#c"/><linearGradient id="bq" x1="11.325" y1="14.053" x2="10.967" y2="12.816" xlink:href="#d"/><linearGradient id="br" x1="11.391" y1="13.965" x2="10.9" y2="12.898" xlink:href="#e"/><linearGradient id="bs" x1="11.436" y1="13.876" x2="10.851" y2="12.984" xlink:href="#f"/><linearGradient id="bt" x1="11.466" y1="13.791" x2="10.817" y2="13.066" xlink:href="#g"/><linearGradient id="bu" x1="11.487" y1="13.717" x2="10.79" y2="13.14" xlink:href="#h"/><linearGradient id="bv" x1="11.509" y1="13.653" x2="10.762" y2="13.204" xlink:href="#i"/><linearGradient id="bw" x1="11.538" y1="13.597" x2="10.728" y2="13.262" xlink:href="#j"/><linearGradient id="bx" x1="11.574" y1="13.541" x2="10.685" y2="13.321" xlink:href="#k"/><linearGradient id="by" x1="11.613" y1="13.478" x2="10.639" y2="13.388" xlink:href="#l"/><linearGradient id="bz" x1="11.648" y1="13.405" x2="10.596" y2="13.465" xlink:href="#m"/><linearGradient id="ca" x1="11.672" y1="13.322" x2="10.565" y2="13.554" xlink:href="#n"/><linearGradient id="cb" x1="11.678" y1="13.232" x2="10.55" y2="13.652" xlink:href="#o"/><linearGradient id="cc" x1="11.663" y1="13.14" x2="10.558" y2="13.753" xlink:href="#p"/><linearGradient id="cd" x1="11.625" y1="13.053" x2="10.589" y2="13.85" xlink:href="#q"/><linearGradient id="ce" x1="11.566" y1="12.977" x2="10.643" y2="13.938" xlink:href="#r"/><linearGradient id="cf" x1="11.489" y1="12.918" x2="10.717" y2="14.009" xlink:href="#s"/><linearGradient id="cg" x1="11.4" y1="12.878" x2="10.805" y2="14.06" xlink:href="#t"/><linearGradient id="ch" x1="11.304" y1="12.862" x2="10.902" y2="14.087" xlink:href="#u"/><linearGradient id="ci" x1="11.207" y1="12.869" x2="11.001" y2="14.09" xlink:href="#v"/><linearGradient id="cj" x1="11.116" y1="12.898" x2="11.096" y2="14.068" xlink:href="#w"/><linearGradient id="ck" x1="11.108" y1="12.973" x2="11.09" y2="14.004" xlink:href="#w"/><linearGradient id="cl" x1="11.062" y1="13.79" x2="11.246" y2="12.923" xlink:href="#x"/><linearGradient id="cm" x1="11.135" y1="13.236" x2="11.058" y2="13.963" xlink:href="#x"/><linearGradient id="cn" x1="9.284" y1="15.075" x2="9.284" y2="13.451" xlink:href="#a"/><linearGradient id="co" x1="9.517" y1="15.118" x2="9.543" y2="13.624" xlink:href="#b"/><linearGradient id="cp" x1="9.624" y1="15.06" x2="9.44" y2="13.676" xlink:href="#c"/><linearGradient id="cq" x1="9.712" y1="14.984" x2="9.354" y2="13.747" xlink:href="#d"/><linearGradient id="cr" x1="9.778" y1="14.897" x2="9.287" y2="13.829" xlink:href="#e"/><linearGradient id="cs" x1="9.824" y1="14.807" x2="9.238" y2="13.915" xlink:href="#f"/><linearGradient id="ct" x1="9.853" y1="14.722" x2="9.204" y2="13.997" xlink:href="#g"/><linearGradient id="cu" x1="9.875" y1="14.648" x2="9.177" y2="14.071" xlink:href="#h"/><linearGradient id="cv" x1="9.897" y1="14.584" x2="9.15" y2="14.135" xlink:href="#i"/><linearGradient id="cw" x1="9.925" y1="14.528" x2="9.115" y2="14.194" xlink:href="#j"/><linearGradient id="cx" x1="9.961" y1="14.472" x2="9.072" y2="14.252" xlink:href="#k"/><linearGradient id="cy" x1="10.001" y1="14.409" x2="9.026" y2="14.319" xlink:href="#l"/><linearGradient id="cz" x1="10.036" y1="14.336" x2="8.984" y2="14.397" xlink:href="#m"/><linearGradient id="da" x1="10.059" y1="14.253" x2="8.952" y2="14.486" xlink:href="#n"/><linearGradient id="db" x1="10.065" y1="14.163" x2="8.938" y2="14.583" xlink:href="#o"/><linearGradient id="dc" x1="10.05" y1="14.072" x2="8.945" y2="14.684" xlink:href="#p"/><linearGradient id="dd" x1="10.012" y1="13.985" x2="8.977" y2="14.781" xlink:href="#q"/><linearGradient id="de" x1="9.953" y1="13.909" x2="9.03" y2="14.869" xlink:href="#r"/><linearGradient id="df" x1="9.877" y1="13.849" x2="9.104" y2="14.941" xlink:href="#s"/><linearGradient id="dg" x1="9.787" y1="13.81" x2="9.192" y2="14.992" xlink:href="#t"/><linearGradient id="dh" x1="9.691" y1="13.793" x2="9.289" y2="15.019" xlink:href="#u"/><linearGradient id="di" x1="9.594" y1="13.8" x2="9.389" y2="15.021" xlink:href="#v"/><linearGradient id="dj" x1="9.504" y1="13.829" x2="9.483" y2="14.999" xlink:href="#w"/><linearGradient id="dk" x1="9.503" y1="13.833" x2="9.483" y2="14.996" xlink:href="#w"/><linearGradient id="dl" x1="9.503" y1="13.836" x2="9.483" y2="14.993" xlink:href="#w"/><linearGradient id="dm" x1="9.502" y1="13.84" x2="9.482" y2="14.99" xlink:href="#w"/><linearGradient id="dn" x1="9.502" y1="13.843" x2="9.482" y2="14.987" xlink:href="#w"/><linearGradient id="do" x1="9.502" y1="13.847" x2="9.482" y2="14.984" xlink:href="#w"/><linearGradient id="dp" x1="9.501" y1="13.851" x2="9.482" y2="14.981" xlink:href="#w"/><linearGradient id="dq" x1="9.501" y1="13.854" x2="9.481" y2="14.978" xlink:href="#w"/><linearGradient id="dr" x1="9.5" y1="13.858" x2="9.481" y2="14.975" xlink:href="#w"/><linearGradient id="ds" x1="9.5" y1="13.861" x2="9.481" y2="14.972" xlink:href="#w"/><linearGradient id="dt" x1="9.5" y1="13.865" x2="9.48" y2="14.969" xlink:href="#w"/><linearGradient id="du" x1="9.499" y1="13.869" x2="9.48" y2="14.966" xlink:href="#w"/><linearGradient id="dv" x1="9.499" y1="13.872" x2="9.48" y2="14.963" xlink:href="#w"/><linearGradient id="dw" x1="9.499" y1="13.876" x2="9.48" y2="14.96" xlink:href="#w"/><linearGradient id="dx" x1="9.498" y1="13.879" x2="9.479" y2="14.957" xlink:href="#w"/><linearGradient id="dy" x1="9.498" y1="13.883" x2="9.479" y2="14.954" xlink:href="#w"/><linearGradient id="dz" x1="9.497" y1="13.887" x2="9.479" y2="14.951" xlink:href="#w"/><linearGradient id="ea" x1="9.497" y1="13.89" x2="9.479" y2="14.948" xlink:href="#w"/><linearGradient id="eb" x1="9.497" y1="13.894" x2="9.478" y2="14.945" xlink:href="#w"/><linearGradient id="ec" x1="9.496" y1="13.897" x2="9.478" y2="14.942" xlink:href="#w"/><linearGradient id="ed" x1="9.496" y1="13.901" x2="9.478" y2="14.939" xlink:href="#w"/><linearGradient id="ee" x1="9.495" y1="13.905" x2="9.477" y2="14.936" xlink:href="#w"/><linearGradient id="ef" x1="9.449" y1="14.721" x2="9.633" y2="13.855" xlink:href="#x"/><linearGradient id="eg" x1="9.522" y1="14.167" x2="9.446" y2="14.894" xlink:href="#x"/><linearGradient id="eh" x1="6.943" y1="3.393" x2="16.538" y2="23.065" gradientUnits="userSpaceOnUse"><stop offset="0" stop-color="#c2aba4"/><stop offset="1" stop-color="#aa958d"/></linearGradient><linearGradient id="ei" x1="3.441" y1="10.925" x2="0.754" y2="17.574" xlink:href="#bc"/><linearGradient id="ej" x1="8.9" y1="7.005" x2="8.777" y2="6.764" gradientUnits="userSpaceOnUse"><stop offset="0" stop-color="#aa958d"/><stop offset="1" stop-color="#8c7b79"/></linearGradient><linearGradient id="ek" x1="8.843" y1="6.236" x2="9.266" y2="7" gradientUnits="userSpaceOnUse"><stop offset="0" stop-color="#d2ccce"/><stop offset="1" stop-color="#9c9a9d"/></linearGradient><linearGradient id="el" x1="9.169" y1="5.977" x2="9.646" y2="5.241" gradientUnits="userSpaceOnUse"><stop offset="0" stop-color="#453a41"/><stop offset="1" stop-color="#534d52"/></linearGradient><linearGradient id="em" x1="0.807" y1="11.1" x2="0.705" y2="10.916" xlink:href="#bb"/><linearGradient id="en" x1="-0.321" y1="10" x2="1.351" y2="10.448" xlink:href="#ba"/><linearGradient id="eo" x1="13.422" y1="7.817" x2="14.226" y2="9.466" gradientUnits="userSpaceOnUse"><stop offset="0" stop-color="#c8b3ad"/><stop offset="1" stop-color="#b39f98"/></linearGradient><linearGradient id="ep" x1="11.921" y1="7.334" x2="17.654" y2="17.263" xlink:href="#eh"/><linearGradient id="eq" x1="13.457" y1="10.1" x2="11.944" y2="10.1" xlink:href="#ba"/><linearGradient id="er" x1="15.324" y1="9.662" x2="14.705" y2="8.393" gradientUnits="userSpaceOnUse"><stop offset="0" stop-color="#d4c3bc"/><stop offset="1" stop-color="#c2b0a9"/></linearGradient><linearGradient id="es" x1="16.169" y1="7.417" x2="15.243" y2="7.336" xlink:href="#ba"/><linearGradient id="et" x1="10.591" y1="12.59" x2="9.973" y2="11.324" xlink:href="#er"/><linearGradient id="eu" x1="8.061" y1="16.305" x2="10.79" y2="10.948" xlink:href="#ba"/><linearGradient id="ev" x1="6.026" y1="10.929" x2="5.862" y2="10.929" gradientUnits="userSpaceOnUse"><stop offset="0" stop-color="#ac6a58"/><stop offset="1" stop-color="#95533f"/></linearGradient><linearGradient id="ew" x1="6.152" y1="10.781" x2="6.076" y2="10.648" gradientUnits="userSpaceOnUse"><stop offset="0" stop-color="#b36e57"/><stop offset="1" stop-color="#95533f"/></linearGradient><linearGradient id="ex" x1="8.236" y1="9.653" x2="8.072" y2="9.653" xlink:href="#ev"/><linearGradient id="ey" x1="8.362" y1="9.505" x2="8.286" y2="9.373" xlink:href="#ew"/><linearGradient id="ez" x1="10.446" y1="8.377" x2="10.282" y2="8.377" xlink:href="#ev"/><linearGradient id="fa" x1="10.572" y1="8.229" x2="10.496" y2="8.097" xlink:href="#ew"/><linearGradient id="fb" x1="12.656" y1="7.102" x2="12.492" y2="7.102" xlink:href="#ev"/><linearGradient id="fc" x1="12.782" y1="6.953" x2="12.706" y2="6.821" xlink:href="#ew"/><linearGradient id="fd" x1="3.164" y1="9.947" x2="6.783" y2="17.365" xlink:href="#eh"/><linearGradient id="fe" x1="14.866" y1="5.826" x2="14.702" y2="5.826" xlink:href="#ev"/><linearGradient id="ff" x1="14.992" y1="5.678" x2="14.916" y2="5.545" xlink:href="#ew"/><linearGradient id="fg" x1="5.161" y1="10.663" x2="5.541" y2="11.442" xlink:href="#eh"/><linearGradient id="fh" x1="5.246" y1="11.032" x2="5.58" y2="11.032" gradientUnits="userSpaceOnUse"><stop offset="0" stop-color="#ff9a39"/><stop offset="1" stop-color="#95533f"/></linearGradient><linearGradient id="fi" x1="4.01" y1="9.999" x2="4.391" y2="10.778" xlink:href="#eh"/><linearGradient id="fj" x1="4.095" y1="10.368" x2="4.429" y2="10.368" xlink:href="#fh"/><linearGradient id="fk" x1="2.86" y1="9.335" x2="3.241" y2="10.114" xlink:href="#eh"/><linearGradient id="fl" x1="2.945" y1="9.704" x2="3.279" y2="9.704" xlink:href="#fh"/><linearGradient id="fm" x1="1.71" y1="8.671" x2="2.091" y2="9.45" xlink:href="#eh"/><linearGradient id="fn" x1="1.795" y1="9.04" x2="2.129" y2="9.04" xlink:href="#fh"/><linearGradient id="fo" x1="0.56" y1="8.007" x2="0.94" y2="8.786" xlink:href="#eh"/><linearGradient id="fp" x1="0.645" y1="8.376" x2="0.979" y2="8.376" xlink:href="#fh"/><linearGradient id="fq" x1="5.064" y1="14.871" x2="5.452" y2="15.667" xlink:href="#eh"/><linearGradient id="fr" x1="5.246" y1="15.439" x2="5.58" y2="15.439" xlink:href="#fh"/><linearGradient id="fs" x1="0.464" y1="12.215" x2="0.852" y2="13.011" xlink:href="#eh"/><linearGradient id="ft" x1="5.035" y1="8.468" x2="4.753" y2="11.156" xlink:href="#bc"/><linearGradient id="fu" x1="3.031" y1="14.144" x2="1.156" y2="18.784" xlink:href="#bc"/><linearGradient id="fv" x1="7.869" y1="14.139" x2="7.235" y2="12.84" xlink:href="#er"/><linearGradient id="fw" x1="4.992" y1="17.174" x2="7.719" y2="11.821" xlink:href="#ba"/><linearGradient id="fx" x1="12.763" y1="10.904" x2="12.584" y2="10.904" gradientUnits="userSpaceOnUse"><stop offset="0" stop-color="#195a8b"/><stop offset="1" stop-color="#194464"/></linearGradient><linearGradient id="fy" x1="0.645" y1="12.783" x2="0.979" y2="12.783" xlink:href="#fh"/></defs><title>stationwagon</title><path class="a" d="M22.513,11.4q-2.572,1.489-5.142,3t-5.14,3.048l-5.481-.1-.4.228-.639-.012L.531,14.572l10.233-5.8,3.3-.364h3.271Z"/><path class="a" d="M15.042,7.467l3.676,2.122h.005l.335,0h.008l.079-.046h0l.565,0,.563,0,3.207-.295c.512-.3,2.69-1.559,3.2-1.856L28.223,6.5l-1.1-.865L29,4.419l-3.3-1.908-.466-.269H24.2c-.316.181-7.78,4.41-9.159,5.225Z"/><path class="b" d="M23.827,3.249c-1.356.8-5.114,2.9-6.47,3.7.16.043.293.075.393.1-.36.194-.867.478-1.228.673L18.838,9.2l.172.034a1.115,1.115,0,0,0,.2-.073c.587-.31.373-.639.576-.893,1.073-.621,3.94-2.257,5.013-2.877.077-.045,1.063.007,1.4-.308.015-.085.366-.241.005-.45Z"/><polygon class="c" points="26.617 4.128 26.617 3.096 22.784 0.883 22.784 1.915 26.617 4.128"/><polygon class="c" points="21.346 7.172 21.346 6.139 17.512 3.926 17.512 4.959 21.346 7.172"/><polygon class="d" points="19.687 7.608 19.374 7.427 19.33 7.406 19.283 7.393 19.232 7.386 19.177 7.388 19.12 7.396 19.061 7.413 19 7.438 18.936 7.471 18.904 7.49 18.873 7.511 18.842 7.533 18.812 7.557 18.782 7.582 18.752 7.609 18.723 7.637 18.695 7.666 18.668 7.696 18.641 7.727 18.615 7.759 18.59 7.793 18.566 7.827 18.542 7.861 18.52 7.897 18.498 7.933 18.478 7.97 18.458 8.007 18.44 8.044 18.423 8.082 18.407 8.121 18.392 8.159 18.378 8.198 18.366 8.237 18.355 8.276 18.345 8.314 18.337 8.353 18.33 8.392 18.324 8.43 18.32 8.468 18.318 8.506 18.317 8.543 18.32 8.615 18.33 8.68 18.345 8.74 18.366 8.794 18.392 8.841 18.423 8.882 18.458 8.916 18.498 8.944 18.812 9.125 19.687 7.608"/><path class="e" d="M19.249,7.651a1.369,1.369,0,0,0-.619,1.073c0,.395.277.555.619.358a1.369,1.369,0,0,0,.619-1.073C19.869,7.614,19.591,7.454,19.249,7.651Z"/><path class="f" d="M19.248,7.661a1.355,1.355,0,0,0-.613,1.062c0,.391.274.549.613.354a1.355,1.355,0,0,0,.613-1.061C19.86,7.624,19.586,7.466,19.248,7.661Z"/><path class="g" d="M19.246,7.671a1.34,1.34,0,0,0-.606,1.05c0,.387.272.543.606.35a1.34,1.34,0,0,0,.606-1.05C19.852,7.634,19.581,7.477,19.246,7.671Z"/><path class="h" d="M19.244,7.68a1.326,1.326,0,0,0-.6,1.039c0,.383.269.538.6.346a1.326,1.326,0,0,0,.6-1.039C19.844,7.644,19.575,7.489,19.244,7.68Z"/><path class="i" d="M19.242,7.69a1.312,1.312,0,0,0-.594,1.028c0,.379.266.532.594.343a1.312,1.312,0,0,0,.593-1.028C19.836,7.654,19.57,7.5,19.242,7.69Z"/><path class="j" d="M19.241,7.7a1.3,1.3,0,0,0-.587,1.017c0,.374.263.526.587.339a1.3,1.3,0,0,0,.587-1.017C19.828,7.664,19.565,7.513,19.241,7.7Z"/><path class="k" d="M19.239,7.71a1.283,1.283,0,0,0-.581,1.006c0,.37.26.52.581.335a1.284,1.284,0,0,0,.581-1.006C19.819,7.675,19.559,7.524,19.239,7.71Z"/><path class="l" d="M19.237,7.719a1.269,1.269,0,0,0-.574.995c0,.366.257.515.574.332a1.269,1.269,0,0,0,.574-.995C19.811,7.685,19.554,7.536,19.237,7.719Z"/><path class="m" d="M19.235,7.729a1.255,1.255,0,0,0-.568.983c0,.362.254.509.568.328a1.255,1.255,0,0,0,.568-.983C19.8,7.695,19.549,7.548,19.235,7.729Z"/><path class="n" d="M19.234,7.739a1.241,1.241,0,0,0-.561.972c0,.358.251.5.561.324a1.241,1.241,0,0,0,.561-.972C19.795,7.7,19.544,7.56,19.234,7.739Z"/><path class="o" d="M19.232,7.748a1.226,1.226,0,0,0-.555.961c0,.354.248.5.555.32a1.227,1.227,0,0,0,.555-.961C19.787,7.715,19.538,7.571,19.232,7.748Z"/><path class="p" d="M19.23,7.758a1.212,1.212,0,0,0-.548.95c0,.35.246.492.548.317a1.212,1.212,0,0,0,.548-.95C19.778,7.725,19.533,7.583,19.23,7.758Z"/><path class="q" d="M19.228,7.768a1.2,1.2,0,0,0-.542.939c0,.346.243.486.542.313a1.2,1.2,0,0,0,.542-.939C19.77,7.735,19.528,7.6,19.228,7.768Z"/><path class="r" d="M19.227,7.778a1.184,1.184,0,0,0-.536.928c0,.342.24.48.536.309a1.184,1.184,0,0,0,.535-.928C19.762,7.745,19.522,7.607,19.227,7.778Z"/><path class="s" d="M19.225,7.787A1.169,1.169,0,0,0,18.7,8.7c0,.337.237.474.529.306a1.17,1.17,0,0,0,.529-.917C19.754,7.755,19.517,7.619,19.225,7.787Z"/><path class="t" d="M19.223,7.8A1.155,1.155,0,0,0,18.7,8.7c0,.333.234.468.523.3a1.156,1.156,0,0,0,.523-.905C19.746,7.765,19.512,7.63,19.223,7.8Z"/><path class="u" d="M19.221,7.807A1.141,1.141,0,0,0,18.7,8.7c0,.329.231.463.516.3a1.141,1.141,0,0,0,.516-.894C19.737,7.776,19.506,7.642,19.221,7.807Z"/><path class="v" d="M19.219,7.816a1.127,1.127,0,0,0-.51.883c0,.325.228.457.51.294a1.127,1.127,0,0,0,.51-.883C19.729,7.786,19.5,7.654,19.219,7.816Z"/><path class="w" d="M19.218,7.826a1.112,1.112,0,0,0-.5.872c0,.321.225.451.5.291a1.113,1.113,0,0,0,.5-.872C19.721,7.8,19.5,7.666,19.218,7.826Z"/><path class="x" d="M19.216,7.836a1.1,1.1,0,0,0-.5.861c0,.317.222.445.5.287a1.1,1.1,0,0,0,.5-.861C19.713,7.806,19.49,7.677,19.216,7.836Z"/><path class="y" d="M19.214,7.846a1.084,1.084,0,0,0-.491.85c0,.313.22.44.491.283a1.084,1.084,0,0,0,.49-.85C19.7,7.816,19.485,7.689,19.214,7.846Z"/><path class="z" d="M19.212,7.855a1.07,1.07,0,0,0-.484.838c0,.309.217.434.484.28a1.07,1.07,0,0,0,.484-.839C19.7,7.826,19.48,7.7,19.212,7.855Z"/><path class="aa" d="M19.228,8.026c.181-.1.327-.02.327.189a.723.723,0,0,1-.327.567c-.181.1-.327.02-.327-.189A.723.723,0,0,1,19.228,8.026Z"/><path class="ab" d="M19.249,7.908a.869.869,0,0,0-.393.681c0,.251.176.352.393.227a.869.869,0,0,0,.393-.681C19.643,7.884,19.466,7.783,19.249,7.908Z"/><path class="ac" d="M19.249,7.948a.793.793,0,0,0-.359.621c0,.229.161.322.359.207a.793.793,0,0,0,.359-.622C19.608,7.926,19.448,7.833,19.249,7.948Z"/><path class="c" d="M19.146,8.037a.644.644,0,0,0-.1.111.068.068,0,0,0-.014.035.024.024,0,0,0,.009.024l.023.013c.019.011.047,0,.071-.026l.013-.014a.139.139,0,0,0,.041-.092V8.051a.02.02,0,0,0-.012-.022.028.028,0,0,0-.026.008Zm-.2.269a.645.645,0,0,0-.044.146.028.028,0,0,0,.006.027.02.02,0,0,0,.025,0l.032-.018a.139.139,0,0,0,.059-.082l.006-.019c.011-.035.006-.064-.013-.075L19,8.272a.024.024,0,0,0-.026,0,.068.068,0,0,0-.023.03Zm-.044.3a.216.216,0,0,0,.044.1.018.018,0,0,0,.023,0A.061.061,0,0,0,19,8.676l.023-.039a.1.1,0,0,0,.013-.089l-.006-.012c-.009-.024-.032-.029-.059-.013l-.032.018a.065.065,0,0,0-.025.028.054.054,0,0,0-.006.034Zm.135.149c-.008,0-.013-.008-.014-.019a.06.06,0,0,1,.009-.035l.023-.039a.1.1,0,0,1,.071-.056h.013c.025,0,.041.014.041.045v.037a.065.065,0,0,1-.012.035.053.053,0,0,1-.026.023.216.216,0,0,1-.1.01Zm.234-.085a.646.646,0,0,0,.105-.111.069.069,0,0,0,.014-.035.024.024,0,0,0-.009-.024l-.023-.013c-.019-.011-.047,0-.071.026l-.013.014a.138.138,0,0,0-.041.092v.037a.02.02,0,0,0,.012.022.028.028,0,0,0,.026-.008Zm.2-.269a.644.644,0,0,0,.044-.146.027.027,0,0,0-.006-.027.021.021,0,0,0-.025,0l-.032.018a.138.138,0,0,0-.059.082l-.006.019c-.011.035-.006.064.013.075l.023.013a.024.024,0,0,0,.026,0,.068.068,0,0,0,.023-.03Zm.044-.3a.215.215,0,0,0-.044-.1.018.018,0,0,0-.023,0,.06.06,0,0,0-.026.025l-.023.039a.1.1,0,0,0-.013.089l.006.012c.009.024.032.029.059.013l.032-.018a.065.065,0,0,0,.025-.028.053.053,0,0,0,.006-.034Zm-.135-.149a.018.018,0,0,1,.014.019.06.06,0,0,1-.009.035l-.023.039a.1.1,0,0,1-.071.056h-.013c-.025,0-.041-.014-.041-.045V8.02a.064.064,0,0,1,.012-.035.052.052,0,0,1,.026-.023A.217.217,0,0,1,19.38,7.952Z"/><path class="ad" d="M19.2,8.139a.372.372,0,0,0-.168.291.118.118,0,0,0,.049.109l.05.029a.118.118,0,0,0,.119-.012.371.371,0,0,0,.168-.291.118.118,0,0,0-.049-.109l-.05-.029A.118.118,0,0,0,19.2,8.139Z"/><path class="ab" d="M19.249,8.168a.371.371,0,0,0-.168.291.1.1,0,0,0,.168.1.371.371,0,0,0,.168-.291.1.1,0,0,0-.168-.1Z"/><path class="ae" d="M19.249,8.309a.1.1,0,0,0-.046.08c0,.029.021.041.046.027a.1.1,0,0,0,.046-.08C19.3,8.306,19.275,8.294,19.249,8.309Z"/><ellipse class="af" cx="19.175" cy="8.492" rx="0.026" ry="0.015" transform="translate(2.227 20.843) rotate(-59.971)"/><ellipse class="af" cx="19.324" cy="8.405" rx="0.027" ry="0.015" transform="translate(2.404 20.967) rotate(-60.098)"/><ellipse class="af" cx="19.175" cy="8.319" rx="0.027" ry="0.015" transform="translate(2.404 20.794) rotate(-60.098)"/><ellipse class="af" cx="19.324" cy="8.232" rx="0.027" ry="0.015" transform="translate(2.536 20.856) rotate(-60.017)"/><path class="ag" d="M19.249,8.168a.371.371,0,0,0-.168.291v.014a.354.354,0,0,1,.049-.151.344.344,0,0,1,.119-.125.118.118,0,0,1,.119-.012.111.111,0,0,1,.049.095V8.265a.1.1,0,0,0-.168-.1Z"/><path class="ag" d="M19.249,7.908a.869.869,0,0,0-.393.681V8.6a.871.871,0,0,1,.393-.674c.215-.124.39-.026.393.22V8.135C19.643,7.884,19.466,7.783,19.249,7.908Z"/><path class="ag" d="M18.972,8.786a.237.237,0,0,0,.277-.009l.005,0a.525.525,0,0,1-.093,0A1.129,1.129,0,0,0,18.972,8.786Z"/><polygon class="ah" points="26.327 3.739 26.014 3.558 25.97 3.538 25.923 3.524 25.872 3.518 25.817 3.519 25.76 3.527 25.701 3.544 25.64 3.569 25.576 3.602 25.544 3.621 25.513 3.642 25.482 3.664 25.451 3.688 25.421 3.714 25.392 3.74 25.363 3.768 25.335 3.797 25.308 3.827 25.281 3.858 25.255 3.891 25.23 3.924 25.206 3.958 25.182 3.992 25.16 4.028 25.138 4.064 25.118 4.101 25.098 4.138 25.08 4.175 25.063 4.213 25.047 4.252 25.032 4.29 25.018 4.329 25.006 4.368 24.995 4.407 24.985 4.446 24.976 4.484 24.97 4.523 24.964 4.561 24.96 4.599 24.958 4.637 24.957 4.674 24.96 4.746 24.97 4.811 24.985 4.871 25.006 4.925 25.032 4.972 25.063 5.013 25.098 5.048 25.138 5.075 25.451 5.256 26.327 3.739"/><path class="ai" d="M25.889,3.782a1.369,1.369,0,0,0-.619,1.073c0,.395.277.555.619.358a1.369,1.369,0,0,0,.619-1.073C26.509,3.745,26.231,3.585,25.889,3.782Z"/><path class="aj" d="M25.888,3.792a1.355,1.355,0,0,0-.613,1.062c0,.391.274.549.613.354A1.355,1.355,0,0,0,26.5,4.146C26.5,3.755,26.226,3.6,25.888,3.792Z"/><path class="ak" d="M25.886,3.8a1.341,1.341,0,0,0-.606,1.05c0,.387.272.543.606.35a1.34,1.34,0,0,0,.606-1.05C26.492,3.765,26.221,3.608,25.886,3.8Z"/><path class="al" d="M25.884,3.812a1.326,1.326,0,0,0-.6,1.039c0,.383.269.538.6.346a1.326,1.326,0,0,0,.6-1.039C26.484,3.775,26.215,3.62,25.884,3.812Z"/><path class="am" d="M25.882,3.821a1.312,1.312,0,0,0-.594,1.028c0,.379.266.532.594.343a1.312,1.312,0,0,0,.594-1.028C26.476,3.785,26.21,3.632,25.882,3.821Z"/><path class="an" d="M25.881,3.831a1.3,1.3,0,0,0-.587,1.017c0,.374.263.526.587.339a1.3,1.3,0,0,0,.587-1.017C26.468,3.8,26.2,3.644,25.881,3.831Z"/><path class="ao" d="M25.879,3.841A1.284,1.284,0,0,0,25.3,4.847c0,.37.26.52.581.335a1.283,1.283,0,0,0,.581-1.006C26.459,3.806,26.2,3.656,25.879,3.841Z"/><path class="ap" d="M25.877,3.85a1.269,1.269,0,0,0-.574.995c0,.366.257.515.574.331a1.269,1.269,0,0,0,.574-.995C26.451,3.816,26.194,3.667,25.877,3.85Z"/><path class="aq" d="M25.875,3.86a1.255,1.255,0,0,0-.568.984c0,.362.254.509.568.328a1.255,1.255,0,0,0,.568-.983C26.443,3.826,26.189,3.679,25.875,3.86Z"/><path class="ar" d="M25.873,3.87a1.241,1.241,0,0,0-.561.972c0,.358.251.5.561.324a1.241,1.241,0,0,0,.561-.972C26.435,3.836,26.184,3.691,25.873,3.87Z"/><path class="as" d="M25.872,3.88a1.227,1.227,0,0,0-.555.961c0,.354.248.5.555.32a1.227,1.227,0,0,0,.555-.961C26.427,3.846,26.178,3.7,25.872,3.88Z"/><path class="at" d="M25.87,3.889a1.213,1.213,0,0,0-.548.95c0,.35.246.492.548.317a1.212,1.212,0,0,0,.549-.95C26.418,3.856,26.173,3.714,25.87,3.889Z"/><path class="au" d="M25.868,3.9a1.2,1.2,0,0,0-.542.939c0,.346.243.486.542.313a1.2,1.2,0,0,0,.542-.939C26.41,3.866,26.168,3.726,25.868,3.9Z"/><path class="av" d="M25.866,3.909a1.184,1.184,0,0,0-.536.928c0,.342.24.48.536.309a1.184,1.184,0,0,0,.536-.928C26.4,3.876,26.162,3.738,25.866,3.909Z"/><path class="aw" d="M25.865,3.918a1.17,1.17,0,0,0-.529.917c0,.337.237.474.529.305a1.17,1.17,0,0,0,.529-.917C26.394,3.886,26.157,3.75,25.865,3.918Z"/><path class="ax" d="M25.863,3.928a1.156,1.156,0,0,0-.523.905c0,.333.234.468.523.3a1.155,1.155,0,0,0,.523-.905C26.386,3.9,26.152,3.761,25.863,3.928Z"/><path class="ay" d="M25.861,3.938a1.141,1.141,0,0,0-.516.894c0,.329.231.463.516.3a1.141,1.141,0,0,0,.516-.894C26.377,3.907,26.146,3.773,25.861,3.938Z"/><path class="az" d="M25.859,3.948a1.127,1.127,0,0,0-.51.883c0,.325.228.457.51.294a1.127,1.127,0,0,0,.51-.883C26.369,3.917,26.141,3.785,25.859,3.948Z"/><path class="ba" d="M25.858,3.957a1.113,1.113,0,0,0-.5.872c0,.321.225.451.5.291a1.113,1.113,0,0,0,.5-.872C26.361,3.927,26.136,3.8,25.858,3.957Z"/><path class="bb" d="M25.856,3.967a1.1,1.1,0,0,0-.5.861c0,.317.223.445.5.287a1.1,1.1,0,0,0,.5-.861C26.353,3.937,26.13,3.809,25.856,3.967Z"/><path class="bc" d="M25.854,3.977a1.085,1.085,0,0,0-.491.85c0,.313.22.44.491.283a1.084,1.084,0,0,0,.491-.85C26.345,3.947,26.125,3.82,25.854,3.977Z"/><path class="bd" d="M25.852,3.986a1.07,1.07,0,0,0-.484.839c0,.309.217.434.484.279a1.07,1.07,0,0,0,.484-.838C26.336,3.957,26.12,3.832,25.852,3.986Z"/><path class="be" d="M25.845,4.062a.942.942,0,0,0-.426.739c0,.272.191.382.426.246a.943.943,0,0,0,.426-.739C26.272,4.036,26.081,3.926,25.845,4.062Z"/><path class="bf" d="M25.875,4.105a.787.787,0,0,0-.356.616c0,.227.159.319.356.205a.786.786,0,0,0,.356-.616C26.231,4.084,26.071,3.992,25.875,4.105Z"/><path class="aa" d="M25.868,4.157c.181-.1.327-.02.327.189a.723.723,0,0,1-.327.567c-.181.1-.327.02-.327-.189A.723.723,0,0,1,25.868,4.157Z"/><path class="ab" d="M25.889,4.039a.869.869,0,0,0-.393.681c0,.251.176.352.393.227a.869.869,0,0,0,.393-.681C26.283,4.015,26.107,3.914,25.889,4.039Z"/><path class="bg" d="M25.889,4.079a.793.793,0,0,0-.359.621c0,.229.161.322.359.207a.793.793,0,0,0,.359-.622C26.248,4.057,26.087,3.964,25.889,4.079Z"/><path class="c" d="M25.786,4.168a.648.648,0,0,0-.1.111.07.07,0,0,0-.014.035.024.024,0,0,0,.009.024l.023.013c.019.011.047,0,.071-.026l.013-.014a.138.138,0,0,0,.041-.092V4.182a.02.02,0,0,0-.012-.022.028.028,0,0,0-.026.008Zm-.2.269a.647.647,0,0,0-.044.146.028.028,0,0,0,.006.027.02.02,0,0,0,.024,0l.032-.018a.139.139,0,0,0,.059-.082l.006-.019c.011-.035.006-.064-.013-.075L25.638,4.4a.024.024,0,0,0-.026,0,.069.069,0,0,0-.023.03Zm-.044.3a.215.215,0,0,0,.044.1.018.018,0,0,0,.023,0,.059.059,0,0,0,.026-.025l.023-.039a.1.1,0,0,0,.013-.089l-.006-.012c-.009-.024-.032-.029-.059-.013l-.032.018a.064.064,0,0,0-.024.028.055.055,0,0,0-.006.034Zm.135.149c-.008,0-.013-.008-.014-.019a.06.06,0,0,1,.009-.035L25.7,4.79a.1.1,0,0,1,.071-.056h.013c.025,0,.041.014.041.045v.037a.065.065,0,0,1-.012.035.054.054,0,0,1-.026.023.216.216,0,0,1-.1.01Zm.234-.085a.648.648,0,0,0,.1-.111.068.068,0,0,0,.014-.035.024.024,0,0,0-.009-.024L26,4.614c-.019-.011-.047,0-.071.026l-.013.014a.138.138,0,0,0-.041.092v.037c0,.011,0,.019.012.022a.028.028,0,0,0,.027-.008Zm.2-.269a.64.64,0,0,0,.043-.146.028.028,0,0,0-.006-.027.02.02,0,0,0-.024,0l-.032.018a.139.139,0,0,0-.059.082l-.006.019c-.011.035-.006.064.013.075l.023.013a.024.024,0,0,0,.026,0,.068.068,0,0,0,.023-.03Zm.043-.3a.215.215,0,0,0-.043-.1.018.018,0,0,0-.023,0,.06.06,0,0,0-.026.025L26.04,4.2a.1.1,0,0,0-.013.09l.006.012c.009.024.032.029.059.013l.032-.018a.065.065,0,0,0,.024-.028.054.054,0,0,0,.006-.034Zm-.135-.149c.008,0,.013.008.014.019a.059.059,0,0,1-.009.035L26,4.176a.1.1,0,0,1-.071.056h-.013c-.025,0-.041-.014-.041-.045V4.151a.065.065,0,0,1,.012-.035.054.054,0,0,1,.026-.023A.216.216,0,0,1,26.02,4.083Z"/><path class="bh" d="M25.839,4.27a.371.371,0,0,0-.168.291.118.118,0,0,0,.049.109l.05.029a.118.118,0,0,0,.119-.012.372.372,0,0,0,.168-.291.118.118,0,0,0-.049-.109l-.05-.029A.118.118,0,0,0,25.839,4.27Z"/><path class="ab" d="M25.889,4.3a.372.372,0,0,0-.168.291.1.1,0,0,0,.168.1.372.372,0,0,0,.168-.291.1.1,0,0,0-.168-.1Z"/><path class="ae" d="M25.889,4.44a.1.1,0,0,0-.046.08c0,.03.021.041.046.027a.1.1,0,0,0,.046-.08C25.935,4.437,25.915,4.425,25.889,4.44Z"/><ellipse class="af" cx="25.815" cy="4.623" rx="0.026" ry="0.015" transform="translate(8.951 24.707) rotate(-60.136)"/><ellipse class="af" cx="25.964" cy="4.536" rx="0.026" ry="0.015" transform="translate(9.102 24.794) rotate(-60.137)"/><ellipse class="af" cx="25.815" cy="4.45" rx="0.026" ry="0.015" transform="translate(8.974 24.514) rotate(-59.772)"/><ellipse class="af" cx="25.964" cy="4.364" rx="0.026" ry="0.015" transform="translate(9.179 24.647) rotate(-59.931)"/><path class="ag" d="M25.889,4.3a.372.372,0,0,0-.168.291V4.6a.356.356,0,0,1,.049-.151.344.344,0,0,1,.119-.125.118.118,0,0,1,.119-.012.112.112,0,0,1,.049.095V4.4a.1.1,0,0,0-.168-.1Z"/><path class="ag" d="M25.889,4.039a.869.869,0,0,0-.393.681v.007a.871.871,0,0,1,.393-.674c.215-.124.39-.026.393.22V4.266C26.283,4.015,26.107,3.914,25.889,4.039Z"/><path class="ag" d="M25.612,4.917a.238.238,0,0,0,.277-.009l.005,0a.537.537,0,0,1-.092,0A1.141,1.141,0,0,0,25.612,4.917Z"/><polygon class="bi" points="25.187 3.507 27.322 2.508 23.488 0.295 21.354 1.294 25.187 3.507"/><polygon class="bj" points="25.187 3.507 25.769 3.235 21.936 1.022 21.354 1.294 25.187 3.507"/><path class="bk" d="M27.419,3.666l-.8.463c0-.5-.353-.706-.788-.455a1.741,1.741,0,0,0-.788,1.364L19.96,7.972h0c0-.5-.353-.706-.788-.455a1.741,1.741,0,0,0-.788,1.364h0l-.159.092V7.527l.96-3.133,4.5-2.6c.382.5,1.124,1.209,1.507,1.709l2.135-1,.1.126Q27.418,3.15,27.419,3.666Z"/><polygon class="bl" points="18.225 7.527 18.934 4.539 23.68 1.798 25.187 3.507 18.225 7.527"/><polygon class="bi" points="20.571 3.593 23.68 1.798 20.566 0 17.456 1.795 20.571 3.593"/><polygon class="bm" points="18.225 7.527 18.225 8.974 14.392 6.761 14.392 5.314 18.225 7.527"/><polygon class="bn" points="18.225 7.527 18.934 4.539 15.819 2.74 14.392 5.314 18.225 7.527"/><polygon class="bo" points="18.114 7.269 18.742 4.621 15.883 2.971 14.619 5.251 18.114 7.269"/><path class="bp" d="M24.959,3.49c-.2-.25-.432-.49-.648-.723s-.463-.491-.672-.751l-1.555.9.677,1.845,2.2-1.27ZM20.4,6.119,20.2,4l-.771.445L19.17,6.832,20.4,6.119Zm2.135-1.232L20.61,6,20.4,3.885l1.459-.843Z"/><polygon class="bq" points="18.139 9.023 18.139 8.684 18.225 8.635 18.225 8.974 18.139 9.023"/><polygon class="br" points="18.225 8.635 18.139 8.684 14.306 6.471 14.392 6.422 18.225 8.635"/><polygon class="bs" points="18.139 9.023 18.139 8.684 14.306 6.471 14.306 6.81 18.139 9.023"/><polygon class="bt" points="18.096 8.332 18.096 7.88 17.463 7.515 17.463 7.967 18.096 8.332"/><polygon class="bt" points="15.154 6.633 15.154 6.181 14.521 5.816 14.521 6.268 15.154 6.633"/><path class="bu" d="M27.618,3.454l-.2-.115v.115l-.375.216.1.058Z"/><polygon class="bq" points="27.144 4.067 27.144 3.728 27.618 3.454 27.618 3.793 27.144 4.067"/><polygon class="bv" points="27.144 4.067 27.144 3.728 27.044 3.67 27.044 4.009 27.144 4.067"/><polygon class="bi" points="18.934 4.539 23.68 1.798 20.566 0 15.819 2.74 18.934 4.539"/><path class="bw" d="M24.852,3.426c-.2-.25-.432-.489-.649-.722-.2-.216-.411-.437-.6-.666l-1.518.877.639,1.742,2.13-1.23ZM20.1,4.058l-.676.39L19.184,6.7,20.3,6.056l-.2-2Zm1.691-.976.639,1.742L20.6,5.882l-.2-2Z"/><polygon class="bn" points="16.821 2.002 16.958 2.081 20.339 0.129 20.202 0.05 16.821 2.002"/><polygon class="bx" points="20.147 0.515 20.284 0.594 20.406 0.649 17.585 2.278 16.877 2.403 16.605 2.56 16.742 2.639 17.45 2.514 17.722 2.357 20.831 0.562 20.831 0.562 20.762 0.523 20.694 0.483 20.694 0.483 20.419 0.358 20.147 0.515"/><polygon class="bn" points="16.821 2.002 16.958 2.081 16.742 2.639 16.605 2.56 16.821 2.002"/><polygon class="by" points="20.003 0.31 20.14 0.39 20.284 0.594 20.147 0.515 20.003 0.31"/><polygon class="bz" points="16.958 2.081 17.23 1.924 20.067 0.286 20.339 0.129 20.556 0.437 20.284 0.594 20.14 0.39 17.158 2.112 17.014 2.482 16.742 2.639 16.958 2.081"/><polygon class="bn" points="19.315 3.441 19.452 3.521 22.833 1.569 22.696 1.49 19.315 3.441"/><polygon class="ca" points="22.64 1.955 22.778 2.034 22.899 2.089 20.079 3.718 19.37 3.843 19.099 3.999 19.236 4.079 19.932 3.956 23.321 1.999 23.256 1.962 23.187 1.923 23.187 1.923 22.912 1.798 22.64 1.955"/><polygon class="bn" points="19.315 3.441 19.452 3.521 19.236 4.079 19.099 3.999 19.315 3.441"/><polygon class="by" points="22.497 1.75 22.634 1.829 22.778 2.034 22.64 1.955 22.497 1.75"/><polygon class="cb" points="19.452 3.521 19.724 3.364 22.561 1.726 22.833 1.569 23.049 1.877 22.778 2.034 22.634 1.829 19.651 3.551 19.508 3.922 19.236 4.079 19.452 3.521"/><path class="cc" d="M27.179,3.527l-.329.19c-.057-.487-.431-.66-.9-.39a2.732,2.732,0,0,0-1.081,1.534l-4.676,2.7c-.057-.488-.431-.66-.9-.39a2.431,2.431,0,0,0-.827.918v-.6l6.594-3.807,2.067-.968.052.067Z"/><polygon class="cd" points="25.53 3.573 24.956 3.242 24.956 3.641 25.53 3.972 25.53 3.573"/><polygon class="bq" points="25.53 3.573 25.603 3.531 25.603 3.93 25.53 3.972 25.53 3.573"/><polygon class="ce" points="25.53 3.573 25.603 3.531 25.029 3.2 24.956 3.242 25.53 3.573"/><polygon class="ce" points="25.53 3.573 25.603 3.531 25.029 3.2 24.956 3.242 25.53 3.573"/><path class="b" d="M7.947,15.279l1.426-.105,1.04-.7,1.051-.508.42-.636.869-1.314c.078-.117,1.131-.429,1.131-.57a.413.413,0,0,0-.192-.332L11.762,9.672a1.21,1.21,0,0,0-1.342,0l-7.44,4.3a.383.383,0,0,0,0,.664l2.871,1.658C6.279,16.535,7.455,15.316,7.947,15.279Z"/><polygon class="cf" points="15.351 8.561 15.35 9.717 15.788 9.717 15.788 8.487 16.499 8.076 16.19 7.898 15.479 8.308 13.348 8.309 13.348 8.561 15.351 8.561"/><polygon class="cg" points="15.37 8.729 16.499 8.076 16.63 8.152 15.37 8.879 15.37 8.729"/><polygon class="ch" points="11.863 13.175 11.583 13.085 10.25 14.106 9.977 14.013 8.646 15.032 7.123 13.008 12.136 11.209 11.863 13.175"/><polygon class="ci" points="11.582 12.651 11.268 12.471 11.224 12.45 11.177 12.436 11.126 12.43 11.072 12.431 11.015 12.44 10.955 12.456 10.894 12.481 10.83 12.514 10.799 12.533 10.767 12.554 10.736 12.577 10.706 12.601 10.676 12.626 10.646 12.652 10.618 12.68 10.589 12.709 10.562 12.74 10.535 12.771 10.509 12.803 10.484 12.836 10.46 12.87 10.437 12.905 10.414 12.94 10.393 12.976 10.372 13.013 10.353 13.05 10.334 13.088 10.317 13.126 10.301 13.164 10.286 13.203 10.272 13.241 10.26 13.28 10.249 13.319 10.239 13.358 10.231 13.397 10.224 13.435 10.218 13.474 10.214 13.512 10.212 13.549 10.211 13.587 10.214 13.658 10.224 13.724 10.239 13.783 10.26 13.837 10.286 13.884 10.317 13.925 10.353 13.96 10.393 13.988 10.706 14.168 11.582 12.651"/><path class="cj" d="M11.144,12.695a1.369,1.369,0,0,0-.619,1.073c0,.395.277.555.619.358a1.369,1.369,0,0,0,.619-1.073C11.763,12.657,11.486,12.5,11.144,12.695Z"/><path class="ck" d="M11.142,12.7a1.355,1.355,0,0,0-.613,1.062c0,.391.274.549.613.354a1.355,1.355,0,0,0,.613-1.061C11.755,12.668,11.48,12.509,11.142,12.7Z"/><path class="cl" d="M11.14,12.714a1.34,1.34,0,0,0-.606,1.05c0,.387.272.543.606.35a1.34,1.34,0,0,0,.606-1.05C11.746,12.678,11.475,12.521,11.14,12.714Z"/><path class="cm" d="M11.138,12.724a1.326,1.326,0,0,0-.6,1.039c0,.383.269.538.6.346a1.326,1.326,0,0,0,.6-1.039C11.738,12.688,11.47,12.533,11.138,12.724Z"/><path class="cn" d="M11.137,12.734a1.312,1.312,0,0,0-.594,1.028c0,.379.266.532.594.343a1.312,1.312,0,0,0,.593-1.028C11.73,12.7,11.464,12.544,11.137,12.734Z"/><path class="co" d="M11.135,12.743a1.3,1.3,0,0,0-.587,1.017c0,.374.263.526.587.339a1.3,1.3,0,0,0,.587-1.017C11.722,12.708,11.459,12.556,11.135,12.743Z"/><path class="cp" d="M11.133,12.753a1.283,1.283,0,0,0-.581,1.006c0,.37.26.52.581.335a1.284,1.284,0,0,0,.581-1.006C11.714,12.718,11.454,12.568,11.133,12.753Z"/><path class="cq" d="M11.131,12.763a1.269,1.269,0,0,0-.574.995c0,.366.257.515.574.332a1.269,1.269,0,0,0,.574-.995C11.705,12.728,11.448,12.58,11.131,12.763Z"/><path class="cr" d="M11.13,12.772a1.255,1.255,0,0,0-.568.983c0,.362.254.509.568.328A1.255,1.255,0,0,0,11.7,13.1C11.7,12.738,11.443,12.591,11.13,12.772Z"/><path class="cs" d="M11.128,12.782a1.241,1.241,0,0,0-.561.972c0,.358.251.5.561.324a1.241,1.241,0,0,0,.561-.972C11.689,12.748,11.438,12.6,11.128,12.782Z"/><path class="ct" d="M11.126,12.792a1.226,1.226,0,0,0-.555.961c0,.354.248.5.555.32a1.227,1.227,0,0,0,.555-.961C11.681,12.758,11.432,12.615,11.126,12.792Z"/><path class="cu" d="M11.124,12.8a1.212,1.212,0,0,0-.549.95c0,.35.246.492.549.317a1.212,1.212,0,0,0,.548-.95C11.673,12.769,11.427,12.627,11.124,12.8Z"/><path class="cv" d="M11.122,12.811a1.2,1.2,0,0,0-.542.939c0,.346.243.486.542.313a1.2,1.2,0,0,0,.542-.939C11.664,12.779,11.422,12.639,11.122,12.811Z"/><path class="cw" d="M11.121,12.821a1.184,1.184,0,0,0-.536.928c0,.342.24.48.536.309a1.184,1.184,0,0,0,.536-.928C11.656,12.789,11.416,12.65,11.121,12.821Z"/><path class="cx" d="M11.119,12.831a1.169,1.169,0,0,0-.529.917c0,.337.237.474.529.306a1.17,1.17,0,0,0,.529-.917C11.648,12.8,11.411,12.662,11.119,12.831Z"/><path class="cy" d="M11.117,12.84a1.155,1.155,0,0,0-.523.905c0,.333.234.468.523.3a1.156,1.156,0,0,0,.523-.905C11.64,12.809,11.406,12.674,11.117,12.84Z"/><path class="cz" d="M11.115,12.85a1.141,1.141,0,0,0-.516.894c0,.329.231.463.516.3a1.141,1.141,0,0,0,.516-.894C11.632,12.819,11.4,12.686,11.115,12.85Z"/><path class="da" d="M11.114,12.86a1.127,1.127,0,0,0-.51.883c0,.325.228.457.51.294a1.127,1.127,0,0,0,.51-.883C11.623,12.829,11.4,12.7,11.114,12.86Z"/><path class="db" d="M11.112,12.87a1.112,1.112,0,0,0-.5.872c0,.321.225.451.5.291a1.113,1.113,0,0,0,.5-.872C11.615,12.839,11.39,12.709,11.112,12.87Z"/><path class="dc" d="M11.11,12.879a1.1,1.1,0,0,0-.5.861c0,.317.222.445.5.287a1.1,1.1,0,0,0,.5-.861C11.607,12.849,11.385,12.721,11.11,12.879Z"/><path class="dd" d="M11.108,12.889a1.084,1.084,0,0,0-.491.85c0,.313.22.44.491.283a1.084,1.084,0,0,0,.49-.85C11.6,12.859,11.379,12.733,11.108,12.889Z"/><path class="de" d="M11.107,12.9a1.07,1.07,0,0,0-.484.838c0,.309.217.434.484.28a1.07,1.07,0,0,0,.484-.839C11.591,12.87,11.374,12.744,11.107,12.9Z"/><path class="df" d="M11.1,12.974a.943.943,0,0,0-.427.739c0,.272.191.382.427.246a.943.943,0,0,0,.426-.739C11.526,12.949,11.335,12.838,11.1,12.974Z"/><path class="bf" d="M11.129,13.018a.786.786,0,0,0-.356.616c0,.227.159.319.356.205a.787.787,0,0,0,.356-.616C11.485,13,11.326,12.9,11.129,13.018Z"/><path class="aa" d="M11.122,13.069c.181-.1.327-.02.327.189a.723.723,0,0,1-.327.567c-.181.1-.327.02-.327-.189A.723.723,0,0,1,11.122,13.069Z"/><path class="ab" d="M11.144,12.951a.869.869,0,0,0-.393.681c0,.251.176.352.393.227a.869.869,0,0,0,.393-.681C11.537,12.928,11.361,12.826,11.144,12.951Z"/><path class="dg" d="M11.144,12.991a.793.793,0,0,0-.359.621c0,.229.161.322.359.207A.793.793,0,0,0,11.5,13.2C11.5,12.969,11.342,12.877,11.144,12.991Z"/><path class="c" d="M11.04,13.081a.641.641,0,0,0-.1.111.068.068,0,0,0-.014.035.024.024,0,0,0,.009.024l.023.013c.019.011.047,0,.071-.026l.013-.014a.139.139,0,0,0,.041-.092v-.037c0-.011,0-.019-.012-.022a.028.028,0,0,0-.026.008Zm-.2.269a.645.645,0,0,0-.044.146.027.027,0,0,0,.006.027.02.02,0,0,0,.025,0l.032-.018a.138.138,0,0,0,.059-.082l.006-.019c.011-.035.006-.064-.013-.075l-.023-.013a.023.023,0,0,0-.026,0,.067.067,0,0,0-.023.03Zm-.044.3a.216.216,0,0,0,.044.1.018.018,0,0,0,.023,0,.06.06,0,0,0,.026-.025l.023-.039a.1.1,0,0,0,.013-.089l-.006-.012c-.009-.024-.032-.029-.059-.013l-.032.018a.064.064,0,0,0-.025.028.053.053,0,0,0-.006.034Zm.135.149c-.008,0-.013-.008-.014-.019a.06.06,0,0,1,.009-.035l.023-.039a.1.1,0,0,1,.071-.056h.013c.025,0,.041.014.041.045v.037a.065.065,0,0,1-.012.035.053.053,0,0,1-.026.023.216.216,0,0,1-.1.01Zm.234-.085a.648.648,0,0,0,.1-.111.068.068,0,0,0,.014-.035.024.024,0,0,0-.009-.024l-.023-.013c-.019-.011-.047,0-.071.026l-.013.014a.138.138,0,0,0-.041.092V13.7a.021.021,0,0,0,.012.022.028.028,0,0,0,.026-.008Zm.2-.269a.644.644,0,0,0,.044-.146.027.027,0,0,0-.006-.027.021.021,0,0,0-.025,0l-.032.018a.138.138,0,0,0-.059.082l-.006.019c-.011.035-.006.064.013.075l.023.013a.024.024,0,0,0,.026,0,.069.069,0,0,0,.023-.03Zm.044-.3a.216.216,0,0,0-.044-.1.018.018,0,0,0-.023,0,.061.061,0,0,0-.026.025l-.023.039a.1.1,0,0,0-.013.089l.006.012c.009.024.032.029.059.013l.032-.018a.065.065,0,0,0,.025-.028.054.054,0,0,0,.006-.034ZM11.274,13a.018.018,0,0,1,.014.019.06.06,0,0,1-.009.035l-.023.039a.1.1,0,0,1-.071.056h-.013c-.025,0-.041-.014-.041-.045v-.037a.065.065,0,0,1,.012-.035.053.053,0,0,1,.026-.023A.216.216,0,0,1,11.274,13Z"/><path class="dh" d="M11.094,13.183a.372.372,0,0,0-.168.291.118.118,0,0,0,.049.109l.05.029a.118.118,0,0,0,.119-.012.371.371,0,0,0,.168-.291.118.118,0,0,0-.049-.109l-.05-.029A.118.118,0,0,0,11.094,13.183Z"/><path class="ab" d="M11.144,13.211a.371.371,0,0,0-.168.291.1.1,0,0,0,.168.1.371.371,0,0,0,.168-.291.1.1,0,0,0-.168-.1Z"/><path class="ae" d="M11.144,13.352a.1.1,0,0,0-.046.08c0,.029.021.041.046.027a.1.1,0,0,0,.046-.08C11.19,13.349,11.169,13.338,11.144,13.352Z"/><ellipse class="af" cx="11.069" cy="13.535" rx="0.026" ry="0.015" transform="translate(-6.191 16.333) rotate(-59.931)"/><ellipse class="af" cx="11.218" cy="13.449" rx="0.027" ry="0.015" transform="translate(-6.031 16.481) rotate(-60.137)"/><ellipse class="af" cx="11.069" cy="13.362" rx="0.027" ry="0.015" transform="translate(-6.031 16.308) rotate(-60.137)"/><ellipse class="af" cx="11.218" cy="13.276" rx="0.027" ry="0.015" transform="translate(-5.889 16.347) rotate(-59.977)"/><path class="ag" d="M11.144,13.211a.371.371,0,0,0-.168.291v.014a.354.354,0,0,1,.049-.151.344.344,0,0,1,.119-.125.118.118,0,0,1,.119-.012.111.111,0,0,1,.049.095v-.015a.1.1,0,0,0-.168-.1Z"/><path class="ag" d="M11.144,12.951a.869.869,0,0,0-.393.681v.007a.871.871,0,0,1,.393-.674c.215-.124.39-.026.393.22v-.007C11.537,12.928,11.361,12.826,11.144,12.951Z"/><path class="ag" d="M10.866,13.83a.238.238,0,0,0,.277-.009l.005,0a.525.525,0,0,1-.092,0A1.13,1.13,0,0,0,10.866,13.83Z"/><polygon class="di" points="9.969 13.583 9.656 13.402 9.612 13.381 9.564 13.368 9.513 13.361 9.459 13.362 9.402 13.371 9.343 13.388 9.281 13.412 9.218 13.445 9.186 13.465 9.154 13.486 9.123 13.508 9.093 13.532 9.063 13.557 9.034 13.584 9.005 13.612 8.977 13.641 8.949 13.671 8.922 13.702 8.897 13.734 8.871 13.767 8.847 13.801 8.824 13.836 8.801 13.871 8.78 13.908 8.759 13.944 8.74 13.981 8.722 14.019 8.704 14.057 8.688 14.095 8.673 14.134 8.66 14.173 8.647 14.211 8.636 14.25 8.626 14.289 8.618 14.328 8.611 14.367 8.606 14.405 8.602 14.443 8.599 14.481 8.598 14.518 8.602 14.589 8.611 14.655 8.626 14.715 8.647 14.768 8.673 14.816 8.704 14.857 8.74 14.891 8.78 14.919 9.093 15.1 9.969 13.583"/><path class="dj" d="M9.531,13.626A1.369,1.369,0,0,0,8.912,14.7c0,.395.277.555.619.358a1.369,1.369,0,0,0,.619-1.073C10.15,13.589,9.873,13.429,9.531,13.626Z"/><path class="dk" d="M9.529,13.636A1.355,1.355,0,0,0,8.916,14.7c0,.391.274.549.613.354a1.355,1.355,0,0,0,.613-1.061C10.142,13.6,9.868,13.44,9.529,13.636Z"/><path class="dl" d="M9.527,13.645a1.34,1.34,0,0,0-.606,1.05c0,.387.272.543.606.35A1.341,1.341,0,0,0,10.134,14C10.134,13.609,9.862,13.452,9.527,13.645Z"/><path class="dm" d="M9.526,13.655a1.326,1.326,0,0,0-.6,1.039c0,.383.269.538.6.346a1.326,1.326,0,0,0,.6-1.039C10.125,13.619,9.857,13.464,9.526,13.655Z"/><path class="dn" d="M9.524,13.665a1.312,1.312,0,0,0-.594,1.028c0,.379.266.532.594.343a1.312,1.312,0,0,0,.593-1.028C10.117,13.629,9.852,13.476,9.524,13.665Z"/><path class="do" d="M9.522,13.675a1.3,1.3,0,0,0-.587,1.017c0,.374.263.526.587.339a1.3,1.3,0,0,0,.587-1.017C10.109,13.639,9.846,13.487,9.522,13.675Z"/><path class="dp" d="M9.52,13.684A1.283,1.283,0,0,0,8.94,14.69c0,.37.26.52.581.335A1.284,1.284,0,0,0,10.1,14.02C10.1,13.649,9.841,13.5,9.52,13.684Z"/><path class="dq" d="M9.519,13.694a1.269,1.269,0,0,0-.574.995c0,.366.257.515.574.332a1.269,1.269,0,0,0,.574-.995C10.093,13.659,9.836,13.511,9.519,13.694Z"/><path class="dr" d="M9.517,13.7a1.255,1.255,0,0,0-.568.983c0,.362.254.509.568.328a1.255,1.255,0,0,0,.568-.983C10.084,13.669,9.83,13.523,9.517,13.7Z"/><path class="ds" d="M9.515,13.713a1.241,1.241,0,0,0-.561.972c0,.358.251.5.561.324a1.241,1.241,0,0,0,.561-.972C10.076,13.68,9.825,13.534,9.515,13.713Z"/><path class="dt" d="M9.513,13.723a1.226,1.226,0,0,0-.555.961c0,.354.248.5.555.32a1.227,1.227,0,0,0,.555-.961C10.068,13.69,9.82,13.546,9.513,13.723Z"/><path class="du" d="M9.512,13.733a1.212,1.212,0,0,0-.549.95c0,.35.246.492.549.317a1.213,1.213,0,0,0,.548-.95C10.06,13.7,9.814,13.558,9.512,13.733Z"/><path class="dv" d="M9.51,13.743a1.2,1.2,0,0,0-.542.939c0,.346.243.486.542.313a1.2,1.2,0,0,0,.542-.939C10.052,13.71,9.809,13.57,9.51,13.743Z"/><path class="dw" d="M9.508,13.752a1.184,1.184,0,0,0-.536.928c0,.342.24.48.536.309a1.184,1.184,0,0,0,.535-.928C10.043,13.72,9.8,13.582,9.508,13.752Z"/><path class="dx" d="M9.506,13.762a1.169,1.169,0,0,0-.529.917c0,.337.237.474.529.306a1.17,1.17,0,0,0,.529-.917C10.035,13.73,9.8,13.593,9.506,13.762Z"/><path class="dy" d="M9.5,13.772a1.155,1.155,0,0,0-.523.905c0,.333.234.468.523.3a1.156,1.156,0,0,0,.523-.905C10.027,13.74,9.793,13.605,9.5,13.772Z"/><path class="dz" d="M9.5,13.781a1.141,1.141,0,0,0-.516.894c0,.329.231.463.516.3a1.141,1.141,0,0,0,.516-.894C10.019,13.75,9.788,13.617,9.5,13.781Z"/><path class="ea" d="M9.5,13.791a1.127,1.127,0,0,0-.51.883c0,.325.228.457.51.294a1.127,1.127,0,0,0,.51-.883C10.011,13.76,9.782,13.629,9.5,13.791Z"/><path class="eb" d="M9.5,13.8a1.112,1.112,0,0,0-.5.872c0,.321.225.451.5.291a1.113,1.113,0,0,0,.5-.872C10,13.77,9.777,13.64,9.5,13.8Z"/><path class="ec" d="M9.5,13.811a1.1,1.1,0,0,0-.5.861c0,.317.222.445.5.287a1.1,1.1,0,0,0,.5-.861C9.994,13.781,9.772,13.652,9.5,13.811Z"/><path class="ed" d="M9.5,13.82a1.084,1.084,0,0,0-.491.85c0,.313.22.44.491.283a1.085,1.085,0,0,0,.49-.85C9.986,13.791,9.766,13.664,9.5,13.82Z"/><path class="ee" d="M9.494,13.83a1.07,1.07,0,0,0-.484.838c0,.309.217.434.484.28a1.07,1.07,0,0,0,.484-.839C9.978,13.8,9.761,13.676,9.494,13.83Z"/><path class="ef" d="M9.494,13.834a1.064,1.064,0,0,0-.481.834c0,.307.215.431.481.278a1.064,1.064,0,0,0,.481-.834C9.975,13.8,9.759,13.68,9.494,13.834Z"/><path class="eg" d="M9.493,13.837a1.058,1.058,0,0,0-.479.829c0,.305.214.429.479.276a1.058,1.058,0,0,0,.479-.829C9.972,13.808,9.757,13.685,9.493,13.837Z"/><path class="eh" d="M9.493,13.841a1.052,1.052,0,0,0-.476.824c0,.3.213.426.476.275a1.052,1.052,0,0,0,.476-.824C9.969,13.812,9.756,13.689,9.493,13.841Z"/><path class="ei" d="M9.493,13.844a1.045,1.045,0,0,0-.473.819c0,.3.212.424.473.273a1.046,1.046,0,0,0,.473-.82C9.966,13.816,9.754,13.694,9.493,13.844Z"/><path class="ej" d="M9.492,13.848a1.039,1.039,0,0,0-.47.815c0,.3.211.422.47.272a1.04,1.04,0,0,0,.47-.815C9.962,13.82,9.752,13.7,9.492,13.848Z"/><path class="ek" d="M9.492,13.852a1.033,1.033,0,0,0-.468.81c0,.3.209.419.468.27a1.034,1.034,0,0,0,.468-.81C9.959,13.823,9.75,13.7,9.492,13.852Z"/><path class="el" d="M9.492,13.855a1.027,1.027,0,0,0-.465.805c0,.3.208.417.465.268a1.028,1.028,0,0,0,.465-.805C9.956,13.827,9.748,13.707,9.492,13.855Z"/><path class="em" d="M9.491,13.859a1.021,1.021,0,0,0-.462.8c0,.295.207.414.462.267a1.022,1.022,0,0,0,.462-.8C9.953,13.831,9.746,13.711,9.491,13.859Z"/><path class="en" d="M9.491,13.862a1.015,1.015,0,0,0-.459.8c0,.293.206.412.459.265a1.016,1.016,0,0,0,.459-.8C9.95,13.835,9.745,13.716,9.491,13.862Z"/><path class="eo" d="M9.491,13.866a1.009,1.009,0,0,0-.457.791c0,.291.2.409.457.264a1.009,1.009,0,0,0,.457-.791C9.947,13.838,9.743,13.72,9.491,13.866Z"/><path class="ep" d="M9.49,13.87a1,1,0,0,0-.454.786c0,.289.2.407.454.262a1,1,0,0,0,.454-.786C9.944,13.842,9.741,13.725,9.49,13.87Z"/><path class="eq" d="M9.49,13.873a1,1,0,0,0-.451.781c0,.288.2.4.451.261a1,1,0,0,0,.451-.781C9.941,13.846,9.739,13.729,9.49,13.873Z"/><path class="er" d="M9.49,13.877a.991.991,0,0,0-.448.777c0,.286.2.4.448.259a.991.991,0,0,0,.448-.777C9.938,13.85,9.737,13.734,9.49,13.877Z"/><path class="es" d="M9.489,13.88a.985.985,0,0,0-.446.772c0,.284.2.4.446.257a.985.985,0,0,0,.446-.772C9.935,13.854,9.735,13.738,9.489,13.88Z"/><path class="et" d="M9.489,13.884a.979.979,0,0,0-.443.767c0,.283.2.4.443.256a.979.979,0,0,0,.443-.767C9.932,13.857,9.733,13.743,9.489,13.884Z"/><path class="eu" d="M9.489,13.888a.973.973,0,0,0-.44.762c0,.281.2.394.44.254a.973.973,0,0,0,.44-.762C9.929,13.861,9.732,13.747,9.489,13.888Z"/><path class="ev" d="M9.488,13.891a.967.967,0,0,0-.437.758c0,.279.2.392.437.253a.967.967,0,0,0,.437-.758C9.926,13.865,9.73,13.752,9.488,13.891Z"/><path class="ew" d="M9.488,13.895a.961.961,0,0,0-.435.753c0,.277.195.39.435.251a.961.961,0,0,0,.435-.753C9.923,13.869,9.728,13.756,9.488,13.895Z"/><path class="ex" d="M9.488,13.9a.955.955,0,0,0-.432.748c0,.276.193.387.432.249a.955.955,0,0,0,.432-.748C9.919,13.872,9.726,13.761,9.488,13.9Z"/><path class="ey" d="M9.487,13.9a.949.949,0,0,0-.429.743c0,.274.192.385.429.248a.949.949,0,0,0,.429-.743C9.916,13.876,9.724,13.765,9.487,13.9Z"/><path class="ez" d="M9.487,13.906a.943.943,0,0,0-.427.739c0,.272.191.382.427.246a.943.943,0,0,0,.426-.739C9.913,13.88,9.722,13.77,9.487,13.906Z"/><path class="bf" d="M9.516,13.949a.786.786,0,0,0-.356.616c0,.227.159.319.356.205a.787.787,0,0,0,.356-.616C9.872,13.927,9.713,13.835,9.516,13.949Z"/><path class="aa" d="M9.509,14c.181-.1.327-.02.327.189a.723.723,0,0,1-.327.567c-.181.1-.327.02-.327-.189A.723.723,0,0,1,9.509,14Z"/><path class="ab" d="M9.531,13.883a.869.869,0,0,0-.393.681c0,.251.176.352.393.227a.869.869,0,0,0,.393-.681C9.924,13.859,9.748,13.757,9.531,13.883Z"/><path class="fa" d="M9.531,13.922a.793.793,0,0,0-.359.622c0,.229.161.322.359.207a.793.793,0,0,0,.359-.621C9.89,13.9,9.729,13.808,9.531,13.922Z"/><path class="c" d="M9.427,14.012a.643.643,0,0,0-.105.111.068.068,0,0,0-.014.035.023.023,0,0,0,.009.024l.023.013c.019.011.047,0,.071-.026l.013-.014a.139.139,0,0,0,.041-.092v-.037c0-.011,0-.019-.012-.022a.027.027,0,0,0-.026.008Zm-.2.269a.647.647,0,0,0-.044.146.027.027,0,0,0,.006.027.02.02,0,0,0,.025,0l.032-.018a.138.138,0,0,0,.059-.082l.006-.019c.011-.035.006-.064-.013-.075l-.023-.013a.023.023,0,0,0-.026,0,.067.067,0,0,0-.023.03Zm-.044.3a.216.216,0,0,0,.044.1.018.018,0,0,0,.023,0,.06.06,0,0,0,.026-.025l.023-.039a.1.1,0,0,0,.013-.089l-.006-.012c-.009-.024-.032-.029-.059-.013l-.032.018a.064.064,0,0,0-.025.028.054.054,0,0,0-.006.034Zm.135.149c-.008,0-.013-.008-.014-.019a.06.06,0,0,1,.009-.035l.023-.039a.1.1,0,0,1,.071-.056h.013c.025,0,.041.014.041.045v.037a.065.065,0,0,1-.012.035.053.053,0,0,1-.026.023.216.216,0,0,1-.105.01Zm.234-.085a.648.648,0,0,0,.105-.111.068.068,0,0,0,.014-.035.024.024,0,0,0-.009-.024l-.023-.013c-.019-.011-.047,0-.071.026L9.56,14.5a.138.138,0,0,0-.041.092v.037a.02.02,0,0,0,.012.022.028.028,0,0,0,.026-.008Zm.2-.269a.645.645,0,0,0,.044-.146A.027.027,0,0,0,9.79,14.2a.02.02,0,0,0-.025,0l-.032.018a.138.138,0,0,0-.059.082l-.006.019c-.011.035-.006.064.013.075l.023.013a.023.023,0,0,0,.026,0,.068.068,0,0,0,.023-.03Zm.044-.3a.216.216,0,0,0-.044-.1.018.018,0,0,0-.023,0A.06.06,0,0,0,9.7,14l-.023.039a.1.1,0,0,0-.013.089l.006.012c.009.024.032.029.059.013l.032-.018a.065.065,0,0,0,.025-.028.053.053,0,0,0,.006-.034Zm-.135-.149a.018.018,0,0,1,.014.019.06.06,0,0,1-.009.035l-.023.039a.1.1,0,0,1-.071.056H9.56c-.025,0-.041-.014-.041-.045v-.037a.064.064,0,0,1,.012-.035.052.052,0,0,1,.026-.023A.216.216,0,0,1,9.661,13.927Z"/><path class="fb" d="M9.481,14.114a.372.372,0,0,0-.168.291.118.118,0,0,0,.049.109l.05.029a.118.118,0,0,0,.119-.012A.371.371,0,0,0,9.7,14.24a.118.118,0,0,0-.049-.109L9.6,14.1A.118.118,0,0,0,9.481,14.114Z"/><path class="ab" d="M9.531,14.143a.372.372,0,0,0-.168.291.1.1,0,0,0,.168.1A.371.371,0,0,0,9.7,14.24a.1.1,0,0,0-.168-.1Z"/><path class="ae" d="M9.531,14.283a.1.1,0,0,0-.046.08c0,.029.021.041.046.027a.1.1,0,0,0,.046-.08C9.577,14.281,9.556,14.269,9.531,14.283Z"/><ellipse class="af" cx="9.456" cy="14.466" rx="0.026" ry="0.015" transform="translate(-7.801 15.402) rotate(-59.931)"/><ellipse class="af" cx="9.606" cy="14.38" rx="0.027" ry="0.015" transform="translate(-7.649 15.538) rotate(-60.098)"/><ellipse class="af" cx="9.456" cy="14.294" rx="0.027" ry="0.015" transform="translate(-7.648 15.377) rotate(-60.137)"/><ellipse class="af" cx="9.606" cy="14.207" rx="0.027" ry="0.015" transform="translate(-7.5 15.434) rotate(-60.04)"/><path class="ag" d="M9.531,14.143a.372.372,0,0,0-.168.291v.014a.354.354,0,0,1,.049-.151.344.344,0,0,1,.119-.125.118.118,0,0,1,.119-.012.111.111,0,0,1,.049.095V14.24a.1.1,0,0,0-.168-.1Z"/><path class="ag" d="M9.531,13.883a.869.869,0,0,0-.393.681v.007a.871.871,0,0,1,.393-.674c.215-.124.39-.026.393.22V14.11C9.924,13.859,9.748,13.757,9.531,13.883Z"/><path class="ag" d="M9.253,14.761a.237.237,0,0,0,.277-.009l.005,0a.529.529,0,0,1-.093,0A1.129,1.129,0,0,0,9.253,14.761Z"/><path class="fc" d="M16.057,4.826,5.582,10.874v5.319l-.4.231v.608l.4-.231,1.331-.768L8.529,15.1l.059-.034.223-.129v-.184a1.59,1.59,0,0,1,.719-1.246c.4-.23.719-.043.719.415v.185h0l.174-.1v-.185a1.59,1.59,0,0,1,.719-1.246c.4-.23.719-.043.719.415v.184l3.554-2.052.641-2.89Z"/><polygon class="fd" points="5.702 14.696 5.702 15.088 15.694 9.319 15.793 8.869 5.702 14.696"/><path class="fe" d="M5.7,15.5v.759l-.4.231v.331l3.39-1.957v-.115a1.708,1.708,0,0,1,.779-1.35c.38-.22.725-.11.85.222a1.732,1.732,0,0,1,.763-1.153.553.553,0,0,1,.9.5l3.329-1.922.277-1.251Z"/><polygon class="bi" points="5.582 10.874 16.057 4.826 10.876 1.835 0.4 7.883 5.582 10.874"/><polygon class="ff" points="5.582 10.874 5.582 16.193 0.4 13.202 0.4 7.883 5.582 10.874"/><polygon class="fg" points="5.582 14.75 5.582 15.121 0.4 12.13 0.4 11.759 5.582 14.75"/><polygon class="fh" points="5.582 15.545 5.582 16.193 0.4 13.202 0.4 12.554 5.582 15.545"/><polygon class="bn" points="8.204 7.201 9.695 6.34 8.254 5.508 6.763 6.369 8.204 7.201"/><polygon class="fi" points="8.832 7.234 10.322 6.373 10.069 6.207 8.628 5.375 6.849 6.402 8.29 7.234 8.832 7.234"/><polygon class="fj" points="8.204 6.659 8.204 7.201 6.763 6.369 6.763 5.827 8.204 6.659"/><polygon class="bn" points="8.204 6.659 9.694 5.798 8.253 4.966 6.763 5.827 8.204 6.659"/><polygon class="fk" points="8.204 6.659 9.694 5.798 9.982 6.174 8.204 7.201 8.204 6.659"/><path class="fl" d="M9.23,6.161v.352l-.063.037V6.2l.063-.037Zm-.945.546.063-.037v.352l-.063.036V6.707Zm.11-.064.063-.037v.352L8.4,6.995V6.643Zm.11-.064.063-.037v.352l-.063.037V6.58Zm.11-.064.063-.037v.352l-.063.036V6.516Zm.11-.064.063-.037v.352L8.726,6.8V6.452Zm.11-.064L8.9,6.352V6.7l-.063.037V6.389Zm.11-.064.063-.037V6.64l-.063.037V6.325Zm.11-.064.063-.037v.352l-.063.037Z"/><polygon class="bo" points="0.687 9.513 3.099 10.905 3.099 12.42 0.687 11.028 0.687 9.513"/><polygon class="bw" points="0.847 9.605 0.847 11.028 0.767 10.982 0.767 9.559 0.847 9.605"/><polygon class="bi" points="0.687 11.028 0.767 10.982 3.099 12.328 3.099 12.42 0.687 11.028"/><polygon class="fm" points="0.687 11.028 0.767 10.982 0.847 11.028 0.687 11.028"/><polygon class="fn" points="0.687 11.028 0.767 10.982 0.767 9.559 0.687 9.513 0.687 11.028"/><polygon class="ch" points="3.099 12.328 0.767 10.982 0.767 9.559 0.827 9.593 0.827 10.947 3.099 12.259 3.099 12.328"/><polygon class="fo" points="12.729 7.918 13.932 7.224 13.852 7.177 12.649 7.872 12.729 7.918"/><polygon class="fp" points="13.932 7.223 12.729 7.918 12.729 12.328 13.932 11.634 13.932 7.223"/><polygon class="fq" points="12.729 7.918 12.729 12.328 12.649 12.282 12.649 7.872 12.729 7.918"/><polygon class="c" points="12.871 10.106 12.871 10.415 12.97 10.358 12.97 10.048 12.871 10.106"/><path class="ch" d="M13.562,7.739l-.462.267a.321.321,0,0,0-.111.117h0a.322.322,0,0,0-.046.154V9.629h0a.1.1,0,0,0,.156.09h0l.462-.267h0a.346.346,0,0,0,.156-.271V7.829a.11.11,0,0,0-.046-.1h0a.111.111,0,0,0-.11.011Zm-.462.387.462-.267h0a.036.036,0,0,1,.037,0h0a.036.036,0,0,1,.015.034V9.242a.108.108,0,0,1-.016.052.106.106,0,0,1-.037.039h0L13.1,9.6h0a.032.032,0,0,1-.052-.03h0V8.216a.11.11,0,0,1,.015-.052h0A.107.107,0,0,1,13.1,8.126Z"/><path class="bw" d="M13.562,7.8l-.462.267a.232.232,0,0,0-.1.181V9.6c0,.066.047.093.1.06l.462-.267a.232.232,0,0,0,.1-.181V7.859C13.666,7.793,13.619,7.766,13.562,7.8Z"/><polygon class="bw" points="15.073 6.714 14.145 7.25 14.145 8.465 15.073 7.929 15.073 6.714"/><polygon class="bw" points="14.914 6.806 14.914 7.929 14.993 7.883 14.993 6.76 14.914 6.806"/><polygon class="fr" points="15.073 7.929 14.993 7.883 14.145 8.373 14.145 8.465 15.073 7.929"/><polygon class="fs" points="15.073 7.929 14.993 7.883 14.993 6.76 15.073 6.714 15.073 7.929"/><polygon class="ch" points="14.145 8.373 14.993 7.883 14.993 6.76 14.934 6.795 14.934 7.848 14.145 8.303 14.145 8.373"/><polygon class="bw" points="11.374 8.986 8.736 10.509 8.736 12.253 11.374 10.73 11.374 8.986"/><polygon class="bw" points="11.214 9.078 11.214 10.73 11.294 10.684 11.294 9.032 11.214 9.078"/><polygon class="ft" points="11.374 10.73 11.294 10.684 8.736 12.161 8.736 12.253 11.374 10.73"/><polygon class="fu" points="11.374 10.73 11.294 10.684 11.294 9.032 11.374 8.986 11.374 10.73"/><polygon class="ch" points="8.736 12.161 11.294 10.684 11.294 9.032 11.234 9.066 11.234 10.649 8.736 12.091 8.736 12.161"/><polygon class="fv" points="5.987 11.054 5.987 10.849 6.332 10.65 6.332 10.855 5.987 11.054"/><polygon class="fw" points="5.987 11.054 5.987 10.849 5.91 10.804 5.91 11.007 5.987 11.054"/><polygon class="fx" points="6.332 10.65 5.987 10.849 5.91 10.804 6.255 10.605 6.332 10.65"/><polygon class="fv" points="8.197 9.778 8.197 9.573 8.542 9.374 8.542 9.58 8.197 9.778"/><polygon class="fy" points="8.197 9.778 8.197 9.573 8.12 9.528 8.12 9.732 8.197 9.778"/><polygon class="fz" points="8.542 9.374 8.197 9.573 8.12 9.528 8.465 9.33 8.542 9.374"/><polygon class="fv" points="10.407 8.502 10.407 8.297 10.752 8.098 10.752 8.304 10.407 8.502"/><polygon class="ga" points="10.407 8.502 10.407 8.297 10.33 8.253 10.33 8.456 10.407 8.502"/><polygon class="gb" points="10.752 8.098 10.407 8.297 10.33 8.253 10.675 8.054 10.752 8.098"/><polygon class="fv" points="12.617 7.227 12.617 7.021 12.962 6.822 12.962 7.028 12.617 7.227"/><polygon class="gc" points="12.617 7.227 12.617 7.021 12.54 6.977 12.54 7.18 12.617 7.227"/><polygon class="gd" points="12.962 6.822 12.617 7.021 12.54 6.977 12.885 6.778 12.962 6.822"/><path class="ge" d="M4.159,10.053l.04.095a.391.391,0,0,1,.021.058l0,.014v.445l.9.517v-.392l0,0-.1-.24.13.075.04.095a.388.388,0,0,1,.021.058l0,.014v.46a.047.047,0,0,1,0,.03v4.6a.045.045,0,0,1-.09,0v-.264l-.9-.517v.212a.045.045,0,1,1-.09,0V13.591a.048.048,0,0,1,0-.033v-.687a.048.048,0,0,1,0-.033v-.687a.048.048,0,0,1,0-.033v-.687a.048.048,0,0,1,0-.033v-.687a.048.048,0,0,1,0-.033v-.456l0,0-.1-.24.13.075Zm.96,1.24-.9-.517v.61l.9.517v-.61Zm0,.72-.9-.517v.61l.9.517v-.61Zm0,.72-.9-.517v.61l.9.517v-.61Zm0,.72-.9-.517v.61l.9.517v-.61Zm0,.72-.9-.517v.61l.9.517v-.61Zm0,.72-.9-.517v.61l.9.517Z"/><polygon class="fd" points="5.209 14.535 5.209 14.906 4.133 14.284 4.133 13.913 4.223 13.965 4.223 14.265 5.119 14.782 5.119 14.483 5.209 14.535"/><path class="fe" d="M5.209,15.33v.546a.045.045,0,0,1-.09,0v-.264l-.9-.517v.212a.045.045,0,1,1-.09,0v-.6l.09.052v.224l.9.517v-.224Z"/><polygon class="fv" points="14.827 5.951 14.827 5.745 15.172 5.547 15.172 5.752 14.827 5.951"/><polygon class="gf" points="14.827 5.951 14.827 5.745 14.75 5.701 14.75 5.904 14.827 5.951"/><polygon class="gg" points="15.172 5.547 14.827 5.745 14.75 5.701 15.095 5.502 15.172 5.547"/><polygon class="gh" points="5.463 10.907 5.119 10.708 5.119 10.914 5.143 11.002 5.487 11.201 5.487 10.996 5.463 10.907"/><polygon class="gi" points="5.386 11.157 5.386 10.952 5.042 10.753 5.042 10.958 5.386 11.157"/><polygon class="gj" points="5.386 11.157 5.386 10.952 5.463 10.907 5.463 11.11 5.386 11.157"/><polygon class="gk" points="5.042 10.753 5.386 10.952 5.463 10.907 5.119 10.708 5.042 10.753"/><path class="fv" d="M5.125,10.8l-.083-.048v.205l.087.05v-.187l0-.014Z"/><polygon class="fv" points="5.042 10.753 5.125 10.801 5.201 10.756 5.119 10.708 5.042 10.753"/><polygon class="gl" points="4.313 10.243 3.969 10.044 3.969 10.25 3.993 10.338 4.337 10.537 4.337 10.332 4.313 10.243"/><polygon class="gi" points="4.236 10.493 4.236 10.288 3.892 10.089 3.892 10.294 4.236 10.493"/><path class="fv" d="M4.138,10.231l-.126-.073.039.092,0,0v.133l.09.052v-.187l0-.014Z"/><polygon class="gm" points="4.236 10.493 4.236 10.288 4.313 10.243 4.313 10.446 4.236 10.493"/><polygon class="gk" points="3.892 10.089 4.236 10.288 4.313 10.243 3.969 10.044 3.892 10.089"/><polygon class="gn" points="3.163 9.579 2.819 9.38 2.819 9.586 2.843 9.675 3.187 9.873 3.187 9.668 3.163 9.579"/><polygon class="gi" points="3.086 9.829 3.086 9.624 2.742 9.425 2.742 9.63 3.086 9.829"/><polygon class="go" points="3.086 9.829 3.086 9.624 3.163 9.579 3.163 9.783 3.086 9.829"/><polygon class="gk" points="2.742 9.425 3.086 9.624 3.163 9.579 2.819 9.38 2.742 9.425"/><polygon class="gp" points="2.013 8.915 1.669 8.716 1.669 8.922 1.693 9.011 2.037 9.209 2.037 9.004 2.013 8.915"/><polygon class="gi" points="1.936 9.165 1.936 8.96 1.592 8.761 1.592 8.966 1.936 9.165"/><polygon class="gq" points="1.936 9.165 1.936 8.96 2.013 8.915 2.013 9.119 1.936 9.165"/><polygon class="gk" points="1.592 8.761 1.936 8.96 2.013 8.915 1.669 8.716 1.592 8.761"/><polygon class="gr" points="0.863 8.251 0.519 8.053 0.519 8.258 0.542 8.347 0.887 8.545 0.887 8.34 0.863 8.251"/><polygon class="gi" points="0.786 8.501 0.786 8.296 0.442 8.097 0.442 8.302 0.786 8.501"/><polygon class="gs" points="0.786 8.501 0.786 8.296 0.863 8.251 0.863 8.455 0.786 8.501"/><polygon class="gk" points="0.442 8.097 0.786 8.296 0.863 8.251 0.519 8.053 0.442 8.097"/><polygon class="gt" points="5.463 15.079 5.119 14.88 5.119 15.555 5.143 15.644 5.487 15.842 5.487 15.167 5.463 15.079"/><polygon class="fe" points="5.119 15.278 5.119 15.555 5.143 15.644 5.487 15.842 5.487 15.491 5.119 15.278"/><polygon class="gi" points="5.386 15.798 5.386 15.123 5.042 14.924 5.042 15.6 5.386 15.798"/><polygon class="gu" points="5.386 15.798 5.386 15.123 5.463 15.079 5.463 15.752 5.386 15.798"/><polygon class="gk" points="5.042 14.924 5.386 15.123 5.463 15.079 5.119 14.88 5.042 14.924"/><polygon class="gv" points="0.863 12.423 0.519 12.224 0.519 12.899 0.542 12.988 0.887 13.187 0.887 12.512 0.863 12.423"/><polygon class="fe" points="0.519 12.622 0.519 12.899 0.542 12.988 0.887 13.187 0.887 12.835 0.519 12.622"/><polygon class="bi" points="5.181 16.424 5.582 16.193 0.4 13.202 0 13.433 5.181 16.424"/><path class="gw" d="M5.016,10.547l0,0,.309-.131H5.216a.06.06,0,0,1,0-.12h.408a.06.06,0,0,1,.018.117l-.5.21-.13-.075Zm-.378-.822a.06.06,0,0,1,.018.117l-.5.21-.13-.075,0,0,.309-.131H4.229a.06.06,0,0,1,0-.12Z"/><polygon class="gx" points="5.181 16.424 5.181 17.033 0 14.041 0 13.433 5.181 16.424"/><polygon class="bw" points="7.825 11.035 6.495 11.802 6.495 13.07 7.825 12.303 7.825 11.035"/><polygon class="bw" points="7.665 11.127 7.665 12.303 7.745 12.257 7.745 11.081 7.665 11.127"/><polygon class="gy" points="7.825 12.303 7.745 12.257 6.495 12.978 6.495 13.07 7.825 12.303"/><polygon class="gz" points="7.825 12.303 7.745 12.257 7.745 11.081 7.825 11.035 7.825 12.303"/><polygon class="ch" points="6.495 12.978 7.745 12.257 7.745 11.081 7.685 11.115 7.685 12.222 6.495 12.909 6.495 12.978"/><path class="ha" d="M4.635,15.339a.06.06,0,0,1-.06-.06V10.192a.06.06,0,0,1,.037-.055l.581-.245a.058.058,0,0,1,.056.005.06.06,0,0,1,.027.05v.408a.06.06,0,1,1-.12,0v-.318l-.461.195v5.047A.06.06,0,0,1,4.635,15.339Z"/><path class="ha" d="M3.648,14.77a.06.06,0,0,1-.06-.06V9.623a.06.06,0,0,1,.037-.055l.581-.246a.06.06,0,0,1,.083.055v.408a.06.06,0,1,1-.12,0V9.468l-.461.195V14.71A.06.06,0,0,1,3.648,14.77Z"/><path class="ha" d="M4.635,15.2a.058.058,0,0,1-.03-.008l-.986-.569a.06.06,0,1,1,.06-.1l.986.569a.06.06,0,0,1-.03.112Zm0-.72a.058.058,0,0,1-.03-.008L3.618,13.9a.06.06,0,1,1,.06-.1l.986.569a.06.06,0,0,1-.03.112Zm0-.72a.058.058,0,0,1-.03-.008l-.986-.569a.06.06,0,1,1,.06-.1l.986.569a.06.06,0,0,1-.03.112Zm0-.72a.058.058,0,0,1-.03-.008l-.986-.569a.06.06,0,1,1,.06-.1l.986.569a.06.06,0,0,1-.03.112Zm0-.72a.058.058,0,0,1-.03-.008l-.986-.569a.06.06,0,0,1,.06-.1l.986.569a.06.06,0,0,1-.03.112Zm0-.72a.058.058,0,0,1-.03-.008l-.986-.569a.06.06,0,1,1,.06-.1l.986.569a.06.06,0,0,1-.03.112Zm0-.72a.058.058,0,0,1-.03-.008L3.618,10.3a.06.06,0,1,1,.06-.1l.986.569a.06.06,0,0,1-.03.112Z"/><polygon class="fv" points="4.009 10.156 4.138 10.231 4.215 10.186 4.086 10.112 4.009 10.156"/><path class="fv" d="M5.125,14.973l-.083-.048V15.6l.087.05v-.657l0-.014Z"/><polygon class="fv" points="5.042 14.924 5.125 14.973 5.201 14.927 5.119 14.88 5.042 14.924"/><polygon class="hb" points="12.729 10.731 12.729 11.123 12.649 11.077 12.649 10.685 12.729 10.731"/><polygon class="hc" points="12.729 11.538 12.729 12.328 12.649 12.282 12.649 11.492 12.729 11.538"/><polygon class="fd" points="12.729 11.123 13.932 10.429 13.932 10.036 12.729 10.731 12.729 11.123"/><polygon class="fe" points="13.932 10.843 12.729 11.538 12.729 12.328 13.932 11.634 13.932 10.843"/><polygon class="gi" points="0.786 13.142 0.786 12.467 0.442 12.269 0.442 12.944 0.786 13.142"/><polygon class="hd" points="0.786 13.142 0.786 12.467 0.863 12.423 0.863 13.096 0.786 13.142"/><polygon class="gk" points="0.442 12.269 0.786 12.467 0.863 12.423 0.519 12.224 0.442 12.269"/><polygon class="he" points="5.51 8.719 4.133 7.924 5.192 7.313 5.312 7.313 6.689 8.108 5.63 8.719 5.51 8.719"/><polygon class="bn" points="5.51 8.599 4.133 7.804 5.192 7.193 6.569 7.988 5.51 8.599"/><polygon class="hf" points="5.51 8.599 4.133 7.804 4.133 7.924 5.51 8.719 5.51 8.599"/><polygon class="hg" points="5.51 8.599 6.569 7.988 6.569 8.108 5.51 8.719 5.51 8.599"/><polygon class="he" points="12.111 4.908 10.734 4.113 11.793 3.502 11.913 3.502 13.289 4.297 12.231 4.908 12.111 4.908"/><polygon class="bn" points="12.111 4.788 10.734 3.993 11.793 3.382 13.169 4.177 12.111 4.788"/><polygon class="hf" points="12.111 4.788 10.734 3.993 10.734 4.113 12.111 4.908 12.111 4.788"/><polygon class="hg" points="12.111 4.788 13.169 4.177 13.169 4.297 12.111 4.908 12.111 4.788"/></svg>