<svg xmlns="http://www.w3.org/2000/svg" xmlns:xlink="http://www.w3.org/1999/xlink" viewBox="0 0 351.994 205.281"><defs><style>.a{fill:#141414;opacity:0.2;}.a,.aa,.ab,.ac,.ad,.ae,.af,.ag,.ah,.ai,.aj,.ak,.al,.am,.an,.ao,.ap,.aq,.ar,.as,.at,.au,.av,.aw,.ax,.ay,.az,.b,.ba,.bc,.bd,.be,.bf,.bg,.bh,.bi,.bj,.bk,.bl,.bm,.bn,.bo,.bp,.bq,.br,.bs,.bt,.bu,.bv,.bw,.bx,.by,.bz,.c,.ca,.cb,.cc,.cd,.ce,.cf,.cg,.ch,.ci,.cj,.ck,.cl,.cm,.cn,.co,.cp,.cq,.cr,.cs,.ct,.cu,.cv,.cw,.cx,.cy,.cz,.d,.da,.db,.dc,.dd,.de,.dg,.dh,.di,.dj,.dk,.dl,.dm,.dn,.do,.dp,.dq,.dr,.ds,.dt,.du,.dv,.dw,.dx,.dy,.dz,.e,.ea,.eb,.ec,.ed,.ee,.ef,.eg,.eh,.ei,.ej,.ek,.el,.em,.en,.eo,.ep,.eq,.er,.es,.et,.eu,.ev,.ew,.ex,.ey,.ez,.f,.fa,.fb,.fc,.fd,.fe,.ff,.fg,.fh,.fi,.fj,.fk,.fl,.fm,.fn,.fo,.fp,.fq,.fr,.fs,.ft,.fu,.fv,.fw,.fx,.fy,.fz,.g,.ga,.gb,.gc,.gd,.ge,.gf,.gg,.gh,.gi,.gj,.gk,.gl,.gm,.gn,.go,.gp,.gq,.gr,.gs,.gt,.gu,.gv,.gw,.gx,.gy,.gz,.h,.ha,.hb,.hc,.hd,.he,.hf,.hg,.hh,.i,.j,.k,.l,.m,.n,.o,.p,.q,.r,.s,.t,.u,.v,.w,.x,.y,.z{fill-rule:evenodd;}.b{fill:#939297;}.c{fill:#484d4f;}.d{fill:url(#a);}.e{fill:url(#b);}.f{fill:#454b4d;}.g{fill:url(#c);}.h{fill:url(#d);}.i{fill:url(#e);}.j{fill:url(#f);}.k{fill:url(#g);}.l{fill:url(#h);}.m{fill:url(#i);}.n{fill:url(#j);}.o{fill:url(#k);}.p{fill:url(#l);}.q{fill:url(#m);}.r{fill:url(#n);}.s{fill:url(#o);}.t{fill:url(#p);}.u{fill:url(#q);}.v{fill:url(#r);}.w{fill:url(#s);}.x{fill:url(#t);}.y{fill:url(#u);}.z{fill:url(#v);}.aa{fill:url(#w);}.ab{fill:url(#x);}.ac{fill:url(#y);}.ad{fill:url(#z);}.ae{fill:url(#aa);}.af{fill:url(#ab);}.ag{fill:url(#ac);}.ah{fill:url(#ad);}.ai{fill:url(#ae);}.aj{fill:url(#af);}.ak{fill:url(#ag);}.al{fill:url(#ah);}.am{fill:url(#ai);}.an{fill:url(#aj);}.ao{fill:url(#ak);}.ap{fill:url(#al);}.aq{fill:url(#am);}.ar{fill:url(#an);}.as{fill:url(#ao);}.at{fill:url(#ap);}.au{fill:url(#aq);}.av{fill:url(#ar);}.aw{fill:#c8c6c9;}.ax{fill:url(#as);}.ay{fill:url(#at);}.az{fill:url(#au);}.ba,.bb{fill:#7e8387;}.bc{fill:#f3f4f4;}.bd{fill:#c1bdc3;}.be{fill:url(#av);}.bf{fill:url(#aw);}.bg{fill:url(#ax);}.bh{fill:url(#ay);}.bi{fill:url(#az);}.bj{fill:url(#ba);}.bk{fill:url(#bb);}.bl{fill:url(#bc);}.bm{fill:url(#bd);}.bn{fill:url(#be);}.bo{fill:url(#bf);}.bp{fill:url(#bg);}.bq{fill:url(#bh);}.br{fill:url(#bi);}.bs{fill:url(#bj);}.bt{fill:url(#bk);}.bu{fill:url(#bl);}.bv{fill:url(#bm);}.bw{fill:url(#bn);}.bx{fill:url(#bo);}.by{fill:url(#bp);}.bz{fill:url(#bq);}.ca{fill:url(#br);}.cb{fill:url(#bs);}.cc{fill:url(#bt);}.cd{fill:url(#bu);}.ce{fill:url(#bv);}.cf{fill:url(#bw);}.cg{fill:url(#bx);}.ch{fill:url(#by);}.ci{fill:url(#bz);}.cj{fill:url(#ca);}.ck{fill:url(#cb);}.cl{fill:url(#cc);}.cm{fill:url(#cd);}.cn{fill:url(#ce);}.co{fill:url(#cf);}.cp{fill:url(#cg);}.cq{fill:url(#ch);}.cr{fill:url(#ci);}.cs{fill:url(#cj);}.ct{fill:url(#ck);}.cu{fill:url(#cl);}.cv{fill:url(#cm);}.cw{fill:url(#cn);}.cx{fill:url(#co);}.cy{fill:url(#cp);}.cz{fill:#373334;}.da{fill:#df9d3f;}.db{fill:#f3ae3a;}.dc{fill:#444a4c;}.dd{fill:#ffee2d;}.de,.df{fill:#ffdb33;}.dg{fill:url(#cq);}.dh{fill:#ffb938;}.di{fill:#ffc537;}.dj{fill:url(#cr);}.dk{fill:#889ca5;}.dl{fill:#a2b2ba;}.dm{fill:#fdfcfe;}.dn{fill:url(#cs);}.do{fill:#cccdd2;}.dp{fill:#dd9c3f;}.dq{fill:#dc9b3f;}.dr{fill:#da9a3f;}.ds{fill:#d9993f;}.dt{fill:#d7983f;}.du{fill:#d6983f;}.dv{fill:#d4973f;}.dw{fill:#d3963f;}.dx{fill:#d1953f;}.dy{fill:#d0943f;}.dz{fill:#ce933e;}.ea{fill:#cd923e;}.eb{fill:#cb913e;}.ec{fill:#ca903e;}.ed{fill:#c88f3e;}.ee{fill:#c78f3e;}.ef{fill:#c58e3e;}.eg{fill:#c48d3e;}.eh{fill:#c28c3e;}.ei{fill:#c18b3e;}.ej{fill:#bf8a3e;}.ek{fill:#ba873e;}.el{fill:#b6843e;}.em{fill:url(#ct);}.en{fill:url(#cu);}.eo{fill:#a9a9ae;}.ep{fill:url(#cv);}.eq{fill:url(#cw);}.er{fill:#b63f37;}.es{fill:#cc3f3e;}.et{fill:#cacbd0;}.eu{fill:#c9cacf;}.ev{fill:#c7c8cd;}.ew{fill:#c6c7cc;}.ex{fill:#c4c5ca;}.ey{fill:#c3c4c9;}.ez{fill:#c1c2c7;}.fa{fill:#c0c0c6;}.fb{fill:#bebfc4;}.fc{fill:#bdbdc3;}.fd{fill:#bbbcc1;}.fe{fill:#babac0;}.ff{fill:#b8b9be;}.fg{fill:#b7b7bd;}.fh{fill:#b5b5bb;}.fi{fill:#b4b4ba;}.fj{fill:#b2b2b8;}.fk{fill:#b1b1b7;}.fl{fill:#afafb5;}.fm{fill:#aeaeb4;}.fn{fill:#acacb2;}.fo{fill:#c49a42;}.fp{fill:#ffd256;}.fq{fill:url(#cx);}.fr{fill:#fa7870;}.fs{fill:#ff8b7f;}.ft{fill:#fff;}.fu{fill:url(#cy);}.fv{fill:#db9a3f;}.fw{fill:#d5963f;}.fx{fill:#d2953e;}.fy{fill:#d0943e;}.fz{fill:#ce923e;}.ga{fill:#cc913e;}.gb{fill:#c88e3e;}.gc{fill:#c68d3e;}.gd{fill:#c48c3e;}.ge{fill:#c28a3e;}.gf{fill:#c0893e;}.gg{fill:#bd883d;}.gh{fill:#bb863d;}.gi{fill:#b9853d;}.gj{fill:#b7843d;}.gk{fill:#b5823d;}.gl{fill:#b3813d;}.gm{fill:url(#cz);}.gn{fill:url(#da);}.go{fill:url(#db);}.gp{fill:url(#dc);}.gq{fill:#5f93a8;}.gr{fill:#9ad1c7;}.gs{fill:#518497;}.gt{fill:#f3f0ef;}.gu{fill:url(#dd);}.gv{fill:url(#de);}.gw{fill:#67686c;}.gx{fill:#525659;}.gy{fill:url(#df);}.gz{fill:url(#dg);}.ha{fill:url(#dh);}.hb{fill:url(#di);}.hc{fill:#cecace;}.hd{fill:#bdb9c0;}.he{fill:url(#dj);}.hf{fill:url(#dk);}.hg{fill:url(#dl);}.hh{fill:url(#dm);}.hi{fill:#818284;}</style><linearGradient id="a" x1="242.564" y1="110.951" x2="260.872" y2="69.83" gradientUnits="userSpaceOnUse"><stop offset="0" stop-color="#3c464a"/><stop offset="1" stop-color="#565958"/></linearGradient><linearGradient id="b" x1="260.476" y1="68.216" x2="241.768" y2="106.571" gradientUnits="userSpaceOnUse"><stop offset="0" stop-color="#4b5051"/><stop offset="1" stop-color="#434849"/></linearGradient><linearGradient id="c" x1="261.13" y1="113.262" x2="261.13" y2="75.425" gradientUnits="userSpaceOnUse"><stop offset="0" stop-color="#454b4d"/><stop offset="1" stop-color="#555857"/></linearGradient><linearGradient id="d" x1="261.145" y1="113.062" x2="261.145" y2="75.579" gradientUnits="userSpaceOnUse"><stop offset="0" stop-color="#454b4d"/><stop offset="1" stop-color="#545757"/></linearGradient><linearGradient id="e" x1="261.16" y1="112.861" x2="261.16" y2="75.733" gradientUnits="userSpaceOnUse"><stop offset="0" stop-color="#454b4d"/><stop offset="1" stop-color="#535756"/></linearGradient><linearGradient id="f" x1="261.175" y1="112.661" x2="261.175" y2="75.887" gradientUnits="userSpaceOnUse"><stop offset="0" stop-color="#454b4d"/><stop offset="1" stop-color="#535656"/></linearGradient><linearGradient id="g" x1="261.19" y1="112.461" x2="261.19" y2="76.041" gradientUnits="userSpaceOnUse"><stop offset="0" stop-color="#454b4d"/><stop offset="1" stop-color="#525655"/></linearGradient><linearGradient id="h" x1="261.205" y1="112.26" x2="261.205" y2="76.195" gradientUnits="userSpaceOnUse"><stop offset="0" stop-color="#454b4d"/><stop offset="1" stop-color="#515555"/></linearGradient><linearGradient id="i" x1="261.22" y1="112.06" x2="261.22" y2="76.349" gradientUnits="userSpaceOnUse"><stop offset="0" stop-color="#454b4d"/><stop offset="1" stop-color="#505454"/></linearGradient><linearGradient id="j" x1="261.235" y1="111.859" x2="261.235" y2="76.503" xlink:href="#i"/><linearGradient id="k" x1="261.249" y1="111.659" x2="261.249" y2="76.657" gradientUnits="userSpaceOnUse"><stop offset="0" stop-color="#454b4d"/><stop offset="1" stop-color="#4f5353"/></linearGradient><linearGradient id="l" x1="261.264" y1="111.458" x2="261.264" y2="76.811" gradientUnits="userSpaceOnUse"><stop offset="0" stop-color="#454b4d"/><stop offset="1" stop-color="#4e5253"/></linearGradient><linearGradient id="m" x1="261.279" y1="111.258" x2="261.279" y2="76.965" gradientUnits="userSpaceOnUse"><stop offset="0" stop-color="#454b4d"/><stop offset="1" stop-color="#4d5252"/></linearGradient><linearGradient id="n" x1="261.294" y1="111.058" x2="261.294" y2="77.119" gradientUnits="userSpaceOnUse"><stop offset="0" stop-color="#454b4d"/><stop offset="1" stop-color="#4d5152"/></linearGradient><linearGradient id="o" x1="261.309" y1="110.857" x2="261.309" y2="77.273" gradientUnits="userSpaceOnUse"><stop offset="0" stop-color="#454b4d"/><stop offset="1" stop-color="#4c5151"/></linearGradient><linearGradient id="p" x1="261.324" y1="110.657" x2="261.324" y2="77.427" gradientUnits="userSpaceOnUse"><stop offset="0" stop-color="#454b4d"/><stop offset="1" stop-color="#4b5051"/></linearGradient><linearGradient id="q" x1="261.339" y1="110.456" x2="261.339" y2="77.58" gradientUnits="userSpaceOnUse"><stop offset="0" stop-color="#454b4d"/><stop offset="1" stop-color="#4a4f50"/></linearGradient><linearGradient id="r" x1="261.354" y1="110.256" x2="261.354" y2="77.734" xlink:href="#q"/><linearGradient id="s" x1="261.369" y1="110.056" x2="261.369" y2="77.888" gradientUnits="userSpaceOnUse"><stop offset="0" stop-color="#454b4d"/><stop offset="1" stop-color="#494e4f"/></linearGradient><linearGradient id="t" x1="261.384" y1="109.855" x2="261.384" y2="78.042" gradientUnits="userSpaceOnUse"><stop offset="0" stop-color="#454b4d"/><stop offset="1" stop-color="#484d4f"/></linearGradient><linearGradient id="u" x1="261.399" y1="109.655" x2="261.399" y2="78.196" gradientUnits="userSpaceOnUse"><stop offset="0" stop-color="#454b4d"/><stop offset="1" stop-color="#474d4e"/></linearGradient><linearGradient id="v" x1="261.414" y1="109.454" x2="261.414" y2="78.35" gradientUnits="userSpaceOnUse"><stop offset="0" stop-color="#454b4d"/><stop offset="1" stop-color="#474c4e"/></linearGradient><linearGradient id="w" x1="261.429" y1="109.254" x2="261.429" y2="78.504" gradientUnits="userSpaceOnUse"><stop offset="0" stop-color="#454b4d"/><stop offset="1" stop-color="#464c4d"/></linearGradient><linearGradient id="x" x1="261.429" y1="78.54" x2="261.429" y2="109.586" gradientUnits="userSpaceOnUse"><stop offset="0" stop-color="#454b4d"/><stop offset="1" stop-color="#464c4e"/></linearGradient><linearGradient id="y" x1="261.414" y1="78.744" x2="261.414" y2="109.408" gradientUnits="userSpaceOnUse"><stop offset="0" stop-color="#464c4e"/><stop offset="1" stop-color="#484d4f"/></linearGradient><linearGradient id="z" x1="261.399" y1="78.948" x2="261.399" y2="109.229" gradientUnits="userSpaceOnUse"><stop offset="0" stop-color="#464c4e"/><stop offset="1" stop-color="#494f50"/></linearGradient><linearGradient id="aa" x1="261.384" y1="79.152" x2="261.384" y2="109.051" gradientUnits="userSpaceOnUse"><stop offset="0" stop-color="#464c4f"/><stop offset="1" stop-color="#4b5052"/></linearGradient><linearGradient id="ab" x1="261.369" y1="79.356" x2="261.369" y2="108.873" gradientUnits="userSpaceOnUse"><stop offset="0" stop-color="#474d4f"/><stop offset="1" stop-color="#4c5153"/></linearGradient><linearGradient id="ac" x1="261.354" y1="79.56" x2="261.354" y2="108.694" gradientUnits="userSpaceOnUse"><stop offset="0" stop-color="#474d50"/><stop offset="1" stop-color="#4d5254"/></linearGradient><linearGradient id="ad" x1="261.339" y1="79.764" x2="261.339" y2="108.516" gradientUnits="userSpaceOnUse"><stop offset="0" stop-color="#474d50"/><stop offset="1" stop-color="#4f5455"/></linearGradient><linearGradient id="ae" x1="261.324" y1="79.968" x2="261.324" y2="108.337" gradientUnits="userSpaceOnUse"><stop offset="0" stop-color="#484e50"/><stop offset="1" stop-color="#505556"/></linearGradient><linearGradient id="af" x1="261.309" y1="80.172" x2="261.309" y2="108.159" gradientUnits="userSpaceOnUse"><stop offset="0" stop-color="#484e51"/><stop offset="1" stop-color="#515657"/></linearGradient><linearGradient id="ag" x1="261.294" y1="80.376" x2="261.294" y2="107.981" gradientUnits="userSpaceOnUse"><stop offset="0" stop-color="#484e51"/><stop offset="1" stop-color="#535758"/></linearGradient><linearGradient id="ah" x1="261.279" y1="80.58" x2="261.279" y2="107.802" gradientUnits="userSpaceOnUse"><stop offset="0" stop-color="#494f52"/><stop offset="1" stop-color="#54595a"/></linearGradient><linearGradient id="ai" x1="261.265" y1="80.784" x2="261.265" y2="107.624" gradientUnits="userSpaceOnUse"><stop offset="0" stop-color="#494f52"/><stop offset="1" stop-color="#565a5b"/></linearGradient><linearGradient id="aj" x1="261.25" y1="80.988" x2="261.25" y2="107.445" gradientUnits="userSpaceOnUse"><stop offset="0" stop-color="#494f53"/><stop offset="1" stop-color="#575b5c"/></linearGradient><linearGradient id="ak" x1="261.235" y1="81.192" x2="261.235" y2="107.267" gradientUnits="userSpaceOnUse"><stop offset="0" stop-color="#4a5053"/><stop offset="1" stop-color="#585c5d"/></linearGradient><linearGradient id="al" x1="261.22" y1="81.396" x2="261.22" y2="107.089" gradientUnits="userSpaceOnUse"><stop offset="0" stop-color="#4a5053"/><stop offset="1" stop-color="#5a5e5e"/></linearGradient><linearGradient id="am" x1="261.205" y1="81.6" x2="261.205" y2="106.91" gradientUnits="userSpaceOnUse"><stop offset="0" stop-color="#4a5054"/><stop offset="1" stop-color="#5b5f5f"/></linearGradient><linearGradient id="an" x1="261.19" y1="81.804" x2="261.19" y2="106.732" gradientUnits="userSpaceOnUse"><stop offset="0" stop-color="#4b5154"/><stop offset="1" stop-color="#5c6060"/></linearGradient><linearGradient id="ao" x1="261.175" y1="82.008" x2="261.175" y2="106.553" gradientUnits="userSpaceOnUse"><stop offset="0" stop-color="#4b5155"/><stop offset="1" stop-color="#5e6162"/></linearGradient><linearGradient id="ap" x1="261.16" y1="82.212" x2="261.16" y2="106.375" gradientUnits="userSpaceOnUse"><stop offset="0" stop-color="#4b5155"/><stop offset="1" stop-color="#5f6363"/></linearGradient><linearGradient id="aq" x1="261.145" y1="82.416" x2="261.145" y2="106.197" gradientUnits="userSpaceOnUse"><stop offset="0" stop-color="#4c5256"/><stop offset="1" stop-color="#616464"/></linearGradient><linearGradient id="ar" x1="261.13" y1="82.62" x2="261.13" y2="106.018" gradientUnits="userSpaceOnUse"><stop offset="0" stop-color="#4c5256"/><stop offset="1" stop-color="#626565"/></linearGradient><linearGradient id="as" x1="260.225" y1="106.747" x2="261.379" y2="90.247" gradientUnits="userSpaceOnUse"><stop offset="0" stop-color="#d2d2d7"/><stop offset="0.35" stop-color="#a5a6aa"/><stop offset="1" stop-color="#7e8387"/></linearGradient><linearGradient id="at" x1="255.388" y1="85.337" x2="265.153" y2="102.251" gradientUnits="userSpaceOnUse"><stop offset="0" stop-color="#4c5256"/><stop offset="1" stop-color="#5a5e5f"/></linearGradient><linearGradient id="au" x1="262.122" y1="88.092" x2="257.356" y2="103.681" gradientUnits="userSpaceOnUse"><stop offset="0" stop-color="#b9b9be"/><stop offset="0.27" stop-color="#a5a7ac"/><stop offset="1" stop-color="#7e8387"/></linearGradient><linearGradient id="av" x1="117.244" y1="183.241" x2="135.552" y2="142.12" xlink:href="#a"/><linearGradient id="aw" x1="135.155" y1="140.505" x2="116.448" y2="178.861" xlink:href="#b"/><linearGradient id="ax" x1="135.81" y1="185.552" x2="135.81" y2="147.715" xlink:href="#c"/><linearGradient id="ay" x1="135.825" y1="185.352" x2="135.825" y2="147.869" xlink:href="#d"/><linearGradient id="az" x1="135.84" y1="185.151" x2="135.84" y2="148.023" xlink:href="#e"/><linearGradient id="ba" x1="135.855" y1="184.951" x2="135.855" y2="148.177" xlink:href="#f"/><linearGradient id="bb" x1="135.87" y1="184.75" x2="135.87" y2="148.331" xlink:href="#g"/><linearGradient id="bc" x1="135.884" y1="184.55" x2="135.884" y2="148.485" xlink:href="#h"/><linearGradient id="bd" x1="135.899" y1="184.349" x2="135.899" y2="148.639" xlink:href="#i"/><linearGradient id="be" x1="135.914" y1="184.149" x2="135.914" y2="148.793" xlink:href="#i"/><linearGradient id="bf" x1="135.929" y1="183.949" x2="135.929" y2="148.947" xlink:href="#k"/><linearGradient id="bg" x1="135.944" y1="183.748" x2="135.944" y2="149.101" xlink:href="#l"/><linearGradient id="bh" x1="135.959" y1="183.548" x2="135.959" y2="149.255" xlink:href="#m"/><linearGradient id="bi" x1="135.974" y1="183.347" x2="135.974" y2="149.408" xlink:href="#n"/><linearGradient id="bj" x1="135.989" y1="183.147" x2="135.989" y2="149.562" xlink:href="#o"/><linearGradient id="bk" x1="136.004" y1="182.947" x2="136.004" y2="149.716" xlink:href="#p"/><linearGradient id="bl" x1="136.019" y1="182.746" x2="136.019" y2="149.87" xlink:href="#q"/><linearGradient id="bm" x1="136.034" y1="182.546" x2="136.034" y2="150.024" xlink:href="#q"/><linearGradient id="bn" x1="136.049" y1="182.345" x2="136.049" y2="150.178" xlink:href="#s"/><linearGradient id="bo" x1="136.064" y1="182.145" x2="136.064" y2="150.332" xlink:href="#t"/><linearGradient id="bp" x1="136.079" y1="181.944" x2="136.079" y2="150.486" xlink:href="#u"/><linearGradient id="bq" x1="136.094" y1="181.744" x2="136.094" y2="150.64" xlink:href="#v"/><linearGradient id="br" x1="136.109" y1="181.544" x2="136.109" y2="150.794" xlink:href="#w"/><linearGradient id="bs" x1="136.109" y1="150.829" x2="136.109" y2="181.864" xlink:href="#x"/><linearGradient id="bt" x1="136.094" y1="151.033" x2="136.094" y2="181.686" xlink:href="#y"/><linearGradient id="bu" x1="136.079" y1="151.237" x2="136.079" y2="181.508" xlink:href="#z"/><linearGradient id="bv" x1="136.064" y1="151.441" x2="136.064" y2="181.33" xlink:href="#aa"/><linearGradient id="bw" x1="136.049" y1="151.645" x2="136.049" y2="181.151" xlink:href="#ab"/><linearGradient id="bx" x1="136.034" y1="151.849" x2="136.034" y2="180.973" xlink:href="#ac"/><linearGradient id="by" x1="136.019" y1="152.053" x2="136.019" y2="180.795" xlink:href="#ad"/><linearGradient id="bz" x1="136.004" y1="152.257" x2="136.004" y2="180.617" xlink:href="#ae"/><linearGradient id="ca" x1="135.989" y1="152.461" x2="135.989" y2="180.438" xlink:href="#af"/><linearGradient id="cb" x1="135.974" y1="152.665" x2="135.974" y2="180.26" xlink:href="#ag"/><linearGradient id="cc" x1="135.959" y1="152.869" x2="135.959" y2="180.082" xlink:href="#ah"/><linearGradient id="cd" x1="135.944" y1="153.073" x2="135.944" y2="179.904" xlink:href="#ai"/><linearGradient id="ce" x1="135.929" y1="153.277" x2="135.929" y2="179.725" xlink:href="#aj"/><linearGradient id="cf" x1="135.914" y1="153.481" x2="135.914" y2="179.547" xlink:href="#ak"/><linearGradient id="cg" x1="135.9" y1="153.685" x2="135.9" y2="179.369" xlink:href="#al"/><linearGradient id="ch" x1="135.885" y1="153.889" x2="135.885" y2="179.191" xlink:href="#am"/><linearGradient id="ci" x1="135.87" y1="154.093" x2="135.87" y2="179.012" xlink:href="#an"/><linearGradient id="cj" x1="135.855" y1="154.297" x2="135.855" y2="178.834" xlink:href="#ao"/><linearGradient id="ck" x1="135.84" y1="154.501" x2="135.84" y2="178.656" xlink:href="#ap"/><linearGradient id="cl" x1="135.825" y1="154.705" x2="135.825" y2="178.478" xlink:href="#aq"/><linearGradient id="cm" x1="135.81" y1="154.909" x2="135.81" y2="178.299" xlink:href="#ar"/><linearGradient id="cn" x1="134.905" y1="179.036" x2="136.059" y2="162.537" xlink:href="#as"/><linearGradient id="co" x1="130.067" y1="157.627" x2="139.833" y2="174.541" xlink:href="#at"/><linearGradient id="cp" x1="136.802" y1="160.382" x2="132.036" y2="175.971" xlink:href="#au"/><linearGradient id="cq" x1="65.281" y1="79.385" x2="76.724" y2="100.028" gradientUnits="userSpaceOnUse"><stop offset="0" stop-color="#df9d3f"/><stop offset="1" stop-color="#ba873e"/></linearGradient><linearGradient id="cr" x1="76.661" y1="134.204" x2="58.249" y2="102.314" xlink:href="#cq"/><linearGradient id="cs" x1="91.606" y1="182.433" x2="87.873" y2="178.43" gradientUnits="userSpaceOnUse"><stop offset="0" stop-color="#a9a9ae"/><stop offset="1" stop-color="#c1bdc3"/></linearGradient><linearGradient id="ct" x1="231.808" y1="87.863" x2="200.174" y2="134.762" gradientUnits="userSpaceOnUse"><stop offset="0" stop-color="#f3ae3a"/><stop offset="1" stop-color="#d19440"/></linearGradient><linearGradient id="cu" x1="136.922" y1="148.463" x2="125.632" y2="165.202" xlink:href="#ct"/><linearGradient id="cv" x1="230.639" y1="83.007" x2="231.588" y2="85.244" gradientUnits="userSpaceOnUse"><stop offset="0" stop-color="#fbfcfc"/><stop offset="0.49" stop-color="#d5d5d7"/><stop offset="1" stop-color="#a9a9ae"/></linearGradient><linearGradient id="cw" x1="230.617" y1="83.82" x2="231.742" y2="78.948" gradientUnits="userSpaceOnUse"><stop offset="0" stop-color="#cccdd2"/><stop offset="1" stop-color="#e9eaeb"/></linearGradient><linearGradient id="cx" x1="42.609" y1="160.78" x2="40.341" y2="164.143" gradientUnits="userSpaceOnUse"><stop offset="0" stop-color="#ffe644"/><stop offset="1" stop-color="#ffff14"/></linearGradient><linearGradient id="cy" x1="40.593" y1="142.333" x2="34.595" y2="140.384" gradientUnits="userSpaceOnUse"><stop offset="0" stop-color="#cccdd2"/><stop offset="1" stop-color="#a9a9ae"/></linearGradient><linearGradient id="cz" x1="298.049" y1="67.742" x2="296.855" y2="63.289" gradientUnits="userSpaceOnUse"><stop offset="0" stop-color="#a9a9ae"/><stop offset="1" stop-color="#92959b"/></linearGradient><linearGradient id="da" x1="295.963" y1="66.905" x2="292.422" y2="66.905" gradientUnits="userSpaceOnUse"><stop offset="0" stop-color="#a9a9ae"/><stop offset="1" stop-color="#898a90"/></linearGradient><linearGradient id="db" x1="258.447" y1="45.189" x2="289.007" y2="55.712" gradientUnits="userSpaceOnUse"><stop offset="0" stop-color="#b6b7bd"/><stop offset="1" stop-color="#cccdd2"/></linearGradient><linearGradient id="dc" x1="258.203" y1="45.899" x2="288.763" y2="56.421" gradientUnits="userSpaceOnUse"><stop offset="0" stop-color="#cccbcf"/><stop offset="1" stop-color="#dcdde1"/></linearGradient><linearGradient id="dd" x1="171.521" y1="2.005" x2="158.446" y2="23.765" gradientUnits="userSpaceOnUse"><stop offset="0" stop-color="#9dbcca"/><stop offset="1" stop-color="#a6bfca"/></linearGradient><linearGradient id="de" x1="138.746" y1="73.22" x2="32.774" y2="46.798" gradientUnits="userSpaceOnUse"><stop offset="0" stop-color="#9dbcca"/><stop offset="1" stop-color="#4b7889"/></linearGradient><linearGradient id="df" x1="87.519" y1="94.449" x2="70.675" y2="103.786" xlink:href="#cq"/><linearGradient id="dg" x1="56.892" y1="97.564" x2="70.367" y2="122.907" gradientUnits="userSpaceOnUse"><stop offset="0" stop-color="#cd663e"/><stop offset="1" stop-color="#934f32"/></linearGradient><linearGradient id="dh" x1="54.321" y1="98.809" x2="65.507" y2="121.743" xlink:href="#cq"/><linearGradient id="di" x1="48.314" y1="106.664" x2="-14.233" y2="101.192" xlink:href="#cq"/><linearGradient id="dj" x1="196.926" y1="80.185" x2="227.199" y2="132.62" gradientUnits="userSpaceOnUse"><stop offset="0" stop-color="#656d70"/><stop offset="1" stop-color="#5c8796"/></linearGradient><linearGradient id="dk" x1="201.474" y1="54.447" x2="233.31" y2="111.881" xlink:href="#dj"/><linearGradient id="dl" x1="223.566" y1="32.946" x2="177.047" y2="74.832" gradientUnits="userSpaceOnUse"><stop offset="0" stop-color="#ffdb33"/><stop offset="1" stop-color="#ffb938"/></linearGradient><linearGradient id="dm" x1="217.944" y1="32.153" x2="181.965" y2="109.311" gradientUnits="userSpaceOnUse"><stop offset="0" stop-color="#525659"/><stop offset="1" stop-color="#444a4c"/></linearGradient></defs><title>striped-car</title><polygon class="a" points="351.83 84.286 351.994 85.37 296.414 120.843 304.381 132.578 274.433 149.612 222.844 166.678 153.28 201.82 146.057 203.089 129.105 205.281 114.202 205.281 32.93 158.359 242.5 37.364 270.558 37.364 351.83 84.286"/><path class="b" d="M205.667,64.983c-33.307,19.679-85.888,48.21-119.194,67.89,3.941,1.056,7.2,1.848,9.66,2.5-8.849,4.773-21.308,11.754-30.157,16.527l56.881,36.263,4.219.826a27.471,27.471,0,0,0,4.841-1.784c14.412-7.612,9.17-15.686,14.155-21.926,26.359-15.246,57.043-32.485,83.4-47.731,1.9-1.094,26.121.162,34.367-7.568.195-1.1,4.628-4.389,4.21-6.041a8.087,8.087,0,0,0-4.083-5.012Z"/><path class="c" d="M201.435,36.959l78.734,45.458,7.347-13.947L216.924,27.714Z"/><path class="c" d="M126.189,141.162l28.575,16.5,18.223-34.592-20.432-11.8Z"/><polygon class="d" points="272.41 74.385 264.346 69.73 263.213 69.195 261.985 68.843 260.67 68.68 259.275 68.709 257.809 68.936 256.281 69.365 254.697 70.001 253.066 70.847 252.245 71.344 251.434 71.883 250.636 72.462 249.851 73.077 249.079 73.729 248.322 74.414 247.581 75.131 246.856 75.879 246.15 76.656 245.461 77.46 244.794 78.29 244.147 79.142 243.521 80.016 242.918 80.911 242.34 81.825 241.786 82.754 241.257 83.699 240.756 84.657 240.282 85.626 239.838 86.605 239.423 87.592 239.039 88.585 238.686 89.583 238.367 90.583 238.081 91.585 237.83 92.586 237.616 93.583 237.437 94.578 237.297 95.566 237.196 96.546 237.134 97.518 237.113 98.478 237.196 100.313 237.437 102.003 237.83 103.541 238.367 104.923 239.039 106.146 239.838 107.203 240.756 108.091 241.786 108.805 249.85 113.46 272.41 74.385"/><path class="e" d="M270.591,73.334l-6.955-4.014-1.132-.535-1.228-.352-1.315-.163-1.394.029-1.466.227-1.53.428-1.584.636-1.631.846-.821.5-.81.539-.8.578-.786.615-.773.652-.756.685-.742.717-.724.748-.707.777-.687.8-.668.829-.647.853-.626.874-.6.9-.579.913-.553.93-.53.944-.5.958-.473.969-.444.979-.415.987-.385.993-.352,1-.319,1-.287,1-.25,1-.216,1-.178.995c-.655,4.625-.532,8.747,2.4,12.625l.918.888,1.031.714,6.953,4.015c-2.886-1.666-4.672-2.7-4.672-10.327s9.345-23.816,15.953-27.63S267.7,71.667,270.591,73.334Z"/><path class="f" d="M261.13,78.422c-7.414,4.28-13.424,14.69-13.424,23.25s6.01,12.031,13.424,7.75,13.423-14.689,13.423-23.25S268.544,74.142,261.13,78.422Z"/><path class="g" d="M261.13,75.5c-8.811,5.087-15.952,17.457-15.952,27.63s7.142,14.3,15.952,9.21,15.952-17.457,15.952-27.63S269.94,70.416,261.13,75.5Z"/><path class="h" d="M261.145,75.655c-8.728,5.039-15.8,17.294-15.8,27.372s7.075,14.163,15.8,9.124,15.8-17.294,15.8-27.372S269.873,70.616,261.145,75.655Z"/><path class="i" d="M261.16,75.809c-8.646,4.991-15.654,17.13-15.654,27.113s7.008,14.029,15.654,9.038,15.653-17.13,15.653-27.113S269.805,70.817,261.16,75.809Z"/><path class="j" d="M261.175,75.962c-8.563,4.944-15.5,16.967-15.5,26.854s6.941,13.895,15.5,8.951,15.5-16.967,15.5-26.854S269.738,71.018,261.175,75.962Z"/><path class="k" d="M261.19,76.115c-8.481,4.9-15.355,16.8-15.355,26.6s6.874,13.761,15.355,8.865,15.355-16.8,15.355-26.6S269.67,71.219,261.19,76.115Z"/><path class="l" d="M261.2,76.268C252.807,81.117,246,92.908,246,102.6s6.807,13.627,15.205,8.779,15.205-16.64,15.205-26.336S269.6,71.42,261.2,76.268Z"/><path class="m" d="M261.22,76.421c-8.316,4.8-15.056,16.476-15.056,26.078s6.741,13.493,15.056,8.693,15.056-16.476,15.056-26.078S269.535,71.621,261.22,76.421Z"/><path class="n" d="M261.235,76.575c-8.233,4.753-14.907,16.313-14.907,25.819S253,115.753,261.235,111s14.906-16.313,14.906-25.819S269.467,71.821,261.235,76.575Z"/><path class="o" d="M261.25,76.728c-8.15,4.706-14.757,16.149-14.757,25.56s6.607,13.225,14.757,8.52,14.757-16.149,14.757-25.56S269.4,72.022,261.25,76.728Z"/><path class="p" d="M261.265,76.881c-8.068,4.658-14.608,15.986-14.608,25.3s6.54,13.092,14.608,8.434,14.608-15.986,14.608-25.3S269.332,72.223,261.265,76.881Z"/><path class="q" d="M261.279,77.034c-7.985,4.61-14.458,15.822-14.458,25.043s6.473,12.958,14.458,8.348S275.738,94.6,275.738,85.382,269.265,72.424,261.279,77.034Z"/><path class="r" d="M261.294,77.188c-7.9,4.563-14.309,15.659-14.309,24.784s6.406,12.824,14.309,8.261S275.6,94.574,275.6,85.449,269.2,72.625,261.294,77.188Z"/><path class="s" d="M261.309,77.341c-7.82,4.515-14.16,15.5-14.16,24.525s6.339,12.69,14.16,8.175,14.159-15.5,14.159-24.525S269.13,72.826,261.309,77.341Z"/><path class="t" d="M261.324,77.494c-7.738,4.467-14.01,15.332-14.01,24.266s6.272,12.556,14.01,8.089,14.01-15.332,14.01-24.266S269.062,73.027,261.324,77.494Z"/><path class="u" d="M261.339,77.647c-7.655,4.42-13.861,15.168-13.861,24.008s6.205,12.422,13.861,8S275.2,94.489,275.2,85.65,268.994,73.227,261.339,77.647Z"/><path class="v" d="M261.354,77.8c-7.573,4.372-13.711,15-13.711,23.749s6.139,12.288,13.711,7.916,13.711-15,13.711-23.749S268.927,73.428,261.354,77.8Z"/><path class="w" d="M261.369,77.954c-7.49,4.324-13.562,14.841-13.562,23.49s6.072,12.154,13.562,7.83,13.562-14.841,13.562-23.49S268.859,73.629,261.369,77.954Z"/><path class="x" d="M261.384,78.107c-7.408,4.277-13.413,14.678-13.413,23.231s6,12.021,13.413,7.744S274.8,94.4,274.8,85.851,268.792,73.83,261.384,78.107Z"/><path class="y" d="M261.4,78.26c-7.325,4.229-13.263,14.514-13.263,22.973s5.938,11.887,13.263,7.658,13.263-14.514,13.263-22.973S268.724,74.031,261.4,78.26Z"/><path class="z" d="M261.414,78.413c-7.243,4.182-13.114,14.351-13.114,22.714s5.871,11.753,13.114,7.571,13.114-14.351,13.114-22.714S268.657,74.232,261.414,78.413Z"/><path class="aa" d="M261.429,78.566c-7.16,4.134-12.964,14.187-12.964,22.455s5.8,11.619,12.964,7.485,12.964-14.187,12.964-22.455S268.589,74.433,261.429,78.566Z"/><path class="f" d="M261.444,78.72c-7.078,4.086-12.815,14.024-12.815,22.2s5.737,11.485,12.815,7.4,12.815-14.024,12.815-22.2S268.521,74.633,261.444,78.72Z"/><path class="ab" d="M261.429,78.919c-6.992,4.037-12.659,13.853-12.659,21.926s5.667,11.345,12.659,7.309S274.088,94.3,274.088,86.228,268.42,74.882,261.429,78.919Z"/><path class="ac" d="M261.414,79.118c-6.906,3.987-12.5,13.683-12.5,21.656s5.6,11.206,12.5,7.219,12.5-13.682,12.5-21.656S268.319,75.132,261.414,79.118Z"/><path class="ad" d="M261.4,79.318c-6.819,3.937-12.347,13.512-12.347,21.386s5.528,11.066,12.347,7.129,12.347-13.512,12.347-21.386S268.218,75.381,261.4,79.318Z"/><path class="ae" d="M261.384,79.517c-6.733,3.887-12.191,13.341-12.191,21.116s5.458,10.926,12.191,7.039,12.191-13.341,12.191-21.116S268.117,75.63,261.384,79.517Z"/><path class="af" d="M261.369,79.716c-6.647,3.838-12.035,13.171-12.035,20.846s5.388,10.786,12.035,6.949S273.4,94.34,273.4,86.665,268.016,75.879,261.369,79.716Z"/><path class="ag" d="M261.354,79.916c-6.561,3.788-11.879,13-11.879,20.576s5.318,10.647,11.879,6.859,11.879-13,11.879-20.576S267.915,76.128,261.354,79.916Z"/><path class="ah" d="M261.339,80.115c-6.475,3.738-11.724,12.829-11.724,20.306s5.249,10.507,11.724,6.769,11.723-12.829,11.723-20.306S267.814,76.377,261.339,80.115Z"/><path class="ai" d="M261.324,80.314C254.936,84,249.757,92.973,249.757,100.35s5.179,10.367,11.568,6.679,11.567-12.659,11.567-20.036S267.713,76.626,261.324,80.314Z"/><path class="aj" d="M261.309,80.514C255.007,84.153,249.9,93,249.9,100.279s5.109,10.227,11.412,6.589S272.721,94.38,272.721,87.1,267.612,76.875,261.309,80.514Z"/><path class="ak" d="M261.295,80.713c-6.217,3.589-11.256,12.317-11.256,19.5s5.039,10.088,11.256,6.5,11.256-12.317,11.256-19.5S267.511,77.124,261.295,80.713Z"/><path class="al" d="M261.28,80.912c-6.13,3.539-11.1,12.147-11.1,19.225s4.969,9.948,11.1,6.409,11.1-12.147,11.1-19.225S267.41,77.373,261.28,80.912Z"/><path class="am" d="M261.265,81.112c-6.044,3.49-10.944,11.976-10.944,18.955s4.9,9.808,10.944,6.319,10.944-11.976,10.944-18.955S267.309,77.622,261.265,81.112Z"/><path class="an" d="M261.25,81.311c-5.958,3.44-10.788,11.805-10.788,18.685s4.83,9.668,10.788,6.228,10.788-11.806,10.788-18.685S267.208,77.871,261.25,81.311Z"/><path class="ao" d="M261.235,81.51C255.363,84.9,250.6,93.145,250.6,99.926s4.76,9.529,10.632,6.138,10.632-11.635,10.632-18.415S267.107,78.12,261.235,81.51Z"/><path class="ap" d="M261.22,81.71c-5.786,3.341-10.476,11.464-10.476,18.145s4.69,9.389,10.476,6.048S271.7,94.439,271.7,87.758,267.006,78.369,261.22,81.71Z"/><path class="aq" d="M261.2,81.909c-5.7,3.291-10.32,11.293-10.32,17.875s4.62,9.249,10.32,5.958,10.32-11.294,10.32-17.875S266.9,78.618,261.2,81.909Z"/><path class="ar" d="M261.19,82.108c-5.614,3.241-10.164,11.123-10.164,17.605s4.551,9.109,10.164,5.868,10.164-11.123,10.164-17.6S266.8,78.867,261.19,82.108Z"/><path class="as" d="M261.175,82.308c-5.528,3.191-10.008,10.952-10.008,17.335s4.481,8.97,10.008,5.778,10.008-10.952,10.008-17.335S266.7,79.117,261.175,82.308Z"/><path class="at" d="M261.16,82.507c-5.442,3.142-9.852,10.781-9.852,17.065s4.411,8.83,9.852,5.688,9.852-10.782,9.852-17.065S266.6,79.366,261.16,82.507Z"/><path class="au" d="M261.145,82.706c-5.355,3.092-9.7,10.611-9.7,16.795s4.341,8.69,9.7,5.6,9.7-10.611,9.7-16.795S266.5,79.615,261.145,82.706Z"/><path class="av" d="M261.13,82.906c-5.269,3.042-9.541,10.44-9.541,16.525s4.271,8.551,9.541,5.508,9.54-10.44,9.54-16.525S266.4,79.864,261.13,82.906Z"/><path class="aw" d="M261.13,82.111C255.534,85.342,251,93.2,251,99.661s4.536,9.081,10.133,5.85,10.133-11.088,10.133-17.55S266.726,78.88,261.13,82.111Z"/><path class="ax" d="M261.13,83.134c-5.106,2.948-9.246,10.118-9.246,16.015s4.14,8.286,9.246,5.338,9.246-10.118,9.246-16.015S266.237,80.186,261.13,83.134Z"/><path class="ay" d="M258.457,85.441a16.676,16.676,0,0,0-2.7,2.855,1.765,1.765,0,0,0-.365.9.609.609,0,0,0,.234.628l.581.335c.49.283,1.2.02,1.831-.678.112-.124.228-.247.344-.364a3.57,3.57,0,0,0,1.062-2.376v-.95c0-.293-.1-.485-.3-.556a.714.714,0,0,0-.681.2ZM253.4,92.38a16.654,16.654,0,0,0-1.12,3.769.714.714,0,0,0,.164.691.524.524,0,0,0,.632-.016l.822-.475a3.57,3.57,0,0,0,1.527-2.108c.043-.16.091-.321.142-.48.29-.9.163-1.641-.328-1.924l-.581-.336a.607.607,0,0,0-.66.111,1.763,1.763,0,0,0-.6.767ZM252.276,100a5.548,5.548,0,0,0,1.12,2.475.466.466,0,0,0,.6.077,1.534,1.534,0,0,0,.661-.652l.581-1.007a2.571,2.571,0,0,0,.328-2.3c-.051-.1-.1-.206-.143-.315-.24-.612-.832-.745-1.527-.344l-.822.475a1.661,1.661,0,0,0-.632.713,1.391,1.391,0,0,0-.164.882Zm3.478,3.836c-.212-.037-.339-.2-.365-.479a1.536,1.536,0,0,1,.234-.9l.581-1.006a2.57,2.57,0,0,1,1.831-1.437c.112-.005.227-.017.344-.034.65-.1,1.062.348,1.062,1.15v.95a1.666,1.666,0,0,1-.3.9,1.384,1.384,0,0,1-.681.582,5.552,5.552,0,0,1-2.7.267Zm6.038-2.192a16.708,16.708,0,0,0,2.7-2.855,1.769,1.769,0,0,0,.366-.9.607.607,0,0,0-.234-.627l-.582-.336c-.491-.283-1.2-.02-1.83.677-.112.125-.228.246-.345.364a3.572,3.572,0,0,0-1.062,2.376v.95c0,.293.1.486.3.556a.715.715,0,0,0,.681-.2Zm5.061-6.938a16.656,16.656,0,0,0,1.121-3.769.714.714,0,0,0-.164-.691.526.526,0,0,0-.633.017l-.822.475a3.567,3.567,0,0,0-1.527,2.108c-.043.16-.091.321-.142.48-.289.9-.162,1.641.328,1.924l.581.336a.608.608,0,0,0,.66-.111,1.77,1.77,0,0,0,.6-.767Zm1.121-7.619a5.548,5.548,0,0,0-1.121-2.475.466.466,0,0,0-.6-.077,1.54,1.54,0,0,0-.661.652l-.581,1.006a2.569,2.569,0,0,0-.329,2.3c.051.1.1.206.143.316.241.612.833.745,1.527.344l.822-.475a1.67,1.67,0,0,0,.633-.713,1.391,1.391,0,0,0,.164-.882ZM264.5,83.249c.213.037.34.2.366.479a1.541,1.541,0,0,1-.234.9l-.581,1.007a2.57,2.57,0,0,1-1.831,1.436,3.276,3.276,0,0,0-.344.034c-.65.1-1.062-.349-1.062-1.15V85a1.669,1.669,0,0,1,.3-.9,1.38,1.38,0,0,1,.681-.583A5.548,5.548,0,0,1,264.5,83.249Z"/><path class="az" d="M259.845,88.067a9.576,9.576,0,0,0-4.332,7.5,3.044,3.044,0,0,0,1.269,2.8l1.285.742a3.046,3.046,0,0,0,3.063-.3,9.573,9.573,0,0,0,4.332-7.5,3.044,3.044,0,0,0-1.269-2.8c-.435-.252-.848-.49-1.285-.742A3.045,3.045,0,0,0,259.845,88.067Z"/><path class="aw" d="M261.13,88.809a9.576,9.576,0,0,0-4.332,7.5,2.64,2.64,0,0,0,4.332,2.5,9.573,9.573,0,0,0,4.332-7.5,2.64,2.64,0,0,0-4.332-2.5Z"/><path class="ba" d="M261.13,92.437a2.629,2.629,0,0,0-1.19,2.06c0,.759.533,1.066,1.19.687a2.629,2.629,0,0,0,1.189-2.06C262.319,92.366,261.787,92.058,261.13,92.437Z"/><ellipse class="bb" cx="259.202" cy="97.15" rx="0.683" ry="0.394" transform="translate(45.471 273.056) rotate(-60.002)"/><ellipse class="bb" cx="263.058" cy="94.924" rx="0.683" ry="0.394" transform="translate(49.312 275.264) rotate(-59.997)"/><ellipse class="bb" cx="259.202" cy="92.698" rx="0.682" ry="0.394" transform="translate(49.37 270.88) rotate(-60.015)"/><ellipse class="bb" cx="263.058" cy="90.471" rx="0.682" ry="0.394" transform="translate(53.176 273.048) rotate(-59.999)"/><path class="bc" d="M261.13,88.809a9.576,9.576,0,0,0-4.332,7.5c0,.126,0,.248.012.368a9.151,9.151,0,0,1,1.257-3.888,8.864,8.864,0,0,1,3.063-3.234,3.045,3.045,0,0,1,3.063-.3,2.872,2.872,0,0,1,1.257,2.437c.008-.128.012-.256.012-.381a2.64,2.64,0,0,0-4.332-2.5Z"/><path class="bc" d="M261.13,82.111C255.534,85.342,251,93.2,251,99.661l0,.185c.087-6.426,4.589-14.163,10.13-17.363s10.044-.661,10.131,5.665l0-.187C271.263,81.5,266.726,78.88,261.13,82.111Z"/><path class="bc" d="M253.983,104.736c1.7,1.4,4.264,1.429,7.139-.231l.139-.082a13.661,13.661,0,0,1-2.383-.118C256.952,104.027,255.567,104.77,253.983,104.736Z"/><path class="bd" d="M261.13,78.855c-7.153,4.13-12.952,14.174-12.952,22.434s5.8,11.608,12.952,7.478,12.952-14.174,12.952-22.434-5.8-11.608-12.952-7.478Zm0,1.931c6.23-3.6,11.28-.681,11.28,6.513s-5.05,15.941-11.28,19.538-11.28.681-11.28-6.513S254.9,84.382,261.13,80.786Z"/><polygon class="be" points="147.09 146.675 139.025 142.019 137.893 141.484 136.665 141.133 135.35 140.97 133.955 140.999 132.489 141.226 130.96 141.654 129.376 142.29 127.746 143.137 126.925 143.634 126.114 144.173 125.316 144.751 124.53 145.367 123.758 146.018 123.002 146.704 122.261 147.421 121.536 148.169 120.829 148.946 120.141 149.75 119.474 150.579 118.826 151.432 118.201 152.306 117.598 153.201 117.019 154.115 116.465 155.044 115.937 155.988 115.436 156.947 114.962 157.916 114.517 158.895 114.102 159.882 113.718 160.875 113.366 161.873 113.047 162.873 112.761 163.874 112.51 164.875 112.296 165.873 112.117 166.868 111.977 167.856 111.876 168.836 111.814 169.807 111.793 170.767 111.876 172.603 112.117 174.293 112.51 175.831 113.047 177.213 113.718 178.436 114.517 179.493 115.436 180.381 116.465 181.095 124.53 185.75 147.09 146.675"/><path class="bf" d="M145.27,145.624l-6.955-4.015-1.132-.535-1.228-.351-1.316-.163-1.394.029-1.466.227-1.529.428-1.584.636-1.631.846-.821.5-.81.539-.8.578-.786.615-.773.651-.756.685-.742.717-.724.748-.707.777-.688.8-.668.829-.647.853-.625.875-.6.895-.579.913-.554.929-.529.944-.5.958-.474.969-.444.979-.415.987-.385.993-.352,1-.319,1-.287,1-.25,1-.215,1-.179.994c-.654,4.625-.532,8.747,2.4,12.625l.918.888,1.03.713,6.954,4.015c-2.886-1.666-4.672-2.7-4.672-10.327s9.345-23.817,15.953-27.631S142.383,143.957,145.27,145.624Z"/><path class="f" d="M135.81,150.712c-7.414,4.28-13.423,14.69-13.423,23.25s6.01,12.03,13.423,7.75,13.423-14.69,13.423-23.25S143.223,146.432,135.81,150.712Z"/><path class="bg" d="M135.81,147.792c-8.81,5.087-15.952,17.457-15.952,27.63s7.142,14.3,15.952,9.21,15.952-17.457,15.952-27.63S144.62,142.705,135.81,147.792Z"/><path class="bh" d="M135.825,147.945c-8.728,5.039-15.8,17.293-15.8,27.371s7.075,14.163,15.8,9.124,15.8-17.293,15.8-27.372S144.553,142.906,135.825,147.945Z"/><path class="bi" d="M135.84,148.1c-8.645,4.991-15.653,17.13-15.653,27.113s7.008,14.029,15.653,9.038,15.653-17.13,15.653-27.113S144.485,143.107,135.84,148.1Z"/><path class="bj" d="M135.855,148.252c-8.563,4.944-15.5,16.966-15.5,26.854s6.941,13.9,15.5,8.951,15.5-16.966,15.5-26.854S144.417,143.308,135.855,148.252Z"/><path class="bk" d="M135.87,148.4c-8.48,4.9-15.355,16.8-15.355,26.6s6.874,13.761,15.355,8.865,15.355-16.8,15.355-26.6S144.35,143.509,135.87,148.4Z"/><path class="bl" d="M135.884,148.558c-8.4,4.848-15.205,16.639-15.205,26.336s6.807,13.627,15.205,8.779,15.205-16.639,15.205-26.337S144.282,143.71,135.884,148.558Z"/><path class="bm" d="M135.9,148.711c-8.315,4.8-15.056,16.476-15.056,26.078s6.74,13.493,15.056,8.693,15.056-16.476,15.056-26.078S144.215,143.911,135.9,148.711Z"/><path class="bn" d="M135.914,148.865c-8.233,4.753-14.906,16.312-14.906,25.819s6.674,13.36,14.906,8.606,14.906-16.312,14.906-25.819S144.147,144.111,135.914,148.865Z"/><path class="bo" d="M135.929,149.018c-8.15,4.706-14.757,16.149-14.757,25.56s6.607,13.226,14.757,8.52,14.757-16.149,14.757-25.56S144.08,144.312,135.929,149.018Z"/><path class="bp" d="M135.944,149.171c-8.068,4.658-14.608,15.985-14.608,25.3s6.54,13.092,14.608,8.434,14.608-15.985,14.608-25.3S144.012,144.513,135.944,149.171Z"/><path class="bq" d="M135.959,149.324c-7.985,4.61-14.458,15.822-14.458,25.043s6.473,12.958,14.458,8.347,14.458-15.822,14.458-25.043S143.945,144.714,135.959,149.324Z"/><path class="br" d="M135.974,149.477c-7.9,4.563-14.309,15.658-14.309,24.784s6.406,12.824,14.309,8.261,14.309-15.658,14.309-24.784S143.877,144.915,135.974,149.477Z"/><path class="bs" d="M135.989,149.631c-7.82,4.515-14.159,15.495-14.159,24.525s6.339,12.69,14.159,8.175,14.16-15.495,14.16-24.525S143.809,145.116,135.989,149.631Z"/><path class="bt" d="M136,149.784c-7.738,4.467-14.01,15.331-14.01,24.266s6.272,12.556,14.01,8.089,14.01-15.331,14.01-24.266S143.742,145.316,136,149.784Z"/><path class="bu" d="M136.019,149.937c-7.655,4.42-13.861,15.168-13.861,24.008s6.205,12.422,13.861,8,13.861-15.168,13.861-24.008S143.674,145.517,136.019,149.937Z"/><path class="bv" d="M136.034,150.09c-7.573,4.372-13.711,15-13.711,23.749s6.139,12.288,13.711,7.916,13.711-15,13.711-23.749S143.607,145.718,136.034,150.09Z"/><path class="bw" d="M136.049,150.244c-7.49,4.324-13.562,14.841-13.562,23.49s6.072,12.154,13.562,7.83,13.562-14.841,13.562-23.49S143.539,145.919,136.049,150.244Z"/><path class="bx" d="M136.064,150.4c-7.408,4.277-13.412,14.677-13.412,23.231s6,12.02,13.412,7.744,13.413-14.677,13.413-23.231S143.472,146.12,136.064,150.4Z"/><path class="by" d="M136.079,150.55c-7.325,4.229-13.263,14.514-13.263,22.973s5.938,11.887,13.263,7.657,13.263-14.514,13.263-22.973S143.4,146.321,136.079,150.55Z"/><path class="bz" d="M136.094,150.7c-7.243,4.181-13.114,14.35-13.114,22.714s5.871,11.753,13.114,7.571,13.114-14.35,13.114-22.714S143.337,146.522,136.094,150.7Z"/><path class="ca" d="M136.109,150.856c-7.16,4.134-12.964,14.187-12.964,22.455s5.8,11.619,12.964,7.485,12.965-14.187,12.965-22.455S143.269,146.722,136.109,150.856Z"/><path class="f" d="M136.123,151.01c-7.078,4.086-12.815,14.023-12.815,22.2s5.737,11.485,12.815,7.4,12.815-14.023,12.815-22.2S143.2,146.923,136.123,151.01Z"/><path class="cb" d="M136.109,151.209c-6.991,4.036-12.659,13.853-12.659,21.926s5.667,11.345,12.659,7.308,12.659-13.853,12.659-21.926S143.1,147.172,136.109,151.209Z"/><path class="cc" d="M136.094,151.408c-6.905,3.987-12.5,13.682-12.5,21.656s5.6,11.205,12.5,7.218,12.5-13.682,12.5-21.656S143,147.421,136.094,151.408Z"/><path class="cd" d="M136.079,151.608c-6.819,3.937-12.347,13.512-12.347,21.386s5.528,11.066,12.347,7.128,12.347-13.512,12.347-21.386S142.9,147.67,136.079,151.608Z"/><path class="ce" d="M136.064,151.807c-6.733,3.887-12.191,13.341-12.191,21.116s5.458,10.926,12.191,7.038,12.191-13.341,12.191-21.116S142.8,147.919,136.064,151.807Z"/><path class="cf" d="M136.049,152.006c-6.647,3.838-12.035,13.17-12.035,20.846s5.388,10.786,12.035,6.948,12.036-13.17,12.036-20.846S142.7,148.169,136.049,152.006Z"/><path class="cg" d="M136.034,152.206c-6.561,3.788-11.879,13-11.879,20.576s5.318,10.646,11.879,6.858,11.88-13,11.88-20.576S142.6,148.418,136.034,152.206Z"/><path class="ch" d="M136.019,152.4c-6.475,3.738-11.723,12.829-11.723,20.306s5.249,10.507,11.723,6.768,11.724-12.829,11.724-20.306S142.494,148.667,136.019,152.4Z"/><path class="ci" d="M136,152.6c-6.389,3.688-11.567,12.658-11.567,20.036s5.179,10.367,11.567,6.678,11.568-12.658,11.568-20.036S142.393,148.916,136,152.6Z"/><path class="cj" d="M135.989,152.8c-6.3,3.639-11.412,12.488-11.412,19.766s5.109,10.227,11.412,6.588S147.4,166.67,147.4,159.392,142.292,149.165,135.989,152.8Z"/><path class="ck" d="M135.974,153c-6.216,3.589-11.256,12.317-11.256,19.5s5.039,10.088,11.256,6.5,11.256-12.317,11.256-19.5S142.191,149.414,135.974,153Z"/><path class="cl" d="M135.959,153.2c-6.13,3.539-11.1,12.147-11.1,19.226s4.969,9.948,11.1,6.408,11.1-12.147,11.1-19.225S142.09,149.663,135.959,153.2Z"/><path class="cm" d="M135.944,153.4C129.9,156.891,125,165.378,125,172.357s4.9,9.808,10.944,6.318,10.944-11.976,10.944-18.955S141.989,149.912,135.944,153.4Z"/><path class="cn" d="M135.929,153.6c-5.958,3.44-10.788,11.805-10.788,18.685s4.83,9.668,10.788,6.228,10.788-11.805,10.788-18.685S141.888,150.161,135.929,153.6Z"/><path class="co" d="M135.914,153.8c-5.872,3.39-10.632,11.635-10.632,18.415s4.76,9.529,10.632,6.138,10.632-11.635,10.632-18.415S141.787,150.41,135.914,153.8Z"/><path class="cp" d="M135.9,154c-5.786,3.34-10.476,11.464-10.476,18.145s4.69,9.389,10.476,6.048,10.476-11.464,10.476-18.145S141.686,150.659,135.9,154Z"/><path class="cq" d="M135.884,154.2c-5.7,3.291-10.32,11.294-10.32,17.875s4.62,9.249,10.32,5.958,10.32-11.293,10.32-17.875S141.584,150.908,135.884,154.2Z"/><path class="cr" d="M135.87,154.4c-5.614,3.241-10.164,11.123-10.164,17.605s4.551,9.109,10.164,5.868,10.164-11.123,10.164-17.605S141.483,151.157,135.87,154.4Z"/><path class="cs" d="M135.855,154.6c-5.528,3.191-10.008,10.952-10.008,17.335s4.481,8.97,10.008,5.778,10.008-10.952,10.008-17.335S141.382,151.406,135.855,154.6Z"/><path class="ct" d="M135.84,154.8c-5.441,3.142-9.852,10.782-9.852,17.065s4.411,8.83,9.852,5.688,9.853-10.782,9.853-17.065S141.281,151.655,135.84,154.8Z"/><path class="cu" d="M135.825,155c-5.355,3.092-9.7,10.611-9.7,16.795s4.341,8.69,9.7,5.6,9.7-10.611,9.7-16.795S141.18,151.9,135.825,155Z"/><path class="cv" d="M135.81,155.2c-5.269,3.042-9.54,10.44-9.54,16.525s4.271,8.551,9.54,5.508,9.541-10.44,9.541-16.525S141.079,152.153,135.81,155.2Z"/><path class="aw" d="M135.81,154.4c-5.6,3.231-10.133,11.088-10.133,17.55s4.536,9.081,10.133,5.85,10.133-11.089,10.133-17.55S141.406,151.17,135.81,154.4Z"/><path class="cw" d="M135.81,155.424c-5.107,2.948-9.246,10.118-9.246,16.015s4.14,8.287,9.246,5.338,9.246-10.118,9.246-16.015S140.916,152.476,135.81,155.424Z"/><path class="cx" d="M133.137,157.73a16.7,16.7,0,0,0-2.7,2.855,1.769,1.769,0,0,0-.365.9.609.609,0,0,0,.234.628l.581.336c.49.283,1.2.02,1.831-.678.112-.124.228-.246.344-.363a3.574,3.574,0,0,0,1.062-2.376v-.95c0-.294-.1-.485-.3-.556a.714.714,0,0,0-.681.2Zm-5.062,6.939a16.66,16.66,0,0,0-1.121,3.769.714.714,0,0,0,.164.692.524.524,0,0,0,.632-.017l.822-.475a3.571,3.571,0,0,0,1.527-2.108c.044-.16.091-.321.143-.48.29-.9.162-1.641-.329-1.924l-.581-.336a.608.608,0,0,0-.66.111,1.761,1.761,0,0,0-.6.767Zm-1.121,7.619a5.549,5.549,0,0,0,1.121,2.475.465.465,0,0,0,.6.077,1.537,1.537,0,0,0,.661-.652l.581-1.006a2.571,2.571,0,0,0,.328-2.3c-.051-.1-.1-.206-.143-.315-.24-.612-.832-.745-1.527-.344l-.822.475a1.654,1.654,0,0,0-.632.713,1.389,1.389,0,0,0-.164.881Zm3.478,3.836c-.212-.037-.339-.2-.365-.479a1.538,1.538,0,0,1,.233-.9l.581-1.006a2.567,2.567,0,0,1,1.831-1.436c.112-.005.227-.017.344-.034.65-.1,1.062.348,1.062,1.15v.95a1.666,1.666,0,0,1-.3.9,1.386,1.386,0,0,1-.681.582,5.551,5.551,0,0,1-2.7.267Zm6.038-2.192a16.694,16.694,0,0,0,2.7-2.855,1.769,1.769,0,0,0,.366-.9.607.607,0,0,0-.234-.627l-.582-.336c-.491-.284-1.2-.02-1.83.678-.113.125-.228.246-.345.363a3.573,3.573,0,0,0-1.062,2.376v.95c0,.293.1.486.3.556a.715.715,0,0,0,.681-.2Zm5.061-6.938a16.677,16.677,0,0,0,1.121-3.769.714.714,0,0,0-.164-.692.525.525,0,0,0-.632.017l-.822.475a3.567,3.567,0,0,0-1.527,2.107c-.043.16-.091.321-.142.48-.29.9-.162,1.641.328,1.924l.581.335a.608.608,0,0,0,.66-.111,1.768,1.768,0,0,0,.6-.767Zm1.121-7.619a5.549,5.549,0,0,0-1.121-2.475.466.466,0,0,0-.6-.077,1.545,1.545,0,0,0-.661.652l-.581,1.007a2.568,2.568,0,0,0-.328,2.3c.051.1.1.206.143.315.241.612.833.745,1.527.344l.822-.475a1.671,1.671,0,0,0,.632-.714,1.388,1.388,0,0,0,.164-.882Zm-3.479-3.836c.213.037.34.2.366.479a1.543,1.543,0,0,1-.234.9l-.581,1.006a2.568,2.568,0,0,1-1.831,1.436,3.322,3.322,0,0,0-.344.034c-.651.1-1.062-.349-1.062-1.15v-.95a1.668,1.668,0,0,1,.3-.9,1.377,1.377,0,0,1,.681-.582A5.556,5.556,0,0,1,139.175,155.538Z"/><path class="cy" d="M134.525,160.357a9.576,9.576,0,0,0-4.332,7.5,3.043,3.043,0,0,0,1.269,2.8l1.285.742a3.045,3.045,0,0,0,3.063-.3,9.573,9.573,0,0,0,4.332-7.5,3.044,3.044,0,0,0-1.269-2.8l-1.285-.742A3.046,3.046,0,0,0,134.525,160.357Z"/><path class="aw" d="M135.81,161.1a9.575,9.575,0,0,0-4.332,7.5,2.64,2.64,0,0,0,4.332,2.5,9.573,9.573,0,0,0,4.332-7.5,2.64,2.64,0,0,0-4.332-2.5Z"/><path class="ba" d="M135.81,164.727a2.629,2.629,0,0,0-1.19,2.06c0,.759.533,1.066,1.19.687a2.629,2.629,0,0,0,1.189-2.06C137,164.655,136.467,164.348,135.81,164.727Z"/><ellipse class="bb" cx="133.882" cy="169.44" rx="0.683" ry="0.394" transform="translate(-79.8 200.657) rotate(-59.998)"/><ellipse class="bb" cx="137.738" cy="167.214" rx="0.682" ry="0.394" transform="translate(-75.931 202.962) rotate(-60.019)"/><ellipse class="bb" cx="133.882" cy="164.987" rx="0.683" ry="0.394" transform="translate(-75.95 198.392) rotate(-59.987)"/><ellipse class="bb" cx="137.738" cy="162.761" rx="0.683" ry="0.394" transform="translate(-72.089 200.65) rotate(-59.996)"/><path class="bc" d="M135.81,161.1a9.575,9.575,0,0,0-4.332,7.5c0,.126,0,.248.012.367a9.149,9.149,0,0,1,1.257-3.888,8.862,8.862,0,0,1,3.063-3.233,3.043,3.043,0,0,1,3.063-.3,2.871,2.871,0,0,1,1.257,2.437c.008-.128.012-.255.012-.381a2.64,2.64,0,0,0-4.332-2.5Z"/><path class="bc" d="M135.81,154.4c-5.6,3.231-10.133,11.089-10.133,17.551l0,.185c.087-6.426,4.589-14.163,10.131-17.363s10.044-.661,10.13,5.665l0-.187C145.942,153.788,141.406,151.17,135.81,154.4Z"/><path class="bc" d="M128.662,177.026c1.7,1.4,4.264,1.429,7.139-.231l.139-.083a13.66,13.66,0,0,1-2.383-.118C131.632,176.317,130.247,177.059,128.662,177.026Z"/><path class="bd" d="M135.81,151.145c-7.154,4.13-12.952,14.174-12.952,22.434s5.8,11.608,12.952,7.478,12.953-14.174,12.953-22.434-5.8-11.608-12.953-7.478Zm0,1.931c6.23-3.6,11.28-.682,11.28,6.512s-5.05,15.941-11.28,19.538-11.28.681-11.28-6.512S129.58,156.672,135.81,153.075Z"/><path class="cz" d="M242.507,107,154.764,157.66v-2.367c0-12.011-8.432-16.879-18.834-10.874S117.1,165.03,117.1,177.041v1.18L86.741,188.426v-6.4l3.8-15.346,2.2-6.295,34.748-28.758,25.278-31.611L207.881,68.2l23.99,10.277,62.562-31.552,1.878.957V69.386c-5.8,3.734-10.343,9.3-16.143,13.032-.218-11.666-8.564-16.329-18.828-10.4-10.4,6.005-18.834,20.61-18.834,32.621Z"/><path class="da" d="M242.507,107,154.764,157.66v-2.366c0-12.011-8.432-16.879-18.834-10.874S117.1,165.03,117.1,177.041v1.181l-30.356,10.2v-6.4l3.8-15.346,2.2-6.295L156.8,114.7l17.021-31.857L203.661,65.62l28.21,12.854,62.562-31.552,1.878.958V69.386c-5.8,3.734-10.343,9.3-16.143,13.032-.219-11.666-8.564-16.329-18.828-10.4-10.4,6-18.834,20.61-18.834,32.621Z"/><path class="db" d="M90.539,166.683l2.2-6.295L156.8,114.7l17.021-31.857L203.661,65.62l29.183,12.061C252,62.492,277.537,53.611,294.434,46.923l1.878.957Z"/><path class="dc" d="M156.8,114.7l17.021-31.857L203.661,65.62l29.183,12.061-68.33,39.45Z"/><path class="cz" d="M224.29,46.177,200.228,35.214,182.512,45.443l.179,24.752,41.6-24.017Zm-46.458,1.967L159.8,58.557,147.723,90.384,178.011,72.9Z"/><path class="dd" d="M151.572,30.758l81.272,46.923c27.394-15.816,43.081-21.912,61.589-30.758L253.8,23.461,213.162,0C194.653,8.846,178.966,14.942,151.572,30.758Z"/><path class="de" d="M151.572,30.758l81.272,46.923c27.394-15.816,43.081-21.912,61.589-30.758L253.8,23.461,214.073.526C195.565,9.373,178.966,14.942,151.572,30.758Z"/><path class="df" d="M232.844,77.815l-.058-.034L151.34,30.758l.174-.1a412.794,412.794,0,0,1,45.66-22.634c5.748-2.514,11.176-4.89,16.848-7.6L214.079.4l.052.03,80.551,46.507-.2.1c-4.641,2.217-9.2,4.308-13.616,6.33A511.676,511.676,0,0,0,232.9,77.781ZM151.8,30.758l81.04,46.788a511.918,511.918,0,0,1,47.927-24.4c4.349-1.993,8.843-4.053,13.414-6.234L214.068.658c-5.656,2.7-11.07,5.07-16.8,7.578A412.7,412.7,0,0,0,151.8,30.758Z"/><polygon class="dd" points="11.464 113.466 92.736 160.389 156.803 114.703 116.167 91.242 75.531 67.78 11.464 113.466"/><polygon class="de" points="12.659 114.156 92.736 160.389 156.803 114.703 116.167 91.242 75.531 67.78 12.659 114.156"/><path class="df" d="M92.743,160.526l-.064-.037L12.447,114.168l.143-.105L75.524,67.642l.065.038,81.428,47.013-.147.105ZM12.871,114.144,92.73,160.251l63.859-45.538L75.539,67.919Z"/><polygon class="dg" points="18.217 113.845 92.563 156.768 151.175 114.973 75.735 71.418 18.217 113.845"/><polygon class="dh" points="128.023 131.482 151.175 114.973 75.735 71.418 75.735 101.294 128.023 131.482"/><polygon class="di" points="36.107 124.173 92.563 156.768 128.023 131.482 75.735 101.294 36.107 124.173"/><path class="dj" d="M36.107,124.174l22.442,12.957.689-.349a12.175,12.175,0,0,0,7.1-.669L97.99,121.523c2.729-1.258,3.277-3.664,1.87-5.249l.336-.238.571-.289L75.735,101.294,40.883,121.416Z"/><path class="dc" d="M151.572,30.758l81.272,46.923L203.661,65.62l-72.59-41.91Z"/><path class="c" d="M152.393,31.454l77.131,44.532-26.366-10.93L134.709,25.537Z"/><path class="dk" d="M152.443,31.584l75.8,43.762L203.527,65.1,136.411,26.352Z"/><polygon class="dl" points="149.998 34.195 136.411 26.352 151.356 31.229 149.998 34.195"/><polygon class="dd" points="11.464 113.466 92.736 160.389 90.539 166.683 51.823 150.07 9.266 119.761 11.464 113.466"/><polygon class="dd" points="5.47 135.107 86.741 182.03 90.539 166.683 9.266 119.761 5.47 135.107"/><polygon class="dm" points="66.135 164.637 68.9 153.293 90.799 165.936 90.539 166.683 69.41 154.485 67.028 164.255 88.125 176.436 87.931 177.222 66.135 164.637"/><polygon class="dn" points="89.177 182.03 93.429 179.575 92.211 178.872 86.741 182.03 89.177 182.03"/><polygon class="do" points="0 136.859 83.708 185.188 83.708 193.023 0 144.694 0 136.859"/><polygon class="dc" points="203.801 68.531 184.401 79.732 179.363 107.496 229.213 78.715 203.801 68.531"/><path class="da" d="M156.5,156.659l-.05.028-1.371.792v-2.367q0-.266-.006-.528v-.03h0v-.031c0-.143-.008-.285-.014-.426v-.03l-.007-.15.295-2.133,0-.03-.007-.119,0-.03v-.03l0-.03,0-.03-.02-.3,0-.029,0-.029,0-.029,0-.029,0-.029c-.9-12.5-11.1-11.427-20.919-5.756-10.4,6.005-18.789,20.22-18.789,32.231v1.181l-1.51.507c-.008-.267-.014-.536-.014-.809,0-12.982,9.07-28.378,20.313-34.869,10.665-6.157,19.709-3.84,20.58,7.71l84.087-48.589c.872-12.557,10.008-26.361,20.673-32.518,11.059-6.385,21.726-1.39,22.018,11.13q-.746.538-1.519,1.038c-.047-14.682-10.164-15.344-20.428-9.417-9.823,5.671-17.888,19.011-18.755,30.594l0,.032,0,.032,0,.032,0,.032,0,.032-.019.288,0,.032,0,.032-.012.222,0,.032,0,.032,0,.032-.005.122q-.01.24-.016.478v.032h0V105q-.006.268-.006.534V107.9l-1.829-.917-.05.029Z"/><path class="dp" d="M156.484,156.667l-.05.028-1.371.792v-2.367q0-.266-.006-.528v-.03h0v-.031c0-.143-.008-.285-.014-.426v-.03l-.007-.15.281-2.033,0-.03-.007-.119,0-.03v-.03l0-.03,0-.03-.02-.3,0-.029,0-.029,0-.029,0-.029,0-.029c-.9-12.41-10.993-11.579-20.816-5.908-10.4,6.005-18.792,20.239-18.792,32.25V178.7l-1.51.508c-.008-.267-.014-.536-.014-.809,0-12.982,9.072-28.4,20.315-34.887,10.665-6.157,19.694-3.74,20.566,7.81l84.123-48.608c.872-12.557,9.99-26.4,20.654-32.552,11.059-6.385,21.646-1.39,21.938,11.129q-.746.538-1.519,1.038c-.055-14.538-10.088-15.391-20.352-9.464-9.823,5.671-17.888,19.011-18.755,30.593l0,.032,0,.032,0,.032,0,.032,0,.032-.019.287,0,.032,0,.032-.012.223,0,.032,0,.032,0,.032-.005.122q-.01.24-.016.479v.032h0v.031q-.006.268-.006.534v2.367l-1.807-.836-.051.029Z"/><path class="dq" d="M156.469,156.676l-.05.028-1.371.792v-2.367q0-.266-.006-.528v-.03h0v-.031c0-.143-.008-.285-.014-.426v-.03l-.007-.15.267-1.933,0-.03-.007-.119,0-.03v-.03l0-.03,0-.03-.02-.3,0-.029,0-.029,0-.029,0-.029,0-.029c-.9-12.318-10.89-11.73-20.713-6.059-10.4,6.005-18.794,20.257-18.794,32.268v1.181l-1.51.508c-.008-.267-.014-.536-.014-.809,0-12.982,9.074-28.415,20.317-34.906,10.665-6.157,19.68-3.64,20.552,7.911l84.159-48.627c.872-12.557,9.971-26.429,20.636-32.586,11.059-6.385,21.567-1.391,21.859,11.129q-.746.538-1.519,1.038c-.064-14.395-10.012-15.438-20.276-9.511-9.823,5.671-17.888,19.011-18.755,30.593l0,.032,0,.032,0,.032,0,.032,0,.032-.019.287,0,.032,0,.032-.012.222,0,.032,0,.032,0,.032-.005.122q-.01.24-.015.479v.032h0v.031q-.006.268-.006.534v2.367l-1.785-.754-.051.029Z"/><path class="dr" d="M156.454,156.685l-.05.028-1.371.792v-2.367q0-.266-.006-.528v-.03h0v-.031c0-.143-.008-.285-.014-.426v-.03l-.007-.15.253-1.832,0-.03-.007-.119,0-.03v-.03l0-.03,0-.03-.02-.3,0-.029,0-.029,0-.029,0-.029,0-.029c-.9-12.227-10.787-11.882-20.61-6.21-10.4,6.005-18.8,20.276-18.8,32.287v1.181l-1.51.508c-.008-.267-.014-.536-.014-.809,0-12.982,9.076-28.434,20.319-34.925,10.665-6.157,19.666-3.54,20.538,8.011l84.2-48.646c.872-12.557,9.953-26.463,20.617-32.62,11.059-6.385,21.487-1.391,21.779,11.129q-.746.538-1.519,1.038c-.072-14.251-9.936-15.485-20.2-9.558-9.823,5.671-17.888,19.011-18.755,30.593l0,.032,0,.032,0,.032,0,.032,0,.032-.019.288,0,.032,0,.032-.012.222,0,.032,0,.032,0,.032-.005.122q-.01.24-.016.479v.032h0v.031q-.006.268-.006.534v2.367l-1.763-.673-.051.029Z"/><path class="ds" d="M156.439,156.693l-.05.028-1.371.792v-2.367q0-.266-.006-.528v-.03h0v-.031c0-.143-.008-.285-.014-.426v-.03l-.007-.15.238-1.732,0-.03-.007-.119,0-.03v-.03l0-.03,0-.03-.02-.3,0-.029,0-.029,0-.029,0-.029,0-.029c-.894-12.135-10.684-12.033-20.507-6.362-10.4,6.005-18.8,20.294-18.8,32.305v1.181l-1.51.508c-.008-.267-.014-.536-.014-.809,0-12.982,9.078-28.452,20.321-34.943,10.665-6.157,19.652-3.44,20.524,8.111l84.231-48.664c.872-12.557,9.934-26.5,20.6-32.654,11.059-6.385,21.408-1.392,21.7,11.128q-.746.538-1.519,1.038c-.08-14.107-9.859-15.531-20.124-9.6-9.823,5.671-17.888,19.011-18.755,30.593l0,.032,0,.032,0,.032,0,.032,0,.032-.019.287,0,.032,0,.032-.012.222,0,.032,0,.032,0,.032-.005.122q-.01.24-.016.479v.032h0v.031q-.006.268-.006.534v2.367l-1.742-.592-.051.029Z"/><path class="dt" d="M156.424,156.7l-.05.028-1.371.792v-2.367q0-.266-.006-.528v-.03h0v-.031c0-.143-.008-.285-.014-.426v-.03l-.007-.15.224-1.632,0-.03-.007-.119,0-.03v-.03l0-.03,0-.03-.02-.3,0-.029,0-.029,0-.029,0-.029,0-.029c-.893-12.044-10.581-12.185-20.4-6.513-10.4,6.005-18.8,20.313-18.8,32.324v1.181l-1.51.508c-.008-.267-.014-.536-.014-.809,0-12.982,9.08-28.471,20.323-34.962,10.665-6.157,19.638-3.34,20.51,8.211l84.267-48.683c.872-12.557,9.916-26.531,20.58-32.688,11.059-6.385,21.329-1.392,21.62,11.128q-.746.538-1.519,1.038c-.088-13.964-9.783-15.578-20.048-9.652-9.823,5.671-17.888,19.011-18.755,30.593l0,.032,0,.032,0,.032,0,.032,0,.032-.019.288,0,.032,0,.032-.012.222,0,.032,0,.032,0,.032-.005.122q-.01.24-.016.479v.032h0v.031q-.006.268-.006.534v2.367l-1.72-.51-.051.029Z"/><path class="du" d="M156.409,156.71l-.05.028-1.371.791v-2.367q0-.266-.006-.528v-.03h0v-.031c0-.143-.008-.285-.014-.426v-.03l-.007-.15.21-1.532,0-.03-.007-.119,0-.03,0-.03,0-.03,0-.03-.02-.3,0-.029,0-.029,0-.029,0-.029,0-.029c-.891-11.952-10.478-12.336-20.3-6.665-10.4,6.005-18.8,20.332-18.8,32.342v1.181l-1.51.508c-.008-.267-.014-.536-.014-.809,0-12.982,9.082-28.489,20.325-34.98,10.665-6.157,19.624-3.24,20.5,8.311l84.3-48.7c.872-12.557,9.9-26.565,20.562-32.722C271.24,63.8,281.43,68.8,281.722,81.316q-.746.538-1.519,1.038c-.1-13.82-9.707-15.625-19.971-9.7-9.823,5.671-17.888,19.011-18.755,30.593l0,.032,0,.032,0,.032,0,.032,0,.032-.019.288,0,.032,0,.032-.012.222,0,.032,0,.032,0,.032-.005.122q-.01.24-.015.479v.032h0v.031q-.006.268-.006.534v2.367l-1.7-.429-.051.029Z"/><path class="dv" d="M156.394,156.719l-.05.028-1.371.791v-2.367c0-.177,0-.353-.006-.528v-.03h0v-.031c0-.143-.008-.285-.014-.426v-.03l-.007-.15.2-1.432,0-.03-.007-.119,0-.03v-.03l0-.03,0-.03-.02-.3,0-.029,0-.029,0-.029,0-.029,0-.029c-.89-11.861-10.375-12.488-20.2-6.816-10.4,6.005-18.8,20.35-18.8,32.361v1.181l-1.51.508c-.008-.267-.014-.536-.014-.809,0-12.982,9.084-28.508,20.327-35,10.665-6.157,19.61-3.14,20.481,8.411l84.339-48.721c.872-12.557,9.879-26.6,20.543-32.756,11.059-6.385,21.17-1.393,21.461,11.127q-.746.538-1.519,1.038c-.1-13.676-9.631-15.672-19.9-9.746-9.823,5.671-17.888,19.011-18.755,30.593l0,.032,0,.032,0,.032,0,.032,0,.032-.019.287,0,.032,0,.032-.012.223,0,.032,0,.032,0,.032-.005.122q-.01.24-.016.479v.032h0v.031q-.006.268-.006.534V107.6l-1.676-.348-.051.029Z"/><path class="dw" d="M156.379,156.728l-.05.029-1.371.791v-2.367c0-.177,0-.353-.006-.528v-.03h0v-.031c0-.143-.008-.285-.014-.426v-.03l-.007-.15.182-1.332,0-.03-.007-.119,0-.03,0-.03,0-.03,0-.03-.02-.3,0-.029,0-.029,0-.029,0-.029,0-.029c-.888-11.77-10.272-12.639-20.094-6.968-10.4,6.005-18.806,20.369-18.806,32.38v1.181l-1.51.508c-.008-.267-.014-.536-.014-.809,0-12.982,9.087-28.526,20.329-35.017,10.665-6.157,19.6-3.039,20.467,8.511l84.375-48.739c.872-12.557,9.86-26.633,20.525-32.79,11.059-6.385,21.09-1.393,21.382,11.127q-.746.538-1.519,1.038c-.112-13.533-9.555-15.719-19.819-9.793-9.823,5.671-17.888,19.011-18.755,30.593l0,.032,0,.032,0,.032,0,.032,0,.032-.019.287,0,.032,0,.032-.012.222,0,.032,0,.032,0,.032-.005.122q-.01.24-.016.479v.032h0v.031q-.006.268-.006.534v2.367l-1.654-.266-.051.029Z"/><path class="dx" d="M156.364,156.736l-.05.029-1.371.791V155.19c0-.177,0-.353-.006-.528v-.03h0V154.6c0-.143-.008-.285-.014-.426v-.03l-.007-.15.168-1.232,0-.03-.007-.119,0-.03v-.03l0-.03,0-.03-.02-.3,0-.029,0-.029,0-.029,0-.029,0-.029c-.886-11.678-10.169-12.79-19.991-7.119-10.4,6.005-18.808,20.387-18.808,32.4v1.181l-1.51.508c-.008-.267-.014-.536-.014-.809,0-12.982,9.089-28.545,20.332-35.036,10.665-6.157,19.581-2.939,20.453,8.611l84.411-48.758c.872-12.557,9.842-26.667,20.506-32.824,11.059-6.385,21.011-1.394,21.3,11.126q-.746.538-1.519,1.038c-.121-13.389-9.478-15.766-19.743-9.84C250.63,78.2,242.565,91.538,241.7,103.12l0,.032,0,.032,0,.032,0,.032,0,.032-.019.288,0,.032,0,.032-.012.222,0,.032,0,.032,0,.032-.005.122q-.01.24-.016.479v.032h0v.031q-.006.268-.006.534v2.367l-1.632-.185-.051.029Z"/><path class="dy" d="M156.349,156.745l-.05.029-1.371.791V155.2c0-.177,0-.353-.006-.528v-.03h0v-.031c0-.143-.008-.285-.014-.426v-.03L154.9,154l.154-1.131,0-.03-.007-.119,0-.03,0-.03,0-.03,0-.03-.02-.3,0-.029,0-.029,0-.029,0-.029,0-.029c-.885-11.587-10.066-12.942-19.888-7.271-10.4,6.005-18.811,20.406-18.811,32.417v1.181l-1.51.508c-.008-.267-.014-.536-.014-.809,0-12.982,9.091-28.564,20.334-35.054,10.665-6.157,19.567-2.839,20.439,8.711L240,103.066c.872-12.557,9.823-26.7,20.488-32.858,11.059-6.385,20.931-1.394,21.223,11.126q-.746.538-1.519,1.038c-.129-13.246-9.4-15.813-19.667-9.886-9.823,5.671-17.888,19.011-18.755,30.593l0,.032,0,.032,0,.032,0,.032,0,.032-.019.287,0,.032,0,.032-.012.222,0,.032,0,.032,0,.032-.005.122q-.01.24-.016.479v.032h0v.031q-.006.268-.006.534v2.367l-1.611-.1-.051.029Z"/><path class="dz" d="M156.334,156.754l-.05.029-1.371.791v-2.367c0-.177,0-.353-.006-.528v-.03h0v-.031c0-.143-.008-.285-.014-.426v-.03l-.007-.151.14-1.031,0-.03-.007-.119,0-.03v-.03l0-.03,0-.03-.02-.3,0-.029,0-.029,0-.029,0-.029,0-.029c-.883-11.5-9.963-13.093-19.785-7.422-10.4,6.005-18.813,20.424-18.813,32.435v1.181l-1.509.508c-.008-.267-.014-.536-.014-.809,0-12.982,9.093-28.582,20.336-35.073,10.665-6.157,19.553-2.739,20.425,8.811L240.1,103.1c.872-12.557,9.8-26.736,20.469-32.893,11.059-6.385,20.852-1.394,21.143,11.125q-.746.538-1.519,1.038c-.137-13.1-9.326-15.86-19.59-9.933-9.823,5.671-17.888,19.011-18.755,30.593l0,.032,0,.032,0,.032,0,.032,0,.032-.019.288,0,.032,0,.032-.012.222,0,.032,0,.032,0,.032-.005.122q-.01.24-.016.479v.032h0v.031q-.006.268-.006.534v2.367l-1.589-.022-.051.029Z"/><path class="ea" d="M156.319,156.762l-.05.029-1.371.791v-2.367c0-.177,0-.353-.006-.528v-.03h0v-.031c0-.143-.008-.285-.014-.426v-.03l-.007-.151.126-.931,0-.03-.007-.119,0-.03v-.03l0-.03,0-.03-.02-.3,0-.029,0-.029,0-.029,0-.029,0-.029c-.881-11.4-9.859-13.245-19.682-7.574-10.4,6.005-18.815,20.443-18.815,32.454v1.181l-1.509.508c-.008-.267-.014-.536-.014-.809,0-12.982,9.095-28.6,20.338-35.091,10.665-6.157,19.539-2.639,20.411,8.912l84.518-48.814c.872-12.557,9.786-26.77,20.451-32.927,11.059-6.385,20.772-1.395,21.064,11.125q-.746.538-1.519,1.038c-.145-12.958-9.25-15.907-19.514-9.98-9.823,5.671-17.888,19.011-18.755,30.593l0,.032,0,.032,0,.032,0,.032,0,.032-.019.288,0,.032,0,.032-.012.222,0,.032,0,.032,0,.032-.005.122q-.01.24-.016.479v.032h0v.031q-.006.268-.006.534v2.367l-1.567.059-.051.029Z"/><path class="eb" d="M156.3,156.771l-.05.029-1.371.791v-2.367c0-.177,0-.353-.006-.528v-.03h0v-.031c0-.143-.008-.285-.014-.426v-.03l-.007-.151.111-.831,0-.03-.007-.119,0-.03v-.03l0-.03,0-.03-.02-.3,0-.029,0-.029,0-.029,0-.029,0-.029c-.88-11.312-9.756-13.4-19.579-7.725-10.4,6.005-18.817,20.461-18.817,32.472v1.181l-1.509.508c-.008-.267-.014-.536-.014-.809,0-12.982,9.1-28.619,20.34-35.11,10.665-6.157,19.525-2.539,20.4,9.012l84.554-48.833c.872-12.557,9.768-26.8,20.432-32.961,11.059-6.385,20.693-1.4,20.984,11.125q-.746.538-1.519,1.038c-.153-12.815-9.174-15.954-19.438-10.027-9.823,5.671-17.888,19.011-18.755,30.593l0,.032,0,.032,0,.032,0,.032,0,.032-.019.287,0,.032,0,.032-.012.222,0,.032,0,.032,0,.032-.005.122q-.01.24-.016.479v.032h0v.031q-.006.268-.006.534v2.367l-1.545.141-.051.029Z"/><path class="ec" d="M156.289,156.779l-.05.029-1.371.791v-2.367c0-.177,0-.353-.006-.528v-.03h0v-.031c0-.143-.008-.285-.014-.426v-.03l-.007-.151.1-.731,0-.03-.007-.119,0-.03v-.03l0-.03,0-.03-.02-.3,0-.029,0-.029,0-.029,0-.029,0-.03c-.878-11.221-9.653-13.548-19.476-7.877-10.4,6.005-18.819,20.48-18.819,32.491v1.181l-1.509.508c-.008-.267-.014-.536-.014-.809,0-12.982,9.1-28.638,20.342-35.128,10.665-6.157,19.511-2.439,20.383,9.112l84.59-48.852c.872-12.557,9.749-26.838,20.414-32.995,11.059-6.385,20.613-1.4,20.9,11.124q-.746.538-1.519,1.038c-.161-12.671-9.1-16-19.362-10.074-9.823,5.671-17.888,19.011-18.755,30.593l0,.032,0,.032,0,.032,0,.032,0,.032-.019.287,0,.032,0,.032-.012.223,0,.032,0,.032,0,.032-.005.122q-.01.24-.016.479v.032h0v.031q-.006.268-.006.534V107.3l-1.523.222-.051.029Z"/><path class="ed" d="M156.274,156.788l-.05.029-1.371.791v-2.367c0-.177,0-.353-.006-.528v-.03h0v-.031c0-.143-.008-.285-.014-.426v-.03l-.007-.151.083-.631,0-.03-.007-.119,0-.03v-.03l0-.03,0-.03-.02-.3,0-.029,0-.029,0-.029,0-.029,0-.03c-.877-11.13-9.55-13.7-19.373-8.028-10.4,6.005-18.821,20.5-18.821,32.509v1.181l-1.509.508c-.008-.267-.014-.536-.014-.809,0-12.982,9.1-28.656,20.344-35.147,10.665-6.157,19.5-2.339,20.368,9.212l84.626-48.871c.872-12.557,9.731-26.872,20.4-33.029,11.059-6.385,20.534-1.4,20.825,11.124q-.746.538-1.519,1.038c-.169-12.527-9.021-16.048-19.286-10.121-9.823,5.671-17.888,19.011-18.755,30.593l0,.032,0,.032,0,.032,0,.032,0,.032-.019.287,0,.031,0,.032-.012.222,0,.032,0,.032,0,.032-.005.122q-.01.24-.016.479v.032h0v.031q-.006.268-.006.534v2.367l-1.5.3-.051.029Z"/><path class="ee" d="M156.259,156.8l-.05.029-1.371.791V155.25c0-.177,0-.353-.006-.528v-.03h0v-.031c0-.143-.008-.285-.014-.426v-.03l-.007-.151.069-.531,0-.03-.007-.119,0-.03v-.03l0-.03,0-.03-.02-.3,0-.029,0-.029,0-.029,0-.029,0-.03c-.875-11.038-9.447-13.851-19.27-8.179-10.4,6.005-18.823,20.517-18.823,32.528v1.181l-1.509.508c-.008-.267-.013-.536-.013-.809,0-12.982,9.1-28.675,20.346-35.166,10.665-6.157,19.483-2.238,20.354,9.312l84.662-48.89c.872-12.557,9.712-26.906,20.377-33.063,11.059-6.385,20.454-1.4,20.746,11.124q-.746.538-1.519,1.038C280,70.012,271.235,66.3,260.971,72.228c-9.823,5.671-17.888,19.011-18.755,30.593l0,.032,0,.032,0,.032,0,.032,0,.032-.019.287,0,.031,0,.032-.012.222,0,.032,0,.032,0,.032-.005.122q-.01.24-.016.479v.032h0v.031q-.006.268-.006.534v2.367l-1.48.385-.051.029Z"/><path class="ef" d="M156.245,156.805l-.05.029-1.371.791v-2.367c0-.177,0-.353-.006-.528v-.03h0v-.031c0-.143-.008-.285-.014-.426v-.03l-.007-.151.055-.43,0-.03-.007-.119,0-.03,0-.03,0-.03,0-.03-.02-.3,0-.029,0-.029,0-.029,0-.029,0-.03c-.873-10.947-9.344-14-19.167-8.331-10.4,6.005-18.825,20.536-18.825,32.546v1.181l-1.509.508c-.008-.267-.013-.536-.013-.809,0-12.982,9.105-28.693,20.348-35.184,10.665-6.157,19.468-2.138,20.34,9.412l84.7-48.908c.872-12.557,9.694-26.94,20.358-33.1,11.059-6.385,20.375-1.4,20.667,11.123q-.746.538-1.519,1.038c-.186-12.24-8.869-16.142-19.133-10.215-9.823,5.671-17.888,19.011-18.755,30.593l0,.032,0,.032,0,.032,0,.032,0,.032-.019.288,0,.031,0,.032-.012.222,0,.032,0,.032,0,.032-.005.122q-.01.24-.016.479v.032h0v.031q-.006.268-.006.534v2.367l-1.458.466-.051.029Z"/><path class="eg" d="M156.23,156.814l-.05.029-1.371.791v-2.367c0-.177,0-.353-.006-.528v-.03h0v-.03c0-.143-.008-.285-.014-.426v-.03l-.007-.151.041-.33,0-.03-.007-.119,0-.03v-.03l0-.03,0-.03-.02-.3,0-.029,0-.029,0-.029,0-.029,0-.03c-.872-10.855-9.241-14.154-19.064-8.482-10.4,6.005-18.827,20.554-18.827,32.565v1.181l-1.509.508c-.008-.267-.013-.536-.013-.809,0-12.982,9.107-28.712,20.35-35.2,10.665-6.157,19.454-2.038,20.326,9.512l84.734-48.927c.872-12.557,9.675-26.974,20.34-33.131,11.059-6.385,20.3-1.4,20.587,11.123q-.746.538-1.519,1.038c-.194-12.1-8.792-16.189-19.057-10.262-9.823,5.671-17.888,19.011-18.755,30.593l0,.032,0,.032,0,.032,0,.032,0,.032-.019.288,0,.031,0,.032-.012.222,0,.032,0,.032,0,.032-.005.122q-.01.24-.016.479v.032h0v.031q-.006.268-.006.534v2.367l-1.436.547-.051.029Z"/><path class="eh" d="M156.215,156.823l-.05.029-1.371.791v-2.367c0-.177,0-.353-.006-.528v-.03h0v-.03c0-.143-.008-.285-.014-.426v-.03l-.007-.151.027-.23,0-.03-.007-.119,0-.03v-.03l0-.03,0-.03-.02-.3,0-.029,0-.029,0-.029,0-.029,0-.03c-.87-10.764-9.138-14.305-18.961-8.634-10.4,6.005-18.829,20.573-18.829,32.584v1.181l-1.509.508c-.008-.267-.013-.536-.013-.809,0-12.982,9.109-28.731,20.352-35.221,10.665-6.157,19.44-1.938,20.312,9.612l84.77-48.946c.872-12.557,9.657-27.008,20.321-33.165,11.059-6.385,20.216-1.4,20.508,11.122q-.746.538-1.519,1.038c-.2-11.953-8.716-16.236-18.981-10.309C251.37,77.77,243.3,91.11,242.438,102.693l0,.032,0,.032,0,.032,0,.032,0,.032-.019.287,0,.031,0,.032-.012.222,0,.032,0,.032,0,.032-.005.122q-.01.24-.016.479v.032h0v.031q-.006.268-.006.534v2.367l-1.415.629-.051.029Z"/><path class="ei" d="M156.2,156.831l-.05.029-1.371.791v-2.367c0-.177,0-.353-.006-.528v-.03h0v-.03c0-.143-.008-.285-.014-.426v-.03l-.007-.151.013-.13,0-.03-.007-.119,0-.03v-.03l0-.03,0-.03-.02-.3,0-.029,0-.029,0-.029,0-.029,0-.03c-.868-10.672-9.035-14.457-18.858-8.785-10.4,6.005-18.832,20.591-18.832,32.6v1.181l-1.509.508c-.008-.267-.013-.536-.013-.809,0-12.982,9.111-28.749,20.355-35.24,10.665-6.158,19.426-1.838,20.3,9.712l84.805-48.965c.872-12.557,9.638-27.042,20.3-33.2,11.059-6.385,20.136-1.4,20.428,11.122q-.746.538-1.519,1.038c-.21-11.809-8.64-16.283-18.9-10.356-9.823,5.671-17.888,19.011-18.755,30.593l0,.032,0,.032,0,.032,0,.032,0,.032-.019.287,0,.031,0,.032-.012.223,0,.032,0,.032,0,.032-.005.122q-.01.24-.016.479v.032h0v.031q-.006.268-.006.534v2.367l-1.393.71-.051.029Z"/><path class="ej" d="M156.185,156.84l-.05.029-1.371.791v-2.367c0-.177,0-.353-.006-.528v-.03h0v-.03c0-.143-.008-.285-.014-.426v-.03l-.007-.151,0-.03,0-.03-.007-.119,0-.03v-.03l0-.03,0-.03-.02-.3,0-.029,0-.03,0-.029,0-.029,0-.03c-.867-10.581-8.932-14.608-18.755-8.937-10.4,6.005-18.834,20.61-18.834,32.621v1.181l-1.509.508c-.008-.267-.013-.536-.013-.809,0-12.982,9.113-28.768,20.357-35.258,10.664-6.157,19.412-1.738,20.284,9.813l84.841-48.983c.872-12.557,9.62-27.076,20.284-33.233,11.059-6.385,20.057-1.4,20.349,11.122q-.746.538-1.519,1.038c-.218-11.666-8.564-16.329-18.828-10.4-9.822,5.671-17.888,19.011-18.755,30.593l0,.032,0,.032,0,.032,0,.032,0,.032-.019.287,0,.031,0,.032-.012.222v.032l0,.032,0,.032-.005.122q-.01.24-.016.479v.032h0v.031q-.006.268-.006.534V107l-1.371.791-.051.029Z"/><path class="ek" d="M177.916,142.362V116.347l-2.573-5.054-.051-.1.021-.108.042-.213.745-.43-.131.658,2.558,5.024.036.07v26.169Zm54.166-64.242.207.083.113.045.055.108,2.609,5.124.036.07v24.592h-.648V83.7l-2.518-4.946-.566-.227Z"/><polygon class="dc" points="175.356 110.871 181.553 79.635 181.582 79.491 181.71 79.417 203.538 66.815 203.674 66.736 203.818 66.795 232.082 78.121 231.371 78.532 203.723 67.453 182.16 79.902 176.101 110.441 175.356 110.871"/><path class="el" d="M281.13,82.971l-.961-.554c-.1-5.477-2-9.41-5.038-11.428C278.731,72.78,281.017,76.94,281.13,82.971Z"/><path class="em" d="M157.072,151.979l83.984-48.488c.872-12.557,9.62-27.076,20.284-33.233,5.81-3.355,11.007-3.607,14.664-1.232-3.617-1.716-8.425-1.261-13.7,1.786-10.664,6.157-19.412,20.676-20.284,33.233l-84.841,48.983Q157.135,152.493,157.072,151.979Z"/><path class="en" d="M116.548,179.283l-.961-.555c-.008-.267-.013-.536-.013-.809,0-12.982,9.113-28.768,20.357-35.259,5.866-3.387,11.152-3.572,14.866-1.132-3.638-1.832-8.528-1.418-13.906,1.687-11.243,6.491-20.357,22.276-20.357,35.259C116.534,178.748,116.54,179.017,116.548,179.283Z"/><path class="el" d="M155.725,158.215l-.961-.555v-2.367c0-.177,0-.353-.006-.528v-.03h0V154.7c0-.143-.008-.285-.014-.426v-.03l-.007-.151,0-.03,0-.03-.007-.119,0-.03v-.03l0-.03,0-.03-.02-.3,0-.029,0-.029,0-.029,0-.029,0-.029c-.386-4.718-2.2-8.131-4.97-9.964,3.3,1.642,5.5,5.275,5.931,10.519l0,.029,0,.03,0,.029,0,.029,0,.029.02.3,0,.029,0,.03,0,.03,0,.03.007.119,0,.03,0,.03.007.151v.03c.006.141.011.283.014.426v.031h0v.03q.006.262.006.528Z"/><path class="da" d="M157.146,157.395l-.05.029-1.371.791v-2.367q0-.266-.006-.528v-.03h0v-.031c0-.143-.008-.285-.014-.426v-.03l-.007-.151,0-.03,0-.03-.007-.119,0-.03,0-.03,0-.03,0-.03-.02-.3,0-.029,0-.03,0-.029,0-.029,0-.03c-.867-10.581-8.932-14.608-18.755-8.937-10.4,6-18.834,20.61-18.834,32.621v1.18l-1.51.508c-.008-.267-.014-.536-.014-.809,0-12.982,9.114-28.767,20.357-35.258,10.664-6.157,19.412-1.738,20.284,9.813l84.841-48.984c.872-12.557,9.619-27.075,20.284-33.232,11.059-6.385,20.057-1.4,20.349,11.121q-.747.538-1.519,1.037c-.219-11.665-8.564-16.329-18.828-10.4-9.823,5.671-17.888,19.011-18.755,30.594l0,.032,0,.032,0,.032,0,.032,0,.032-.019.287,0,.032,0,.032-.012.222v.032l0,.032,0,.032-.005.122q-.01.24-.016.479v.032h0v.031q-.006.268-.006.535v2.367l-1.371.791-.051.029Z"/><polygon class="c" points="157.792 155.291 241.771 106.805 241.771 105.631 157.792 154.117 157.792 155.291"/><polygon class="dh" points="215.039 0.957 296.312 47.88 294.434 46.923 213.162 0 215.039 0.957"/><polygon class="eo" points="94.05 164.06 91.181 175.345 87.931 177.222 90.539 166.683 90.799 165.936 94.05 164.06"/><polygon class="de" points="151.572 30.758 192.208 54.22 232.844 77.681 255.98 55.378 275.811 34.038 254.805 21.909 233.799 9.781 194.019 19.466 151.572 30.758"/><path class="df" d="M232.862,77.824l-.076-.043L151.271,30.718l.272-.073L193.99,19.354l39.827-9.7.04.023L276,34.01l-.1.106L256.065,55.457ZM151.874,30.8l80.952,46.739L255.9,55.294l19.728-21.229L233.781,9.9l-39.734,9.674Z"/><polygon class="dd" points="151.572 30.758 229.692 9.538 233.799 9.781 151.572 30.758"/><polygon class="dh" points="232.844 77.681 275.811 34.038 279.117 37.953 277.925 37.391 277.924 37.397 232.844 77.681"/><polygon class="dh" points="232.844 77.681 275.811 34.038 277.925 37.391 277.924 37.397 232.844 77.681"/><path class="c" d="M227.419,81.92l-1.2.7a1.239,1.239,0,0,0-.514.982v.875c0,.376.231.552.514.389l1.2-.695a1.237,1.237,0,0,0,.514-.983v-.875C227.933,81.931,227.7,81.757,227.419,81.92Z"/><path class="ep" d="M233.771,82.24,231.1,80.7l-2.672-1.543a.61.61,0,0,0-.649-.015l-.452.261a.8.8,0,0,0-.27.71v3.014a2.273,2.273,0,0,0,.27,1.021,1.818,1.818,0,0,0,.649.735l2.672,1.543,2.672,1.542a.609.609,0,0,0,.649.015l.453-.261a.794.794,0,0,0,.27-.709V84a2.273,2.273,0,0,0-.27-1.021A1.825,1.825,0,0,0,233.771,82.24Z"/><path class="eq" d="M233.319,82.5l-2.672-1.543-2.672-1.543a.566.566,0,0,0-.649-.015.862.862,0,0,0-.27.71v3.014a2.273,2.273,0,0,0,.27,1.021,1.818,1.818,0,0,0,.649.735l2.672,1.543,2.672,1.542a.567.567,0,0,0,.649.015.862.862,0,0,0,.27-.709V84.257a2.273,2.273,0,0,0-.27-1.021A1.82,1.82,0,0,0,233.319,82.5Z"/><polygon class="er" points="93.273 165.104 90.891 174.875 88.125 176.436 90.539 166.683 93.273 165.104"/><polygon class="es" points="90.891 174.875 90.891 174.875 88.125 176.436 88.809 173.631 90.891 174.875"/><polygon class="dm" points="6.656 130.297 9.266 119.761 9.527 119.014 71.912 155.032 71.651 155.779 69.238 165.531 69.044 166.317 6.656 130.297"/><path class="do" d="M36.667,158.677l12.149,7.014a.673.673,0,0,1,.344.6v6.789l-13.526-7.809v-5.994a.688.688,0,0,1,1.033-.6Z"/><path class="et" d="M36.66,158.7l12.122,7a.651.651,0,0,1,.333.577v6.766L35.66,165.283v-6a.667.667,0,0,1,1-.578Z"/><path class="eu" d="M36.653,158.73l12.1,6.993a.63.63,0,0,1,.323.558v6.744L35.686,165.3v-6.008a.645.645,0,0,1,.967-.559Z"/><path class="ev" d="M36.646,158.757l12.069,6.982a.609.609,0,0,1,.312.54V173l-13.315-7.687V159.3a.623.623,0,0,1,.934-.54Z"/><path class="ew" d="M36.639,158.783l12.042,6.972a.587.587,0,0,1,.3.521v6.7l-13.245-7.647V159.3a.6.6,0,0,1,.9-.521Z"/><path class="ex" d="M36.632,158.81l12.015,6.961a.566.566,0,0,1,.29.5v6.676l-13.174-7.606v-6.03a.579.579,0,0,1,.869-.5Z"/><path class="ey" d="M36.625,158.836l11.989,6.95a.545.545,0,0,1,.279.483v6.653l-13.1-7.565V159.32a.557.557,0,0,1,.836-.483Z"/><path class="ez" d="M36.618,158.863,48.58,165.8a.523.523,0,0,1,.268.464v6.63l-13.033-7.525v-6.045a.536.536,0,0,1,.8-.464Z"/><path class="fa" d="M36.611,158.89l11.935,6.929a.5.5,0,0,1,.257.445v6.607l-12.963-7.484v-6.052a.514.514,0,0,1,.771-.445Z"/><path class="fb" d="M36.6,158.916l11.909,6.918a.481.481,0,0,1,.246.426v6.585L35.866,165.4v-6.059a.492.492,0,0,1,.738-.426Z"/><path class="fc" d="M36.6,158.943l11.882,6.907a.46.46,0,0,1,.235.407v6.562l-12.822-7.4V159.35a.47.47,0,0,1,.705-.407Z"/><path class="fd" d="M36.59,158.969l11.855,6.9a.438.438,0,0,1,.224.388v6.539l-12.751-7.362v-6.074a.448.448,0,0,1,.672-.388Z"/><path class="fe" d="M36.583,159l11.828,6.886a.417.417,0,0,1,.213.369v6.517l-12.681-7.321v-6.081a.426.426,0,0,1,.639-.37Z"/><path class="ff" d="M36.576,159.022l11.8,6.875a.4.4,0,0,1,.2.35v6.494l-12.61-7.281v-6.088a.4.4,0,0,1,.607-.351Z"/><path class="fg" d="M36.569,159.049l11.775,6.865a.374.374,0,0,1,.191.331v6.471L36,165.476v-6.1a.383.383,0,0,1,.574-.332Z"/><path class="fh" d="M36.562,159.075l11.748,6.854a.353.353,0,0,1,.18.312v6.448l-12.47-7.2v-6.1a.361.361,0,0,1,.541-.313Z"/><path class="fi" d="M36.555,159.1l11.721,6.843a.332.332,0,0,1,.169.293v6.426l-12.4-7.159V159.4a.339.339,0,0,1,.508-.294Z"/><path class="fj" d="M36.548,159.128l11.695,6.833a.31.31,0,0,1,.158.274v6.4L36.072,165.52V159.4a.317.317,0,0,1,.476-.275Z"/><path class="fk" d="M36.541,159.155l11.668,6.822a.289.289,0,0,1,.147.256v6.38L36.1,165.535v-6.125a.3.3,0,0,1,.443-.256Z"/><path class="fl" d="M36.534,159.181l11.641,6.811a.268.268,0,0,1,.136.237v6.358L36.124,165.55v-6.132a.273.273,0,0,1,.41-.237Z"/><path class="fm" d="M36.527,159.208l11.615,6.8a.247.247,0,0,1,.126.218v6.335l-12.117-7v-6.139a.252.252,0,0,1,.377-.218Z"/><path class="fn" d="M36.52,159.235l11.588,6.79a.225.225,0,0,1,.115.2v6.312L36.175,165.58v-6.146a.23.23,0,0,1,.344-.2Z"/><polygon class="fo" points="47.272 166.374 48.1 165.896 48.1 173.082 47.272 173.56 47.272 166.374"/><polygon class="fp" points="34.764 159.153 47.272 166.374 47.272 173.56 34.764 166.339 34.764 159.153"/><polygon class="fq" points="35.593 158.675 48.1 165.896 47.272 166.374 34.764 159.153 35.593 158.675"/><polygon class="fr" points="59.839 160.105 88.125 176.436 90.539 166.683 62.221 150.334 59.839 160.105"/><polygon class="fr" points="6.885 129.532 35.171 145.863 37.553 136.092 9.266 119.761 6.885 129.532"/><polygon class="fs" points="11.318 120.945 9.266 119.761 6.885 129.532 9.62 127.952 11.318 120.945"/><path class="ft" d="M58.918,159.573,36.092,146.394l2.382-9.77L61.3,149.8Z"/><polygon class="eo" points="36.092 146.394 38.474 136.624 55.397 146.394 36.092 146.394"/><path class="dm" d="M39.3,137.1l22,12.7-2.112,8.663-22-12.7Z"/><polygon class="fu" points="39.298 137.099 40.392 137.731 38.28 146.394 37.186 145.762 39.298 137.099"/><path class="da" d="M292.629,59.864l3.682-2.126V69.065l-5.263,4.307V62.6A3.087,3.087,0,0,1,292.629,59.864Z"/><path class="dp" d="M292.693,59.989l3.619-2.089V69.065l-5.186,4.244V62.7A3.061,3.061,0,0,1,292.693,59.989Z"/><path class="fv" d="M292.756,60.114l3.556-2.053v11L291.2,73.247V62.8A3.035,3.035,0,0,1,292.756,60.114Z"/><path class="ds" d="M292.82,60.239l3.492-2.016V69.065l-5.032,4.118V62.906A3.008,3.008,0,0,1,292.82,60.239Z"/><path class="dt" d="M292.883,60.364l3.429-1.979v10.68l-4.955,4.055V63.008A2.982,2.982,0,0,1,292.883,60.364Z"/><path class="fw" d="M292.946,60.489l3.365-1.943V69.065l-4.878,3.992V63.109A2.955,2.955,0,0,1,292.946,60.489Z"/><path class="fx" d="M293.01,60.614l3.3-1.906V69.065l-4.8,3.929V63.211A2.929,2.929,0,0,1,293.01,60.614Z"/><path class="fy" d="M293.073,60.74l3.239-1.87v10.2l-4.724,3.866V63.312A2.9,2.9,0,0,1,293.073,60.74Z"/><path class="fz" d="M293.137,60.865l3.175-1.833V69.065l-4.647,3.8V63.414A2.876,2.876,0,0,1,293.137,60.865Z"/><path class="ga" d="M293.2,60.99l3.112-1.8v9.872l-4.57,3.74v-9.29A2.849,2.849,0,0,1,293.2,60.99Z"/><path class="ec" d="M293.263,61.115l3.048-1.76v9.711l-4.493,3.677V63.617A2.823,2.823,0,0,1,293.263,61.115Z"/><path class="gb" d="M293.327,61.24l2.985-1.723v9.549L291.9,72.68V63.719A2.8,2.8,0,0,1,293.327,61.24Z"/><path class="gc" d="M293.39,61.365l2.922-1.687v9.387l-4.339,3.551v-8.8A2.77,2.77,0,0,1,293.39,61.365Z"/><path class="gd" d="M293.454,61.49l2.858-1.65v9.226l-4.262,3.488V63.922A2.743,2.743,0,0,1,293.454,61.49Z"/><path class="ge" d="M293.517,61.615,296.312,60v9.064l-4.185,3.425V64.023A2.717,2.717,0,0,1,293.517,61.615Z"/><path class="gf" d="M293.58,61.74l2.731-1.577v8.9L292.2,72.428v-8.3A2.69,2.69,0,0,1,293.58,61.74Z"/><path class="gg" d="M293.644,61.865l2.668-1.54v8.741l-4.031,3.3V64.226A2.664,2.664,0,0,1,293.644,61.865Z"/><path class="gh" d="M293.707,61.99l2.6-1.5v8.579L292.357,72.3V64.328A2.637,2.637,0,0,1,293.707,61.99Z"/><path class="gi" d="M293.771,62.115l2.541-1.467v8.418l-3.877,3.173V64.429A2.611,2.611,0,0,1,293.771,62.115Z"/><path class="gj" d="M293.834,62.24l2.478-1.43v8.256l-3.8,3.11V64.531A2.584,2.584,0,0,1,293.834,62.24Z"/><path class="gk" d="M293.9,62.365l2.414-1.394v8.094l-3.723,3.047v-7.48A2.558,2.558,0,0,1,293.9,62.365Z"/><path class="gl" d="M293.961,62.49l2.351-1.357v7.933l-3.646,2.984V64.734A2.531,2.531,0,0,1,293.961,62.49Z"/><polygon class="gm" points="293.835 61.841 300.885 57.771 300.885 68.505 293.835 72.574 293.835 61.841"/><path class="gn" d="M293.835,61.841l-1.048-.605V71.97l1.048.6v-8.03l1.319.761V62.6l-1.319-.761Zm-1.048-.605h0Z"/><path class="da" d="M91.988,177.234l-4.664,2.444-2.366,9.352,10.566-3.583.252-4.926C95.835,179.361,94.344,176,91.988,177.234Z"/><path class="dp" d="M91.959,177.382,87.3,179.827c0,.1-2.253,9.134-2.253,9.236l10.345-3.578.24-4.938C95.685,179.4,94.243,176.184,91.959,177.382Z"/><path class="fv" d="M91.93,177.53l-4.661,2.446c0,.2-2.141,8.917-2.141,9.12l10.124-3.572.228-4.949C95.534,179.435,94.141,176.37,91.93,177.53Z"/><path class="ds" d="M91.9,177.678l-4.66,2.447c0,.3-2.028,8.7-2.028,9l9.9-3.567.216-4.96C95.383,179.472,94.04,176.556,91.9,177.678Z"/><path class="dt" d="M91.871,177.826l-4.658,2.448c0,.406-1.915,8.482-1.915,8.888L94.98,185.6l.2-4.972C95.232,179.509,93.938,176.741,91.871,177.826Z"/><path class="fw" d="M91.842,177.974l-4.657,2.449c0,.508-1.8,8.265-1.8,8.772l9.462-3.556.192-4.983C95.082,179.546,93.837,176.927,91.842,177.974Z"/><path class="fx" d="M91.813,178.122l-4.655,2.45c0,.609-1.69,8.047-1.69,8.656l9.241-3.551.18-4.994C94.931,179.583,93.735,177.112,91.813,178.122Z"/><path class="fy" d="M91.783,178.27l-4.654,2.451c0,.711-1.577,7.83-1.577,8.54l9.02-3.546.168-5.006C94.78,179.62,93.634,177.3,91.783,178.27Z"/><path class="fz" d="M91.754,178.418,87.1,180.87c0,.812-1.465,7.612-1.465,8.425l8.8-3.54.156-5.017C94.629,179.657,93.532,177.484,91.754,178.418Z"/><path class="ga" d="M91.725,178.566l-4.651,2.453c0,.914-1.352,7.395-1.352,8.309l8.579-3.535.144-5.028C94.479,179.694,93.431,177.669,91.725,178.566Z"/><path class="ec" d="M91.7,178.714l-4.65,2.454c0,1.015-1.239,7.177-1.239,8.193l8.358-3.53.132-5.04C94.328,179.731,93.329,177.855,91.7,178.714Z"/><path class="gb" d="M91.667,178.862l-4.648,2.455c0,1.117-1.127,6.96-1.127,8.077l8.137-3.524.12-5.051C94.177,179.768,93.228,178.04,91.667,178.862Z"/><path class="gc" d="M91.637,179.01l-4.647,2.456c0,1.218-1.014,6.743-1.014,7.961l7.916-3.519L94,180.846C94.026,179.806,93.126,178.226,91.637,179.01Z"/><path class="gd" d="M91.608,179.158l-4.645,2.457c0,1.32-.9,6.525-.9,7.845l7.7-3.514.1-5.074C93.876,179.843,93.025,178.412,91.608,179.158Z"/><path class="ge" d="M91.579,179.306l-4.644,2.458c0,1.421-.789,6.308-.789,7.729l7.474-3.508.084-5.085C93.725,179.88,92.923,178.6,91.579,179.306Z"/><path class="gf" d="M91.55,179.454l-4.642,2.459c0,1.523-.676,6.09-.676,7.613l7.254-3.5.072-5.1C93.574,179.917,92.822,178.783,91.55,179.454Z"/><path class="gg" d="M91.52,179.6l-4.641,2.46c0,1.624-.563,5.873-.563,7.5l7.033-3.5.06-5.108C93.424,179.954,92.72,178.968,91.52,179.6Z"/><path class="gh" d="M91.491,179.75l-4.639,2.461c0,1.726-.451,5.655-.451,7.382l6.812-3.492.048-5.119C93.273,179.991,92.618,179.154,91.491,179.75Z"/><path class="gi" d="M91.462,179.9l-4.638,2.462c0,1.827-.338,5.438-.338,7.266l6.591-3.487.036-5.13C93.122,180.028,92.517,179.339,91.462,179.9Z"/><path class="gj" d="M91.433,180.046,86.8,182.509c0,1.929-.225,5.221-.225,7.15l6.37-3.481.024-5.142C92.971,180.065,92.415,179.525,91.433,180.046Z"/><path class="gk" d="M91.4,180.194l-4.635,2.464c0,2.03-.113,5-.113,7.034l6.15-3.476.012-5.153C92.821,180.1,92.314,179.711,91.4,180.194Z"/><path class="gl" d="M91.374,180.342l-4.633,2.465v6.918l5.929-3.471V181.09C92.67,180.139,92.212,179.9,91.374,180.342Z"/><polygon class="eo" points="295.155 62.603 303.657 57.693 303.657 60.396 295.155 65.305 295.155 62.603"/><polygon class="go" points="292.787 61.236 296.312 59.201 296.312 59.201 296.312 53.453 303.657 57.694 295.155 62.603 292.787 61.236"/><polygon class="gp" points="292.787 61.236 293.322 60.928 295.155 61.986 303.123 57.385 303.657 57.694 295.155 62.603 292.787 61.236"/><polygon class="eo" points="93.429 179.575 83.708 185.188 83.708 193.023 93.429 187.41 93.429 179.575"/><polygon class="dm" points="1.218 137.562 82.49 184.484 83.708 185.188 93.429 179.575 92.211 178.872 86.741 182.03 5.47 135.107 5.875 133.466 0 136.859 1.218 137.562"/><polygon class="do" points="89.177 182.03 93.429 179.575 92.211 178.872 86.741 182.03 89.177 182.03"/><polygon class="ft" points="1.218 137.562 82.49 184.484 83.708 185.188 93.429 179.575 92.955 179.301 83.708 184.639 82.49 183.936 1.218 137.013 0.475 136.584 0 136.859 1.218 137.562"/><polygon class="de" points="78.071 69.247 154.264 113.237 156.92 111.704 80.727 67.714 78.071 69.247"/><polygon class="dh" points="82.346 68.648 80.727 67.714 78.071 69.247 82.346 68.648"/><polygon class="gq" points="156.92 111.704 80.727 67.714 106.159 40.713 174.212 80.003 156.92 111.704"/><polygon class="gr" points="111.132 43.584 119.202 48.243 108.978 54.145 111.132 43.584"/><polygon class="gs" points="82.346 68.648 80.727 67.714 106.159 40.713 107.778 41.647 82.346 68.648"/><polygon class="dc" points="80.727 67.714 78.071 69.247 103.503 42.246 106.431 40.87 80.727 67.714"/><polygon class="gt" points="101.235 40.937 173.825 82.846 203.661 65.62 131.072 23.711 101.235 40.937"/><path class="gu" d="M167.786,91.784,105.29,55.7a3.261,3.261,0,0,0-.409-.236l-.006,0-.005,0a3.389,3.389,0,0,0-.339-.14l-.082-.034-.191-.049-.061-.016-.2-.052-.481-.058-.506,0-.528.063-.548.125-.566.188-.582.251-.6.315c-7.534,4.35-9.722,5.636-17.279,10a11.482,11.482,0,0,0-2.181,1.66L156.92,111.7Z"/><path class="gv" d="M115.835,61.789,105.29,55.7a3.261,3.261,0,0,0-.409-.236l-.006,0-.005,0a3.389,3.389,0,0,0-.339-.14l-.082-.034-.191-.049-.061-.016-.2-.052-.481-.058-.506,0-.528.063-.548.125-.566.188-.582.251-.6.315c-7.534,4.35-9.722,5.636-17.279,10a11.482,11.482,0,0,0-2.181,1.66l1.3.752Z"/><polygon class="gw" points="75.531 67.78 78.071 69.247 101.846 44.006 170.429 83.602 154.264 113.237 156.803 114.703 172.715 84.922 173.825 82.846 171.556 81.536 103.503 42.246 101.235 40.937 75.531 67.78"/><polygon class="gx" points="101.235 40.937 173.825 82.846 203.661 65.62 131.072 23.711 101.235 40.937"/><polygon class="gy" points="100.778 115.728 75.735 72.352 75.735 101.27 100.778 115.728"/><path class="gz" d="M82.082,109.926V99.638c0-5.142-3.629-7.237-8.082-4.666L47.355,110.355a16.422,16.422,0,0,0-5.686,5.958l14.675,8.472Z"/><path class="de" d="M69.869,88.794c-1.463-.845-3.484-.726-5.711.56L50.836,97.045l-13.322,7.691a16.319,16.319,0,0,0-5.9,6.354,16.762,16.762,0,0,0-2.184,7.644v1.584L39.273,126v-1.648c0-4.58,3.129-11.139,8.082-14L74,94.972c2.229-1.285,4.247-1.4,5.711-.56C77.541,93.16,72.041,90.048,69.869,88.794Z"/><path class="ha" d="M82.082,109.926V99.638c0-5.142-3.629-7.237-8.082-4.666L47.355,110.355c-4.953,2.859-8.082,9.419-8.082,14V126l7.482,4.32Z"/><path class="hb" d="M69.869,88.794c-1.463-.845-3.484-.726-5.711.56L50.836,97.045l-13.322,7.691a16.319,16.319,0,0,0-5.9,6.354,16.762,16.762,0,0,0-2.184,7.644v1.584L39.273,126v-1.648c0-4.58-1.248-13.666,3.7-16.526L69.622,92.445c2.229-1.285,4.247-1.4,5.711-.56C73.163,90.633,72.041,90.048,69.869,88.794Z"/><path class="db" d="M91.173,155.966l13.206-7.624,3.89-2.774L90.716,155.7l.457.264ZM52.042,133.374l.457.264,30.732-17.743a7.765,7.765,0,0,1,3.386-.944,8.021,8.021,0,0,0-4.3.944L52.042,133.374Zm19.337,11.164,30.275-17.479a8.019,8.019,0,0,1,4.3-.944,7.764,7.764,0,0,0-3.386.944L71.836,144.8Z"/><path class="dd" d="M62.269,139.279l.457.264L93,122.063c2-1.156,2.222-2.922.488-3.923l-4.378-2.528a6.32,6.32,0,0,0-3.409-.663,5.7,5.7,0,0,1,2.494.663l4.378,2.528c1.734,1,1.515,2.767-.488,3.923L62.269,139.279Zm19.337,11.164,29.818-17.215c2-1.156,2.222-2.922.488-3.923l-4.378-2.528a5.7,5.7,0,0,0-2.494-.663,6.319,6.319,0,0,1,3.409.663l4.378,2.528c1.734,1,1.515,2.767-.488,3.923l-30.275,17.48Z"/><path class="ej" d="M52.042,133.374l.457.264,30.732-17.743a7.765,7.765,0,0,1,3.386-.944,8.021,8.021,0,0,0-4.3.944Z"/><path class="dh" d="M77.89,130.788,93,122.063c2-1.156,2.222-2.922.488-3.923l-4.378-2.528a6.32,6.32,0,0,0-3.409-.663,5.7,5.7,0,0,1,2.494.663l4.378,2.528c1.734,1,1.515,2.767-.488,3.923L73.355,132.879Z"/><path class="hc" d="M188.258,112l-4.747,2.74a1.242,1.242,0,0,0-.514.983v.875c0,.375.232.552.514.389l4.747-2.74a1.237,1.237,0,0,0,.514-.983v-.875C188.772,112.008,188.539,111.835,188.258,112Z"/><path class="gx" d="M174.256,43.855l1.177.68c27.393-15.816,43.081-21.912,61.589-30.758l-1.177-.68c-18.509,8.847-34.2,14.943-61.589,30.758ZM196.27,56.564c27.393-15.816,43.081-21.912,61.589-30.758l1.177.68c-18.508,8.847-34.2,14.942-61.589,30.758l-1.177-.68Zm12.714,7.34c27.393-15.816,43.081-21.912,61.589-30.758l1.177.68c-18.508,8.847-34.2,14.942-61.589,30.758l-1.177-.68Zm-10.629-6.137c27.393-15.816,43.081-21.912,61.589-30.758l9.718,5.611c-18.508,8.847-34.2,14.943-61.589,30.758l-9.718-5.611ZM186.97,51.2c27.393-15.816,43.081-21.912,61.59-30.758l1.177.68c-18.508,8.846-34.2,14.942-61.589,30.758l-1.177-.68Zm-10.629-6.136C203.734,29.243,219.422,23.147,237.93,14.3l9.718,5.611c-18.508,8.846-34.2,14.942-61.589,30.758Z"/><polygon class="hd" points="203.801 68.531 184.401 79.732 184.401 79.732 184.396 79.759 179.719 105.536 227.419 77.996 203.801 68.531"/><path class="hd" d="M203.8,68.531l-7.021,4.053C191.2,82.979,185.9,93.52,180.475,104l45.771-26.426-.038-.061Z"/><polygon class="he" points="180.002 103.972 225.988 77.423 203.801 68.531 184.401 79.732 184.401 79.732 184.396 79.759 180.002 103.972"/><polygon class="hf" points="217.823 82.137 225.988 77.423 203.801 68.531 199.03 71.286 217.823 82.137"/><polygon class="hg" points="178.768 44.02 192.18 51.764 205.153 59.254 247.708 40.471 221.952 25.601 178.768 44.02"/><polygon class="dc" points="205.153 59.254 207.712 63.17 247.708 40.471 205.153 59.254"/><polygon class="gw" points="178.768 44.02 176.649 45.237 221.952 25.601 178.768 44.02"/><polygon class="c" points="205.153 59.254 191.96 51.637 178.768 44.021 176.649 45.237 178.868 46.518 181.087 47.798 183.306 49.08 185.525 50.361 187.743 51.642 189.962 52.923 192.181 54.203 194.399 55.485 196.618 56.765 198.837 58.046 201.056 59.327 203.275 60.608 205.494 61.889 207.712 63.17 205.153 59.254"/><path class="hh" d="M197.036,54.567l8.117,4.687,42.555-18.783-7.488-4.324-43.184,18.42ZM178.768,44.02,221.952,25.6l5.972,3.448L185.369,47.832l-6.6-3.812Zm7.512,4.337,42.555-18.783,1.177.68L187.457,49.037l-1.177-.68Zm8.668,5,43.187-18.418,1.177.68L196.242,54.11Z"/><rect class="hi" x="196.123" y="53.778" width="0.915" height="1.052" transform="translate(51.2 197.333) rotate(-59.976)"/></svg>