<svg xmlns="http://www.w3.org/2000/svg" xmlns:xlink="http://www.w3.org/1999/xlink" viewBox="0 0 366.535 267.888"><defs><style>.a{mask:url(#a);filter:url(#bf);}.ay,.b,.ba,.bb,.bc,.bg,.bi,.bl,.bm,.bn,.cj,.cl,.co{mix-blend-mode:multiply;}.b{fill:url(#c);}.c{isolation:isolate;}.ay,.bb,.bc,.bg,.bh,.bi,.bj,.bm,.bn,.bu,.cj,.cl,.co,.d{opacity:0.2;}.e{fill:#222527;}.f{fill:#2e373a;}.g{fill:#555e61;}.h{fill:url(#d);}.i{fill:url(#e);}.j{fill:url(#f);}.k{fill:#3b3e40;}.l{fill:url(#g);}.m{fill:url(#h);}.n{fill:url(#i);}.o{fill:url(#j);}.p{fill:url(#k);}.q{fill:url(#l);}.r{fill:url(#m);}.s{fill:url(#n);}.t{fill:url(#o);}.u{fill:url(#p);}.v{fill:url(#q);}.w{fill:url(#r);}.x{fill:#86898b;}.y{fill:url(#s);}.z{fill:url(#t);}.aa{fill:url(#u);}.ab{fill:url(#v);}.ac{fill:url(#w);}.ad{fill:url(#x);}.ae{fill:url(#y);}.af{fill:url(#z);}.ag{fill:url(#aa);}.ah{fill:url(#ab);}.ai{fill:url(#ac);}.aj{fill:url(#ad);}.ak{fill:url(#ae);}.al{fill:url(#af);}.am{fill:url(#ag);}.an{fill:url(#ah);}.ao{fill:url(#ai);}.ap{fill:url(#aj);}.aq{fill:url(#ak);}.ar{fill:url(#al);}.as{fill:url(#am);}.at{fill:url(#an);}.au{fill:url(#ao);}.av{fill:url(#ap);}.aw{fill:url(#aq);}.ax{fill:#f7f7f7;}.az{fill:url(#ar);}.ba,.bd,.be{opacity:0.1;}.bb{fill:url(#as);}.bc{fill:url(#at);}.bd,.be,.bh,.bj,.bk,.cm,.cp{mix-blend-mode:screen;}.bd{fill:url(#au);}.bf{fill:url(#av);}.bg{fill:url(#aw);}.bh{fill:url(#ax);}.bi{fill:url(#ay);}.bj{fill:url(#az);}.bk,.bu,.cq{fill:#fff;}.bk,.bl,.cm,.cp{opacity:0.3;}.bm{fill:url(#ba);}.bn{fill:url(#bb);}.bo{fill:url(#bc);}.bp{fill:#5a6567;}.bq{fill:url(#bd);}.br{fill:#141c1e;}.bs,.cj{fill:#303e42;}.bt{fill:#3d4b4f;}.bv{fill:#c9c9ca;}.bw{fill:#f4872a;}.bx{mask:url(#be);}.by{fill:url(#bg);}.bz{fill:#b01120;}.ca{fill:#960006;}.cb{fill:#aeb5b9;}.cc{fill:#ca2b3a;}.cd{fill:#576569;}.ce{fill:url(#bh);}.cf{fill:url(#bi);}.cg{fill:url(#bj);}.ch{fill:url(#bk);}.ci{fill:url(#bl);}.ck{fill:url(#bm);}.cl{fill:url(#bn);}.cm{fill:url(#bo);}.cn{fill:url(#bp);}.co{fill:url(#bq);}.cp{fill:url(#br);}.cr{filter:url(#b);}</style><filter id="b" x="333.829" y="-8171.555" width="14.089" height="32766" filterUnits="userSpaceOnUse" color-interpolation-filters="sRGB"><feFlood flood-color="#fff" result="bg"/><feBlend in="SourceGraphic" in2="bg"/></filter><mask id="a" x="333.829" y="-8171.555" width="14.089" height="32766" maskUnits="userSpaceOnUse"><g class="cr"/></mask><linearGradient id="c" x1="345.043" y1="57.268" x2="338.322" y2="69.722" gradientUnits="userSpaceOnUse"><stop offset="0" stop-color="#fff"/><stop offset="0.086" stop-color="#f5f5f5"/><stop offset="0.233" stop-color="#d9d9d9"/><stop offset="0.425" stop-color="#ababab"/><stop offset="0.654" stop-color="#6c6c6c"/><stop offset="0.912" stop-color="#1d1d1d"/><stop offset="1"/></linearGradient><linearGradient id="d" x1="151.317" y1="201.969" x2="149.325" y2="240.52" gradientUnits="userSpaceOnUse"><stop offset="0" stop-color="#d0d2d4"/><stop offset="1" stop-color="#86898b"/></linearGradient><linearGradient id="e" x1="135.438" y1="221.425" x2="165.186" y2="221.425" gradientUnits="userSpaceOnUse"><stop offset="0" stop-color="#eaecee"/><stop offset="1" stop-color="#a0a3a5"/></linearGradient><linearGradient id="f" x1="135.592" y1="220.677" x2="162.465" y2="220.677" xlink:href="#d"/><linearGradient id="g" x1="149.689" y1="215.039" x2="139.393" y2="228.555" gradientUnits="userSpaceOnUse"><stop offset="0" stop-color="#9ea0a2"/><stop offset="1" stop-color="#545759"/></linearGradient><linearGradient id="h" x1="151.223" y1="211.001" x2="145.702" y2="233.318" xlink:href="#d"/><linearGradient id="i" x1="150.796" y1="214.446" x2="148.413" y2="235.891" xlink:href="#d"/><linearGradient id="j" x1="150.634" y1="215.269" x2="149.316" y2="225.96" xlink:href="#d"/><linearGradient id="k" x1="149.441" y1="223.64" x2="153.244" y2="216.865" xlink:href="#d"/><linearGradient id="l" x1="143.805" y1="227.098" x2="137.33" y2="238.542" xlink:href="#d"/><linearGradient id="m" x1="149.461" y1="228.952" x2="150.667" y2="238.969" xlink:href="#d"/><linearGradient id="n" x1="154.81" y1="222.493" x2="163.864" y2="222.493" xlink:href="#d"/><linearGradient id="o" x1="161.605" y1="206.749" x2="154.677" y2="216.765" xlink:href="#d"/><linearGradient id="p" x1="149.927" y1="204.086" x2="150.229" y2="215.42" xlink:href="#d"/><linearGradient id="q" x1="136.717" y1="220.725" x2="145.627" y2="220.725" xlink:href="#d"/><linearGradient id="r" x1="155.867" y1="219.32" x2="163.868" y2="219.32" xlink:href="#e"/><linearGradient id="s" x1="161.293" y1="203.97" x2="154.357" y2="213.18" xlink:href="#e"/><linearGradient id="t" x1="147.64" y1="214.378" x2="147.193" y2="204.236" xlink:href="#d"/><linearGradient id="u" x1="146.426" y1="217.876" x2="135.909" y2="217.765" xlink:href="#d"/><linearGradient id="v" x1="142.596" y1="225.243" x2="137.339" y2="234.825" xlink:href="#e"/><linearGradient id="w" x1="147.33" y1="228.186" x2="147.815" y2="241.239" xlink:href="#e"/><linearGradient id="x" x1="319.366" y1="105.798" x2="317.374" y2="144.348" xlink:href="#d"/><linearGradient id="y" x1="303.488" y1="125.254" x2="333.236" y2="125.254" xlink:href="#e"/><linearGradient id="z" x1="303.642" y1="124.506" x2="330.515" y2="124.506" xlink:href="#d"/><linearGradient id="aa" x1="317.738" y1="118.867" x2="307.442" y2="132.384" xlink:href="#g"/><linearGradient id="ab" x1="319.273" y1="114.83" x2="313.751" y2="137.146" xlink:href="#d"/><linearGradient id="ac" x1="318.845" y1="118.274" x2="316.462" y2="139.719" xlink:href="#d"/><linearGradient id="ad" x1="318.683" y1="119.097" x2="317.365" y2="129.79" xlink:href="#d"/><linearGradient id="ae" x1="317.491" y1="127.468" x2="321.293" y2="120.692" xlink:href="#d"/><linearGradient id="af" x1="311.855" y1="130.926" x2="305.38" y2="142.37" xlink:href="#d"/><linearGradient id="ag" x1="317.51" y1="132.78" x2="318.716" y2="142.796" xlink:href="#d"/><linearGradient id="ah" x1="322.859" y1="126.323" x2="331.913" y2="126.323" xlink:href="#d"/><linearGradient id="ai" x1="329.654" y1="110.578" x2="322.726" y2="120.594" xlink:href="#d"/><linearGradient id="aj" x1="317.977" y1="107.914" x2="318.278" y2="119.247" xlink:href="#d"/><linearGradient id="ak" x1="304.766" y1="124.553" x2="313.675" y2="124.553" xlink:href="#d"/><linearGradient id="al" x1="323.916" y1="123.148" x2="331.916" y2="123.148" xlink:href="#e"/><linearGradient id="am" x1="329.341" y1="107.798" x2="322.406" y2="117.008" xlink:href="#e"/><linearGradient id="an" x1="315.69" y1="118.206" x2="315.243" y2="108.065" xlink:href="#d"/><linearGradient id="ao" x1="314.475" y1="121.705" x2="303.957" y2="121.593" xlink:href="#d"/><linearGradient id="ap" x1="310.646" y1="129.071" x2="305.388" y2="138.654" xlink:href="#e"/><linearGradient id="aq" x1="315.379" y1="132.016" x2="315.863" y2="145.067" xlink:href="#e"/><linearGradient id="ar" x1="184.794" y1="168.502" x2="278.958" y2="168.502" gradientUnits="userSpaceOnUse"><stop offset="0" stop-color="#dfdfdf"/><stop offset="1" stop-color="#adadad"/></linearGradient><linearGradient id="as" x1="339.734" y1="29.732" x2="286.788" y2="101.162" gradientUnits="userSpaceOnUse"><stop offset="0"/><stop offset="0.513" stop-color="#fff"/><stop offset="1" stop-color="#6a7c80"/></linearGradient><linearGradient id="at" x1="215.81" y1="123.846" x2="196.492" y2="96.304" gradientUnits="userSpaceOnUse"><stop offset="0" stop-color="#6a7c80"/><stop offset="1"/></linearGradient><linearGradient id="au" x1="277.441" y1="102.177" x2="347.972" y2="102.177" gradientUnits="userSpaceOnUse"><stop offset="0"/><stop offset="0.444" stop-color="#fff"/><stop offset="1"/></linearGradient><linearGradient id="av" x1="116.254" y1="194.581" x2="186.484" y2="194.581" xlink:href="#au"/><linearGradient id="aw" x1="270.261" y1="39.632" x2="321.069" y2="39.632" gradientUnits="userSpaceOnUse"><stop offset="0" stop-color="#fff"/><stop offset="1"/></linearGradient><linearGradient id="ax" x1="239.861" y1="21.364" x2="290.685" y2="21.364" xlink:href="#aw"/><linearGradient id="ay" x1="207.362" y1="12.888" x2="266.003" y2="12.888" xlink:href="#aw"/><linearGradient id="az" x1="285.702" y1="56.071" x2="337.484" y2="56.071" xlink:href="#aw"/><linearGradient id="ba" x1="110.971" y1="208.722" x2="99.177" y2="193.427" xlink:href="#aw"/><linearGradient id="bb" x1="94.501" y1="172.13" x2="79.76" y2="172.13" xlink:href="#aw"/><linearGradient id="bc" x1="81.805" y1="163.925" x2="111.043" y2="163.925" gradientUnits="userSpaceOnUse"><stop offset="0" stop-color="#333c3d"/><stop offset="1" stop-color="#404b4d"/></linearGradient><linearGradient id="bd" x1="3.47" y1="214.121" x2="79.232" y2="214.121" xlink:href="#ar"/><filter id="bf" x="333.829" y="49.119" width="14.089" height="21.368" filterUnits="userSpaceOnUse" color-interpolation-filters="sRGB"><feFlood flood-color="#fff" result="bg"/><feBlend in="SourceGraphic" in2="bg"/></filter><mask id="be" x="333.829" y="49.119" width="14.089" height="21.368" maskUnits="userSpaceOnUse"><g class="a"><path class="b" d="M342.137,56.614c-1.115,3.249-8.308,8.54-8.308,8.54s8.168,4.457,8.911,5.06,2.087.325,3.365-2.02,2.2-4.711,1.648-6.336a32.162,32.162,0,0,1-.975-4.13s-1.613-5.978-3.053-7.793c-.447-.522-.743-.816-.743-.816A22.916,22.916,0,0,1,342.137,56.614Z"/></g></mask><linearGradient id="bg" x1="345.043" y1="57.268" x2="338.322" y2="69.722" gradientUnits="userSpaceOnUse"><stop offset="0" stop-color="#fff"/><stop offset="1" stop-color="#fff"/></linearGradient><linearGradient id="bh" x1="105.135" y1="101.776" x2="225.489" y2="101.776" gradientUnits="userSpaceOnUse"><stop offset="0" stop-color="#f3f5f7"/><stop offset="1" stop-color="#c8cccd"/></linearGradient><linearGradient id="bi" x1="41.965" y1="61.309" x2="155.142" y2="61.309" xlink:href="#bh"/><linearGradient id="bj" x1="269.103" y1="96.182" x2="275.444" y2="96.182" xlink:href="#aw"/><linearGradient id="bk" x1="150.181" y1="24.4" x2="157.708" y2="24.4" xlink:href="#aw"/><linearGradient id="bl" x1="69.312" y1="183.887" x2="-36.829" y2="124.183" xlink:href="#ar"/><linearGradient id="bm" x1="225.801" y1="125.866" x2="241.238" y2="125.866" xlink:href="#bh"/><linearGradient id="bn" x1="230.791" y1="123.371" x2="237.155" y2="123.371" xlink:href="#aw"/><linearGradient id="bo" x1="231.381" y1="127.559" x2="237.604" y2="127.559" xlink:href="#aw"/><linearGradient id="bp" x1="158.823" y1="162.211" x2="174.261" y2="162.211" xlink:href="#bh"/><linearGradient id="bq" x1="163.812" y1="159.715" x2="170.177" y2="159.715" xlink:href="#aw"/><linearGradient id="br" x1="164.403" y1="163.903" x2="170.626" y2="163.903" xlink:href="#aw"/></defs><title>suv</title><g class="c"><path class="d" d="M353.1,100.849,270.687,53.264,20.872,197.5C-16,211.949,29.388,234.1,29.388,234.1l52.367,29.014s29.295,12.533,63.766-3.029l203.22-117.334S385.689,119.663,353.1,100.849Z"/><path class="e" d="M338.453,109.729,314.766,96.978s11.05-9.356,19.952-4.715S339.622,106.3,338.453,109.729Z"/><path class="e" d="M168.167,187.754c-8.863-2.223-14.256,2.222-14.256,2.222L168.592,206.1l5.092.353.051-.1s2.9-7.913,2.945-8.038A10.573,10.573,0,0,0,168.167,187.754Z"/><path class="f" d="M170.831,208.323c0-7.459-2.811-12.533-7.278-14.558l-15.14-8.248c-3.271-.242-8.774,1.326-12.793,3.647-12.461,7.2-23.624,19.191-25.964,34.271-.133.857.257,8.829-.069,10.358.044.031.091.066.139.1l24.489,13.991c3.89,1.936,9.1,1.482,14.833-1.826C161.076,239.111,170.832,222.215,170.831,208.323Z"/><path class="g" d="M170.831,208.323c0,13.892-9.755,30.787-21.783,37.731s-21.785,1.314-21.785-12.578,9.754-30.785,21.782-37.73S170.832,194.43,170.831,208.323Z"/><path class="f" d="M170.215,209.173c0,12.954-9.093,28.7-20.311,35.182s-20.311,1.227-20.311-11.73,9.093-28.705,20.311-35.181S170.215,196.217,170.215,209.173Z"/><path class="h" d="M166.1,212.31c0,10.069-7.067,22.314-15.789,27.35s-15.791.954-15.791-9.117,7.071-22.314,15.791-27.35S166.1,202.239,166.1,212.31Z"/><path class="i" d="M165.186,212.838c0,9.485-6.659,21.02-14.874,25.762s-14.874.9-14.874-8.586,6.66-21.02,14.874-25.765S165.186,203.352,165.186,212.838Z"/><path class="j" d="M149.029,236.194c7.422-4.284,13.436-14.7,13.436-23.274s-6.014-12.042-13.436-7.76c-.4.228-.788.487-1.176.748a34.225,34.225,0,0,0-12.2,21.079c-.037.486-.062.971-.062,1.449C135.592,237.006,141.608,240.478,149.029,236.194Z"/><path class="k" d="M160.675,211.812c0-3.651-1.094-6.373-2.921-7.97-2.348-.962-5.393-.6-8.725,1.317-.4.228-.788.487-1.176.748a34.225,34.225,0,0,0-12.2,21.079c-.037.486-.062.971-.062,1.449,0,3.65,1.094,6.373,2.922,7.969,2.347.963,5.395.606,8.727-1.318C154.661,230.8,160.675,220.382,160.675,211.812Z"/><path class="l" d="M154.3,215.035c0,5.118-3.64,11.338-8.132,13.9s-8.135.481-8.135-4.635,3.641-11.339,8.135-13.9S154.3,209.917,154.3,215.035Z"/><path class="m" d="M156.907,216.272c0,5.116-3.639,11.336-8.133,13.9s-8.134.483-8.134-4.635,3.641-11.336,8.134-13.9S156.907,211.153,156.907,216.272Z"/><path class="n" d="M156.2,218.271a13.768,13.768,0,0,1-6.227,10.786c-3.438,1.983-6.226.373-6.226-3.6a13.768,13.768,0,0,1,6.226-10.786C153.411,212.69,156.2,214.3,156.2,218.271Z"/><path class="o" d="M152.685,219.588a6.145,6.145,0,0,1-2.78,4.815c-1.537.888-2.782.169-2.782-1.606a6.15,6.15,0,0,1,2.782-4.818C151.439,217.1,152.685,217.815,152.685,219.588Z"/><path class="p" d="M151.749,217.742a2.373,2.373,0,0,1,.353,1.33,6.148,6.148,0,0,1-2.78,4.817,2.02,2.02,0,0,1-1.846.238c.474.722,1.378.883,2.43.274a6.145,6.145,0,0,0,2.78-4.815A1.865,1.865,0,0,0,151.749,217.742Z"/><path class="q" d="M138.271,238.455c1.067-1.14,5.377-5.891,6.654-9.476a4.291,4.291,0,0,1-1.086-2.367c-.508,1.223-2.951,6.619-7.333,9.179A8.7,8.7,0,0,0,138.271,238.455Z"/><path class="r" d="M150.312,238.6c.445-.257.886-.537,1.32-.833-.038-2.311-.138-7.119-.34-9.641a9.945,9.945,0,0,1-1.321.931,6.6,6.6,0,0,1-1.853.743,80.184,80.184,0,0,1,.668,9.594C149.288,239.159,149.8,238.9,150.312,238.6Z"/><path class="s" d="M163.864,220.678a55.894,55.894,0,0,1-8,.077,13.879,13.879,0,0,1-1.058,2.839c1.308.115,6.162.552,7.653.715A33.281,33.281,0,0,0,163.864,220.678Z"/><path class="t" d="M163.924,206.646a8.354,8.354,0,0,0-1.857-2.525,21.577,21.577,0,0,1-7.925,10.008,3.206,3.206,0,0,1,1.5,1.5C156.911,214.523,162.6,209.457,163.924,206.646Z"/><path class="u" d="M148.131,205.7a39.226,39.226,0,0,1,.743,9.731,9.619,9.619,0,0,1,1.1-.754,7.212,7.212,0,0,1,1.346-.6,88.794,88.794,0,0,0,.411-10.558c-.468.222-.938.464-1.416.737A22.493,22.493,0,0,0,148.131,205.7Z"/><path class="v" d="M137.982,218.935a34.016,34.016,0,0,0-1.266,3.371,51.862,51.862,0,0,0,7.507.113,14.605,14.605,0,0,1,1.4-3.19A30.673,30.673,0,0,1,137.982,218.935Z"/><path class="w" d="M163.868,220.678a26.114,26.114,0,0,0-1.975-2.931,27.821,27.821,0,0,1-5.794,1.82,10.872,10.872,0,0,1-.232,1.188A55.751,55.751,0,0,0,163.868,220.678Z"/><path class="x" d="M161.936,217.8l0-.006-.013-.007Z"/><path class="x" d="M160.048,216.873a22.731,22.731,0,0,1-3.876,2.016c-.016.226-.043.453-.073.679a27.64,27.64,0,0,0,5.767-1.808Z"/><path class="y" d="M162.018,204.256l-3.036.25s-1.286,4.446-4.686,6.45l-.153,3.172A21.621,21.621,0,0,0,162.018,204.256Z"/><path class="x" d="M158.982,204.506l-1.225-.665-.726-.55s-1.74,5.569-4.719,6.809l1.984.856C157.7,208.952,158.982,204.506,158.982,204.506Z"/><path class="x" d="M144.836,208.618a10.505,10.505,0,0,1-.227,2.837l2.014,1.647a11.668,11.668,0,0,0-.661-5.592C145.579,207.864,145.205,208.237,144.836,208.618Z"/><path class="z" d="M146.608,213.2l2.266,2.225a39.129,39.129,0,0,0-.743-9.731,26,26,0,0,0-2.17,1.816A11.621,11.621,0,0,1,146.608,213.2Z"/><path class="x" d="M143.242,217.26l-2.541-1.344-1.07-.273c-.121.216-.243.433-.36.649A39.565,39.565,0,0,0,143.242,217.26Z"/><path class="aa" d="M145.627,219.229l-2.385-1.969a39.965,39.965,0,0,1-3.972-.965c-.465.865-.9,1.745-1.288,2.64A30.673,30.673,0,0,0,145.627,219.229Z"/><path class="x" d="M140.848,223.328l3.376-.909a51.862,51.862,0,0,1-7.507-.113q-.091.291-.177.581Z"/><path class="ab" d="M143.839,226.612l-3.06.551s-1.81,4.256-4.517,5.737l.268,2.877C140.9,233.213,143.332,227.832,143.839,226.612Z"/><path class="x" d="M138.456,227.019a4.052,4.052,0,0,1-2.756,3.294,12.5,12.5,0,0,0,.565,2.585c2.705-1.482,4.514-5.735,4.514-5.735Z"/><path class="ac" d="M148.774,239.4l.013-.02a79.875,79.875,0,0,0-.668-9.577l-1.535,1.395a27.094,27.094,0,0,1,0,6.152Z"/><path class="x" d="M146.345,231.129a5.631,5.631,0,0,1-1.384.126,29,29,0,0,1-.035,4.939l1.658,1.153a27.094,27.094,0,0,0,0-6.152Z"/><path class="x" d="M154.81,223.594c-.09.181-.186.358-.284.534l2.259.852,2.092.567,3.586-1.239C160.971,224.146,156.118,223.709,154.81,223.594Z"/><path class="f" d="M338.878,112.152c0-7.459-2.81-12.532-7.276-14.559l-15.14-8.248c-3.272-.241-8.774,1.326-12.794,3.646-12.463,7.195-23.624,19.191-25.964,34.27-.134.856.257,8.83-.068,10.359a1.255,1.255,0,0,0,.138.095l24.489,13.992c3.891,1.935,9.1,1.482,14.833-1.827C329.125,142.938,338.88,126.043,338.878,112.152Z"/><path class="g" d="M338.878,112.152c0,13.891-9.753,30.786-21.782,37.73S295.313,151.2,295.313,137.3s9.754-30.785,21.782-37.731S338.88,98.259,338.878,112.152Z"/><path class="f" d="M338.264,113c0,12.956-9.093,28.705-20.31,35.185s-20.312,1.227-20.312-11.73,9.094-28.706,20.312-35.181S338.264,100.046,338.264,113Z"/><path class="ad" d="M334.151,116.138c0,10.069-7.068,22.313-15.79,27.349s-15.791.954-15.791-9.116,7.072-22.314,15.791-27.348S334.151,106.068,334.151,116.138Z"/><path class="ae" d="M333.236,116.668c0,9.484-6.66,21.017-14.875,25.76s-14.873.9-14.873-8.586,6.659-21.022,14.873-25.763S333.236,107.179,333.236,116.668Z"/><path class="af" d="M317.079,140.023c7.422-4.286,13.436-14.705,13.436-23.275s-6.015-12.042-13.436-7.76c-.4.23-.788.485-1.176.749a34.21,34.21,0,0,0-12.2,21.077c-.037.485-.061.971-.061,1.45C303.642,140.835,309.658,144.307,317.079,140.023Z"/><path class="k" d="M328.724,115.642c0-3.652-1.093-6.375-2.922-7.97-2.347-.961-5.392-.606-8.724,1.317-.4.23-.788.485-1.176.749a34.21,34.21,0,0,0-12.2,21.077c-.037.485-.061.971-.061,1.45,0,3.651,1.094,6.372,2.92,7.967,2.349.963,5.4.606,8.728-1.317C322.71,134.632,328.724,124.21,328.724,115.642Z"/><path class="ag" d="M322.345,118.865c0,5.116-3.64,11.335-8.131,13.895s-8.136.483-8.136-4.633,3.641-11.338,8.136-13.9S322.345,113.745,322.345,118.865Z"/><path class="ah" d="M324.957,120.1c0,5.118-3.64,11.337-8.133,13.9s-8.135.483-8.135-4.635,3.642-11.337,8.135-13.9S324.957,114.981,324.957,120.1Z"/><path class="ai" d="M324.248,122.1a13.767,13.767,0,0,1-6.227,10.786c-3.438,1.985-6.227.374-6.227-3.6a13.768,13.768,0,0,1,6.227-10.785C321.46,116.516,324.248,118.126,324.248,122.1Z"/><path class="aj" d="M320.734,123.417a6.15,6.15,0,0,1-2.779,4.816c-1.538.887-2.782.168-2.782-1.607a6.142,6.142,0,0,1,2.782-4.817C319.489,120.924,320.734,121.642,320.734,123.417Z"/><path class="ak" d="M319.8,121.57a2.374,2.374,0,0,1,.352,1.33,6.146,6.146,0,0,1-2.781,4.817,2.011,2.011,0,0,1-1.846.239c.474.723,1.378.884,2.431.276a6.15,6.15,0,0,0,2.779-4.816A1.865,1.865,0,0,0,319.8,121.57Z"/><path class="al" d="M306.321,142.283c1.066-1.14,5.377-5.891,6.653-9.477a4.285,4.285,0,0,1-1.086-2.367c-.508,1.224-2.95,6.621-7.332,9.181A8.709,8.709,0,0,0,306.321,142.283Z"/><path class="am" d="M318.361,142.428c.446-.258.888-.539,1.32-.833-.038-2.312-.138-7.118-.339-9.64a10.057,10.057,0,0,1-1.321.929,6.542,6.542,0,0,1-1.853.745,79.926,79.926,0,0,1,.668,9.592C317.337,142.988,317.845,142.727,318.361,142.428Z"/><path class="an" d="M331.913,124.507a56.141,56.141,0,0,1-8,.078,13.887,13.887,0,0,1-1.058,2.837c1.307.117,6.162.552,7.653.717A33.8,33.8,0,0,0,331.913,124.507Z"/><path class="ao" d="M331.974,110.473a8.416,8.416,0,0,0-1.856-2.524,21.593,21.593,0,0,1-7.925,10.007,3.2,3.2,0,0,1,1.5,1.506C324.96,118.35,330.65,113.285,331.974,110.473Z"/><path class="ap" d="M316.181,109.525a39.289,39.289,0,0,1,.742,9.73,9.686,9.686,0,0,1,1.1-.752,7.113,7.113,0,0,1,1.345-.605,88.768,88.768,0,0,0,.411-10.557c-.469.22-.937.462-1.416.739A22.023,22.023,0,0,0,316.181,109.525Z"/><path class="aq" d="M306.031,122.762a34.609,34.609,0,0,0-1.265,3.371,52,52,0,0,0,7.508.114,14.537,14.537,0,0,1,1.4-3.189A30.71,30.71,0,0,1,306.031,122.762Z"/><path class="ar" d="M331.916,124.507a26.15,26.15,0,0,0-1.975-2.931,27.716,27.716,0,0,1-5.794,1.82,11.444,11.444,0,0,1-.231,1.189A55.8,55.8,0,0,0,331.916,124.507Z"/><path class="x" d="M329.986,121.629l0-.007-.012-.006Z"/><path class="x" d="M328.1,120.7a22.89,22.89,0,0,1-3.877,2.018c-.017.223-.042.45-.073.676a27.542,27.542,0,0,0,5.768-1.807Z"/><path class="as" d="M330.067,108.085l-3.036.249s-1.285,4.447-4.685,6.45l-.152,3.173A21.625,21.625,0,0,0,330.067,108.085Z"/><path class="x" d="M327.031,108.334l-1.225-.663-.727-.552s-1.738,5.572-4.719,6.811l1.984.854C325.746,112.78,327.031,108.334,327.031,108.334Z"/><path class="x" d="M312.885,112.447a10.511,10.511,0,0,1-.226,2.837l2.014,1.646a11.674,11.674,0,0,0-.661-5.591C313.627,111.694,313.253,112.065,312.885,112.447Z"/><path class="at" d="M314.658,117.031l2.266,2.224a39.1,39.1,0,0,0-.742-9.73,25.516,25.516,0,0,0-2.171,1.816A11.616,11.616,0,0,1,314.658,117.031Z"/><path class="x" d="M311.291,121.088l-2.543-1.344-1.069-.27c-.121.214-.241.433-.36.648A40.013,40.013,0,0,0,311.291,121.088Z"/><path class="au" d="M313.675,123.058l-2.384-1.971a40.368,40.368,0,0,1-3.973-.964c-.464.865-.9,1.746-1.288,2.639A30.71,30.71,0,0,0,313.675,123.058Z"/><path class="x" d="M308.9,127.155l3.376-.908a52,52,0,0,1-7.508-.114c-.062.2-.12.389-.178.582Z"/><path class="av" d="M311.888,130.439l-3.059.551s-1.812,4.257-4.517,5.739l.267,2.876C308.945,137.041,311.38,131.66,311.888,130.439Z"/><path class="x" d="M306.505,130.846a4.051,4.051,0,0,1-2.756,3.294,12.591,12.591,0,0,0,.563,2.587c2.705-1.484,4.516-5.737,4.516-5.737Z"/><path class="aw" d="M316.823,143.226l.013-.02a79.651,79.651,0,0,0-.668-9.577l-1.535,1.393a27.007,27.007,0,0,1,0,6.153Z"/><path class="x" d="M314.394,134.957a5.545,5.545,0,0,1-1.385.127,28.879,28.879,0,0,1-.035,4.94l1.658,1.153a27.007,27.007,0,0,0,0-6.153Z"/><path class="x" d="M322.859,127.422c-.091.18-.187.359-.283.534l2.259.854,2.092.566,3.586-1.236C329.021,127.973,324.166,127.538,322.859,127.422Z"/><path class="ax" d="M349.27,62.723c-.516-7.936-6.287-13.6-6.287-13.6-1.545-5.771-18.86-19.063-29.578-25.865S279.7,5.631,270.12,2.231s-23.085-2.268-27.31-.825-48.851,21.437-48.851,21.437c-7.833-1.237-30.3-1.236-41.224,2.268s-88.22,50.5-93.373,53.69S33.186,97.865,31.434,100.03s-24.94,31.742-24.94,31.742L3.2,136.2c-3.916,6.7-1.031,25.661-1.031,25.661C1.959,164.955,0,165.574,0,169.7s.825,17.519,1.495,20.867A4.143,4.143,0,0,0,5.05,194.12l.413,2.063c.927,1.647,8.76,7.213,8.76,7.213l1.752-.412,2.576,1.546,2.577,5.258,27.826,16.8h5.359l8.554,4.123c-.413,3.71,12.162,7.626,12.162,7.626l.824-.824,4.018,1.236c24.221,4.067,40.093-4.538,42.533-5.978l1.765-2.7,3.553-8.969s10.083-22.189,26.391-29.468,20.178,6.173,20.27,6.542c.064.254-.4,5.216-.7,8.288l115.087-65.822.649-.4,2.9-8.036s9.121-24.693,26.442-36.025,20.915,3.87,20.638,5.8l-.989,7.919c7.019-5.779,9.668-14.326,10.861-20.587C350.507,82.82,349.786,70.659,349.27,62.723Z"/><path class="ay" d="M349.076,87.967c-.209.765-.767-.766-1.6-3.179s-1.485-6.637-.789-8.029c.511-1.021,2.168-4.711,3.016-6.606-.13-2.661-.288-5.212-.432-7.429a22.536,22.536,0,0,0-5-12.123l.232,4.558L343.181,61.2a10.609,10.609,0,0,0-3.01-.83c-2.7,2.129-6.185,4.868-6.185,4.868-3.322,2.91-30.443,16.88-30.443,16.88l-85.607,45.993s-52.059,28.7-58.09,29.978-4.33-14.692-3.055-22.335,4.416-19.446,4.416-19.446H167L285.717,84.033s-42.062-11.94-44.9-12.414-10.691,0-15.328,2.459-32.543,17.314-44.936,23.843-53.642,30.18-62.346,35.194-9.907,11.893-9.907,11.893L92.776,160.185c2.783-6.226,5.53-12.416,6.4-14.533,1.958-4.756,7.488-10.441,7.488-10.441s-12.171,6.3-17.8,6.238S67,133.273,55.439,126.127,35.216,112.988,33.1,108.69c-1.9-3.854,5.148-9.6,6.63-10.752l-8.294,6.334-5.845,3.813-.815.394c-7.418,9.439-18.28,23.295-18.28,23.295L3.2,136.2c-3.916,6.7-1.031,25.661-1.031,25.661C1.959,164.955,0,165.574,0,169.7s.825,17.519,1.495,20.867A4.143,4.143,0,0,0,5.05,194.12l.413,2.063c.927,1.647,8.76,7.213,8.76,7.213l1.752-.412,2.576,1.546,2.577,5.258,27.826,16.8h5.359l8.554,4.123c-.413,3.71,12.162,7.626,12.162,7.626l.824-.824,4.018,1.236c24.221,4.067,40.093-4.538,42.533-5.978l1.765-2.7,3.553-8.969s10.083-22.189,26.391-29.468,20.178,6.173,20.27,6.542c.064.254-.4,5.216-.7,8.288l115.087-65.822.649-.4,2.9-8.036s9.121-24.693,26.442-36.025,20.915,3.87,20.638,5.8l-.989,7.919c7.019-5.779,9.668-14.326,10.861-20.587a33.955,33.955,0,0,0,.438-3.419C349.379,86.955,349.132,87.76,349.076,87.967Zm-272.336,134a25.623,25.623,0,0,1-8.144-1.587c-4.9-1.678-18.806-8.652-32.976-17.351-13.974-8.574-29.592-19.033-32.044-23.642-.9-2.73-1.71-6.942.322-10.093.342,2.345.949,4.725,2.025,6.1C8.583,178.8,26.451,191.8,39.074,199.56s32.619,18.324,41.21,19.769a.947.947,0,0,0,.437-.122A8.7,8.7,0,0,1,76.74,221.964ZM181.7,186.41l4.779-9.719,90.957-47.518,6.793,1.159Z"/><polygon class="az" points="278.958 141.413 184.794 194.299 185.624 195.59 277.441 143.532 278.958 141.413"/><polygon class="ba" points="170.974 166.191 292.52 99.963 284.917 106.164 179.277 163.903 170.974 166.191"/><polygon class="ba" points="186.484 176.692 181.705 186.41 284.234 130.333 277.441 129.174 186.484 176.692"/><path class="ay" d="M339.4,101.979l-.989,7.919c7.019-5.779,9.668-14.326,10.861-20.587.131-.691.236-1.457.327-2.264l-2.513,3.392s-7.723-15.551-25.076-6.028-30.368,29.31-37.774,45.921L181.7,186.41s-10.581-15.234-29.416-3.7-31.424,35.445-32.483,35.869-15.45,8.994-43.065,3.387a25.623,25.623,0,0,1-8.144-1.587c-4.9-1.678-18.806-8.652-32.976-17.351S5.577,183.692,3.47,179.189l-1.356-3.222L.1,173.382c.241,5.662.865,14.543,1.392,17.183A4.143,4.143,0,0,0,5.05,194.12l.413,2.063c.927,1.647,8.76,7.213,8.76,7.213l1.752-.412,2.576,1.546,2.577,5.258,27.826,16.8h5.359l8.554,4.123c-.413,3.71,12.162,7.626,12.162,7.626l.824-.824,4.018,1.236c24.221,4.067,40.093-4.538,42.533-5.978l1.765-2.7,3.553-8.969s10.083-22.189,26.391-29.468,20.178,6.173,20.27,6.542c.064.254-.4,5.216-.7,8.288l115.087-65.822.649-.4,2.9-8.036s9.121-24.693,26.442-36.025S339.675,100.045,339.4,101.979Z"/><path class="bb" d="M342.983,49.119c-1.181-4.411-11.571-13.213-21.189-20.153l-1.1.3,13.138,11.463a6.5,6.5,0,0,1,3.956,3.566c1.163,2.8,3.116,9.766-3.507,14.1s-48.561,25.64-48.561,25.64L272.4,87.655l2.779,9.706,28.368-15.241s27.121-13.97,30.443-16.88c0,0,8.36-6.564,9.209-7.27.6-.5.835-4.949.926-7.562C343.45,49.583,342.983,49.119,342.983,49.119Z"/><path class="bc" d="M275.174,97.362,272.4,87.655,167,116.311h-5.789s-3.142,11.8-4.416,19.446-2.977,23.608,3.055,22.335,58.09-29.978,58.09-29.978Z"/><path class="bd" d="M322.008,84.411c13.486-7.4,21.155.341,23.9,4.159l2.06-3.286s-9.89-21.381-35.044-5.23-35.487,49.119-35.487,49.119l6.793,1.159C291.64,113.721,304.656,93.934,322.008,84.411Z"/><g class="be"><path class="bf" d="M120,218.4c1.905-2.179,14.221-24.626,32.29-35.69,18.835-11.532,29.416,3.7,29.416,3.7l4.779-9.719c-9.7-8.3-26.392-7-34.416-2.8C122.458,189.4,116.254,211.7,116.254,211.7l3.551,6.873Z"/></g><path class="bg" d="M270.261,49.507s3.205.6,4.974-.387S315.318,29.065,321.069,29.6a16.408,16.408,0,0,0-6.621,1.188c-7.593,2.683-28.746,12.3-39.736,17.982A12.925,12.925,0,0,1,270.261,49.507Z"/><path class="bh" d="M241.194,32.489s-3.207-2.487.327-4.386,25.008-11.587,33.649-14.925,11-3.732,15.515-1.7a84.252,84.252,0,0,0-12.766,3.8c-6.743,2.619-32.4,13.618-33.91,14.3S240.539,31.835,241.194,32.489Z"/><path class="bi" d="M251.47,4.865c-10.6,4.19-38.072,15.11-44.108,19.076l4.243-.907S253.7,2.574,266,2.05C266,2.05,262.076.676,251.47,4.865Z"/><path class="bj" d="M337.484,43.684a6.6,6.6,0,0,0-3.655-2.954L285.7,66.468l1.08,4.942Z"/><path class="bk" d="M135.2,97.178c.18.333.055.721-.4,1.016l-39.143,23.86a3,3,0,0,1-2.579.178l-.578-.268a1.475,1.475,0,0,1-.223-.129,1.042,1.042,0,0,0,.505.436l.579.268a3,3,0,0,0,2.579-.179L135.082,98.5C135.693,98.109,135.724,97.548,135.2,97.178Z"/><path class="ay" d="M92.681,120.85l39-24.017a2.888,2.888,0,0,1,2.56-.153l.76.374a1.339,1.339,0,0,1,.2.124,1.072,1.072,0,0,0-.486-.432l-.761-.374a2.892,2.892,0,0,0-2.56.152l-39,24.018c-.6.391-.633.937-.121,1.293C92.106,121.514,92.233,121.14,92.681,120.85Z"/><path class="bk" d="M123.117,90.737c.181.333.056.722-.4,1.016L83.571,115.613a3,3,0,0,1-2.579.177l-.579-.267a1.513,1.513,0,0,1-.222-.129,1.049,1.049,0,0,0,.506.436l.578.268a3,3,0,0,0,2.58-.179L123,92.06C123.608,91.669,123.638,91.108,123.117,90.737Z"/><path class="ay" d="M80.6,114.409l39-24.017a2.887,2.887,0,0,1,2.56-.153l.761.374a1.4,1.4,0,0,1,.2.123,1.071,1.071,0,0,0-.485-.431l-.761-.374a2.888,2.888,0,0,0-2.561.154l-39,24.016c-.6.391-.633.936-.121,1.293C80.02,115.074,80.147,114.7,80.6,114.409Z"/><path class="bk" d="M112.548,83.874c.18.333.055.721-.4,1.016L73,108.75a3,3,0,0,1-2.58.178l-.578-.268a1.442,1.442,0,0,1-.223-.129,1.049,1.049,0,0,0,.506.437l.579.268a3,3,0,0,0,2.579-.178L112.427,85.2C113.039,84.805,113.069,84.244,112.548,83.874Z"/><path class="ay" d="M70.026,107.547l39-24.018a2.89,2.89,0,0,1,2.561-.152l.76.374a1.334,1.334,0,0,1,.2.124,1.077,1.077,0,0,0-.486-.432l-.761-.374a2.887,2.887,0,0,0-2.559.153l-39,24.017c-.6.391-.634.937-.122,1.293C69.451,108.211,69.579,107.837,70.026,107.547Z"/><path class="bk" d="M102.225,76.988c.181.333.056.721-.4,1.016l-39.143,23.86a3,3,0,0,1-2.579.178l-.579-.267a1.434,1.434,0,0,1-.222-.129,1.044,1.044,0,0,0,.506.437l.579.268a3,3,0,0,0,2.579-.179L102.1,78.312C102.716,77.92,102.747,77.358,102.225,76.988Z"/><path class="ay" d="M59.7,100.661l39-24.018a2.889,2.889,0,0,1,2.56-.153l.761.375a1.277,1.277,0,0,1,.2.123,1.065,1.065,0,0,0-.485-.432l-.761-.374a2.891,2.891,0,0,0-2.561.153l-39,24.017c-.6.391-.633.936-.121,1.293C59.129,101.325,59.255,100.951,59.7,100.661Z"/><path class="bl" d="M39.833,189.371C8.2,170.666,3.47,162.76,3.47,162.76v-.3s-.208,9.531,2.453,12.94S26.451,191.8,39.074,199.56s32.619,18.324,41.21,19.769c0,0,2.648.179,3.339-9C83.623,210.332,71.463,208.077,39.833,189.371Z"/><path class="ba" d="M35.62,203.027c14.17,8.7,28.077,15.673,32.976,17.351a25.623,25.623,0,0,0,8.144,1.587h0a8.7,8.7,0,0,0,3.98-2.757.947.947,0,0,1-.437.122c-8.591-1.445-28.589-12.015-41.21-19.769S8.583,178.8,5.923,175.395c-1.076-1.378-1.683-3.758-2.025-6.1-2.032,3.15-1.223,7.363-.322,10.093C6.028,183.993,21.646,194.452,35.62,203.027Z"/><path class="bm" d="M103.477,197.528s-3.854,8.285-6.624,12.053-13.23.752-13.23.752a24.827,24.827,0,0,1-1.107,6.224c5.969-.134,25.015-.789,28.841-3.734,4.55-3.5,17.612-25.5,17.612-25.5Z"/><path class="bn" d="M95.059,186.453c-6.166.434-11.9-1.3-25.62-6.006S34.875,163.7,24.106,155.829s-17.89-19.746-17.89-19.746-.635-.989-1.328-2.154L3.2,136.2c-1.586,2.714-2.057,7.44-2.055,12.1l2,6.478.328,7.672,1.751,2.385C8.5,168.274,17.4,176.1,39.833,189.371c31.629,18.706,43.789,20.961,43.789,20.961l1.852-3.732,2.29-1.042,10.207-16.287S101.224,186.019,95.059,186.453Z"/><path class="bo" d="M342.866,99.36c.5-11.682-8.371-11.336-11.937-11.336-3.747,0-9.077,2.6-13.784,5.685-17.93,11.73-27.207,36.424-27.6,37.493l-.856,3L178.024,196.433c-.806-9.97-9.85-14.485-25.112-7.5-18.189,8.328-27.443,29.993-27.873,30.94l-.03.066-1.327,3.351s-20.682,10.5-44.145,5.868c0,0-.469-1.311-5.438-3.02-5.035-1.733-14.631-5.207-38.769-19.334C16.958,196.054,5.646,186.594.55,181.189c.281,4.008.629,7.8.944,9.376A4.143,4.143,0,0,0,5.05,194.12l.413,2.063c.927,1.647,8.76,7.213,8.76,7.213l1.752-.412,2.576,1.546,2.577,5.258,27.826,16.8h5.359l8.554,4.123c-.413,3.71,12.162,7.626,12.162,7.626l.824-.824,4.018,1.236c24.221,4.067,40.093-4.538,42.533-5.978l1.765-2.7,3.553-8.969s10.083-22.189,26.391-29.468,20.178,6.173,20.27,6.542c.064.254-.4,5.216-.7,8.288l115.087-65.822.649-.4,2.9-8.036s9.121-24.693,26.442-36.025,20.915,3.87,20.638,5.8l-.991,7.932c5.177-4.258,7.975-10.021,9.565-15.267A62.644,62.644,0,0,1,342.866,99.36Z"/><path class="bp" d="M31.2,207.566c23.587,13.638,33.027,17.69,42.29,21.192,3.794,1.434,8.943,10.274,9.011,10.379,1.006.137,1.995.247,2.969.339a42.3,42.3,0,0,0-5.937-10.314s-.469-1.311-5.438-3.02c-5.035-1.733-14.631-5.207-38.769-19.334C16.958,196.054,5.646,186.594.55,181.189c.084,1.208.176,2.395.27,3.507C5.22,189.261,14.876,198.128,31.2,207.566Z"/><path class="bq" d="M75.03,238.333l.824-.824,3.379,1.04c-1.129-2.175-3.561-6.467-5.661-7.487-2.841-1.382-17.582-7.648-21.268-9.4s-24.89-14.119-33.077-19.611C15.415,199.5,3.47,189.693,3.47,189.693v3.872a3.943,3.943,0,0,0,1.58.556l.413,2.063c.927,1.647,8.76,7.213,8.76,7.213l1.752-.412,2.576,1.546,2.577,5.258,27.826,16.8h5.359l8.554,4.123C62.455,234.417,75.03,238.333,75.03,238.333Z"/><path class="bp" d="M48.266,226.17l3.826-3.306c-7.262-4.092-31.761-18.617-31.761-18.617l2.55,6.6Z"/><path class="br" d="M146.789,97.6,207.43,66.273s3.562-1.831-.678-5.062a254.946,254.946,0,0,0-22.886-15.346A198.758,198.758,0,0,0,162.732,35.5c-1.548-.471-5.79-.336-9.559,2.019s-52.3,31.163-52.3,31.163-5.183,2.693-1.347,5.453,18.308,11.04,21.942,13.462,15.953,9.037,17.9,10A9.507,9.507,0,0,0,146.789,97.6Z"/><path class="br" d="M168.4,111.674s-5.644,3.155-6.795,8.238c-1.268,5.6-4.841,26.078-3.65,29.892.507,1.623,1.825,2.9,9.635-1.389s115-61.994,115-61.994l4.578-3.493A230.954,230.954,0,0,0,236,72.711a32.426,32.426,0,0,1-7.3,4.784c-4.622,2.271-25.3,13.948-30.328,16.867S170.476,110.223,168.4,111.674Z"/><path class="br" d="M165.96,22.744a158.531,158.531,0,0,1,35.654,14.128c18.083,9.972,33.407,22.946,37.706,31.136,0,0,34.462,4.541,49.464,10.054l-2.271-7.54-.812-4.054a145.755,145.755,0,0,0-36.812-27.65c-22.056-11.432-35.6-17.433-38.761-15.4l-1.3.648-14.87-1.22C188.641,22,176.578,21.734,165.96,22.744Z"/><path class="bs" d="M205.412,62.97a255.028,255.028,0,0,0-22.645-15.187,198.245,198.245,0,0,0-20.679-10.166,4.885,4.885,0,0,0-1.242-.123,12.82,12.82,0,0,0-6.5,1.9c-1.25.781-7.279,4.386-14.827,8.884,15.277,7.839,38.022,22.734,44.985,27.35l21.916-11.322a1.564,1.564,0,0,0,.163-.139A4.024,4.024,0,0,0,205.412,62.97Z"/><path class="bs" d="M131.373,53.129C117.794,61.209,103.1,69.935,102,70.584l-.109.061a4.717,4.717,0,0,0-1.533,1.285,2.26,2.26,0,0,0,.46.41c2.132,1.535,7.882,4.963,12.955,7.988,3.935,2.346,7.335,4.372,8.922,5.43,3.418,2.279,15.6,8.844,17.66,9.863a6.786,6.786,0,0,0,2.776.523h0a6.162,6.162,0,0,0,2.642-.507l30.155-15.578C167.577,74.546,145.8,60.4,131.373,53.129Z"/><path class="br" d="M136.047,131.957c-3.956,1.419-23.222,12.27-27.279,12.981-.146.026-.311.048-.469.07l-6.642,35.115c5.157-1.534,10.728-4.1,16.035-6.283,8.619-3.551,13.285-7.81,15.342-11.257S140,139.664,140.611,134.8,136.047,131.957,136.047,131.957Z"/><path class="bs" d="M112.8,145.86c3.229-1.426,8-3.81,14.084-6.943,4.351-2.241,8.46-4.359,9.91-4.88a4.634,4.634,0,0,1,1.431-.288,1.517,1.517,0,0,1,.206.011,2.787,2.787,0,0,1-.014.762c-.611,4.887-5.455,23.867-7.281,26.928-1.319,2.208-4.929,6.491-14.287,10.344-1.269.523-2.554,1.067-3.845,1.614-1,.424-1.976.925-3.012,1.269-4.473,1.487-4.641-2.329-4.292-4.032l3.964-20.959A6.047,6.047,0,0,1,112.8,145.86Z"/><path class="bt" d="M108.3,145.008a55.769,55.769,0,0,1-9.019.34l-11.838,35.1a32.05,32.05,0,0,0,5.2,1,25.975,25.975,0,0,0,9.015-1.322Z"/><path class="bt" d="M31.434,104.271V100.03c-1.364,1.685-15.714,19.978-22.009,28h0c-.578,1.667-.138,3.8,1.179,6.267l20.544-29.617C31.315,104.423,31.434,104.271,31.434,104.271Z"/><path class="br" d="M89.095,144.429c-6.9-1.116-22.411-9.329-31.438-14.805s-23.02-15.415-26.223-18.356c-2.591-2.378-.993-5.483-.286-6.586L10.6,134.3c3.675,6.873,14.246,16.308,29.1,25.342,16.708,10.159,37.159,18.089,47.735,20.806l11.838-35.1A80.882,80.882,0,0,1,89.095,144.429Z"/><path class="bs" d="M89.095,144.429c-6.9-1.116-22.411-9.329-31.438-14.805a299.6,299.6,0,0,1-24.675-17.049l-17.2,25.29c5.055,6.02,13.964,13.132,25.074,19.886a214.53,214.53,0,0,0,37.754,17.644l12-30.752C90.1,144.573,89.585,144.509,89.095,144.429Z"/><path class="bu" d="M32.982,112.575l-17.2,25.29a68.142,68.142,0,0,0,8.681,8.383A108.831,108.831,0,0,1,46.512,122.37C41.064,118.649,35.831,114.858,32.982,112.575Z"/><path class="bt" d="M288.785,78.063c-15-5.513-49.464-10.054-49.464-10.054a9.639,9.639,0,0,1-3.323,4.7,230.954,230.954,0,0,1,51.167,10.218S289.539,80.57,288.785,78.063Z"/><path class="bs" d="M169.761,23.1a174.356,174.356,0,0,1,38.3,16.5c19.95,11.616,30.446,24.147,31.808,27.216,0,0,30.559,4.872,38.938,7.157,2.645.721,1.2-2.4-2.8-5.966a225.065,225.065,0,0,0-40.476-27.83c-21.071-11.3-33.065-16.639-44.853-17.08C182.246,22.784,169.761,23.1,169.761,23.1Z"/><path class="bs" d="M218.785,117.858c17.147-9.239,34.938-18.819,47.251-25.45L262.5,80.667a261.066,261.066,0,0,0-29.377-4.453s-2.16,1.326-3.636,2.051c-3.145,1.544-14.031,7.466-21.984,11.874C210.4,96.264,216.6,112.185,218.785,117.858Z"/><path class="bs" d="M170.443,143.934c6.663-3.609,20.987-11.334,37.228-20.088-2.224-9.419-6.809-23.891-8.469-29.042l-29.415,16.622-.092.063-.091.052a10.059,10.059,0,0,0-4.307,3.41Z"/><path class="bs" d="M164.449,116.311a12.334,12.334,0,0,0-1.255,3.6c-1.467,7.778-4.027,22.3-3.181,25.2-.13,2.421,2.851,2.968,6.9.741.458-.252,1.272-.7,2.383-1.3Z"/><path class="bu" d="M229.185,36.821c-17.242-9-27.964-13.328-38.514-13.722-8.426-.315-20.91,0-20.91,0a168.822,168.822,0,0,1,27.8,10.888C205.8,34.43,216.321,35.275,229.185,36.821Z"/><path class="ay" d="M342.866,48.769l-.028.012-.237.1.016.259a22.69,22.69,0,0,1-.827,7.352c-1.064,3.1-8.107,8.31-8.179,8.362l-.466.343.508.277c2.264,1.235,8.268,4.545,8.854,5.022a1.586,1.586,0,0,0,1,.356c.585,0,1.739-.323,2.917-2.485,1.652-3.033,2.185-5.141,1.673-6.632a32.8,32.8,0,0,1-.968-4.107,50.646,50.646,0,0,0-1.992-5.871,21.47,21.47,0,0,0-2.158-2.641C342.953,49.007,342.907,48.886,342.866,48.769Z"/><path class="bv" d="M342.137,56.614c-1.115,3.249-8.308,8.54-8.308,8.54s8.168,4.457,8.911,5.06,2.087.325,3.365-2.02,2.2-4.711,1.648-6.336a32.162,32.162,0,0,1-.975-4.13s-1.613-5.978-3.053-7.793c-.447-.522-.743-.816-.743-.816A22.916,22.916,0,0,1,342.137,56.614Z"/><path class="bw" d="M344.577,59.738l-1.154,2.974-2.8-1.509-2.842,3.018,5.016,2.708c2.347-1.908,3.063-6.88,3.063-6.88Z"/><g class="bx"><path class="by" d="M342.137,56.614c-1.115,3.249-8.308,8.54-8.308,8.54s8.168,4.457,8.911,5.06,2.087.325,3.365-2.02,2.2-4.711,1.648-6.336a32.162,32.162,0,0,1-.975-4.13s-1.613-5.978-3.053-7.793c-.447-.522-.743-.816-.743-.816A22.916,22.916,0,0,1,342.137,56.614Z"/></g><path class="bz" d="M82.516,192.43l.5-3.647a2.287,2.287,0,0,1,2.64-2.137,43.638,43.638,0,0,0,10.268.712c3.73-.336,11.356-2.808,12.782-3.31s3.354-1.384,2.39,1.382-2.432,6.747-4.317,8-6.413,2.6-7.46,4.653-4.777,8.591-4.777,8.591-.21,1.006-2.221,1.048-6.789-.337-7.209-.922a29.3,29.3,0,0,1-2.6-8.256A31.284,31.284,0,0,1,82.516,192.43Z"/><path class="ca" d="M95.312,197.738c.847-5.325-.725-6.595-1.513-7.441-.618-.665-7.324-2.3-10.177-2.971a3.067,3.067,0,0,0-.6,1.456l-.5,3.647a31.284,31.284,0,0,0,0,6.118,29.3,29.3,0,0,0,2.6,8.256c.419.585,5.2.963,7.209.922a4.68,4.68,0,0,0,.855-.093C93.668,205.757,94.687,201.67,95.312,197.738Z"/><path class="cb" d="M89.5,190.66c-1.283-.285-4.952-1.463-6.475-1.957l-.012.079-.429,3.115c1.926.55,5.339,1.526,6.612,1.907,1.815.545,1.392,1.393,1.4,1.812s-.435,2.668-.8,4.785S89.141,203,88,203h-2.67v2.48a8.765,8.765,0,0,0,2.67.3c1.822,0,2.836,0,3.622-1.633s1.634-5.869,2-9.077S91.138,191.023,89.5,190.66Z"/><path class="cc" d="M93.8,190.3c.155.167.343.353.535.581,2.652-1.2,12.072-5.381,17.016-6.7-.045-1.175-1.5-.537-2.643-.134-1.425.5-9.051,2.974-12.782,3.31a43.638,43.638,0,0,1-10.268-.712,2.03,2.03,0,0,0-2.036.681C86.476,188,93.182,189.632,93.8,190.3Z"/><path class="ca" d="M6.493,131.772,3.2,136.2c-2.146,3.672-2.249,11.024-1.9,16.923.014.033,2.1,4.77,2.561,4.645s2.6-3.312,3.185-5.785,1.508-8.842,1.131-10.309-1.886-3.562-1.97-5.237a32.727,32.727,0,0,1,.552-5Z"/><path class="cc" d="M8.235,142.168a3.007,3.007,0,0,0-.066-.491c-.377-1.466-1.886-3.562-1.97-5.237a32.727,32.727,0,0,1,.552-5l-.259.33L3.2,136.2c-.019.032-.034.069-.053.1Z"/><path class="cb" d="M4.447,142.946c.407.538,2.183,2.565,3.455,4.007.139-1.061.25-2.1.308-3-.876-1.042-2.577-3.065-3.112-3.712-.729-.887-1.928-1.9-2.24,1.015s-.651,9.459-.651,10.319a6.433,6.433,0,0,0,1.979,4.587l.809-1.173s-.99-1.771-1.25-2.475a24.419,24.419,0,0,1-.053-5.5C3.821,145.082,3.8,142.085,4.447,142.946Z"/><polygon class="ca" points="54.956 224.854 72.297 232.998 73.572 234.542 54.888 225.771 54.956 224.854"/><polygon class="ca" points="16.257 201.537 4.383 191.966 3.47 192.164 16.099 202.052 16.257 201.537"/><path class="cd" d="M165.167,22.821s-9.584,1.964-13.168,3.9l2.938,1.317s8.119-4.349,13.589-4.618Z"/><path class="ce" d="M222.326,69.06a34.5,34.5,0,0,0-16.252,3.449c-7.68,4.009-42.274,22.57-53.005,28.483-10.908,6.008-34.814,19.825-38.377,22.052s-8.651,7.011-9.557,9.906l3.165,1.569s8.667-5.453,11.339-7.234,38.538-22.089,50.3-28.443,50.1-25.986,55.551-28.212Z"/><path class="cf" d="M152.157,26.593c-4.565-.626-8.682,1.405-11.019,2.519s-30.942,17.918-38.4,22.678S64.671,75.522,54,82.771,41.965,94.8,41.965,94.8l2.984,1.339,9.992-7.26s28.836-18.777,38.631-25.01,49.962-29.893,49.962-29.893l11.606-6.048Zm-65.8,38.7c1.612-1.069,3.051-2.011,4.228-2.761,1.9-1.208,4.94-3.072,8.608-5.291C95.6,59.5,91.111,62.31,86.36,65.295Z"/><path class="ax" d="M267.029,87.582l2.464-1.44.394.4s4.02-.906,5.6,1.51,4.32,9.293,4.183,11.616a6.862,6.862,0,0,1-4.183,5.482s-.418.6-1.578-.79a66.466,66.466,0,0,1-4.228-5.343,20.737,20.737,0,0,1-.791-4.275l-.975-.975Z"/><path class="ay" d="M272.512,92.972c-1.4-1.859-3.577-5.2-3.577-5.2s-.7-.557-.559,1.116.511,5.853.511,5.853a20.737,20.737,0,0,0,.791,4.275,66.466,66.466,0,0,0,4.228,5.343c1.16,1.395,1.578.79,1.578.79s-.323-6.6-.7-7.945A11.538,11.538,0,0,0,272.512,92.972Z"/><path class="cg" d="M274.789,97.2a11.538,11.538,0,0,0-2.276-4.228c-1.166-1.554-2.878-4.138-3.409-4.948,0,.032,0,.058,0,.091.14,1.673.511,5.854.511,5.854a20.716,20.716,0,0,0,.79,4.275,66.71,66.71,0,0,0,4.228,5.343,3.541,3.541,0,0,0,.807.754A66.154,66.154,0,0,0,274.789,97.2Z"/><path class="bt" d="M268.935,87.767l.952-1.23-.394-.4-2.464,1.44.884,6.18.975.975s-.372-4.181-.511-5.853S268.935,87.767,268.935,87.767Z"/><path class="bt" d="M279.667,99.662a9.107,9.107,0,0,0-.4-2.555c-.7,1.922-2.944,3.134-4.06,3.635.166,2.144.277,4.4.277,4.4A6.862,6.862,0,0,0,279.667,99.662Z"/><path class="ax" d="M152.735,25.11a58.486,58.486,0,0,1,10.439-2.065c-.184-.044-7.825-1.9-10.12-1.578-1.968.275-3.165,3.543-3.544,4.99A30.052,30.052,0,0,1,152.735,25.11Z"/><path class="ch" d="M152.735,25.11a42.812,42.812,0,0,1,4.972-1.227c-1.779-.615-4.839-1.57-5.49-1.115-.671.469-1.581,2.363-2.037,3.383A25.407,25.407,0,0,1,152.735,25.11Z"/><path class="ci" d="M38.077,168.771C15.407,155.106,8,143.694,8,143.694L7.9,146.953s8.25,12.375,29.306,24.55,33.62,16.69,45.382,20.394l.441-3.194A205.765,205.765,0,0,1,38.077,168.771Z"/><path class="cj" d="M108.3,134.519s8.667-5.453,11.339-7.234,38.538-22.089,50.3-28.443,50.1-25.986,55.551-28.212a34.491,34.491,0,0,0-16.25,3.448c-7.681,4.009-42.274,22.572-53.006,28.483-10.908,6.008-34.814,19.826-38.377,22.052S109.2,131.626,108.3,134.519Z"/><path class="cj" d="M155.142,27.933l-11.606,6.048S103.368,57.64,93.573,63.873s-38.631,25.01-38.631,25.01l-9.992,7.26s1.36-4.786,12.033-12.034,41.283-26.22,48.739-30.98,36.064-21.566,38.4-22.678S150.577,27.306,155.142,27.933Z"/><path class="cd" d="M212.74,76.789c-2.723-.979-6.667.146-8.592,1.274-2.441,1.431-25.226,13.335-35.34,18.973s-38.152,21.312-42.352,24.086a26.5,26.5,0,0,0-5.771,5.517c6.574-3.936,38.321-21.891,49.253-27.8C178.059,94.454,198.853,83.735,212.74,76.789Z"/><path class="cd" d="M138.792,34.69c-1.732.9-9.681,5.838-14.69,8.664S90.424,63.77,83.341,68.367s-20.794,12.964-24.184,15.6a14.707,14.707,0,0,0-3.965,4.752c2.813-1.833,29.115-18.951,38.381-24.847,8.868-5.644,42.64-25.576,48.944-29.293A4.245,4.245,0,0,0,138.792,34.69Z"/><path class="cd" d="M238.165,66.082s-4.85-1.442-16.049,3.147l3.373,1.4s6.628-3.461,13.832-2.622Z"/><path class="ck" d="M237.155,122.157l2.483-1.382s1.209-.218,1.405.691.507,1.52-.6,2.165-11.193,6.449-11.193,6.449-2.673,1.751-3.18.369-.453-1.484,1.516-2.978a19.226,19.226,0,0,1,3.2-2.057l1,.239,5.193-2.772Z"/><path class="cj" d="M241.043,121.466a.8.8,0,0,0-.27-.456c-.464,1.419-3.566,2.915-5.719,4.038-2.488,1.3-6.385,3.723-7.77,4.22-.774.279-1.189.054-1.411-.2-.15.362-.04.728.2,1.378.507,1.382,3.18-.369,3.18-.369s10.089-5.8,11.193-6.449S241.239,122.376,241.043,121.466Z"/><path class="cl" d="M236.98,122.883l.175-.726s-.954-1.98-3.509-.55a5.553,5.553,0,0,0-2.855,3.808l1,.239Z"/><path class="cm" d="M231.381,128.854a2.779,2.779,0,0,0,3.63.566,4.81,4.81,0,0,0,2.593-4.149C235.653,126.4,233.141,127.842,231.381,128.854Z"/><path class="cn" d="M170.177,158.5l2.483-1.383s1.209-.219,1.405.691.507,1.52-.6,2.165-11.193,6.449-11.193,6.449-2.673,1.751-3.18.368-.453-1.483,1.516-2.977a19.2,19.2,0,0,1,3.2-2.056l1,.237L170,159.228Z"/><path class="cj" d="M174.066,157.811a.808.808,0,0,0-.27-.458c-.465,1.42-3.567,2.915-5.72,4.038-2.488,1.3-6.385,3.723-7.77,4.221-.774.278-1.19.056-1.412-.2-.149.361-.039.728.2,1.377.507,1.383,3.18-.368,3.18-.368s10.088-5.8,11.193-6.449S174.261,158.719,174.066,157.811Z"/><path class="co" d="M170,159.228l.175-.726s-.954-1.98-3.509-.552a5.556,5.556,0,0,0-2.856,3.81l1,.237Z"/><path class="cp" d="M164.4,165.2a2.782,2.782,0,0,0,3.631.563,4.807,4.807,0,0,0,2.593-4.147Z"/><g class="ay"><polygon points="286.833 124.485 285.981 105.129 286.413 103.19 283.711 92.763 280.147 87.761 280.446 87.549 284.06 92.637 286.791 103.184 286.352 105.161 287.203 124.469 286.833 124.485"/></g><g class="ay"><polygon points="223.791 170.584 223.422 170.584 223.422 163.525 221.525 158.291 221.254 140.862 221.254 138.723 217.769 128.201 213.859 123.021 214.153 122.799 218.11 128.057 221.624 138.693 221.624 140.859 221.893 158.255 223.791 163.491 223.791 170.584"/></g><g class="ay"><path d="M155.738,187.326h-.369v-6.369l-2.344-7.837c-.037-.158-3.345-14.754-1.837-23.7,1.644-9.762,6.133-31.168,8.5-35.572l.324.174c-2.343,4.37-6.815,25.717-8.456,35.46-1.494,8.875,1.8,23.4,1.831,23.544l2.355,7.9Z"/></g><g class="ay"><path d="M107.178,134.677s-19.5-11.842-37.651-22.84C51.594,100.97,41.665,95.9,41.566,95.849l.167-.328c.1.051,10.039,5.126,27.984,16,18.148,11,37.652,22.84,37.652,22.84Z"/></g><path class="ay" d="M45.316,188.059,28.185,178.4a1.524,1.524,0,0,0-.742-.215c-.575,0-1.008.433-1.07,1.176l-.725,8.714a3.33,3.33,0,0,0,1.474,2.862l16.858,10.025a1.487,1.487,0,0,0,.762.233c.561,0,.991-.421,1.067-1.15l.96-9.17A3.146,3.146,0,0,0,45.316,188.059Z"/><path class="cq" d="M44.987,188.643l-17.131-9.656a.878.878,0,0,0-.413-.129c-.31,0-.384.352-.4.561l-.725,8.713a2.671,2.671,0,0,0,1.149,2.232L44.324,200.39a.826.826,0,0,0,.419.14c.3,0,.379-.345.4-.552l.961-9.168A2.487,2.487,0,0,0,44.987,188.643Z"/></g></svg>