<svg xmlns="http://www.w3.org/2000/svg" viewBox="0 0 163.48 90.774"><defs><style>.a{fill:#fff6d8;}.b{fill:#fffff5;}.c{fill:#ffddb6;}.d{fill:#f3c281;}.e{fill:#fff;}.f{fill:#5f2424;}.g{fill:#d29064;}</style></defs><title>tea</title><path class="a" d="M339.544,316.542c0-9.254-20.012-14.688-44.7-14.688s-44.7,5.435-44.7,14.688,20.011,18.825,44.7,18.825S339.544,325.8,339.544,316.542Z" transform="translate(-183.414 -264.858)"/><path class="b" d="M339.544,315.94c0-8.875-19.473-14.086-43.489-14.086s-43.49,5.211-43.49,14.086,19.47,18.049,43.49,18.049S339.544,324.812,339.544,315.94Z" transform="translate(-183.414 -264.858)"/><path class="c" d="M339.544,316.542c0-9.254-20.012-14.688-44.7-14.688a137.506,137.506,0,0,0-20.984,1.5,5.381,5.381,0,0,0-1.141,2.823c-.756,9.127,23.064,20.589,53.59,23.313C334.482,325.928,339.544,321.2,339.544,316.542Z" transform="translate(-183.414 -264.858)"/><path class="c" d="M316.732,315.9c0-3.461-9.8-5.493-21.883-5.493s-21.882,2.032-21.882,5.493,9.8,7.036,21.882,7.036S316.732,319.358,316.732,315.9Z" transform="translate(-183.414 -264.858)"/><path class="d" d="M294.849,310.406c-7.977,0-14.936.89-18.76,2.486,3.671,3.576,10.147,7.111,18.529,10.038.078,0,.153,0,.23,0,12.085,0,21.883-3.577,21.883-7.036S306.934,310.406,294.849,310.406Z" transform="translate(-183.414 -264.858)"/><path class="d" d="M278.135,317.477c0-3.46,9.8-5.49,21.883-5.49a75.345,75.345,0,0,1,14.208,1.178c-3.66-1.768-10.957-2.758-19.377-2.758-12.086,0-21.882,2.032-21.882,5.493,0,2.2,3.97,4.442,9.962,5.788C279.936,320.454,278.135,318.955,278.135,317.477Z" transform="translate(-183.414 -264.858)"/><path class="c" d="M334.757,274.8c0,2.216,3.078,3.01,4.143,3.44s11.293,1.188,6.907,11.891-16.379,10.983-17.085,10.985-3.834.986-4.565,2.538.5-9,2.776-8.059,1.246,2.509,2.34,2.285,9.456.047,12.637-8.46-3.586-7.889-4.424-7.613-3.142.749-3.842,2.119S330.715,273.544,334.757,274.8Z" transform="translate(-183.414 -264.858)"/><path class="a" d="M324.934,300.844a15.808,15.808,0,0,1,1.364-4.784,1.658,1.658,0,0,1,.912,1.157,1.29,1.29,0,0,0,1.033,1.059,2.035,2.035,0,0,0,.767-.022c.09-.016.248-.026.453-.045,6.7-.6,11.155-3.713,13.226-9.254,2.59-6.928-1.106-8.4-2.814-8.711a6.641,6.641,0,0,0-2.875.09c-.108.035-.238.073-.387.118a11.032,11.032,0,0,0-2.7,1.078c-.144-1.921.169-5.121.9-5.948a3.946,3.946,0,0,0,2.909,2.893l.235.091a6.049,6.049,0,0,0,.842.221c2.51.555,9.18,2.029,5.649,10.638-4.1,10.013-15.3,10.145-15.778,10.145A9.437,9.437,0,0,0,324.934,300.844Z" transform="translate(-183.414 -264.858)"/><path class="a" d="M333.761,272.611H256.043c-1.3,19.209,13.705,47.841,38.807,47.767.018,0,.035,0,.053,0s.035,0,.053,0C320.056,320.452,335.062,291.82,333.761,272.611Z" transform="translate(-183.414 -264.858)"/><path class="b" d="M288.924,272.611H260.358c-1.157,19.209,12.184,47.841,34.5,47.767l.027,0C291.029,320.393,288.723,291.8,288.924,272.611Z" transform="translate(-183.414 -264.858)"/><path class="c" d="M307.429,272.611h24.214c1.23,19.209-12.972,47.841-36.731,47.767a.163.163,0,0,1-.03,0C304.912,318.61,307.642,291.8,307.429,272.611Z" transform="translate(-183.414 -264.858)"/><path class="d" d="M327.8,272.611H316.257c.716,19.2-7.527,47.826-21.316,47.767h.007C316.2,320.452,328.9,291.82,327.8,272.611Z" transform="translate(-183.414 -264.858)"/><ellipse class="e" cx="102.514" cy="9.216" rx="29.314" ry="8.183"/><ellipse class="a" cx="111.487" cy="7.753" rx="38.655" ry="7.753"/><ellipse class="c" cx="111.487" cy="7.192" rx="35.49" ry="6.159"/><path class="d" d="M270.784,275.152c0-3.4,15.89-6.16,35.489-6.16a163.592,163.592,0,0,1,22.895,1.455c-4.065-2.624-17.862-4.556-34.266-4.556-19.6,0-35.49,2.757-35.49,6.159,0,1.887,4.895,3.574,12.6,4.7C271.212,276.244,270.784,275.707,270.784,275.152Z" transform="translate(-183.414 -264.858)"/><path class="f" d="M263.737,275c6.02,1.914,17.719,3.211,31.165,3.211s25.145-1.3,31.165-3.211c-6.02-2.084-17.719-3.5-31.165-3.5S269.757,272.915,263.737,275Z" transform="translate(-183.414 -264.858)"/><ellipse class="e" cx="269.833" cy="294.383" rx="3.361" ry="9.11" transform="translate(-257.067 -174.163) rotate(-16.824)"/><path class="g" d="M271.384,275.381c4.338-.429,9.4-.676,14.814-.676,11.474,0,21.391,1.1,26.109,2.71,3.353-.328,6.363-.749,8.927-1.241-4.62-1.647-14.671-2.789-26.333-2.789C285.228,273.386,276.663,274.172,271.384,275.381Z" transform="translate(-183.414 -264.858)"/><path class="a" d="M190.764,336.807c0-9.254,20.012-14.688,44.7-14.688s44.7,5.435,44.7,14.688-20.011,18.825-44.7,18.825S190.764,346.061,190.764,336.807Z" transform="translate(-183.414 -264.858)"/><path class="b" d="M190.764,336.2c0-8.875,19.473-14.086,43.489-14.086s43.49,5.211,43.49,14.086-19.47,18.049-43.49,18.049S190.764,345.077,190.764,336.2Z" transform="translate(-183.414 -264.858)"/><path class="c" d="M190.764,336.807c0-9.254,20.012-14.688,44.7-14.688a137.506,137.506,0,0,1,20.984,1.5,5.381,5.381,0,0,1,1.141,2.823c.756,9.127-23.064,20.589-53.59,23.313C195.827,346.193,190.764,341.461,190.764,336.807Z" transform="translate(-183.414 -264.858)"/><path class="c" d="M213.577,336.165c0-3.461,9.8-5.493,21.883-5.493s21.882,2.032,21.882,5.493-9.8,7.036-21.882,7.036S213.577,339.624,213.577,336.165Z" transform="translate(-183.414 -264.858)"/><path class="d" d="M235.46,330.672c7.977,0,14.936.89,18.76,2.486-3.671,3.576-10.147,7.111-18.529,10.038-.078,0-.153,0-.23,0-12.085,0-21.883-3.577-21.883-7.036S223.375,330.672,235.46,330.672Z" transform="translate(-183.414 -264.858)"/><path class="d" d="M252.174,337.742c0-3.46-9.8-5.49-21.883-5.49a75.345,75.345,0,0,0-14.208,1.178c3.66-1.768,10.957-2.758,19.377-2.758,12.086,0,21.882,2.032,21.882,5.493,0,2.2-3.97,4.442-9.962,5.788C250.373,340.719,252.174,339.22,252.174,337.742Z" transform="translate(-183.414 -264.858)"/><path class="c" d="M195.552,295.065c0,2.216-3.078,3.01-4.143,3.44s-11.293,1.188-6.907,11.891,16.379,10.983,17.085,10.985,3.834.986,4.565,2.538-.5-9-2.776-8.059-1.246,2.509-2.34,2.285-9.456.047-12.637-8.46,3.586-7.889,4.424-7.613,3.142.749,3.842,2.119S199.594,293.809,195.552,295.065Z" transform="translate(-183.414 -264.858)"/><path class="a" d="M205.375,321.109a15.808,15.808,0,0,0-1.364-4.784,1.658,1.658,0,0,0-.912,1.157,1.29,1.29,0,0,1-1.033,1.059,2.035,2.035,0,0,1-.767-.023c-.09-.016-.248-.026-.453-.045-6.7-.6-11.155-3.713-13.227-9.254-2.59-6.928,1.106-8.4,2.814-8.711a6.641,6.641,0,0,1,2.875.09c.108.035.238.073.387.118a11.032,11.032,0,0,1,2.7,1.078c.144-1.921-.169-5.121-.9-5.948a3.946,3.946,0,0,1-2.909,2.893l-.235.091a6.049,6.049,0,0,1-.842.221c-2.51.555-9.18,2.029-5.649,10.638,4.1,10.013,15.3,10.146,15.778,10.146A9.437,9.437,0,0,1,205.375,321.109Z" transform="translate(-183.414 -264.858)"/><path class="a" d="M196.548,292.876h77.719c1.3,19.209-13.705,47.841-38.807,47.767-.018,0-.035,0-.053,0s-.035,0-.053,0C210.253,340.717,195.247,312.086,196.548,292.876Z" transform="translate(-183.414 -264.858)"/><path class="b" d="M241.385,292.876h28.566c1.157,19.209-12.184,47.841-34.5,47.767l-.027,0C239.28,340.658,241.586,312.067,241.385,292.876Z" transform="translate(-183.414 -264.858)"/><path class="c" d="M222.88,292.876H198.666c-1.23,19.209,12.972,47.841,36.73,47.767a.163.163,0,0,0,.03,0C225.4,338.876,222.667,312.067,222.88,292.876Z" transform="translate(-183.414 -264.858)"/><path class="d" d="M202.511,292.876h11.541c-.716,19.2,7.527,47.826,21.316,47.767h-.007C214.113,340.717,201.409,312.086,202.511,292.876Z" transform="translate(-183.414 -264.858)"/><ellipse class="e" cx="60.967" cy="29.481" rx="29.314" ry="8.183"/><ellipse class="a" cx="51.993" cy="28.018" rx="38.655" ry="7.753"/><ellipse class="c" cx="51.993" cy="27.458" rx="35.49" ry="6.159"/><path class="d" d="M259.525,295.417c0-3.4-15.89-6.16-35.489-6.16a163.592,163.592,0,0,0-22.895,1.455c4.065-2.624,17.862-4.556,34.266-4.556,19.6,0,35.49,2.757,35.49,6.159,0,1.887-4.895,3.574-12.6,4.7C259.1,296.509,259.525,295.972,259.525,295.417Z" transform="translate(-183.414 -264.858)"/><path class="f" d="M266.572,295.264c-6.021,1.914-17.719,3.211-31.165,3.211s-25.145-1.3-31.165-3.211c6.02-2.084,17.719-3.5,31.165-3.5S260.552,293.18,266.572,295.264Z" transform="translate(-183.414 -264.858)"/><ellipse class="e" cx="260.475" cy="314.648" rx="9.11" ry="3.361" transform="translate(-299.508 208.05) rotate(-73.176)"/><path class="g" d="M258.925,295.647c-4.338-.429-9.4-.676-14.814-.676-11.474,0-21.391,1.1-26.109,2.71-3.353-.328-6.363-.748-8.927-1.241,4.62-1.647,14.671-2.789,26.333-2.789C245.081,293.651,253.646,294.437,258.925,295.647Z" transform="translate(-183.414 -264.858)"/></svg>