<svg xmlns="http://www.w3.org/2000/svg" viewBox="0 0 58.841 64.831">
  <defs>
    <style>
      .a {
        fill: #474747;
      }

      .b {
        fill: #1f1f1f;
      }

      .c {
        fill: #fff;
      }

      .d {
        fill: #333;
      }

      .e {
        fill: #b3b3b3;
      }

      .f {
        fill: #ccc;
      }

      .g {
        fill: #67576a;
      }
    </style>
  </defs>
  <title>tire</title>
  <g>
    <path class="a" d="M31.352.265a15.306,15.306,0,0,0-7.413,3.805,22.438,22.438,0,0,0-5.259,7.44c-2.872,6.338-3.812,14.685-2.123,23.4s5.678,16.106,10.709,20.913a22.438,22.438,0,0,0,7.658,4.938,15.3,15.3,0,0,0,8.3.762C54.656,59.309,61.28,43.791,58,26.88S42.787-1.95,31.352.265Zm11.231,52.6a6.2,6.2,0,0,1-2.207,0,12.941,12.941,0,0,1-6.734-4.076,31.617,31.617,0,0,1-7.609-15.719,31.621,31.621,0,0,1,1.187-17.423,12.944,12.944,0,0,1,4.725-6.3,6.219,6.219,0,0,1,2.047-.824c5.79-1.122,14.093,7.1,16.552,19.794S48.374,51.747,42.584,52.869Z"/>
    <path class="b" d="M50.545,28.325C53,41.017,48.374,51.747,42.584,52.869a6.2,6.2,0,0,1-2.207,0,12.941,12.941,0,0,1-6.734-4.076A31.6,31.6,0,0,0,34.832,31.37a31.6,31.6,0,0,0-7.61-15.719,12.944,12.944,0,0,1,4.725-6.3,6.219,6.219,0,0,1,2.047-.824C39.783,7.41,48.086,15.634,50.545,28.325Z"/>
    <path class="b" d="M42.1,61.689c.379-.035.745-.094,1.12-.167L27.5,64.567a15.216,15.216,0,0,1-7.707-.551,19.022,19.022,0,0,1-2.923-1.239,24.236,24.236,0,0,1-5.215-3.805c-.539-.511-1.054-1.038-1.575-1.6A34.778,34.778,0,0,1,6,51.789c-.321-.552-.64-1.1-.942-1.685A39.308,39.308,0,0,1,2.757,44.87c-.207-.55-.4-1.114-.578-1.7A44.815,44.815,0,0,1,.841,37.954c-.054-.277-.108-.556-.148-.836-.1-.594-.2-1.189-.268-1.766A39.62,39.62,0,0,1,.03,30.6C0,30,0,29.4.009,28.809a37.16,37.16,0,0,1,.422-5.336C.5,22.882.6,22.3.718,21.723A32.73,32.73,0,0,1,2.44,15.785c.218-.556.453-1.09.715-1.618A22.407,22.407,0,0,1,7.988,7.323,16.337,16.337,0,0,1,9.424,6.129a14.844,14.844,0,0,1,5.682-2.706c.169-.046.348-.08.53-.116L31.349.263c-.375.073-.736.155-1.1.264A11.358,11.358,0,0,0,29,.932a9.282,9.282,0,0,0-1.1.477,5.917,5.917,0,0,0-.824.422,15.513,15.513,0,0,0-3.14,2.238c-.15.13-.285.269-.432.423A16.652,16.652,0,0,0,21.736,6.44,24.356,24.356,0,0,0,18.677,11.5l0,.012c-.29.645-.561,1.3-.807,1.986a31.884,31.884,0,0,0-1.34,4.726c-.141.629-.254,1.278-.353,1.937a38.737,38.737,0,0,0-.455,5.354c-.013.631-.016,1.282.008,1.93a42.249,42.249,0,0,0,.4,4.926c.079.6.169,1.2.287,1.8.033.244.083.5.129.739a45.694,45.694,0,0,0,1.137,4.571c.164.582.349,1.148.546,1.712a43.111,43.111,0,0,0,1.975,4.762c.269.548.55,1.1.84,1.617a36.152,36.152,0,0,0,3.227,4.93c.366.482.745.947,1.143,1.384q.9,1.031,1.844,1.938a25.743,25.743,0,0,0,1.948,1.692c.487.383.971.741,1.47,1.059a19.937,19.937,0,0,0,4.235,2.188,15.446,15.446,0,0,0,3.749.9,5.922,5.922,0,0,0,.922.085,9.194,9.194,0,0,0,1.2.032A11.583,11.583,0,0,0,42.1,61.689Z"/>
    <path class="c" d="M12.892,9.109q-.372.6-.7,1.227c0-.024-.024-.046-.029-.069C12.387,9.871,12.639,9.485,12.892,9.109Z"/>
    <path class="d" d="M35.6,63a15.287,15.287,0,0,1-6.752-.875l0-.011a5.932,5.932,0,0,1,1.833-3.542,17.84,17.84,0,0,1-1.472-1.057A7.576,7.576,0,0,0,27.1,61.4a21.472,21.472,0,0,1-3.9-2.4,6.74,6.74,0,0,1,2.221-5.109c-.4-.437-.778-.9-1.145-1.383a9.2,9.2,0,0,0-2.845,5,29.579,29.579,0,0,1-4.074-4.59,11.905,11.905,0,0,1,3.693-5.343c-.291-.522-.572-1.069-.841-1.619a13.579,13.579,0,0,0-4.1,5.134,36.526,36.526,0,0,1-2.433-4.42c.387-2.382,2.26-4.25,4.556-5.472-.2-.566-.382-1.131-.546-1.714a11.433,11.433,0,0,0-5.083,4.7,42.175,42.175,0,0,1-1.583-4.734l0-.012c.68-2.126,2.765-4.11,5.4-5.262-.117-.6-.207-1.2-.285-1.8a12.931,12.931,0,0,0-5.76,4.326c-.048-.192-.083-.373-.121-.566-.183-.943-.338-1.866-.458-2.807l0-.013c.675-2.024,2.978-4.439,5.937-5.867-.025-.646-.027-1.3-.011-1.928A15.526,15.526,0,0,0,9.5,30.208a40.885,40.885,0,0,1-.022-4.835l0-.013a12.173,12.173,0,0,1,6.7-5.2c.1-.658.212-1.308.352-1.937a15.5,15.5,0,0,0-6.758,3.818,35.978,35.978,0,0,1,.8-4.13,13.724,13.724,0,0,1,7.3-4.413c.244-.686.518-1.342.808-1.988l0-.012a18.862,18.862,0,0,0-7.018,2.94,27.731,27.731,0,0,1,1.9-4.081l.01-.014a15.39,15.39,0,0,1,8.162-3.9A16.938,16.938,0,0,1,23.5,4.494a19.193,19.193,0,0,0-6.8,1.619,15.769,15.769,0,0,1,7.03-4.371L17.228,3A17.63,17.63,0,0,0,11.9,8.415,6.179,6.179,0,0,0,9.42,6.132,16.14,16.14,0,0,0,7.984,7.326a5.079,5.079,0,0,1,2.7,3.042,25.918,25.918,0,0,0-2.422,5.686,11.434,11.434,0,0,0-4.585-2.941c-.261.53-.624,1.221-.845,1.779a10.6,10.6,0,0,1,4.81,3.374,56.928,56.928,0,0,0-.954,5.8A10.315,10.315,0,0,0,.862,21.011C.747,21.586.574,22.293.5,22.884c2.3.2,4.424,1.865,5.885,3.313a.758.758,0,0,0,.161.119,45.616,45.616,0,0,0,.1,4.934A15.041,15.041,0,0,0,0,28.812C-.006,29.4,0,30,.026,30.6c2.981.425,5.618,1.747,6.8,3.26a.542.542,0,0,0,.094.095q.186,1.354.454,2.733c.024.122.049.254.085.372A13.179,13.179,0,0,0,.421,35.354c.062.577.165,1.172.269,1.766,3.052-.028,5.944,1.043,7.449,2.858.014,0,.014,0,0,.012.366,1.371.785,2.681,1.259,3.97a13.326,13.326,0,0,0-7.224-.782c.174.581.374,1.143.579,1.693,2.9-.349,6.012.152,7.878,2.087l0,.011A40.636,40.636,0,0,0,12.8,51.078a17.629,17.629,0,0,0-7.739-.973c.3.583.621,1.136.941,1.688a16.8,16.8,0,0,1,8.692,2.152A32.614,32.614,0,0,0,17.586,57.4a24.6,24.6,0,0,0-7.508-.025c.524.565,1.041,1.091,1.579,1.6a23.018,23.018,0,0,1,8.684.939,24.784,24.784,0,0,0,2.63,1.86,46.989,46.989,0,0,0-6.1,1.008A19.049,19.049,0,0,0,19.8,64.018a28.7,28.7,0,0,1,6.625-.556c.2.086.408.159.6.221.526.174,1.046.336,1.573.46.17.043.329.087.5.118l4.836-.937,2.108-.371ZM19.807,57.859l-.016-.01a27.059,27.059,0,0,1-3.3-3.575c-.1-.106-.178-.2-.262-.313l0-.012c-.267-.337-.533-.674-.779-1.04-.239-.33-.482-.672-.7-1.029a37.33,37.33,0,0,1-2.259-3.889c-.038-.083-.081-.162-.121-.241l0-.011a12.476,12.476,0,0,1-.536-1.164l0-.012c-.266-.524-.5-1.057-.716-1.617.008-.014.008-.014,0-.012A41.978,41.978,0,0,1,9.526,40.4c-.017-.085-.042-.156-.058-.24l0-.012A10.088,10.088,0,0,1,9.2,39.121l0-.012a7.991,7.991,0,0,1-.223-.9l0-.011c-.148-.574-.276-1.151-.391-1.744-.162-.834-.293-1.661-.39-2.482l0-.011a.089.089,0,0,1-.017-.085c-.058-.352-.109-.693-.141-1.051l0-.012-.04-.406a41.434,41.434,0,0,1-.216-5.9,3.776,3.776,0,0,1,.012-.378c.013-.341.019-.68.054-1.013a5.086,5.086,0,0,1,.053-.639l0-.012a34.35,34.35,0,0,1,.642-4.587c.043-.235.084-.469.141-.693.09-.382.169-.748.273-1.12.131-.538.285-1.057.456-1.58A28.532,28.532,0,0,1,11.351,11.7a.373.373,0,0,1,.047-.084,13.353,13.353,0,0,1,.764-1.352c.225-.4.477-.781.73-1.158q-.372.6-.7,1.227c-.241.436-.469.88-.679,1.348A30.837,30.837,0,0,0,9.838,16l0,.012c-.24.774-.45,1.568-.641,2.383-.068.3-.135.6-.189.9-.043.172-.084.342-.115.513a38.079,38.079,0,0,0-.534,3.915l0,.012c-.092.945-.142,1.909-.167,2.891a42.31,42.31,0,0,0,.209,5.291l0,.012c.066.727.146,1.463.253,2.209s.239,1.483.385,2.232c.129.665.27,1.328.42,1.975.045.18.092.359.142.537.084.385.184.755.29,1.124.037.117.058.226.092.334a42.132,42.132,0,0,0,1.833,5.187l0,.011a1.464,1.464,0,0,0,.134.314c.263.638.544,1.249.85,1.855l.039.079a38.5,38.5,0,0,0,2.545,4.449l0,.011a1.592,1.592,0,0,0,.171.231l0,.012c.32.5.664.975,1.017,1.433a.311.311,0,0,0,.084.11,30.216,30.216,0,0,0,3.468,3.919A1.7,1.7,0,0,0,19.807,57.859Z"/>
    <path class="c" d="M49.666,24.713c-.2-.757-.46-1.521-.729-2.243a17.293,17.293,0,0,0-.666-1.716c-.284-.711-.6-1.394-.928-2.055-2.969-5.97-7.232-9.941-11.439-10.27a6.878,6.878,0,0,0-1.326.04,2.451,2.451,0,0,0-.524.051,2.618,2.618,0,0,0-.535.154,5.129,5.129,0,0,0-1.239.44c-3.8,1.817-6.3,7.038-6.833,13.678a21.686,21.686,0,0,0-.13,2.258c0,.6,0,1.221.019,1.832.02.764.078,1.545.162,2.344.108,1.25.285,2.488.523,3.762A33.611,33.611,0,0,0,32.7,48.061l.059.069,1.169,1.294.04.023A11.08,11.08,0,0,0,35,50.377L36.376,51.4a8.348,8.348,0,0,0,6.171,1.481,8.294,8.294,0,0,0,5.174-3.583,9.2,9.2,0,0,0,.9-1.4c.228-.4.438-.83.635-1.256l.658-1.749a33.343,33.343,0,0,0,.654-16.471C50.313,27.148,50.018,25.9,49.666,24.713Zm-2.2-3.07c.226.5.431,1.067.605,1.55a.336.336,0,0,0,.009.038l-6.1,5.313a11.85,11.85,0,0,0-.662-1.707L47.411,21.5C47.438,21.559,47.444,21.589,47.468,21.644Zm-1-2.2-6.958,4.884L36.259,10.318C39.942,10.666,43.725,14.086,46.472,19.443Zm-8.556,9.244c.616-.106,1.277.684,1.491,1.788s-.11,2.108-.729,2.216-1.273-.7-1.489-1.807S37.29,28.808,37.916,28.687ZM33.872,10.51a.314.314,0,0,1,.115-.049c.113-.033.215-.053.332-.075l.16-.031a2.01,2.01,0,0,1,.424-.044l.021,0,2.506,13.064a1.961,1.961,0,0,0-.549.038,1.907,1.907,0,0,0-.516.169Zm-1.231.468L34.807,25.2l0,.01h0l-8.275-2.031C27.091,17.187,29.35,12.65,32.642,10.978ZM26.414,27.191c-.025-.558-.025-1.128-.018-1.682a.7.7,0,0,1,.007-.081l7.654,2.765a11.226,11.226,0,0,0,0,1.849l-7.647-2.77A.5.5,0,0,0,26.414,27.191Zm6.595,19.244a30.994,30.994,0,0,1-5.97-13.644c-.194-1.044-.338-2.091-.454-3.169l.086.034,8.181,3.929Zm2.31,2.35-.042-.051a7.9,7.9,0,0,1-.928-.835l-.062-.057L36.5,36.483a4.821,4.821,0,0,0,1.062.966ZM42.2,51.041a7.624,7.624,0,0,1-5.5-1.268l2.965-11.756L46.829,47.9A7.477,7.477,0,0,1,42.2,51.041Zm6.159-5.754c-.195.394-.367.8-.595,1.2-.007,0-.007.021-.012.043L41.464,36.75a5.278,5.278,0,0,0,.635-1.295l6.263,9.791A.144.144,0,0,1,48.356,45.286Zm.663-1.808L42.569,32.107l6.222-6.649c.3,1.023.547,2.088.745,3.145A30.446,30.446,0,0,1,49.019,43.478Z"/>
    <g>
      <path class="e" d="M48.36,45.239c0,.024,0,.024-.006.038-.188.4-.359.8-.6,1.207-.009,0-.006.013,0,.038l-.614-.959-5.685-8.819a3.4,3.4,0,0,0,.365-.635,4.727,4.727,0,0,0,.276-.655l4.6,7.184.9,1.418Z"/>
      <path class="f" d="M34.056,28.183a11.615,11.615,0,0,0,.007,1.855l-2.739-1a3.019,3.019,0,0,1,.013-.328Z"/>
      <path class="e" d="M34.056,28.183l-2.72.527-4.924-1.78c-.016-.473-.023-.961-.012-1.428a.176.176,0,0,1,.01-.077Z"/>
      <path class="f" d="M49.535,28.595a30.479,30.479,0,0,1-.514,14.885l-.93-1.625-.918-1.628a33.271,33.271,0,0,0-.358-11.105c-.082-.423-.164-.846-.27-1.263l.851-.918,1.394-1.487A31.4,31.4,0,0,1,49.535,28.595Z"/>
      <path class="e" d="M46.828,47.894a8.684,8.684,0,0,1-1.743,1.816,6.765,6.765,0,0,1-2.89,1.325,5.929,5.929,0,0,1-1.334.1,7.864,7.864,0,0,0,3.246-2.711Z"/>
      <polygon class="f" points="46.828 47.894 44.108 48.421 38.859 41.186 39.528 38.51 39.659 38.008 45.509 46.067 46.435 47.355 46.828 47.894"/>
      <path class="f" d="M37.556,37.449l-.294,1.524-1.936,9.808-.048-.054a4.784,4.784,0,0,1-.745-.658,1.15,1.15,0,0,1-.183-.177l-.06-.051L36.5,36.475A4.968,4.968,0,0,0,37.556,37.449Z"/>
      <path class="e" d="M34.851,33.585l-2.719.527-5.3-2.547c-.1-.647-.173-1.284-.25-1.947l.091.033Z"/>
      <path class="f" d="M34.851,33.585l-.564,3.947-1.275,8.9q-.441-.534-.854-1.113a23.066,23.066,0,0,1-1.33-2.075l1.3-9.131Z"/>
      <path class="e" d="M32.641,10.974l1.59,10.415L34.6,23.9l.2,1.291,0,.011L31.9,24.487,30.149,13.012a7.23,7.23,0,0,1,1.169-1.154,4.839,4.839,0,0,1,.961-.675A2.429,2.429,0,0,1,32.641,10.974Z"/>
      <path class="e" d="M34.93,10.3l.169.871,2.325,12.19a2,2,0,0,0-.543.043,2.237,2.237,0,0,0-.393.114l-.749-3.228-1.786-9.4-.075-.388a.234.234,0,0,1,.116-.047,2.948,2.948,0,0,1,.325-.076l.156-.03a2.087,2.087,0,0,1,.431-.046Z"/>
      <path class="f" d="M46.472,19.444l-2.72.527c-1.981-3.868-4.5-6.729-7.138-8.149l-.353-1.511a6.739,6.739,0,0,1,1.292.251C40.815,11.485,44.049,14.71,46.472,19.444Z"/>
      <polygon class="e" points="46.472 19.444 45.156 20.363 39.517 24.328 39.237 23.14 43.752 19.971 46.472 19.444"/>
      <path class="f" d="M48.075,23.2l.007.035-2.716.526-.007-.035c-.038-.107-.081-.21-.114-.317l.856-.756,1.306-1.144a.488.488,0,0,1,.068.137C47.694,22.142,47.9,22.7,48.075,23.2Z"/>
      <path class="e" d="M48.082,23.232,46.71,24.426,41.987,28.54a12.715,12.715,0,0,0-.528-1.378l3.907-3.4Z"/>
    </g>
    <ellipse class="g" cx="37.278" cy="25.45" rx="0.598" ry="1.082" transform="translate(-4.161 7.556) rotate(-10.966)"/>
    <path class="g" d="M35.87,29.448c.114.586-.059,1.11-.38,1.172s-.678-.359-.792-.945.052-1.113.381-1.177S35.757,28.861,35.87,29.448Z"/>
    <ellipse class="g" cx="37.414" cy="35.107" rx="0.598" ry="1.083" transform="translate(-5.995 7.758) rotate(-10.966)"/>
    <ellipse class="g" cx="40.769" cy="34.457" rx="0.598" ry="1.083" transform="translate(-5.81 8.384) rotate(-10.966)"/>
    <ellipse class="g" cx="40.681" cy="28.515" rx="0.599" ry="1.081" transform="translate(-4.681 8.259) rotate(-10.966)"/>
    <path class="g" d="M37.723,27.76c-.892.173-1.368,1.639-1.053,3.265s1.3,2.8,2.194,2.625,1.376-1.638,1.063-3.256S38.622,27.586,37.723,27.76Zm.955,4.931c-.614.119-1.273-.7-1.489-1.807s.1-2.076.726-2.2,1.277.684,1.491,1.788S39.3,32.583,38.679,32.691Z"/>
  </g>
</svg>
