<svg xmlns="http://www.w3.org/2000/svg" viewBox="0 0 127.797 68.033">
  <defs>
    <style>
      .a {
        fill: #946650;
      }

      .b {
        fill: #3e1b10;
      }

      .c {
        fill: #d42e27;
      }

      .d {
        fill: #bd2a26;
      }

      .e {
        fill: #8a331d;
      }

      .f {
        fill: #ed7840;
      }

      .g {
        fill: #e35c25;
      }

      .h {
        fill: #c15927;
      }

      .i {
        fill: #f8e8c7;
      }

      .j {
        fill: #f8e4b8;
      }

      .k {
        fill: #f9d382;
      }

      .l {
        fill: #be8b2c;
      }

      .m {
        fill: #f8be43;
      }

      .n {
        fill: #e0aa42;
      }

      .o {
        fill: #dc5226;
      }

      .p {
        fill: #f16522;
      }

      .q {
        fill: #d36127;
      }

      .r {
        fill: #ed3724;
      }

      .s {
        fill: #a97c2c;
      }

      .t {
        fill: #f8dda1;
      }

      .u {
        fill: #a34c24;
      }

      .v {
        fill: #c04827;
      }

      .w {
        fill: #d95a27;
      }

      .x {
        fill: #f8a668;
      }

      .y {
        fill: #c04727;
      }

      .z {
        fill: #4f3425;
      }

      .aa {
        fill: #372217;
      }

      .ab {
        fill: #fdeaac;
      }

      .ab, .ac {
        opacity: 0.6;
      }

      .ac {
        fill: #fff;
      }
    </style>
  </defs>
  <title>turkey</title>
  <g>
    <path class="a" d="M364.279,308.512c0,7.811-28.714,12.927-63.942,12.927s-63.854-5.12-63.854-12.933,27.278-11.855,62.507-11.855S364.279,300.7,364.279,308.512Z" transform="translate(-236.482 -264.416)"/>
    <path class="b" d="M362.034,308.8c0,6.41-28.017,11.286-61.833,11.286s-60.62-4.876-60.62-11.286,26.185-9.729,60-9.729S362.034,302.395,362.034,308.8Z" transform="translate(-236.482 -264.416)"/>
    <path class="c" d="M262.188,305.559a9.622,9.622,0,0,1-2.309.609,6.58,6.58,0,1,1,.274-13.154,7.037,7.037,0,0,1,5.486,2.552C265.18,297.709,262.632,303.314,262.188,305.559Z" transform="translate(-236.482 -264.416)"/>
    <path class="d" d="M255.8,298.729a4.449,4.449,0,0,1,.034-4.289,6.254,6.254,0,0,0-2.556,4.99,6.684,6.684,0,0,0,6.6,6.738,9.622,9.622,0,0,0,2.309-.609,32.58,32.58,0,0,1,1.4-4.214A6.482,6.482,0,0,1,255.8,298.729Z" transform="translate(-236.482 -264.416)"/>
    <path class="e" d="M273.083,313.708c0,2.431-2.326,4.4-5.2,4.4s-4.479-1.824-5.193-4.4c-.649-2.343,2.326-4.4,5.193-4.4S273.083,311.277,273.083,313.708Z" transform="translate(-236.482 -264.416)"/>
    <path class="f" d="M263.957,316.326s-4.077-4.689-1.358-12.434,8.289-22.422,15.221-26.226S288.28,274.4,288.28,274.4s.748-2.719,9.037-3.669,9.852.407,14.607.136,7.338-1.088,9.24-2.445,4.214-4.01,6.523-4.01,3.4.611,3.4,3.193-.291,3.83-1.783,3.83-6.1-.433-8.681,2.557-2.446,3.126-2.446,3.126a32.446,32.446,0,0,1,3.8,1.9c.68.545,1.631,2.99.815,3.941l-.815.951,5.978-.272s6.115-1.7,8.7-3.736,8.086-5.844,9.715-5.98,2.65.747,3.874,2.378,2.446,5.978-.272,6.658-5.708-2.988-11.144,2.175a108.518,108.518,0,0,0-6.658,9.24s2.31-1.9,3.8.273S337.2,297.3,337.2,297.3s-5.028.068-5.3,4.01a6.788,6.788,0,0,0,2.31,5.843l-1.494,3.4s-4.621-3.262-5.844-3.125-4.3,3.89-3.4,7.609c1.02,4.212,2.191,3.975,2.191,3.975l-8.713.645s-13.357.108-17.8.339c-11.755.612-31.525-1.834-31.525-1.834a7.94,7.94,0,0,1-1.5-3.669c0-1.63.273-4.62-1.358-2.99S263.957,316.326,263.957,316.326Z" transform="translate(-236.482 -264.416)"/>
    <path class="g" d="M252.171,306a6.5,6.5,0,0,1-6.506,6.614c-3.795,0-7.236-3.07-7.236-6.614a6.887,6.887,0,0,1,13.742,0Z" transform="translate(-236.482 -264.416)"/>
    <ellipse class="c" cx="103.294" cy="46.734" rx="6.871" ry="6.416"/>
    <path class="h" d="M342.4,302.287a4.687,4.687,0,0,1-.672,2.418,8.175,8.175,0,0,0-4.7.277c-.913.365-2.091,2.147-2.892,1.738a5.02,5.02,0,0,1-2.854-4.434,5.581,5.581,0,0,1,11.115,0Z" transform="translate(-236.482 -264.416)"/>
    <path class="i" d="M245.765,299.084s3.058-3.209,4.484-3.312a3,3,0,0,1,2.445.714c.205.254.714.918.714.918a5.3,5.3,0,0,0,.1,3.871,11.891,11.891,0,0,0,2.752,3.822l-2.752-.509-1.732-.714s-.766-2.6-2.752-3.465S245.765,299.084,245.765,299.084Z" transform="translate(-236.482 -264.416)"/>
    <path class="j" d="M341.5,298.262s1.4-5.012,3.107-5.162,3.008.751,4.461,1.9a14.064,14.064,0,0,1,2.808,4.06l.2,2.907-7.168,4.261-2.658-1.5-.3-.15s1.1-2.006.251-3.509A5.03,5.03,0,0,1,341.5,298.262Z" transform="translate(-236.482 -264.416)"/>
    <path class="k" d="M359.757,307.7c.008-.019.014-.037.02-.055a10.277,10.277,0,0,0-.487-4.768c-.9-2.507-2.1-3.009-3.258-3.058s-4.21,2.456-4.661,2.756-6.166,3.71-6.166,3.71a10.68,10.68,0,0,1,1.123,6.072C351.419,314.41,357.5,312.967,359.757,307.7Z" transform="translate(-236.482 -264.416)"/>
    <path class="l" d="M359.352,307.35c-2.259,5.27-7.933,7.06-13.024,5a6.47,6.47,0,0,1-.672,2.249l2.307.7,1.5.15,7.066-2.106s2.767-2.595,3.059-4.41c.061-.381.367-.914.422-1.4C360.006,307.563,359.358,307.332,359.352,307.35Z" transform="translate(-236.482 -264.416)"/>
    <path class="m" d="M264.677,297.678s-3.034,1.428-3.882,3.481-1.071,3.795-.269,4.331a4.054,4.054,0,0,0,1.83.581Z" transform="translate(-236.482 -264.416)"/>
    <path class="k" d="M336.457,295.257l7.745,4.91s1.2.25,1.352.9-1.453,2.657-2.206,3.108a2.589,2.589,0,0,1-1.4.4,4.721,4.721,0,0,0-.8-5.162c-2.205-2.357-3.942-2.115-3.942-2.115Z" transform="translate(-236.482 -264.416)"/>
    <path class="l" d="M345.555,301.069c-.15-.652-1.352-.9-1.352-.9l-.8-.5c-.133.8-.106,1.512-1.145,1.8a5.067,5.067,0,0,1-.314,3.119,2.589,2.589,0,0,0,1.4-.4C344.1,303.727,345.706,301.722,345.555,301.069Z" transform="translate(-236.482 -264.416)"/>
    <path class="n" d="M351.871,299.064s-.282-.605-.727-1.371a15.753,15.753,0,0,1-.8,5.3l1.728-1.026Z" transform="translate(-236.482 -264.416)"/>
    <path class="o" d="M251.837,304.025a4.794,4.794,0,0,1-2.148,4.079c-2.446,2.038-6.523.815-8.153-2.038a6.2,6.2,0,0,1-.011-5.428,6.587,6.587,0,0,0-3.3,5.4c0,3.543,3.641,6.567,7.436,6.567A6.5,6.5,0,0,0,252.171,306,6.016,6.016,0,0,0,251.837,304.025Z" transform="translate(-236.482 -264.416)"/>
    <ellipse class="p" cx="247.311" cy="302.329" rx="1.835" ry="2.446" transform="translate(-360.304 159.676) rotate(-68.88)"/>
    <ellipse class="q" cx="338.105" cy="299.535" rx="1.591" ry="2.144" transform="translate(-299.566 242.686) rotate(-68.895)"/>
    <ellipse class="r" cx="261.905" cy="295.981" rx="1.835" ry="2.446" transform="translate(-345.07 169.168) rotate(-68.871)"/>
    <ellipse class="r" cx="340.963" cy="307.845" rx="2.216" ry="3.1" transform="translate(-305.496 250.656) rotate(-68.893)"/>
    <path class="s" d="M252.608,304.109c-.51-.164-1.051-.327-1.629-.488-.754-.211-1.355-.325-1.631.61a14.071,14.071,0,0,0,.306,6.047c.669,2.548,1.972,4.749,2.684,5.13,1.643.4,3.149.734,4.5,1-.491-.451-.975-.9-1.443-1.373C252.667,312.306,250.313,307.713,252.608,304.109Z" transform="translate(-236.482 -264.416)"/>
    <path class="t" d="M263.548,315.781c-.949-2-1.492-2.955-1.492-5.163,0-2.306.777-3.467-1.9-3.94-2.018-.356-4.042-1.451-7.545-2.568-2.3,3.6.059,8.2,2.787,10.926.469.469.952.922,1.443,1.373,1.5.294,2.8.506,3.857.631C262.2,317.219,263.894,316.508,263.548,315.781Z" transform="translate(-236.482 -264.416)"/>
    <path class="d" d="M337.169,313.339c-1.791-.716-3.738-4.132-1.314-7.4a6.3,6.3,0,0,0-2.949,5.207,6.655,6.655,0,0,0,6.871,6.416c2.451-.544,6.6-1.25,6.35-5.878A6.215,6.215,0,0,1,337.169,313.339Z" transform="translate(-236.482 -264.416)"/>
    <path class="t" d="M340.633,315.289c-1.47-.973-3.235-1.951-5.063-3.041-2.853-1.7-3.863-2.85-8.079-4.965-.7-.35-.977-.344-1.719.289-1.571,1.342-2.385,4.055-2.46,6.088.42,2.75,2.394,4.07,4.254,5.316,1.856-.219,3.717-.412,5.562-.658,1.687-.225,3.394-.463,5.1-.637l.976-.142A3.14,3.14,0,0,0,340.633,315.289Z" transform="translate(-236.482 -264.416)"/>
    <path class="l" d="M342.712,316.945a21.39,21.39,0,0,0-2.079-1.656,3.14,3.14,0,0,1-1.424,2.251c.194-.028.388-.056.581-.085A15.817,15.817,0,0,1,342.712,316.945Z" transform="translate(-236.482 -264.416)"/>
    <path class="l" d="M323.312,313.66a7.55,7.55,0,0,0,.006.762,8.97,8.97,0,0,0,2.137,4.818c.7-.1,1.407-.182,2.111-.264C325.706,317.73,323.986,316.563,323.312,313.66Z" transform="translate(-236.482 -264.416)"/>
    <path class="u" d="M340.189,304.027c-3.657,1.22-8.124-.8-7.343-5.259a4.836,4.836,0,0,0-1.559,3.519,5.02,5.02,0,0,0,2.854,4.434c.8.408,1.978-1.373,2.892-1.738a8.175,8.175,0,0,1,4.7-.277,4.687,4.687,0,0,0,.672-2.418,4.741,4.741,0,0,0-.075-.8A3.545,3.545,0,0,1,340.189,304.027Z" transform="translate(-236.482 -264.416)"/>
    <path class="v" d="M264.875,299.33c-.335-.838-1.991,3.746-2.276,4.563-2.719,7.744,1.358,12.434,1.358,12.434s-.815-3.193.815-4.825,1.358,1.36,1.358,2.99a7.94,7.94,0,0,0,1.5,3.669s.118.016.34.041c-.675-5.782,4.04-9,7.04-13.1C271.727,307.313,266.116,305.3,264.875,299.33Z" transform="translate(-236.482 -264.416)"/>
    <path class="w" d="M337.2,297.3s.271-.475-1.224-2.648a2.168,2.168,0,0,0-1.561-1.028c-2.279-1.112-3.1,1.925-4.419,3.626-1.631,1.631,0,5.963-2.852,8-9.785,6.932-21.607,5.3-29.76-2.853-2.854-3.261-3.262-8.968.815-11.822-4.077-.407-7.747,1.224-11.415,2.854-4.077,2.038-8.561,7.745-13.453,4.077-3.371-2.594-3.936-7-3.062-11.228a98.244,98.244,0,0,0-6.719,14.951c.414.785-.5,4.18.715,5.928,1.964,3.928,7.521,1.367,10.74-2.055a13.875,13.875,0,0,0,1.588-2.7c.814,1.631-.081,3.281,1.957,2.466,3.669-2.039,7.012-5.727,10.68-7.766,0,6.468-3.92,10.476-9.538,14.968,3.458,2.22,8.421,4.545,12.267,1.882a17.023,17.023,0,0,0,2.978-4.212c.408.408.816,1.631,1.225,2.039,6.986,6.471,18.346,4.711,27.231,2.851-.593-3.581,1.157-7.315,3.478-7.2,1.23.061,5.844,3.125,5.844,3.125l1.494-3.4a5.87,5.87,0,0,1-2.556-5.546C331.925,297.666,337.2,297.3,337.2,297.3Z" transform="translate(-236.482 -264.416)"/>
    <path class="v" d="M296.163,311.773c-.408-.408-2.137-3.8-2.545-4.209.129,2.3-1.124,3.394-2.348,4.617-3.845,2.662-8.119,2.1-11.577-.117q-.6.483-1.231.975c-2.545,4.137,7.476,4.5,13.134,7.006,2.684.072,5.272.068,7.557-.051,4.444-.231,17.8-.339,17.8-.339l8.68-.643c-.191,0-1.238-.172-2.158-3.977-.033-.137-.177-1.718-.2-1.854C314.39,315.041,303.108,318.158,296.163,311.773Z" transform="translate(-236.482 -264.416)"/>
    <path class="c" d="M293.309,317.073c1.6,1.6,4.784,3.2,6.44.54a4.622,4.622,0,0,0-4.129-2.646,3.973,3.973,0,0,0-2.545.906A2.21,2.21,0,0,0,293.309,317.073Z" transform="translate(-236.482 -264.416)"/>
    <path class="d" d="M299.749,317.613c-1.656,2.664-4.836,1.065-6.44-.54a2.21,2.21,0,0,1-.233-1.2,3.977,3.977,0,0,0-1.465,3.034c0,2.026,2.09.884,4.416.884s4.009,1.143,4.009-.884A3.254,3.254,0,0,0,299.749,317.613Z" transform="translate(-236.482 -264.416)"/>
    <ellipse class="r" cx="296.761" cy="316.501" rx="1.096" ry="1.461" transform="translate(-341.866 214.933) rotate(-68.889)"/>
    <path class="w" d="M276.349,302.841a16.646,16.646,0,0,1-4.43,5.928c-3.787,2.811-3.562,4.69-3.583,6.4a10.6,10.6,0,0,1-.3,3.2l13.153,1.045,10.764.385s-11.108-1.7-13.832-5.383C269.943,314.356,275.736,307.133,276.349,302.841Z" transform="translate(-236.482 -264.416)"/>
    <path class="w" d="M335.944,287.774A45.411,45.411,0,0,1,325.6,298.008c-7.455,5.06-15.351,0-12.956,3.92s7.948,3.7,12.3.327C331.46,297.208,335.944,287.774,335.944,287.774Z" transform="translate(-236.482 -264.416)"/>
    <path class="w" d="M317.87,277.224s-5.633-1.3-7.541-1.554c-2.557-.334-10.294-.586-10.294-.586s12.739.611,19.567-3.975,10.7-.713,11.008-5.4c1.024.691.306,4.791.306,4.791a4.348,4.348,0,0,1-2.166,1.186c-1.534.338-3.733.117-4.968.547C321.438,273.045,318.379,274.879,317.87,277.224Z" transform="translate(-236.482 -264.416)"/>
    <g>
      <path class="w" d="M277.993,293.156a.592.592,0,0,1,.032.088c.009.019.021.037.028.059C278.034,293.255,278.013,293.205,277.993,293.156Z" transform="translate(-236.482 -264.416)"/>
      <path class="w" d="M278.025,293.244a.842.842,0,0,0-.556-.523.851.851,0,0,0-.943.387.245.245,0,0,0-.035.053.88.88,0,0,0,.756,1.307A.87.87,0,0,0,278.025,293.244Z" transform="translate(-236.482 -264.416)"/>
    </g>
    <path class="w" d="M282.958,293.006a.922.922,0,1,0,0,1.778.908.908,0,0,0,0-1.778Z" transform="translate(-236.482 -264.416)"/>
    <path class="w" d="M277.341,295.928a1.151,1.151,0,1,0,1.155,1.148A1.162,1.162,0,0,0,277.341,295.928Z" transform="translate(-236.482 -264.416)"/>
    <path class="w" d="M272.17,291.25a.956.956,0,0,0,0,1.91A.956.956,0,0,0,272.17,291.25Z" transform="translate(-236.482 -264.416)"/>
    <path class="w" d="M273.884,294.734a.109.109,0,0,1-.014-.018.958.958,0,0,0-1.054-.426.933.933,0,0,0,0,1.8.957.957,0,0,0,1.052-.432l.011-.019A.87.87,0,0,0,273.884,294.734Z" transform="translate(-236.482 -264.416)"/>
    <circle class="w" cx="272.202" cy="287.427" r="0.944" transform="translate(-237.075 -263.853) rotate(-0.118)"/>
    <path class="w" d="M276.056,287.771a.947.947,0,0,0-.193-.148.812.812,0,1,0,0,1.4,1.01,1.01,0,0,0,.193-.149A.783.783,0,0,0,276.056,287.771Z" transform="translate(-236.482 -264.416)"/>
    <path class="w" d="M274.614,283.795a1.418,1.418,0,0,0-.121-.275.859.859,0,0,0-.732-.415.843.843,0,0,0-.813.622l-.008.038a.869.869,0,0,0,.224.837c.01.01.02.017.029.025a.868.868,0,0,0,1.032.13A.851.851,0,0,0,274.614,283.795Z" transform="translate(-236.482 -264.416)"/>
    <circle class="w" cx="286.595" cy="291.508" r="0.912" transform="translate(-237.105 -263.803) rotate(-0.122)"/>
    <circle class="w" cx="290.673" cy="289.917" r="1.099" transform="translate(-237.247 -263.648) rotate(-0.151)"/>
    <path class="w" d="M295.743,287.967a1.056,1.056,0,0,0,.006,2.111A1.056,1.056,0,0,0,295.743,287.967Z" transform="translate(-236.482 -264.416)"/>
    <circle class="w" cx="279.532" cy="290.017" r="0.77" transform="translate(-237.217 -263.706) rotate(-0.145)"/>
    <path class="w" d="M282.374,288.328h-.058a.793.793,0,1,0,0,1.586h.059a.793.793,0,1,0,0-1.586Z" transform="translate(-236.482 -264.416)"/>
    <path class="w" d="M287.089,286.806a1.023,1.023,0,0,0,.006,2.045A1.023,1.023,0,0,0,287.089,286.806Z" transform="translate(-236.482 -264.416)"/>
    <circle class="w" cx="291.867" cy="287.529" r="0.722" transform="translate(-237.457 -263.423) rotate(-0.195)"/>
    <circle class="w" cx="297.437" cy="287.43" r="0.717" transform="translate(-236.863 -264.022) rotate(-0.076)"/>
    <path class="w" d="M299.922,286.064a.669.669,0,0,0,0,1.338A.669.669,0,0,0,299.922,286.064Z" transform="translate(-236.482 -264.416)"/>
    <path class="w" d="M298.448,299.232a.919.919,0,1,0-1.706.4,1.025,1.025,0,0,0,.845.5.866.866,0,0,0,.865-.869C298.452,299.234,298.45,299.229,298.448,299.232Z" transform="translate(-236.482 -264.416)"/>
    <circle class="w" cx="299.724" cy="302.549" r="0.879" transform="translate(-237.496 -263.409) rotate(-0.192)"/>
    <path class="w" d="M303.245,301.394a.97.97,0,1,0-1.19,1.2,2.182,2.182,0,0,0,.309.041.925.925,0,0,0,.923-.93A2.205,2.205,0,0,0,303.245,301.394Z" transform="translate(-236.482 -264.416)"/>
    <path class="w" d="M302.1,303.246l-.044-.02c-.329-.137-.677.2-.677.518a.537.537,0,0,0,.678.516l.045-.021A.52.52,0,0,0,302.1,303.246Z" transform="translate(-236.482 -264.416)"/>
    <path class="w" d="M305.192,304.407a1.027,1.027,0,0,0,.006,2.054A1.027,1.027,0,0,0,305.192,304.407Z" transform="translate(-236.482 -264.416)"/>
    <circle class="w" cx="304.599" cy="303.146" r="0.75" transform="translate(-237.27 -263.623) rotate(-0.149)"/>
    <path class="w" d="M308.019,305.523a1.107,1.107,0,1,0,1.109,1.106A1.118,1.118,0,0,0,308.019,305.523Z" transform="translate(-236.482 -264.416)"/>
    <circle class="w" cx="311.163" cy="306.528" r="0.955" transform="translate(-237.107 -263.78) rotate(-0.117)"/>
    <path class="w" d="M312.388,307.412a.133.133,0,0,1-.028-.048.708.708,0,0,0-.61-.348.72.72,0,0,0-.436.112.694.694,0,0,0,0,1.188.77.77,0,0,0,1.046-.238c-.024.024-.045.051-.067.076A.619.619,0,0,0,312.388,307.412Z" transform="translate(-236.482 -264.416)"/>
    <circle class="w" cx="315.64" cy="307.324" r="1.046" transform="translate(-237.186 -263.691) rotate(-0.131)"/>
    <circle class="w" cx="319.021" cy="307.224" r="0.97" transform="translate(-237.258 -263.609) rotate(-0.145)"/>
    <circle class="w" cx="321.707" cy="306.826" r="0.802" transform="translate(-237.036 -263.834) rotate(-0.104)"/>
    <circle class="w" cx="324.692" cy="305.235" r="0.831" transform="translate(-237.199 -263.652) rotate(-0.135)"/>
    <path class="w" d="M326.878,302.671a.774.774,0,0,0,0,1.548A.774.774,0,0,0,326.878,302.671Z" transform="translate(-236.482 -264.416)"/>
    <path class="w" d="M312.752,297.079a1.094,1.094,0,1,0,1.1,1.091A1.1,1.1,0,0,0,312.752,297.079Z" transform="translate(-236.482 -264.416)"/>
    <path class="w" d="M317.472,296.871l-.016-.02a1.013,1.013,0,0,0-1-.261,1.023,1.023,0,0,0-.239,1.869,1.021,1.021,0,0,0,1.238-.163.086.086,0,0,1,.018-.019A1.024,1.024,0,0,0,317.472,296.871Z" transform="translate(-236.482 -264.416)"/>
    <path class="w" d="M321.206,296.9a1.076,1.076,0,0,0,.008,2.15A1.076,1.076,0,0,0,321.206,296.9Z" transform="translate(-236.482 -264.416)"/>
    <path class="w" d="M320.7,294.666c.065.148.081.179.047.094a.88.88,0,0,0-.83-.629.865.865,0,0,0-.857.861.913.913,0,0,0,.7.9A.843.843,0,0,0,320.7,294.666Z" transform="translate(-236.482 -264.416)"/>
    <path class="w" d="M324.53,295.156c-.008-.016-.014-.031-.022-.047a.947.947,0,0,0-1.627,0c0,.015-.014.03-.02.046a1,1,0,0,0,0,.975.966.966,0,0,0,1.668,0A1,1,0,0,0,324.53,295.156Z" transform="translate(-236.482 -264.416)"/>
    <circle class="w" cx="326.184" cy="294.393" r="0.956" transform="translate(-237.237 -263.578) rotate(-0.147)"/>
    <circle class="w" cx="329.068" cy="292.503" r="0.864" transform="translate(-237.462 -263.31) rotate(-0.192)"/>
    <path class="w" d="M331.95,288.572a1.052,1.052,0,0,0-1.045,1.05c0,.015,0,.032,0,.049a1.043,1.043,0,1,0,2.085-.006c0-.016,0-.032,0-.05A1.05,1.05,0,0,0,331.95,288.572Z" transform="translate(-236.482 -264.416)"/>
    <path class="w" d="M350.233,280.637a.838.838,0,1,0-1.529.649.866.866,0,0,0,.725.412A.845.845,0,0,0,350.233,280.637Z" transform="translate(-236.482 -264.416)"/>
    <path class="w" d="M347.087,280.236c.076.1.1.135.064.09a.682.682,0,0,0-1.154,0c-.034.045-.014.014.063-.092a.72.72,0,0,0-.186.707.726.726,0,0,0,1.328.169A.722.722,0,0,0,347.087,280.236Z" transform="translate(-236.482 -264.416)"/>
    <path class="w" d="M342.2,281.269a.156.156,0,0,0-.006-.03.64.64,0,0,0-.47-.468l-.03,0a.745.745,0,0,0-.813.333.721.721,0,0,0,.989.984A.749.749,0,0,0,342.2,281.269Z" transform="translate(-236.482 -264.416)"/>
    <path class="f" d="M268.719,294.239a.986.986,0,0,0-.936,1.235,1.055,1.055,0,0,0,.49.65.883.883,0,0,0,.882,0,.954.954,0,0,0,.507-.651A.987.987,0,0,0,268.719,294.239Z" transform="translate(-236.482 -264.416)"/>
    <path class="f" d="M270.1,298.107a1.019,1.019,0,0,0-.764-.078.851.851,0,0,0,0,1.631,1.014,1.014,0,0,0,.764-.082A.858.858,0,0,0,270.1,298.107Z" transform="translate(-236.482 -264.416)"/>
    <path class="f" d="M272.323,297.826l-.023-.021a.811.811,0,0,0-.764-.2.783.783,0,0,0-.184,1.433.8.8,0,0,0,.949-.126.617.617,0,0,0,.142-.173A.768.768,0,0,0,272.323,297.826Z" transform="translate(-236.482 -264.416)"/>
    <path class="f" d="M274.8,300.094a.879.879,0,1,0,.091.677A.84.84,0,0,0,274.8,300.094Z" transform="translate(-236.482 -264.416)"/>
    <path class="f" d="M279.852,298.375a1.075,1.075,0,1,0,1.077,1.071A1.083,1.083,0,0,0,279.852,298.375Z" transform="translate(-236.482 -264.416)"/>
    <circle class="f" cx="284.454" cy="297.271" r="0.908" transform="translate(-237.121 -263.804) rotate(-0.123)"/>
    <path class="f" d="M288.022,293.684a1.046,1.046,0,1,0,1.049,1.043A1.058,1.058,0,0,0,288.022,293.684Z" transform="translate(-236.482 -264.416)"/>
    <path class="f" d="M292.192,293.063a.88.88,0,0,0-1.039-.619.9.9,0,0,0-.674.856.872.872,0,1,0,1.713-.236Z" transform="translate(-236.482 -264.416)"/>
    <path class="f" d="M294.806,300.319l-.035.011a1.011,1.011,0,0,0,0,1.937.233.233,0,0,1,.035.011,1.015,1.015,0,1,0,0-1.958Z" transform="translate(-236.482 -264.416)"/>
    <circle class="f" cx="298.151" cy="304.685" r="0.938" transform="translate(-237.279 -263.635) rotate(-0.15)"/>
    <g>
      <path class="f" d="M300.2,308.3a.74.74,0,0,0-.248-.116c-.109-.025-.444-.095-.137-.022a.879.879,0,1,0,.215,1.605.983.983,0,0,0,.387-.359,1.487,1.487,0,0,0,.1-.233c0-.033.007-.051.009-.076A.742.742,0,0,0,300.2,308.3Z" transform="translate(-236.482 -264.416)"/>
      <path class="f" d="M300.538,308.99c0,.022-.006.058-.014.109h0C300.532,309.049,300.536,309.014,300.538,308.99Z" transform="translate(-236.482 -264.416)"/>
      <path class="f" d="M300.538,308.99Z" transform="translate(-236.482 -264.416)"/>
    </g>
    <path class="f" d="M304.9,308.293a.961.961,0,0,0,0,1.92A.961.961,0,0,0,304.9,308.293Z" transform="translate(-236.482 -264.416)"/>
    <path class="f" d="M302.727,310.3a.526.526,0,0,0,0,1.052A.526.526,0,0,0,302.727,310.3Z" transform="translate(-236.482 -264.416)"/>
    <path class="f" d="M307.46,309.607a1.033,1.033,0,0,0-1,0,.989.989,0,0,0,0,1.708,1.033,1.033,0,0,0,1,0A.956.956,0,0,0,307.46,309.607Z" transform="translate(-236.482 -264.416)"/>
    <circle class="f" cx="310.715" cy="309.857" r="0.913" transform="translate(-237.466 -263.427) rotate(-0.182)"/>
    <path class="f" d="M313.3,311.234a.852.852,0,0,0-1.051-.556.811.811,0,0,0-.562,1,.82.82,0,0,0,1.188.477A.8.8,0,0,0,313.3,311.234Z" transform="translate(-236.482 -264.416)"/>
    <path class="f" d="M316.085,309.811a1.032,1.032,0,0,0-.252.133.272.272,0,0,0-.035.022.438.438,0,0,0-.051.044.172.172,0,0,0-.029.024.712.712,0,0,0,0,1.1.406.406,0,0,0,.043.037c.014.01.025.023.039.033l.033.022a1.141,1.141,0,0,0,.256.133.8.8,0,1,0,0-1.547Z" transform="translate(-236.482 -264.416)"/>
    <circle class="f" cx="319.67" cy="310.221" r="1.017" transform="translate(-237.228 -263.645) rotate(-0.138)"/>
    <circle class="f" cx="321.727" cy="308.647" r="0.702" transform="translate(-237.338 -263.521) rotate(-0.159)"/>
    <circle class="f" cx="326.931" cy="305.863" r="1.018" transform="translate(-237.218 -263.628) rotate(-0.138)"/>
    <circle class="f" cx="328.747" cy="302.959" r="0.655" transform="translate(-237.384 -263.435) rotate(-0.171)"/>
    <circle class="f" cx="329.835" cy="300.418" r="0.922" transform="translate(-237.117 -263.718) rotate(-0.121)"/>
    <path class="f" d="M332.2,296.473a.7.7,0,1,0,0,1.354.693.693,0,0,0,0-1.354Z" transform="translate(-236.482 -264.416)"/>
    <path class="f" d="M334.8,294.566a.406.406,0,0,0,0,.813A.406.406,0,0,0,334.8,294.566Z" transform="translate(-236.482 -264.416)"/>
    <circle class="f" cx="273.804" cy="297.876" r="1.028" transform="translate(-237.192 -263.762) rotate(-0.137)"/>
    <path class="f" d="M271.018,293.834a1.017,1.017,0,1,0,1.021,1.014A1.027,1.027,0,0,0,271.018,293.834Z" transform="translate(-236.482 -264.416)"/>
    <circle class="f" cx="270.052" cy="291.946" r="0.965" transform="translate(-237.208 -263.743) rotate(-0.143)"/>
    <path class="f" d="M269.929,287.188a.765.765,0,0,0,0,1.529A.765.765,0,0,0,269.929,287.188Z" transform="translate(-236.482 -264.416)"/>
    <circle class="f" cx="281.7" cy="296.432" r="0.917" transform="translate(-237.112 -263.816) rotate(-0.122)"/>
    <path class="f" d="M285.581,294.211a.962.962,0,0,0-.109-.141.748.748,0,0,0-.539-.2c-.039,0-.078,0-.118,0a.745.745,0,1,0,0,1.49.867.867,0,0,0,.453-.106.6.6,0,0,0,.168-.135c.038-.049.076-.1.113-.148.09-.215.1-.232.029-.049A.678.678,0,0,0,285.581,294.211Z" transform="translate(-236.482 -264.416)"/>
    <path class="f" d="M289.1,292.365a.884.884,0,1,0-.008.873A.939.939,0,0,0,289.1,292.365Z" transform="translate(-236.482 -264.416)"/>
    <path class="f" d="M292.669,291v0c-.035-.053-.072-.106-.11-.152l.024.039a.759.759,0,0,0-.992-.19.8.8,0,0,0,0,1.363.9.9,0,0,0,.236.094.8.8,0,0,0,.943-.54A.658.658,0,0,0,292.669,291Z" transform="translate(-236.482 -264.416)"/>
    <path class="f" d="M296.009,290.051a.776.776,0,0,0-.443-.242.892.892,0,0,0-.644.086.837.837,0,0,0-.166,1.314.876.876,0,0,0,.816.212.78.78,0,0,0,.442-.244A.814.814,0,0,0,296.009,290.051Z" transform="translate(-236.482 -264.416)"/>
    <path class="f" d="M296.184,297.107l0-.023a.827.827,0,1,0-1.593.443.811.811,0,0,0,.579.577c.008,0,.016,0,.025,0a.68.68,0,0,0,.231.043.775.775,0,0,0,.378-.1l.151-.117c.142-.189.152-.2.027-.033A.808.808,0,0,0,296.184,297.107Z" transform="translate(-236.482 -264.416)"/>
    <path class="f" d="M297.038,301.936a.926.926,0,0,0-.869.665.913.913,0,0,0,.633,1.108,1.2,1.2,0,0,0,.921-.074.747.747,0,0,0,.378-.662A1.038,1.038,0,0,0,297.038,301.936Z" transform="translate(-236.482 -264.416)"/>
    <path class="f" d="M301.911,305.58c.158.126.139.113-.056-.039a.885.885,0,0,0-.462-.107.793.793,0,0,0,0,1.586.945.945,0,0,0,.27-.029l.19-.08c.193-.153.213-.167.057-.038a.746.746,0,0,0,0-1.292Z" transform="translate(-236.482 -264.416)"/>
    <path class="f" d="M295.548,298.406a1.137,1.137,0,1,0,1.141,1.135A1.148,1.148,0,0,0,295.548,298.406Z" transform="translate(-236.482 -264.416)"/>
    <path class="f" d="M304.827,306.868c-.008-.016-.016-.03-.025-.046a.808.808,0,0,0-1.383,0l-.026.046a.831.831,0,1,0,1.435,0Z" transform="translate(-236.482 -264.416)"/>
    <path class="f" d="M307.917,307.957a.983.983,0,0,0-.248-.424c-.24-.182-.26-.2-.062-.051a1.148,1.148,0,0,0-.848-.322,1.046,1.046,0,0,0,.006,2.093,1.212,1.212,0,0,0,.716-.224,1,1,0,0,0,.342-.331A.971.971,0,0,0,307.917,307.957Z" transform="translate(-236.482 -264.416)"/>
    <path class="f" d="M313.71,309.1a.715.715,0,0,0-.5-.5l-.048-.01a.722.722,0,0,0-.676.18.714.714,0,0,0-.1.842.381.381,0,0,0,.02.047.719.719,0,0,0,.813.328.569.569,0,0,0,.316-.186A.758.758,0,0,0,313.71,309.1Z" transform="translate(-236.482 -264.416)"/>
    <path class="f" d="M316.192,308.785l-.037-.037a.674.674,0,1,0,0,.953l.038-.039A.626.626,0,0,0,316.192,308.785Z" transform="translate(-236.482 -264.416)"/>
    <path class="f" d="M318.839,308.6a.8.8,0,0,0-1.161.055.772.772,0,0,0-.267.576.763.763,0,0,0,.563.734.9.9,0,0,0,.868-.24A.8.8,0,0,0,318.839,308.6Z" transform="translate(-236.482 -264.416)"/>
    <path class="f" d="M320.372,307.772a1.446,1.446,0,0,0-.192-.082.641.641,0,1,0,0,1.235,1.406,1.406,0,0,0,.193-.084A.623.623,0,0,0,320.372,307.772Z" transform="translate(-236.482 -264.416)"/>
    <path class="f" d="M323.606,307.08a.622.622,0,0,0-.606-.149.972.972,0,0,0-.5.435.66.66,0,0,0,.106.8.669.669,0,0,0,.933,0A.766.766,0,0,0,323.606,307.08Z" transform="translate(-236.482 -264.416)"/>
    <path class="f" d="M324.595,306.234a.545.545,0,0,0,0,1.089A.545.545,0,0,0,324.595,306.234Z" transform="translate(-236.482 -264.416)"/>
    <path class="f" d="M316.513,299.875a.884.884,0,0,0-.983-.4,1.268,1.268,0,0,0-.781.573,1.017,1.017,0,0,0,.881,1.529,1.1,1.1,0,0,0,.72-.3A1.08,1.08,0,0,0,316.513,299.875Z" transform="translate(-236.482 -264.416)"/>
    <circle class="f" cx="320.061" cy="299.951" r="0.848" transform="translate(-237.173 -263.678) rotate(-0.132)"/>
    <path class="f" d="M324.854,299.069a.979.979,0,0,0-1.943,0,1.008,1.008,0,1,0,1.943,0Z" transform="translate(-236.482 -264.416)"/>
    <path class="f" d="M326.187,296.2l-.092.049a.865.865,0,1,0,1.187,1.18l.05-.091A.84.84,0,0,0,326.187,296.2Z" transform="translate(-236.482 -264.416)"/>
    <circle class="f" cx="329.183" cy="294.855" r="0.721" transform="translate(-237.482 -263.297) rotate(-0.195)"/>
    <path class="f" d="M313.9,302.5a.951.951,0,0,0-1.572.608.807.807,0,0,0,.362.885.789.789,0,0,0,.949-.125c.037-.039.068-.084.1-.125a.77.77,0,0,0,.367-.469A.8.8,0,0,0,313.9,302.5Z" transform="translate(-236.482 -264.416)"/>
    <circle class="f" cx="309.615" cy="274.472" r="0.907" transform="translate(-237.357 -263.426) rotate(-0.183)"/>
    <path class="f" d="M314.08,272.867a1.071,1.071,0,0,0-.649-.327.946.946,0,1,0,.006,1.825,1.084,1.084,0,0,0,.647-.33A.858.858,0,0,0,314.08,272.867Z" transform="translate(-236.482 -264.416)"/>
    <path class="f" d="M316.857,271.46a.779.779,0,1,0,.657.769A.809.809,0,0,0,316.857,271.46Z" transform="translate(-236.482 -264.416)"/>
    <path class="f" d="M321.021,270.045a1.032,1.032,0,0,0-.252-.256,1.274,1.274,0,0,0-.433-.215.851.851,0,1,0,0,1.641,1.329,1.329,0,0,0,.428-.213,1.007,1.007,0,0,0,.254-.26A.668.668,0,0,0,321.021,270.045Z" transform="translate(-236.482 -264.416)"/>
    <g>
      <path class="f" d="M324.882,269.826c-.013.01-.023.021-.038.03C324.977,269.753,324.985,269.744,324.882,269.826Z" transform="translate(-236.482 -264.416)"/>
      <path class="f" d="M325.112,268.746c-.007-.018-.014-.037-.023-.056l-.141-.181a.274.274,0,0,0-.038-.029.936.936,0,0,0-1.629.842.977.977,0,0,0,.658.656,1.157,1.157,0,0,0,.383.055.88.88,0,0,0,.449-.123l.109-.084A.8.8,0,0,0,325.112,268.746Z" transform="translate(-236.482 -264.416)"/>
    </g>
    <path class="f" d="M327.856,268.221a.545.545,0,0,0,0,1.089A.545.545,0,0,0,327.856,268.221Z" transform="translate(-236.482 -264.416)"/>
    <path class="x" d="M285.725,278.084a1.4,1.4,0,0,0-1.507.262c-.353.417-.024.968.651,1.095.647.121,1.419-.231,1.371-.722A.749.749,0,0,0,285.725,278.084Z" transform="translate(-236.482 -264.416)"/>
    <ellipse class="x" cx="291.676" cy="276.544" rx="0.922" ry="0.646" transform="translate(-237.53 -263.307) rotate(-0.217)"/>
    <path class="x" d="M288.585,276.785l-.056-.013c-.507-.119-1.028.2-1.026.554s.523.671,1.029.553c.019-.006.037-.01.055-.014C289.345,277.688,289.337,276.963,288.585,276.785Z" transform="translate(-236.482 -264.416)"/>
    <path class="x" d="M291.136,279.568a1.226,1.226,0,0,0-.764-.367,1.363,1.363,0,0,0-.3-.033,1.274,1.274,0,0,0-.948.372c-.34.378-.144.894.433,1.108a1.692,1.692,0,0,0,.891.078c.35-.066.756-.291.808-.553A.639.639,0,0,0,291.136,279.568Z" transform="translate(-236.482 -264.416)"/>
    <ellipse class="x" cx="295.955" cy="276.922" rx="0.931" ry="0.744" transform="translate(-237.393 -263.439) rotate(-0.189)"/>
    <path class="x" d="M296.261,279.772l.094.035a.726.726,0,0,0-.372-.1,2.485,2.485,0,0,0-.306.047.747.747,0,1,0,.4,1.438,1.31,1.31,0,0,0,.279-.113.748.748,0,0,0,.264-.266c.083-.212.1-.236.038-.07A.669.669,0,0,0,296.261,279.772Z" transform="translate(-236.482 -264.416)"/>
    <path class="x" d="M299.794,278.287c-.621,0-1.139.383-1.138.837s.523.833,1.144.833,1.141-.384,1.138-.837S300.417,278.287,299.794,278.287Z" transform="translate(-236.482 -264.416)"/>
    <path class="x" d="M301.337,276.613a1.077,1.077,0,0,0-.652-.331.888.888,0,0,0-.97.392c-.125.329.194.637.644.693l.041.008a1.556,1.556,0,0,0,.309.019C301.22,277.388,301.678,276.943,301.337,276.613Z" transform="translate(-236.482 -264.416)"/>
    <ellipse class="x" cx="303.806" cy="278.854" rx="1.031" ry="0.849" transform="translate(-237.122 -263.717) rotate(-0.132)"/>
    <path class="x" d="M308.157,277a2.131,2.131,0,0,0-.554-.228c-.579-.156-1.183.245-1.181.66s.606.813,1.186.656a1.68,1.68,0,0,0,.385-.137.733.733,0,0,0,.379-.362A.494.494,0,0,0,308.157,277Z" transform="translate(-236.482 -264.416)"/>
    <path class="x" d="M311.145,278.383a1.394,1.394,0,0,0-.71.18.483.483,0,0,0-.256.594.082.082,0,0,0,.016.042,1.247,1.247,0,0,0,1.9,0c.009-.014.017-.027.024-.041C312.354,278.777,311.751,278.382,311.145,278.383Z" transform="translate(-236.482 -264.416)"/>
    <path class="x" d="M316.4,277.643a1.042,1.042,0,0,0-1.362.41c-.146.43.229.955.825,1.161a1.045,1.045,0,0,0,1.363-.409C317.368,278.375,316.991,277.848,316.4,277.643Z" transform="translate(-236.482 -264.416)"/>
    <path class="x" d="M321.6,279.851a.888.888,0,0,0-.785-.447.916.916,0,0,0-.641.267.953.953,0,0,0-.14,1.1.262.262,0,0,0,.028.057.887.887,0,0,0,1.519,0,.94.94,0,0,0,.113-.275A.966.966,0,0,0,321.6,279.851Z" transform="translate(-236.482 -264.416)"/>
    <path class="x" d="M313.487,281.385a.721.721,0,0,0-.674-.168.62.62,0,0,0,0,1.188.724.724,0,0,0,.674-.173A.6.6,0,0,0,313.487,281.385Z" transform="translate(-236.482 -264.416)"/>
    <path class="x" d="M279.491,279.467a.939.939,0,0,0-.94,0l-.028.018a.9.9,0,0,0-.319,1.235.149.149,0,0,0,.017.022.97.97,0,0,0,.8.459.942.942,0,0,0,.9-.686.58.58,0,0,0,.033-.248A.973.973,0,0,0,279.491,279.467Z" transform="translate(-236.482 -264.416)"/>
    <circle class="x" cx="283.512" cy="280.931" r="0.704" transform="translate(-237.06 -263.832) rotate(-0.118)"/>
    <path class="x" d="M283.78,277.063a.838.838,0,0,0-.892-.391.756.756,0,0,0-.179.029.872.872,0,0,0,.236,1.711.918.918,0,0,0,.7-.322A.872.872,0,0,0,283.78,277.063Z" transform="translate(-236.482 -264.416)"/>
    <path class="x" d="M295.21,271.945a1.626,1.626,0,0,0-.792.072.7.7,0,0,0-.506.6.61.61,0,0,0,.3.49,1.486,1.486,0,0,0,1,.178c.456-.043.827-.369.825-.673S295.666,271.988,295.21,271.945Z" transform="translate(-236.482 -264.416)"/>
    <path class="x" d="M300.341,271.258a2.489,2.489,0,0,0-.41-.037c-.513,0-.939.293-.939.639s.432.635.943.635a2.568,2.568,0,0,0,.409-.037C301.226,272.307,301.216,271.408,300.341,271.258Z" transform="translate(-236.482 -264.416)"/>
    <ellipse class="x" cx="303.194" cy="272.95" rx="0.81" ry="0.548" transform="translate(-237.451 -263.337) rotate(-0.204)"/>
    <path class="x" d="M307.528,271.879a.576.576,0,0,0-.166-.154c-.061-.031-.124-.062-.184-.1-.265-.076-.291-.082-.078-.02a1.446,1.446,0,0,0-.715-.062.844.844,0,0,0-.645.44.463.463,0,0,0,.094.481,1.117,1.117,0,0,0,.8.31.372.372,0,0,0,.087,0,1.049,1.049,0,0,0,.785-.307C307.641,272.281,307.712,272.072,307.528,271.879Z" transform="translate(-236.482 -264.416)"/>
    <ellipse class="x" cx="311.756" cy="272.133" rx="0.76" ry="0.514" transform="translate(-237.749 -262.958) rotate(-0.267)"/>
    <path class="x" d="M309.563,271.83a.922.922,0,0,0-1.1-.094.432.432,0,0,0-.215.393.249.249,0,0,0,.074.193.947.947,0,0,0,.822.2C309.591,272.461,309.781,272.082,309.563,271.83Z" transform="translate(-236.482 -264.416)"/>
    <path class="x" d="M302.9,290.706c-.085-.048-.181-.087-.274-.128a1.392,1.392,0,0,0-1.054.076.656.656,0,0,0,.094,1.279,1.4,1.4,0,0,0,1.055-.076,2.69,2.69,0,0,0,.253-.166A.569.569,0,0,0,302.9,290.706Z" transform="translate(-236.482 -264.416)"/>
    <path class="x" d="M309.878,287.114a1.284,1.284,0,0,0-1.568.259c-.252.356-.053.787.434.949a1.174,1.174,0,0,0,1.443-.533A.581.581,0,0,0,309.878,287.114Z" transform="translate(-236.482 -264.416)"/>
    <path class="x" d="M312.456,289.479l-.041-.01a1.3,1.3,0,0,0-.924.066.575.575,0,0,0,.082,1.121,1.322,1.322,0,0,0,.924-.066l.039-.017A.562.562,0,0,0,312.456,289.479Z" transform="translate(-236.482 -264.416)"/>
    <path class="x" d="M308.282,290.373a.988.988,0,0,0-.729-.082c.3-.074-.2.042-.274.066-.339.106-.57.329-.553.594.025.32.408.532.848.513a1.268,1.268,0,0,0,.527-.145.844.844,0,0,0,.408-.448C308.6,290.7,308.459,290.48,308.282,290.373Z" transform="translate(-236.482 -264.416)"/>
    <ellipse class="x" cx="313.708" cy="287.549" rx="0.928" ry="0.659" transform="matrix(0.997, -0.073, 0.073, 0.997, -256.534, -240.878)"/>
    <path class="x" d="M318.669,287.539a.811.811,0,0,0-.426.452c-.181.51.656.853,1.242.566a.65.65,0,0,0,.416-.618C319.9,287.521,319.151,287.275,318.669,287.539Z" transform="translate(-236.482 -264.416)"/>
    <path class="x" d="M319.321,285.3c-.42.01-.748.319-.728.6a.7.7,0,0,0,.809.49c.428-.051.869-.26.844-.609S319.751,285.293,319.321,285.3Z" transform="translate(-236.482 -264.416)"/>
    <path class="x" d="M324.944,286.066a.975.975,0,0,0-.649-.131c-.435.065-.788.293-.765.629.03.386.561.6,1.061.478l.051-.013a.728.728,0,0,0,.531-.436l0-.019A.442.442,0,0,0,324.944,286.066Z" transform="translate(-236.482 -264.416)"/>
    <path class="x" d="M330.259,284.674l-.037-.008a1.085,1.085,0,0,0-.806.057c-.075.046-.148.094-.219.143a.417.417,0,0,0,.053.727c.078.039.157.074.239.109a1.086,1.086,0,0,0,.8-.059.279.279,0,0,0,.036-.014A.491.491,0,0,0,330.259,284.674Z" transform="translate(-236.482 -264.416)"/>
    <path class="x" d="M348.772,275.832c-2.4-2.252-6.877,1.121-8.532,2.869a.073.073,0,0,0,.07.121c1.257-.379,2.477-.708,3.714-1.176a5.478,5.478,0,0,1,3.906-.358C348.763,277.6,349.384,276.405,348.772,275.832Z" transform="translate(-236.482 -264.416)"/>
    <path class="x" d="M329.558,265.128a.733.733,0,0,0-.512-.507,5.144,5.144,0,0,0-2.611.535c-.711.276-1.75.647-2.094,1.389-.159.34.022.9.486.844a18.175,18.175,0,0,0,2.773-1C328.159,266.224,329.913,266.145,329.558,265.128Z" transform="translate(-236.482 -264.416)"/>
    <path class="x" d="M326.937,288.3a1.2,1.2,0,0,0-.279.1c-.311.173-.467.448-.342.712a.863.863,0,0,0,.857.387c.536-.081.836-.324.857-.709S327.414,288.17,326.937,288.3Z" transform="translate(-236.482 -264.416)"/>
    <path class="x" d="M316.716,290.4c-.6.045-.955.55-.621.894.008.007.013.014.021.022a.968.968,0,0,0,1.327-.1c.006-.008.014-.016.019-.023C317.757,290.807,317.3,290.357,316.716,290.4Z" transform="translate(-236.482 -264.416)"/>
    <path class="x" d="M304.7,288.283c-1.363.1-1.253,1.6.111,1.5S306.063,288.188,304.7,288.283Z" transform="translate(-236.482 -264.416)"/>
    <path class="x" d="M304.794,292.4l-.045-.018a.95.95,0,0,0-.709.051.673.673,0,0,0-.343.372c-.1.272.179.547.548.593a.737.737,0,0,0,.865-.5c0,.039,0,.037.016-.006C305.206,292.686,305.032,292.486,304.794,292.4Z" transform="translate(-236.482 -264.416)"/>
    <ellipse class="x" cx="309.733" cy="292.61" rx="0.969" ry="0.687" transform="translate(-257.239 -240.751) rotate(-4.234)"/>
    <path class="x" d="M299.481,292.337l-.014-.019a1.033,1.033,0,0,0-1.282-.025.519.519,0,0,1-.045.037.434.434,0,0,0,.056.742l.05.035a1.073,1.073,0,0,0,1.147-.083l.015-.012A.446.446,0,0,0,299.481,292.337Z" transform="translate(-236.482 -264.416)"/>
    <path class="x" d="M287.665,298.014c-1.166.807-2.066,2.065-3.178,2.973-1.541,1.26-3.285,2.208-4.807,3.478a.249.249,0,0,0,.176.423c3.63-.128,6.713-3.214,8.567-6.119C288.714,298.313,288.124,297.7,287.665,298.014Z" transform="translate(-236.482 -264.416)"/>
    <path class="y" d="M272.517,316.258c-2.112-1.762-.878-4.741-.768-7.359-3.607,2.738-3.395,4.588-3.413,6.274-.029,2.575-.369,3.028-.369,3.028l10.017,1.129C276.815,318.718,273.493,317.314,272.517,316.258Z" transform="translate(-236.482 -264.416)"/>
    <path class="z" d="M237.508,310.928l4.659,11.941s12.283,9.273,51.291,9.566c55.453.415,64.88-8.873,64.88-8.873l4.859-12.088s-10.821,10.148-63.776,9.87S237.508,310.928,237.508,310.928Z" transform="translate(-236.482 -264.416)"/>
    <path class="aa" d="M237.508,310.928l4.659,11.941s4.258,3.211,15.711,5.914a39.421,39.421,0,0,0-1.916-10.977C240.922,314.785,237.508,310.928,237.508,310.928Z" transform="translate(-236.482 -264.416)"/>
    <path class="aa" d="M363.2,311.475s-2.51,2.35-11.012,4.758a61.252,61.252,0,0,1-2.214,11.039c6.58-1.95,8.366-3.709,8.366-3.709Z" transform="translate(-236.482 -264.416)"/>
    <path class="ab" d="M317.155,286.415c-.069-.019-.139-.028-.207-.043-.5-.593-1.477-.478-2.162-.3a4.059,4.059,0,0,0-1.712.675,1.082,1.082,0,0,0-.228.229.687.687,0,0,0,.006.846.84.84,0,0,0,.5.344c1.311.334,3.185.424,4.215-.661A.676.676,0,0,0,317.155,286.415Z" transform="translate(-236.482 -264.416)"/>
    <path class="ab" d="M308.228,288.908a.549.549,0,0,0,0,1.1A.549.549,0,0,0,308.228,288.908Z" transform="translate(-236.482 -264.416)"/>
    <path class="ab" d="M298.048,276.207a5.376,5.376,0,0,0-2.389-.485,16.971,16.971,0,0,0-3.287.087.843.843,0,0,0-.593,1.33c.522.693,2.042.819,2.856.9s2.441.344,3.174-.191a.762.762,0,0,0,.331-.6A.627.627,0,0,0,298.048,276.207Z" transform="translate(-236.482 -264.416)"/>
    <path class="ab" d="M304.038,276.364a.521.521,0,0,0,0,1.042A.521.521,0,0,0,304.038,276.364Z" transform="translate(-236.482 -264.416)"/>
    <path class="ab" d="M297.537,272.39c-.62-.944-2.62-.491-3.431-.038a.67.67,0,0,0,.162,1.216,3.46,3.46,0,0,0,1.693-.2c.561-.156,1.213-.023,1.576-.572A.394.394,0,0,0,297.537,272.39Z" transform="translate(-236.482 -264.416)"/>
    <path class="ab" d="M327.653,265.1a1.505,1.505,0,0,0-1.059.065c-.262.082-.637.37-.635.678,0,.334.516.4.75.332a2.661,2.661,0,0,0,.49-.211,3.47,3.47,0,0,0,.455-.191C327.866,265.632,327.946,265.229,327.653,265.1Z" transform="translate(-236.482 -264.416)"/>
    <path class="ab" d="M346.771,275.394c-.356-.251-.9-.1-1.286-.011-.358.084-1.034.2-1.033.686,0,.547.754.568,1.128.51.22-.035.421-.137.639-.18a1.293,1.293,0,0,0,.64-.338A.432.432,0,0,0,346.771,275.394Z" transform="translate(-236.482 -264.416)"/>
    <path class="ac" d="M288.017,298.119a.482.482,0,0,0-.566-.072c-.193.1-.286.292-.433.445a6.71,6.71,0,0,1-.541.5,1.484,1.484,0,0,0-.689,1.3c.02.131.108.274.264.26a2.456,2.456,0,0,0,1.529-.745C287.979,299.436,288.575,298.6,288.017,298.119Z" transform="translate(-236.482 -264.416)"/>
  </g>
</svg>
