<svg xmlns="http://www.w3.org/2000/svg" viewBox="0 0 57.931 94.526"><defs><style>.a{fill:#282b33;}.b{fill:#191b1f;}.c{fill:#1c1e24;}.d{fill:#3b0809;}.e{fill:#cecfd6;}.f{fill:#baa291;}.g{fill:#5a1c1e;}.h{fill:#222226;}.i{fill:#9da1a8;}.j{fill:#9b857c;}</style></defs><title>wandering-man</title><polygon class="a" points="56.616 60.335 28.273 55.758 2.745 55.498 0 58.373 1.563 62.716 10.875 63.636 53.971 94.526 57.931 94.526 57.931 60.557 56.616 60.335"/><polygon class="b" points="10.875 63.636 19.107 80.091 22.661 94.526 57.86 94.526 10.875 63.636"/><polygon class="c" points="8.763 61.519 0 58.373 2.117 64.95 8.473 66.656 28.273 76.018 53.971 94.526 57.931 94.526 57.931 86.94 8.763 61.519"/><polygon class="c" points="33.165 64.211 57.931 75.642 57.923 80.16 30.939 64.112 29.742 63.609 32.04 63.867 33.165 64.211"/><path class="d" d="M44.213,62.993l-.091,1.289s-.659.775-.719.858-.011.361-.011.361a4.344,4.344,0,0,0,.73.132,4.172,4.172,0,0,0,1.324-.143l.285-.969.058.053.672-.134.1-.45-.5-1.2Z"/><polygon class="d" points="44.213 62.993 46.058 62.792 36.762 38.271 33.052 25.706 25.224 27.444 25.659 40.139 31.059 62.528 32.888 62.356 29.259 39.13 30.177 33.096 44.213 62.993"/><polygon class="e" points="25.224 27.444 22.912 17.796 32.393 15.976 33.052 25.706 25.224 27.444"/><polygon class="f" points="24.852 6.805 24.852 7.987 25.305 10.068 28.388 9.616 27.895 7.763 27.601 6.399 24.852 6.805"/><path class="d" d="M20.434,9.142,14.243,7.987l5.722-5.44h0l-.65-.956s-8.038,6.1-8.038,7.085S21.752,13.5,21.752,13.5Z"/><polygon class="g" points="32.728 14.407 32.56 9.445 27.895 7.763 24.852 7.987 20.434 9.142 22.912 17.796 26.307 23.174 32.56 27.444 40.551 29.367 36.144 24.905 32.623 17.236 32.728 14.407"/><polygon class="d" points="32.56 9.445 32.623 14.857 37.432 18.925 44.032 29.231 45.726 29.334 39.67 18.565 32.56 9.445"/><polygon class="f" points="27.531 6.704 28.592 4.996 29.292 1.561 27.995 0.386 26.335 0.302 24.121 0.951 23.759 2.597 23.736 3.432 23.345 4.349 23.631 4.543 23.729 6.055 23.567 6.413 23.799 6.729 24.884 6.874 27.531 6.704"/><polygon class="h" points="25.779 2.178 24.465 1.907 24.488 2.636 24.329 3.568 24.623 3.65 24.852 2.85 25.322 2.946 25.339 3.873 25.972 4.229 26.242 6.874 27.634 6.874 27.61 6.66 28.592 4.996 29.601 1.907 25.779 2.178"/><polygon class="h" points="28.068 0.262 24.685 0 23.883 1.037 23.974 1.585 25.779 2.178 26.491 3.856 26.242 6.874 27.634 6.874 27.626 6.619 29.059 4.39 29.601 1.907 28.068 0.262"/><polygon class="e" points="24.852 7.987 25.228 7.582 26.137 7.387 27.793 7.29 27.895 7.763 24.852 7.987"/><polygon class="g" points="28.817 39.269 29.313 35.978 26.657 33.706 26.507 40.32 31.629 62.475 32.888 62.356 28.817 39.269"/><polygon class="g" points="35.67 40.667 45.274 62.993 46.058 62.792 38.109 41.873 35.67 40.667"/><polygon class="g" points="45.726 29.334 44.438 29.254 38.494 18.838 32.597 12.645 32.56 9.445 39.67 18.565 45.726 29.334"/><polygon class="g" points="26.307 23.174 40.551 29.367 32.56 27.444 26.307 23.174"/><polygon class="i" points="25.224 27.444 30.76 26.214 26.307 23.174 22.912 17.796 25.224 24.575 26.657 27.125 25.224 27.444"/><polygon class="j" points="45.726 29.334 46.793 31.312 45.284 31.47 44.815 30.632 44.379 30.214 44.308 29.725 44.145 29.238 45.726 29.334"/><polygon class="d" points="43.44 32.087 48.29 31.896 50.047 38.37 49.989 38.406 44.762 38.222 43.44 32.087"/><polygon class="d" points="44.379 31.76 48.598 31.542 50.826 37.658 50.788 37.675 45.635 37.658 44.379 31.76"/><polygon class="d" points="50.647 37.667 49.989 38.291 48.206 31.896 48.458 31.726 50.647 37.667"/><polygon class="g" points="50.647 37.667 50.047 38.231 48.29 31.896 48.474 31.772 50.647 37.667"/><polygon class="g" points="43.44 32.087 44.379 31.76 48.598 31.542 48.142 31.946 43.44 32.087"/><polygon class="g" points="44.941 31.868 44.768 31.163 44.87 31.135 46.823 30.975 46.959 31.56 47.258 31.778 46.723 31.772 46.611 31.27 45.164 31.35 45.284 31.846 44.941 31.868"/><polygon class="d" points="44.768 31.896 44.884 31.738 44.768 31.163 46.722 31.003 46.857 31.588 47.156 31.806 46.621 31.801 46.509 31.298 45.062 31.378 45.182 31.875 44.768 31.896"/><polygon class="g" points="50.826 37.658 48.598 31.542 48.542 31.606 50.788 37.675 50.826 37.658"/><polygon class="g" points="48.142 31.946 49.989 38.406 50.047 38.37 48.23 31.868 48.142 31.946"/><polygon class="g" points="48.012 32.325 47.797 34.46 45.119 34.46 45.119 34.552 47.842 34.552 48.012 32.325"/><path class="a" d="M46.684,34.019h.56l.262.926a.48.48,0,0,1-.58,0Z"/><path class="a" d="M44.633,34.019h.531l.249.926c-.167.189-.351.185-.55,0Z"/><path class="j" d="M45.284,31.47l-.261-.533,1.1-.177.218.457.179.123a.566.566,0,0,1-.379.04.269.269,0,0,1-.326.034.309.309,0,0,1-.273.029A.266.266,0,0,1,45.284,31.47Z"/><polygon class="j" points="24.852 7.987 25.228 7.582 25.148 6.551 23.799 6.729 24.852 6.874 24.852 7.987"/><polygon class="f" points="45.726 29.334 45.415 29.305 46.399 31.01 46.62 30.992 45.726 29.334"/><path class="g" d="M20.434,9.142,13.391,7.987l6.354-5.763-.43-.633s-7.17,6.176-7.17,6.785,9.069,3.489,9.069,3.489Z"/><path class="d" d="M32.888,62.356l.277,1.855a3.637,3.637,0,0,1-.915.223,2.079,2.079,0,0,1-.747-.214l-.028-.2-.536.094a2.986,2.986,0,0,1-1.2-.5.929.929,0,0,1,.052-.421,2.173,2.173,0,0,1,.434-.355l.831-.3Z"/><path class="j" d="M19.315,1.59,20.668.947h1.218l1.226.322c-.045.154-.16.205-.337.165-.046.147-.161.208-.355.174a.349.349,0,0,1-.342.168c0,.082-.08.1-.193.094l-.471-.065-.435.065-.534.36-.482.316Z"/><path class="f" d="M19.315,1.59,20.668.947h1.218l1.226.322a.246.246,0,0,1-.337.165l-.9-.165-1.052.149-.378.812-.482.316Z"/><path class="f" d="M20.816,1.745l1-.053c.116-.017.168-.3-.119-.314L20.3,1.121l.143,1.11Z"/><polygon class="c" points="45.447 65.49 57.93 68.952 57.93 71.477 43.393 65.501 45.447 65.49"/></svg>