<svg xmlns="http://www.w3.org/2000/svg" viewBox="0 0 70.118 122.308"><defs><style>.a{isolation:isolate;}.b{fill:#5ea0e0;}.c,.g,.i{fill:#a3d1ff;}.d,.e,.f,.h{fill:#fff;}.d,.i{opacity:0.5;}.e{opacity:0.8;}.f,.g{opacity:0.3;}.g,.i{mix-blend-mode:multiply;}.j{fill:#358de6;}.k{fill:#297acc;}.l{fill:#69b4ff;}</style></defs><title>water</title><g class="a"><path class="b" d="M309.021,295.731c.986-4.95-3.784-9.045-2.91-13.64.84-4.416,6.57-6.371,7.517-11.128a17.334,17.334,0,0,0-5.318-16.186l2.536-12.737-17.628-3.51-2.536,12.737a17.334,17.334,0,0,0-11.114,12.914c-.947,4.757,3.6,8.757,2.683,13.159-.953,4.58-6.927,6.535-7.913,11.485l-8.594,43.162c-.1.488-.159.974-.215,1.46-.173.645-.335,1.3-.47,1.982-1.529,7.676.076,14.465,3.584,15.164a4.262,4.262,0,0,0,3.549-1.244,17.55,17.55,0,0,0,15.625,3.113,4.27,4.27,0,0,0,2.8,2.507c3.507.7,7.592-4.958,9.12-12.634.135-.68.236-1.35.323-2.012.135-.47.265-.943.362-1.43Z" transform="translate(-243.847 -233.915)"/><path class="c" d="M307.556,295.329c.947-4.757-3.385-8.642-2.543-13.057.809-4.243,6.076-6.169,6.986-10.74,1.227-6.163-2.062-13.17-6.295-16.914l3.533-11.151-15.076-3-1.01,11.653c-5.345,1.837-11.066,7.051-12.293,13.214-.91,4.571,3.218,8.368,2.34,12.6-.912,4.4-6.4,6.33-7.352,11.087l-8.258,41.475c-.093.469-.154.935-.21,1.4-.165.621-.318,1.254-.448,1.907-1.469,7.376-.06,13.873,3.148,14.511a3.864,3.864,0,0,0,3.263-1.223c1.922,1.571,3.962,3.973,6.534,4.485s5.377-.926,7.752-1.639a3.867,3.867,0,0,0,2.547,2.378c3.207.638,7-4.823,8.466-12.2.13-.653.229-1.3.315-1.934.128-.451.25-.905.343-1.374Z" transform="translate(-243.847 -233.915)"/><path class="d" d="M302.388,298.233c.947-4.756-5.55-10.384-4.7-14.8.818-4.241,9.063-8.2,9.973-12.767,1.227-6.163-.047-11.991-2.945-15.469l2.42-12.151-10.879-2.166-2.419,12.151c-4.011,2.1-7.42,7-8.647,13.161-.91,4.571,5.191,11.383,4.323,15.614-.9,4.4-9.062,7.112-10.009,11.868l-8.164,41c-1.469,7.376,7.931,10.22,9.786,10.59s11.627,1.342,13.1-6.034Z" transform="translate(-243.847 -233.915)"/><path class="c" d="M299.914,341.347c-1.478,6.214-5.2,10.612-8.56,9.944a4.333,4.333,0,0,1-2.738-2.077,1.752,1.752,0,0,1-1.62.989c.663,2.632,1.917,4.426,3.625,4.767,3.507.7,7.592-4.958,9.12-12.634C299.808,342,299.86,341.675,299.914,341.347Z" transform="translate(-243.847 -233.915)"/><path class="c" d="M273.008,346.005c.02-.081.049-.158.07-.239a4.548,4.548,0,0,1-3.7,1.148c-3.357-.668-5.114-6.158-4.1-12.464-.075.325-.152.647-.218.979-1.529,7.676.076,14.465,3.584,15.164,1.639.326,3.4-.749,4.974-2.758A1.692,1.692,0,0,1,273.008,346.005Z" transform="translate(-243.847 -233.915)"/><path class="b" d="M273.2,347.354c-1.393,1.5-2.894,2.258-4.306,1.977-3.412-.679-5.014-7.118-3.7-14.529-.048.206-.1.414-.14.626-1.529,7.676.076,14.465,3.584,15.164,1.639.326,3.4-.749,4.974-2.758A1.777,1.777,0,0,1,273.2,347.354Z" transform="translate(-243.847 -233.915)"/><path class="b" d="M290.872,353.708c-1.445-.288-2.559-1.624-3.272-3.618a2.118,2.118,0,0,1-.6.113c.663,2.632,1.917,4.426,3.625,4.767,3.507.7,7.592-4.958,9.12-12.634.042-.213.075-.423.11-.632C298.23,349.053,294.284,354.387,290.872,353.708Z" transform="translate(-243.847 -233.915)"/><path class="c" d="M279.727,352.307c-4.761-.948-7.7-6.711-7.057-13.314a18.668,18.668,0,0,0-.483,1.87c-1.468,7.371,1.571,14.188,6.787,15.227s10.634-4.095,12.1-11.466a18.951,18.951,0,0,0,.27-1.913C289.406,349.055,284.487,353.255,279.727,352.307Z" transform="translate(-243.847 -233.915)"/><path class="b" d="M279.476,353.567c-4.866-.969-7.834-6.968-7.019-13.753-.093.348-.2.688-.271,1.048-1.468,7.371,1.571,14.188,6.787,15.227s10.634-4.095,12.1-11.466c.072-.36.1-.715.152-1.072C289.382,350.132,284.342,354.536,279.476,353.567Z" transform="translate(-243.847 -233.915)"/><path class="d" d="M307.583,268.858a11.023,11.023,0,1,0-21.622-4.305c-1.189,5.971,5.012.1,10.984,1.286S306.394,274.828,307.583,268.858Z" transform="translate(-243.847 -233.915)"/><path class="d" d="M300.89,302.472a11.023,11.023,0,0,0-21.622-4.305c-.088.443-5.409,27.3-5.419,27.624-.125,4,9.117-18.611,14.645-17.51,5.708,1.137,5.623,25.973,6.951,21.382C295.508,329.452,300.838,302.734,300.89,302.472Z" transform="translate(-243.847 -233.915)"/><ellipse class="b" cx="299.697" cy="252.016" rx="2" ry="7.971" transform="translate(-249.84 262.813) rotate(-78.739)"/><ellipse class="e" cx="299.792" cy="251.543" rx="1.518" ry="7.971" transform="translate(-249.3 262.525) rotate(-78.739)"/><path class="f" d="M287.2,291.275c.947-4.757,2.922-7.385,3.81-11.792.853-4.234.088-7.361,1-11.932,1.227-6.163,3.216-11.341,5.134-13.861l2.419-12.151-4.272-.851-2.419,12.151c-4.631,1.979-8.46,6.791-9.687,12.954-.91,4.571,2.518,8.228,1.645,12.459-.908,4.4-5.666,6.477-6.613,11.234-8.965,45.025-8.311,41.6-8.478,42.874-2.063,8.073-1.136,15.655,1.844,16.248C272.477,348.787,278.779,333.546,287.2,291.275Z" transform="translate(-243.847 -233.915)"/><path class="g" d="M305.191,294.858c.947-4.757-2.653-8.5-1.806-12.91.814-4.242,5.381-6.307,6.291-10.878,1.227-6.163-.466-12.074-3.986-15.676l2.42-12.151-4.271-.85-2.42,12.151c.805,3.061.66,8.607-.567,14.769-.91,4.571-2.815,7.167-3.648,11.4-.868,4.409-.051,7.6-1,12.352-8.2,41.2-8.435,58.763-7.533,58.943,2.981.594,6.742-6.064,7.926-14.3C296.935,336.466,296.227,339.88,305.191,294.858Z" transform="translate(-243.847 -233.915)"/><path class="h" d="M291.908,261.281c-1.326,1.671-3.3,2.309-4.411,1.427s-.939-2.949.387-4.62,3.3-2.311,4.414-1.429S293.234,259.609,291.908,261.281Zm-7.507,25.16c-1.112-.881-3.087-.243-4.414,1.43s-1.5,3.738-.387,4.62,3.086.243,4.411-1.427S285.511,287.323,284.4,286.442Zm-3.753,13.884c.323-.841-.442-1.915-1.708-2.4s-2.547-.194-2.871.646.441,1.915,1.7,2.4S280.325,301.165,280.647,300.326Zm-1.653,8.3c.323-.841-.442-1.915-1.708-2.4s-2.547-.194-2.871.646.441,1.915,1.7,2.4S278.671,309.468,278.994,308.628Zm-1.653,8.3c.323-.841-.442-1.915-1.708-2.4s-2.547-.193-2.871.646.441,1.915,1.7,2.4S277.018,317.771,277.341,316.931Zm-1.653,8.3c.323-.841-.442-1.915-1.708-2.4s-2.547-.194-2.871.646.441,1.915,1.7,2.4S275.365,326.074,275.687,325.234Zm-1.653,8.3c.323-.841-.442-1.915-1.708-2.4s-2.547-.194-2.871.646.441,1.915,1.7,2.4S273.712,334.377,274.034,333.537Z" transform="translate(-243.847 -233.915)"/><path class="i" d="M298.058,279.112c-1.348,2.3-1.2,4.89.332,5.786s3.861-.24,5.208-2.541,1.2-4.893-.327-5.79S299.407,276.808,298.058,279.112Zm2.807,26.458c1.353.036,2.469-.663,2.493-1.564s-1.052-1.66-2.4-1.7-2.471.663-2.495,1.563S299.51,305.531,300.865,305.569Zm-1.653,8.3c1.353.036,2.469-.663,2.493-1.564s-1.052-1.66-2.4-1.7-2.471.663-2.495,1.563S297.857,313.834,299.212,313.872Zm-1.653,8.3c1.353.036,2.469-.663,2.493-1.564s-1.052-1.66-2.4-1.7-2.471.663-2.495,1.563S296.2,322.137,297.558,322.175Zm-1.653,8.3c1.353.036,2.469-.663,2.493-1.564s-1.052-1.66-2.4-1.7-2.471.663-2.495,1.563S294.551,330.439,295.905,330.478Zm-1.653,8.3c1.353.036,2.469-.663,2.493-1.564s-1.052-1.66-2.4-1.7-2.471.663-2.495,1.563S292.9,338.742,294.252,338.78Z" transform="translate(-243.847 -233.915)"/><path class="j" d="M302.719,236.838c-5.565-1.108-10.272-1.018-10.514.2l-1.565,7.86c-.243,1.218,4.071,3.1,9.635,4.213s10.272,1.018,10.514-.2l1.565-7.86C312.6,239.832,308.284,237.946,302.719,236.838Z" transform="translate(-243.847 -233.915)"/><path class="k" d="M302.719,236.838c-.4-.079-.787-.15-1.173-.217l-2.438,12.242c.382.086.77.17,1.166.249,5.565,1.108,10.272,1.018,10.514-.2l1.565-7.86C312.6,239.832,308.284,237.946,302.719,236.838Z" transform="translate(-243.847 -233.915)"/><ellipse class="l" cx="302.28" cy="239.045" rx="2.25" ry="10.272" transform="translate(-235.04 254.908) rotate(-78.739)"/><path class="b" d="M281.013,288.867c-.438-5.028-6.162-7.626-6.608-12.282-.428-4.474,4.526-7.955,4.105-12.786a17.334,17.334,0,0,0-9.632-14.053l-1.127-12.938-17.906,1.559,1.127,12.938a17.334,17.334,0,0,0-7.059,15.507c.421,4.832,5.9,7.4,6.256,11.884.366,4.664-4.823,8.212-4.385,13.239l3.818,43.843c.043.5.12.98.2,1.462.014.667.042,1.344.1,2.035.679,7.8,4.118,13.867,7.682,13.557a4.262,4.262,0,0,0,3.059-2.187,17.55,17.55,0,0,0,15.873-1.38,4.27,4.27,0,0,0,3.392,1.623c3.563-.31,5.9-6.883,5.223-14.68-.06-.691-.151-1.362-.252-2.022,0-.489-.009-.98-.052-1.475Z" transform="translate(-243.847 -233.915)"/><path class="c" d="M279.494,288.891c-.421-4.832-5.667-7.351-6.093-11.825-.41-4.3,4.108-7.622,3.7-12.265-.545-6.26-5.662-12.068-10.773-14.479l.273-11.694-15.314,1.334,2.289,11.47c-4.617,3.259-8.652,9.864-8.107,16.124.4,4.643,5.43,7.134,5.769,11.44.355,4.482-4.379,7.868-3.958,12.7l3.669,42.13c.042.477.113.941.19,1.4.016.643.045,1.293.1,1.956.653,7.492,3.822,13.336,7.08,13.052a3.864,3.864,0,0,0,2.79-2.087c2.284.971,4.915,2.707,7.528,2.479s4.9-2.392,6.985-3.741a3.867,3.867,0,0,0,3.11,1.571c3.257-.284,5.37-6.587,4.717-14.08-.058-.663-.142-1.309-.238-1.945,0-.469-.013-.939-.055-1.416Z" transform="translate(-243.847 -233.915)"/><path class="d" d="M275.344,293.124c-.421-4.831-8.232-8.418-8.648-12.893-.4-4.3,6.41-10.4,6.005-15.047-.545-6.26-3.4-11.5-7.153-14.028l-1.075-12.343-11.051.962,1.075,12.342c-3.263,3.14-5.167,8.794-4.621,15.054.4,4.643,8.167,9.477,8.517,13.782.364,4.48-6.712,9.362-6.291,14.194l3.627,41.647c.653,7.492,10.473,7.595,12.357,7.431s11.538-1.963,10.886-9.455Z" transform="translate(-243.847 -233.915)"/><path class="c" d="M285.025,335.21c.318,6.379-2.029,11.644-5.438,11.941a4.333,4.333,0,0,1-3.209-1.228,1.752,1.752,0,0,1-1.279,1.4c1.372,2.342,3.078,3.714,4.814,3.563,3.563-.31,5.9-6.883,5.223-14.68C285.106,335.87,285.065,335.541,285.025,335.21Z" transform="translate(-243.847 -233.915)"/><path class="c" d="M260.5,347.207c0-.083,0-.166,0-.249a4.548,4.548,0,0,1-3.233,2.137c-3.41.3-6.632-4.483-7.421-10.821.019.333.035.663.065,1,.679,7.8,4.118,13.867,7.682,13.557,1.665-.145,3.057-1.671,4-4.038A1.692,1.692,0,0,1,260.5,347.207Z" transform="translate(-243.847 -233.915)"/><path class="b" d="M261.058,348.448c-.919,1.826-2.147,2.978-3.581,3.1-3.465.3-6.8-5.432-7.611-12.916.012.212.022.424.041.64.679,7.8,4.118,13.867,7.682,13.557,1.665-.145,3.057-1.671,4-4.038A1.777,1.777,0,0,1,261.058,348.448Z" transform="translate(-243.847 -233.915)"/><path class="b" d="M279.8,349.606c-1.468.128-2.911-.843-4.153-2.558a2.118,2.118,0,0,1-.549.277c1.372,2.342,3.078,3.714,4.814,3.563,3.563-.31,5.9-6.883,5.223-14.68-.019-.216-.046-.427-.071-.638C285.563,343.08,283.266,349.3,279.8,349.606Z" transform="translate(-243.847 -233.915)"/><path class="c" d="M268.709,351.378c-4.836.421-9.266-4.291-10.5-10.81a18.668,18.668,0,0,0,.059,1.931c.652,7.487,5.476,13.183,10.774,12.722s9.065-6.905,8.413-14.393a18.951,18.951,0,0,0-.275-1.912C277.092,345.55,273.544,350.957,268.709,351.378Z" transform="translate(-243.847 -233.915)"/><path class="b" d="M268.82,352.659c-4.943.431-9.47-4.5-10.585-11.241.008.36,0,.716.033,1.082.652,7.487,5.476,13.183,10.774,12.722s9.065-6.905,8.413-14.393c-.032-.366-.1-.716-.154-1.072C277.37,346.59,273.762,352.228,268.82,352.659Z" transform="translate(-243.847 -233.915)"/><path class="d" d="M272.117,263.469a11.023,11.023,0,1,0-21.964,1.913c.528,6.065,4.839-1.309,10.905-1.837S272.646,269.534,272.117,263.469Z" transform="translate(-243.847 -233.915)"/><path class="d" d="M275.091,297.614a11.023,11.023,0,0,0-21.964,1.913c.039.45,2.442,27.726,2.522,28.037,1,3.871,3.549-20.418,9.164-20.907,5.8-.5,12.662,23.365,12.653,18.585C277.469,325.022,275.114,297.88,275.091,297.614Z" transform="translate(-243.847 -233.915)"/><ellipse class="b" cx="259.836" cy="249.504" rx="7.971" ry="2" transform="translate(-264.515 -210.43) rotate(-4.977)"/><ellipse class="e" cx="259.794" cy="249.024" rx="7.971" ry="1.518" transform="translate(-264.474 -210.435) rotate(-4.977)"/><path class="f" d="M258.812,290.693c-.421-4.832.741-7.907.36-12.387-.365-4.3-1.974-7.092-2.379-11.735-.545-6.26-.084-11.788,1.053-14.743l-1.075-12.342-4.339.378,1.075,12.342c-3.893,3.195-6.223,8.886-5.678,15.146.4,4.643,4.718,7.2,5.063,11.5.36,4.481-3.629,7.8-3.208,12.635,3.983,45.736,3.653,42.261,3.849,43.534.277,8.328,3.287,15.348,6.314,15.084C260.763,350.026,262.552,333.631,258.812,290.693Z" transform="translate(-243.847 -233.915)"/><path class="g" d="M277.092,289.1c-.421-4.832-4.923-7.416-5.344-11.89-.4-4.3,3.4-7.561,3-12.2-.545-6.26-3.823-11.462-8.211-13.936l-1.075-12.343-4.338.378,1.075,12.343c1.629,2.714,3.041,8.079,3.586,14.339.4,4.643-.7,7.668-.313,11.97.4,4.476,2.074,7.306,2.5,12.138,3.645,41.853,8.334,58.778,9.251,58.7,3.029-.264,4.777-7.707,3.61-15.949C280.8,331.357,281.075,334.833,277.092,289.1Z" transform="translate(-243.847 -233.915)"/><path class="h" d="M254.948,260.578c-.806,1.975-2.523,3.139-3.836,2.6s-1.726-2.568-.92-4.544,2.524-3.142,3.838-2.607S255.754,258.6,254.948,260.578Zm-.172,26.256c-1.314-.535-3.032.63-3.838,2.607s-.392,4.008.92,4.544,3.031-.63,3.836-2.6S256.09,287.37,254.777,286.834Zm.279,14.38c.075-.9-.96-1.715-2.311-1.827s-2.5.526-2.576,1.423.959,1.715,2.308,1.827S254.981,302.11,255.056,301.214Zm.734,8.433c.075-.9-.96-1.715-2.311-1.827s-2.5.526-2.576,1.423.959,1.715,2.308,1.827S255.715,310.544,255.79,309.647Zm.735,8.434c.075-.9-.96-1.715-2.311-1.827s-2.5.527-2.576,1.423.959,1.715,2.308,1.827S256.45,318.978,256.525,318.081Zm.735,8.434c.075-.9-.96-1.715-2.311-1.827s-2.5.526-2.576,1.423.959,1.715,2.308,1.827S257.184,327.412,257.259,326.515Zm.735,8.434c.075-.9-.96-1.715-2.311-1.827s-2.5.526-2.576,1.423.959,1.715,2.308,1.827S257.919,335.846,257.994,334.949Z" transform="translate(-243.847 -233.915)"/><path class="i" d="M265.839,275.977c-.65,2.587.216,5.03,1.936,5.462s3.64-1.31,4.289-3.9-.214-5.034-1.933-5.467S266.49,273.388,265.839,275.977Zm10.094,24.617c1.309-.343,2.185-1.327,1.956-2.2s-1.474-1.3-2.783-.956-2.187,1.327-1.958,2.2S274.622,300.937,275.933,300.594Zm.735,8.434c1.309-.343,2.185-1.327,1.956-2.2s-1.474-1.3-2.783-.957-2.187,1.328-1.958,2.2S275.356,309.371,276.668,309.028Zm.735,8.434c1.309-.343,2.185-1.327,1.956-2.2s-1.474-1.3-2.783-.957-2.187,1.328-1.958,2.2S276.091,317.8,277.4,317.462Zm.735,8.434c1.309-.343,2.185-1.327,1.956-2.2s-1.474-1.3-2.783-.956-2.187,1.328-1.958,2.2S276.825,326.238,278.137,325.9Zm.735,8.434c1.309-.343,2.185-1.327,1.956-2.2s-1.474-1.3-2.783-.956-2.187,1.328-1.958,2.2S277.56,334.671,278.871,334.33Z" transform="translate(-243.847 -233.915)"/><path class="j" d="M258.493,234.086c-5.652.492-10.146,1.9-10.039,3.133l.7,7.984c.108,1.238,4.777,1.843,10.429,1.35s10.146-1.9,10.039-3.133l-.7-7.984C268.815,234.2,264.146,233.594,258.493,234.086Z" transform="translate(-243.847 -233.915)"/><path class="k" d="M258.493,234.086c-.4.035-.8.076-1.187.119l1.083,12.435c.391-.024.787-.052,1.189-.087,5.652-.492,10.146-1.9,10.039-3.133l-.7-7.984C268.815,234.2,264.146,233.594,258.493,234.086Z" transform="translate(-243.847 -233.915)"/><ellipse class="l" cx="258.689" cy="236.328" rx="10.272" ry="2.25" transform="translate(-263.377 -210.579) rotate(-4.977)"/></g></svg>