<svg xmlns="http://www.w3.org/2000/svg" viewBox="0 0 1814 1596">
  <defs>
    <style>
      .a {
        fill: #e9e9e9;
      }
    </style>
  </defs>
  <title>windows</title>
  <rect class="a" x="2" y="546" width="140" height="140"/>
  <rect class="a" x="154" y="546" width="140" height="140"/>
  <rect class="a" x="306" y="546" width="140" height="140"/>
  <rect class="a" x="458" y="546" width="140" height="140"/>
  <rect class="a" x="610" y="546" width="140" height="140"/>
  <rect class="a" x="762" y="546" width="140" height="140"/>
  <rect class="a" x="914" y="546" width="140" height="140"/>
  <rect class="a" x="1066" y="546" width="140" height="140"/>
  <rect class="a" x="1218" y="546" width="140" height="140"/>
  <rect class="a" x="1370" y="546" width="140" height="140"/>
  <rect class="a" x="1522" y="546" width="140" height="140"/>
  <rect class="a" x="1674" y="546" width="140" height="140"/>
  <rect class="a" x="2" y="728" width="140" height="140"/>
  <rect class="a" x="154" y="728" width="140" height="140"/>
  <rect class="a" x="306" y="728" width="140" height="140"/>
  <rect class="a" x="458" y="728" width="140" height="140"/>
  <rect class="a" x="610" y="728" width="140" height="140"/>
  <rect class="a" x="762" y="728" width="140" height="140"/>
  <rect class="a" x="914" y="728" width="140" height="140"/>
  <rect class="a" x="1066" y="728" width="140" height="140"/>
  <rect class="a" x="1218" y="728" width="140" height="140"/>
  <rect class="a" x="1370" y="728" width="140" height="140"/>
  <rect class="a" x="1370" y="728" width="140" height="140"/>
  <rect class="a" x="1522" y="728" width="140" height="140"/>
  <rect class="a" x="1674" y="728" width="140" height="140"/>
  <rect class="a" x="2" y="910" width="140" height="140"/>
  <rect class="a" x="154" y="910" width="140" height="140"/>
  <rect class="a" x="306" y="910" width="140" height="140"/>
  <rect class="a" x="458" y="910" width="140" height="140"/>
  <rect class="a" x="610" y="910" width="140" height="140"/>
  <rect class="a" x="762" y="910" width="140" height="140"/>
  <rect class="a" x="914" y="910" width="140" height="140"/>
  <rect class="a" x="1066" y="910" width="140" height="140"/>
  <rect class="a" x="1218" y="910" width="140" height="140"/>
  <rect class="a" x="1370" y="910" width="140" height="140"/>
  <rect class="a" x="1522" y="910" width="140" height="140"/>
  <rect class="a" x="1674" y="910" width="140" height="140"/>
  <rect class="a" x="2" width="140" height="140"/>
  <rect class="a" x="154" width="140" height="140"/>
  <rect class="a" x="306" width="140" height="140"/>
  <rect class="a" x="458" width="140" height="140"/>
  <rect class="a" x="610" width="140" height="140"/>
  <rect class="a" x="762" width="140" height="140"/>
  <rect class="a" x="914" width="140" height="140"/>
  <rect class="a" x="1066" width="140" height="140"/>
  <rect class="a" x="1218" width="140" height="140"/>
  <rect class="a" x="1370" width="140" height="140"/>
  <rect class="a" x="1522" width="140" height="140"/>
  <rect class="a" x="1674" width="140" height="140"/>
  <rect class="a" x="2" y="182" width="140" height="140"/>
  <rect class="a" x="154" y="182" width="140" height="140"/>
  <rect class="a" x="306" y="182" width="140" height="140"/>
  <rect class="a" x="458" y="182" width="140" height="140"/>
  <rect class="a" x="610" y="182" width="140" height="140"/>
  <rect class="a" x="762" y="182" width="140" height="140"/>
  <rect class="a" x="914" y="182" width="140" height="140"/>
  <rect class="a" x="1066" y="182" width="140" height="140"/>
  <rect class="a" x="1218" y="182" width="140" height="140"/>
  <rect class="a" x="1370" y="182" width="140" height="140"/>
  <rect class="a" x="1370" y="182" width="140" height="140"/>
  <rect class="a" x="1522" y="182" width="140" height="140"/>
  <rect class="a" x="1674" y="182" width="140" height="140"/>
  <rect class="a" x="2" y="364" width="140" height="140"/>
  <rect class="a" x="154" y="364" width="140" height="140"/>
  <rect class="a" x="306" y="364" width="140" height="140"/>
  <rect class="a" x="458" y="364" width="140" height="140"/>
  <rect class="a" x="610" y="364" width="140" height="140"/>
  <rect class="a" x="762" y="364" width="140" height="140"/>
  <rect class="a" x="914" y="364" width="140" height="140"/>
  <rect class="a" x="1066" y="364" width="140" height="140"/>
  <rect class="a" x="1218" y="364" width="140" height="140"/>
  <rect class="a" x="1370" y="364" width="140" height="140"/>
  <rect class="a" x="1522" y="364" width="140" height="140"/>
  <rect class="a" x="1674" y="364" width="140" height="140"/>
  <rect class="a" x="2" y="1092" width="140" height="140"/>
  <rect class="a" x="154" y="1092" width="140" height="140"/>
  <rect class="a" x="306" y="1092" width="140" height="140"/>
  <rect class="a" x="458" y="1092" width="140" height="140"/>
  <rect class="a" x="610" y="1092" width="140" height="140"/>
  <rect class="a" x="762" y="1092" width="140" height="140"/>
  <rect class="a" x="914" y="1092" width="140" height="140"/>
  <rect class="a" x="1066" y="1092" width="140" height="140"/>
  <rect class="a" x="1218" y="1092" width="140" height="140"/>
  <rect class="a" x="1370" y="1092" width="140" height="140"/>
  <rect class="a" x="1522" y="1092" width="140" height="140"/>
  <rect class="a" x="1674" y="1092" width="140" height="140"/>
  <rect class="a" y="1274" width="140" height="140"/>
  <rect class="a" x="152" y="1274" width="140" height="140"/>
  <rect class="a" x="304" y="1274" width="140" height="140"/>
  <rect class="a" x="456" y="1274" width="140" height="140"/>
  <rect class="a" x="608" y="1274" width="140" height="140"/>
  <rect class="a" x="760" y="1274" width="140" height="140"/>
  <rect class="a" x="912" y="1274" width="140" height="140"/>
  <rect class="a" x="1064" y="1274" width="140" height="140"/>
  <rect class="a" x="1216" y="1274" width="140" height="140"/>
  <rect class="a" x="1368" y="1274" width="140" height="140"/>
  <rect class="a" x="1520" y="1274" width="140" height="140"/>
  <rect class="a" x="1672" y="1274" width="140" height="140"/>
  <rect class="a" x="2" y="1456" width="140" height="140"/>
  <rect class="a" x="154" y="1456" width="140" height="140"/>
  <rect class="a" x="306" y="1456" width="140" height="140"/>
  <rect class="a" x="458" y="1456" width="140" height="140"/>
  <rect class="a" x="610" y="1456" width="140" height="140"/>
  <rect class="a" x="762" y="1456" width="140" height="140"/>
  <rect class="a" x="914" y="1456" width="140" height="140"/>
  <rect class="a" x="1066" y="1456" width="140" height="140"/>
  <rect class="a" x="1218" y="1456" width="140" height="140"/>
  <rect class="a" x="1370" y="1456" width="140" height="140"/>
  <rect class="a" x="1522" y="1456" width="140" height="140"/>
  <rect class="a" x="1674" y="1456" width="140" height="140"/>
</svg>
