<svg xmlns="http://www.w3.org/2000/svg" xmlns:xlink="http://www.w3.org/1999/xlink" viewBox="0 0 168 168">
  <defs>
    <clipPath id="a">
      <rect width="168" height="168" style="fill: none"/>
    </clipPath>
    <linearGradient id="b" x1="85.974" y1="86.036" x2="91.001" y2="97.597" gradientUnits="userSpaceOnUse">
      <stop offset="0" stop-color="#fff"/>
      <stop offset="1" stop-color="#e6ba9c"/>
    </linearGradient>
    <clipPath id="c">
      <path d="M67.664,78.83l1.285,3.837,11.807,1.215c.385,0,.164-7-.222-7Z" style="fill: #fff"/>
    </clipPath>
    <linearGradient id="d" x1="234.339" y1="95.696" x2="242.25" y2="95.696" gradientTransform="matrix(0.997, -0.079, 0.079, 0.997, -169.883, 3.606)" gradientUnits="userSpaceOnUse">
      <stop offset="0" stop-color="#3a8cc2"/>
      <stop offset="1" stop-color="#1e4661"/>
    </linearGradient>
    <clipPath id="e">
      <path d="M92.445,77.021a30.358,30.358,0,0,0-.092,6.473c4.03.123,11.907-1.461,11.907-1.461l.862-3.322-12.678-1.69" style="fill: #fff"/>
    </clipPath>
    <linearGradient id="f" x1="-175.671" y1="84.555" x2="-167.732" y2="84.555" gradientTransform="translate(279.158 18.823) rotate(7.492)" xlink:href="#d"/>
  </defs>
  <title>wip-b</title>
  <g style="isolation: isolate">
    <g style="clip-path: url(#a)">
      <g>
        <path d="M71.5,120.89l.094,26.284S80.91,154.9,86.773,154.9c4.9,0,14.262-7.024,14.262-7.024V118.451Z" style="fill: #d99764"/>
        <path d="M36,154.545l35.831-9.38L92.3,153.248l8.738-8.567c5.785,1.279,33.2,8.729,36.135,10.861L145,180.876c-5.887,1.485-14.793,3.013-20.731,4.281h0l-.181.038-.462.1v0c-22.1,4.682-44.319,7.349-65.05,4.561l0,.015c-.34-.046-.677-.1-1.016-.153s-.689-.087-1.032-.139v-.016a97.888,97.888,0,0,1-25.211-7.245" style="fill: #e3e3e3"/>
        <g>
          <polygon points="67.099 146.701 71.658 138.547 87.848 142.661 92.298 153.248 96.279 141.421 100.962 138.547 105.396 145.742 92.298 153.248 67.099 146.701" style="fill: #bababa"/>
          <path d="M75.064,191.974c-6.606-22.893-12.609-44.249-12.609-44.249l-7.619,2.015s5.746,20.024,12.22,42.17Q71.033,192.052,75.064,191.974Z" style="fill: #b32d31"/>
          <path d="M118.412,149.556l-5.653-1.8c3.336,20.012,3.313,19.876,6.95,41.677q2.4-.428,4.808-.9C121.242,167.637,118.412,149.556,118.412,149.556Z" style="fill: #b32d31"/>
          <polygon points="87.848 142.661 83.111 154.157 66.454 146.725 70.802 138.547 87.848 142.661" style="fill: #ededed"/>
          <polygon points="96.279 141.421 101.034 151.321 105.76 145.753 100.962 138.547 96.279 141.421" style="fill: #ededed"/>
          <path d="M99.716,173.408l-6.567-20.37-1.7.419L98,173.786c1.144,4.474,2.576,10.263,3.773,15.363.589-.08,1.178-.157,1.767-.241C102.64,185.046,101.4,180.012,99.716,173.408Z" style="fill: #c2c2c2"/>
        </g>
        <g>
          <path d="M61.171,87.909c0,3.78-.92,6.845-4.268,6.845s-7.854-3.065-7.854-6.845a6.832,6.832,0,0,1,6.488-6.846C58.884,81.063,61.171,84.126,61.171,87.909Z" style="fill: #e09767"/>
          <path d="M56.344,90.253a2.674,2.674,0,0,1-1.657-1.2,1.8,1.8,0,0,1-.2-.487,2.1,2.1,0,0,1-.067-.518,2.2,2.2,0,0,1,.055-.533c.042-.151.063-.286.124-.45a3.356,3.356,0,0,1,.233-.5,2.258,2.258,0,0,1,.321-.449,3.352,3.352,0,0,1,.894-.726,3.9,3.9,0,0,1,1.1-.427,4.951,4.951,0,0,1,.583-.105,4.282,4.282,0,0,1,.627-.037l-.53.908a7.912,7.912,0,0,0-.7-.618,5.175,5.175,0,0,0-.8-.523,3.057,3.057,0,0,0-.418-.212,2.207,2.207,0,0,0-.431-.16,1.761,1.761,0,0,0-.44-.095,1.615,1.615,0,0,0-.442-.029c-.074,0-.15,0-.225,0l-.218.05a1.4,1.4,0,0,0-.436.133,2.738,2.738,0,0,0-.431.2l-.4.273a2.5,2.5,0,0,0-.379.319l-.373.342c-.215.255-.442.51-.681.768.111-.311.233-.624.368-.938.081-.151.183-.293.276-.442a2.508,2.508,0,0,1,.312-.435l.4-.4a3.35,3.35,0,0,1,.483-.344,1.971,1.971,0,0,1,.567-.262l.307-.106c.106-.022.216-.034.325-.05a2.3,2.3,0,0,1,.659-.033,2.907,2.907,0,0,1,.644.087,3.386,3.386,0,0,1,.606.172,3.619,3.619,0,0,1,.563.236,6.448,6.448,0,0,1,.993.614,5.867,5.867,0,0,1,.864.755l.888.98L58.3,85.934a3.073,3.073,0,0,0-.4.017,3.541,3.541,0,0,0-.429.067,3.7,3.7,0,0,0-.8.265,2.318,2.318,0,0,0-.658.448,2.578,2.578,0,0,0-.265.291,2.915,2.915,0,0,0-.214.31c-.068.115-.123.275-.185.41a2.941,2.941,0,0,0-.108.356,1.519,1.519,0,0,0-.037.382,1.673,1.673,0,0,0,.057.385A2.6,2.6,0,0,0,56.344,90.253Z" style="fill: #c97843"/>
          <path d="M108.8,88.881c0,3.781.922,6.846,4.27,6.846s7.855-3.065,7.855-6.846a6.832,6.832,0,0,0-6.489-6.847C111.086,82.034,108.8,85.1,108.8,88.881Z" style="fill: #e09767"/>
          <path d="M113.626,91.226a2.6,2.6,0,0,0,1.087-1.388,1.674,1.674,0,0,0,.057-.385,1.5,1.5,0,0,0-.037-.382,2.916,2.916,0,0,0-.108-.356c-.062-.135-.117-.3-.185-.41a3,3,0,0,0-.214-.31,2.582,2.582,0,0,0-.266-.291,2.315,2.315,0,0,0-.657-.448,3.7,3.7,0,0,0-.8-.265,3.539,3.539,0,0,0-.429-.067,3.046,3.046,0,0,0-.4-.017l-1.419.073.888-.981a5.88,5.88,0,0,1,.864-.754A6.433,6.433,0,0,1,113,84.63a3.593,3.593,0,0,1,.563-.236,3.386,3.386,0,0,1,.606-.172,2.9,2.9,0,0,1,.644-.087,2.306,2.306,0,0,1,.659.033c.109.016.219.028.325.05l.307.106a1.968,1.968,0,0,1,.567.262,3.338,3.338,0,0,1,.484.344l.4.4a2.522,2.522,0,0,1,.312.435c.093.149.2.291.276.442.135.314.258.628.369.938-.239-.258-.466-.513-.681-.768l-.373-.342a2.508,2.508,0,0,0-.379-.319l-.4-.273a2.755,2.755,0,0,0-.431-.2,1.408,1.408,0,0,0-.437-.133l-.218-.05c-.075,0-.151,0-.225,0a1.61,1.61,0,0,0-.442.029,1.768,1.768,0,0,0-.44.095,2.212,2.212,0,0,0-.431.16,3.048,3.048,0,0,0-.418.212,5.159,5.159,0,0,0-.8.523,7.89,7.89,0,0,0-.7.618l-.531-.908a4.283,4.283,0,0,1,.627.037,4.876,4.876,0,0,1,.584.106,3.887,3.887,0,0,1,1.1.427,3.345,3.345,0,0,1,.894.727,2.278,2.278,0,0,1,.321.449,3.358,3.358,0,0,1,.233.5c.06.164.082.3.124.45a2.185,2.185,0,0,1,.054.534,2.1,2.1,0,0,1-.068.518,1.816,1.816,0,0,1-.2.487A2.68,2.68,0,0,1,113.626,91.226Z" style="fill: #c97843"/>
        </g>
        <path d="M58.182,52.949a114.857,114.857,0,0,0,0,15.613c.9,16.4,3.567,38.954,7.692,48.683,17.918,18.743,30.693,12.065,41.316.242.835-.929,6.793-60.359,4.785-65.807A28.474,28.474,0,0,0,86.914,37.391C68.83,37.391,58.182,52.949,58.182,52.949Z" style="fill: #f5ba89"/>
        <path d="M89.2,78.923s-1.7,16.693,2.389,13.968,4.794,3.955,4.794,3.955a10.75,10.75,0,0,1-5.14,2.044,32.068,32.068,0,0,1-6,0V83.521Z" style="mix-blend-mode: multiply;fill: url(#b)"/>
        <g>
          <g>
            <g>
              <path d="M67.664,78.83l1.285,3.837,11.807,1.215c.385,0,.164-7-.222-7Z" style="fill: #fff"/>
              <g style="clip-path: url(#c)">
                <path d="M79.187,79.736a4.1,4.1,0,0,1-3.671,4.35,3.842,3.842,0,0,1-4.2-3.607,4.106,4.106,0,0,1,3.672-4.352A3.845,3.845,0,0,1,79.187,79.736Z" style="fill: url(#d)"/>
              </g>
            </g>
            <path d="M66.4,79.1S73.681,73.5,81.008,76.72C77.623,78.025,66.4,79.1,66.4,79.1Z" style="fill: #59341b"/>
          </g>
          <g>
            <g>
              <path d="M92.445,77.021a30.358,30.358,0,0,0-.092,6.473c4.03.123,11.907-1.461,11.907-1.461l.862-3.322-12.678-1.69" style="fill: #fff"/>
              <g style="clip-path: url(#e)">
                <path d="M93.974,79.658a4.193,4.193,0,0,0,3.484,4.568,3.769,3.769,0,0,0,4.361-3.346,4.2,4.2,0,0,0-3.483-4.57A3.771,3.771,0,0,0,93.974,79.658Z" style="fill: url(#f)"/>
              </g>
            </g>
            <path d="M106.641,78.962S99.149,73.5,91.974,76.868C95.4,78.108,106.641,78.962,106.641,78.962Z" style="fill: #59341b"/>
          </g>
        </g>
        <g>
          <path d="M63.214,72.584s9.344-8.819,18.5-7.5a13.987,13.987,0,0,1-.027,7.027s-9.766-.3-15.88,2.922A20.455,20.455,0,0,1,63.214,72.584Z" style="fill: #8f5e1f"/>
          <path d="M93.206,61.071s-2.214,4.215-1.085,6.295c4.347.593,11.6,2.7,14.209,5.774.805-1.086,2.049-2.653,2.049-2.653S103.746,61.589,93.206,61.071Z" style="fill: #8f5e1f"/>
          <path d="M82.189,71.955s1.329-4.293,1.075-6.641C84.222,67.127,83.638,70.023,82.189,71.955Z" style="fill: #8f5e1f"/>
          <path d="M90.306,66.63a8.962,8.962,0,0,1,1.118-5.64A27.773,27.773,0,0,1,90.306,66.63Z" style="fill: #8f5e1f"/>
        </g>
        <path d="M59.564,81.849s6.487,28.7,9.032,33.272c4.554,5.154,15.614,10.893,15.614,10.893s0-12.928,2.68-12.812,3.349,12.812,3.349,12.812,9.721-3.515,14.275-10.073c1.072-8.2,6.086-34.961,6.086-34.961l1.455-.477s-4.026,35.674-4.444,37.2c-1.757,2.461-9.469,11.715-20.721,11.715s-20.3-10.895-21.576-11.948c-1.406-3.4-7.029-21.443-6.859-35.615Z" style="fill: #b37f3d"/>
        <g>
          <path d="M72.771,101.418a47.675,47.675,0,0,0,26.576.252s-3.029,7.831-13.068,8.359S72.771,101.418,72.771,101.418Z" style="fill: #e5ad83"/>
          <path d="M74.633,102.767s4.071,6.1,10.95,5.9a18.076,18.076,0,0,0,12.409-5.9,49.6,49.6,0,0,1-11.714,1.99C78.61,104.934,74.633,102.767,74.633,102.767Z" style="fill: #fff"/>
        </g>
        <g>
          <path d="M105.444,49.96c.091-.066.189-.129.283-.194l.006-.016Z" style="fill: none"/>
          <path d="M82.6,32.989c-.137-.007-.268-.017-.407-.023-1.348-.061-2.767-.09-4.27-.09L62.59,40.664c-3.356,3.128-6.749,12.706-6.749,12.706l.18,1.957c.034,0,.067-.005.1-.006a10.155,10.155,0,0,1,5,1.373l.25-4.03,2.43,3.681.364-5.7,3.207,5.291,2.5-5.993.073.108a49.489,49.489,0,0,1,9.475-14.271A31.334,31.334,0,0,1,82.6,32.989Z" style="fill: #b37f3d"/>
          <path d="M98.706,37.07c-1.594-.578-3.172-1.094-4.724-1.6-.477-.157,3.556-1.658,3.064-1.8a110.09,110.09,0,0,1-13.133-.605l-.186-.011c-6.918,5.03-11.255,13.3-13.109,17.49l-.306.049,2.366,3.527C73.3,52,73.7,49.761,73.7,49.761s.886,2.26,1.549,3.971a14.807,14.807,0,0,1,4.031-4.151l3.258,3.985,1.546-4.387.295.512C86.783,46.478,91.873,40.52,98.706,37.07Z" style="fill: #b37f3d"/>
          <path d="M56.085,56.028,57.332,69.62a6.025,6.025,0,0,1,3.017-.426l.724-11.667a9.749,9.749,0,0,0-4.944-1.5Z" style="fill: #b37f3d"/>
          <path d="M57.4,70.362l1.054,11.486h1.11L60.306,69.9A5.3,5.3,0,0,0,57.4,70.362Z" style="fill: #b37f3d"/>
          <path d="M105.733,49.749l-.006.016a14.976,14.976,0,0,1,6.131-2.609c.169-.027.337-.038.506-.056-.054-.851-.117-1.651-.193-2.381a39.526,39.526,0,0,0-12.537-7.307c-6.862,3.272-12.031,9.262-14.49,12.536l-.63-.03,2,3.482,4.3-4.627,3.876,4.186,5.4-4.261-.743,5.7,5.749-4.182c.114-.085.23-.168.348-.253Z" style="fill: #b37f3d"/>
          <path d="M109.346,58.219l-.014-.8a8.061,8.061,0,0,1,3.1-.771c.06,0,.12,0,.18,0,0-3.2-.065-6.244-.209-8.844-.135.015-.268.023-.4.044a14.991,14.991,0,0,0-6.818,3.252c-.518,1.2-1.271,2.775-1.669,2.743l5.52-.51L110.5,83.085l1.368-.245s.236-4.358.443-10.293a11.332,11.332,0,0,0-2.331-.489l-.011-.7a12.053,12.053,0,0,1,2.367.456c.148-4.4.275-9.573.28-14.462-.049,0-.1,0-.146,0A7.252,7.252,0,0,0,109.346,58.219Z" style="fill: #b37f3d"/>
          <path d="M83.726,33.054c-.37-.025-.749-.045-1.131-.065a31.334,31.334,0,0,0-3.17,2.8,49.489,49.489,0,0,0-9.475,14.271l.36.537.306-.049C72.472,46.355,76.809,38.084,83.726,33.054Z" style="fill: #996521"/>
          <path d="M99.634,37.413c-.31-.118-.619-.231-.928-.343-6.833,3.45-11.923,9.408-14.324,12.622l.131.228.63.03C87.6,46.675,92.772,40.684,99.634,37.413Z" style="fill: #996521"/>
          <path d="M105.1,50.213l.348-.253C105.326,50.044,105.209,50.128,105.1,50.213Z" style="fill: #996521"/>
          <path d="M112.4,47.8c-.013-.236-.026-.474-.04-.7-.169.018-.337.029-.506.056a14.976,14.976,0,0,0-6.131,2.609c-.024.063-.242.631-.544,1.334A14.991,14.991,0,0,1,112,47.848C112.136,47.826,112.27,47.819,112.4,47.8Z" style="fill: #996521"/>
          <path d="M56.02,55.328l.064.7.045,0a9.749,9.749,0,0,1,4.944,1.5l.052-.831a10.155,10.155,0,0,0-5-1.373C56.087,55.322,56.054,55.327,56.02,55.328Z" style="fill: #996521"/>
          <path d="M57.332,69.62l.068.742a5.3,5.3,0,0,1,2.905-.466l.044-.7A6.025,6.025,0,0,0,57.332,69.62Z" style="fill: #996521"/>
          <path d="M112.614,56.647c-.06,0-.121,0-.18,0a8.061,8.061,0,0,0-3.1.771l.014.8a7.252,7.252,0,0,1,3.121-.871c.049,0,.1,0,.146,0Q112.614,57,112.614,56.647Z" style="fill: #996521"/>
          <path d="M112.332,72.554q.027-.359.054-.729l-.052-.013c-.008.247-.017.494-.025.736Z" style="fill: #996521"/>
          <path d="M109.977,72.058a11.332,11.332,0,0,1,2.331.489c.008-.242.017-.489.025-.736a12.053,12.053,0,0,0-2.367-.456Z" style="fill: #996521"/>
        </g>
      </g>
    </g>
  </g>
</svg>
