<svg xmlns="http://www.w3.org/2000/svg" xmlns:xlink="http://www.w3.org/1999/xlink" viewBox="0 0 168 168">
  <defs>
    <clipPath id="a">
      <rect width="5.76" height="5.76" style="fill: none"/>
    </clipPath>
    <clipPath id="b">
      <rect width="168" height="168" style="fill: none"/>
    </clipPath>
    <linearGradient id="c" x1="61.297" y1="134.835" x2="99.206" y2="134.835" gradientUnits="userSpaceOnUse">
      <stop offset="0" stop-color="#e09f67"/>
      <stop offset="1" stop-color="#d48948"/>
    </linearGradient>
    <linearGradient id="d" x1="104.677" y1="97.642" x2="116.804" y2="102.205" xlink:href="#c"/>
    <linearGradient id="e" x1="111.7" y1="87.805" x2="111.7" y2="81.007" gradientUnits="userSpaceOnUse">
      <stop offset="0" stop-color="#4d3f2e"/>
      <stop offset="1" stop-color="#2e291c"/>
    </linearGradient>
    <clipPath id="f">
      <path d="M97.81,79.227s2.594,5.337.076,9.628c-3.237-.289-11.225-1.95-11.225-1.95l.629-5.642S95.653,79.566,97.81,79.227Z" style="fill: none"/>
    </clipPath>
    <linearGradient id="g" x1="92.075" y1="88.384" x2="92.075" y2="80.911" xlink:href="#e"/>
    <pattern id="h" data-name="Stripes Red" width="5.76" height="5.76" patternTransform="translate(12.162 -18.063) rotate(-11.659) scale(0.984)" patternUnits="userSpaceOnUse" viewBox="0 0 5.76 5.76">
      <rect width="5.76" height="5.76" style="fill: none"/>
      <g style="clip-path: url(#a)">
        <line x1="2.88" y1="-2.88" x2="2.88" y2="8.64" style="fill: none;stroke: #fff;stroke-miterlimit: 10"/>
      </g>
    </pattern>
    <pattern id="i" data-name="Stripes Red" width="5.76" height="5.76" patternTransform="matrix(0.979, 0.098, -0.098, 0.979, 12.137, -12.342)" patternUnits="userSpaceOnUse" viewBox="0 0 5.76 5.76">
      <rect width="5.76" height="5.76" style="fill: none"/>
      <g style="clip-path: url(#a)">
        <line x1="2.88" y1="-2.88" x2="2.88" y2="8.64" style="fill: none;stroke: #fff;stroke-miterlimit: 10"/>
      </g>
    </pattern>
  </defs>
  <title>ashu</title>
  <g style="clip-path: url(#b)">
    <g>
      <polygon points="98.058 133.32 59.474 128.99 73.514 142.335 98.639 140.632 98.058 133.32" style="fill: #c3c9c9"/>
      <polyline points="118.005 167.499 107.637 178.209 19.396 166.816" style="fill: #d8efee"/>
      <path d="M60.5,134.266s10.55,14.67,22.412,14.281c10.44-.342,8.477-7.611,8.477-7.611L61.3,134.1Z" style="fill: #f0fbfc"/>
      <path d="M94.834,141.5c.508-.344.783-.566.783-.566V126.825s-18.4-2.044-22.689-13.416-2.99-14.053-2.99-14.053l-6.45-.6L61.3,134.1s7.99,7.975,17.139,10.54l8.914,24.225,5.191,2.051,6.665-7.69Z" style="fill: url(#c)"/>
      <g>
        <path d="M61.274,84.041l4.182,24.714-3.222,7.891C55.342,106.5,49.541,96.176,45.772,85.519l8.571-7.01Z" style="fill: #2b1c10"/>
        <path d="M68.112,96.215s1.807,17.717,10.917,25.858c11.17,5.211,33.6,7.713,33.6,7.035s12.519-25.837,11.125-33.172c-1.8-2.89-2.913-2.688-4.108-5.543-.607-1.451-1.791-2.969-1.468-5.559.958-7.689,4.077-11.487,4.077-11.487-1.665-8.71-3.332-17.069-5.02-22.124,0,0-41.208-3.882-49.839,9.686S60.44,86.237,60.44,86.237Z" style="fill: #e09f67"/>
        <path d="M111.462,91.209a14.908,14.908,0,0,0,1.031,2.226l6.534,3.28c.612.818,1.15,11.862-15.591,9.446C101.139,97.117,110.956,91.172,111.462,91.209Z" style="fill: url(#d)"/>
        <path d="M97.81,79.227s2.594,5.337.076,9.628c-3.237-.289-11.225-1.95-11.225-1.95l.629-5.642S95.653,79.566,97.81,79.227Z" style="fill: #fff"/>
        <path d="M109.814,79.41l6.247,1.767s.871,5.515-.028,7.3a55.274,55.274,0,0,1-6.339.844S108.826,82.632,109.814,79.41Z" style="fill: #fff"/>
        <path d="M114.008,84.834c0,2.59-1.246,4.4-2.666,4.4s-1.951-1.813-1.951-4.4.628-4.689,2.047-4.689S114.008,82.245,114.008,84.834Z" style="fill: url(#e)"/>
        <path d="M110.172,79.274l7.943.829s-1.559,1.456-2.728,1.159-5.278-1.476-5.278-1.476Z" style="fill: #2b1c10"/>
        <path d="M84.054,77.916s10.789-2.074,17.352-1.891a14.861,14.861,0,0,0,1.8-7.382s-11.778-.671-20.139,4.637A7.647,7.647,0,0,0,84.054,77.916Z" style="fill: #2b1c10"/>
        <path d="M107.464,106.405c-.44.012-.877.036-1.315.023s-.873,0-1.309-.033c-.873-.028-1.737-.131-2.6-.217l1.3.009c.434,0,.866-.02,1.3-.021s.863-.037,1.292-.059,3.338-.07,3.764-.112.845-.115,1.266-.174.828-.163,1.239-.248c.4-.109.812-.193,1.2-.332.395-.117.765-.274,1.137-.425a9.714,9.714,0,0,0,1.034-.549,6.372,6.372,0,0,0,.906-.661,4.962,4.962,0,0,0,.738-.774,5.026,5.026,0,0,0,.544-.871,14.987,14.987,0,0,0,.492-3.28,6.147,6.147,0,0,0-.022-.994,5.163,5.163,0,0,0-.187-.953c-1.871-.255-3.852-1.492-5.917-3.471l-3.984-5.2c-.025-.568,0-1.137,0-1.7.029-.568.028-1.137.087-1.7a31.066,31.066,0,0,1,.449-3.39c.1-.562.236-1.12.376-1.676s.3-1.109.483-1.658a23.131,23.131,0,0,1,1.354-3.216,14.032,14.032,0,0,1,1.976-2.971,11.556,11.556,0,0,0-.88,1.519c-.264.515-.495,1.042-.708,1.572a25.231,25.231,0,0,0-1,3.24,29,29,0,0,0-.6,3.3,30.633,30.633,0,0,0-.255,3.326c-.036,1.11-.026,2.222.039,3.333l3.62,4.259s2.894,3.191,5.591,3.764l.529,0,.111.4a5.743,5.743,0,0,1,.2,1.157,6.836,6.836,0,0,1-.013,1.14c-.047.378-.1,2.115-.224,2.487a5.959,5.959,0,0,1-.454,1.089A6.195,6.195,0,0,1,117.4,104.2a6.747,6.747,0,0,1-1.079.714,10.678,10.678,0,0,1-1.194.551c-.418.146-.833.293-1.264.4a31.826,31.826,0,0,1-6.4.542" style="fill: #ad7347"/>
        <path d="M61.938,85.163s-7.72-1.442-10.058.254.08,8.54.529,11.169,3.392,5.792,9.528,5.792c4.675,0,3.738-.767,3.738-.767S68.231,90.7,61.938,85.163Z" style="fill: #e09f67"/>
        <path d="M60.589,97.46c-.638-.159-1.268-.346-1.889-.566-.312-.107-.616-.235-.924-.364l-.458-.213-.452-.276-.081-.05-.024-.119a14.067,14.067,0,0,1-.3-1.455l-.081-.739-.014-.742a7.2,7.2,0,0,1,.024-.743,5.851,5.851,0,0,1,.07-.741c.031-.247.068-.494.12-.739s.1-.484.178-.751l.087-.311.38-.062c.754-.123,1.509-.23,2.266-.333l2.268-.314-.449.885-.976-1.569.33.25c-.444-.141-.922-.265-1.386-.387s-.939-.224-1.41-.305a12.762,12.762,0,0,0-1.4-.162,4.431,4.431,0,0,0-.672.013,2.055,2.055,0,0,0-.594.126l-.125.052-.032.013-.009,0,.057-.044v0l0,0-.017.015L55,87.9a1.811,1.811,0,0,0-.133.188c-.115.184-.225.39-.329.6-.21.415-.4.846-.6,1.275l-1.169,2.6q.272-1.4.665-2.767c.129-.458.269-.913.437-1.368.084-.228.17-.455.282-.69a2.111,2.111,0,0,1,.254-.412l.06-.068.015-.017,0,0,0,0,.06-.047.013-.007.051-.028.206-.111a2.935,2.935,0,0,1,.836-.256,5.363,5.363,0,0,1,.816-.081,9.944,9.944,0,0,1,1.572.085c.512.064,1.017.153,1.518.255s.987.228,1.491.375l.208.061.122.189,1,1.553.494.766-.942.119-2.273.288c-.757.1-1.515.19-2.275.268l.468-.373c-.064.192-.133.421-.185.641s-.106.447-.147.673-.081.453-.112.681a6.4,6.4,0,0,0-.082.688l-.048.692.01.692a12.811,12.811,0,0,0,.112,1.386l-.106-.169.342.271.391.254c.269.163.546.323.83.473C59.426,96.879,60.005,97.172,60.589,97.46Z" style="fill: #c2844e"/>
        <path d="M106.391,106.362c-9.839-.507-21.977-2.485-26.891-5.651s-7.266-11.676-7.266-11.676L62.913,86.7l-.68,1.875,1.727,13.5A52.911,52.911,0,0,0,77,120.656c9.11,8.141,32.88,9.675,35.286,8.784,2.269-1.654,5.317-11.578,9.43-22.48Z" style="fill: #b88254"/>
        <g style="clip-path: url(#f)">
          <ellipse cx="92.075" cy="84.363" rx="4.761" ry="4.689" style="fill: url(#g)"/>
        </g>
        <path d="M88.841,110.529,87.72,110a12.878,12.878,0,0,1,2.108-2.286l.861.86A12.2,12.2,0,0,0,88.841,110.529Z" style="fill: #96663c"/>
        <path d="M108.563,114.735c-8.453,0-19.017-4.861-19.571-5.119l.555-1.06c.164.076,16.5,7.595,24.243,4.046l.548,1.064A13.932,13.932,0,0,1,108.563,114.735Z" style="fill: #96663c"/>
        <path d="M114.353,69.253l-2.068,7.26s5.664.122,7.822,1.952a11.916,11.916,0,0,0,3.956-4.606S121.815,69.741,114.353,69.253Z" style="fill: #2b1c10"/>
        <path d="M42,76c-1.918,2.788,4.555,12.851,4.615,19.72,2.637-5.286,3.261-9.086,4.368-9.759l3-1.689L68.347,86.7,65.456,66.727l1.776-8.37,22.018-6.4,29.884,1.171.839-8.537c-1.33,3.862-26.188-3.755-24.858-7.617-1.389-1.222-7.2-3.68-13.906-3.407-3.592,0-12.843,1.018-18.977,6.106-10.491,4.807-13.95,10.615-13.95,10.615-3.568.554-7.247,8.212-6.757,11.689-1.2-.28-2.738,6.9-5.075,10.049a8.867,8.867,0,0,0,4.113-1.611C40.849,71.4,40.2,75.117,42,76Z" style="fill: #2b1c10"/>
        <path d="M92.795,53.334S71.107,57.179,68.95,61.023s2.4,8.933,3.357,13.343c-.1,4.539.316,18.873.316,19.634,0,.632-6.066,3.272-8.661,2.827-.533-.091-1.043-9.006-1.043-9.006l-4.529-3.211S63.3,78.633,60.41,72.62c-2.759-5.739,2.232-7.316,4.105-10.561,5.275-9.141,16.23-20.892,16.23-20.892s9.74-4.948,15.014-6.756,9.513,5.252,9.513,5.252,8.84-3.9,14.744,3.721c2.007,5.518,2.846,7.794.676,10.551a6.528,6.528,0,0,0-1.759,3.418s-1.431-3.518-1.156-3.468-24.983-.552-24.983-.552" style="fill: #2b1c10"/>
        <g>
          <path d="M104.794,40.158c-.216-.169-.5-.378-.848-.6-7,4.77-10.362,10.084-11.707,13.881l.557-.1s.111.225.325.6C94.383,50.285,97.7,44.858,104.794,40.158Z" style="fill: #452d1a"/>
          <path d="M69.638,67.881c-.173-.387-.338-.772-.486-1.154-2.6,4.527-6.74,12.632-7.878,19.926l.919.652C63.137,80.379,67,72.563,69.638,67.881Z" style="fill: #452d1a"/>
          <path d="M74.359,51.985q-.485.359-.969.731a69.338,69.338,0,0,1,8.885,2.873c.5-.125,1-.246,1.486-.362A52.484,52.484,0,0,0,74.359,51.985Z" style="fill: #452d1a"/>
          <path d="M117.751,41.087a9.267,9.267,0,0,0-1.4-.931s1.287,4.5-3.106,13.578a4.6,4.6,0,0,0,1.031.1C116.505,48.767,118.272,46.062,117.751,41.087Z" style="fill: #452d1a"/>
        </g>
        <path d="M87.239,81.559s11.335-.678,12.729-3.689c-3.507.594-12.729,3.053-12.729,3.053Z" style="fill: #2b1c10"/>
        <path d="M101.976,76a28.294,28.294,0,0,0,2.34-7.132A7.586,7.586,0,0,1,101.976,76Z" style="fill: #2b1c10"/>
        <path d="M85.749,50.156c.447,2.679,2.308,4.438-.78,8.876-.538.925-.4,4.536,1.379,5.866-3.147.159-3.157-2.648-3.4-2.174a10.357,10.357,0,0,1-1.659,2.627c-.137,1.818-2.711,5.233-6.31,4.508.338,3.3-2.771,5.746-6.629,8.011L48.284,66.727Z" style="fill: #2b1c10"/>
        <path d="M119.832,61.244a20.836,20.836,0,0,0,4.026,4.714c-1.311-.206-2.712-.329-3.3-1.148Z" style="fill: #2b1c10"/>
        <polygon points="105.615 129.497 107.609 122.078 107.274 129.582 105.615 129.497" style="fill: #7a5031"/>
      </g>
      <path d="M121.823,151.145c-2.87-2.788-19.458-8.054-19.458-8.054A61.373,61.373,0,0,0,94.5,155.536l-1.958,15.381c3.56.706,24.342-1.638,34.541-3.418C127.082,167.5,124.693,153.934,121.823,151.145Z" style="fill: #d8323a"/>
      <path d="M52.665,137.751S29.029,149.158,24.5,152.376s-6.673,16.25-6.673,16.25l74.717,2.292-5.648-13.5Z" style="fill: #d8323a"/>
      <path d="M121.823,151.145c-2.87-2.788-19.458-8.054-19.458-8.054A61.373,61.373,0,0,0,94.5,155.536l-1.958,15.381c3.56.706,24.342-1.638,34.541-3.418C127.082,167.5,124.693,153.934,121.823,151.145Z" style="fill: url(#h)"/>
      <path d="M52.665,137.751S29.029,149.158,24.5,152.376s-6.673,16.25-6.673,16.25l74.717,2.292-5.648-13.5Z" style="fill: url(#i)"/>
      <polygon points="59.474 128.99 84.338 142.206 77.304 155.68 52.665 137.751 59.474 128.99" style="fill: #f0fbfc"/>
      <polygon points="86.893 157.416 84.338 142.206 78.572 153.251 86.893 157.416" style="fill: #c3c9c9"/>
      <polygon points="98.058 133.32 94.499 140.632 99.719 150.295 102.779 141.962 98.058 133.32" style="fill: #f0fbfc"/>
      <polygon points="94.499 155.536 94.499 140.632 98.749 148.5 94.499 155.536" style="fill: #c3c9c9"/>
    </g>
  </g>
</svg>
