<svg xmlns="http://www.w3.org/2000/svg" xmlns:xlink="http://www.w3.org/1999/xlink" viewBox="0 0 168 168">
  <defs>
    <clipPath id="a">
      <rect width="168" height="168" style="fill: none"/>
    </clipPath>
    <linearGradient id="b" data-name="åçûìßííûé ãðàäèåíò 27" x1="54.254" y1="166.078" x2="54.254" y2="149.167" gradientUnits="userSpaceOnUse">
      <stop offset="0" stop-color="#242424"/>
      <stop offset="1" stop-color="#303030"/>
    </linearGradient>
    <radialGradient id="c" data-name="åçûìßííûé ãðàäèåíò 20" cx="89.475" cy="145.521" r="7.055" gradientUnits="userSpaceOnUse">
      <stop offset="0" stop-color="#292929"/>
      <stop offset="1" stop-color="#303030"/>
    </radialGradient>
    <linearGradient id="d" x1="78.303" y1="141.396" x2="79.931" y2="116.778" gradientUnits="userSpaceOnUse">
      <stop offset="0" stop-color="#f5ba89"/>
      <stop offset="1" stop-color="#eda061"/>
    </linearGradient>
    <radialGradient id="e" data-name="åçûìßííûé ãðàäèåíò 49" cx="72.939" cy="90.436" r="14.646" gradientUnits="userSpaceOnUse">
      <stop offset="0" stop-color="#f59e64"/>
      <stop offset="0.882" stop-color="#f5ba89"/>
    </radialGradient>
    <radialGradient id="f" cx="-5794.887" cy="88.433" r="14.647" gradientTransform="matrix(-0.492, 0, 0, 1, -2797.378, 0)" xlink:href="#e"/>
    <radialGradient id="g" cx="51.17" cy="91.695" r="10.646" xlink:href="#e"/>
    <clipPath id="h">
      <path d="M72.454,81.878s1.076-4.054,3.475-4.964A14.169,14.169,0,0,1,90.3,79.4a9.613,9.613,0,0,1-.819,3.988s-10.066.645-15.609,1.224c-2.5.261-2.991-.248-2.991-.248v-.331A3.819,3.819,0,0,0,72.454,81.878Z" style="fill: none"/>
    </clipPath>
    <clipPath id="i">
      <path d="M63.411,77.328s-2.73-2.813-5.957-2.9a10.483,10.483,0,0,0-6.95,2.936A5.061,5.061,0,0,0,50.172,80s.539,2.956,5.5,3.038,5.75.827,5.75.827Z" style="fill: #fff"/>
    </clipPath>
    <linearGradient id="j" data-name="åçûìßííûé ãðàäèåíò 8" x1="97.065" y1="151.846" x2="91.011" y2="199.147" gradientUnits="userSpaceOnUse">
      <stop offset="0" stop-color="#303030"/>
      <stop offset="0.643" stop-color="#404040"/>
    </linearGradient>
  </defs>
  <title>elizabeth</title>
  <g style="clip-path: url(#a)">
    <g>
      <path d="M61.572,45.153S43.118,64.224,43.912,73.3c1.621,18.509,8.19,28.27,9.614,31.632s-11.262,15.891-11.3,24.165,8.559,19.617,8.559,19.617,46.5-2.848,46.812-3.8,19.943-49.771,18.989-51.464-30.579-56-30.579-56Z" style="fill: #572400"/>
      <path d="M58.788,148.606c-7.9-9.846-6.79-19.071-4.474-25.076,2.578-6.683,7.271-11.2,8.092-11.335l.159,1-.08-.5.151.481c-.819.381-6.518,5.961-8.416,14.075-1.687,7.213.116,14.186,5.357,20.723Z" style="fill: #3d1a00"/>
      <path d="M61.349,170.73c3.112-13.19,4.65-26.544-.62-30.845,0,0-7.21,1.567-16.412,30.839Q52.82,170.758,61.349,170.73Z" style="fill: url(#b)"/>
      <path d="M82.666,135.033c-7.383,0-21.937,6.117-21.937,6.117s-4.06,16.623-10.151,29.59c15.327.016,30.713-.121,46.085-.16,2.625-7.621,4.633-15.82,4.777-23.946C96.8,139.252,90.049,135.033,82.666,135.033Z" style="fill: #ba0006"/>
      <path d="M61.349,170.73c3.871-12.083,9.122-27.925,9.122-27.925l-1.284-2.825s-9.32,17.955-14.345,30.762Q58.093,170.74,61.349,170.73Z" style="fill: #8a0005"/>
      <path d="M102.846,147.464c-6.428-10.512-14.935-11.7-14.935-11.7l-10.236,4.12s-6.483,17.64-10.667,30.826c10.417-.043,20.849-.112,31.273-.133C101.206,161.608,103.389,152.7,102.846,147.464Z" style="fill: url(#c)"/>
      <path d="M74.188,164.577l4.727-3.188,6.91-21.253-.962-.313-6.8,20.922-5.4,3.638,3.431,3.873-1.142,2.418,1.122-.006,1.22-2.584Z" style="fill: #1c1c1c"/>
      <path d="M60.144,170.733c4.6-12.811,11.243-30.848,11.243-30.848l-2.2-3.24-8.458,3.24a148.749,148.749,0,0,1-8.686,25.966c-.769,1.651-1.641,3.3-2.553,4.889Q54.812,170.748,60.144,170.733Z" style="fill: #303030"/>
      <path d="M59.1,163.07l-2.323-4.594L68,137.908l-.888-.485L55.637,158.459l2.157,4.266L53.5,165.573l.181,5.169H54.7l-.163-4.639Z" style="fill: #1c1c1c"/>
      <path d="M72.676,112.885c-.006.211-3.6,24.535-3.6,24.535s-2.193,4,5.138,4.208a17.818,17.818,0,0,0,13.694-5.864l2.162-25.411Z" style="fill: url(#d)"/>
      <path d="M74.269,136.214s-.438,5.74-.377,5.4,2.8-4.97,2.8-4.97l.776,4.78s-2.832,2.7-4.467,2.277-1.939-2.528-1.939-2.528Z" style="fill: #990005"/>
      <path d="M61.714,48.083S54.653,60.171,51.371,69.822c-1.8,5.289-4.151,14.622-4.151,20.488,1.324,5.737,7.621,25.416,21.211,30.777,18.195-2.069,24.119-5.7,27.208-9.447s10.3-20.676,14.934-27.589,9.267-24.123,0-37.141c-8.2-11.513-36.341-11.577-45.288-4.537C63.765,43.569,62.811,46.706,61.714,48.083Z" style="fill: #f5ba89"/>
      <ellipse cx="80.125" cy="93.077" rx="9.948" ry="4.957" style="fill: url(#e)"/>
      <ellipse cx="52.485" cy="91.073" rx="4.899" ry="4.957" style="fill: url(#f)"/>
      <path d="M53.269,98.047s-3.786-1.74-3.923-4.858L59.44,89.383a4.651,4.651,0,0,1,3.034,4.907C62.234,98.193,57.064,101.012,53.269,98.047Z" style="fill: url(#g)"/>
      <path d="M72.454,81.878s1.076-4.054,3.475-4.964A14.169,14.169,0,0,1,90.3,79.4a9.613,9.613,0,0,1-.819,3.988s-10.094.645-15.609,1.224c-2.5.262-2.991-.248-2.991-.248v-.331A3.819,3.819,0,0,0,72.454,81.878Z" style="fill: #fff"/>
      <g style="clip-path: url(#h)">
        <ellipse cx="82.524" cy="81.134" rx="5.23" ry="5.853" style="fill: #572400"/>
      </g>
      <g>
        <path d="M63.411,77.328s-2.73-2.813-5.957-2.9a10.483,10.483,0,0,0-6.95,2.936A5.061,5.061,0,0,0,50.172,80s.539,2.956,5.5,3.038,5.75.827,5.75.827Z" style="fill: #fff"/>
        <g style="clip-path: url(#i)">
          <ellipse cx="58.875" cy="79.147" rx="4.163" ry="5.71" style="fill: #572400"/>
        </g>
      </g>
      <path d="M63.19,77.77l-.162-.127c-.1-.085-.26-.193-.449-.338s-.439-.3-.692-.483c-.277-.167-.571-.361-.908-.532-.318-.2-.7-.334-1.06-.514a8.808,8.808,0,0,0-1.194-.354,8.472,8.472,0,0,0-1.263-.181c-.216-.011-.438.028-.656.023a2.332,2.332,0,0,0-.662.059,7.194,7.194,0,0,0-1.337.282q-.332.1-.668.182c-.223.059-.43.178-.648.252a13.435,13.435,0,0,0-1.253.506c-.394.192-.778.366-1.143.522-.374.14-.685.334-.985.472s-.562.268-.784.368c-.447.2-.727.294-.727.294s.127-.255.393-.67c.134-.206.295-.464.5-.738a6.12,6.12,0,0,1,.727-.9c.3-.3.634-.623,1-.955a8.133,8.133,0,0,1,1.279-.909,6.545,6.545,0,0,1,1.546-.755,7.063,7.063,0,0,1,1.774-.457,4.041,4.041,0,0,1,.938-.057,8.943,8.943,0,0,1,.939.044,7.051,7.051,0,0,1,3.2,1.35,7.547,7.547,0,0,1,1.03,1.031,6.484,6.484,0,0,1,.673.994,5.766,5.766,0,0,1,.379.831A3.327,3.327,0,0,1,63.19,77.77Z" style="fill: #572400"/>
      <path d="M63.411,65.6a3.654,3.654,0,0,1,1.964,2.126,4.533,4.533,0,0,1,.138,1.682l-.057.43-.084.392-.173.783-.728,3.124-.808,3.11c-.562,2.069-1.108,4.143-1.715,6.191l-.9,3.08-.931,3.07-.1.339-.328.123q-2.525.947-5.071,1.84c-1.69.613-3.4,1.182-5.1,1.769l.323-.511a3.184,3.184,0,0,0,.079.464,4.253,4.253,0,0,0,.149.494,5.523,5.523,0,0,0,.448.955,5.334,5.334,0,0,0,.289.45c.093.153.217.285.326.429a3.9,3.9,0,0,0,.354.412,4.865,4.865,0,0,0,.383.391,7.849,7.849,0,0,0,.849.705,10.627,10.627,0,0,0,.929.617c.321.191.662.346.991.534l1.035.465-1.1-.3-.538-.2c-.177-.072-.362-.128-.533-.214a11.064,11.064,0,0,1-1.03-.523,8.365,8.365,0,0,1-.978-.637,5.37,5.37,0,0,1-.458-.37,4.429,4.429,0,0,1-.435-.4,4.9,4.9,0,0,1-.4-.441c-.122-.158-.258-.305-.365-.476a6.371,6.371,0,0,1-.6-1.051A5.2,5.2,0,0,1,49,93.875a3.543,3.543,0,0,1-.158-.644l-.05-.358.373-.153c1.665-.681,3.322-1.381,5-2.037s3.342-1.329,5.023-1.966l-.431.461c.592-2.053,1.214-4.1,1.838-6.141l.949-3.061.958-3.052,1.969-6.1c.144-.5.384-1.037.469-1.5a4.036,4.036,0,0,0,.04-1.5,3.324,3.324,0,0,0-.525-1.287C64.186,66.083,63.823,65.941,63.411,65.6Z" style="fill: #c97f53"/>
      <path d="M77.33,102.621c-8.338,6.785-18.966,4.054-18.966,4.054s2.212,4.526,9.483,3.227c5.556-.993,9.483-7.281,9.483-7.281" style="fill: #bd6c3c"/>
      <path d="M76.523,101.3l1.29,2.134S79.21,101.38,76.523,101.3Z" style="fill: #c97f53"/>
      <path d="M103.833,150.853a11.973,11.973,0,0,0-6.129-9.024c-4.111-2.162-7.991,12.8-11.079,28.787q8.041-.037,16.08-.046C103.7,161.008,104.205,153.208,103.833,150.853Z" style="fill: url(#j)"/>
      <path d="M71.872,66.7a2.938,2.938,0,0,1,.8-.574,4.288,4.288,0,0,1,.984-.368c.389-.1.838-.146,1.323-.226.974-.137,2.113-.274,3.342-.361a37.9,37.9,0,0,1,3.869-.06c.659.01,1.323.093,1.973.147s1.29.184,1.906.279c.615.123,1.206.286,1.765.417.553.18,1.069.379,1.544.548.469.2.885.425,1.257.6a5.316,5.316,0,0,1,.919.562l.766.541a.629.629,0,0,1-.639,1.078l-.093-.046-.744-.363a5.691,5.691,0,0,0-.86-.385c-.35-.117-.729-.273-1.162-.4L87.4,67.762c-.521-.075-1.061-.177-1.63-.243-.577-.033-1.161-.119-1.769-.133s-1.22-.054-1.842-.025c-1.236,0-2.48.08-3.641.193s-2.248.241-3.173.383c-.462.073-.884.152-1.262.2a5.079,5.079,0,0,1-1,0,3.538,3.538,0,0,1-.919-.207l-.008,0a.775.775,0,0,1-.415-1.014A.8.8,0,0,1,71.872,66.7Z" style="fill: #572400"/>
      <path d="M63.9,67.439a3.3,3.3,0,0,1-.582,0,7.636,7.636,0,0,1-1.433-.225c-.572-.133-1.2-.389-1.9-.6s-1.435-.4-2.174-.553a9.654,9.654,0,0,0-2.134-.207,3.45,3.45,0,0,0-1.652.39,1.4,1.4,0,0,0-.29.194,1.431,1.431,0,0,0-.241.214,2.657,2.657,0,0,0-.343.432,3.468,3.468,0,0,0-.182.328l-.063.121-.022.043a.3.3,0,0,1-.561-.175l.019-.159a4.239,4.239,0,0,1,.071-.456,3.114,3.114,0,0,1,.259-.7,1.9,1.9,0,0,1,.246-.4,2.425,2.425,0,0,1,.347-.4,4.391,4.391,0,0,1,2.177-1.1,8.47,8.47,0,0,1,1.3-.175,9.933,9.933,0,0,1,1.319.014,15.287,15.287,0,0,1,2.5.377,10.8,10.8,0,0,1,2.079.626,5.589,5.589,0,0,1,1.321.815,3.273,3.273,0,0,1,.447.438.714.714,0,0,1-.469,1.149Z" style="fill: #572400"/>
      <path d="M70.883,84.029a1.359,1.359,0,0,0,.171-.222,4.789,4.789,0,0,0,.346-.689c.127-.305.245-.689.38-1.123.068-.216.115-.462.176-.709a8.062,8.062,0,0,0,.179-.787l.2-.884a8.269,8.269,0,0,1,.281-.994,5.775,5.775,0,0,1,1.3-2.143A5.5,5.5,0,0,1,76.322,75.1a10.439,10.439,0,0,1,2.539-.365c.408-.011.814-.021,1.209-.011l.609.021.571.03a15.8,15.8,0,0,1,2.372.358,13.19,13.19,0,0,1,3.871,1.6,18.647,18.647,0,0,1,2.329,1.693c.528.447.81.729.81.729s-.388-.1-1.044-.3-1.58-.512-2.669-.818a19.935,19.935,0,0,0-3.668-.727c-.669-.06-1.375-.1-2.064-.1l-.572,0h-.144l-.119,0-.279.009c-.374.006-.74.017-1.1.035a11.922,11.922,0,0,0-2.02.233,3.8,3.8,0,0,0-1.5.67,4.453,4.453,0,0,0-1.066,1.252,6.681,6.681,0,0,0-.43.8l-.417.814a11.264,11.264,0,0,1-.872,1.413c-.154.2-.29.387-.428.551l-.416.429a3.275,3.275,0,0,1-.667.5A.958.958,0,0,1,70.883,84.029Z" style="fill: #572400"/>
      <path d="M69.822,132.12l-2.262,5.148a7.767,7.767,0,0,0,2.911,5.537c2.164-3.48,3.8-6.591,3.8-6.591S70.546,134.928,69.822,132.12Z" style="fill: #c70007"/>
      <path d="M78.013,144.071c-.165.027-1.318-7.427-1.318-7.427s7.447-1.058,11.581-5.385a68.182,68.182,0,0,1,2.974,6.2S85.343,142.858,78.013,144.071Z" style="fill: #c70007"/>
      <path d="M66.084,42.769C63.932,41.5,97.566,64.337,92.825,75.6c-8.571,20.35-5.489,25.7-2.752,32.248,6.4,15.3-3.264,43.4-3.264,43.4s6.434,3.641,11.832-1.844c1.939-1.969,3.486-4.119,4.205-1.934,2.3,7,14.121,2.477,15.076,1.934,0,0-3.269-15.4-.738-20.566s21.785-26.79,19.143-30.8c-14.555-22.068-17.39-49.992-25.815-55.688-5.258-3.554-42.952-7.013-42.952-7.013-7.552,4.143-5.845,12.749-5.845,12.749Z" style="fill: #572400"/>
      <path d="M118.782,106.91c3.885-4.724,7.24-8.8,6.813-12-.957-7.181-11.159-34.425-15.252-44.577-1.752-4.345-5.47-7.919-9.2-10.662-.761-.144-1.549-.286-2.359-.426,4.153,2.787,8.679,6.658,10.617,11.466,4.079,10.118,14.243,37.242,15.188,44.333.368,2.762-3.013,6.872-6.592,11.225-5.42,6.59-11.564,14.06-9.853,21.569,1.028,4.513,4.027,15.66,6.17,22.8q.527-.135,1-.277c-1.777-5.884-4.432-15.069-6.181-22.746C107.534,120.587,113.51,113.321,118.782,106.91Z" style="fill: #3d1a00"/>
      <path d="M106.141,90.633c2.317-6.8,4.713-13.827,3.951-19.925C108.991,61.9,86.58,42.433,79.647,36.6c-.625-.072-1.233-.141-1.829-.208,4.867,4.058,30.156,25.529,31.269,34.439.734,5.866-1.625,12.782-3.9,19.471-1.05,3.079-2.055,6.043-2.74,8.822a41.308,41.308,0,0,0-.506-4.155A94.411,94.411,0,0,0,90.5,64.9l-.415.265a17.594,17.594,0,0,1,3.086,6.8,92.318,92.318,0,0,1,7.771,23.184c2.367,12.952-1.721,42.734-3.668,55.41a11.1,11.1,0,0,0,1.174-.992c1.637-10.834,4.461-31.816,4.194-46.094l.031,0C103.055,99.685,104.554,95.287,106.141,90.633Z" style="fill: #3d1a00"/>
    </g>
  </g>
</svg>
