<svg xmlns="http://www.w3.org/2000/svg" xmlns:xlink="http://www.w3.org/1999/xlink" viewBox="0 0 168 168">
  <defs>
    <clipPath id="a">
      <rect width="168" height="168" style="fill: none"/>
    </clipPath>
    <linearGradient id="b" x1="12129.292" y1="119.913" x2="12122.175" y2="135.537" gradientTransform="matrix(-1, 0, 0, 1, 12216.699, 0)" gradientUnits="userSpaceOnUse">
      <stop offset="0" stop-color="#6e432d"/>
      <stop offset="0.558" stop-color="#7a4e34"/>
      <stop offset="1" stop-color="#875a3b"/>
    </linearGradient>
    <linearGradient id="c" x1="12133.703" y1="103.082" x2="12138.835" y2="89.273" gradientTransform="matrix(-1, 0, 0, 1, 12216.699, 0)" gradientUnits="userSpaceOnUse">
      <stop offset="0" stop-color="#7d4529"/>
      <stop offset="0.642" stop-color="#835133"/>
      <stop offset="1" stop-color="#875a3b"/>
    </linearGradient>
  </defs>
  <title>johnette</title>
  <g style="clip-path: url(#a)">
    <g>
      <path d="M72.49,59.277a3.4,3.4,0,0,0,1.122,2.983c2.795,2.315,9.738.488,11.076.1.255-.517.914-1.81,1.918-3.506a36.778,36.778,0,0,1-4.09-3.546s-3.427.226-4.922.289a49.593,49.593,0,0,1-5.269-.411s-.038.023-.1.053A20.005,20.005,0,0,1,72.49,59.277Zm0,0a3.4,3.4,0,0,0,1.122,2.983c2.795,2.315,9.738.488,11.076.1.255-.517.914-1.81,1.918-3.506a36.778,36.778,0,0,1-4.09-3.546s-3.427.226-4.922.289a49.593,49.593,0,0,1-5.269-.411s-.038.023-.1.053A20.005,20.005,0,0,1,72.49,59.277Zm0,0a3.4,3.4,0,0,0,1.122,2.983c2.795,2.315,9.738.488,11.076.1.255-.517.914-1.81,1.918-3.506a36.778,36.778,0,0,1-4.09-3.546s-3.427.226-4.922.289a49.593,49.593,0,0,1-5.269-.411s-.038.023-.1.053A20.005,20.005,0,0,1,72.49,59.277Zm-43.816,54.34s-2.438,6.809-1.732,10.61a14.631,14.631,0,0,0,3.882,6.836l.041.041s-.019.473-.008,1.23c.023,2.146.264,6.6,1.713,9.089,1.963,3.365,6.775,5.464,6.775,5.464s2.445,6.222,4.536,8.427,6.134.9,6.134.9.09.128.266.364.462.621.824,1.063a26.315,26.315,0,0,0,5.456,5.193c3.651,2.432,9.913.064,9.913.064s3.121,5.039,8.25,5.874,8.762-3.62,8.762-3.62,4.261,4.033,9.757,2.941a10.316,10.316,0,0,0,7.36-5.9s5.626,1.044,9.533-1.13,7.545-8.747,7.545-8.747a35.98,35.98,0,0,0,6.255-2.653c2.66-1.55,2.873-7.308,2.873-7.308s6.474,1.1,8.471-3.2a8.9,8.9,0,0,0,.555-1.559c.125-.485.223-.99.3-1.5a28.374,28.374,0,0,0-.368-8.466s5.583-2.778,6.146-3.823-1.609-6.57-1.609-6.57,4.422-4.4,5.641-7.139-1.872-10.006-1.872-10.006a14.277,14.277,0,0,0,.257-1.429c.056-.378.111-.825.15-1.319a17.856,17.856,0,0,0-1.381-8.832,14.734,14.734,0,0,0-6.481-7.138s.237-8.822-2.829-12.524S123.6,65.71,123.6,65.71s-.009-.041-.031-.111c-.041-.185-.145-.591-.292-1.127-.569-2.109-1.779-6.258-2.761-7.12-1.32-1.167-6.751-.682-6.751-.682s-5.244-6.426-8.954-8.181a8.183,8.183,0,0,0-7.187.3s-.464-.245-1.185-.618c-.324-.167-.7-.36-1.1-.566a40.167,40.167,0,0,0-6.81-2.9c-2.194-.423-6.981,2.2-6.981,2.2S76.491,43.93,73.6,44.433a6.292,6.292,0,0,0-3.652,2.627,13.177,13.177,0,0,0-.762,1.172c-.172.3-.257.484-.257.484s-5.241-.677-6.8-.355-4.478,3.761-4.478,3.761A24.538,24.538,0,0,0,48.111,55.2a17.954,17.954,0,0,0-5.749,5.954c-.234.365-.444.713-.622,1.034a20.524,20.524,0,0,0-.95,1.874S34.7,67.9,33.684,69.605s.284,6.759.284,6.759-4.075,4-4.786,7.346a15.731,15.731,0,0,0,.377,6.323c.106.482.216.88.3,1.16.086.31.145.488.145.488s-4.837,7.7-5.384,11.944S28.674,113.618,28.674,113.618ZM53.132,67.963a54.808,54.808,0,0,1,4.742,4.694l.2.228-.066.309c-.093.427-2.343,10.545-6.572,11.451a7.894,7.894,0,0,0-1.73.6c-.018-.416-.035-.832-.046-1.249a8.852,8.852,0,0,1,1.556-.51c2.816-.6,4.95-7.339,5.632-10.259a56.762,56.762,0,0,0-4.265-4.192c.074-.42.116-.686.116-.686S52.859,68.212,53.132,67.963Zm43.333.371c.083-.037.633-.3,1.538-.613.1.128.194.249.291.363.153.2.341.4.541.618a18.861,18.861,0,0,0-1.9.712ZM71.17,55.8c.5-.256.878-.459,1.051-.558a20.005,20.005,0,0,1,.269,4.035,3.4,3.4,0,0,0,1.122,2.983c2.795,2.315,9.738.488,11.076.1.255-.517.914-1.81,1.918-3.506.23.164.455.315.677.45.1.06.19.118.291.17-1.256,2.13-1.98,3.615-2,3.655l-.111.222-.228.071c-.357.113-8.779,2.7-12.316-.241a4.577,4.577,0,0,1-1.552-3.973A18.093,18.093,0,0,0,71.17,55.8Zm1.32,3.476a3.4,3.4,0,0,0,1.122,2.983c2.795,2.315,9.738.488,11.076.1.255-.517.914-1.81,1.918-3.506a36.778,36.778,0,0,1-4.09-3.546s-3.427.226-4.922.289a49.593,49.593,0,0,1-5.269-.411s-.038.023-.1.053A20.005,20.005,0,0,1,72.49,59.277Zm0,0a3.4,3.4,0,0,0,1.122,2.983c2.795,2.315,9.738.488,11.076.1.255-.517.914-1.81,1.918-3.506a36.778,36.778,0,0,1-4.09-3.546s-3.427.226-4.922.289a49.593,49.593,0,0,1-5.269-.411s-.038.023-.1.053A20.005,20.005,0,0,1,72.49,59.277Z" style="fill: #170f0a"/>
      <path d="M101.007,90.761c-2.262,2.848-1.591,7.184-1.563,7.371l.033.192.137.14c.579.568,14.241,14.042,17.307,16.678,2.3,1.983,1.362,9.014.809,11.553l-.128.6.566.116c.134.035,12.3,2.653,17.668,10.191.125-.485.223-.99.3-1.5-5.174-6.471-14.755-9.134-17.2-9.72.41-2.178,1.567-9.671-1.316-12.156-2.861-2.459-15.587-14.993-17.094-16.479-.092-.824-.343-4.106,1.343-6.228a5.612,5.612,0,0,1,4.6-1.925c7.678-.057,17.765,5.844,17.864,5.9l.257.15.264-.137c.071-.031,6.866-3.533,10.955-2.022,1.936.717,5.368,2.958,8.524,5.18.056-.378.111-.825.15-1.319a47.808,47.808,0,0,0-8.312-4.975c-4.088-1.511-10.187,1.275-11.551,1.943-1.67-.95-10.795-5.956-18.161-5.9A6.69,6.69,0,0,0,101.007,90.761Z" style="fill: #3b271a"/>
      <path d="M30.859,132.334a23.737,23.737,0,0,1,8.853-1.622l.521.02.058-.539c0-.068.736-6.7,4.806-11.106,3.711-4.014,11.142-6.021,12.566-6.373,2.93,2.206,7.285,5.505,8.623,6.575a23.168,23.168,0,0,0-1.664,11c-5.434,3.5-4.8,8.786-4.039,13.945-4.227,3.341-8.4,7.3-10.3,12.346.182.249.462.621.824,1.063,1.714-5.2,6.071-9.262,10.414-12.676l.268-.205-.047-.352c-.767-5.21-1.488-10.128,3.763-13.3l.334-.2-.064-.4a22.39,22.39,0,0,1,1.45-10.591l.115.036.238-.454c.274-.567.274-.567-9.476-7.893l-.2-.152-.242.052c-.373.085-9.045,2.075-13.367,6.768-3.7,4-4.794,9.527-5.051,11.263a24.347,24.347,0,0,0-8.42,1.534l.041.041S30.847,131.577,30.859,132.334Z" style="fill: #3b271a"/>
      <path d="M101.977,129.049s-6.1-.205-18.248,3.3c.7,3.025,1.346,3.761,1.346,3.761s17.534-4.167,17.4-4.3A25.435,25.435,0,0,1,101.977,129.049Z" style="fill: #a8a8a8"/>
      <path d="M123.581,154.279s.29-22.149-30.371-17.94c-30.332,4.165-31.7,31.04-31.95,30.577-.1-.176-3.2,8.684,11.573,9.793,12.667.951,42.716-5.675,51.167-7.333Z" style="fill: #c6363d"/>
      <path d="M96.633,117.473s2.918,4.816,5.344,17.915c-5.787,4.744-16.408,3.317-16.408,3.317s-.762-4.8-4.338-15.443A97.292,97.292,0,0,0,96.633,117.473Z" style="fill: url(#b)"/>
      <path d="M107.339,74.966c4.474,7.642,15.278,33.853-17.359,46.353S50.4,105.522,48.662,99.966s-5.9-34.895,15.8-44.441S103.172,67.848,107.339,74.966Z" style="fill: #875a3b"/>
      <path d="M93.771,65.449s-11.2-4.63-19.164,1.736c1.317,1.678,2.155,2.6,2.155,2.6s5.751-6.366,17.009-3.645Z" style="fill: #170f0a"/>
      <path d="M64.989,70.831l.541,3.241s-10.46,0-13.968,9.2l-.639-.291S53.668,72.567,64.989,70.831Z" style="fill: #170f0a"/>
      <path d="M99.041,100.025s-4.168,5.7-13.472,9.78-15.38,2.258-15.38,2.258,9.435,7.8,18.724,3.718S99.041,100.025,99.041,100.025Z" style="fill: #170f0a"/>
      <path d="M99.041,100.025s-4.168,5.7-13.472,9.78-15.38,2.258-15.38,2.258,8.333,5.729,17.621,1.649S99.041,100.025,99.041,100.025Z" style="fill: #fff"/>
      <path d="M99.984,100.5a1.6,1.6,0,0,0-2.084-.868A16.985,16.985,0,0,0,99.984,100.5Z" style="fill: #6e472d"/>
      <path d="M70.8,110.915l-.6,2.324A1.53,1.53,0,0,1,70.8,110.915Z" style="fill: #6e472d"/>
      <path d="M85.309,96.411s2.7-.058,3.512,1.157-4.05,5.266-5.961,6.134-7.117.868-7.521,0,1.443-3.32,1.443-3.32L70.617,77.461l4.369-2.015Z" style="fill: url(#c)"/>
      <path d="M109.771,73.873s8.42-2.975,9.809,4.544-5.208,8.986-5.208,8.986Z" style="fill: #875a3b"/>
      <path d="M44.379,99.632l6.139,12.72s-6.707,2.351-9.951-3.843S44.379,99.632,44.379,99.632Z" style="fill: #875a3b"/>
      <path d="M45.409,86.595q.029.719.086,1.414a49.434,49.434,0,0,0,6.326,20.412l-.021-4.412a18.9,18.9,0,0,0-.133-5.208,20.173,20.173,0,0,0-2.262-4.687,10.8,10.8,0,0,0,.541-4.888c-.095-.975-.175-2.446-.239-3.979-.018-.416-.035-.832-.046-1.249-.1-2.679-.151-5.179-.151-5.179s1.353-2.8,1.9-4.423a45.506,45.506,0,0,0,1.175-5.359c.074-.42.116-.686.116-.686s.158-.138.432-.387c.6-.546,1.8-1.639,3.163-2.954,1.984-1.912,4.028-5.584,4.269-5.768s4.443-.908,6.31-1.508A34.809,34.809,0,0,0,71.17,55.8c.5-.256.878-.459,1.051-.558.066-.03.1-.053.1-.053a49.593,49.593,0,0,0,5.269.411c1.5-.063,4.922-.289,4.922-.289a36.778,36.778,0,0,0,4.09,3.546c.23.164.455.315.677.45.1.06.19.118.291.17,2.254,1.309,6.866,3.236,6.866,3.236S96.462,65.75,98,67.721c.1.128.194.249.291.363.153.2.341.4.541.618,1.851,1.959,8.973,4.142,8.973,4.142a11.633,11.633,0,0,1-5.379-5.017c-.168-.36-.355-.735-.564-1.123a36.876,36.876,0,0,0-5.586-7.828,25.23,25.23,0,0,0-5.406-4.417q-.5-.3-1.013-.582a33.215,33.215,0,0,0-18.879-3.866c-.383.03-.764.067-1.144.118a31.185,31.185,0,0,0-5.728,1.235c-6.3,1.994-11.186,7.2-14.384,13.844-.177.354-.346.723-.5,1.091A46.505,46.505,0,0,0,45.4,83.161Q45.339,84.907,45.409,86.595Z" style="fill: #170f0a"/>
      <path d="M99.473,79.032s-.32-.165-.878-.387A11.682,11.682,0,0,0,96.274,78a10.319,10.319,0,0,0-1.529-.115,9,9,0,0,0-1.653.189,10.567,10.567,0,0,0-3.34,1.386l-.4.256-.4.277c-.232.175-.436.353-.666.559a7.172,7.172,0,0,0-1.117,1.336,8.982,8.982,0,0,0-1.208,2.988c-.093.482-.179.937-.214,1.346S85.68,87,85.676,87.3c-.022.6,0,.959,0,.959a5.579,5.579,0,0,1-.377-.9,8.336,8.336,0,0,1-.287-1.094,8.9,8.9,0,0,1-.164-1.479,8.142,8.142,0,0,1,.778-3.753,7.6,7.6,0,0,1,1.261-1.855,8.669,8.669,0,0,1,.863-.809l.436-.338.465-.313A10.492,10.492,0,0,1,90.657,76.7a8.6,8.6,0,0,1,2.161-.5,7.682,7.682,0,0,1,3.819.608,7.2,7.2,0,0,1,2.2,1.473A4.27,4.27,0,0,1,99.473,79.032Z" style="fill: #170f0a"/>
      <path d="M71.151,94.308s-.2-.318-.59-.825a15.025,15.025,0,0,0-1.734-1.906,12.324,12.324,0,0,0-1.3-1.02,8.933,8.933,0,0,0-1.575-.83,8.305,8.305,0,0,0-1.794-.5,9.52,9.52,0,0,0-1.928-.1,12.206,12.206,0,0,0-1.974.27,8.676,8.676,0,0,0-1.756.572,5.766,5.766,0,0,0-1.419.912,5.171,5.171,0,0,0-.988,1.18,7.062,7.062,0,0,0-.847,2.335,7.5,7.5,0,0,0-.121,1,4.075,4.075,0,0,1-.3-1,5.723,5.723,0,0,1,.156-2.824,5.363,5.363,0,0,1,.932-1.771,6.4,6.4,0,0,1,1.7-1.477,8.4,8.4,0,0,1,2.185-.909,10.742,10.742,0,0,1,2.333-.37,9.471,9.471,0,0,1,2.41.2,8.258,8.258,0,0,1,2.2.822,8.71,8.71,0,0,1,2.977,2.731,9.147,9.147,0,0,1,1.2,2.488A5.717,5.717,0,0,1,71.151,94.308Z" style="fill: #170f0a"/>
      <ellipse cx="104.476" cy="90.269" rx="0.608" ry="0.37" style="fill: #6e4930"/>
      <ellipse cx="100.591" cy="95.531" rx="0.608" ry="0.37" transform="translate(-37.162 79.135) rotate(-36.734)" style="fill: #6e4930"/>
      <ellipse cx="93.771" cy="93.628" rx="0.608" ry="0.37" transform="translate(-37.388 74.748) rotate(-36.765)" style="fill: #6e4930"/>
      <ellipse cx="71.151" cy="107.133" rx="0.608" ry="0.369" transform="translate(-49.986 63.938) rotate(-36.785)" style="fill: #6e4930"/>
      <ellipse cx="64.169" cy="103.885" rx="0.608" ry="0.37" transform="translate(-49.401 59.035) rotate(-36.748)" style="fill: #6e4930"/>
      <ellipse cx="60.361" cy="109.199" rx="0.608" ry="0.369" transform="translate(-18.713 12.684) rotate(-10.395)" style="fill: #6e4930"/>
      <path d="M94.307,134.314s-1.428,4.789-1.434,4.593-2.95-4.1-2.95-4.1l-1.01,4.427a15.017,15.017,0,0,0,4.323,0c2.358-.348,4.376-.873,4.376-.873Z" style="fill: #ededed"/>
      <path d="M101.977,129.049l3.339,6.334s.525,8.409-4.725,6.93-6.285-8-6.285-8Z" style="fill: #fff"/>
      <path d="M85.4,144.784c5.642-1.737,4.526-9.979,4.526-9.979l-6.193-2.459-3.965,6.56S80.4,146.323,85.4,144.784Z" style="fill: #fff"/>
      <path d="M86.607,58.858c.23.164.455.315.677.45.1.06.19.118.291.17.864-1.454,1.979-3.21,3.3-5.018a40.851,40.851,0,0,1,5.564-6.287c-.324-.167-.7-.36-1.1-.566a42.6,42.6,0,0,0-5.475,6.27C88.55,55.677,87.456,57.411,86.607,58.858Z" style="fill: #3b271a"/>
      <path d="M71.17,55.8c.5-.256.878-.459,1.051-.558a37.251,37.251,0,0,0-1.24-5.23c-.315-1-.659-1.995-1.03-2.952a13.177,13.177,0,0,0-.762,1.172c.231.623.441,1.254.648,1.9A35.8,35.8,0,0,1,71.17,55.8Z" style="fill: #3b271a"/>
      <path d="M41.74,62.193A27.056,27.056,0,0,1,49.223,66.3c1.219.9,2.354,1.847,3.362,2.737.074-.42.116-.686.116-.686s.158-.138.432-.387c-1.02-.9-2.169-1.849-3.408-2.755a28.169,28.169,0,0,0-7.362-4.05C42.128,61.523,41.918,61.872,41.74,62.193Z" style="fill: #3b271a"/>
      <path d="M29.559,90.034c.106.482.216.88.3,1.16a45.158,45.158,0,0,1,6.11-2.807c2.92-.859,5.96,2.065,5.994,2.091l.386.388.379-.392c.026-.021,1.17-1.181,2.767-2.465a22.255,22.255,0,0,1,4.213-2.763c-.018-.416-.035-.832-.046-1.249a20.215,20.215,0,0,0-4.253,2.6,36.4,36.4,0,0,0-3.088,2.668c-1.018-.855-3.794-2.858-6.662-2.007A43.152,43.152,0,0,0,29.559,90.034Z" style="fill: #3b271a"/>
      <path d="M98,67.721c.1.128.194.249.291.363.153.2.341.4.541.618a25.433,25.433,0,0,1,3.594-.875,19.984,19.984,0,0,1,10.553.906l.14.057.153-.027a42.759,42.759,0,0,0,6.543-1.915c1.262-.449,2.51-.885,3.749-1.25-.041-.185-.145-.591-.292-1.127-1.29.368-2.558.816-3.814,1.259a43.327,43.327,0,0,1-6.237,1.846,21.127,21.127,0,0,0-11.359-.872A25.566,25.566,0,0,0,98,67.721Z" style="fill: #3b271a"/>
    </g>
  </g>
</svg>
