<svg xmlns="http://www.w3.org/2000/svg" xmlns:xlink="http://www.w3.org/1999/xlink" viewBox="0 0 168 168">
  <defs>
    <clipPath id="a">
      <rect width="168" height="168" style="fill: none"/>
    </clipPath>
    <linearGradient id="b" data-name="Áåçûìÿííûé ãðàäèåíò 15" x1="10269.413" y1="138.689" x2="10264.916" y2="118.704" gradientTransform="matrix(-1, 0, 0, 1, 10348.836, 0)" gradientUnits="userSpaceOnUse">
      <stop offset="0" stop-color="#ffc09c"/>
      <stop offset="1" stop-color="#d4804e"/>
    </linearGradient>
    <linearGradient id="c" data-name="Áåçûìÿííûé ãðàäèåíò 14" x1="10264.449" y1="51.146" x2="10265.109" y2="63.692" gradientTransform="matrix(-1, 0, 0, 1, 10348.836, 0)" gradientUnits="userSpaceOnUse">
      <stop offset="0" stop-color="#ff9c63"/>
      <stop offset="1" stop-color="#ffb991"/>
    </linearGradient>
    <radialGradient id="d" cx="-28974.736" cy="5346.8" r="7.314" gradientTransform="matrix(0.504, 0.22, -0.306, 0.701, 16282.064, 2725.604)" xlink:href="#c"/>
    <radialGradient id="e" data-name="Áåçûìÿííûé ãðàäèåíò 34" cx="10297.48" cy="96.449" r="10.471" gradientTransform="matrix(-1, 0, 0, 1, 10348.836, 0)" gradientUnits="userSpaceOnUse">
      <stop offset="0" stop-color="#eb874d"/>
      <stop offset="1" stop-color="#ffb991"/>
    </radialGradient>
    <clipPath id="f">
      <path d="M74.451,89.089a10.78,10.78,0,0,1,.089-8.468c6.283-.529,11.184.554,15.79,3.97a7.244,7.244,0,0,0,0,2.161S82.291,92.22,74.451,89.089Z" style="fill: none"/>
    </clipPath>
    <linearGradient id="g" x1="10265.687" y1="90.187" x2="10265.687" y2="79.196" gradientTransform="matrix(-1, 0, 0, 1, 10348.836, 0)" gradientUnits="userSpaceOnUse">
      <stop offset="0" stop-color="#d19900"/>
      <stop offset="1" stop-color="#786400"/>
    </linearGradient>
    <clipPath id="h">
      <path d="M60.33,88.723A5.45,5.45,0,0,0,62.152,83c-.734-2.387-7.085-4.828-10.413-3.523-1.933,2.943-.309,6.431-.309,6.431S55.06,89.965,60.33,88.723Z" style="fill: none"/>
    </clipPath>
    <linearGradient id="i" x1="10289.986" y1="90.769" x2="10289.986" y2="79.775" xlink:href="#g"/>
    <radialGradient id="j" cx="-15240.045" cy="97.43" r="8.339" gradientTransform="translate(15321.112)" xlink:href="#c"/>
  </defs>
  <title>kelly</title>
  <g style="clip-path: url(#a)">
    <g>
      <path d="M58.743,138.842s-7.677,3.051-4.845,23.742c.081.592-1.793.342-1.695.963l1.046,5.911s15.306-.51,17.809-.047C66.255,153.381,61.088,139.585,58.743,138.842Z" style="fill: #ad2126"/>
      <path d="M105.052,169c2.408-7.722,3.439-22.442,3.439-22.442l-15.546-11.81-19.126-3.443-15.075,7.533c-1.4,3.343-6.728,24.619-6.728,24.619S87.394,172.77,105.052,169Z" style="fill: #c12d32"/>
      <g>
        <path d="M105.049,169q.105-.331.2-.68l-51.865-8.815C53,160.851,52.6,162.2,52.2,163.548q2.835,1.279,5.787,2.338L86.7,170.878A86.156,86.156,0,0,0,105.049,169Z" style="fill: #d44348"/>
        <path d="M106.9,160.48c.508-3.186.886-8.929,1.147-11.466l-50.5-4.483c-.616,1.788-.545,1.928-1.473,5.314l49.852,8.358S106.284,159.03,106.9,160.48Z" style="fill: #d44348"/>
      </g>
      <path d="M108.491,146.561c-6.064,4.1-8.434,15.359-8.761,23.408,6.648-.973,15.042,1.213,21.145-1.344C115.258,157.786,108.491,146.561,108.491,146.561Z" style="fill: #c12d32"/>
      <path d="M55.3,52.3s3.393,64.859,1,74.234c0,0,4.315-.891,7.958-1.677,20.248-4.372,53.238-14.265,53.238-14.265s-18.368-3.245-17.667-5.191S55.3,52.3,55.3,52.3Z" style="fill: #dbab42"/>
      <path d="M95.989,109.6c-.184.508-4.6,28.714-4.6,28.714s-9.138,6.093-14.553,5.076-4.575-8.29-4.575-8.29L73.6,111.8Z" style="fill: url(#b)"/>
      <path d="M55.435,51.964s-4.524,9.867-5.649,13.251c.9,8.123,3.157,22.563-5.643,29.781,5.866,13.086,16.186,30.906,30,27.681,13.124-3.063,23.359-4.894,29.732-8.053,3.67-6.768,5.024-28.949,5.024-28.949s13.384-13.015,12.672-21.588c-1.165-10.829-12.22-23.012-14.026-23.464C65.875,34.758,55.435,51.964,55.435,51.964Z" style="fill: url(#c)"/>
      <path d="M56.9,96.621c-1.015,2.328-4.249,3.162-7.216,1.863s-1.845-4.235-.826-6.562,1.541-3.161,4.509-1.864S57.918,94.3,56.9,96.621Z" style="fill: url(#d)"/>
      <path d="M62.193,99.481s1.355,3.313-2.2,3.942-13.031-3.808-7.022-8.183c3.966,1.449,3.3,2.936,6.3.543s3.519-4.678,3.519-4.678Z" style="fill: url(#e)"/>
      <path d="M90.638,72.068a105.848,105.848,0,0,1-20.81-8.731c-.171,2.213,1.978,5.09,1.978,5.09s6.158,5.111,18.052,4.4C90.2,72.491,90.638,72.068,90.638,72.068Z" style="fill: #996d38"/>
      <g>
        <path d="M74.451,89.089a10.78,10.78,0,0,1,.089-8.468c6.283-.529,10.99.659,15.79,3.97a7.244,7.244,0,0,0,0,2.161S81.773,91.957,74.451,89.089Z" style="fill: #fff"/>
        <g style="clip-path: url(#f)">
          <ellipse cx="83.15" cy="84.59" rx="5.462" ry="5.747" style="fill: url(#g)"/>
        </g>
        <path d="M90.33,84.591s-1.416-3.143-8.63-4.87A23.832,23.832,0,0,0,71.368,79.4L74.1,81.8l.44-1.178A24.591,24.591,0,0,1,90.33,84.591Z" style="fill: #542c08"/>
        <path d="M90.33,86.751s-.187.138-.539.348-.854.506-1.484.814a23.943,23.943,0,0,1-2.2.955,26.2,26.2,0,0,1-2.629.82c-.458.109-.923.183-1.376.273-.459.057-.91.129-1.349.168s-.867.057-1.271.044-.787-.026-1.138-.057-.669-.1-.951-.143a7.038,7.038,0,0,1-.718-.177l-.616-.18.636.082a6.709,6.709,0,0,0,.724.086c.282.01.6.021.941.045.344.005.719-.019,1.114-.028s.807-.086,1.234-.113c.428-.048.866-.131,1.313-.2.441-.1.893-.184,1.339-.3a25.867,25.867,0,0,0,2.6-.74c.82-.273,1.585-.542,2.23-.8s1.186-.469,1.555-.64Z" style="fill: #b05c11"/>
      </g>
      <g>
        <path d="M60.33,88.723s2.915-4.011,1.373-6.146c-1.271-1.761-6.636-4.4-9.964-3.1-1.933,2.943-.309,6.431-.309,6.431S55.964,89.769,60.33,88.723Z" style="fill: #fff"/>
        <g style="clip-path: url(#h)">
          <ellipse cx="58.849" cy="84.341" rx="3.717" ry="5.748" style="fill: url(#i)"/>
        </g>
        <path d="M61.995,82.685a11.313,11.313,0,0,0-6.659-4.7c-4.257-.848-6.383.37-6.383.37A3.342,3.342,0,0,0,51.6,79.706C54.1,79.031,57.651,79.516,61.995,82.685Z" style="fill: #542c08"/>
        <path d="M60.33,88.723a6.517,6.517,0,0,1-1.435.209,5.142,5.142,0,0,1-.706,0,6.512,6.512,0,0,1-.787-.053l-.834-.14a4.879,4.879,0,0,1-.846-.219l-.829-.277a5.722,5.722,0,0,1-.762-.366l-.7-.373a3.021,3.021,0,0,1-.579-.4c-.684-.549-1.106-.934-1.106-.934s.525.263,1.262.686a3.89,3.89,0,0,0,.607.317l.7.3a8.062,8.062,0,0,0,.749.314l.8.249a4.561,4.561,0,0,0,.806.227l.793.178c.258.06.514.077.753.118s.468.082.681.089c.424.035.78.079,1.03.074C60.184,88.727,60.33,88.723,60.33,88.723Z" style="fill: #b05c11"/>
      </g>
      <path d="M60.372,68.924a8.03,8.03,0,0,1,1.772,1.945A14.547,14.547,0,0,1,63.412,73.2a17.485,17.485,0,0,1,.85,2.525c.1.433.208.866.294,1.3l.212,1.317c.085.882.2,1.769.2,2.657.008.443.029.888.025,1.332l-.057,1.329c-.026.916-.125,1.742-.236,2.655a22.663,22.663,0,0,1-.5,2.635,16.877,16.877,0,0,1-2.067,5.015,10.99,10.99,0,0,1-1.784,2.136A6.774,6.774,0,0,1,57.885,97.6a2.759,2.759,0,0,1-1.694.076,1.612,1.612,0,0,1-.272-.139l-.136-.091-.271-.183c-.184-.129-.354-.225-.529-.334a4.8,4.8,0,0,0-2.122-.81.694.694,0,0,0-.651.3,2.124,2.124,0,0,0-.269.987,8.216,8.216,0,0,0,.267,2.425l-.066-.138c.1.15.228.331.353.495s.265.327.407.485a11.256,11.256,0,0,0,.917.893,7.235,7.235,0,0,0,1.047.764,9.928,9.928,0,0,0,1.174.605,6.013,6.013,0,0,1-1.308-.326,7.6,7.6,0,0,1-1.238-.58,7.111,7.111,0,0,1-1.132-.79c-.177-.15-.349-.3-.517-.467a5.514,5.514,0,0,1-.487-.533l-.042-.054-.024-.085a9.182,9.182,0,0,1-.4-2.748,3.15,3.15,0,0,1,.389-1.518,1.821,1.821,0,0,1,.681-.647,1.958,1.958,0,0,1,.878-.215,5.738,5.738,0,0,1,2.757.918c.2.117.409.233.585.351l.276.178.137.088c.054.027,0,0,.02.007a1.834,1.834,0,0,0,.875-.129,5.85,5.85,0,0,0,1.963-1.245,9.71,9.71,0,0,0,1.541-1.89,16.423,16.423,0,0,0,1.932-4.617c.221-.817.379-1.657.532-2.494.125-.815.262-1.722.305-2.55l.1-1.285c.025-.428.025-.857.039-1.286.042-.859-.025-1.714-.064-2.571l-.121-1.28c-.054-.425-.132-.845-.2-1.269a23.6,23.6,0,0,0-.619-2.5,14.18,14.18,0,0,0-1.012-2.371A9.128,9.128,0,0,0,60.372,68.924Z" style="fill: #de9266"/>
      <path d="M62.487,70.911l-1.919-3.545s-10.555-3.011-10.511,1.986a5.006,5.006,0,0,1,.469,1.559S51.536,67.232,62.487,70.911Z" style="fill: #996d38"/>
      <path d="M91.743,96.431c0,3.321-4.78,6.011-10.675,6.011s-10.675-2.69-10.675-6.011,4.78-4.014,10.675-4.014S91.743,93.111,91.743,96.431Z" style="fill: url(#j)"/>
      <path d="M81.068,104.4s-7.091,6.989-20.5,3.664l2.226,5.352S76.32,113.564,81.068,104.4Z" style="fill: #fff"/>
      <path d="M97.546,125.9c.106-.227-4.218-77.347-4.218-77.347l-43.991,20.2s-7.376-25.045,13.52-32.3c25.212-1.354,38.727-.622,53.052,7.218,3.823,12.182,22.587,40.4,4.873,70.515A118.677,118.677,0,0,1,97.546,125.9Z" style="fill: #ffd373"/>
      <g>
        <path d="M112.6,42c.632.3,1.265.619,1.9.947-1.494.23-3.252.531-5.156.922,1.912,4.28,16.853,39.533,7.024,73-.524.306-1.034.6-1.543.886,10.681-34.143-5.369-70.7-6.7-73.629A64.91,64.91,0,0,0,97.546,47.3c.717,5.025,6.937,49.842,4.463,76.845-.456.195-.879.371-1.271.531,2.581-26.207-3.444-70.457-4.351-76.875a28.777,28.777,0,0,0-3.013,1.568c-.03-.527-.047-.815-.047-.815l-2.766,1.269C96.177,45.4,106.077,43.093,112.6,42Z" style="fill: #e8ba56"/>
        <path d="M64.016,44.492c5.794-4.587,13.02-7.143,20.109-8.519,2.073.057,4.063.156,5.97.31-8.616.973-18.118,3.461-25.323,9.165-6.547,5.183-10.369,12.42-11.45,21.477L52,67.533C52.986,57.782,57.019,50.03,64.016,44.492Z" style="fill: #e8ba56"/>
      </g>
      <path d="M82.125,105.823c-.108-.3-.425-2.673-2.55-2.842C80.749,104.249,82.125,105.823,82.125,105.823Z" style="fill: #d66c3e"/>
    </g>
  </g>
</svg>
