<svg xmlns="http://www.w3.org/2000/svg" xmlns:xlink="http://www.w3.org/1999/xlink" viewBox="0 0 168 168">
  <defs>
    <clipPath id="a">
      <rect width="168" height="168" style="fill: none"/>
    </clipPath>
    <linearGradient id="b" x1="83.954" y1="137.459" x2="83.954" y2="125.002" gradientUnits="userSpaceOnUse">
      <stop offset="0" stop-color="#e0a574"/>
      <stop offset="1" stop-color="#cf7f3e"/>
    </linearGradient>
    <linearGradient id="c" x1="69.664" y1="94.348" x2="69.664" y2="84.398" gradientUnits="userSpaceOnUse">
      <stop offset="0" stop-color="#664700"/>
      <stop offset="1" stop-color="#140b00"/>
    </linearGradient>
    <linearGradient id="d" x1="99.678" y1="94.348" x2="99.678" y2="84.398" xlink:href="#c"/>
  </defs>
  <title>snehal</title>
  <g style="clip-path: url(#a)">
    <g>
      <path d="M85.672,49.081s-14.1-14.4-20.605-15.872c-12.109,9.9-23.856,39.586-24.941,50.6-.18,13.445,3.583,23.154,5.588,38.84s1.824,24.09,1.824,24.09l1.446,11.764,65.426-4.108s9.759-73.014,9.759-81.6-15-28.631-18.616-29.813S85.672,49.081,85.672,49.081Z" style="fill: #1a1a1a"/>
      <path d="M47.038,93.175C43.221,74,50.96,58.785,55.913,51.425c4.428-6.58,8.929-10.5,10-10.671,2.1-.359,17.012,7.742,19.979,9.364l-.445.869c-6.762-3.7-18.009-9.475-19.389-9.262-.671.142-5.41,4.036-10.159,11.474-5.511,8.632-11.36,22.54-7.93,39.777Z" style="fill: #303030"/>
      <path d="M71.483,146.073c-7.419-12.606-5.877-45.487-5.807-46.88l.019-.4.38-.063c1.229-.2,30.183-4.947,37.8,1.065a4.627,4.627,0,0,1,1.875,3.21c1.014,9.8-9.107,39.993-10.017,40.608l-.522-.822.261.411-.366-.31c.585-.924,10.739-29.71,9.7-39.782a3.63,3.63,0,0,0-1.507-2.533c-6.841-5.4-33.192-1.486-36.692-.937-.156,3.847-1.15,34.3,5.688,45.92Z" style="fill: #303030"/>
      <path d="M105.381,160.037l-.1-.481-.456-.14C105,158.74,121.3,84.7,119.784,77.1c-1.536-7.665-14.873-27.137-17.153-28.021-1.75-.68-11.4,1.888-17.455,3.781l-.275-.942c1.573-.491,15.445-4.774,18.065-3.76,2.814,1.09,16.228,21.142,17.75,28.742.662,3.307-1.653,18.244-6.881,44.4-2.065,10.327-4.136,20.143-5.51,26.559C105.731,159.959,105.731,159.959,105.381,160.037Z" style="fill: #303030"/>
      <path d="M71.89,125.828s15.137-2.147,23.586,0C91.906,130.311,80.069,132.738,71.89,125.828Z" style="fill: #a8a8a8"/>
      <path d="M111.2,159.988c-4.609-24.93-12.474-29.537-37.146-27.018C57.908,134.62,56.437,160.7,56.437,160.7L55.875,171l57.251-.5Z" style="fill: #f01d23"/>
      <path d="M91.274,134.932s-.812,5.181-6.913,5.181-7.727-5.882-7.727-5.882V116.724H91.274Z" style="fill: url(#b)"/>
      <path d="M112.6,76.157s2.893,13.071,3.073,17.928c-2.891,7.282-19.5,25.021-31.529,28.568-19.619-7.47-30.463-21.848-32.994-28.568,0-13.071,2.893-18.114,3.253-19.422s9.4-20.54,30.9-20.54S112.6,76.157,112.6,76.157Z" style="fill: #e0a574"/>
      <image width="62" height="15" transform="translate(54 89)" xlink:href="snehal1.png"/>
      <path d="M90.822,73.955c-.438,1.133-.837,2.275-1.209,3.427l-.52,1.738c-.178.578-.313,1.168-.471,1.75s-.315,1.165-.417,1.761L87.854,84.4c-.128.589-.161,1.192-.255,1.785-.072.6-.176,1.189-.219,1.787l-.064,1.794-.039.9a7.812,7.812,0,0,0,.037.881c.027.3.023.62.077.9l.153.836a6.712,6.712,0,0,0,.231.821c.044.135.08.275.128.408l.179.38a3.586,3.586,0,0,0,.4.734,3.537,3.537,0,0,0,.5.657l.275.305.317.258a4.426,4.426,0,0,0,.673.462,5.426,5.426,0,0,0,1.528.593,5.889,5.889,0,0,0,1.624.154l.5-.028-.052.481a8.3,8.3,0,0,1-.343,1.566,7,7,0,0,1-.644,1.462,4.866,4.866,0,0,1-.471.659,3.71,3.71,0,0,1-.6.556,2.935,2.935,0,0,1-1.511.554,3.475,3.475,0,0,1-.789-.031,4.288,4.288,0,0,1-.75-.2,6.941,6.941,0,0,1-.7-.3c-.22-.126-.452-.229-.661-.373a11.639,11.639,0,0,1-1.223-.876c-.392-.313-.752-.663-1.116-1.005.4.3.8.6,1.211.867a11.319,11.319,0,0,0,1.266.75c.213.122.443.2.662.3a6.607,6.607,0,0,0,.682.219,4.035,4.035,0,0,0,.691.12,2.974,2.974,0,0,0,.68-.01,2.72,2.72,0,0,0,2.053-1.589,6.233,6.233,0,0,0,.507-1.335,8.952,8.952,0,0,0,.248-1.414l.45.454a6.609,6.609,0,0,1-1.888-.118,6.3,6.3,0,0,1-1.783-.638,5.046,5.046,0,0,1-.8-.537l-.378-.305-.332-.358a4.336,4.336,0,0,1-.6-.77,4.406,4.406,0,0,1-.474-.848l-.208-.44c-.058-.15-.1-.3-.151-.458a6.7,6.7,0,0,1-.257-.93l-.164-.959c-.054-.321-.045-.612-.07-.92a8.878,8.878,0,0,1-.032-.941l.048-.927.107-1.853c.061-.615.183-1.219.271-1.828.107-.606.165-1.222.33-1.814l.448-1.784c.134-.6.326-1.178.511-1.76s.357-1.169.565-1.74l.661-1.7c.227-.565.483-1.117.722-1.674S90.54,74.489,90.822,73.955Z" style="fill: #bd734c"/>
      <path d="M76.634,91s-1.816,6.117-9.044,5.438c-5.964-.56-6.68-8.551-6.68-8.551s5.061-5.851,9.217-5.384S76.634,91,76.634,91Z" style="fill: #fff"/>
      <path d="M92.9,89.477s2.44-8,8.359-8.463,7.364,5.415,7.364,5.415-1.322,7.172-6.686,8.215C95.7,95.857,92.9,89.477,92.9,89.477Z" style="fill: #fff"/>
      <path d="M58.923,76.157s8.493-8.963,18.434-3.454a13,13,0,0,1-1.446,3.081S69.587,70.369,59.374,77A4.317,4.317,0,0,1,58.923,76.157Z" style="fill: #1a1a1a"/>
      <path d="M90.642,75.877l-1.355-2.613s8.809-8.978,17.935-1.119l-.4,1.026S98.683,68.314,90.642,75.877Z" style="fill: #1a1a1a"/>
      <ellipse cx="69.664" cy="89.008" rx="5.603" ry="5.788" style="fill: url(#c)"/>
      <ellipse cx="99.678" cy="87.891" rx="5.603" ry="5.788" style="fill: url(#d)"/>
      <path d="M60.91,87.891a7.376,7.376,0,0,1,.46-.873,10.2,10.2,0,0,1,.623-.944,10.952,10.952,0,0,1,.929-1.141,10.527,10.527,0,0,1,1.265-1.213,9.126,9.126,0,0,1,.768-.59,6.579,6.579,0,0,1,.864-.542,8.842,8.842,0,0,1,2.007-.822,7.229,7.229,0,0,1,1.121-.211,10.89,10.89,0,0,1,1.162-.031h.083l.092.011.016,0,.032.006.125.023.252.044c.171.032.33.053.509.095a7.022,7.022,0,0,1,1.192.478,5.385,5.385,0,0,1,.968.655l.432.37c.135.127.249.273.372.407a8,8,0,0,1,1.152,1.7,9.831,9.831,0,0,1,.7,1.651,12.086,12.086,0,0,1,.554,2.575,7.415,7.415,0,0,1,.049.992l-.413-.884c-.268-.554-.661-1.333-1.179-2.2-.264-.432-.566-.883-.9-1.332a6.769,6.769,0,0,0-.544-.652,6.07,6.07,0,0,0-.606-.61A5.575,5.575,0,0,0,71.6,83.9c-.248-.133-.471-.154-.7-.269-.15-.034-.331-.055-.5-.084l-.252-.04-.127-.02-.032,0-.016,0,.077.01h-.061a7.058,7.058,0,0,0-1.755.136,8.8,8.8,0,0,0-1.7.536,8.282,8.282,0,0,0-.8.366,7.463,7.463,0,0,0-.757.4c-.248.132-.474.29-.7.431s-.447.284-.653.427c-.412.288-.792.56-1.121.814s-.62.48-.854.673Z" style="fill: #1a1a1a"/>
      <path d="M92.9,89.008A11.819,11.819,0,0,1,94,85.6a12.209,12.209,0,0,1,.865-1.529A10.851,10.851,0,0,1,96.092,82.5a8.682,8.682,0,0,1,1.68-1.385,7.311,7.311,0,0,1,1.013-.533,8.75,8.75,0,0,1,1.108-.366,9.313,9.313,0,0,1,1.158-.16l.146-.015h.126l.063,0,.252.014.5.028a9.592,9.592,0,0,1,1.134.194c.364.1.7.227,1.039.354a7.176,7.176,0,0,1,1.731,1.11,6.65,6.65,0,0,1,1.216,1.341,7.945,7.945,0,0,1,1.157,2.374,5.085,5.085,0,0,1,.2.969s-.185-.307-.542-.793a11.95,11.95,0,0,0-1.627-1.789,5.244,5.244,0,0,0-.585-.467,6,6,0,0,0-.647-.44,7.531,7.531,0,0,0-1.49-.668c-.273-.058-.549-.141-.821-.191-.28-.016-.5-.078-.827-.087l-.5,0h-.347c-.015,0,.107,0,.052,0h-.006l-.014,0-.106.015a8.52,8.52,0,0,0-.849.131,6.61,6.61,0,0,0-1.623.634,9.44,9.44,0,0,0-1.461,1.016,17.179,17.179,0,0,0-2.317,2.42c-.308.4-.6.77-.843,1.108l-.628.892Z" style="fill: #1a1a1a"/>
      <path d="M61.191,89.487s.082.314.277.839c.1.263.223.58.393.929a12.3,12.3,0,0,0,.617,1.14,8.548,8.548,0,0,0,.89,1.227,8.439,8.439,0,0,0,1.205,1.149,6.827,6.827,0,0,0,3.244,1.38,3.97,3.97,0,0,0,.435.074l.467.033.465.032.442-.021a4.687,4.687,0,0,0,.874-.089,4.582,4.582,0,0,0,.844-.188l.406-.119.386-.158a4.892,4.892,0,0,0,.731-.341,7.3,7.3,0,0,0,1.237-.837,10.992,10.992,0,0,0,.927-.883,9.3,9.3,0,0,0,.629-.775,6.944,6.944,0,0,0,.476-.737,5.277,5.277,0,0,1-.388.8,9.865,9.865,0,0,1-.563.849,7.621,7.621,0,0,1-.881.987,7.749,7.749,0,0,1-1.241.953,5.311,5.311,0,0,1-.752.409l-.4.184-.43.135a5.061,5.061,0,0,1-.895.22,5.185,5.185,0,0,1-.943.114l-.483.03-.465-.023-.468-.023a3.877,3.877,0,0,1-.49-.072,7.334,7.334,0,0,1-3.445-1.548,7.071,7.071,0,0,1-1.221-1.272,8.9,8.9,0,0,1-.849-1.33,8.142,8.142,0,0,1-.54-1.216c-.139-.371-.235-.7-.308-.977A6.63,6.63,0,0,1,61.191,89.487Z" style="fill: #a37855"/>
      <path d="M93.443,90.536a7.338,7.338,0,0,0,.543.693,7.911,7.911,0,0,0,.7.721,5.029,5.029,0,0,0,.463.4,5.912,5.912,0,0,0,.534.413,5.259,5.259,0,0,0,.611.4,5.177,5.177,0,0,0,.684.364,5.378,5.378,0,0,0,.754.31,6.477,6.477,0,0,0,.81.247,8.308,8.308,0,0,0,1.748.247l.909-.016.911-.124a6.266,6.266,0,0,0,.9-.184l.447-.107c.065-.017.169-.037.2-.052l.218-.086c.14-.06.3-.107.424-.177l.363-.218a5.569,5.569,0,0,0,.681-.528,8.359,8.359,0,0,0,1.092-1.275,11.071,11.071,0,0,0,.79-1.317,17.534,17.534,0,0,0,.918-2.14c.188-.534.277-.847.277-.847s-.042.324-.176.879a13.894,13.894,0,0,1-.746,2.247,11.573,11.573,0,0,1-.736,1.409,7.039,7.039,0,0,1-1.1,1.4,6.238,6.238,0,0,1-.743.6l-.428.262c-.143.08-.285.125-.43.189l-.216.091a2.147,2.147,0,0,1-.248.073l-.465.122a6.441,6.441,0,0,1-.942.21l-.962.112-.962,0a8.833,8.833,0,0,1-1.846-.3,6.917,6.917,0,0,1-1.621-.662,5.8,5.8,0,0,1-.693-.424,5.728,5.728,0,0,1-.609-.453,6.875,6.875,0,0,1-.957-.919,8.1,8.1,0,0,1-.636-.8A5.414,5.414,0,0,1,93.443,90.536Z" style="fill: #a37855"/>
      <path d="M74.646,106.5a18.371,18.371,0,0,0,10.4,3.36c5.685-.186,8.4-2.053,8.4-2.053a8.881,8.881,0,0,1-8.405,5.323C78.8,112.944,74.646,106.5,74.646,106.5Z" style="fill: #d4773d"/>
      <path d="M74.059,107.529s-.158-1.915,1.671-1.728A17.547,17.547,0,0,0,74.059,107.529Z" style="fill: #d4773d"/>
      <path d="M117.338,96.556s14.031-1.632,9.72-11.061-9.72,1.019-9.72,1.019Z" style="fill: #e0a574"/>
      <path d="M83.413,55.8S62.176,67.194,56.031,79.332c-.823,21.831,3.615,60.688,3.615,60.688l-12.109,6.723s-3.8-44.629-3.254-59.567c12.472-23.53,23.7-32.867,39.862-35.48Z" style="fill: #1a1a1a"/>
      <path d="M82.459,55.8s9.719,21.288,34.479,24.276c-3.072-11.765-15.324-26.657-33.135-26.47C83.072,57.717,82.459,55.8,82.459,55.8Z" style="fill: #1a1a1a"/>
      <path d="M119.666,93.99s3.907-2.941,3.671-5.321-3.924-2.009-3.924-2.009,4.928-5.332,6.71-.139S119.666,93.99,119.666,93.99Z" style="fill: #c98246"/>
      <polygon points="66.875 133.812 71.89 125.828 80.71 128.598 76.634 139.413 66.875 133.812" style="fill: #fff"/>
      <polygon points="87.884 128.421 91.274 140.112 98.254 134.266 95.476 125.828 87.884 128.421" style="fill: #fff"/>
      <polygon points="80.71 128.598 83.413 140.061 79.933 139.413 77.357 137.494 80.71 128.598" style="fill: #e0e0e0"/>
      <path d="M83.413,140.061l4.47-11.64,2.862,9.866A10.86,10.86,0,0,1,83.413,140.061Z" style="fill: #e0e0e0"/>
      <g>
        <path d="M67.468,136.334c-.171-.59-.277-.92-.278-.924l.9-.308s.108.339.285.949Z" style="fill: #c2171d"/>
        <path d="M71.047,160.364l-.929-.213a19.609,19.609,0,0,0,.313-1.957l.946.112A20.789,20.789,0,0,1,71.047,160.364Zm.477-4.127-.951-.037c.014-.377.02-.759.02-1.144,0-.285,0-.573-.01-.862l.951-.024q.01.446.01.886Q71.544,155.653,71.524,156.237Zm-1.037-4.054c-.046-.669-.107-1.34-.18-2.009l.946-.11c.074.681.137,1.366.184,2.048Zm-.432-4.011c-.1-.675-.2-1.343-.313-2l.938-.171c.113.664.22,1.34.317,2.025Zm-.677-3.986c-.135-.685-.274-1.346-.414-1.979l.928-.219c.141.64.282,1.31.418,2Zm-.871-3.95c-.173-.718-.343-1.376-.5-1.96l.918-.26c.157.59.328,1.256.5,1.982Z" style="fill: #c2171d"/>
        <path d="M70.067,163.329l-.854-.437c.132-.275.253-.563.364-.86l.888.354Q70.283,162.875,70.067,163.329Z" style="fill: #c2171d"/>
      </g>
      <path d="M97.791,164.209c-.07-.3-.132-.615-.187-.95l.939-.165c.051.312.109.607.173.885Zm-.425-2.94c-.052-.607-.091-1.277-.116-1.989l.951-.036c.024.7.063,1.348.113,1.938Zm.8-3.974h-.951v-.165q0-.89.021-1.815l.951.023c-.014.607-.021,1.206-.021,1.792Zm.085-3.917-.951-.041c.026-.654.06-1.314.1-1.974l.95.058C98.31,152.075,98.278,152.729,98.252,153.378Zm.223-3.915-.95-.071c.047-.662.1-1.32.15-1.968l.949.083C98.571,148.151,98.52,148.8,98.475,149.463Zm.319-3.911-.947-.094c.062-.674.126-1.33.19-1.964l.947.1C98.92,144.227,98.856,144.881,98.794,145.551Zm.4-3.909-.946-.111c.077-.7.154-1.359.225-1.96l.945.119C99.344,140.291,99.269,140.945,99.191,141.642Zm.463-3.9-.943-.129c.158-1.235.262-1.963.262-1.963l.942.144S99.812,136.517,99.655,137.741Z" style="fill: #c2171d"/>
      <path d="M120.113,78.222c-.5-.275-12.385-6.772-16.807-10.2-4.375-3.39-19.361-13.049-19.512-13.146l.5-.835c.151.1,15.172,9.779,19.579,13.194,4.362,3.38,16.558,10.048,16.681,10.115Z" style="fill: #303030"/>
      <path d="M59.467,146.818C56.792,132.752,48.519,87.062,51.609,75.6c3.6-13.358,32.258-20.595,32.547-20.665l-.22-.957c-1.2.3-29.489,7.445-33.243,21.359-3.325,12.322,5.842,61.4,8.149,73.292Z" style="fill: #303030"/>
      <path d="M53.138,96.556s-15-1.632-10.389-11.061,10.389,1.019,10.389,1.019Z" style="fill: #e0a574"/>
      <path d="M49.389,93.679S46,90.861,46.725,88.389s4.426-1.309,4.426-1.309-4.955-5.627-6.92-1.026C41.617,92.169,49.389,93.679,49.389,93.679Z" style="fill: #c98246"/>
      <path d="M85.757,49.043a77.838,77.838,0,0,1-3.339,7.3l.251-.151s.237.45.462.871a65.209,65.209,0,0,0,3.8-8.524Z" style="fill: #303030"/>
    </g>
  </g>
</svg>
