<svg xmlns="http://www.w3.org/2000/svg" xmlns:xlink="http://www.w3.org/1999/xlink" viewBox="0 0 168 168">
  <defs>
    <clipPath id="a">
      <rect y="-268" width="168" height="168" style="fill: none"/>
    </clipPath>
    <linearGradient id="b" x1="84.654" y1="153.392" x2="84.717" y2="149.714" gradientUnits="userSpaceOnUse">
      <stop offset="0" stop-color="#54090b"/>
      <stop offset="0.296" stop-color="#640a0d"/>
      <stop offset="0.666" stop-color="#710c0f"/>
      <stop offset="1" stop-color="#760c10"/>
    </linearGradient>
    <linearGradient id="c" x1="84.885" y1="85.624" x2="91.558" y2="86.984" gradientUnits="userSpaceOnUse">
      <stop offset="0" stop-color="#ffae80"/>
      <stop offset="0.093" stop-color="#feaa7b"/>
      <stop offset="0.664" stop-color="#f99760"/>
      <stop offset="1" stop-color="#f79056"/>
    </linearGradient>
    <linearGradient id="d" x1="-414.205" y1="225.887" x2="-414.205" y2="219.777" gradientTransform="translate(320.628 484.774) rotate(90)" gradientUnits="userSpaceOnUse">
      <stop offset="0" stop-color="#426f85"/>
      <stop offset="0.213" stop-color="#375c6f"/>
      <stop offset="0.492" stop-color="#2d4959"/>
      <stop offset="0.759" stop-color="#263d4c"/>
      <stop offset="1" stop-color="#243947"/>
    </linearGradient>
    <linearGradient id="e" x1="538.622" y1="64.572" x2="538.622" y2="58.461" gradientTransform="translate(-465.73 9.005)" xlink:href="#d"/>
    <linearGradient id="f" x1="85.234" y1="163.078" x2="85.254" y2="161.935" xlink:href="#b"/>
    <clipPath id="g">
      <rect width="168" height="168" style="fill: none"/>
    </clipPath>
    <linearGradient id="h" data-name="åçûìßííûé ãðàäèåíò 4" x1="127.205" y1="171.636" x2="126.953" y2="155.157" gradientUnits="userSpaceOnUse">
      <stop offset="0" stop-color="#521719"/>
      <stop offset="1" stop-color="#9e2c30"/>
    </linearGradient>
    <linearGradient id="i" data-name="åçûìßííûé ãðàäèåíò 156" x1="-4836.671" y1="149.222" x2="-4836.671" y2="126.458" gradientTransform="matrix(-1, 0, 0, 1, -4745.169, 0)" gradientUnits="userSpaceOnUse">
      <stop offset="0" stop-color="#f5ba89"/>
      <stop offset="0.367" stop-color="#e6a36b"/>
      <stop offset="0.765" stop-color="#d98e50"/>
      <stop offset="1" stop-color="#d48646"/>
    </linearGradient>
    <linearGradient id="j" data-name="åçûìßííûé ãðàäèåíò 150" x1="-4840.761" y1="89.891" x2="-4846.869" y2="94.334" gradientTransform="matrix(-1, 0, 0, 1, -4745.169, 0)" gradientUnits="userSpaceOnUse">
      <stop offset="0" stop-color="#f5ba89"/>
      <stop offset="1" stop-color="#e69a5c"/>
    </linearGradient>
    <clipPath id="k">
      <path d="M110.187,78.335l-8.009-1.246-2.992,5.17.65,1.859a32.264,32.264,0,0,0,11.1-2.928Z" style="fill: none"/>
    </clipPath>
    <clipPath id="l">
      <path d="M86.832,83.716l-4.555-3L70.964,85.249s.147,1.533,0,1.324,5.193,1.182,9.036.906a20.807,20.807,0,0,0,7.42-1.672Z" style="fill: #fff"/>
    </clipPath>
    <linearGradient id="m" data-name="åçûìßííûé ãðàäèåíò 3" x1="114.942" y1="161.324" x2="116.233" y2="167.878" gradientUnits="userSpaceOnUse">
      <stop offset="0" stop-color="#9e2c30"/>
      <stop offset="1" stop-color="#702b2d"/>
    </linearGradient>
    <linearGradient id="n" x1="55.163" y1="158.799" x2="55.262" y2="170.374" xlink:href="#m"/>
  </defs>
  <title>wip-a</title>
  <g style="clip-path: url(#a)">
    <g>
      <path d="M104.175,146.075c14.513,4.4,27.857,9.058,34.875,15.124l3.784,10.862c-10.966,1.517-118.693.206-123.218-.575l8.812-12.459c12.859-6.391,25.415-11.724,36.792-12.951Z" style="fill: #f5fdff"/>
      <rect x="72.497" y="120.172" width="26.952" height="24.187" style="fill: #ffae80"/>
      <polygon points="85.203 139.572 77.799 149.081 84.713 158.772 86.889 155.645 91.658 149.081 85.203 139.572" style="fill: url(#b)"/>
      <polygon points="72.221 134.983 63.111 146.895 77.799 149.081 85.203 139.572 72.221 134.983" style="fill: #e1f0f5"/>
      <polygon points="85.203 139.572 91.658 149.081 106.792 146.895 99.449 136.127 85.203 139.572" style="fill: #e1f0f5"/>
      <path d="M56.59,74.414a17.388,17.388,0,0,0-5.082.372c-2.27,5.491,0,14.162,0,14.162l5.753,3.42Z" style="fill: #ed9c6d"/>
      <path d="M114.651,74.414a17.388,17.388,0,0,1,5.082.372c2.271,5.491,0,14.162,0,14.162l-5.753,3.42Z" style="fill: #ed9c6d"/>
      <path d="M116.015,75.138l-1.16,17.3s-3.31,16.785-8.682,25.122c-5.8,8.988-9.917,7.709-20.485,7.709-8.939,0-5.861-2.16-14.805-6.214C63.7,109.487,56.65,91.385,56.65,91.385L55.259,74.829c0-2.3,4.735-31.593,7.044-33.871s43.263-3.425,45.232,0S116.015,75.138,116.015,75.138Z" style="fill: #ffae80"/>
      <path d="M86.825,82.209H97.149s2.895,8.582-12,9.382A10.545,10.545,0,0,1,86.825,82.209Z" style="fill: url(#c)"/>
      <path d="M81.985,61.635l-.354-4.873s-11.119.855-13.679,1.811a27.013,27.013,0,0,0-5.517,3.187l-1.143,3.669A83.846,83.846,0,0,1,69.2,62.44C71.114,62.012,81.985,61.635,81.985,61.635Z" style="fill: #3d2416"/>
      <path d="M87.512,81.59c.005-2.895-.006-5.786-.055-8.678-.028-3.1-.156-6.2-.245-9.3l-.131.267c1.032-.853,2.03-1.74,3.039-2.616s2.02-1.756,3.007-2.653c-1.112.768-2.2,1.557-3.294,2.348s-2.193,1.577-3.261,2.391l-.128.1,0,.166c-.086,3.1-.217,6.2-.244,9.3-.052,3.1-.06,6.2-.053,9.3l0,.63.68-.007,6.314-.045,3.155-.039.789-.017h.075l.012,0-.205-.027.006,0,.046.014a.381.381,0,0,1-.146-.055.354.354,0,0,1-.109-.124l0,.01c0,.007.007.006.013.023a1.673,1.673,0,0,1,.059.258,5.4,5.4,0,0,1-.011,1.316,8.2,8.2,0,0,1-2.441,4.917,8.312,8.312,0,0,1-2.448,1.649,11.819,11.819,0,0,1-1.44.53c-.5.141-1.005.255-1.524.35.526-.035,1.05-.092,1.571-.176A11.729,11.729,0,0,0,92.074,91a9.162,9.162,0,0,0,2.756-1.523,8.832,8.832,0,0,0,3-5.208,6.133,6.133,0,0,0,.107-1.543,2.487,2.487,0,0,0-.078-.446,1.47,1.47,0,0,0-.055-.147l-.032-.076a.838.838,0,0,0-.17-.2,1.02,1.02,0,0,0-.2-.125l-.046-.018,0,0c-.1-.015.207.028-.216-.031l-.012,0h-.075l-.786-.013-3.144-.042Z" style="fill: #c98965"/>
      <path d="M116.015,75.712,115.2,91.385s-4.183,38.281-29.954,38.281S56.155,91.385,56.155,91.385l-.9-18.637,1.969,3.872V91.939l5.8,5.961,4.536-4.02,35.034.255,4.938,4.021s6.288-5.243,6.288-5.622V78.092Z" style="fill: #e69b71"/>
      <path d="M72.5,97.354s3.7,5.544,13.089,5.544,13.323-5.4,13.323-5.4Z" style="fill: #3d2416"/>
      <path d="M72.5,97.493H98.676s-4.559,4.107-13.09,4.107S72.5,97.493,72.5,97.493Z" style="fill: #fff"/>
      <path d="M73.033,96.519l-4.659,10.657S70.8,97.169,73.033,96.519Z" style="fill: #b2785b"/>
      <path d="M98.327,96.519l4.029,11.109S100.83,97.248,98.327,96.519Z" style="fill: #b2785b"/>
      <path d="M90.041,61.493l.889-5.119S102.322,57.8,105.037,59.3s2.385,1.58,2.385,1.58l.023,3.161a24.193,24.193,0,0,0-3.748-1.617C102.151,61.987,90.041,61.493,90.041,61.493Z" style="fill: #3d2416"/>
      <g>
        <path d="M105.031,70.944s.871,4.635-8.1,3.064c-7.774-1.364-4.882-6.914-4.882-6.914a8.591,8.591,0,0,1,6.626-.38A13.473,13.473,0,0,1,105.031,70.944Z" style="fill: #fff"/>
        <ellipse cx="97.534" cy="70.569" rx="3.559" ry="4.679" transform="translate(2.14 144.005) rotate(-73.477)" style="fill: url(#d)"/>
        <path d="M104.858,71.518a.964.964,0,0,1-.4-.23c-5.875-5.8-11.93-3.648-11.994-3.624a.978.978,0,0,1-1.07-.325.509.509,0,0,1,.25-.816c.071-.024,7.23-2.573,13.966,4.078a.517.517,0,0,1-.054.859A.885.885,0,0,1,104.858,71.518Z" style="fill: #3d2416"/>
        <path d="M92.47,73.621s9.235-1.28,14,1.424C104.223,77.81,92.47,73.621,92.47,73.621Z" style="fill: #ffae80"/>
      </g>
      <g>
        <path d="M65.387,70.881s-1.288,4.663,7.732,3.425C80.94,73.23,78.5,67.514,78.5,67.514s-2.4-1.227-6.491-.177A15.84,15.84,0,0,0,65.387,70.881Z" style="fill: #fff"/>
        <ellipse cx="72.892" cy="70.784" rx="4.68" ry="3.559" transform="translate(-15.316 20.356) rotate(-14.403)" style="fill: url(#e)"/>
        <path d="M65.536,71.462a.876.876,0,0,1-.724-.107.526.526,0,0,1,.043-.866c7.324-6.07,14-3.562,14.063-3.534a.507.507,0,0,1,.241.817.977.977,0,0,1-1.078.3c-.25-.1-5.762-2.11-12.164,3.2A.964.964,0,0,1,65.536,71.462Z" style="fill: #3d2416"/>
        <path d="M79.825,72.678S70.76,73.137,65.3,75.2C70.765,76.119,79.825,72.678,79.825,72.678Z" style="fill: #ffae80"/>
      </g>
      <polygon points="84.713 158.772 79.028 164.642 91.386 164.642 84.713 158.772" style="fill: url(#f)"/>
      <g>
        <path d="M69.9,26.809c-1.94.555-3.786,1.171-5.47,1.835C53.879,38.753,51.185,49.107,51.185,49.107l4.076,25.17,1.967,3.343.357-5.565,4.66-20.728.113-.037C66.7,42.016,71.076,31.919,69.9,26.809Z" style="fill: #3d2416"/>
        <path d="M102.2,27.392c-9.379-4.2-21.169-3.5-30.759-1.013,1.176,4.786-1.728,12.756-7.045,24.245l.4-.131,4.645-5.436-2.256,5.978,2.877-.237,1.533-.761C85.864,42.963,100.585,35.66,102.2,27.392Z" style="fill: #3d2416"/>
        <path d="M116.229,36.207c-1,4.552-4.883,8.784-8.9,12.469L113.867,78.5l2.789-4,2.236-31.486A16.217,16.217,0,0,0,116.229,36.207Z" style="fill: #3d2416"/>
        <path d="M114.9,34.492a17.452,17.452,0,0,0-9.675-5.543c-.511-.31-1.044-.577-1.574-.852-1.976,8.422-15.079,15.258-29.359,22.353l6.069-.5,21.621-7.414-3.43,3.612,7.656-2.593.731,3.338C110.771,43.292,114.608,38.9,114.9,34.492Z" style="fill: #3d2416"/>
        <path d="M116.229,36.207a16.917,16.917,0,0,0-1.328-1.715c-.292,4.405-4.129,8.8-7.96,12.4l.39,1.781C111.346,44.991,115.224,40.759,116.229,36.207Z" style="fill: #2e170d"/>
        <path d="M103.652,28.1c-.478-.248-.961-.485-1.453-.705-1.614,8.268-16.335,15.571-30.6,22.646l-1.533.761,4.231-.348C88.572,43.356,101.676,36.52,103.652,28.1Z" style="fill: #2e170d"/>
        <path d="M71.44,26.379c-.525.136-1.032.284-1.542.43,1.178,5.11-3.2,15.207-7.541,24.481l2.039-.666C69.712,39.136,72.616,31.165,71.44,26.379Z" style="fill: #2e170d"/>
      </g>
    </g>
  </g>
  <g style="clip-path: url(#g)">
    <g>
      <path d="M138.029,161.638c-3.753-3.036-28.963-13.633-28.963-13.633s1.062,12.739,3.027,24.37c9.193-1.231,23.645-3.266,32.838-4.181C144.33,167.729,138.517,162.032,138.029,161.638Z" style="fill: url(#h)"/>
      <path d="M62.386,82.772s-8.444,1.989-7.12,7.327,9.562,4.485,9.562,4.485Z" style="fill: #e8a268"/>
      <path d="M107.011,126.653V146.9l-15.123,6.623-15.9-7.727V117.159S89.9,133.276,107.011,126.653Z" style="fill: url(#i)"/>
      <path d="M108.061,52.834,113.64,67.3s-2.207,14.251,7.894,21.788c.662,15.23,2.282,37.466-23.714,41.862-24.035-3.684-26.31-11.959-31.294-16.617C65.366,108.208,60.111,60.4,60.111,60.4Z" style="fill: #f5ba89"/>
      <polygon points="92.107 95.961 98.722 82.311 106.264 94.548 93.514 98.238 92.107 95.961" style="fill: url(#j)"/>
      <path d="M108.569,53.848s4.722-11.354-3.551-16.9-18.474,4.561-18.474,4.561a8.581,8.581,0,0,0-8.155-1.989c-4.916,1.361-9.943,11.2-9.943,11.2a7.522,7.522,0,0,0-6.256,1.57C59.509,54.7,59.6,57.07,59.6,57.07s-6.263.034-7.268,4.849,4.2,8.816,4.2,8.816-2.011,4.71-1.117,7.641,7.8,10.444,7.8,10.444l3.748-25.35s4.581,1.133,7.15,0,9.86-5.529,9.86-5.529,5.809,2.826,10.613,1.465S108.569,53.848,108.569,53.848Z" style="fill: #423225"/>
      <polygon points="87.278 72.932 87.278 76.177 71.375 77.276 65.897 80.602 64.869 78.166 70.389 72.932 87.278 72.932" style="fill: #423225"/>
      <path d="M110.187,78.335l-8.009-1.246L99.539,80.8l1.838,3.259a20.55,20.55,0,0,0,9.563-2.87Z" style="fill: #fff"/>
      <g style="clip-path: url(#k)">
        <ellipse cx="103.626" cy="80.8" rx="2.818" ry="3.156" style="fill: #523721"/>
      </g>
      <g>
        <path d="M86.832,83.716l-4.555-3L70.964,85.249s.147,1.533,0,1.324,5.193,1.182,9.036.906a20.807,20.807,0,0,0,7.42-1.672Z" style="fill: #fff"/>
        <g style="clip-path: url(#l)">
          <ellipse cx="79.19" cy="85.202" rx="3.346" ry="3.173" style="fill: #523721"/>
        </g>
      </g>
      <path d="M76.073,111.871c7.451,1.361,8.334-11.3,8.334-11.3l25-6.8s3.808,10.206,7.341,8.165c5.908-3.414,2.964-14.359,2.964-14.359h0a22.017,22.017,0,0,0,1.818,1.519c.662,15.23,2.282,39.295-23.714,43.691-21.364-1.79-31.72-13.788-33.557-26.419A136.137,136.137,0,0,1,63.086,88.82C63.088,88.826,68.624,110.511,76.073,111.871Z" style="fill: #c29b7c"/>
      <path d="M107.764,148.005l-12.04,12.529L74.991,149.278v18.6l.147,2.961c12.583-1.242,25.165-.659,37.747-2.341Z" style="fill: #858585"/>
      <path d="M108.5,149.937v-2.778L93.543,163.017,73.784,147.191l-.993,2.746,19.98,18.887c.751-.1,1.5-.187,2.251-.285Z" style="fill: #6b6b6b"/>
      <path d="M107.011,144.969s1.086,11.343,1.947,24.739c4.55-.612,10.492-.589,15.042-1.167C116.571,158.551,107.011,144.969,107.011,144.969Z" style="fill: url(#m)"/>
      <path d="M71.769,171.17c2.647-.241,5.294-.514,7.941-.8-2.754-14.711-4.932-23.745-4.932-23.745S33.831,165.468,33.5,166.792c-.018.071-2.781,5.117-2.667,5.583C40.336,175.972,61.919,172.4,71.769,171.17Z" style="fill: url(#n)"/>
      <path d="M68.512,150.57l-1.325.031.476,21.008q.665-.059,1.322-.125Z" style="fill: #522e2f"/>
      <path d="M99.946,151.261,95.217,142.4l-2.391,9.355-3.311-8.941-3.974,8.941s5.464,2.815,7.12,2.815S99.946,151.261,99.946,151.261Z" style="fill: #c4c4c4"/>
      <polygon points="108.496 147.159 93.212 153.524 75.992 145.797 73.784 148.488 93.543 163.017 108.496 147.159" style="fill: #dbdbdb"/>
      <path d="M70.964,85.249s9.589-3.8,11.1-3.633,4.771,2.1,4.771,2.1-1.868-3.762-5.216-3.762S70.964,85.249,70.964,85.249Z" style="fill: #3d2511"/>
      <path d="M99.185,81.082a5.142,5.142,0,0,1,2.705-4.221c2.635-1.326,8.857,1.636,9.048,1.568s-6.577-.955-8.469-.15-2.868,3.98-2.868,3.98Z" style="fill: #3d2511"/>
      <path d="M93.48,98.943a.588.588,0,0,1-.6-.3c-.17-.242-1.224-1.972-1.433-2.316a.7.7,0,0,1,.279-.988.787.787,0,0,1,1.042.265c.41.674.862,1.413,1.138,1.854,1.6-.373,7.219-2.071,11.225-3.313L94.9,77.539l.173-4.632a.728.728,0,0,1,.789-.7.739.739,0,0,1,.735.748l-.157,4.213L107.4,94.955l-.9.279C97.161,98.148,94.43,98.943,93.48,98.943Z" style="fill: #c97f53"/>
      <polygon points="112.001 67.803 104.194 65.343 94.259 72.932 95.952 75.549 105.324 69.922 112.3 69.285 112.001 67.803" style="fill: #423225"/>
      <g>
        <path d="M106.58,106.959v2.976s-14.114,4.056-19.3-2.251C93.928,109.385,98.2,109.242,106.58,106.959Z" style="fill: #592e0b"/>
        <path d="M87.278,107.684c12,1.884,19.538-2.826,19.538-2.826l-.348,3.1s-12.54,3.783-19.19-.273" style="fill: #fff"/>
        <path d="M88.036,106.171l-1,2.885a2.5,2.5,0,0,1-.54-1.655C86.682,106.426,88.036,106.171,88.036,106.171Z" style="fill: #3d2511"/>
        <polygon points="108.392 101.164 106.295 98.635 107.337 97.859 109.434 100.388 108.392 101.164" style="fill: #997456"/>
        <polygon points="102.52 101.98 102.197 98.29 103.516 98.186 103.84 101.875 102.52 101.98" style="fill: #997456"/>
        <rect x="97.102" y="100.083" width="1.325" height="4.147" style="fill: #997456"/>
        <polygon points="92.715 105.107 91.499 104.609 92.833 101.679 94.049 102.176 92.715 105.107" style="fill: #997456"/>
        <polygon points="87.017 105.218 85.932 104.498 87.922 101.797 89.007 102.516 87.017 105.218" style="fill: #997456"/>
        <polygon points="82.486 115.972 81.362 115.307 83.915 111.434 85.038 112.099 82.486 115.972" style="fill: #997456"/>
        <rect x="87.802" y="112.663" width="1.325" height="3.587" style="fill: #997456"/>
        <rect x="94.121" y="115.698" width="1.325" height="5.077" style="fill: #997456"/>
        <rect x="86.008" y="121.218" width="3.727" height="1.324" transform="translate(-55.66 166.32) rotate(-71.414)" style="fill: #997456"/>
        <rect x="78.535" y="119.065" width="4.044" height="1.324" transform="translate(-62.125 98.142) rotate(-47.463)" style="fill: #997456"/>
        <rect x="74.693" y="113.491" width="1.325" height="3.201" style="fill: #997456"/>
        <polygon points="70.723 115.755 69.848 111.335 71.15 111.103 72.025 115.524 70.723 115.755" style="fill: #997456"/>
        <polygon points="67.227 107.173 65.903 103.722 67.147 103.292 68.472 106.744 67.227 107.173" style="fill: #997456"/>
        <rect x="71.964" y="119.609" width="2.999" height="1.325" transform="translate(-60.071 165.332) rotate(-77.23)" style="fill: #997456"/>
        <rect x="83.204" y="128.282" width="3.345" height="1.325" transform="translate(-69.066 117.435) rotate(-52.37)" style="fill: #997456"/>
        <rect x="91.444" y="127.62" width="1.325" height="3.643" style="fill: #997456"/>
        <polygon points="113.016 107.583 110.698 104.603 111.764 103.857 114.082 106.837 113.016 107.583" style="fill: #997456"/>
        <polygon points="111.41 113.986 109.205 109.843 110.387 109.278 112.592 113.421 111.41 113.986" style="fill: #997456"/>
        <rect x="107.533" y="114.305" width="1.324" height="3.533" transform="translate(-37.807 53.927) rotate(-23.955)" style="fill: #997456"/>
        <polygon points="102.366 117.636 101.638 113.815 102.942 113.592 103.67 117.412 102.366 117.636" style="fill: #997456"/>
        <rect x="99.558" y="123.04" width="1.325" height="3.2" transform="translate(-28.828 30.164) rotate(-14.99)" style="fill: #997456"/>
        <rect x="105.801" y="122.877" width="1.325" height="4.96" transform="translate(-41.97 54.531) rotate(-24.151)" style="fill: #997456"/>
        <rect x="101.183" y="129.373" width="1.325" height="2.952" transform="translate(-34.65 36.706) rotate(-17.51)" style="fill: #997456"/>
        <rect x="111.728" y="120.776" width="1.325" height="3.864" style="fill: #997456"/>
        <rect x="115.978" y="113.782" width="1.325" height="3.061" transform="translate(-38.403 61.802) rotate(-25.631)" style="fill: #997456"/>
        <polygon points="118.393 111.546 116.074 107.94 117.205 107.287 119.523 110.892 118.393 111.546" style="fill: #997456"/>
        <polygon points="120.049 106.358 118.725 102.344 119.988 101.969 121.313 105.984 120.049 106.358" style="fill: #997456"/>
      </g>
      <g>
        <path d="M92.3,46.938c-.69-1.526-2.263-3.592-5.715-5.89.19-.2.44-.443.749-.722,3.559,2.4,5.205,4.59,5.94,6.217,2.168,4.8-1.908,10.659-3.89,13.1-.406-.055-.8-.123-1.186-.2C89.864,57.462,94.361,51.49,92.3,46.938Z" style="fill: #332214"/>
        <path d="M81.979,51.456a6.134,6.134,0,0,0-7.267-1.511,4.61,4.61,0,0,0-2.817,5.269,3.153,3.153,0,0,0,1.779,2.509c1.692.589,3.959-1,3.982-1.019l.637.8c-.111.08-2.751,1.943-4.982,1.162a4.077,4.077,0,0,1-2.451-3.232,5.537,5.537,0,0,1,3.385-6.392A7.6,7.6,0,0,1,78.07,48.4c.3-.945.944-3.575-.26-5.6a4.792,4.792,0,0,0-2.246-1.868,9.944,9.944,0,0,1,.952-.673,5.617,5.617,0,0,1,2.217,2.046c1.366,2.293.742,5.107.389,6.266A6.935,6.935,0,0,1,82.8,50.818a8.824,8.824,0,0,1,2.263,7.719c-.416-.155-.746-.291-.989-.4A7.933,7.933,0,0,0,81.979,51.456Z" style="fill: #332214"/>
        <path d="M59.465,72.908a9.129,9.129,0,0,0-4.139,1.834c.085-.5.193-.984.31-1.436a9.147,9.147,0,0,1,3.709-1.4,6.185,6.185,0,0,1,5.342,2.646l-.175,1.555C63.918,75.146,62.089,72.61,59.465,72.908Z" style="fill: #332214"/>
        <path d="M62.34,64.815c-1.019.687-2.886-.361-3.947-.361a6.007,6.007,0,0,1-.6-.029c-2.244-.226-3.381-.252-3.775-1.981-.241-1.056,2.559-2.23,2.64-3.345a3.971,3.971,0,0,1,1.135-.705c-.149,1.255-3.011,2.644-2.739,3.838a3.857,3.857,0,0,0,3.555,2.532,4.513,4.513,0,0,0,4.7-2.631c1.186-2.493,1.936-7.166-.03-10.68a6.581,6.581,0,0,1,.957-.44c2.055,3.695,1.4,8.682.04,11.532a6.188,6.188,0,0,1-.475.83c-.158.436-1.942,2.283-.488,4.105a3.515,3.515,0,0,0,2.043,1.138l-.114,1.01a4.57,4.57,0,0,1-2.775-1.543C61.375,66.717,62.108,66.189,62.34,64.815Z" style="fill: #332214"/>
      </g>
      <path d="M110.432,146.956c-.221-.828-3.422-9.107-3.422-9.107L95.217,142.4l3.735,11.121Z" style="fill: #f5f5f5"/>
      <polygon points="89.514 142.817 85.872 152.586 70.804 148.005 75.992 139.009 89.514 142.817" style="fill: #f5f5f5"/>
      <path d="M109.695,147.8l-1.258.416,5.878,17.757,1.337-.177Z" style="fill: #522e2f"/>
    </g>
  </g>
</svg>
