<?xml version="1.0" standalone="no"?>
<!DOCTYPE svg PUBLIC "-//W3C//DTD SVG 20010904//EN"
 "http://www.w3.org/TR/2001/REC-SVG-20010904/DTD/svg10.dtd">
<svg version="1.0" xmlns="http://www.w3.org/2000/svg"
 width="16.000000pt" height="16.000000pt" viewBox="0 0 16.000000 16.000000"
 preserveAspectRatio="xMidYMid meet">
<metadata>
Created by potrace 1.11, written by Peter Selinger 2001-2013
</metadata>
<g transform="translate(0.000000,16.000000) scale(0.001375,-0.001375)"
fill="#000000" stroke="none">
<path d="M2819 8816 c-2 -2 -38 -6 -79 -9 -41 -4 -93 -9 -115 -12 -22 -2 -60
-7 -84 -10 -25 -4 -47 -8 -50 -9 -3 -2 -26 -7 -51 -10 -25 -3 -71 -13 -102
-21 -31 -8 -67 -16 -80 -19 -55 -10 -317 -97 -390 -129 -31 -14 -59 -23 -62
-19 -3 3 -6 0 -6 -6 0 -7 -5 -12 -10 -12 -12 0 -222 -100 -230 -110 -3 -3 -16
-11 -30 -18 -57 -27 -234 -139 -275 -174 -11 -9 -53 -41 -93 -71 -167 -126
-348 -303 -488 -478 -32 -41 -62 -76 -65 -79 -14 -12 -159 -231 -159 -240 0
-5 -4 -10 -9 -10 -5 0 -13 -10 -17 -22 -4 -13 -9 -25 -13 -28 -13 -11 -104
-185 -142 -273 -17 -40 -39 -90 -49 -112 -69 -154 -155 -471 -185 -680 -4 -22
-8 -51 -11 -65 -26 -159 -26 -604 2 -775 2 -16 6 -46 9 -65 2 -19 6 -45 9 -56
2 -12 7 -38 10 -58 5 -32 21 -102 30 -131 2 -8 18 -80 21 -95 0 -3 16 -52 35
-110 18 -58 34 -107 35 -110 1 -3 7 -18 14 -35 7 -16 19 -48 27 -70 43 -121
165 -356 250 -486 24 -37 44 -69 44 -73 0 -3 7 -14 15 -23 9 -10 52 -65 95
-123 164 -216 376 -426 591 -586 213 -158 459 -294 710 -393 31 -12 63 -24 70
-25 8 -2 21 -6 29 -9 37 -15 107 -38 130 -43 14 -2 36 -9 50 -14 63 -23 314
-74 425 -86 28 -3 66 -7 85 -10 52 -8 530 -13 530 -5 0 3 19 6 43 7 37 0 65 3
177 19 54 7 107 17 140 25 19 5 46 11 60 14 14 2 54 12 90 21 36 9 72 18 80
20 8 2 44 13 80 25 36 12 70 23 75 24 67 13 421 175 526 242 21 13 41 24 43
24 6 0 220 144 256 172 133 103 300 252 300 268 0 4 -33 42 -72 83 -40 41
-136 141 -213 222 -77 81 -162 171 -190 200 -27 28 -108 113 -180 189 -71 75
-176 184 -232 243 l-102 105 -48 -45 c-45 -43 -59 -55 -112 -100 -12 -9 -25
-17 -30 -17 -5 0 -11 -3 -13 -8 -9 -22 -201 -133 -303 -174 -90 -37 -99 -41
-112 -44 -7 -1 -34 -9 -60 -17 -50 -16 -98 -28 -123 -32 -8 -1 -28 -5 -45 -8
-137 -26 -415 -27 -535 -2 -14 3 -36 7 -50 10 -44 8 -184 46 -195 53 -5 3 -16
7 -23 8 -8 2 -28 9 -45 17 -18 8 -61 27 -97 43 -36 15 -67 31 -70 34 -3 3 -21
14 -40 24 -85 46 -231 159 -314 242 -103 104 -236 275 -236 303 0 5 -4 11 -8
13 -8 3 -112 209 -112 221 0 3 -5 18 -12 34 -6 15 -12 33 -13 38 0 6 -6 22
-12 36 -14 33 -50 197 -59 274 -22 182 -7 395 42 589 13 54 39 133 56 175 18
42 33 78 33 81 0 3 24 48 53 101 87 156 210 308 344 424 72 63 85 73 130 102
24 15 45 30 48 33 40 40 328 168 443 196 232 56 541 64 727 17 14 -3 34 -8 45
-10 11 -2 38 -9 60 -15 49 -14 46 -13 68 -21 9 -4 25 -10 35 -14 9 -3 19 -7
22 -8 86 -30 298 -143 364 -195 55 -44 164 -139 178 -155 19 -22 -6 -45 313
290 73 77 164 172 202 211 37 39 131 138 208 219 77 81 175 183 217 227 l76
80 -58 55 c-153 141 -446 363 -481 363 -5 0 -9 5 -9 10 0 6 -4 10 -10 10 -5 0
-42 19 -82 43 -120 70 -415 204 -488 222 -8 2 -43 13 -78 24 -64 21 -138 43
-158 47 -7 1 -45 9 -85 19 -91 20 -231 45 -284 50 -22 2 -51 7 -65 10 -28 7
-494 18 -501 11z"/>
<path d="M6149 8315 c-277 -276 -505 -507 -507 -513 -2 -7 440 -455 982 -997
542 -542 986 -987 986 -990 0 -3 -446 -451 -990 -995 l-990 -990 67 -65 c38
-36 267 -265 511 -509 l444 -444 989 989 c544 544 991 989 994 989 2 0 450
-445 994 -989 l989 -989 510 510 510 510 -989 989 c-544 543 -989 991 -989
994 0 3 445 450 989 994 l989 989 -506 506 c-278 278 -509 506 -514 506 -4 0
-451 -443 -993 -985 -542 -542 -987 -985 -990 -985 -3 0 -450 445 -994 989
l-989 989 -503 -503z"/>
</g>
</svg>
